<svg width="186" height="186" viewBox="0 0 186 186" fill="none" xmlns="http://www.w3.org/2000/svg">
<path d="M70.2098 99.3879C68.6933 100.884 66.5869 101.799 64.2559 101.799C59.622 101.799 55.8307 98.0857 55.8307 93.4862C55.8307 88.8867 59.594 85.1738 64.2559 85.1738C66.615 85.1738 68.7494 86.1436 70.266 87.6675L75.9671 81.9874C73.0182 79.0781 68.8618 77.2494 64.3121 77.2494C55.2128 77.2494 47.8267 84.5365 47.8267 93.5139C47.8267 102.491 55.2128 109.778 64.3121 109.778C68.8618 109.778 72.9902 107.95 75.9671 105.013L70.2098 99.3879Z" fill="#212750"/>
<path d="M32.4084 109.834H23.1968L36.8457 81.0731C38.0533 78.5794 40.6371 77.1663 43.4455 77.1663H47.7705L32.4084 109.834Z" fill="#E99A1F"/>
<path d="M47.0121 99.3048H38.9238V101.688H47.0121V99.3048Z" fill="#E99A1F"/>
<path d="M65.4074 92.3224H63.0483V94.733H65.4074V92.3224Z" fill="#E99A1F"/>
<path d="M80.7416 92.3501H72.541V94.7607H80.7416V92.3501Z" fill="#202751"/>
<path d="M90.9924 85.5617C91.1047 85.5617 91.2171 85.5617 91.3294 85.534C91.4417 85.5063 91.526 85.5063 91.5822 85.4786V82.5693H94.194C94.5029 82.5693 94.6714 82.403 94.6714 82.0428C94.6714 81.932 94.6714 81.8489 94.6434 81.7657C94.6153 81.6826 94.5872 81.6272 94.531 81.5718H91.5822V79.4106H94.6153C94.9242 79.4106 95.0927 79.2166 95.0927 78.8564C95.0927 78.7456 95.0927 78.6625 95.0646 78.5793C95.0365 78.4962 95.0084 78.4131 94.9523 78.3854H90.9643C90.7677 78.3854 90.5992 78.4408 90.4588 78.5793C90.3184 78.6902 90.2622 78.8564 90.2622 79.0781V85.0353C90.2903 85.3677 90.515 85.5617 90.9924 85.5617Z" fill="#212750"/>
<path d="M99.502 85.534C99.839 85.4509 100.092 85.3401 100.288 85.2292C100.429 85.1461 100.541 85.063 100.625 84.9521C100.71 84.8413 100.738 84.7028 100.738 84.5365V81.7935C100.738 81.1008 100.513 80.602 100.092 80.2972C99.6424 79.9924 99.0807 79.8262 98.3225 79.8262C98.0135 79.8262 97.7046 79.8539 97.4238 79.9093C97.1429 79.9647 96.8902 80.0479 96.6655 80.1587C96.5251 80.2141 96.4127 80.2972 96.3566 80.3804C96.3004 80.4635 96.2442 80.5743 96.2442 80.7129C96.2442 80.8237 96.2723 80.9345 96.3285 81.0176C96.3847 81.1008 96.4408 81.1839 96.5251 81.2393C96.7497 81.1285 97.0306 81.0453 97.3114 80.9345C97.5923 80.8514 97.9012 80.796 98.2382 80.796C98.6314 80.796 98.9684 80.8791 99.1931 81.0176C99.4178 81.1839 99.5301 81.4333 99.5301 81.7657V82.0151L97.8731 82.1814C97.2272 82.2368 96.7498 82.403 96.4127 82.6801C96.0757 82.9572 95.9072 83.3451 95.9072 83.8715C95.9072 84.4534 96.1319 84.8967 96.5532 85.1738C96.9744 85.4786 97.5923 85.6171 98.3506 85.6171C98.7999 85.6726 99.165 85.6448 99.502 85.534ZM97.1429 83.8993C97.1429 83.6499 97.2272 83.4559 97.4238 83.3451C97.5923 83.2343 97.8731 83.1511 98.2382 83.0957L99.5301 82.9572V84.4534C99.4458 84.5088 99.3054 84.5642 99.0807 84.6197C98.8842 84.6751 98.6314 84.7028 98.3506 84.7028C97.9293 84.7028 97.6204 84.6197 97.4238 84.4811C97.2272 84.3426 97.1429 84.1486 97.1429 83.8993Z" fill="#212750"/>
<path d="M105.287 85.6726C105.821 85.6726 106.242 85.5894 106.551 85.4232C106.86 85.2569 107.029 85.063 107.029 84.8136C107.029 84.6751 107.001 84.5919 106.944 84.5088C106.888 84.4257 106.804 84.3426 106.692 84.2872C106.523 84.398 106.355 84.4811 106.13 84.5642C105.905 84.6474 105.653 84.6751 105.344 84.6751C104.81 84.6751 104.389 84.5088 104.08 84.1763C103.743 83.8438 103.602 83.3728 103.602 82.7632C103.602 82.4584 103.659 82.1814 103.743 81.932C103.827 81.6826 103.967 81.4887 104.108 81.3224C104.276 81.1562 104.445 81.0453 104.67 80.9622C104.894 80.8791 105.119 80.8514 105.372 80.8514C105.681 80.8514 105.933 80.8791 106.13 80.9622C106.327 81.0453 106.523 81.1285 106.692 81.2393C106.776 81.1839 106.86 81.1285 106.916 81.0453C106.973 80.9622 107.001 80.8514 107.001 80.7406C107.001 80.6297 106.973 80.5189 106.888 80.4081C106.804 80.2972 106.692 80.2141 106.551 80.131C106.411 80.0479 106.214 79.9925 106.018 79.937C105.821 79.8816 105.568 79.8539 105.316 79.8539C104.922 79.8539 104.529 79.9093 104.192 80.0479C103.827 80.1587 103.518 80.3527 103.265 80.602C103.013 80.8514 102.788 81.1562 102.648 81.5164C102.479 81.8766 102.423 82.3199 102.423 82.7909C102.423 83.2897 102.507 83.7053 102.648 84.0655C102.788 84.4257 102.985 84.7305 103.265 84.9799C103.518 85.2292 103.827 85.3955 104.192 85.5063C104.445 85.6171 104.838 85.6726 105.287 85.6726Z" fill="#212750"/>
<path d="M109.303 85.1184C109.753 85.4786 110.398 85.6448 111.213 85.6448C111.662 85.6448 112.055 85.5894 112.392 85.5063C112.729 85.4232 113.01 85.3123 113.207 85.2015C113.375 85.0907 113.488 85.0075 113.544 84.8967C113.6 84.7859 113.628 84.6473 113.628 84.4811V80.5189C113.628 80.2972 113.572 80.1587 113.46 80.0756C113.347 79.9924 113.179 79.937 112.954 79.937C112.842 79.937 112.729 79.937 112.617 79.9647C112.505 79.9924 112.449 79.9924 112.364 80.0201V84.398C112.252 84.4534 112.112 84.5088 111.915 84.5642C111.718 84.6196 111.494 84.6473 111.213 84.6473C110.792 84.6473 110.455 84.5642 110.202 84.3703C109.949 84.1763 109.837 83.8438 109.837 83.4005V80.5189C109.837 80.2972 109.781 80.1587 109.668 80.0756C109.556 79.9924 109.387 79.937 109.163 79.937C109.05 79.937 108.938 79.937 108.826 79.9647C108.713 79.9924 108.629 79.9924 108.601 80.0201V83.4282C108.601 84.204 108.854 84.7859 109.303 85.1184Z" fill="#212750"/>
<path d="M116.296 85.5617C116.409 85.5617 116.521 85.5617 116.633 85.534C116.746 85.5063 116.802 85.5063 116.886 85.4786V78.3577C116.886 78.1637 116.83 77.9975 116.718 77.9144C116.605 77.8312 116.437 77.7758 116.212 77.7758C116.1 77.7758 115.987 77.7758 115.875 77.8035C115.763 77.8312 115.678 77.8589 115.65 77.8589V84.9798C115.65 85.1738 115.707 85.34 115.819 85.4232C115.903 85.534 116.072 85.5617 116.296 85.5617Z" fill="#212750"/>
<path d="M119.414 85.2846C119.779 85.534 120.228 85.6725 120.846 85.6725C121.267 85.6725 121.604 85.6171 121.801 85.4786C121.998 85.34 122.11 85.1738 122.11 84.9798C122.11 84.869 122.082 84.7859 122.054 84.7028C121.998 84.6196 121.969 84.5642 121.913 84.4811C121.801 84.5365 121.661 84.5919 121.52 84.6196C121.38 84.6473 121.239 84.675 121.099 84.675C120.79 84.675 120.565 84.6196 120.397 84.5088C120.228 84.398 120.144 84.204 120.144 83.8992V81.1007H121.689C121.969 81.1007 122.138 80.9345 122.138 80.602C122.138 80.5189 122.138 80.408 122.11 80.3249C122.082 80.2418 122.054 80.1587 122.026 80.131H120.172V78.9672C120.172 78.7733 120.116 78.607 120.004 78.5239C119.891 78.4408 119.723 78.3854 119.498 78.3854C119.386 78.3854 119.273 78.3854 119.161 78.4131C119.049 78.4408 118.964 78.4685 118.936 78.4685V83.9546C118.88 84.5642 119.049 85.0075 119.414 85.2846Z" fill="#212750"/>
<path d="M125.283 82.2368C124.637 82.2922 124.16 82.4584 123.823 82.7355C123.486 83.0126 123.317 83.4005 123.317 83.927C123.317 84.5088 123.542 84.9521 123.963 85.2292C124.385 85.534 125.002 85.6725 125.761 85.6725C126.182 85.6725 126.575 85.6171 126.884 85.534C127.221 85.4509 127.474 85.3401 127.67 85.2292C127.811 85.1461 127.923 85.063 128.007 84.9521C128.092 84.8413 128.12 84.7028 128.12 84.5365V81.7935C128.12 81.1008 127.895 80.602 127.474 80.2972C127.025 79.9924 126.463 79.8262 125.705 79.8262C125.396 79.8262 125.087 79.8539 124.806 79.9093C124.525 79.9647 124.272 80.0479 124.048 80.1587C123.907 80.2141 123.795 80.2972 123.739 80.3804C123.682 80.4635 123.626 80.5743 123.626 80.7129C123.626 80.8237 123.654 80.9345 123.711 81.0176C123.767 81.1008 123.823 81.1839 123.907 81.2393C124.132 81.1285 124.413 81.0453 124.694 80.9345C124.974 80.8237 125.283 80.796 125.62 80.796C126.013 80.796 126.35 80.8791 126.575 81.0176C126.8 81.1839 126.912 81.4333 126.912 81.7657V82.0151L125.283 82.2368ZM126.94 84.4534C126.856 84.5088 126.716 84.5642 126.491 84.6197C126.294 84.6751 126.042 84.7028 125.761 84.7028C125.339 84.7028 125.031 84.6197 124.834 84.4811C124.637 84.3426 124.525 84.1486 124.525 83.8715C124.525 83.6222 124.609 83.4282 124.806 83.3174C124.974 83.2066 125.255 83.1234 125.62 83.068L126.912 82.9295V84.4534H126.94Z" fill="#212750"/>
<path d="M130.591 85.2846C130.956 85.534 131.405 85.6725 132.023 85.6725C132.445 85.6725 132.782 85.6171 132.978 85.4786C133.175 85.34 133.287 85.1738 133.287 84.9798C133.287 84.869 133.259 84.7859 133.231 84.7028C133.203 84.6196 133.147 84.5642 133.091 84.4811C132.978 84.5365 132.838 84.5919 132.697 84.6196C132.557 84.6473 132.417 84.675 132.276 84.675C131.967 84.675 131.743 84.6196 131.574 84.5088C131.405 84.398 131.321 84.204 131.321 83.8992V81.1007H132.866C133.147 81.1007 133.315 80.9345 133.315 80.602C133.315 80.5189 133.315 80.408 133.287 80.3249C133.259 80.2418 133.231 80.1587 133.203 80.131H131.349V78.9672C131.349 78.7733 131.293 78.607 131.181 78.5239C131.068 78.4408 130.9 78.3854 130.675 78.3854C130.563 78.3854 130.451 78.3854 130.338 78.4131C130.226 78.4408 130.142 78.4685 130.114 78.4685V83.9546C130.057 84.5642 130.226 85.0075 130.591 85.2846Z" fill="#212750"/>
<path d="M138.988 80.5189C138.763 80.2972 138.483 80.131 138.174 80.0202C137.865 79.9093 137.5 79.8262 137.135 79.8262C136.741 79.8262 136.404 79.8816 136.067 80.0202C135.73 80.1587 135.45 80.3249 135.197 80.5743C134.944 80.8237 134.747 81.1008 134.607 81.461C134.467 81.8212 134.382 82.2368 134.382 82.7078C134.382 83.2066 134.467 83.6222 134.607 83.9824C134.747 84.3426 134.972 84.6474 135.225 84.8967C135.478 85.1461 135.815 85.3401 136.208 85.4509C136.573 85.5894 136.994 85.6448 137.472 85.6448C137.752 85.6448 138.005 85.6171 138.258 85.5617C138.511 85.5063 138.707 85.4509 138.876 85.3678C139.044 85.2846 139.185 85.2015 139.297 85.063C139.409 84.9244 139.466 84.8136 139.466 84.7028C139.466 84.4811 139.353 84.2872 139.129 84.1763C138.96 84.2872 138.735 84.398 138.455 84.5088C138.174 84.6197 137.865 84.6751 137.528 84.6751C137.022 84.6751 136.629 84.5642 136.292 84.3426C135.983 84.1209 135.758 83.7884 135.646 83.3451L139.129 82.8464C139.297 82.8186 139.437 82.7632 139.55 82.6524C139.634 82.5693 139.69 82.4307 139.69 82.2368C139.69 81.8766 139.634 81.5718 139.494 81.267C139.381 80.9899 139.213 80.7406 138.988 80.5189ZM135.59 82.4584C135.618 81.932 135.758 81.5164 136.039 81.2116C136.32 80.9345 136.685 80.7683 137.135 80.7683C137.556 80.7683 137.893 80.8791 138.118 81.1285C138.342 81.3778 138.483 81.6826 138.511 82.0151L135.59 82.4584Z" fill="#212750"/>
<path d="M145.055 80.3249C144.605 80.0202 144.044 79.8539 143.285 79.8539C142.976 79.8539 142.668 79.8816 142.387 79.937C142.106 79.9925 141.853 80.0756 141.628 80.1864C141.488 80.2418 141.376 80.3249 141.319 80.4081C141.263 80.4912 141.207 80.602 141.207 80.7406C141.207 80.8514 141.235 80.9622 141.291 81.0453C141.348 81.1285 141.404 81.2116 141.488 81.267C141.713 81.1562 141.993 81.0731 142.274 80.9622C142.555 80.8514 142.864 80.8237 143.201 80.8237C143.594 80.8237 143.931 80.9068 144.156 81.0453C144.381 81.2116 144.493 81.461 144.493 81.7935V82.0428L142.836 82.2091C142.19 82.2645 141.713 82.4307 141.376 82.7078C141.039 82.9849 140.87 83.3728 140.87 83.8993C140.87 84.4811 141.095 84.9244 141.516 85.2015C141.937 85.5063 142.555 85.6448 143.313 85.6448C143.735 85.6448 144.128 85.5894 144.437 85.5063C144.774 85.4232 145.027 85.3124 145.223 85.2015C145.364 85.1184 145.476 85.0353 145.56 84.9244C145.644 84.8136 145.673 84.6751 145.673 84.5088V81.7658C145.729 81.1285 145.504 80.6297 145.055 80.3249ZM144.493 84.4534C144.409 84.5088 144.268 84.5642 144.044 84.6197C143.847 84.6751 143.594 84.7028 143.313 84.7028C142.892 84.7028 142.583 84.6197 142.387 84.4811C142.19 84.3426 142.078 84.1486 142.078 83.8715C142.078 83.6222 142.162 83.4282 142.359 83.3174C142.527 83.2066 142.808 83.1234 143.173 83.068L144.465 82.9295V84.4534H144.493Z" fill="#212750"/>
<path d="M154.042 85.534C154.351 85.4509 154.603 85.3401 154.772 85.2292C154.912 85.1461 155.025 85.0353 155.109 84.9244C155.193 84.8136 155.221 84.6751 155.221 84.5088V78.3577C155.221 78.1637 155.165 77.9975 155.053 77.9144C154.94 77.8312 154.772 77.7758 154.547 77.7758C154.435 77.7758 154.323 77.7758 154.21 77.8035C154.098 77.8312 154.042 77.8589 153.986 77.8589V80.0756C153.817 79.9924 153.649 79.937 153.424 79.8816C153.227 79.8262 153.003 79.7985 152.75 79.7985C152.357 79.7985 151.992 79.8539 151.655 79.9647C151.318 80.0756 151.009 80.2418 150.756 80.4912C150.503 80.7406 150.306 81.0453 150.166 81.4055C150.026 81.7657 149.941 82.2091 149.941 82.7355C149.941 83.2343 150.026 83.6499 150.166 84.0101C150.306 84.3703 150.503 84.6751 150.784 84.9244C151.037 85.1738 151.374 85.34 151.739 85.4509C152.104 85.5617 152.525 85.6171 152.975 85.6171C153.368 85.6725 153.705 85.6171 154.042 85.534ZM151.683 84.2317C151.374 83.927 151.205 83.4559 151.205 82.7909C151.205 82.4307 151.261 82.1259 151.346 81.9043C151.43 81.6549 151.542 81.461 151.711 81.2947C151.851 81.1285 152.048 81.0176 152.244 80.9622C152.441 80.8791 152.666 80.8514 152.918 80.8514C153.143 80.8514 153.34 80.8791 153.536 80.9345C153.705 80.9899 153.873 81.073 154.014 81.1562V84.4257C153.873 84.5088 153.733 84.5642 153.592 84.6196C153.424 84.6751 153.227 84.7028 153.003 84.7028C152.413 84.6751 151.992 84.5088 151.683 84.2317Z" fill="#212750"/>
<path d="M161.765 85.1184C161.877 85.0076 161.933 84.869 161.933 84.7582C161.933 84.5365 161.821 84.3426 161.596 84.2317C161.428 84.3426 161.203 84.4534 160.922 84.5642C160.641 84.6751 160.332 84.7305 159.995 84.7305C159.49 84.7305 159.097 84.6197 158.76 84.398C158.451 84.1763 158.226 83.8438 158.114 83.4005L161.596 82.9018C161.765 82.8741 161.905 82.8186 162.017 82.7078C162.102 82.6247 162.158 82.4862 162.158 82.2922C162.158 81.932 162.102 81.6272 161.961 81.3224C161.849 81.0176 161.652 80.7683 161.428 80.5466C161.203 80.3249 160.922 80.1587 160.613 80.0479C160.304 79.937 159.939 79.8539 159.574 79.8539C159.181 79.8539 158.844 79.9093 158.507 80.0479C158.17 80.1864 157.889 80.3527 157.636 80.602C157.383 80.8514 157.187 81.1285 157.046 81.4887C156.906 81.8489 156.822 82.2645 156.822 82.7355C156.822 83.2343 156.906 83.6499 157.046 84.0101C157.187 84.3703 157.412 84.6751 157.664 84.9244C157.917 85.1738 158.254 85.3678 158.647 85.4786C159.012 85.6171 159.434 85.6726 159.911 85.6726C160.192 85.6726 160.445 85.6448 160.697 85.5894C160.95 85.534 161.147 85.4786 161.315 85.3955C161.484 85.3124 161.652 85.2292 161.765 85.1184ZM158.507 81.2393C158.788 80.9622 159.153 80.796 159.602 80.796C160.023 80.796 160.36 80.9068 160.585 81.1562C160.81 81.4055 160.95 81.7103 160.978 82.0428L158.057 82.4584C158.057 81.932 158.226 81.5164 158.507 81.2393Z" fill="#212750"/>
<path d="M95.0365 93.7355C94.8399 93.126 94.6152 92.5441 94.4186 91.9899C94.222 91.4358 94.0254 90.9093 93.8569 90.466C93.8008 90.2998 93.6603 90.1889 93.4918 90.1335C93.2952 90.0781 93.0986 90.0504 92.874 90.0504C92.7055 90.0504 92.537 90.0781 92.3685 90.1058C92.1999 90.1335 92.0876 90.1889 92.0034 90.2443C91.8349 90.6322 91.6663 91.131 91.4417 91.6851C91.217 92.2393 91.0204 92.8212 90.7957 93.403C90.5991 93.9849 90.3745 94.539 90.206 95.0655C90.0094 95.5919 89.869 96.0076 89.7847 96.3401C89.7566 96.4509 89.7004 96.534 89.7004 96.6171C89.6724 96.7003 89.6724 96.7834 89.6724 96.8665C89.6724 97.0328 89.7285 97.1713 89.869 97.2544C90.0094 97.3375 90.1498 97.393 90.3464 97.393C90.4587 97.393 90.543 97.393 90.6272 97.3652C90.7115 97.3375 90.7957 97.3375 90.8519 97.2821L91.4417 95.4811H94.3344L94.7837 96.8388C94.8399 97.0328 94.9241 97.1713 95.0084 97.2544C95.0926 97.3375 95.2611 97.3652 95.4858 97.3652C95.6543 97.3652 95.7947 97.3375 95.9071 97.2821C96.0194 97.2267 96.1037 97.1713 96.1879 97.0882C96.0475 96.6171 95.879 96.0907 95.6824 95.5088C95.4577 94.927 95.2611 94.3451 95.0365 93.7355ZM91.6944 94.4559C91.7787 94.1788 91.891 93.8741 92.0034 93.5693C92.1157 93.2645 92.1999 92.9597 92.3123 92.6826C92.4246 92.3778 92.5089 92.1008 92.6212 91.8514C92.7055 91.5743 92.7897 91.3527 92.874 91.131H92.9301C92.9863 91.3249 93.0706 91.5189 93.1548 91.796C93.2391 92.0453 93.3233 92.3224 93.4357 92.5995C93.548 92.8766 93.6322 93.1814 93.7446 93.5139C93.8569 93.8186 93.9693 94.1511 94.0535 94.4559H91.6944V94.4559Z" fill="#212750"/>
<path d="M101.833 91.6852C101.721 91.6852 101.608 91.6851 101.496 91.7129C101.384 91.7406 101.328 91.7406 101.243 91.7683V96.1461C101.131 96.2015 100.991 96.2569 100.794 96.3124C100.597 96.3678 100.373 96.3955 100.092 96.3955C99.6705 96.3955 99.3335 96.3124 99.0808 96.1184C98.828 95.9244 98.7157 95.592 98.7157 95.1486V92.267C98.7157 92.0454 98.6595 91.9068 98.5472 91.8237C98.4348 91.7406 98.2663 91.6852 98.0417 91.6852C97.9293 91.6852 97.817 91.6851 97.7047 91.7129C97.5923 91.7406 97.5081 91.7406 97.48 91.7683V95.1763C97.48 95.9522 97.7047 96.5063 98.154 96.8665C98.6033 97.2267 99.2493 97.393 100.064 97.393C100.513 97.393 100.906 97.3375 101.243 97.2544C101.58 97.1713 101.861 97.0605 102.058 96.9496C102.226 96.8388 102.339 96.7557 102.395 96.6448C102.451 96.534 102.479 96.3955 102.479 96.2292V92.267C102.479 92.0454 102.423 91.9068 102.31 91.8237C102.198 91.7406 102.058 91.6852 101.833 91.6852Z" fill="#212750"/>
<path d="M107.646 96.7003C107.646 96.5894 107.618 96.5063 107.59 96.4232C107.562 96.3401 107.506 96.2846 107.45 96.2015C107.337 96.2569 107.197 96.3124 107.056 96.3401C106.916 96.3678 106.776 96.3955 106.635 96.3955C106.326 96.3955 106.102 96.3401 105.933 96.2292C105.765 96.1184 105.68 95.9244 105.68 95.6197V92.8489H107.225C107.506 92.8489 107.674 92.6826 107.674 92.3501C107.674 92.267 107.674 92.1562 107.646 92.0731C107.618 91.9899 107.59 91.9068 107.562 91.8791H105.708V90.7154C105.708 90.5214 105.652 90.3552 105.54 90.2721C105.428 90.1889 105.259 90.1335 105.034 90.1335C104.922 90.1335 104.81 90.1335 104.697 90.1612C104.585 90.1889 104.501 90.2166 104.473 90.2166V95.7028C104.473 96.3124 104.641 96.728 105.006 97.005C105.371 97.2544 105.821 97.393 106.439 97.393C106.86 97.393 107.197 97.3375 107.393 97.199C107.534 97.0882 107.646 96.9219 107.646 96.7003Z" fill="#212750"/>
<path d="M114.19 95.7028C114.33 95.3426 114.386 94.927 114.386 94.4836C114.386 94.0403 114.33 93.6247 114.19 93.2922C114.049 92.932 113.853 92.6272 113.628 92.3778C113.375 92.1285 113.095 91.9345 112.729 91.796C112.364 91.6574 111.999 91.602 111.578 91.602C111.157 91.602 110.764 91.6574 110.427 91.796C110.089 91.9345 109.781 92.1285 109.528 92.3778C109.275 92.6272 109.078 92.932 108.966 93.2922C108.826 93.6524 108.77 94.068 108.77 94.5113C108.77 94.9547 108.826 95.3703 108.966 95.7305C109.107 96.0907 109.303 96.3955 109.528 96.6448C109.781 96.8942 110.061 97.0882 110.427 97.2267C110.764 97.3652 111.157 97.4207 111.606 97.4207C112.027 97.4207 112.42 97.3652 112.786 97.2267C113.151 97.0882 113.432 96.8942 113.684 96.6448C113.881 96.3678 114.049 96.063 114.19 95.7028ZM112.729 95.9244C112.449 96.2569 112.083 96.4232 111.578 96.4232C111.072 96.4232 110.707 96.2569 110.427 95.9244C110.146 95.5919 110.033 95.1209 110.033 94.5113C110.033 93.9018 110.174 93.4307 110.455 93.0982C110.735 92.7657 111.101 92.5995 111.578 92.5995C112.055 92.5995 112.449 92.7657 112.701 93.0982C112.954 93.4307 113.123 93.9018 113.123 94.5113C113.123 95.1209 112.982 95.5919 112.729 95.9244Z" fill="#212750"/>
<path d="M122.952 96.7557C122.952 96.9496 123.009 97.1159 123.121 97.199C123.233 97.2821 123.402 97.3375 123.626 97.3375C123.739 97.3375 123.851 97.3375 123.963 97.3098C124.076 97.2821 124.132 97.2821 124.216 97.2544V93.5139C124.216 93.1814 124.16 92.8766 124.048 92.6549C123.935 92.4055 123.795 92.2116 123.598 92.0453C123.402 91.8791 123.177 91.7683 122.896 91.6851C122.615 91.602 122.335 91.5743 122.026 91.5743C121.632 91.5743 121.267 91.6297 120.958 91.7406C120.65 91.8514 120.397 91.9899 120.172 92.1562C119.976 91.9622 119.751 91.8237 119.442 91.7128C119.133 91.602 118.796 91.5466 118.431 91.5466C118.066 91.5466 117.729 91.602 117.364 91.7128C117.027 91.8237 116.718 91.9345 116.493 92.1008C116.325 92.2116 116.212 92.3224 116.128 92.4333C116.044 92.5441 116.016 92.6826 116.016 92.8766V96.7557C116.016 96.9496 116.072 97.1159 116.184 97.199C116.296 97.2821 116.465 97.3375 116.69 97.3375C116.802 97.3375 116.914 97.3375 117.027 97.3098C117.139 97.2821 117.195 97.2821 117.251 97.2544V92.9043C117.392 92.8212 117.56 92.738 117.757 92.6826C117.953 92.5995 118.178 92.5718 118.375 92.5718C118.712 92.5718 118.964 92.6549 119.161 92.8212C119.358 92.9874 119.47 93.2368 119.47 93.5693V96.7557C119.47 96.9496 119.526 97.1159 119.638 97.199C119.751 97.2821 119.919 97.3375 120.144 97.3375C120.256 97.3375 120.369 97.3375 120.453 97.3098C120.565 97.2821 120.621 97.2821 120.678 97.2544V93.4307C120.678 93.3476 120.678 93.2922 120.678 93.2091C120.678 93.1259 120.65 93.0705 120.65 93.0151C120.818 92.8766 120.987 92.7657 121.211 92.6826C121.408 92.5995 121.632 92.5718 121.857 92.5718C122.194 92.5718 122.447 92.6549 122.644 92.8212C122.84 92.9874 122.924 93.2368 122.924 93.5693V96.7557H122.952Z" fill="#212750"/>
<path d="M130.479 96.7003C130.563 96.5894 130.591 96.4509 130.591 96.2846V93.5416C130.591 92.8489 130.367 92.3501 129.945 92.0453C129.496 91.7406 128.934 91.5743 128.176 91.5743C127.867 91.5743 127.558 91.602 127.277 91.6574C126.996 91.7129 126.744 91.796 126.519 91.9068C126.379 91.9622 126.266 92.0453 126.21 92.1285C126.154 92.2116 126.098 92.3224 126.098 92.461C126.098 92.5718 126.126 92.6826 126.182 92.7657C126.238 92.8489 126.294 92.932 126.379 92.9874C126.603 92.8766 126.884 92.7935 127.165 92.6826C127.446 92.5718 127.755 92.5441 128.092 92.5441C128.485 92.5441 128.822 92.6272 129.047 92.7657C129.271 92.932 129.384 93.1814 129.384 93.5139V93.7632L127.727 93.9295C127.081 93.9849 126.603 94.1511 126.266 94.4282C125.929 94.7053 125.761 95.0932 125.761 95.6197C125.761 96.2015 125.985 96.6448 126.407 96.9219C126.828 97.2267 127.446 97.3652 128.204 97.3652C128.625 97.3652 129.019 97.3098 129.327 97.2267C129.664 97.1436 129.917 97.0327 130.114 96.9219C130.282 96.8942 130.395 96.8111 130.479 96.7003ZM129.356 96.2015C129.271 96.2569 129.131 96.3123 128.906 96.3678C128.71 96.4232 128.457 96.4509 128.176 96.4509C127.755 96.4509 127.446 96.3678 127.249 96.2292C127.053 96.0907 126.94 95.8967 126.94 95.6197C126.94 95.3703 127.025 95.1763 127.221 95.0655C127.39 94.9547 127.67 94.8715 128.036 94.8161L129.327 94.6776V96.2015H129.356Z" fill="#212750"/>
<path d="M135.393 97.199C135.59 97.0605 135.702 96.8942 135.702 96.7003C135.702 96.5894 135.674 96.5063 135.646 96.4232C135.59 96.3401 135.562 96.2846 135.506 96.2015C135.393 96.2569 135.253 96.3124 135.113 96.3401C134.972 96.3678 134.832 96.3955 134.691 96.3955C134.382 96.3955 134.158 96.3401 133.989 96.2292C133.821 96.1184 133.736 95.9244 133.736 95.6197V92.8489H135.281C135.562 92.8489 135.73 92.6826 135.73 92.3501C135.73 92.267 135.73 92.1562 135.702 92.0731C135.674 91.9899 135.646 91.9068 135.618 91.8791H133.765V90.7154C133.765 90.5214 133.708 90.3552 133.596 90.2721C133.484 90.1889 133.315 90.1335 133.09 90.1335C132.978 90.1335 132.866 90.1335 132.753 90.1612C132.641 90.1889 132.557 90.2166 132.529 90.2166V95.7028C132.529 96.3124 132.697 96.728 133.062 97.005C133.428 97.2821 133.877 97.393 134.495 97.393C134.86 97.4207 135.169 97.3375 135.393 97.199Z" fill="#212750"/>
<path d="M137.865 91.6852C137.725 91.6852 137.612 91.6851 137.528 91.7129C137.444 91.7406 137.36 91.7683 137.275 91.7683V96.728C137.275 96.9219 137.332 97.0882 137.444 97.1713C137.556 97.2544 137.725 97.3098 137.949 97.3098C138.09 97.3098 138.202 97.3098 138.286 97.2821C138.399 97.2544 138.455 97.2544 138.511 97.2267V92.267C138.511 92.0454 138.455 91.9068 138.343 91.8237C138.286 91.7406 138.118 91.6852 137.865 91.6852Z" fill="#212750"/>
<path d="M138.454 89.5516C138.314 89.4131 138.146 89.3577 137.921 89.3577C137.696 89.3577 137.528 89.4131 137.387 89.5516C137.247 89.6902 137.163 89.8564 137.163 90.0504C137.163 90.2443 137.247 90.4106 137.387 90.5491C137.528 90.6876 137.724 90.7431 137.921 90.7431C138.146 90.7431 138.314 90.6876 138.454 90.5491C138.595 90.4106 138.651 90.2443 138.651 90.0504C138.651 89.8564 138.595 89.6902 138.454 89.5516Z" fill="#212750"/>
<path d="M141.993 97.2267C142.358 97.3375 142.752 97.393 143.201 97.393C143.735 97.393 144.156 97.3098 144.465 97.1436C144.774 96.9773 144.942 96.7834 144.942 96.534C144.942 96.3955 144.914 96.3123 144.858 96.2292C144.802 96.1461 144.718 96.063 144.605 96.0076C144.437 96.1184 144.268 96.2015 144.044 96.2846C143.819 96.3678 143.566 96.3955 143.257 96.3955C142.724 96.3955 142.302 96.2292 141.993 95.8967C141.656 95.5642 141.516 95.0932 141.516 94.4836C141.516 94.1788 141.572 93.9018 141.656 93.6524C141.741 93.403 141.881 93.2091 142.021 93.0428C142.19 92.8766 142.358 92.7657 142.583 92.6826C142.808 92.5995 143.033 92.5718 143.285 92.5718C143.594 92.5718 143.847 92.5995 144.044 92.6826C144.24 92.7657 144.437 92.8489 144.605 92.9597C144.689 92.9043 144.774 92.8489 144.83 92.7657C144.886 92.6826 144.914 92.5718 144.914 92.461C144.914 92.3501 144.886 92.2393 144.802 92.1285C144.718 92.0176 144.605 91.9345 144.465 91.8514C144.324 91.7683 144.128 91.7129 143.931 91.6574C143.735 91.602 143.482 91.5743 143.229 91.5743C142.836 91.5743 142.443 91.6297 142.106 91.7683C141.741 91.8791 141.432 92.0731 141.179 92.3224C140.926 92.5718 140.702 92.8766 140.561 93.2368C140.393 93.597 140.336 94.0403 140.336 94.5113C140.336 95.0101 140.421 95.4257 140.561 95.7859C140.702 96.1461 140.898 96.4509 141.179 96.7003C141.319 96.9496 141.628 97.1159 141.993 97.2267Z" fill="#212750"/>
<path d="M147.554 90.5214C147.694 90.6322 147.863 90.7154 148.088 90.7708C148.284 90.8262 148.537 90.8539 148.818 90.8539C149.099 90.8539 149.323 90.8262 149.548 90.7708C149.745 90.7154 149.941 90.6322 150.082 90.5214C150.222 90.4106 150.334 90.2997 150.391 90.1889C150.475 90.0504 150.503 89.9118 150.503 89.7733C150.503 89.6071 150.447 89.4685 150.363 89.3577C150.278 89.2469 150.138 89.1914 149.941 89.1914C149.913 89.1914 149.857 89.1914 149.829 89.1914C149.801 89.1914 149.773 89.1914 149.717 89.2191C149.688 89.4408 149.576 89.6348 149.436 89.7456C149.267 89.8841 149.071 89.9395 148.818 89.9395C148.565 89.9395 148.369 89.8841 148.2 89.7456C148.032 89.6071 147.947 89.4408 147.891 89.2191C147.863 89.2191 147.835 89.2191 147.807 89.1914C147.779 89.1914 147.751 89.1914 147.694 89.1914C147.498 89.1914 147.386 89.2469 147.273 89.3577C147.161 89.4685 147.133 89.6071 147.133 89.7733C147.133 89.9118 147.161 90.0504 147.245 90.1612C147.329 90.272 147.414 90.4106 147.554 90.5214Z" fill="#212750"/>
<path d="M149.773 97.2821C150.11 97.199 150.362 97.0882 150.559 96.9773C150.699 96.8942 150.812 96.8111 150.896 96.7003C150.98 96.5894 151.008 96.4509 151.008 96.2846V93.5416C151.008 92.8489 150.784 92.3501 150.362 92.0453C149.913 91.7406 149.351 91.5743 148.593 91.5743C148.284 91.5743 147.975 91.602 147.694 91.6574C147.413 91.7129 147.161 91.796 146.936 91.9068C146.796 91.9622 146.683 92.0453 146.627 92.1285C146.571 92.2116 146.515 92.3224 146.515 92.461C146.515 92.5718 146.543 92.6826 146.599 92.7657C146.655 92.8489 146.711 92.932 146.796 92.9874C147.02 92.8766 147.301 92.7935 147.582 92.6826C147.863 92.5995 148.172 92.5441 148.509 92.5441C148.902 92.5441 149.239 92.6272 149.464 92.7657C149.688 92.932 149.801 93.1814 149.801 93.5139V93.7632L148.144 93.9295C147.498 93.9849 147.02 94.1511 146.683 94.4282C146.346 94.7053 146.178 95.0932 146.178 95.6197C146.178 96.2015 146.402 96.6448 146.824 96.9219C147.245 97.2267 147.863 97.3652 148.621 97.3652C149.07 97.4207 149.436 97.3929 149.773 97.2821ZM147.413 95.6474C147.413 95.398 147.498 95.204 147.694 95.0932C147.863 94.9824 148.144 94.8992 148.509 94.8438L149.801 94.7053V96.2015C149.716 96.2569 149.576 96.3123 149.351 96.3678C149.155 96.4232 148.902 96.4509 148.621 96.4509C148.2 96.4509 147.891 96.3678 147.694 96.2292C147.526 96.0907 147.413 95.8967 147.413 95.6474Z" fill="#212750"/>
<path d="M158.057 98.0579C157.945 97.9748 157.833 97.9471 157.664 97.9471C157.468 97.9471 157.271 98.0025 157.074 98.0857C157.046 98.335 156.99 98.6121 156.906 98.8892C156.822 99.194 156.709 99.471 156.569 99.7481C156.681 99.8867 156.85 99.9421 157.046 99.9421C157.271 99.9421 157.468 99.859 157.636 99.6927C157.692 99.6096 157.776 99.5265 157.833 99.4156C157.889 99.3048 157.973 99.194 158.029 99.0831C158.085 98.9723 158.142 98.8338 158.17 98.7229C158.198 98.5844 158.226 98.5013 158.226 98.3904C158.198 98.2242 158.17 98.1134 158.057 98.0579Z" fill="#212750"/>
<path d="M157.945 94.0126L157.243 93.8464C156.99 93.7909 156.794 93.7078 156.681 93.597C156.569 93.4862 156.513 93.3753 156.513 93.2091C156.513 93.0151 156.597 92.8489 156.794 92.738C156.99 92.6272 157.243 92.5718 157.58 92.5718C157.917 92.5718 158.198 92.6272 158.479 92.738C158.76 92.8489 158.984 92.932 159.125 93.0151C159.209 92.9597 159.293 92.8766 159.349 92.7935C159.405 92.7103 159.434 92.5995 159.434 92.461C159.434 92.3224 159.377 92.2116 159.293 92.1008C159.209 91.9899 159.068 91.9068 158.9 91.8237C158.731 91.7406 158.535 91.6851 158.282 91.6574C158.029 91.6297 157.777 91.602 157.496 91.602C157.131 91.602 156.822 91.6297 156.541 91.7129C156.26 91.796 156.035 91.9068 155.839 92.0453C155.642 92.1839 155.502 92.3501 155.418 92.5718C155.333 92.7657 155.277 92.9874 155.277 93.2091C155.277 93.6247 155.418 93.9572 155.67 94.2066C155.923 94.4559 156.316 94.6499 156.85 94.7884L157.664 95.0101C157.917 95.0655 158.114 95.1763 158.254 95.2872C158.394 95.398 158.451 95.5642 158.451 95.7582C158.451 95.9799 158.366 96.1461 158.17 96.2846C157.973 96.3955 157.692 96.4786 157.355 96.4786C156.962 96.4786 156.653 96.4232 156.344 96.3123C156.063 96.2015 155.811 96.063 155.586 95.9244C155.474 95.9799 155.389 96.063 155.333 96.1738C155.277 96.2846 155.249 96.3955 155.249 96.5063C155.249 96.6448 155.305 96.7834 155.418 96.8942C155.53 97.005 155.67 97.1159 155.839 97.199C156.007 97.2821 156.26 97.3652 156.513 97.393C156.766 97.4484 157.046 97.4761 157.383 97.4761C158.142 97.4761 158.703 97.3375 159.097 97.0328C159.49 96.728 159.686 96.3123 159.686 95.8136C159.686 95.3703 159.546 95.0101 159.265 94.733C158.984 94.4005 158.563 94.1788 157.945 94.0126Z" fill="#212750"/>
<path d="M161.933 91.6852C161.793 91.6852 161.68 91.6851 161.596 91.7129C161.512 91.7406 161.428 91.7683 161.343 91.7683V96.728C161.343 96.9219 161.399 97.0882 161.512 97.1713C161.624 97.2544 161.793 97.3098 162.017 97.3098C162.158 97.3098 162.27 97.3098 162.354 97.2821C162.467 97.2544 162.523 97.2544 162.579 97.2267V92.267C162.579 92.0454 162.523 91.9068 162.41 91.8237C162.326 91.7406 162.158 91.6852 161.933 91.6852Z" fill="#212750"/>
<path d="M161.961 90.7708C162.186 90.7708 162.355 90.7154 162.495 90.5768C162.635 90.4383 162.692 90.272 162.692 90.0781C162.692 89.8841 162.635 89.7179 162.495 89.5793C162.355 89.4408 162.186 89.3854 161.961 89.3854C161.737 89.3854 161.568 89.4408 161.428 89.5793C161.287 89.7179 161.203 89.8841 161.203 90.0781C161.203 90.272 161.287 90.4383 161.428 90.5768C161.568 90.7154 161.737 90.7708 161.961 90.7708Z" fill="#212750"/>
<path d="M95.3734 107.562C95.1768 107.7 94.9241 107.839 94.6432 107.95C94.3624 108.06 94.0254 108.116 93.6322 108.116C92.902 108.116 92.3122 107.894 91.8629 107.423C91.4135 106.98 91.1888 106.287 91.1888 105.428C91.1888 104.985 91.245 104.597 91.3574 104.264C91.4697 103.932 91.6382 103.655 91.8629 103.406C92.0595 103.184 92.3122 103.018 92.6211 102.879C92.902 102.768 93.239 102.713 93.576 102.713C93.9692 102.713 94.3062 102.768 94.587 102.879C94.8398 102.99 95.0926 103.128 95.2891 103.267C95.4015 103.212 95.4857 103.156 95.57 103.045C95.6542 102.935 95.6823 102.824 95.6823 102.685C95.6823 102.547 95.6262 102.436 95.5138 102.297C95.4015 102.159 95.2611 102.076 95.0645 101.965C94.8679 101.882 94.6432 101.798 94.3624 101.743C94.0815 101.688 93.7726 101.66 93.4356 101.66C92.9582 101.66 92.5088 101.743 92.0595 101.909C91.6101 102.076 91.245 102.297 90.9361 102.63C90.6272 102.935 90.3463 103.322 90.1778 103.793C89.9812 104.264 89.897 104.791 89.897 105.4C89.897 106.038 89.9812 106.564 90.1778 107.035C90.3744 107.506 90.6272 107.894 90.9361 108.199C91.2731 108.504 91.6382 108.725 92.0875 108.892C92.5369 109.058 92.9862 109.113 93.4918 109.113C93.9411 109.113 94.3343 109.058 94.6432 108.975C94.9521 108.892 95.1768 108.781 95.3453 108.67C95.4857 108.587 95.57 108.504 95.6262 108.421C95.6823 108.338 95.7104 108.227 95.7104 108.116C95.7104 107.977 95.6823 107.866 95.5981 107.756C95.5419 107.7 95.4577 107.617 95.3734 107.562Z" fill="#212750"/>
<path d="M101.159 103.793C100.709 103.489 100.148 103.322 99.3894 103.322C99.0804 103.322 98.7715 103.35 98.4907 103.406C98.2098 103.461 97.9571 103.544 97.7324 103.655C97.592 103.71 97.4796 103.793 97.4235 103.877C97.3673 103.96 97.3111 104.071 97.3111 104.209C97.3111 104.32 97.3392 104.431 97.3954 104.514C97.4516 104.597 97.5077 104.68 97.592 104.736C97.8167 104.625 98.0975 104.542 98.3783 104.431C98.6592 104.348 98.9681 104.292 99.3051 104.292C99.6983 104.292 100.035 104.375 100.26 104.514C100.485 104.68 100.597 104.929 100.597 105.262V105.511L98.94 105.678C98.2941 105.733 97.8167 105.899 97.4796 106.176C97.1426 106.453 96.9741 106.841 96.9741 107.368C96.9741 107.95 97.1988 108.393 97.6201 108.67C98.0413 108.975 98.6592 109.113 99.4175 109.113C99.8387 109.113 100.232 109.058 100.541 108.975C100.878 108.892 101.131 108.781 101.327 108.67C101.468 108.587 101.58 108.504 101.664 108.393C101.748 108.282 101.777 108.144 101.777 107.977V105.234C101.833 104.597 101.608 104.098 101.159 103.793ZM100.597 107.922C100.513 107.977 100.372 108.033 100.148 108.088C99.9511 108.144 99.6983 108.171 99.4175 108.171C98.9962 108.171 98.6873 108.088 98.4907 107.95C98.2941 107.811 98.1817 107.617 98.1817 107.34C98.1817 107.091 98.266 106.897 98.4626 106.786C98.6311 106.675 98.9119 106.592 99.277 106.537L100.569 106.398V107.922H100.597Z" fill="#212750"/>
<path d="M104.332 101.244C104.22 101.244 104.108 101.244 103.995 101.272C103.883 101.3 103.799 101.327 103.771 101.327V108.448C103.771 108.642 103.827 108.809 103.939 108.892C104.051 108.975 104.22 109.03 104.445 109.03C104.557 109.03 104.669 109.03 104.782 109.003C104.894 108.975 104.95 108.975 105.034 108.947V101.826C105.034 101.632 104.978 101.466 104.866 101.383C104.753 101.3 104.585 101.244 104.332 101.244Z" fill="#212750"/>
<path d="M111.073 107.728C110.904 107.839 110.736 107.922 110.511 108.005C110.286 108.088 110.033 108.116 109.724 108.116C109.191 108.116 108.77 107.95 108.461 107.617C108.124 107.285 107.983 106.814 107.983 106.204C107.983 105.899 108.039 105.622 108.124 105.373C108.208 105.123 108.348 104.929 108.489 104.763C108.657 104.597 108.826 104.486 109.05 104.403C109.275 104.32 109.5 104.292 109.753 104.292C110.061 104.292 110.314 104.32 110.511 104.403C110.707 104.486 110.904 104.569 111.073 104.68C111.157 104.625 111.241 104.569 111.297 104.486C111.353 104.403 111.381 104.292 111.381 104.181C111.381 104.071 111.353 103.96 111.269 103.849C111.185 103.738 111.073 103.655 110.932 103.572C110.792 103.489 110.595 103.433 110.399 103.378C110.202 103.322 109.949 103.295 109.696 103.295C109.303 103.295 108.91 103.35 108.573 103.489C108.208 103.599 107.899 103.793 107.646 104.043C107.393 104.292 107.169 104.597 107.028 104.957C106.86 105.317 106.804 105.761 106.804 106.232C106.804 106.73 106.888 107.146 107.028 107.506C107.169 107.866 107.365 108.171 107.646 108.421C107.899 108.67 108.208 108.836 108.573 108.947C108.938 109.058 109.331 109.113 109.781 109.113C110.314 109.113 110.736 109.03 111.044 108.864C111.353 108.698 111.522 108.504 111.522 108.254C111.522 108.116 111.494 108.033 111.438 107.95C111.269 107.866 111.185 107.811 111.073 107.728Z" fill="#212750"/>
<path d="M117.335 103.406C117.223 103.406 117.111 103.406 116.998 103.433C116.886 103.461 116.83 103.461 116.746 103.489V107.867C116.633 107.922 116.493 107.977 116.296 108.033C116.1 108.088 115.875 108.116 115.594 108.116C115.173 108.116 114.836 108.033 114.583 107.839C114.33 107.645 114.218 107.312 114.218 106.869V103.987C114.218 103.766 114.162 103.627 114.05 103.544C113.937 103.461 113.769 103.406 113.544 103.406C113.432 103.406 113.319 103.406 113.207 103.433C113.095 103.461 113.011 103.461 112.982 103.489V106.897C112.982 107.673 113.207 108.227 113.656 108.587C114.106 108.947 114.752 109.113 115.566 109.113C116.016 109.113 116.409 109.058 116.746 108.975C117.083 108.892 117.364 108.781 117.56 108.67C117.729 108.559 117.841 108.476 117.897 108.365C117.953 108.254 117.981 108.116 117.981 107.95V103.987C117.981 103.766 117.925 103.627 117.813 103.544C117.729 103.433 117.56 103.406 117.335 103.406Z" fill="#212750"/>
<path d="M120.593 101.244C120.481 101.244 120.368 101.244 120.256 101.272C120.144 101.3 120.087 101.327 120.031 101.327V108.448C120.031 108.642 120.087 108.809 120.2 108.892C120.312 108.975 120.481 109.03 120.705 109.03C120.818 109.03 120.93 109.03 121.042 109.003C121.155 108.975 121.211 108.975 121.295 108.947V101.826C121.295 101.632 121.239 101.466 121.127 101.383C120.986 101.3 120.818 101.244 120.593 101.244Z" fill="#212750"/>
<path d="M127.081 103.793C126.631 103.489 126.07 103.322 125.311 103.322C125.002 103.322 124.693 103.35 124.413 103.406C124.132 103.461 123.879 103.544 123.654 103.655C123.514 103.71 123.402 103.793 123.345 103.877C123.289 103.96 123.233 104.071 123.233 104.209C123.233 104.32 123.261 104.431 123.317 104.514C123.373 104.597 123.43 104.68 123.514 104.736C123.739 104.625 124.019 104.542 124.3 104.431C124.581 104.348 124.89 104.292 125.227 104.292C125.62 104.292 125.957 104.375 126.182 104.514C126.407 104.68 126.519 104.929 126.519 105.262V105.511L124.862 105.678C124.216 105.733 123.739 105.899 123.402 106.176C123.064 106.453 122.896 106.841 122.896 107.368C122.896 107.95 123.121 108.393 123.542 108.67C123.963 108.975 124.581 109.113 125.339 109.113C125.761 109.113 126.154 109.058 126.463 108.975C126.8 108.892 127.052 108.781 127.249 108.67C127.389 108.587 127.502 108.504 127.586 108.393C127.67 108.282 127.698 108.144 127.698 107.977V105.234C127.726 104.597 127.53 104.098 127.081 103.793ZM126.519 107.922C126.435 107.977 126.294 108.033 126.07 108.088C125.873 108.144 125.62 108.171 125.339 108.171C124.918 108.171 124.609 108.088 124.413 107.95C124.216 107.811 124.104 107.617 124.104 107.34C124.104 107.091 124.188 106.897 124.384 106.786C124.553 106.675 124.834 106.592 125.199 106.537L126.491 106.398V107.922H126.519Z" fill="#212750"/>
<path d="M132.613 107.922C132.501 107.977 132.361 108.033 132.22 108.06C132.08 108.088 131.939 108.116 131.799 108.116C131.49 108.116 131.265 108.06 131.097 107.95C130.928 107.839 130.844 107.645 130.844 107.34V104.569H132.389C132.67 104.569 132.838 104.403 132.838 104.071C132.838 103.987 132.838 103.877 132.81 103.793C132.782 103.71 132.754 103.627 132.726 103.6H130.844V102.436C130.844 102.242 130.788 102.076 130.676 101.992C130.563 101.909 130.395 101.854 130.17 101.854C130.058 101.854 129.945 101.854 129.833 101.882C129.721 101.909 129.636 101.937 129.608 101.937V107.423C129.608 108.033 129.777 108.448 130.142 108.725C130.507 109.003 130.956 109.113 131.574 109.113C131.996 109.113 132.333 109.058 132.529 108.919C132.726 108.781 132.838 108.615 132.838 108.421C132.838 108.31 132.81 108.227 132.782 108.144C132.726 108.06 132.67 108.005 132.613 107.922Z" fill="#212750"/>
<path d="M138.82 104.098C138.567 103.849 138.286 103.655 137.921 103.516C137.584 103.378 137.191 103.322 136.77 103.322C136.349 103.322 135.955 103.378 135.618 103.516C135.281 103.655 134.972 103.849 134.72 104.098C134.467 104.348 134.27 104.652 134.158 105.013C134.018 105.373 133.961 105.788 133.961 106.232C133.961 106.675 134.018 107.091 134.158 107.451C134.298 107.811 134.495 108.116 134.72 108.365C134.972 108.615 135.253 108.809 135.618 108.947C135.983 109.086 136.349 109.141 136.798 109.141C137.247 109.141 137.612 109.086 137.977 108.947C138.314 108.809 138.623 108.615 138.876 108.365C139.129 108.116 139.297 107.811 139.438 107.451C139.578 107.091 139.634 106.675 139.634 106.232C139.634 105.788 139.578 105.373 139.438 105.04C139.241 104.652 139.073 104.348 138.82 104.098ZM137.921 107.645C137.64 107.977 137.275 108.144 136.77 108.144C136.264 108.144 135.899 107.977 135.618 107.645C135.338 107.312 135.225 106.841 135.225 106.232C135.225 105.622 135.366 105.151 135.646 104.819C135.927 104.486 136.292 104.32 136.77 104.32C137.247 104.32 137.64 104.486 137.893 104.819C138.174 105.151 138.314 105.622 138.314 106.232C138.314 106.841 138.174 107.312 137.921 107.645Z" fill="#212750"/>
<path d="M145.055 103.793C144.605 103.489 144.044 103.322 143.285 103.322C142.976 103.322 142.668 103.35 142.387 103.406C142.106 103.461 141.853 103.544 141.628 103.655C141.488 103.71 141.376 103.793 141.319 103.877C141.263 103.96 141.207 104.071 141.207 104.209C141.207 104.32 141.235 104.431 141.291 104.514C141.348 104.597 141.404 104.68 141.488 104.736C141.713 104.625 141.993 104.542 142.274 104.431C142.555 104.32 142.864 104.292 143.201 104.292C143.594 104.292 143.931 104.375 144.156 104.514C144.381 104.68 144.493 104.929 144.493 105.262V105.511L142.836 105.678C142.19 105.733 141.713 105.899 141.376 106.176C141.039 106.453 140.87 106.841 140.87 107.368C140.87 107.95 141.095 108.393 141.516 108.67C141.937 108.975 142.555 109.113 143.313 109.113C143.735 109.113 144.128 109.058 144.437 108.975C144.774 108.892 145.027 108.781 145.223 108.67C145.364 108.587 145.476 108.504 145.56 108.393C145.644 108.282 145.673 108.144 145.673 107.977V105.234C145.729 104.597 145.504 104.098 145.055 103.793ZM144.493 107.922C144.409 107.977 144.268 108.033 144.044 108.088C143.847 108.144 143.594 108.171 143.313 108.171C142.892 108.171 142.583 108.088 142.387 107.95C142.19 107.811 142.078 107.617 142.078 107.34C142.078 107.091 142.162 106.897 142.359 106.786C142.527 106.675 142.808 106.592 143.173 106.537L144.465 106.398V107.922H144.493Z" fill="#212750"/>
<path d="M150.138 103.322C149.716 103.322 149.323 103.378 148.958 103.461C148.593 103.544 148.312 103.683 148.088 103.821C147.919 103.932 147.779 104.043 147.694 104.154C147.61 104.264 147.582 104.431 147.582 104.625V108.476C147.582 108.67 147.638 108.836 147.751 108.919C147.863 109.003 148.031 109.058 148.256 109.058C148.368 109.058 148.481 109.058 148.593 109.03C148.705 109.003 148.762 109.003 148.818 108.975V104.652C148.986 104.542 149.211 104.458 149.492 104.403C149.745 104.348 150.053 104.292 150.362 104.292C150.503 104.292 150.615 104.292 150.756 104.32C150.896 104.348 150.98 104.348 151.064 104.375C151.093 104.32 151.149 104.237 151.177 104.154C151.205 104.071 151.233 103.987 151.233 103.877C151.177 103.516 150.84 103.322 150.138 103.322Z" fill="#212750"/>
<path d="M156.653 103.987C156.429 103.766 156.148 103.599 155.839 103.489C155.53 103.378 155.165 103.295 154.8 103.295C154.406 103.295 154.069 103.35 153.732 103.489C153.395 103.627 153.115 103.793 152.862 104.043C152.609 104.292 152.412 104.569 152.272 104.929C152.132 105.29 152.047 105.705 152.047 106.176C152.047 106.675 152.132 107.091 152.272 107.451C152.412 107.811 152.637 108.116 152.89 108.365C153.171 108.615 153.48 108.809 153.873 108.919C154.238 109.058 154.659 109.113 155.137 109.113C155.417 109.113 155.67 109.086 155.923 109.03C156.176 108.975 156.372 108.919 156.541 108.836C156.709 108.753 156.85 108.67 156.962 108.531C157.074 108.421 157.131 108.282 157.131 108.171C157.131 107.95 157.018 107.756 156.794 107.645C156.625 107.756 156.4 107.866 156.12 107.977C155.839 108.088 155.53 108.144 155.193 108.144C154.687 108.144 154.294 108.033 153.957 107.811C153.648 107.589 153.423 107.257 153.311 106.814L156.794 106.315C156.962 106.287 157.103 106.232 157.215 106.121C157.299 106.038 157.355 105.899 157.355 105.705C157.355 105.345 157.299 105.04 157.159 104.736C157.046 104.458 156.878 104.209 156.653 103.987ZM153.255 105.927C153.283 105.401 153.423 104.985 153.704 104.68C153.985 104.403 154.35 104.237 154.8 104.237C155.221 104.237 155.558 104.348 155.783 104.597C156.007 104.846 156.148 105.151 156.176 105.484L153.255 105.927Z" fill="#212750"/>
</svg>
