<svg width="186" height="186" viewBox="0 0 186 186" fill="none" xmlns="http://www.w3.org/2000/svg">
<path fill-rule="evenodd" clip-rule="evenodd" d="M143.063 117.657L93.0974 125.207L42 117.652L45.6024 100.247H140.32L143.063 117.652V117.657Z" fill="#1A171B"/>
<path d="M141.621 56.1592H122.168V52.9067C105.685 44.7911 79.6344 45.2748 64.103 52.9067V56.154H44.6501C42.7254 96.3156 59.4662 118.373 93.1383 139.266C126.512 117.559 142.913 96.4648 141.621 56.154V56.1592ZM128.478 104.153C121.386 115.547 110.517 125.634 93.2618 136.858L93.1486 136.935L93.0302 136.858C75.9343 126.257 64.6382 115.938 57.4952 104.385C49.5596 91.5964 46.2814 76.9296 47.1666 58.2228V58.017H65.5182V55.0322L65.6417 54.9807C80.8232 47.5186 105.489 47.5186 120.63 54.9807L120.753 55.0322V58.017H139.105V58.2228C139.712 76.9399 136.331 91.5295 128.478 104.153Z" fill="#1A171B" stroke="white" stroke-miterlimit="10"/>
<path d="M139.11 58.0119H120.754V55.0322L120.63 54.9807C105.49 47.5186 80.8184 47.5186 65.6421 54.9807L65.5186 55.0322V58.017H47.1669V58.2229C46.2663 76.9296 49.5445 91.5964 57.4955 104.385C64.654 115.938 75.9501 126.251 93.0408 136.858L93.1592 136.935L93.2724 136.858C110.543 125.634 121.407 115.547 128.488 104.153C136.342 91.5295 139.723 76.9193 139.121 58.228L139.105 58.017L139.11 58.0119Z" fill="#03702B"/>
<path d="M101.676 130.724L129.852 58.3721H129.826L100.338 131.665C100.78 131.357 101.233 131.043 101.676 130.724V130.724ZM85.8202 131.794L56.2857 58.3721H56.2549L84.4976 130.873L85.8202 131.794V131.794ZM87.5957 132.998L62.8936 58.3773H62.8421L86.3606 132.149L87.5957 132.998ZM91.5532 135.556L80.3755 50.8585L90.5188 134.902L91.5532 135.556ZM90.4004 134.83L74.1639 52.2326L89.3145 134.11L90.3953 134.83H90.4004ZM89.0984 133.971L68.1634 54.2757L87.9611 133.204L89.0933 133.961L89.0984 133.971ZM77.0355 125.305L49.0038 81.6693L49.1376 82.2971L75.0851 123.694C75.7232 124.234 76.3717 124.775 77.0355 125.305V125.305ZM82.2075 129.272C82.6707 129.617 83.175 129.962 83.6536 130.302L49.3794 58.5419L82.2024 129.272H82.2075ZM70.4277 119.546L53.9185 97.0875C54.2427 97.7926 54.5875 98.4976 54.9323 99.1718L67.376 116.51C68.3641 117.534 69.3727 118.548 70.4277 119.546V119.546ZM119.94 114.837L130.171 100.592C130.613 99.7739 131.041 98.9453 131.447 98.1065L116.652 118.254C117.784 117.127 118.875 115.99 119.945 114.837H119.94ZM80.8798 128.264L47.4805 68.2941V68.4845L79.2484 127.039C79.7888 127.451 80.3343 127.862 80.8798 128.264V128.264ZM99.7821 132.087L123.27 58.3721H123.229L98.5264 132.942L99.7821 132.087V132.087ZM93.1382 136.559L94.5432 135.649L99.4321 50.0197L93.5396 135.911L93.0713 49.7778L92.5979 135.916L86.6951 50.0506L91.5995 135.582C92.1038 135.906 92.6082 136.235 93.1382 136.559V136.559ZM102.571 130.085L104.038 129L136.707 58.5162L102.566 130.085H102.571ZM111.408 123.076L136.763 82.5956L136.907 81.9472L109.411 124.738C110.089 124.2 110.755 123.646 111.408 123.076V123.076ZM107.064 126.653L138.652 68.4279V68.2324L105.407 127.939C105.968 127.512 106.524 127.085 107.064 126.653ZM95.6033 134.933L105.757 50.7916L94.5483 135.628L95.5981 134.933H95.6033ZM96.8075 134.115L111.958 52.1709L95.7011 134.861L96.8127 134.115H96.8075ZM98.1816 133.184L117.99 54.2294H117.964L97.0185 133.966L98.1816 133.184V133.184Z" fill="white"/>
<path d="M128.113 103.917C121.067 115.228 110.271 125.258 93.1334 136.41C76.1661 125.871 64.9627 115.619 57.8402 104.153C49.9819 91.4935 46.7243 76.9656 47.5837 58.4493H65.9456V55.31C80.9728 47.9766 105.304 47.9766 120.316 55.31V58.4493H138.678C139.254 76.9707 135.904 91.4266 128.113 103.917V103.917Z" stroke="white" stroke-miterlimit="10"/>
<path d="M87.9045 100.7C88.1001 100.803 88.8051 99.321 89.2425 98.6469C89.541 97.5404 90.5394 96.0789 91.229 95.1165C90.7298 94.4681 91.5429 94.1799 91.1261 93.4903C91.0592 93.3874 91.0334 93.408 91.0231 93.4388C91.0386 93.1661 91.0386 92.8882 91.0231 92.6154C90.9408 91.1693 91.0643 89.8879 91.4245 89.1674C91.2084 89.0388 91.1518 88.6219 91.2084 88.2256C91.5275 88.1227 91.862 88.0816 92.1913 88.097C92.4023 85.987 93.2978 84.3402 93.869 79.6468C93.6786 78.8543 93.869 78.7102 94.0131 78.6484C94.1572 78.5867 94.2653 78 94.4094 76.7443C94.6693 74.8642 95.0964 73.0111 95.6857 71.2069C96.154 69.7968 96.6943 68.2787 97.2604 66.9767C97.3325 66.8068 97.3428 66.6164 97.3067 66.4363C97.3119 66.3334 97.2964 66.2305 97.2553 66.1378V66.1018C96.5657 65.6798 96.7818 64.1771 96.7818 63.5287C96.5286 63.3503 96.3119 63.1249 96.1437 62.8648C96.1231 62.7619 96.0665 62.6692 95.9944 62.5972C95.9224 62.52 95.7217 62.4274 95.5982 62.2884C95.0938 61.7429 95.0166 61.2695 95.1505 61.0893C95.2328 60.9864 95.3357 60.9916 95.4592 61.0893C95.4592 61.0893 95.6342 61.2437 95.7577 61.3724C95.6548 61.2128 95.6085 61.0173 95.6393 60.8269C95.6754 60.5799 95.8915 60.4306 96.2106 60.549C96.6068 60.7497 96.9722 60.9967 97.3067 61.2952C97.3067 61.2128 97.245 61.1871 97.0546 60.4821C96.8693 59.777 97.106 59.6484 97.3067 59.5403C97.3786 59.5051 97.4609 59.4978 97.5378 59.5196C97.6148 59.5415 97.6809 59.591 97.7236 59.6587C97.7545 59.7101 97.7699 59.7616 97.7751 59.8131C97.8471 60.1167 97.9603 60.41 98.1044 60.6879C98.2279 60.9401 98.3617 61.1871 98.5161 61.4238C98.5161 61.4238 98.5933 61.4238 98.7323 61.218C98.758 60.8269 98.8712 60.446 99.0771 60.1064C99.1903 59.777 99.2932 59.4425 99.3755 59.1029C99.3086 59.0102 99.3755 58.8353 99.4682 58.4596C99.4607 58.3024 99.5136 58.1483 99.6159 58.0287C99.7182 57.9091 99.8624 57.8332 100.019 57.8163C100.111 57.4766 100.235 57.4561 100.585 57.3531C100.863 57.3531 100.863 58.1148 100.832 58.5882C100.89 58.979 100.873 59.3774 100.78 59.7616C100.75 60.0704 100.672 60.3791 100.549 60.6673C100.335 61.3501 100.227 62.0618 100.23 62.7773C100.199 63.5132 100.07 64.7638 99.9416 65.9474C99.6946 66.9252 99.5042 67.9184 99.3755 68.9168C99.2984 69.7917 98.6757 72.3237 98.5058 73.2603C98.6088 76.3377 98.1713 78.8955 97.3582 80.7018C98.0272 81.9266 97.7287 83.9594 97.5126 85.2151L97.8214 85.0761C97.8584 85.1486 97.8777 85.2289 97.8777 85.3103C97.8777 85.3917 97.8584 85.4719 97.8214 85.5444L98.0118 85.6062C97.9706 85.776 97.9191 85.9459 97.8574 86.1054C97.9481 86.2426 97.988 86.4072 97.9702 86.5708C97.9523 86.7343 97.8778 86.8864 97.7596 87.0008C97.4766 87.3611 97.528 87.6081 97.6927 87.7522C97.8625 87.8911 97.317 88.097 97.7596 88.5499C97.8214 88.6271 97.9294 89.0851 98.089 89.1005C98.0407 89.1881 98.025 89.2899 98.0448 89.388C98.0646 89.486 98.1185 89.5738 98.197 89.6357C98.4029 89.8056 98.1662 89.9033 98.4801 90.1658C98.7889 90.4231 99.2623 91.2002 99.7512 91.3083C99.638 90.701 99.7512 90.2121 100.22 90.0732C100.688 89.9291 100.425 89.8828 100.508 89.6666C100.585 89.4505 100.678 89.3681 100.791 89.3681C100.847 89.1468 100.554 88.9255 101.058 88.7248C101.558 88.519 101.444 88.5653 101.573 88.4418C101.599 88.1433 101.583 87.8448 101.537 87.5515C101.537 87.4074 101.81 87.4537 102.082 87.4228C102.34 87.4331 102.602 87.3971 102.854 87.3148C103.251 86.8773 103.384 86.9031 103.637 86.9185C103.566 86.8722 103.484 86.8472 103.4 86.8464L103.523 86.7898L103.626 86.5583L103.791 86.5171V86.3936L104.023 86.4296V86.2855L104.213 86.2443L104.28 86.1002L104.465 86.2443L104.527 86.1414L104.759 86.2032L104.841 86.0539L104.923 86.1826L105.026 86.0385L105.175 86.162H105.345L105.319 86.0385L105.458 86.1363L105.633 86.2649L105.736 86.2083L105.947 86.3318L106.097 86.373C106.485 86.5639 106.839 86.8198 107.141 87.1295C107.133 87.1475 107.122 87.1647 107.11 87.181C107.61 87.8088 109.364 90.1092 109.241 91.6531C109.658 92.4456 108.448 95.7907 106.127 96.2899C105.582 96.6913 105.186 96.7942 105.103 97.0824C105.5 97.1699 105.458 97.2111 105.268 97.5559C105.078 97.8955 105.021 98.3895 105.772 98.2249C106.524 98.0602 106.4 98.2866 106.75 98.7498C107.105 99.2078 108.073 99.0997 108.629 99.8151C109.035 100.345 109.668 100.644 109.761 100.546L87.9045 100.7ZM88.9543 54.1933C86.1908 52.8656 83.9985 51.9444 82.8457 52.3149C83.6485 52.9942 85.4652 53.864 87.3899 54.7851L88.2081 55.1763L89.0212 55.5674C91.0231 56.5349 92.9118 57.4458 93.8896 57.5744C93.9822 57.595 94.0749 57.595 94.1675 57.5744C93.5139 56.4937 91.5172 55.4336 88.9543 54.1933V54.1933Z" fill="#1A171B"/>
<path d="M94.4042 58.2846C94.3939 58.12 94.3528 57.9604 94.2859 57.8163C94.1531 57.8402 94.0172 57.8402 93.8845 57.8163C92.8655 57.6722 90.9562 56.751 88.944 55.7784L88.1258 55.3873L87.3024 54.991C85.3159 54.0544 83.4427 53.1487 82.6398 52.4333C82.5769 52.4676 82.5182 52.509 82.4649 52.5568C82.3002 52.6958 81.9502 53.02 82.4906 53.5501C83.35 54.3529 85.7019 55.4285 87.9817 56.5195C90.2563 57.6053 92.567 58.7787 93.6992 58.9331C94.3991 59.0154 94.4145 58.5059 94.4042 58.2846V58.2846Z" fill="#1A171B"/>
<path fill-rule="evenodd" clip-rule="evenodd" d="M143.063 117.657L93.0974 121.918L42 117.652L45.6024 100.247H140.32L143.063 117.652V117.657Z" fill="#1A171B" stroke="white" stroke-width="0.5" stroke-miterlimit="10"/>
<path d="M54.8557 103.206H50.6615L47.7642 114.039C50.8158 113.051 53.9081 112.192 57.0326 111.466L54.8557 103.206ZM51.5981 110.627L52.1025 108.322C52.2517 107.632 52.437 106.469 52.6274 105.718H52.6634C52.8332 106.464 53.0391 107.596 53.2089 108.322L53.7081 110.627H51.5981ZM66.0592 106.078V104.472H59.1529V106.644H62.8222V106.685L60.2696 110.756C61.34 110.54 62.4259 110.329 63.5272 110.133L66.0592 106.078ZM71.2569 108.497L70.3151 104.472H67.4847L68.8896 109.284C69.713 109.166 70.5416 109.053 71.3804 108.95C71.329 108.795 71.2929 108.651 71.2569 108.497V108.497ZM76.4289 104.472H73.6396L72.703 108.533C72.703 108.615 72.6618 108.708 72.6413 108.8C73.4904 108.698 74.3498 108.605 75.2144 108.523L76.4238 104.472H76.4289ZM81.4002 103.093H81.4311L82.0487 103.937H83.7984L82.3883 102.09H80.443L79.0535 103.937H80.7878L81.4054 103.093H81.4002ZM81.251 106.479H81.2819C81.3796 106.912 81.4877 107.504 81.5906 108.013C82.3677 107.967 83.1551 107.926 83.9425 107.89L83.0367 104.472H79.6865L78.683 108.229C79.4292 108.167 80.1806 108.116 80.9371 108.07C81.0297 107.54 81.1429 106.922 81.251 106.479V106.479ZM90.3908 106.387C90.6378 106.335 90.9002 106.315 91.1524 106.33C91.3211 106.309 91.4923 106.326 91.6537 106.379C91.8152 106.432 91.9628 106.521 92.0859 106.638C92.209 106.755 92.3045 106.898 92.3656 107.057C92.4267 107.215 92.4517 107.386 92.439 107.555V107.694H95.007C95.0224 107.576 95.0327 107.457 95.0327 107.339C95.0607 106.926 94.9905 106.513 94.8276 106.133C94.6648 105.752 94.4141 105.416 94.0961 105.152C93.3344 104.591 92.2434 104.385 90.8333 104.385C89.8401 104.38 88.8417 104.452 87.8537 104.596V107.745C88.7028 107.745 89.5571 107.704 90.4114 107.694L90.3959 106.392L90.3908 106.387ZM100.025 104.472H97.4309V107.756C98.3006 107.787 99.1652 107.818 100.025 107.859V104.472V104.472ZM108.233 104.472H105.644V108.229C106.514 108.291 107.379 108.368 108.238 108.445V104.472H108.233ZM118.139 107.365C118.169 106.951 118.098 106.536 117.934 106.154C117.771 105.773 117.518 105.436 117.198 105.172C116.446 104.591 115.361 104.395 113.914 104.395C112.916 104.39 111.923 104.457 110.935 104.606V108.708C113.004 108.929 115.041 109.197 117.038 109.5C117.375 109.254 117.649 108.933 117.84 108.562C118.032 108.192 118.134 107.782 118.139 107.365V107.365ZM114.095 108.857H113.508V106.387C113.76 106.335 114.017 106.315 114.275 106.33C114.443 106.309 114.615 106.326 114.776 106.379C114.937 106.432 115.085 106.521 115.208 106.638C115.331 106.755 115.427 106.898 115.488 107.057C115.549 107.215 115.574 107.386 115.561 107.555C115.561 108.322 115.041 108.862 114.095 108.862V108.857ZM123.142 110.432H126.353V108.322H123.142V106.613H126.512V104.472H120.553V110.072L123.142 110.54V110.437V110.432ZM134.057 113.041L134.108 113.242C135.359 113.617 136.579 114.008 137.762 114.415L134.803 103.206H130.609L128.345 111.693C130.094 112.104 131.787 112.557 133.424 113.041H134.057V113.041ZM132.05 108.322C132.204 107.632 132.39 106.469 132.575 105.718H132.621C132.786 106.464 132.992 107.596 133.156 108.322L133.666 110.627H131.556L132.05 108.322V108.322Z" fill="#03702B"/>
<path d="M50.5891 117.009L51.2066 114.22H54.104L54.7987 117.009H58.1901L57.0271 112.645C53.8998 113.36 50.8071 114.219 47.7586 115.218L47.2852 117.009H50.5891V117.009ZM58.7614 115.743H66.0999V113.576H62.1476V113.525L63.5268 111.312C62.4255 111.507 61.3396 111.718 60.2692 111.935L58.7614 114.333V115.743V115.743ZM73.4282 115.743L75.2243 109.701C74.3597 109.783 73.5003 109.876 72.6512 109.979C72.3975 111.029 72.1829 112.088 72.0079 113.154H71.977C71.7969 112.074 71.591 111.096 71.3594 110.128C70.5309 110.231 69.6972 110.344 68.8738 110.458L70.4022 115.743H73.4282V115.743ZM79.6192 115.743L80.0875 113.514H82.4342L82.99 115.743H85.697L83.9369 109.084C83.1547 109.12 82.3673 109.156 81.5902 109.202C81.6314 109.408 81.6726 109.593 81.7137 109.753L82.1152 111.595H80.4169L80.8286 109.753L80.9315 109.248L78.6723 109.408L76.974 115.758L79.6192 115.743V115.743ZM90.3904 115.743V111.924H90.766C91.4968 111.924 91.8468 112.182 92.0835 113.396C92.2327 114.194 92.4437 114.981 92.7268 115.743H95.3925C95.0777 114.8 94.8131 113.842 94.6 112.871C94.3736 111.955 94.0133 111.327 93.3546 111.044V110.993C93.7831 110.812 94.1583 110.524 94.4447 110.158C94.7311 109.791 94.9192 109.358 94.9911 108.898C94.142 108.898 93.2877 108.873 92.4334 108.873C92.3717 109.562 91.8571 110.041 90.977 110.041H90.3904V108.883C89.5361 108.883 88.6818 108.883 87.8327 108.934V115.743H90.3904V115.743ZM103.508 115.743V113.576H100.045V109.048C99.1905 109.011 98.3259 108.975 97.4562 108.95V115.743H103.508V115.743ZM108.233 115.743V109.608C107.378 109.526 106.514 109.454 105.644 109.387V115.743H108.238H108.233ZM113.507 115.743V111.924H113.883C114.614 111.924 114.964 112.182 115.201 113.396C115.35 114.194 115.561 114.981 115.844 115.743H118.53C118.215 114.8 117.95 113.842 117.738 112.871C117.511 111.955 117.151 111.327 116.492 111.044V110.993C116.692 110.913 116.881 110.808 117.053 110.679C115.067 110.365 113.034 110.097 110.95 109.886V115.743H113.507V115.743ZM126.723 115.743V113.602H123.141V111.724C122.287 111.554 121.422 111.399 120.553 111.255V115.748H126.723V115.743ZM130.531 117.009L131.149 114.22H133.424C131.787 113.741 130.094 113.293 128.344 112.871L127.238 117.009H130.531V117.009ZM134.746 117.009H138.138L137.762 115.599C136.578 115.192 135.359 114.806 134.108 114.431L134.746 117.004V117.009Z" fill="white"/>
</svg>
