<svg width="186" height="186" viewBox="0 0 186 186" fill="none" xmlns="http://www.w3.org/2000/svg">
<g clip-path="url(#clip0_906_47)">
<path d="M101.032 96.9991C101.032 96.1806 100.903 95.5074 100.646 94.9775C100.39 94.4487 99.8719 93.9996 99.091 93.6302C98.5875 93.387 98.0401 93.2325 97.4448 93.1639C96.8515 93.0953 96.0106 93.062 94.9189 93.062H91.3083V101.079H93.8914C95.2828 101.079 96.3786 101.021 97.1808 100.903C97.983 100.787 98.6884 100.54 99.297 100.16C99.8973 99.7805 100.336 99.3496 100.614 98.8702C100.891 98.3878 101.031 97.7641 101.031 96.9991M99.9035 87.1629C99.9035 86.6381 99.8076 86.186 99.616 85.8035C99.4234 85.4199 99.1125 85.1172 98.6843 84.8921C98.1716 84.6317 97.5987 84.4712 96.9678 84.4137C96.3378 84.3552 95.4673 84.3259 94.3552 84.3259H91.3073V90.666H94.9158C95.9097 90.666 96.6436 90.6196 97.1125 90.5267C97.5845 90.4339 98.0697 90.2442 98.5722 89.9535C99.0544 89.6729 99.3948 89.3035 99.5987 88.8484C99.8026 88.3932 99.9035 87.831 99.9035 87.1619M104.336 96.8779C104.336 97.9558 104.112 98.9055 103.662 99.7281C103.212 100.555 102.608 101.234 101.85 101.767C100.952 102.408 99.9901 102.862 98.9626 103.126C97.9372 103.395 96.61 103.528 94.9851 103.528H88.1382V81.8745H94.4693C96.1696 81.8745 97.4438 81.9249 98.2939 82.0279C99.1451 82.1298 99.9595 82.369 100.74 82.7464C101.594 83.1612 102.22 83.7062 102.616 84.3814C103.01 85.0546 103.209 85.8458 103.209 86.7562C103.209 87.7745 102.913 88.6839 102.319 89.4882C101.725 90.2916 100.904 90.9224 99.8556 91.3765V91.4936C101.279 91.8428 102.381 92.4806 103.162 93.4081C103.945 94.3346 104.335 95.4892 104.335 96.8779" fill="#0471B8"/>
<path d="M107.497 103.529V81.8755H122.454V84.437H110.668V90.3713H121.652V92.9318H110.668V100.967H122.454V103.529H107.497Z" fill="#0471B8"/>
<path d="M132.58 103.915C130.851 103.915 129.379 103.754 128.165 103.428C126.953 103.104 125.811 102.704 124.743 102.23V98.626H124.969C126.015 99.5141 127.2 100.204 128.525 100.695C129.85 101.183 131.126 101.427 132.357 101.427C134.107 101.427 135.433 101.095 136.331 100.432C137.227 99.7684 137.676 98.8934 137.676 97.8105C137.676 96.9476 137.441 96.2441 136.972 95.7032C136.501 95.1602 135.755 94.7575 134.728 94.4971C133.991 94.3034 133.317 94.1429 132.709 94.0167C132.098 93.8916 131.336 93.722 130.416 93.5091C129.594 93.3143 128.856 93.068 128.203 92.7673C127.551 92.4675 126.974 92.0749 126.47 91.5905C125.98 91.1151 125.596 90.556 125.325 89.9111C125.053 89.2672 124.917 88.5244 124.917 87.6807C124.917 85.9276 125.668 84.4571 127.176 83.2692C128.681 82.0824 130.606 81.4899 132.944 81.4899C134.281 81.4899 135.544 81.611 136.735 81.8533C137.926 82.0955 139.03 82.4386 140.046 82.8867V86.3363H139.805C139.047 85.7046 138.073 85.1545 136.888 84.6842C135.703 84.2119 134.458 83.9767 133.154 83.9767C131.68 83.9767 130.492 84.2896 129.583 84.9143C128.674 85.538 128.22 86.3596 128.22 87.3759C128.22 88.2973 128.488 89.028 129.022 89.571C129.556 90.1119 130.33 90.5096 131.345 90.7599C132.018 90.9254 132.841 91.1111 133.813 91.319C134.788 91.5289 135.595 91.7197 136.235 91.8943C137.882 92.3494 139.084 93.0378 139.843 93.9572C140.602 94.8786 140.981 96.012 140.981 97.3594C140.981 98.2021 140.792 99.0367 140.413 99.8583C140.032 100.682 139.501 101.38 138.817 101.951C138.047 102.581 137.181 103.067 136.212 103.405C135.246 103.745 134.034 103.914 132.582 103.914" fill="#0471B8"/>
<path d="M149.804 103.529V84.437H141.783V81.8755H161V84.437H152.977V103.529H149.804Z" fill="#0471B8"/>
<path d="M117.54 112.003V106.868H115.514V106.179H120.37V106.868H118.343V112.003H117.541H117.54Z" fill="#0471B8"/>
<path d="M123.085 112.003H120.742V111.408H121.512V106.774H120.742V106.179H123.085V106.774H122.315V111.408H123.085V112.003Z" fill="#0471B8"/>
<path d="M129.247 112.003H128.445V106.986L126.872 110.4H126.386L124.825 106.986V112.003H124.075V106.179H125.17L126.678 109.421L128.133 106.179H129.248V112.003H129.247Z" fill="#0471B8"/>
<path d="M132.579 112.003H130.236V111.408H131.006V106.774H130.236V106.179H132.579V106.774H131.809V111.408H132.579V112.003Z" fill="#0471B8"/>
<path d="M135.25 112.107C134.813 112.107 134.44 112.064 134.133 111.976C133.826 111.888 133.538 111.781 133.268 111.653V110.683H133.325C133.59 110.924 133.889 111.109 134.225 111.241C134.56 111.372 134.883 111.438 135.193 111.438C135.637 111.438 135.972 111.35 136.198 111.171C136.426 110.992 136.539 110.757 136.539 110.465C136.539 110.233 136.48 110.045 136.36 109.898C136.241 109.752 136.052 109.644 135.792 109.573C135.606 109.521 135.436 109.478 135.282 109.444C135.128 109.41 134.934 109.364 134.702 109.307C134.494 109.254 134.307 109.189 134.142 109.107C133.977 109.025 133.831 108.92 133.705 108.79C133.581 108.662 133.484 108.512 133.415 108.338C133.347 108.164 133.312 107.965 133.312 107.737C133.312 107.266 133.503 106.87 133.884 106.551C134.266 106.232 134.752 106.071 135.344 106.071C135.681 106.071 136.001 106.103 136.303 106.169C136.605 106.235 136.883 106.327 137.14 106.447V107.373H137.079C136.887 107.204 136.642 107.056 136.341 106.929C136.041 106.803 135.726 106.739 135.396 106.739C135.023 106.739 134.722 106.823 134.492 106.992C134.262 107.16 134.147 107.381 134.147 107.655C134.147 107.902 134.215 108.099 134.35 108.245C134.486 108.391 134.681 108.498 134.938 108.566C135.109 108.61 135.316 108.661 135.562 108.716C135.808 108.773 136.012 108.824 136.174 108.871C136.59 108.993 136.893 109.179 137.086 109.426C137.279 109.673 137.374 109.979 137.374 110.341C137.374 110.568 137.326 110.792 137.23 111.013C137.134 111.235 136.999 111.423 136.826 111.577C136.631 111.746 136.412 111.876 136.168 111.968C135.923 112.059 135.617 112.105 135.249 112.105L135.25 112.107Z" fill="#0471B8"/>
<path d="M142.462 106.848C142.692 107.104 142.87 107.421 142.997 107.799C143.125 108.177 143.188 108.608 143.188 109.094C143.188 109.579 143.126 109.992 143.001 110.373C142.877 110.753 142.698 111.073 142.462 111.33C142.217 111.602 141.929 111.802 141.601 111.931C141.273 112.06 140.911 112.125 140.516 112.125C140.122 112.125 139.741 112.058 139.413 111.925C139.086 111.792 138.806 111.594 138.57 111.33C138.338 111.072 138.16 110.754 138.035 110.377C137.911 109.998 137.849 109.571 137.849 109.094C137.849 108.617 137.912 108.173 138.037 107.803C138.163 107.433 138.342 107.115 138.574 106.849C138.807 106.591 139.087 106.395 139.415 106.261C139.744 106.127 140.111 106.059 140.516 106.059C140.922 106.059 141.297 106.128 141.627 106.266C141.958 106.404 142.235 106.598 142.462 106.848ZM142.353 109.093C142.353 108.707 142.31 108.365 142.224 108.068C142.137 107.772 142.016 107.525 141.859 107.33C141.7 107.129 141.507 106.979 141.281 106.878C141.055 106.778 140.802 106.727 140.52 106.727C140.239 106.727 139.974 106.776 139.756 106.874C139.538 106.971 139.346 107.123 139.178 107.329C139.019 107.527 138.897 107.776 138.811 108.076C138.725 108.375 138.683 108.714 138.683 109.092C138.683 109.856 138.85 110.44 139.182 110.846C139.514 111.252 139.961 111.455 140.519 111.455C141.078 111.455 141.524 111.252 141.855 110.846C142.186 110.44 142.351 109.856 142.351 109.092L142.353 109.093Z" fill="#0471B8"/>
<path d="M143.414 112.003L145.449 106.179H146.437L148.472 112.003H147.625L147.078 110.376H144.771L144.223 112.003H143.413H143.414ZM146.855 109.715L145.923 106.969L144.994 109.715H146.854H146.855Z" fill="#0471B8"/>
<path d="M153.719 112.003H152.677L150.764 109.687H149.847V112.003H149.045V106.179H150.601C150.947 106.179 151.238 106.197 151.471 106.234C151.704 106.27 151.927 106.355 152.138 106.488C152.349 106.618 152.515 106.787 152.638 106.993C152.761 107.199 152.823 107.454 152.823 107.759C152.823 108.187 152.71 108.544 152.486 108.83C152.262 109.117 151.956 109.33 151.57 109.468L153.719 112.003ZM151.984 107.818C151.984 107.649 151.953 107.498 151.891 107.366C151.829 107.235 151.733 107.127 151.603 107.043C151.49 106.97 151.358 106.919 151.206 106.889C151.054 106.858 150.866 106.843 150.642 106.843H149.848V109.041H150.554C150.783 109.041 150.99 109.022 151.173 108.983C151.357 108.944 151.514 108.863 151.643 108.741C151.759 108.632 151.845 108.5 151.901 108.349C151.957 108.198 151.985 108.021 151.985 107.817L151.984 107.818Z" fill="#0471B8"/>
<path d="M153.544 112.003L155.579 106.179H156.568L158.602 112.003H157.755L157.208 110.376H154.901L154.354 112.003H153.543H153.544ZM156.986 109.715L156.053 106.969L155.124 109.715H156.985H156.986Z" fill="#0471B8"/>
<path d="M76.2232 103.557L70.9613 100.632H57.2256L51.9658 103.557C56.9993 111.992 72.0439 125.803 88.3483 127C82.6675 123.93 73.6259 112.901 76.2232 103.557Z" fill="#0471B8"/>
<path d="M79.9366 60C80.0212 66.2836 74.6421 79.3473 64.9583 81.8523L64.9614 87.7089L71.8287 99.1851L77.0834 102.118C82.1394 93.6948 87.0159 74.2193 79.9366 60Z" fill="#F9A41C"/>
<path d="M63.2315 81.8523C53.1451 81.8391 33.221 87.5051 24 100.529C29.5972 97.318 44.0169 95.2773 51.1064 102.119L56.3612 99.1851L63.2285 87.7099L63.2315 81.8523Z" fill="#75BF43"/>
<path d="M60.874 95.8405C60.874 94.1278 62.3164 92.736 64.0952 92.736C65.8739 92.736 67.3132 94.1278 67.3132 95.8405C67.3132 97.5532 65.8719 98.948 64.0952 98.948C62.3184 98.948 60.874 97.5612 60.874 95.8405Z" fill="#0471B8"/>
</g>
<defs>
<clipPath id="clip0_906_47">
<rect width="137" height="67" fill="white" transform="translate(24 60)"/>
</clipPath>
</defs>
</svg>
