<svg width="186" height="186" viewBox="0 0 186 186" fill="none" xmlns="http://www.w3.org/2000/svg">
<path fill-rule="evenodd" clip-rule="evenodd" d="M74.1674 114.124V86.3956L70.3712 85.4576L70.3709 113.309L74.1674 114.124ZM66.501 124.461V80.5106L74.1076 82.426C76.5675 83.0455 77.9412 84.6273 77.9412 87.0995V115.03C77.9412 117.6 76.5675 118.596 74.1076 118.08L70.3709 117.295V125.241L67.5027 124.665L66.501 124.461Z" fill="#858789"/>
<path fill-rule="evenodd" clip-rule="evenodd" d="M39.1581 77.733L39.1577 106.599L43.2356 107.474L43.236 78.7415L39.1581 77.733ZM36.0771 64.5632L39.1581 65.3676V73.6028L43.1715 74.6134C45.8124 75.2791 47.2873 76.9812 47.2873 79.6436V108.582C47.2873 111.143 45.8124 112.113 43.1715 111.559L35 109.843L35.0004 64.2853L36.0771 64.5632Z" fill="#3F4096"/>
<path fill-rule="evenodd" clip-rule="evenodd" d="M62.5845 111.638C62.5845 114.254 61.3152 115.37 58.7668 114.835L54.6901 113.978C52.266 113.469 50.9661 111.845 50.8022 109.259L50.8026 76.5573L54.6901 77.5368L54.775 109.961L58.7664 110.818L58.7668 78.5632L62.5845 79.5243V111.638Z" fill="#858789"/>
<path d="M126.599 80.2217V82.0399C126.599 82.6259 126.792 82.8726 127.176 82.7801C127.6 82.6773 127.812 82.3528 127.812 81.8063V79.0673C127.507 79.1403 127.245 79.2618 127.028 79.4305C126.743 79.6553 126.599 79.9184 126.599 80.2217Z" fill="#3F4096"/>
<path d="M114.886 104.367C114.475 104.473 114.268 104.796 114.268 105.339V110.475C114.268 111.017 114.475 111.235 114.886 111.127C115.298 111.02 115.505 110.694 115.505 110.153V105.022C115.505 104.479 115.298 104.262 114.886 104.367Z" fill="#3F4096"/>
<path d="M100.08 95.324C99.6586 95.428 99.4478 95.7545 99.4478 96.3034V101.497C99.4478 102.046 99.6586 102.268 100.08 102.162C100.501 102.056 100.712 101.728 100.712 101.18V95.9913C100.712 95.4424 100.501 95.2203 100.08 95.324Z" fill="#3F4096"/>
<path d="M111.409 92.5344C110.995 92.6365 110.788 92.9593 110.788 93.5039V95.4775L112.031 95.1685V93.1973C112.031 92.6536 111.823 92.4324 111.409 92.5344Z" fill="#3F4096"/>
<path d="M125.636 105.619V107.438C125.636 108.026 125.829 108.269 126.214 108.168C126.638 108.057 126.85 107.728 126.85 107.181V104.44C126.545 104.519 126.283 104.646 126.066 104.819C125.78 105.05 125.636 105.316 125.636 105.619Z" fill="#3F4096"/>
<path d="M129.347 92.1109V93.9254C129.347 94.5106 129.539 94.7546 129.922 94.6581C130.344 94.5521 130.555 94.226 130.555 93.6807V90.9473C130.251 91.023 129.991 91.1458 129.774 91.3168C129.49 91.5436 129.347 91.8087 129.347 92.1109Z" fill="#3F4096"/>
<path d="M139.308 80.4864L138.466 80.6905V80.2696L138.437 80.2763C138.166 80.6809 137.816 80.9349 137.39 81.0385C136.672 81.2123 136.312 80.8631 136.312 79.9897V77.8371C136.312 76.8186 137.011 76.143 138.408 75.8101V74.0956C138.408 73.6507 138.234 73.469 137.885 73.5519C137.497 73.6436 137.302 73.9461 137.302 74.46V75.2014L136.399 75.4159V74.4843C136.399 74.0868 136.544 73.7376 136.836 73.4359C137.128 73.1246 137.487 72.9189 137.914 72.818C138.844 72.5984 139.308 72.9492 139.308 73.8676V80.4864ZM135.26 77.7251L133.154 78.229V80.533C133.154 81.0676 133.354 81.2869 133.754 81.1904C134.154 81.0935 134.354 80.7774 134.354 80.244V79.1215L135.26 78.9039V80.0256C135.26 81.0445 134.759 81.6755 133.754 81.9191C132.749 82.163 132.244 81.7736 132.244 80.7523V75.6881C132.244 74.6665 132.749 74.0362 133.754 73.799C134.759 73.5619 135.26 73.9541 135.26 74.973V77.7251ZM131.495 75.15L130.849 75.3031V81.3518C130.849 81.6536 131.001 81.7684 131.305 81.6946L131.495 81.6488V82.3787L131.055 82.4855C130.31 82.6657 129.936 82.4293 129.936 81.7764V75.5191L129.479 75.6271V74.8961L129.936 74.7876V73.7201L130.849 73.1545V74.5724L131.495 74.4197V75.15ZM131.466 94.9119L130.614 95.1268V94.7031L130.584 94.7106C130.31 95.1204 129.956 95.3799 129.524 95.4892C128.797 95.6721 128.433 95.3257 128.433 94.4467V92.2802C128.433 91.2561 129.141 90.5677 130.555 90.2169V88.4924C130.555 88.0436 130.379 87.8634 130.025 87.9507C129.632 88.0476 129.436 88.3541 129.436 88.8707V89.617L128.521 89.8434V88.9062C128.521 88.506 128.669 88.1528 128.964 87.8467C129.259 87.5302 129.623 87.3185 130.054 87.2125C130.996 86.9812 131.466 87.3281 131.466 88.2525V94.9119ZM127.842 82.8387C127.566 83.2477 127.21 83.504 126.777 83.6097C126.046 83.7862 125.681 83.4351 125.681 82.5541V80.3836C125.681 79.3563 126.393 78.6739 127.812 78.3354V76.607C127.812 76.1581 127.635 75.9755 127.28 76.0597C126.886 76.1529 126.688 76.4583 126.688 76.9761V77.7239L125.769 77.942V77.0028C125.769 76.6018 125.918 76.2494 126.214 75.9444C126.51 75.6303 126.876 75.4215 127.309 75.319C128.255 75.0962 128.728 75.4486 128.728 76.3754V83.0488L127.871 83.2561V82.8319L127.842 82.8387ZM127.768 108.407L126.91 108.631V108.206L126.88 108.214C126.604 108.628 126.249 108.892 125.814 109.006C125.082 109.198 124.717 108.853 124.717 107.972V105.799C124.717 104.772 125.429 104.074 126.851 103.707V101.978C126.851 101.528 126.674 101.349 126.318 101.44C125.923 101.542 125.725 101.851 125.725 102.369V103.117L124.805 103.354V102.415C124.805 102.013 124.953 101.658 125.25 101.347C125.547 101.026 125.913 100.811 126.347 100.7C127.294 100.458 127.768 100.801 127.768 101.728V108.407ZM124.598 90.0949C124.598 89.0665 125.107 88.4279 126.126 88.1775C126.955 87.9738 127.368 88.3019 127.368 89.1621V90.4944L126.452 90.7216V89.4898C126.452 89.0497 126.308 88.866 126.022 88.9361C125.685 89.0186 125.518 89.2805 125.518 89.7202V95.1635C125.518 95.5645 125.671 95.7267 125.978 95.6498C126.294 95.5709 126.452 95.3297 126.452 94.9291V93.6391L127.368 93.4103V94.6843C127.368 95.5832 126.91 96.1477 125.992 96.3789C125.597 96.4785 125.265 96.4598 124.999 96.3211C124.731 96.1832 124.598 95.9173 124.598 95.5262V90.0949ZM123.349 83.3673V77.077L122.887 77.1862V76.4511L123.349 76.3423V75.2688L124.27 74.6995V76.1246L124.924 75.9708V76.7042L124.27 76.8589V82.9384C124.27 83.2421 124.424 83.3569 124.731 83.2832L124.924 83.2361V83.97L124.479 84.078C123.726 84.2602 123.349 84.023 123.349 83.3673V83.3673ZM123.809 102.258C123.363 102.373 123.051 102.546 122.873 102.779C122.693 103.001 122.604 103.322 122.604 103.744V109.758L121.68 110V101.98L122.545 101.759V102.319L122.574 102.311C122.862 101.806 123.274 101.485 123.809 101.348V102.258ZM121.323 97.4679L120.396 97.7011V91.1461C120.396 90.6554 120.201 90.4577 119.813 90.5533C119.613 90.6028 119.453 90.7208 119.334 90.9073C119.224 91.0815 119.169 91.2629 119.169 91.4491V98.0101L118.239 98.2445V90.203L119.109 89.9897V90.535L119.139 90.5274C119.398 90.0419 119.758 89.7417 120.217 89.6293C120.576 89.5412 120.849 89.5919 121.038 89.7808C121.227 89.9602 121.323 90.2213 121.323 90.5641V97.4679ZM120.605 110.281L119.737 110.508V110.081L119.708 110.089C119.428 110.506 119.069 110.772 118.629 110.887C117.89 111.081 117.519 110.735 117.519 109.849V107.664C117.519 106.631 118.239 105.928 119.678 105.557V103.819C119.678 103.366 119.498 103.186 119.139 103.278C118.739 103.381 118.539 103.693 118.539 104.213V104.966L117.609 105.204V104.26C117.609 103.857 117.759 103.499 118.06 103.185C118.36 102.863 118.729 102.646 119.169 102.534C120.126 102.289 120.605 102.633 120.605 103.565V110.281ZM117.129 84.6911V83.288L118.06 83.0647V84.3041C118.06 84.7569 118.214 84.9459 118.525 84.8709C118.824 84.7984 118.974 84.5309 118.974 84.0693V83.0954C118.974 82.8104 118.86 82.5425 118.63 82.2934L117.565 81.1166C117.274 80.793 117.129 80.4677 117.129 80.1428V79.1092C117.129 78.6762 117.264 78.3047 117.535 77.9946C117.804 77.6849 118.155 77.4788 118.585 77.3771C119.034 77.2715 119.373 77.3241 119.603 77.5358C119.793 77.6972 119.887 77.9248 119.887 78.2198V79.5468L119.019 79.7529V78.5583C119.019 78.1943 118.86 78.0504 118.54 78.1261C118.22 78.2019 118.06 78.4315 118.06 78.8146V79.7151C118.06 79.9315 118.175 80.1691 118.405 80.4298L119.573 81.758C119.793 82.0096 119.902 82.2778 119.902 82.5633V83.919C119.902 84.8227 119.438 85.3867 118.51 85.6116C117.59 85.8348 117.129 85.5278 117.129 84.6911V84.6911ZM117.159 98.5167L116.227 98.7515V92.1754C116.227 91.6831 116.031 91.4849 115.64 91.581C115.439 91.6308 115.279 91.7492 115.158 91.937C115.047 92.1116 114.992 92.2938 114.992 92.4807V99.0628L114.057 99.298V88.612L114.992 88.384V91.5487L115.022 91.5407C115.243 91.0632 115.594 90.7646 116.076 90.6462C116.428 90.5601 116.694 90.6127 116.874 90.8049C117.063 90.9847 117.159 91.247 117.159 91.5906V98.5167ZM116.437 109.91C116.437 110.944 115.921 111.596 114.886 111.867C113.85 112.138 113.331 111.755 113.331 110.719V105.579C113.331 104.543 113.85 103.892 114.886 103.628C115.921 103.363 116.437 103.748 116.437 104.782V109.91ZM112.969 95.7654L110.788 96.3083V98.6523C110.788 99.1972 110.995 99.4172 111.409 99.3132C111.823 99.2091 112.031 98.8851 112.031 98.3405V97.2001L112.969 96.9657V98.1053C112.969 99.143 112.45 99.7919 111.409 100.054C110.368 100.317 109.847 99.9287 109.847 98.8886V93.7364C109.847 92.6968 110.368 92.0486 111.409 91.7927C112.45 91.5372 112.969 91.9282 112.969 92.9658V95.7654ZM112.228 111.199C112.228 112.108 111.758 112.686 110.818 112.932C109.886 113.176 109.421 112.877 109.421 112.035V110.624L110.364 110.379V111.626C110.364 112.081 110.52 112.269 110.833 112.186C111.137 112.107 111.288 111.836 111.288 111.371V110.391C111.288 110.105 111.172 109.838 110.94 109.592L109.861 108.431C109.568 108.11 109.421 107.786 109.421 107.46V106.42C109.421 105.985 109.558 105.608 109.831 105.29C110.104 104.972 110.459 104.758 110.894 104.648C111.349 104.531 111.692 104.577 111.925 104.784C112.116 104.943 112.212 105.17 112.212 105.466V106.801L111.334 107.027V105.825C111.334 105.459 111.172 105.319 110.848 105.401C110.525 105.484 110.364 105.718 110.364 106.104V107.009C110.364 107.228 110.479 107.464 110.712 107.721L111.894 109.033C112.116 109.281 112.228 109.549 112.228 109.836V111.199ZM110.636 114.938L110.059 115.09L110.438 113.283L111.228 113.077L110.636 114.938ZM109.071 93.1994L108.402 93.3645V99.5197C108.402 99.8266 108.559 99.9402 108.873 99.8613L109.071 99.8115V100.555L108.615 100.669C107.843 100.864 107.457 100.629 107.457 99.9641V93.5969L106.984 93.7133V92.969L107.457 92.8526V91.7672L108.402 91.1796V92.6206L109.071 92.456V93.1994ZM108.234 103.914L107.227 104.17V103.04L108.234 102.785V103.914ZM108.204 113.527L107.259 113.775V105.665L108.204 105.424V113.527ZM105.624 80.5243L106.511 80.315L107.305 86.9868L107.335 86.9797L108.127 79.9335L109.01 79.7254L108.021 88.0635L106.617 88.4028L105.624 80.5243ZM106.129 91.6755L105.119 91.9226V90.7901L106.129 90.5438V91.6755ZM106.098 101.304L105.15 101.542V93.4199L106.098 93.1867V101.304ZM106.007 114.102L105.058 114.351V107.673C105.058 107.206 104.901 107.013 104.584 107.094C104.175 107.199 103.971 107.5 103.971 107.997V114.635L103.019 114.884V108.196C103.019 107.728 102.861 107.535 102.543 107.617C102.133 107.721 101.929 108.023 101.929 108.521V115.17L100.974 115.42V107.271L101.867 107.043V107.595L101.897 107.587C102.195 107.083 102.564 106.775 103.004 106.663C103.393 106.564 103.689 106.657 103.894 106.943C104.18 106.531 104.507 106.279 104.875 106.185C105.242 106.091 105.522 106.139 105.716 106.328C105.909 106.506 106.007 106.77 106.007 107.117V114.102ZM98.4906 101.737V96.5395C98.4906 95.4911 99.0208 94.8362 100.08 94.5759C101.138 94.316 101.667 94.709 101.667 95.7558V100.94C101.667 101.987 101.138 102.643 100.08 102.909C99.0208 103.176 98.4906 102.786 98.4906 101.737ZM99.7407 106.074L98.7218 106.334V105.196L99.7407 104.938V106.074ZM99.71 115.75L98.7529 116.001V107.838L99.71 107.594V115.75ZM98.0106 89.0338C98.0106 90.0626 97.4071 90.724 96.1977 91.0166C95.0078 91.3056 94.4114 90.9332 94.4114 89.9016V80.5107L95.4371 80.2704V89.3391C95.4371 90.0196 95.6962 90.2974 96.214 90.1727C96.7307 90.0475 96.989 89.6453 96.989 88.9656V79.9076L98.0106 79.6684V89.0338ZM97.7476 96.8875C97.7476 97.5074 97.624 97.9678 97.3764 98.2688C97.1385 98.5681 96.6944 98.7978 96.043 98.9596L95.4371 99.1099V103.989L94.4114 104.248V93.3999L96.043 93.0021C96.6944 92.8435 97.1385 92.855 97.3764 93.0368C97.624 93.2162 97.7476 93.6156 97.7476 94.2351V96.8875ZM97.7324 106.286L96.586 106.577V116.568L95.5615 116.836V106.838L94.4114 107.13V106.289L97.7324 105.446V106.286ZM99.3552 82.0036L100.25 81.7923V82.346L100.281 82.3384C100.548 81.8469 100.918 81.5444 101.39 81.4332C101.759 81.3463 102.042 81.3997 102.236 81.5922C102.431 81.7756 102.528 82.0415 102.528 82.3895V89.3937L101.575 89.6245V82.9738C101.575 82.476 101.375 82.2743 100.974 82.3695C100.769 82.4178 100.605 82.5366 100.481 82.7247C100.368 82.9013 100.312 83.0847 100.312 83.2732V89.9303L99.3552 90.1619V82.0036ZM102.881 91.3355L103.833 91.1039V101.874L102.881 102.114V91.3355ZM104.691 80.7443V88.8695L103.741 89.0996V80.9687L104.691 80.7443ZM103.71 78.3354L104.722 78.0986V79.2315L103.71 79.4687V78.3354ZM109.831 81.0018C109.831 79.963 110.353 79.3188 111.395 79.0733C112.435 78.8281 112.954 79.2248 112.954 80.2616V83.0619L110.773 83.5837V85.9277C110.773 86.4718 110.98 86.6938 111.395 86.5942C111.809 86.4937 112.016 86.172 112.016 85.6279V84.4866L112.954 84.2614V85.4023C112.954 86.4395 112.435 87.0837 111.395 87.336C110.353 87.5876 109.831 87.1945 109.831 86.1549V81.0018ZM114.042 78.5383L114.917 78.3318V78.8939L114.947 78.8867C115.238 78.3841 115.655 78.0683 116.196 77.9404V78.8572C115.745 78.9641 115.429 79.1327 115.248 79.3631C115.068 79.5827 114.977 79.9052 114.977 80.3286V86.3785L114.042 86.6053V78.5383ZM122.023 76.6552V84.6724L121.098 84.8964V76.8733L122.023 76.6552ZM121.068 74.2746L122.053 74.0446V75.1623L121.068 75.3936V74.2746ZM123.423 88.9293V96.9382L122.5 97.171V89.1562L123.423 88.9293ZM122.47 86.5611L123.453 86.3219V87.4385L122.47 87.6788V86.5611ZM82.7703 75.8707L82.7695 84.393L90.5452 85.6502V90.1252L86.5589 89.3331L86.6251 121.29L82.7695 120.493V128L150.539 109.995V59L82.7703 75.8707Z" fill="#3F4096"/>
<path d="M112.016 80.4837C112.016 79.9404 111.809 79.7175 111.394 79.8156C110.98 79.9137 110.773 80.2346 110.773 80.7783V82.7523L112.016 82.4557V80.4837Z" fill="#3F4096"/>
<path d="M137.215 77.6785V79.4815C137.215 80.0627 137.404 80.3083 137.782 80.2166C138.199 80.1157 138.408 79.7944 138.408 79.2523V76.5361C138.107 76.6074 137.851 76.7274 137.637 76.8944C137.355 77.1173 137.215 77.378 137.215 77.6785Z" fill="#3F4096"/>
<path d="M133.755 74.5284C133.354 74.6229 133.154 74.9374 133.154 75.4724V77.4117L134.355 77.1259V75.1878C134.355 74.6532 134.154 74.434 133.755 74.5284Z" fill="#3F4096"/>
<path d="M118.449 107.482V109.311C118.449 109.901 118.644 110.146 119.033 110.044C119.463 109.932 119.677 109.6 119.677 109.05V106.294C119.368 106.374 119.104 106.501 118.884 106.676C118.594 106.909 118.449 107.177 118.449 107.482Z" fill="#3F4096"/>
<path d="M95.9341 93.8689L95.437 93.9905V98.2693L95.9341 98.1457C96.4615 98.0154 96.725 97.726 96.725 97.2755V94.3508C96.725 93.9004 96.4615 93.7401 95.9341 93.8689Z" fill="#3F4096"/>
</svg>
