<svg width="186" height="186" viewBox="0 0 186 186" fill="none" xmlns="http://www.w3.org/2000/svg">
<path d="M45.7872 81.4381C44.2072 80.8294 42.4102 80.5189 40.3893 80.5189C36.4936 80.5189 33.4282 81.6613 31.1904 83.9422C28.948 86.2224 27.8296 89.3137 27.8296 93.2137C27.8296 96.7969 29.023 99.7985 31.4063 102.226C33.7895 104.654 36.7845 105.868 40.3893 105.868C42.4144 105.868 44.2072 105.544 45.7872 104.918V105.709H50.7129V97.6675H45.7872V99.4612C44.522 100.551 42.7352 101.099 40.409 101.099C38.1634 101.099 36.3048 100.358 34.8403 98.868C33.3729 97.3827 32.637 95.4961 32.637 93.2137C32.637 87.9291 35.2287 85.2874 40.409 85.2874C42.6965 85.2874 44.4878 85.8228 45.7872 86.8906V88.3111H50.7129V80.2717H45.7872V81.4381Z" fill="#231F20"/>
<path d="M88.7415 85.1999H90.4818V95.5364C90.4818 99.1406 88.4926 100.94 84.5205 100.94C80.5455 100.94 78.5591 99.1406 78.5591 95.5364V85.1999H80.148V80.2719H72.1094V85.1999H73.7507V95.5364C73.7507 98.7689 74.7173 101.271 76.6512 103.046C78.5848 104.82 81.2079 105.709 84.5205 105.709C87.8063 105.709 90.4188 104.82 92.3689 103.046C94.3148 101.271 95.2888 98.7689 95.2888 95.5364V85.1999H96.7805V80.2719H88.7415V85.1999Z" fill="#231F20"/>
<path d="M113.146 80.2719H105.105V85.1998H106.81V96.7682C106.81 98.0137 106.339 99.028 105.4 99.8088C104.465 100.59 103.365 100.981 102.097 100.981H101.839V97.7092H96.9106V105.749H101.839H102.119C104.685 105.749 106.913 104.895 108.795 103.185C110.674 101.477 111.615 99.3367 111.615 96.7682V85.1998H113.146V80.2719Z" fill="#231F20"/>
<path d="M67.7562 100.861H59.3725V85.2H60.9406V80.272H52.8984V85.2H54.5623V105.629H67.7562H70.3H72.6847V97.5879H67.7562V100.861Z" fill="#231F20"/>
<path d="M132.385 86.4678V82.3587H125.682V86.4678H127.031V100.158H125.682V103.501H127.031H131.039H132.385V100.158H131.039V86.4678H132.385Z" fill="#FBC129"/>
<path d="M150.636 82.3587H148.531H138.258H136.249H134.149V86.5383H138.258V85.781H141.439V100.158H140.089V103.501H141.439H145.449H146.797V100.158H145.449V85.781H148.531V86.5383H152.645V82.3587H150.636Z" fill="#FBC129"/>
<path d="M138.926 113.572L121.042 103.251V82.6091L138.923 72.2874L156.806 82.6084V103.25L138.926 113.572ZM116.85 115H161V70.8602H116.85V115Z" fill="#FBC129"/>
<path d="M25.8649 78.0439H26.098C26.3702 78.0439 26.5907 77.9534 26.5907 77.7334C26.5907 77.5387 26.4481 77.4098 26.1368 77.4098C26.0072 77.4098 25.9163 77.4222 25.8649 77.4355V78.0439ZM25.8522 79.2356H25.3593V77.1117C25.5536 77.0853 25.8262 77.0469 26.1762 77.0469C26.578 77.0469 26.7583 77.1117 26.9016 77.2152C27.0305 77.3056 27.121 77.4612 27.121 77.6686C27.121 77.9274 26.9273 78.0956 26.6812 78.1738V78.1995C26.8879 78.2643 26.9914 78.4325 27.0569 78.7174C27.121 79.0412 27.1731 79.1578 27.2118 79.2356H26.6939C26.6298 79.1578 26.5907 78.9768 26.5252 78.7174C26.4871 78.4973 26.3576 78.3935 26.0854 78.3935H25.8522V79.2356ZM24.543 78.1347C24.543 79.08 25.2561 79.8316 26.2016 79.8316C27.121 79.8443 27.8207 79.08 27.8207 78.1477C27.8207 77.2025 27.121 76.4378 26.1762 76.4378C25.2561 76.4378 24.543 77.2025 24.543 78.1347V78.1347ZM28.3651 78.1347C28.3651 79.3264 27.4069 80.272 26.1889 80.272C24.9715 80.272 24 79.3264 24 78.1347C24 76.943 24.9715 76.0108 26.2016 76.0108C27.4069 76.0108 28.3651 76.943 28.3651 78.1347Z" fill="#231F20"/>
</svg>
