<svg width="266" height="266" viewBox="0 0 266 266" fill="none" xmlns="http://www.w3.org/2000/svg">
<path d="M170.563 114.632C172.437 139.62 163.364 163.595 145.161 163.595C126.957 163.595 93.4067 161.817 93.4067 136.876C93.4067 111.933 116.336 89.2981 134.537 89.2981C152.74 89.2981 168.698 89.7586 170.563 114.632Z" fill="#382810"/>
<path d="M109.529 160.045C109.529 149.834 119.832 141.555 132.538 141.555C145.244 141.555 155.546 149.834 155.546 160.045" fill="#F8FAF2"/>
<path d="M137.49 142.876H127.75V129.666H137.49V142.876Z" fill="#F8FAF2"/>
<path d="M161.828 105.58C161.828 117.006 146.031 126.85 137.534 131.319C134.238 133.052 130.308 133.052 127.012 131.319C118.518 126.85 102.718 117.006 102.718 105.58C102.718 89.9488 115.95 74.3651 132.273 74.3651C148.596 74.3651 161.828 89.9488 161.828 105.58Z" fill="#F8FAF2"/>
<path d="M100.603 165.498C101.9 162.165 100.117 159.598 98.2317 156.559C96.3461 153.523 93.9521 150.68 93.0941 147.211C91.2398 139.718 97.0069 132.668 98.8783 125.18C101.607 114.254 95.869 102.701 97.8483 91.6173C99.5141 82.2784 104.901 72.7768 113.397 68.5573C121.894 64.3403 133.686 62.6745 142.85 65.1266C150.243 67.1059 153.488 69.3074 155.243 71.7737C159.501 77.7605 162.211 84.8393 163.038 92.1409C164.208 102.438 161.773 113.403 165.951 122.887C167.108 125.512 168.858 128.025 171.433 129.293C174.006 130.561 177.507 130.233 179.277 127.974C181.049 125.717 180.026 121.66 177.218 121.074C177.883 119.564 180.111 119.272 181.454 120.23C182.794 121.187 183.322 122.961 183.286 124.608C183.144 130.889 175.414 135.173 169.514 133.017C163.612 130.862 160.338 123.987 160.999 117.738C157.088 123.851 148.427 132.996 159.863 142.251C150.062 141.161 149.336 126.643 150.969 121.016C153.302 112.979 159.925 117.008 158.079 98.3485C154.628 97.6232 148.136 96.1572 143.417 96.1572C144.688 92.89 143.89 84.1693 136.63 77.2712C140.803 83.0798 141.449 92.1189 141.088 96.2949C139.458 96.2729 135.184 96.3164 133.551 96.2949C132.953 93.1337 133.327 86.05 132.092 83.0798C131.998 86.3801 133.086 91.4391 131.632 96.1572C122.195 95.7953 112.462 99.5567 107.379 102.46C107.379 102.46 106.969 104.651 111.218 109.721C113.699 112.682 114.779 117.396 115.261 122.211C115.647 126.055 113.257 135.087 110.13 137.351C116.845 127.188 107.816 118.506 103.777 112.485C109.404 129.184 96.561 133.184 98.2683 143.156C99.1962 148.56 101.108 148.453 103.408 153.431C104.64 156.103 105.099 162.246 102.955 165.498L100.603 165.498Z" fill="#63481C"/>
<path d="M95.9323 165.499C96.1975 164.495 96.3142 163.468 96.2063 162.427C95.9821 160.256 94.7954 158.271 94.5927 156.096C94.2699 152.643 98.0694 146.384 97.4238 142.977C96.7293 139.33 92.1944 136.413 94.1547 131.362C96.134 126.265 99.577 126.098 101.052 120.835C101.826 118.084 100.676 110.602 100.748 107.748C100.915 101.035 101.084 94.325 101.25 87.6124L102.275 86.5009C99.7044 89.9751 97.1176 93.4811 95.3311 97.4163C93.5462 101.349 92.6017 105.797 93.4861 110.026C94.0697 112.82 95.4347 115.484 95.4249 118.342C95.4156 120.975 94.2265 123.456 92.903 125.732C91.579 128.01 90.0724 130.226 89.3126 132.747C88.5531 135.27 88.6669 138.238 90.3591 140.256C91.4657 141.572 93.1613 142.403 93.9276 143.944C94.6176 145.326 94.3954 146.999 93.8602 148.45C93.3245 149.902 92.5006 151.231 91.9795 152.687C90.9232 155.63 91.2011 159.025 92.7218 161.757C93.2019 162.622 93.8021 163.428 94.1737 164.346C94.3251 164.72 94.435 165.105 94.5068 165.499L95.9323 165.499Z" fill="#63481C"/>
<path d="M111.524 165.499C111.96 164.289 112.712 162.354 112.214 160.166C111.424 156.702 107.767 154.215 107.668 150.664C107.543 146.153 113.279 142.637 112.182 138.26C111.82 136.808 110.75 135.66 109.945 134.402C108.826 132.647 108.189 130.587 108.126 128.506C108.03 125.221 109.327 121.985 109.026 118.711C108.766 115.851 107.312 113.254 105.894 110.756C104.171 107.721 102.842 105.15 101.74 103.449L101.66 103.856C99.6992 113.635 99.7798 123.895 103.989 132.938C105.409 135.989 107.364 139.001 107.287 142.365C107.213 145.631 105.195 148.672 105.397 151.935C105.646 155.925 109.144 159.169 109.332 163.165C109.369 163.959 109.274 164.734 109.095 165.499H111.524Z" fill="#63481C"/>
<path d="M156.715 165.498C156.759 164.809 156.865 164.124 157.035 163.455C158.038 159.518 161.162 156.092 160.963 152.033C160.779 148.332 157.907 145.427 155.872 142.331C154.563 140.339 153.561 138.151 152.902 135.86C152.297 133.758 152.017 131.388 153.078 129.476C154.416 127.06 157.406 126.154 159.432 124.275C162.6 121.334 162.715 115.597 159.426 112.794C158.954 112.393 157.965 112.258 157.951 112.878L158.231 112.673C154.783 116.911 151.311 121.285 149.483 126.436C147.656 131.584 147.738 137.729 151.039 142.08C152.003 143.351 153.204 144.427 154.125 145.729C155.332 147.433 156.022 149.499 156.08 151.589C156.177 154.984 154.667 158.183 153.64 161.419C153.226 162.723 152.901 164.116 152.785 165.498H156.715Z" fill="#63481C"/>
<path d="M166.148 165.502C167.584 162.443 168.719 159.266 168.215 155.979C167.627 152.139 164.803 148.616 165.439 144.786C165.869 142.22 167.817 140.029 167.911 137.43C168.015 134.583 165.905 132.201 163.976 130.103C162.047 128.005 160.044 125.469 160.425 122.646C160.798 119.868 163.439 117.625 163.246 114.831C163.096 112.637 161.254 110.988 160.28 109.015C158.081 104.564 160.516 99.2847 160.32 94.3248C160.191 90.9927 158.86 87.8418 157.548 84.7773C156.28 81.8159 155.014 78.8554 153.749 75.8921L153.693 70.7374C160.589 72.914 163.475 84.895 166.286 90.7539C167.846 94.0069 169.215 97.8161 167.776 101.127C167.154 102.556 166.021 103.839 165.965 105.398C165.871 107.981 168.661 109.68 169.614 112.082C171.251 116.212 167.07 120.674 167.86 125.044C168.437 128.213 171.506 130.527 171.93 133.717C172.47 137.751 168.647 141.082 168.012 145.101C167.398 148.997 169.854 152.695 170.31 156.617C170.684 159.814 170.069 163.073 167.962 165.498L166.148 165.502Z" fill="#63481C"/>
<path d="M164.818 165.498C164.456 163.181 162.252 161.444 161.833 159.138C161.397 156.746 162.961 154.509 164.297 152.477C165.633 150.444 166.831 147.829 165.693 145.68C164.668 143.749 161.915 142.553 162.173 140.38C162.279 139.479 162.918 138.749 163.413 137.989C165.211 135.229 165.929 127.427 164.946 124.283C163.959 121.138 161.382 122.542 159.528 119.817L159.272 119.446C158.006 122.262 154.115 124.167 155.687 126.824C156.536 128.256 159.466 130.983 159.682 132.632C160.092 135.788 158.973 138.437 159.101 141.618C159.2 144.108 161.531 146.092 161.63 148.585C161.732 151.115 159.513 153.233 159.366 155.76C159.166 159.209 162.808 162.05 163.023 165.498H164.818Z" fill="#63481C"/>
<path d="M155.084 74.6211C156.986 76.0388 158.889 77.4565 160.791 78.8718C164.058 81.3043 167.541 84.0636 168.482 88.0247C169.268 91.3353 168.096 94.9199 169.119 98.1656C169.719 100.07 171.036 101.693 171.59 103.612C172.759 107.67 170.317 111.985 170.932 116.162C171.339 118.937 173.085 121.534 172.736 124.318C172.576 125.575 171.995 126.751 171.886 128.013C171.561 131.747 175.382 134.999 174.794 138.702C174.286 141.912 170.582 144.233 170.949 147.462C170.324 142.939 173.863 138.269 172.19 134.021C171.267 131.675 168.836 129.833 168.95 127.314C169.029 125.488 170.495 123.822 170.156 122.026C169.808 120.189 167.759 119.176 166.999 117.466C165.82 114.811 168.125 111.933 168.309 109.035C168.542 105.389 165.485 102.513 163.382 99.5203C161.058 96.2101 159.766 92.3042 158.508 88.4588C157.433 85.1795 156.357 81.9026 155.284 78.6237C154.951 77.6059 154.616 76.5887 154.172 75.6144" fill="#63481C"/>
<path d="M114.231 113.01C114.231 110.438 116.317 108.352 118.889 108.352C121.462 108.352 123.547 110.438 123.547 113.01C123.547 115.583 121.462 117.671 118.889 117.671C116.317 117.671 114.231 115.583 114.231 113.01" fill="#F5C9B8"/>
<path d="M143.759 112.53C143.759 109.958 145.845 107.872 148.417 107.872C150.989 107.872 153.075 109.958 153.075 112.53C153.075 115.103 150.989 117.189 148.417 117.189C145.845 117.189 143.759 115.103 143.759 112.53" fill="#F5C9B8"/>
<path d="M118.308 105.138C117.291 105.138 116.275 104.918 115.357 104.458C115.152 104.357 115.07 104.111 115.171 103.909C115.273 103.704 115.518 103.622 115.723 103.723C118.057 104.89 121.216 104.251 122.913 102.267C123.06 102.096 123.32 102.074 123.491 102.223C123.665 102.371 123.685 102.63 123.537 102.802C122.243 104.314 120.273 105.138 118.308 105.138" fill="#939185"/>
<path d="M113.973 106.549C113.886 106.549 113.804 106.493 113.778 106.406C113.742 106.298 113.8 106.182 113.908 106.146C114.764 105.868 115.449 105.088 115.615 104.205C115.634 104.094 115.741 104.019 115.853 104.042C115.965 104.063 116.039 104.169 116.018 104.28C115.827 105.309 115.029 106.216 114.036 106.539C114.014 106.544 113.993 106.549 113.973 106.549" fill="#939185"/>
<path d="M115.326 106.841C115.246 106.841 115.171 106.794 115.138 106.72C115.092 106.617 115.135 106.493 115.241 106.448C115.933 106.132 116.421 105.408 116.447 104.646C116.451 104.533 116.546 104.441 116.661 104.449C116.775 104.451 116.862 104.548 116.859 104.661C116.823 105.575 116.242 106.443 115.41 106.821C115.381 106.833 115.352 106.841 115.326 106.841" fill="#939185"/>
<path d="M116.844 106.578C116.806 106.578 116.765 106.568 116.729 106.541C116.635 106.476 116.61 106.349 116.676 106.257C116.994 105.799 117.261 105.302 117.464 104.781C117.508 104.677 117.626 104.625 117.732 104.668C117.838 104.709 117.888 104.828 117.847 104.933C117.631 105.483 117.351 106.006 117.013 106.491C116.975 106.549 116.912 106.578 116.844 106.578" fill="#939185"/>
<path d="M118.144 106.098C118.099 106.098 118.053 106.081 118.012 106.05C117.925 105.98 117.913 105.849 117.986 105.76C118.173 105.531 118.277 105.23 118.267 104.933C118.263 104.82 118.352 104.726 118.465 104.721C118.564 104.709 118.672 104.806 118.677 104.919C118.692 105.315 118.554 105.717 118.301 106.023C118.263 106.072 118.203 106.098 118.144 106.098" fill="#939185"/>
<path d="M112.936 105.669C112.704 105.669 112.473 105.637 112.247 105.575C112.138 105.543 112.072 105.43 112.104 105.321C112.135 105.211 112.249 105.148 112.357 105.179C113.377 105.464 114.59 104.924 115.058 103.971C115.106 103.868 115.229 103.827 115.333 103.878C115.434 103.928 115.477 104.051 115.427 104.152C114.971 105.08 113.958 105.669 112.936 105.669" fill="#939185"/>
<path d="M147.834 105.003C145.869 105.003 143.898 104.179 142.604 102.664C142.457 102.493 142.476 102.233 142.65 102.086C142.821 101.939 143.081 101.958 143.231 102.132C144.926 104.113 148.084 104.753 150.418 103.588C150.623 103.484 150.869 103.569 150.97 103.771C151.071 103.974 150.989 104.22 150.787 104.323C149.866 104.781 148.851 105.003 147.834 105.003" fill="#939185"/>
<path d="M152.171 106.411C152.15 106.411 152.128 106.409 152.107 106.402C151.113 106.079 150.317 105.17 150.124 104.145C150.103 104.032 150.178 103.925 150.288 103.904C150.399 103.885 150.508 103.957 150.529 104.068C150.693 104.953 151.378 105.731 152.234 106.011C152.342 106.045 152.4 106.16 152.366 106.269C152.338 106.356 152.258 106.411 152.171 106.411" fill="#939185"/>
<path d="M150.816 106.703C150.789 106.703 150.761 106.698 150.732 106.683C149.9 106.305 149.319 105.437 149.282 104.523C149.28 104.41 149.367 104.316 149.482 104.311C149.594 104.304 149.69 104.395 149.695 104.509C149.724 105.271 150.209 105.994 150.903 106.31C151.007 106.358 151.053 106.479 151.004 106.582C150.97 106.657 150.895 106.703 150.816 106.703" fill="#939185"/>
<path d="M149.297 106.44C149.232 106.44 149.166 106.411 149.128 106.353C148.791 105.869 148.511 105.345 148.294 104.796C148.253 104.69 148.306 104.572 148.412 104.528C148.515 104.487 148.636 104.54 148.677 104.646C148.882 105.165 149.147 105.659 149.466 106.12C149.531 106.211 149.507 106.339 149.412 106.404C149.379 106.429 149.338 106.44 149.297 106.44" fill="#939185"/>
<path d="M147.998 105.96C147.94 105.96 147.883 105.936 147.841 105.886C147.588 105.58 147.453 105.179 147.465 104.781C147.47 104.668 147.574 104.579 147.68 104.584C147.793 104.589 147.883 104.685 147.877 104.798C147.865 105.095 147.969 105.396 148.158 105.625C148.229 105.712 148.218 105.842 148.131 105.915C148.092 105.946 148.044 105.96 147.998 105.96" fill="#939185"/>
<path d="M153.206 105.531C152.184 105.531 151.173 104.946 150.715 104.015C150.667 103.913 150.708 103.791 150.809 103.74C150.913 103.69 151.036 103.73 151.086 103.834C151.552 104.784 152.762 105.329 153.785 105.042C153.896 105.011 154.009 105.076 154.04 105.184C154.069 105.293 154.006 105.409 153.896 105.438C153.669 105.5 153.437 105.531 153.206 105.531" fill="#939185"/>
<path d="M130.383 110.469C130.438 110.281 132.115 108.466 133.609 108.388C135.608 108.282 137.286 110.329 137.498 110.484" fill="#E0E2D7"/>
<path d="M139.142 120.41C139.142 121.344 136.731 122.877 133.893 122.877C131.056 122.877 128.867 121.344 128.867 120.41C128.867 119.644 130.419 118.997 132.548 118.792C133.011 118.747 133.937 119.521 133.937 119.521C133.937 119.521 134.991 118.747 135.449 118.79C137.583 118.995 139.142 119.644 139.142 120.41" fill="#F5C9B8"/>
<path d="M133.66 121.283C130.966 121.283 128.068 120.805 125.344 119.692C125.134 119.605 125.035 119.364 125.12 119.154C125.204 118.944 125.445 118.843 125.655 118.93C131.96 121.513 139.183 120.572 142.26 118.219C142.44 118.084 142.698 118.115 142.836 118.296C142.973 118.476 142.939 118.735 142.759 118.872C140.852 120.331 137.462 121.283 133.66 121.283" fill="#939185"/>
<path d="M102.954 165.379L100.602 165.498Z" fill="#63481C"/>
<path d="M154.978 165.498H167.962C163.578 156.083 155.836 148.681 146.353 144.978C143.381 148.792 138.378 151.297 132.705 151.297C126.984 151.297 121.942 148.751 118.979 144.882C109.38 148.551 101.537 155.999 97.1152 165.498H109.918H154.978Z" fill="#FECF50"/>
<path fill-rule="evenodd" clip-rule="evenodd" d="M166.882 84.7458C166.744 84.8083 166.607 84.8689 166.468 84.9324C166.771 85.3768 162.931 87.1784 162.464 87.5969C162.067 87.9466 161.47 87.9807 160.986 88.1439C160.304 88.3778 159.634 88.6728 158.949 88.9116C158.727 88.9907 158.166 89.0674 157.923 89.0932C157.289 89.1567 157.219 88.5595 157.172 88.0833C157.046 86.8258 157.221 85.4793 157.439 84.2457C157.674 82.9257 157.845 81.4645 158.832 80.4683C160.111 79.1687 160.749 80.606 160.766 81.8684C160.774 82.5116 160.677 83.1645 160.535 83.7852C160.411 84.3434 159.826 85.2659 159.959 85.8368C161.52 84.7375 162.767 83.0883 164.551 82.2879C165.368 81.9158 166.047 82.1829 166.825 82.4681C167.854 82.8495 167.156 84.1222 166.882 84.7458C167.003 84.4694 166.808 84.7771 166.882 84.7458" fill="#EC1C24"/>
<path d="M80.3511 197.258V196.398L83.5669 194.909V195.688L81.1637 196.774V196.848L83.5669 197.961V198.74L80.3511 197.258Z" fill="#231F20"/>
<path d="M89.0977 198.453C89.0977 198.799 88.9726 199.075 88.7221 199.283C88.4721 199.49 88.1512 199.594 87.7595 199.594C87.4953 199.594 87.2214 199.545 86.9367 199.45C86.6524 199.354 86.4009 199.22 86.1821 199.047L86.5508 198.453C86.9743 198.772 87.384 198.931 87.7801 198.931C87.9529 198.931 88.0897 198.891 88.1898 198.811C88.2899 198.732 88.3397 198.631 88.3397 198.508C88.3397 198.326 88.0985 198.162 87.616 198.016C87.5798 198.003 87.552 197.994 87.5339 197.989C86.7784 197.784 86.4009 197.443 86.4009 196.965C86.4009 196.628 86.5318 196.358 86.7936 196.156C87.0548 195.953 87.3952 195.852 87.8142 195.852C88.2328 195.852 88.6288 195.975 89.0024 196.221L88.7153 196.787C88.4193 196.591 88.0985 196.493 87.7527 196.493C87.5705 196.493 87.4226 196.527 87.3088 196.592C87.195 196.659 87.1383 196.757 87.1383 196.89C87.1383 197.008 87.1969 197.095 87.3156 197.149C87.3977 197.19 87.5124 197.228 87.6604 197.265C87.8084 197.302 87.9393 197.338 88.053 197.375C88.1668 197.411 88.2772 197.452 88.3842 197.497C88.4911 197.543 88.6064 197.606 88.7289 197.689C88.9751 197.853 89.0977 198.107 89.0977 198.453" fill="#231F20"/>
<path d="M90.9065 196.521V198.364C90.9065 198.537 90.9519 198.675 91.0427 198.778C91.134 198.88 91.2615 198.931 91.4251 198.931C91.5892 198.931 91.7464 198.851 91.8964 198.692L92.2104 199.232C91.9418 199.473 91.6449 199.594 91.3196 199.594C90.9939 199.594 90.716 199.481 90.4865 199.256C90.2564 199.03 90.1417 198.726 90.1417 198.344V196.521H89.6841V195.906H90.1417V194.766H90.9065V195.906H91.8622V196.521H90.9065Z" fill="#231F20"/>
<path d="M94.7235 196.623C94.3455 196.623 94.0612 196.746 93.8698 196.992C93.6789 197.238 93.5831 197.568 93.5831 197.982V199.539H92.8184V195.906H93.5831V196.637C93.7062 196.41 93.8732 196.223 94.0852 196.077C94.2966 195.931 94.5208 195.857 94.7577 195.852L94.7645 196.623H94.7235Z" fill="#231F20"/>
<path d="M96.3107 198.579C96.5271 198.801 96.801 198.911 97.1336 198.911C97.4657 198.911 97.7402 198.801 97.9565 198.579C98.1724 198.359 98.2808 198.073 98.2808 197.723C98.2808 197.372 98.1724 197.086 97.9565 196.866C97.7402 196.645 97.4657 196.535 97.1336 196.535C96.801 196.535 96.5271 196.645 96.3107 196.866C96.0944 197.086 95.9865 197.372 95.9865 197.723C95.9865 198.073 96.0944 198.359 96.3107 198.579V198.579ZM98.4991 199.051C98.1348 199.412 97.6796 199.594 97.1336 199.594C96.5871 199.594 96.132 199.412 95.7682 199.051C95.4038 198.689 95.2217 198.246 95.2217 197.723C95.2217 197.199 95.4038 196.757 95.7682 196.394C96.132 196.032 96.5871 195.852 97.1336 195.852C97.6796 195.852 98.1348 196.032 98.4991 196.394C98.8634 196.757 99.0456 197.199 99.0456 197.723C99.0456 198.246 98.8634 198.689 98.4991 199.051" fill="#231F20"/>
<path d="M100.677 197.573V199.539H99.9126V195.906H100.677V196.568C100.8 196.346 100.97 196.17 101.186 196.043C101.402 195.916 101.636 195.852 101.886 195.852C102.295 195.852 102.627 195.977 102.879 196.227C103.132 196.478 103.258 196.84 103.258 197.313V199.539H102.494V197.545C102.494 196.876 102.216 196.542 101.66 196.542C101.397 196.542 101.167 196.629 100.971 196.804C100.776 196.98 100.677 197.236 100.677 197.573" fill="#231F20"/>
<path d="M104.849 197.582C104.849 197.88 104.942 198.138 105.126 198.354C105.31 198.57 105.558 198.678 105.87 198.678C106.182 198.678 106.434 198.574 106.628 198.365C106.821 198.155 106.918 197.894 106.918 197.582C106.918 197.271 106.82 197.007 106.624 196.791C106.429 196.574 106.176 196.466 105.867 196.466C105.557 196.466 105.31 196.577 105.126 196.801C104.942 197.024 104.849 197.285 104.849 197.582V197.582ZM107.683 195.906V199.074C107.683 199.716 107.509 200.198 107.161 200.518C106.812 200.839 106.365 201 105.819 201C105.273 201 104.778 200.829 104.337 200.488L104.699 199.908C105.054 200.176 105.412 200.31 105.775 200.31C106.136 200.31 106.423 200.217 106.635 200.031C106.846 199.844 106.952 199.546 106.952 199.136V198.671C106.838 198.886 106.676 199.056 106.464 199.184C106.252 199.311 106.014 199.375 105.751 199.375C105.268 199.375 104.872 199.206 104.563 198.87C104.253 198.533 104.098 198.114 104.098 197.613C104.098 197.113 104.253 196.694 104.563 196.357C104.872 196.02 105.267 195.852 105.747 195.852C106.227 195.852 106.618 196.049 106.918 196.446V195.906H107.683Z" fill="#231F20"/>
<path d="M109.321 197.456H111.404C111.404 197.151 111.308 196.917 111.117 196.753C110.926 196.589 110.69 196.507 110.41 196.507C110.131 196.507 109.879 196.592 109.656 196.763C109.433 196.934 109.321 197.165 109.321 197.456V197.456ZM112.169 198.057H109.321C109.339 198.321 109.46 198.534 109.683 198.696C109.906 198.857 110.161 198.938 110.448 198.938C110.903 198.938 111.249 198.794 111.486 198.508L111.923 198.986C111.531 199.391 111.021 199.594 110.393 199.594C109.884 199.594 109.45 199.424 109.092 199.085C108.735 198.746 108.557 198.29 108.557 197.719C108.557 197.148 108.739 196.694 109.103 196.357C109.467 196.02 109.896 195.852 110.39 195.852C110.884 195.852 111.304 196.001 111.65 196.299C111.996 196.597 112.169 197.008 112.169 197.531V198.057Z" fill="#231F20"/>
<path d="M114.914 196.623C114.536 196.623 114.252 196.746 114.06 196.992C113.869 197.238 113.774 197.568 113.774 197.982V199.539H113.009V195.906H113.774V196.637C113.897 196.41 114.064 196.223 114.276 196.077C114.487 195.931 114.711 195.857 114.948 195.852L114.955 196.623H114.914Z" fill="#231F20"/>
<path d="M118.532 196.521V198.364C118.532 198.537 118.578 198.675 118.669 198.778C118.76 198.88 118.887 198.931 119.051 198.931C119.215 198.931 119.372 198.851 119.522 198.692L119.836 199.232C119.568 199.473 119.271 199.594 118.946 199.594C118.62 199.594 118.342 199.481 118.112 199.256C117.882 199.03 117.768 198.726 117.768 198.344V196.521H117.31V195.906H117.768V194.766H118.532V195.906H119.488V196.521H118.532Z" fill="#231F20"/>
<path d="M121.209 197.573V199.539H120.444V194.479H121.209V196.568C121.319 196.346 121.484 196.17 121.704 196.043C121.925 195.916 122.163 195.852 122.418 195.852C122.827 195.852 123.159 195.977 123.411 196.227C123.664 196.478 123.79 196.84 123.79 197.313V199.539H123.025V197.545C123.025 196.876 122.747 196.542 122.192 196.542C121.928 196.542 121.698 196.629 121.503 196.804C121.307 196.98 121.209 197.236 121.209 197.573" fill="#231F20"/>
<path d="M126.76 196.623C126.382 196.623 126.097 196.746 125.906 196.992C125.715 197.238 125.619 197.568 125.619 197.982V199.539H124.854V195.906H125.619V196.637C125.742 196.41 125.909 196.223 126.121 196.077C126.333 195.931 126.557 195.857 126.794 195.852L126.801 196.623H126.76Z" fill="#231F20"/>
<path d="M128.347 198.579C128.563 198.801 128.837 198.911 129.17 198.911C129.502 198.911 129.776 198.801 129.993 198.579C130.209 198.359 130.317 198.073 130.317 197.723C130.317 197.372 130.209 197.086 129.993 196.866C129.776 196.645 129.502 196.535 129.17 196.535C128.837 196.535 128.563 196.645 128.347 196.866C128.131 197.086 128.023 197.372 128.023 197.723C128.023 198.073 128.131 198.359 128.347 198.579V198.579ZM130.535 199.051C130.171 199.412 129.716 199.594 129.17 199.594C128.623 199.594 128.168 199.412 127.804 199.051C127.44 198.689 127.258 198.246 127.258 197.723C127.258 197.199 127.44 196.757 127.804 196.394C128.168 196.032 128.623 195.852 129.17 195.852C129.716 195.852 130.171 196.032 130.535 196.394C130.9 196.757 131.082 197.199 131.082 197.723C131.082 198.246 130.9 198.689 130.535 199.051" fill="#231F20"/>
<path d="M134.489 197.873V195.906H135.253V199.539H134.489V198.877C134.366 199.1 134.196 199.275 133.98 199.403C133.764 199.53 133.531 199.594 133.28 199.594C132.871 199.594 132.539 199.468 132.287 199.218C132.034 198.967 131.908 198.606 131.908 198.132V195.906H132.672V197.9C132.672 198.569 132.95 198.904 133.506 198.904C133.769 198.904 133.999 198.817 134.195 198.641C134.391 198.466 134.489 198.209 134.489 197.873" fill="#231F20"/>
<path d="M136.885 197.582C136.885 197.88 136.977 198.138 137.161 198.354C137.346 198.57 137.594 198.678 137.906 198.678C138.218 198.678 138.47 198.574 138.664 198.365C138.857 198.155 138.954 197.894 138.954 197.582C138.954 197.271 138.856 197.007 138.66 196.791C138.464 196.574 138.212 196.466 137.902 196.466C137.593 196.466 137.346 196.577 137.161 196.801C136.977 197.024 136.885 197.285 136.885 197.582V197.582ZM139.718 195.906V199.074C139.718 199.716 139.545 200.198 139.196 200.518C138.848 200.839 138.401 201 137.854 201C137.308 201 136.814 200.829 136.373 200.488L136.734 199.908C137.09 200.176 137.448 200.31 137.81 200.31C138.172 200.31 138.459 200.217 138.67 200.031C138.882 199.844 138.988 199.546 138.988 199.136V198.671C138.874 198.886 138.711 199.056 138.5 199.184C138.288 199.311 138.05 199.375 137.786 199.375C137.303 199.375 136.907 199.206 136.598 198.87C136.289 198.533 136.134 198.114 136.134 197.613C136.134 197.113 136.289 196.694 136.598 196.357C136.907 196.02 137.302 195.852 137.783 195.852C138.263 195.852 138.653 196.049 138.954 196.446V195.906H139.718Z" fill="#231F20"/>
<path d="M141.59 197.573V199.539H140.825V194.479H141.59V196.568C141.699 196.346 141.864 196.17 142.085 196.043C142.306 195.916 142.544 195.852 142.799 195.852C143.208 195.852 143.54 195.977 143.792 196.227C144.044 196.478 144.171 196.84 144.171 197.313V199.539H143.406V197.545C143.406 196.876 143.128 196.542 142.573 196.542C142.309 196.542 142.079 196.629 141.883 196.804C141.688 196.98 141.59 197.236 141.59 197.573" fill="#231F20"/>
<path d="M147.639 197.74C147.639 198.088 147.75 198.371 147.973 198.59C148.197 198.808 148.458 198.917 148.759 198.917C149.059 198.917 149.314 198.807 149.523 198.586C149.732 198.365 149.837 198.082 149.837 197.736C149.837 197.39 149.732 197.101 149.523 196.869C149.314 196.637 149.057 196.521 148.752 196.521C148.447 196.521 148.185 196.637 147.966 196.869C147.748 197.101 147.639 197.391 147.639 197.74V197.74ZM147.386 199.074C147.045 198.728 146.874 198.274 146.874 197.709C146.874 197.144 147.049 196.694 147.4 196.357C147.75 196.02 148.168 195.852 148.653 195.852C149.138 195.852 149.528 196.056 149.824 196.466V194.473H150.589V199.539H149.824V198.992C149.541 199.393 149.129 199.594 148.588 199.594C148.128 199.594 147.728 199.42 147.386 199.074" fill="#231F20"/>
<path d="M152.459 199.539H151.694V195.906H152.459V199.539ZM151.742 195.183C151.647 195.087 151.599 194.973 151.599 194.841C151.599 194.709 151.647 194.595 151.742 194.5C151.838 194.404 151.952 194.356 152.084 194.356C152.216 194.356 152.33 194.404 152.425 194.5C152.521 194.595 152.569 194.709 152.569 194.841C152.569 194.973 152.521 195.087 152.425 195.183C152.33 195.278 152.216 195.326 152.084 195.326C151.952 195.326 151.838 195.278 151.742 195.183Z" fill="#231F20"/>
<path d="M154.529 199.539L153.067 195.906H153.86L154.966 198.651L156.072 195.906H156.863L155.403 199.539H154.529Z" fill="#231F20"/>
<path d="M158.004 197.456H160.086C160.086 197.151 159.99 196.917 159.799 196.753C159.608 196.589 159.372 196.507 159.093 196.507C158.813 196.507 158.561 196.592 158.338 196.763C158.115 196.934 158.004 197.165 158.004 197.456V197.456ZM160.851 198.057H158.004C158.022 198.321 158.142 198.534 158.365 198.696C158.588 198.857 158.844 198.938 159.13 198.938C159.585 198.938 159.931 198.794 160.168 198.508L160.605 198.986C160.213 199.391 159.704 199.594 159.076 199.594C158.566 199.594 158.132 199.424 157.775 199.085C157.418 198.746 157.239 198.29 157.239 197.719C157.239 197.148 157.421 196.694 157.785 196.357C158.149 196.02 158.578 195.852 159.072 195.852C159.566 195.852 159.986 196.001 160.332 196.299C160.678 196.597 160.851 197.008 160.851 197.531V198.057Z" fill="#231F20"/>
<path d="M163.596 196.623C163.218 196.623 162.934 196.746 162.742 196.992C162.551 197.238 162.456 197.568 162.456 197.982V199.539H161.691V195.906H162.456V196.637C162.579 196.41 162.746 196.223 162.958 196.077C163.169 195.931 163.393 195.857 163.63 195.852L163.637 196.623H163.596Z" fill="#231F20"/>
<path d="M166.989 198.453C166.989 198.799 166.864 199.075 166.614 199.283C166.364 199.49 166.043 199.594 165.651 199.594C165.387 199.594 165.113 199.545 164.828 199.45C164.544 199.354 164.293 199.22 164.074 199.047L164.442 198.453C164.866 198.772 165.276 198.931 165.672 198.931C165.845 198.931 165.981 198.891 166.081 198.811C166.182 198.732 166.231 198.631 166.231 198.508C166.231 198.326 165.99 198.162 165.508 198.016C165.471 198.003 165.444 197.994 165.426 197.989C164.67 197.784 164.293 197.443 164.293 196.965C164.293 196.628 164.423 196.358 164.685 196.156C164.946 195.953 165.287 195.852 165.706 195.852C166.124 195.852 166.52 195.975 166.894 196.221L166.607 196.787C166.311 196.591 165.99 196.493 165.644 196.493C165.462 196.493 165.314 196.527 165.2 196.592C165.087 196.659 165.03 196.757 165.03 196.89C165.03 197.008 165.089 197.095 165.207 197.149C165.289 197.19 165.404 197.228 165.552 197.265C165.7 197.302 165.831 197.338 165.945 197.375C166.058 197.411 166.169 197.452 166.276 197.497C166.383 197.543 166.498 197.606 166.621 197.689C166.867 197.853 166.989 198.107 166.989 198.453" fill="#231F20"/>
<path d="M168.621 199.539H167.856V195.906H168.621V199.539ZM167.904 195.183C167.809 195.087 167.761 194.973 167.761 194.841C167.761 194.709 167.809 194.595 167.904 194.5C168 194.404 168.113 194.356 168.245 194.356C168.378 194.356 168.491 194.404 168.587 194.5C168.682 194.595 168.73 194.709 168.73 194.841C168.73 194.973 168.682 195.087 168.587 195.183C168.491 195.278 168.378 195.326 168.245 195.326C168.113 195.326 168 195.278 167.904 195.183Z" fill="#231F20"/>
<path d="M170.67 196.521V198.364C170.67 198.537 170.715 198.675 170.806 198.778C170.897 198.88 171.025 198.931 171.188 198.931C171.352 198.931 171.51 198.851 171.66 198.692L171.974 199.232C171.705 199.473 171.408 199.594 171.083 199.594C170.757 199.594 170.479 199.481 170.25 199.256C170.02 199.03 169.905 198.726 169.905 198.344V196.521H169.447V195.906H169.905V194.766H170.67V195.906H171.625V196.521H170.67Z" fill="#231F20"/>
<path d="M173.039 200.986C172.706 200.986 172.406 200.866 172.137 200.624L172.485 200.003C172.645 200.154 172.81 200.228 172.981 200.228C173.151 200.228 173.29 200.167 173.397 200.044C173.504 199.921 173.557 199.787 173.557 199.641C173.557 199.577 173.069 198.333 172.09 195.906H172.909L173.994 198.583L175.08 195.906H175.9L174.138 200.222C174.033 200.458 173.883 200.645 173.687 200.782C173.491 200.918 173.275 200.986 173.039 200.986" fill="#231F20"/>
<path d="M180.965 194.001H181.648L178.692 200.338H178.009L180.965 194.001Z" fill="#231F20"/>
<path d="M185.561 196.398V197.258L182.345 198.74V197.962L184.748 196.849V196.774L182.345 195.688V194.909L185.561 196.398Z" fill="#231F20"/>
<path d="M85.821 180.487L86.4232 180.052C87.1811 179.606 87.7159 179.383 88.0289 179.383C88.7195 179.383 89.4666 180.008 90.2695 181.256C90.7598 182.037 91.0055 182.661 91.0055 183.129C91.0055 183.598 90.8551 183.988 90.5537 184.3C90.2529 184.612 89.9018 184.891 89.5003 185.136C89.0989 185.382 88.7141 185.616 88.3463 185.839C87.9781 186.062 87.2255 186.352 86.0886 186.708C84.9512 187.065 83.8529 187.243 82.7937 187.243C81.7344 187.243 80.6639 187.104 79.5827 186.825C78.5009 186.547 77.3865 186.079 76.2379 185.421C75.0892 184.763 74.0583 183.96 73.1441 183.012C72.2294 182.064 71.4768 180.85 70.8859 179.366C70.295 177.883 70 176.272 70 174.533C70 172.794 70.2891 171.217 70.8693 169.8C71.449 168.384 72.1908 167.213 73.0938 166.288C73.9968 165.363 75.0277 164.588 76.1876 163.963C78.373 162.759 80.5696 162.157 82.777 162.157C83.8251 162.157 84.8897 162.319 85.9714 162.642C87.0527 162.965 87.8721 163.294 88.4299 163.628L89.2327 164.097C89.6342 164.342 89.9462 164.544 90.1694 164.699C90.7491 165.167 91.0392 165.697 91.0392 166.288C91.0392 166.879 90.8048 167.497 90.3364 168.144C89.4666 169.348 88.6862 169.95 87.9952 169.95C87.5938 169.95 87.0253 169.705 86.2894 169.214C85.3527 168.456 84.1034 168.077 82.5431 168.077C81.0932 168.077 79.6662 168.579 78.2616 169.583C77.5926 170.073 77.0349 170.765 76.589 171.656C76.1426 172.548 75.9204 173.558 75.9204 174.683C75.9204 175.81 76.1426 176.819 76.589 177.71C77.0349 178.603 77.6033 179.305 78.2949 179.818C79.6549 180.799 81.0712 181.29 82.5431 181.29C83.2342 181.29 83.8861 181.201 84.4995 181.022C85.1129 180.843 85.5534 180.666 85.821 180.487" fill="#231F20"/>
<path d="M99.7019 180.504C100.415 181.05 101.14 181.323 101.876 181.323C102.612 181.323 103.348 181.044 104.084 180.487C104.819 179.93 105.188 179.104 105.188 178.012C105.188 176.92 104.841 176.105 104.15 175.57C103.459 175.035 102.713 174.767 101.91 174.767C101.107 174.767 100.36 175.046 99.6686 175.603C98.9771 176.161 98.6319 176.981 98.6319 178.062C98.6319 179.144 98.9879 179.958 99.7019 180.504V180.504ZM95.521 171.489C97.3939 169.75 99.5348 168.88 101.943 168.88C104.352 168.88 106.48 169.745 108.332 171.472C110.182 173.201 111.108 175.403 111.108 178.078C111.108 179.93 110.628 181.574 109.67 183.012C108.711 184.451 107.546 185.51 106.174 186.19C104.803 186.87 103.381 187.21 101.91 187.21C100.438 187.21 99.0103 186.848 97.6283 186.123C96.2452 185.398 95.0805 184.328 94.1326 182.912C93.1846 181.496 92.7114 179.897 92.7114 178.112C92.7114 175.436 93.6476 173.229 95.521 171.489" fill="#231F20"/>
<path d="M119.671 180.119C120.251 180.721 120.953 181.022 121.778 181.022C122.603 181.022 123.289 180.721 123.835 180.119C124.382 179.517 124.655 178.853 124.655 178.129C124.655 177.404 124.393 176.73 123.869 176.105C123.345 175.481 122.636 175.168 121.745 175.168C120.852 175.168 120.139 175.475 119.604 176.088C119.069 176.702 118.801 177.376 118.801 178.112C118.801 178.848 119.091 179.517 119.671 180.119V180.119ZM125.107 161.939C125.274 161.617 125.569 161.388 125.993 161.254C126.416 161.12 126.979 161.053 127.682 161.053C128.384 161.053 128.948 161.12 129.371 161.254C129.794 161.388 130.09 161.622 130.257 161.957C130.425 162.291 130.525 162.587 130.559 162.843C130.592 163.099 130.608 163.484 130.608 163.996V183.966C130.608 184.479 130.592 184.864 130.559 185.12C130.525 185.376 130.419 185.661 130.241 185.972C129.906 186.575 128.964 186.876 127.414 186.876C125.864 186.876 125.001 186.33 124.822 185.237C123.886 186.307 122.581 186.843 120.909 186.843C118.901 186.843 117.073 185.967 115.423 184.217C113.773 182.466 112.948 180.426 112.948 178.095C112.948 175.765 113.778 173.72 115.439 171.957C117.101 170.196 118.923 169.315 120.909 169.315C122.559 169.315 123.841 169.873 124.755 170.988V163.963C124.755 163.45 124.772 163.066 124.805 162.809C124.839 162.553 124.939 162.263 125.107 161.939" fill="#231F20"/>
<path d="M143.218 176.975C144.065 176.975 144.489 176.618 144.489 175.904C144.489 175.392 144.294 174.979 143.904 174.666C143.514 174.355 142.956 174.199 142.231 174.199C141.506 174.199 140.787 174.495 140.074 175.085C139.36 175.676 139.003 176.306 139.003 176.975H143.218ZM150.276 175.988C150.276 177.359 149.935 178.375 149.256 179.032C148.575 179.69 147.822 180.018 146.998 180.018H139.07C139.07 180.644 139.439 181.168 140.175 181.59C140.91 182.014 141.646 182.226 142.382 182.226C143.675 182.226 144.69 182.093 145.426 181.825L145.794 181.691C146.329 181.446 146.775 181.323 147.132 181.323C147.845 181.323 148.458 181.825 148.971 182.828C149.261 183.431 149.406 183.944 149.406 184.367C149.406 186.352 147.031 187.344 142.282 187.344C140.631 187.344 139.165 187.06 137.883 186.491C136.601 185.922 135.603 185.17 134.89 184.233C133.484 182.427 132.782 180.409 132.782 178.179C132.782 175.369 133.691 173.123 135.508 171.439C137.325 169.756 139.594 168.914 142.315 168.914C145.414 168.914 147.689 170.006 149.138 172.191C149.896 173.351 150.276 174.617 150.276 175.988" fill="#231F20"/>
<path d="M174.225 175.202L172.051 175.068V179.684C172.051 180.286 172.146 180.721 172.335 180.989C172.525 181.256 172.882 181.39 173.406 181.39C173.93 181.39 174.33 181.407 174.61 181.44C174.888 181.474 175.172 181.58 175.463 181.758C175.998 182.048 176.265 182.795 176.265 183.999C176.265 185.404 175.953 186.262 175.329 186.575C174.994 186.73 174.699 186.826 174.442 186.859C174.186 186.892 173.812 186.909 173.322 186.909C171.092 186.909 169.353 186.329 168.104 185.17C166.855 184.01 166.23 182.293 166.23 180.018V175.068C165.16 175.157 164.268 175.202 163.555 175.202L160.511 175.068V179.684C160.511 180.286 160.606 180.721 160.795 180.989C160.984 181.256 161.341 181.39 161.865 181.39C162.39 181.39 162.79 181.407 163.07 181.44C163.349 181.474 163.644 181.58 163.956 181.758C164.469 182.048 164.725 182.795 164.725 183.999C164.725 185.404 164.413 186.262 163.789 186.575C163.455 186.73 163.159 186.826 162.902 186.859C162.646 186.892 162.272 186.909 161.782 186.909C159.552 186.909 157.813 186.329 156.564 185.17C155.315 184.01 154.691 182.293 154.691 180.018V175.068C154.245 175.135 153.782 175.168 153.303 175.168C152.823 175.168 152.422 174.979 152.099 174.6C151.775 174.221 151.614 173.574 151.614 172.66C151.614 171.746 151.669 171.082 151.781 170.67C151.892 170.257 152.048 169.962 152.249 169.783C152.606 169.494 153.052 169.349 153.587 169.349L154.691 169.482V166.037C154.691 165.524 154.708 165.145 154.741 164.9C154.774 164.654 154.88 164.387 155.059 164.097C155.348 163.54 156.207 163.261 157.634 163.261C159.151 163.261 160.054 163.674 160.344 164.498C160.455 164.855 160.511 165.424 160.511 166.204V169.382C161.559 169.36 162.552 169.349 163.488 169.349L166.23 169.382V166.037C166.23 165.524 166.248 165.145 166.281 164.9C166.314 164.654 166.409 164.387 166.565 164.097C166.878 163.54 167.747 163.261 169.174 163.261C170.69 163.261 171.582 163.674 171.85 164.498C171.984 164.855 172.051 165.424 172.051 166.204V169.482C173.032 169.393 173.774 169.349 174.275 169.349C174.777 169.349 175.156 169.365 175.413 169.398C175.669 169.432 175.953 169.538 176.265 169.716C176.868 170.006 177.168 170.865 177.168 172.292C177.168 173.697 176.868 174.556 176.265 174.867C175.931 175.024 175.635 175.118 175.379 175.151C175.122 175.186 174.738 175.202 174.225 175.202" fill="#231F20"/>
<path d="M188.942 176.975C189.789 176.975 190.213 176.618 190.213 175.904C190.213 175.392 190.018 174.979 189.628 174.666C189.238 174.355 188.68 174.199 187.955 174.199C187.23 174.199 186.512 174.495 185.798 175.085C185.084 175.676 184.728 176.306 184.728 176.975H188.942ZM196 175.988C196 177.359 195.66 178.375 194.98 179.032C194.3 179.69 193.546 180.018 192.722 180.018H184.795C184.795 180.644 185.163 181.168 185.899 181.59C186.634 182.014 187.37 182.226 188.106 182.226C189.399 182.226 190.414 182.093 191.15 181.825L191.518 181.691C192.053 181.446 192.499 181.323 192.856 181.323C193.569 181.323 194.182 181.825 194.696 182.828C194.985 183.431 195.13 183.944 195.13 184.367C195.13 186.352 192.755 187.344 188.006 187.344C186.355 187.344 184.889 187.06 183.607 186.491C182.325 185.922 181.327 185.17 180.614 184.233C179.209 182.427 178.506 180.409 178.506 178.179C178.506 175.369 179.415 173.123 181.232 171.439C183.05 169.756 185.319 168.914 188.039 168.914C191.138 168.914 193.413 170.006 194.863 172.191C195.621 173.351 196 174.617 196 175.988" fill="#231F20"/>
</svg>
