<svg width="186" height="186" viewBox="0 0 186 186" fill="none" xmlns="http://www.w3.org/2000/svg">
<path fill-rule="evenodd" clip-rule="evenodd" d="M30.7177 99.8575C29.5802 99.8575 28.5794 99.6162 27.7147 99.1332C26.8505 98.6505 26.1821 97.9668 25.7094 97.0817C25.2366 96.1965 25 95.1759 25 94.0201V89.9826C25 88.8269 25.2402 87.8062 25.7203 86.9211C26.2004 86.036 26.8801 85.3522 27.759 84.8696C28.6383 84.3865 29.6542 84.1452 30.8063 84.1452H33.1556C34.2637 84.1452 35.2389 84.3792 36.0809 84.8476C36.9232 85.3156 37.5768 85.9704 38.0423 86.8116C38.5078 87.6528 38.7407 88.6291 38.7407 89.7409H35.7264C35.7264 88.8635 35.4902 88.1574 35.0174 87.6235C34.5446 87.0895 33.9239 86.8226 33.1556 86.8226H30.8063C29.979 86.8226 29.3143 87.1262 28.8119 87.733C28.3095 88.3402 28.0582 89.1341 28.0582 90.1141V93.8886C28.0582 94.8686 28.3021 95.6626 28.7896 96.2698C29.2774 96.8766 29.9201 97.1802 30.7177 97.1802H33.1112C33.8946 97.1802 34.5332 96.8802 35.0284 96.2804C35.5235 95.6809 35.7707 94.8906 35.7707 93.9106H38.785C38.785 95.0957 38.5484 96.1379 38.0756 97.0377C37.6028 97.9375 36.9382 98.6322 36.0809 99.1222C35.2243 99.6125 34.234 99.8575 33.1112 99.8575H30.7177ZM46.1649 99.8575C44.9974 99.8575 43.9669 99.6125 43.0733 99.1222C42.1794 98.6322 41.4851 97.9448 40.9899 97.0597C40.4948 96.1745 40.2476 95.1466 40.2476 93.9765V90.0262C40.2476 88.8562 40.4948 87.8282 40.9899 86.9431C41.4851 86.0579 42.1794 85.3705 43.0733 84.8805C43.9669 84.3902 44.9974 84.1452 46.1649 84.1452H48.5138C49.6813 84.1452 50.7118 84.3902 51.6057 84.8805C52.4993 85.3705 53.194 86.0579 53.6887 86.9431C54.1838 87.8282 54.431 88.8562 54.431 90.0262V93.9765C54.431 95.1466 54.1838 96.1745 53.6887 97.0597C53.194 97.9448 52.4993 98.6322 51.6057 99.1222C50.7118 99.6125 49.6813 99.8575 48.5138 99.8575H46.1649ZM48.5138 97.1802C49.3707 97.1802 50.0618 96.8729 50.5862 96.2588C51.1106 95.6443 51.3728 94.8397 51.3728 93.8447V90.158C51.3728 89.163 51.1106 88.3585 50.5862 87.744C50.0618 87.1298 49.3707 86.8226 48.5138 86.8226H46.1649C45.3079 86.8226 44.6173 87.1298 44.0925 87.744C43.5681 88.3585 43.3059 89.163 43.3059 90.158V93.8447C43.3059 94.8397 43.5681 95.6443 44.0925 96.2588C44.6173 96.8729 45.3079 97.1802 46.1649 97.1802H48.5138ZM58.8856 99.6818C58.2506 99.6818 57.7332 99.4917 57.3344 99.1116C56.9356 98.7311 56.736 98.2338 56.736 97.6192V84.321H64.1382C65.32 84.321 66.3582 84.5403 67.2518 84.9791C68.1457 85.4181 68.84 86.0396 69.3352 86.8445C69.8303 87.6491 70.0775 88.5782 70.0775 89.6314V93.9326C70.0775 95.8197 69.5827 97.2497 68.5928 98.2228C67.603 99.1954 66.1476 99.6818 64.2269 99.6818H58.8856ZM64.1382 97.0047C65.0838 97.0047 65.8005 96.7341 66.2879 96.1929C66.7753 95.6516 67.0192 94.8543 67.0192 93.8008V89.7629C67.0192 88.929 66.746 88.26 66.1993 87.755C65.6525 87.2503 64.9358 86.998 64.0496 86.998H59.7946V97.0047H64.1382ZM74.4434 99.6818C73.8081 99.6818 73.291 99.4917 72.8922 99.1116C72.4934 98.7311 72.2938 98.2338 72.2938 97.6192V84.321H84.1283V86.954H75.352V90.5092H83.4633V93.1423H75.352V97.0487H84.1283V99.6818H74.4434ZM91.4862 99.8575C90.3484 99.8575 89.3476 99.6162 88.4833 99.1332C87.6187 98.6505 86.9503 97.9668 86.4776 97.0817C86.0048 96.1965 85.7682 95.1759 85.7682 94.0201V89.9826C85.7682 88.8269 86.0084 87.8062 86.4886 86.9211C86.9687 86.036 87.6483 85.3522 88.5276 84.8696C89.4065 84.3865 90.4224 84.1452 91.5749 84.1452H93.9238C95.0319 84.1452 96.0071 84.3792 96.8494 84.8476C97.6914 85.3156 98.3454 85.9704 98.8105 86.8116C99.276 87.6528 99.5089 88.6291 99.5089 89.7409H96.4946C96.4946 88.8635 96.2584 88.1574 95.7856 87.6235C95.3128 87.0895 94.6921 86.8226 93.9238 86.8226H91.5749C90.7472 86.8226 90.0826 87.1262 89.5801 87.733C89.0777 88.3402 88.8268 89.1341 88.8268 90.1141V93.8886C88.8268 94.8686 89.0703 95.6626 89.5581 96.2698C90.0456 96.8766 90.6883 97.1802 91.4862 97.1802H93.8794C94.6628 97.1802 95.3018 96.8802 95.7966 96.2804C96.2917 95.6809 96.5389 94.8906 96.5389 93.9106H99.5532C99.5532 95.0957 99.3166 96.1379 98.8438 97.0377C98.371 97.9375 97.7064 98.6322 96.8494 99.1222C95.9925 99.6125 95.0026 99.8575 93.8794 99.8575H91.4862ZM110.545 96.105H104.739L103.365 99.6818H100.174L106.246 84.321H107.62C108.58 84.321 109.23 84.7597 109.57 85.6375L115.089 99.6818H111.897L110.545 96.105ZM105.559 93.5594H109.725L107.664 88.0292H107.642L105.559 93.5594ZM116.551 84.321H119.277L124.352 93.4495L129.317 84.321H132.042V99.6818H129.051V89.9607L125.793 95.7977C125.571 96.1929 125.346 96.4745 125.117 96.6426C124.888 96.811 124.626 96.8949 124.33 96.8949H123.488L119.543 89.9607V99.6818H116.551V84.321ZM134.791 84.321H142.968C143.87 84.321 144.668 84.4927 145.362 84.8366C146.056 85.1801 146.596 85.6705 146.98 86.3066C147.364 86.9431 147.556 87.6711 147.556 88.4903V90.5312C147.556 91.3797 147.357 92.1294 146.958 92.7805C146.559 93.4312 146.001 93.9362 145.284 94.2944C144.568 94.6529 143.737 94.8324 142.791 94.8324H137.849V99.6818H134.791V84.321ZM142.747 92.1989C143.264 92.1989 143.685 92.0341 144.01 91.7053C144.335 91.3761 144.498 90.9406 144.498 90.3994V88.6218C144.498 88.1098 144.354 87.704 144.066 87.4041C143.777 87.1042 143.397 86.954 142.924 86.954H137.849V92.1989H142.747" fill="#151313"/>
<path fill-rule="evenodd" clip-rule="evenodd" d="M147.556 99.8575H161.697V103H147.556V99.8575" fill="#EF3023"/>
</svg>
