<svg width="186" height="186" viewBox="0 0 186 186" fill="none" xmlns="http://www.w3.org/2000/svg">
<g clip-path="url(#clip0_906_47)">
<mask id="mask0_906_47" style="mask-type:luminance" maskUnits="userSpaceOnUse" x="25" y="65" width="135" height="57">
<path d="M160 65H25V122H160V65Z" fill="white"/>
</mask>
<g mask="url(#mask0_906_47)">
<path d="M88.5652 90.6922C87.9621 90.9573 87.2695 91.0899 86.4874 91.0899C85.7768 91.0899 85.1141 90.9754 84.511 90.7464C83.908 90.5175 83.3825 90.1921 82.9347 89.7763C82.4929 89.3606 82.1406 88.8545 81.8898 88.27C81.6391 87.6855 81.5137 87.0469 81.5137 86.3419C81.5137 85.6369 81.6391 84.9741 81.8958 84.3897C82.1525 83.8052 82.5048 83.3111 82.9586 82.9014C83.4124 82.4917 83.9438 82.1784 84.5528 81.9554C85.1618 81.7325 85.8186 81.624 86.5232 81.624C87.174 81.624 87.8188 81.7385 88.4517 81.9614C89.0847 82.1844 89.5922 82.5158 89.9862 82.9436L88.4697 84.4138C88.2607 84.1366 87.986 83.9257 87.6457 83.7932C87.3054 83.6606 86.959 83.5883 86.6008 83.5883C86.2067 83.5883 85.8485 83.6606 85.5261 83.7992C85.1977 83.9378 84.917 84.1306 84.6842 84.3776C84.4513 84.6247 84.2662 84.9139 84.1349 85.2453C84.0035 85.5827 83.9378 85.9442 83.9378 86.3419C83.9378 86.7396 84.0035 87.1192 84.1349 87.4566C84.2662 87.794 84.4453 88.0832 84.6782 88.3242C84.9111 88.5652 85.1857 88.752 85.5081 88.8906C85.8306 89.0232 86.1828 89.0955 86.565 89.0955C87.0068 89.0955 87.3949 89.0111 87.7293 88.8424C88.0577 88.6737 88.3264 88.4508 88.5234 88.1796L90.0758 89.6016C89.6638 90.0595 89.1623 90.4211 88.5592 90.6862" fill="#1E252F"/>
<path d="M101.038 86.3238C101.038 87.0348 100.913 87.6856 100.662 88.27C100.412 88.8605 100.059 89.3606 99.6114 89.7824C99.1636 90.2042 98.6322 90.5235 98.0113 90.7525C97.3903 90.9814 96.7216 91.0959 95.9991 91.0959C95.2766 91.0959 94.6079 90.9814 93.9929 90.7525C93.3779 90.5235 92.8465 90.1981 92.3987 89.7824C91.9509 89.3666 91.5986 88.8605 91.3478 88.27C91.0971 87.6856 90.9717 87.0348 90.9717 86.3238C90.9717 85.6128 91.0971 84.9561 91.3478 84.3776C91.5986 83.7992 91.9509 83.3051 92.3987 82.9014C92.8465 82.4977 93.3779 82.1844 93.9929 81.9615C94.6079 81.7445 95.2766 81.6301 95.9991 81.6301C96.7216 81.6301 97.3903 81.7385 98.0113 81.9615C98.6263 82.1844 99.1636 82.4977 99.6114 82.9014C100.059 83.3051 100.412 83.7992 100.662 84.3776C100.913 84.9561 101.038 85.6068 101.038 86.3238ZM98.6501 86.3238C98.6501 85.9322 98.5845 85.5707 98.4531 85.2332C98.3217 84.8958 98.1426 84.6066 97.9098 84.3656C97.6769 84.1246 97.4022 83.9318 97.0738 83.7932C96.7455 83.6546 96.3872 83.5823 95.9991 83.5823C95.611 83.5823 95.2528 83.6546 94.9303 83.7932C94.6079 83.9318 94.3273 84.1246 94.0944 84.3656C93.8616 84.6066 93.6765 84.8958 93.5511 85.2332C93.4257 85.5707 93.36 85.9382 93.36 86.3238C93.36 86.7095 93.4257 87.1011 93.557 87.4445C93.6884 87.788 93.8675 88.0832 94.1004 88.3243C94.3332 88.5653 94.6079 88.7641 94.9303 88.9027C95.2528 89.0413 95.611 89.1136 95.9991 89.1136C96.3872 89.1136 96.7455 89.0413 97.0679 88.9027C97.3903 88.7641 97.6709 88.5713 97.9038 88.3243C98.1367 88.0772 98.3217 87.782 98.4531 87.4445C98.5845 87.1011 98.6501 86.7275 98.6501 86.3238Z" fill="#1E252F"/>
<path d="M112.825 90.8488H110.622L108.795 84.7753H108.753L106.926 90.8488H104.705L102.083 81.871H104.484L105.947 87.8422H105.982L107.63 81.871H109.953L111.613 87.8422H111.655L113.141 81.871H115.464L112.825 90.8488Z" fill="#1E252F"/>
<path d="M126.42 86.3238C126.42 87.0348 126.295 87.6856 126.044 88.27C125.793 88.8605 125.441 89.3606 124.993 89.7824C124.545 90.1981 124.014 90.5235 123.393 90.7525C122.772 90.9814 122.103 91.0959 121.381 91.0959C120.658 91.0959 119.99 90.9814 119.375 90.7525C118.76 90.5235 118.228 90.1981 117.781 89.7824C117.333 89.3666 116.98 88.8605 116.73 88.27C116.479 87.6856 116.354 87.0348 116.354 86.3238C116.354 85.6128 116.479 84.9561 116.73 84.3776C116.98 83.7992 117.333 83.3051 117.781 82.9014C118.228 82.4977 118.76 82.1844 119.375 81.9615C119.99 81.7445 120.658 81.6301 121.381 81.6301C122.103 81.6301 122.772 81.7385 123.393 81.9615C124.008 82.1844 124.545 82.4977 124.993 82.9014C125.441 83.3051 125.793 83.7992 126.044 84.3776C126.295 84.9561 126.42 85.6068 126.42 86.3238ZM124.032 86.3238C124.032 85.9322 123.966 85.5707 123.835 85.2332C123.704 84.8958 123.524 84.6066 123.292 84.3656C123.059 84.1246 122.784 83.9318 122.456 83.7932C122.127 83.6546 121.769 83.5823 121.381 83.5823C120.993 83.5823 120.635 83.6546 120.312 83.7932C119.99 83.9318 119.709 84.1246 119.476 84.3656C119.243 84.6066 119.058 84.8958 118.933 85.2332C118.808 85.5707 118.742 85.9382 118.742 86.3238C118.742 86.7095 118.808 87.1011 118.939 87.4445C119.07 87.788 119.249 88.0832 119.482 88.3243C119.715 88.5653 119.99 88.7641 120.312 88.9027C120.635 89.0413 120.993 89.1136 121.381 89.1136C121.769 89.1136 122.127 89.0413 122.45 88.9027C122.772 88.7641 123.053 88.5713 123.286 88.3243C123.518 88.0772 123.704 87.782 123.835 87.4445C123.966 87.1011 124.032 86.7275 124.032 86.3238Z" fill="#1E252F"/>
<path d="M133.364 90.8489L131.358 87.2819H130.594V90.8489H128.415V81.8651H131.937C132.379 81.8651 132.815 81.9072 133.239 81.9976C133.663 82.088 134.039 82.2386 134.373 82.4495C134.708 82.6604 134.976 82.9376 135.174 83.287C135.377 83.6365 135.472 84.0643 135.472 84.5825C135.472 85.1911 135.299 85.7032 134.965 86.119C134.624 86.5347 134.152 86.83 133.555 87.0047L135.974 90.8489H133.364ZM133.275 84.6186C133.275 84.4078 133.227 84.239 133.137 84.1065C133.048 83.9739 132.928 83.8715 132.785 83.7992C132.642 83.7269 132.481 83.6787 132.302 83.6546C132.122 83.6305 131.949 83.6184 131.782 83.6184H130.588V85.7092H131.651C131.836 85.7092 132.021 85.6972 132.218 85.6671C132.409 85.6369 132.588 85.5827 132.743 85.5104C132.899 85.4321 133.03 85.3236 133.131 85.179C133.233 85.0344 133.281 84.8476 133.281 84.6186" fill="#1E252F"/>
<path d="M143.234 90.8488L139.801 86.7154H139.777V90.8488H137.598V81.871H139.777V85.5224H139.813L143.121 81.871H145.915L141.932 86.0044L146.148 90.8488H143.234Z" fill="#1E252F"/>
<path d="M85.9024 98.947V106.075H83.6693V98.947H81.0601V97.0972H88.5176V98.947H85.9024Z" fill="#1E252F"/>
<path d="M92.3031 97.0972H90.0581V106.081H92.3031V97.0972Z" fill="#1E252F"/>
<path d="M103.11 106.075L103.164 99.7182H103.128L100.722 106.075H99.1578L96.8172 99.7182H96.7814L96.8351 106.075H94.7334V97.0911H97.9099L100.012 102.851H100.065L102.077 97.0911H105.308V106.075H103.11Z" fill="#1E252F"/>
<path d="M109.965 97.0972H107.72V106.081H109.965V97.0972Z" fill="#1E252F"/>
<path d="M117.279 99.429C117.088 99.194 116.837 99.0012 116.526 98.8626C116.216 98.724 115.917 98.6517 115.631 98.6517C115.482 98.6517 115.332 98.6638 115.183 98.6879C115.028 98.712 114.89 98.7602 114.771 98.8325C114.652 98.9048 114.544 98.9951 114.467 99.1096C114.383 99.2241 114.341 99.3687 114.341 99.5495C114.341 99.7001 114.371 99.8266 114.437 99.9291C114.502 100.032 114.598 100.122 114.723 100.194C114.849 100.273 114.998 100.339 115.171 100.405C115.344 100.465 115.541 100.532 115.756 100.604C116.073 100.706 116.395 100.815 116.735 100.941C117.076 101.062 117.386 101.225 117.661 101.429C117.942 101.634 118.168 101.887 118.354 102.183C118.539 102.484 118.628 102.857 118.628 103.303C118.628 103.821 118.533 104.267 118.336 104.641C118.139 105.014 117.876 105.328 117.547 105.575C117.219 105.822 116.837 106.003 116.413 106.117C115.983 106.238 115.547 106.298 115.093 106.298C114.431 106.298 113.792 106.183 113.171 105.96C112.556 105.738 112.042 105.418 111.63 105.002L113.093 103.556C113.32 103.827 113.619 104.056 113.989 104.237C114.359 104.418 114.729 104.508 115.093 104.508C115.261 104.508 115.422 104.49 115.577 104.46C115.732 104.424 115.87 104.37 115.989 104.297C116.108 104.219 116.198 104.117 116.27 103.99C116.341 103.864 116.377 103.713 116.377 103.532C116.377 103.351 116.335 103.219 116.246 103.098C116.156 102.978 116.037 102.869 115.876 102.773C115.714 102.677 115.517 102.586 115.273 102.508C115.034 102.43 114.759 102.339 114.455 102.249C114.162 102.158 113.869 102.044 113.589 101.917C113.308 101.791 113.051 101.628 112.831 101.429C112.61 101.231 112.43 100.99 112.293 100.706C112.156 100.423 112.09 100.08 112.09 99.67C112.09 99.1699 112.192 98.7421 112.401 98.3866C112.61 98.0311 112.884 97.7419 113.225 97.5129C113.565 97.2839 113.947 97.1152 114.371 97.0128C114.795 96.9043 115.231 96.8561 115.661 96.8561C116.186 96.8561 116.718 96.9525 117.261 97.1333C117.804 97.3201 118.282 97.5912 118.688 97.9588L117.267 99.4169L117.279 99.429Z" fill="#1E252F"/>
<path d="M130.271 101.55C130.271 102.261 130.146 102.912 129.895 103.496C129.644 104.087 129.292 104.587 128.844 105.008C128.397 105.43 127.865 105.75 127.244 105.979C126.623 106.208 125.954 106.322 125.232 106.322C124.51 106.322 123.841 106.208 123.226 105.979C122.611 105.75 122.079 105.424 121.632 105.008C121.184 104.593 120.832 104.087 120.581 103.496C120.33 102.906 120.205 102.261 120.205 101.55C120.205 100.839 120.33 100.182 120.581 99.6037C120.832 99.0253 121.184 98.5312 121.632 98.1275C122.079 97.7238 122.611 97.4105 123.226 97.1875C123.841 96.9646 124.51 96.8561 125.232 96.8561C125.954 96.8561 126.623 96.9646 127.244 97.1875C127.865 97.4044 128.397 97.7178 128.844 98.1275C129.292 98.5312 129.644 99.0253 129.895 99.6037C130.146 100.182 130.271 100.833 130.271 101.55ZM127.883 101.55C127.883 101.158 127.817 100.797 127.686 100.459C127.555 100.122 127.376 99.8327 127.143 99.5917C126.91 99.3506 126.635 99.1578 126.307 99.0192C125.978 98.8807 125.62 98.8084 125.232 98.8084C124.844 98.8084 124.486 98.8807 124.163 99.0192C123.841 99.1578 123.56 99.3506 123.327 99.5917C123.094 99.8327 122.909 100.122 122.784 100.459C122.659 100.797 122.593 101.164 122.593 101.55C122.593 101.936 122.659 102.327 122.79 102.671C122.921 103.014 123.1 103.309 123.333 103.55C123.566 103.791 123.841 103.99 124.163 104.129C124.486 104.267 124.844 104.34 125.232 104.34C125.62 104.34 125.978 104.267 126.301 104.129C126.623 103.99 126.904 103.797 127.137 103.55C127.37 103.303 127.555 103.008 127.686 102.671C127.817 102.327 127.883 101.954 127.883 101.55Z" fill="#1E252F"/>
<path d="M138.302 106.075L137.586 104.31H134.009L133.329 106.075H130.898L134.779 97.0911H136.947L140.786 106.075H138.308H138.302ZM135.824 99.4892L134.648 102.574H136.971L135.824 99.4892Z" fill="#1E252F"/>
<path d="M147.02 106.075L145.013 102.508H144.249V106.075H142.07V97.0911H145.593C146.034 97.0911 146.47 97.1333 146.894 97.2237C147.318 97.3141 147.694 97.4647 148.029 97.6756C148.363 97.8865 148.632 98.1697 148.829 98.5131C149.032 98.8626 149.127 99.2904 149.127 99.8086C149.127 100.417 148.954 100.929 148.62 101.345C148.279 101.761 147.808 102.056 147.211 102.231L149.629 106.075H147.02ZM146.93 99.8447C146.93 99.6338 146.882 99.4651 146.793 99.3326C146.703 99.2 146.584 99.0976 146.44 99.0253C146.297 98.953 146.136 98.9048 145.957 98.8807C145.778 98.8566 145.605 98.8445 145.437 98.8445H144.243V100.935H145.306C145.491 100.935 145.676 100.923 145.873 100.893C146.064 100.863 146.243 100.809 146.399 100.736C146.554 100.658 146.685 100.55 146.787 100.405C146.888 100.26 146.936 100.074 146.936 99.8447" fill="#1E252F"/>
<path d="M157.522 106.075L156.806 104.31H153.229L152.549 106.075H150.119L154 97.0911H156.167L160.006 106.075H157.528H157.522ZM155.045 99.4892L153.868 102.574H156.191L155.045 99.4892Z" fill="#1E252F"/>
<path d="M54.6213 81.5637H53.6779V65.952H51.6836L49.4565 74.5562L48.543 74.3152L50.9552 65H54.6213V81.5637Z" fill="#D81347"/>
<path d="M36.6608 88.6074L31.6812 83.8233L34.3561 79.1476L41.4016 83.9317L40.8762 84.7211L34.6725 80.5033L32.8693 83.6485L37.3116 87.9205L36.6608 88.6074Z" fill="#FFB722"/>
<path d="M44.8113 83.9739L38.2554 72.5137L47.9102 68.4887L51.3016 81.2685L50.394 81.5156L47.2773 69.7842L39.6107 72.9776L45.6293 83.4979L44.8113 83.9739Z" fill="#9488F4"/>
<path d="M40.0825 92.548L27.4482 89.1316L28.4275 85.4561L41.0557 88.8725L40.8109 89.7884L29.0962 86.625L28.6066 88.4628L40.3273 91.6321L40.0825 92.548Z" fill="#9488F4"/>
<path d="M38.6133 110.895L36.0459 108.304L38.1357 103.677L38.9955 104.075L37.1744 108.099L38.6133 109.552L44.4588 103.647L45.1275 104.322L38.6133 110.895Z" fill="#D81347"/>
<path d="M25.9732 103.189L25 99.5133L40.0644 95.4402L40.3092 96.356L26.1524 100.188L26.642 102.026L40.7988 98.1998L41.0376 99.1157L25.9732 103.189Z" fill="#D81347"/>
<path d="M41.5033 117.348L38.2373 115.444L44.7574 104.044L45.5754 104.52L39.527 115.095L41.157 116.047L47.2114 105.472L48.0235 105.948L41.5033 117.348Z" fill="#9488F4"/>
<path d="M47.1994 122L43.5513 121.018L47.5995 105.78L48.513 106.027L44.7096 120.343L46.5307 120.837L50.3341 106.521L51.2417 106.762L47.1994 122Z" fill="#FFB722"/>
<path d="M57.4993 119.56L54.1079 106.78L55.0214 106.533L58.1322 118.264L65.7988 115.071L59.7802 104.551L60.5982 104.075L67.1541 115.535L57.4993 119.56Z" fill="#D81347"/>
<path d="M60.6518 84.004L59.8338 83.528L64.1328 76.0083L62.5027 75.0563L58.2037 82.576L57.3857 82.1L62.1564 73.7609L65.4224 75.6649L60.6518 84.004Z" fill="#9488F4"/>
<path d="M57.8097 82.2687L56.9021 82.0217L60.0308 70.224L58.2097 69.7359L55.075 81.5276L54.1675 81.2805L57.541 68.567L61.1832 69.5552L57.8097 82.2687Z" fill="#FFB722"/>
<path d="M42.5003 86.378L33.2754 77.0688L35.9443 74.3755L45.1692 83.6847L44.5005 84.3595L35.9443 75.7191L34.6129 77.0688L43.169 85.7032L42.5003 86.378Z" fill="#1E252F"/>
<path d="M40.13 95.8981H30.5469V92.0901H40.13V93.0421H31.4843V94.9461H40.13V95.8981Z" fill="#1E252F"/>
<path d="M31.4483 108.569L29.5615 105.274L40.8583 98.6938L41.33 99.5193L30.8512 105.623L31.7946 107.274L42.2734 101.164L42.7451 101.99L31.4483 108.569Z" fill="#1E252F"/>
<path d="M54.5616 116.704H50.7881V106.714H51.7315V115.752H53.6183V106.714H54.5616V116.704Z" fill="#1E252F"/>
<path d="M67.1299 111.889L60.4665 104.611C58.2334 106.286 55.5406 107.19 52.7044 107.19C45.5096 107.19 39.6582 101.285 39.6582 94.0242C39.6582 86.7637 45.5096 80.8588 52.7044 80.8588C55.5585 80.8588 58.2692 81.7746 60.5142 83.4738L67.6255 75.7734L71.6259 80.6479L62.5503 86.6913L61.2546 85.3838C58.9678 83.0761 55.9287 81.8048 52.6984 81.8048C46.0231 81.8048 40.5956 87.2818 40.5956 94.0182C40.5956 100.755 46.0231 106.232 52.6984 106.232C55.9287 106.232 58.9678 104.96 61.2546 102.653L62.5145 101.381L71.0229 107.34L67.118 111.877L67.1299 111.889ZM61.2069 104.014L67.112 110.467L69.6376 107.533L62.6339 102.628L61.9353 103.333C61.7024 103.568 61.4576 103.797 61.2069 104.014ZM61.2546 84.0763C61.4875 84.2812 61.7144 84.4921 61.9353 84.715L62.6876 85.4682L70.2407 80.437L67.5956 77.2134L61.2606 84.0763H61.2546Z" fill="#1E252F"/>
</g>
</g>
<defs>
<clipPath id="clip0_906_47">
<rect width="135" height="57" fill="white" transform="translate(25 65)"/>
</clipPath>
</defs>
</svg>
