<svg width="186" height="186" viewBox="0 0 186 186" fill="none" xmlns="http://www.w3.org/2000/svg">
<g clip-path="url(#clip0_109_35)">
<path d="M102.285 54.1916L81.5853 58.9946C77.7037 59.8952 75.2905 63.758 76.1952 67.6222L79.0789 79.9396C79.9836 83.8038 83.8636 86.2063 87.7452 85.3056L108.444 80.5026C112.326 79.602 114.739 75.7392 113.834 71.875L110.951 59.5577C110.046 55.6934 106.166 53.2909 102.285 54.1916Z" fill="#BC2026"/>
<path d="M103.034 65.1741C103.305 64.8317 103.467 64.4165 103.499 63.9817C103.532 63.5469 103.433 63.1124 103.216 62.7338C102.999 62.3552 102.673 62.0499 102.28 61.8571C101.887 61.6642 101.445 61.5925 101.011 61.6512C101.031 61.5526 101.044 61.4526 101.048 61.3522C101.048 60.8434 100.845 60.3555 100.484 59.9957C100.122 59.636 99.6323 59.4339 99.1213 59.4339C98.6102 59.4339 98.1201 59.636 97.7588 59.9957C97.3974 60.3555 97.1944 60.8434 97.1944 61.3522C97.1832 61.4515 97.1832 61.5518 97.1944 61.6512C96.7605 61.5925 96.3188 61.6642 95.926 61.8571C95.5332 62.0499 95.2073 62.3552 94.99 62.7338C94.7727 63.1124 94.674 63.5469 94.7065 63.9817C94.739 64.4165 94.9012 64.8317 95.1723 65.1741C95.0347 65.2139 94.909 65.2865 94.806 65.3856L99.3191 69.441L98.4399 70.4184V76.217H96.5204V71.2353L92.0366 67.2675L87.5895 71.2353V76.217H85.6699V77.3913H103.612V76.217H99.766V69.1711C99.9991 69.5198 100.312 69.8087 100.679 70.014C101.045 70.2194 101.456 70.3355 101.876 70.3527C102.499 70.3505 103.103 70.1375 103.589 69.7485C104.074 69.3595 104.413 68.8177 104.548 68.2121C104.684 67.6065 104.608 66.973 104.334 66.4156C104.06 65.8583 103.604 65.4102 103.041 65.145L103.034 65.1741ZM93.3554 76.217H90.7911V72.3877H93.3554V76.217Z" fill="white"/>
<path d="M97.4141 70.6518L98.264 69.6963L92.0732 64.2186L85.875 69.6963L86.7322 70.6518L92.0732 65.9254L97.4141 70.6518V70.6518Z" fill="white"/>
<path d="M39.2935 102.321C39.2935 97.2158 42.6857 93.7877 47.6896 93.7877C49.729 93.7556 51.7265 94.3657 53.3969 95.531L51.9829 98.6746C50.8129 97.7588 49.3754 97.2467 47.8874 97.2158C45.0521 97.2158 43.411 99.2508 43.411 102.321C43.411 105.392 45.0521 107.427 47.8874 107.427C49.3764 107.402 50.8156 106.889 51.9829 105.968L53.3456 109.134C51.6811 110.267 49.7058 110.86 47.6896 110.833C42.6857 110.855 39.2935 107.434 39.2935 102.321V102.321ZM55.441 102.321C55.441 97.2158 58.8038 93.7877 63.8518 93.7877C68.8997 93.7877 72.2625 97.2012 72.2625 102.321C72.2625 107.442 68.8997 110.855 63.8518 110.855C58.8038 110.855 55.441 107.434 55.441 102.321ZM68.1451 102.321C68.1451 99.2654 66.4233 97.2158 63.8518 97.2158C61.2802 97.2158 59.5511 99.2508 59.5511 102.321C59.5511 105.392 61.2802 107.427 63.8518 107.427C66.4233 107.427 68.1451 105.378 68.1451 102.321ZM93.2967 94.0576L88.1682 110.833H87.9411L83.1716 101.351L78.3947 110.833H78.1676L73.0391 94.0576H76.9075L79.0175 101.993L82.9445 93.8242H83.406L87.333 101.993L89.4284 94.0941L93.2967 94.0576ZM94.088 102.321C94.088 97.2158 97.4508 93.7877 102.499 93.7877C107.547 93.7877 110.909 97.2012 110.909 102.321C110.909 107.442 107.547 110.855 102.499 110.855C97.4508 110.855 94.088 107.434 94.088 102.321V102.321ZM106.799 102.321C106.799 99.2654 105.07 97.2158 102.499 97.2158C99.9272 97.2158 98.2054 99.2508 98.2054 102.321C98.2054 105.392 99.9272 107.427 102.499 107.427C105.07 107.427 106.799 105.378 106.799 102.321ZM122.896 110.585L119.774 105.582H117.503V110.585H113.635V94.0576H120.119C123.372 94.0576 125.555 96.3187 125.555 99.7614C125.608 100.714 125.422 101.664 125.012 102.527C124.603 103.389 123.984 104.136 123.211 104.699L127.284 110.585H122.896ZM117.503 102.139H119.21C120.866 102.139 121.665 101.41 121.665 99.8051C121.665 98.2005 120.866 97.5003 119.21 97.5003H117.503V102.139ZM138.625 110.585L132.625 103.138V110.585H128.757V94.0576H132.625V100.914L138.31 94.0576H142.97L136.193 101.891L143.402 110.585H138.625ZM35.8867 118.645H31V115.21H44.6418V118.645H39.7551V131.73H35.8867V118.645ZM46.5614 115.21H50.4297V131.73H46.5614V115.21ZM66.7384 131.73L66.2841 125.056L61.9469 130.373H61.7198L57.4045 125.056L56.9503 131.73H53.0965L54.005 114.954H54.2321L61.8516 124.509L69.4711 114.954H69.6983L70.6067 131.73H66.7384ZM73.2589 115.21H77.1273V131.73H73.2589V115.21ZM79.0615 130.33L80.1971 126.931C81.6016 127.801 83.2046 128.303 84.8567 128.39C85.9703 128.39 86.7908 128.003 86.7908 127.055C86.7908 125.895 85.582 125.377 84.0581 124.582C81.677 123.364 79.8527 122.255 79.8527 119.783C79.8527 117.091 81.992 114.94 85.538 114.94C87.232 114.989 88.8967 115.392 90.4248 116.121L89.5163 119.856C88.3559 119.059 87.0082 118.574 85.604 118.448C84.5196 118.448 83.9482 119.017 83.9482 119.812C83.9482 120.899 85.0178 121.271 86.4978 121.956C89.2012 123.247 90.8936 124.429 90.8936 127.011C90.8936 130.337 88.073 132.007 84.7761 132.007C82.752 131.985 80.7737 131.405 79.0615 130.33V130.33ZM92.7179 123.466C92.7179 118.361 96.0808 114.932 101.129 114.932C106.177 114.932 109.539 118.353 109.539 123.466C109.539 128.579 106.177 132 101.129 132C96.0808 132 92.7179 128.587 92.7179 123.466V123.466ZM105.422 123.466C105.422 120.41 103.7 118.361 101.129 118.361C98.5571 118.361 96.8281 120.396 96.8281 123.466C96.8281 126.537 98.5571 128.572 101.129 128.572C103.7 128.572 105.407 126.522 105.407 123.466H105.422ZM119.826 129.425H114.045L113.071 131.73H109.202L116.705 114.75H117.159L124.669 131.73H120.778L119.826 129.425ZM116.932 122.496L115.467 125.983H118.397L116.932 122.496ZM135.372 131.73L132.281 126.727H130.01V131.73H126.141V115.21H132.625C135.871 115.21 138.054 117.471 138.054 120.913C138.108 121.864 137.923 122.813 137.515 123.674C137.106 124.535 136.488 125.281 135.717 125.844L139.783 131.73H135.372ZM129.988 123.291H131.687C133.35 123.291 134.149 122.562 134.149 120.957C134.149 119.353 133.35 118.645 131.687 118.645H129.988V123.291Z" fill="#231F20"/>
<path d="M150.15 129.425H144.376L143.395 131.73H139.534L147.036 114.75H147.49L154.992 131.73H151.131L150.15 129.425ZM147.263 122.496L145.798 125.983H148.728L147.263 122.496Z" fill="#231F20"/>
</g>
<defs>
<clipPath id="clip0_109_35">
<rect width="124" height="78" fill="white" transform="translate(31 54)"/>
</clipPath>
</defs>
</svg>
