<svg xmlns="http://www.w3.org/2000/svg" width="670" height="670" fill="none" viewBox="0 0 670 670">
  <path stroke="#fff" stroke-width="31" d="M398 280.5c-22.3 34.2 25.4 56.5-21.2 92.2-17 13-56.1 3.4-86.4-18.2-30.2-21.7-51.5-55.4-32.9-90.7 22.3-42 55.1-26.9 76.5-54.4 15-19.4 44.4-22.3 63.4-10s27.5 39.7.6 81.1Z"/>
  <path stroke="#FEFFFE" stroke-width="30.8" d="M334 209.3a49 49 0 0 1 63.3-9.8c19 12.3 27.5 39.7.7 81-22 34.1 25.3 56.5-21.1 92-10.5 8-29.3 7.6-49.3 1a140.6 140.6 0 0 1-37.2-19C260.3 333.2 239 299 257.6 264c12.9-24.3 29.1-29.8 44.7-35.2 11.4-3.9 22.6-7.9 31.7-19.5Z"/>
  <path stroke="#FEFEFD" stroke-width="30.7" d="M334 209.3c15-19.1 44.4-22 63.3-9.6 19 12.3 27.5 39.7.8 80.9-22 34 25.1 56.4-21.1 91.8-10.5 8.1-29.4 7.6-49.4 1.1a138 138 0 0 1-37.3-18.9c-30-21.4-51-55.6-32.5-90.5 12.7-24 29-30.1 44.4-35.5 11.3-3.8 22.6-7.7 31.8-19.3Z"/>
  <path stroke="#FDFEFC" stroke-width="30.5" d="M334 209.2a49.3 49.3 0 0 1 63.3-9.4c18.9 12.3 27.4 39.7 1 80.9-22 33.9 24.9 56.2-21.2 91.6-10.5 8-29.4 7.6-49.4 1.1a138 138 0 0 1-37.5-18.6c-29.7-21.4-50.7-56-32.3-90.6 12.6-24 28.7-30.4 44.2-35.7 11.2-3.8 22.7-7.8 31.9-19.3Z"/>
  <path stroke="#FDFEFB" stroke-width="30.4" d="M334 209.2a49.2 49.2 0 0 1 63.3-9.2c18.9 12.3 27.4 39.6 1 80.7-21.7 33.9 24.8 56.2-21.1 91.5-10.6 8.1-29.4 7.6-49.5 1.2-13.2-4.1-26.1-10.4-37.5-18.6-29.6-21.2-50.5-56-32.3-90.5a69 69 0 0 1 44-36c11.3-3.8 22.8-7.6 32-19Z"/>
  <path stroke="#FCFEFA" stroke-width="30.2" d="M334 209.2a49.4 49.4 0 0 1 63.3-9c18.8 12.3 27.4 39.5 1.1 80.5-21.6 33.9 24.5 56-21.2 91.3-10.6 8.2-29.4 7.7-49.5 1.4a133 133 0 0 1-37.5-18.5c-29.5-21-50.3-56.1-32.1-90.5a69.2 69.2 0 0 1 43.8-36.1c11.1-3.8 22.7-7.7 32-19.1Z"/>
  <path stroke="#FBFDF9" stroke-width="30.1" d="M334 209.2a49.5 49.5 0 0 1 63.2-9c18.9 12.5 27.4 39.7 1.3 80.5-21.5 33.8 24.4 56-21.1 91.1-10.7 8.3-29.5 7.8-49.7 1.6a131.6 131.6 0 0 1-37.6-18.4c-29.3-21-50-56.3-31.9-90.5a69.8 69.8 0 0 1 43.5-36.4c11.1-3.8 22.9-7.6 32.3-19Z"/>
  <path stroke="#FBFDF8" stroke-width="29.9" d="M334 209.1a49.6 49.6 0 0 1 63.2-8.7c18.9 12.4 27.4 39.6 1.5 80.4-21.5 33.7 24 55.8-21.3 91-10.6 8.1-29.5 7.7-49.6 1.6A129.5 129.5 0 0 1 290 355c-29.1-20.9-49.6-56.5-31.7-90.4a70.2 70.2 0 0 1 43.3-36.7c11-3.8 22.9-7.5 32.4-18.9Z"/>
  <path stroke="#FAFDF7" stroke-width="29.8" d="M334 209.1a49.7 49.7 0 0 1 63.2-8.5c18.8 12.4 27.3 39.5 1.5 80.2-21.2 33.7 24 55.8-21.2 90.8-10.7 8.3-29.5 7.9-49.7 1.8A129 129 0 0 1 290 355c-29-20.7-49.4-56.5-31.5-90.3a71 71 0 0 1 43-37c11-3.7 22.9-7.4 32.5-18.7Z"/>
  <path stroke="#FAFCF6" stroke-width="29.6" d="M334 209a49.7 49.7 0 0 1 63.1-8.3c18.8 12.4 27.4 39.6 1.8 80.1-21.2 33.6 23.6 55.7-21.4 90.7-10.6 8.2-29.4 8-49.6 1.9-14.1-4.2-26.9-10.2-38-18.2-28.8-20.6-49.2-56.7-31.3-90.3a71.3 71.3 0 0 1 42.7-37.2c11-3.7 23-7.4 32.7-18.6Z"/>
  <path stroke="#F9FCF5" stroke-width="29.4" d="M334 209a49.9 49.9 0 0 1 63.1-8.2c18.8 12.5 27.4 39.6 1.8 80-21 33.6 23.6 55.7-21.2 90.5-10.8 8.3-29.6 8-49.8 2-14.2-4.2-27-10-38-18-28.7-20.5-48.9-56.9-31.2-90.3a71.7 71.7 0 0 1 42.6-37.4c10.8-3.7 23-7.4 32.7-18.5Z"/>
  <path stroke="#F8FCF4" stroke-width="29.3" d="M334 209a50 50 0 0 1 63.1-8c18.8 12.4 27.3 39.5 2 80-21 33.4 23.3 55.5-21.4 90.1-10.8 8.4-29.6 8.1-49.8 2.2a124 124 0 0 1-38-17.9c-28.6-20.4-48.7-57-31.1-90.3a72.4 72.4 0 0 1 42.4-37.6c10.7-3.7 23-7.3 32.8-18.5Z"/>
  <path stroke="#F8FBF3" stroke-width="29.1" d="M334 209a49.9 49.9 0 0 1 63-7.8c18.8 12.4 27.4 39.4 2.1 79.7-20.8 33.5 23.2 55.5-21.3 90.1-10.8 8.4-29.6 8.2-49.9 2.3-14.5-4.2-27.2-10-38.1-17.8-28.4-20.3-48.4-57.2-30.9-90.3a73 73 0 0 1 42.1-37.8c10.7-3.8 23.1-7.4 33-18.4Z"/>
  <path stroke="#F7FBF2" stroke-width="29" d="M334 209a50.1 50.1 0 0 1 63-7.7c18.7 12.4 27.3 39.5 2.2 79.7-20.6 33.4 23 55.3-21.3 89.9-10.8 8.4-29.6 8.2-50 2.4-14.7-4.2-27.3-10-38.2-17.8-28.2-20.1-48-57.3-30.7-90.1 12-22.7 27.3-33.2 41.9-38.2 10.7-3.6 23.2-7.2 33-18.3Z"/>
  <path stroke="#F7FBF1" stroke-width="28.8" d="M334 209a50 50 0 0 1 63-7.5c18.7 12.4 27.3 39.4 2.4 79.5-20.6 33.3 22.7 55.3-21.4 89.7-10.9 8.5-29.7 8.3-50 2.6a121.1 121.1 0 0 1-38.3-17.6c-28-20.1-47.9-57.5-30.5-90.2 11.8-22.5 27-33.5 41.6-38.5 10.6-3.6 23.2-7 33.2-18Z"/>
  <path stroke="#F6FBF0" stroke-width="28.7" d="M334 208.9a50.2 50.2 0 0 1 63-7.3c18.7 12.5 27.1 39.4 2.4 79.4-20.5 33.2 22.6 55.3-21.3 89.6-10.9 8.5-29.7 8.3-50 2.7-15.1-4.2-27.8-9.9-38.5-17.6-27.9-20-47.6-57.6-30.4-90 12-22.5 27-33.8 41.4-38.8 10.6-3.6 23.3-7 33.4-18Z"/>
  <path stroke="#F5FAEF" stroke-width="28.5" d="M334 208.9a50.3 50.3 0 0 1 63-7.2c18.6 12.6 27.1 39.4 2.6 79.3-20.5 33.2 22.3 55.2-21.5 89.5-10.8 8.5-29.6 8.3-50 2.8a119 119 0 0 1-38.6-17.5c-27.7-19.9-47.2-57.7-30.1-90 11.8-22.4 26.8-34 41.2-39 10.4-3.6 23.3-7 33.4-18Z"/>
  <path stroke="#F5FAEE" stroke-width="28.4" d="M334 208.8a50.4 50.4 0 0 1 63-7c18.6 12.6 27 39.4 2.6 79.3-20.3 33 22.2 55-21.4 89.2-10.9 8.6-29.7 8.5-50 3a119 119 0 0 1-38.7-17.4c-27.6-19.8-47-58-30-90 11.7-22.2 26.6-34.4 41-39.3 10.3-3.5 23.3-7 33.5-17.8Z"/>
  <path stroke="#F4FAED" stroke-width="28.2" d="M334 208.8a50.4 50.4 0 0 1 63-6.7c18.5 12.5 27 39.3 2.8 79-20.3 33 22 55-21.5 89-11 8.7-29.8 8.6-50.2 3a118.8 118.8 0 0 1-38.7-17.1c-27.3-19.7-46.7-58-29.8-90 11.7-22 26.5-34.6 40.7-39.5 10.4-3.5 23.4-7 33.7-17.7Z"/>
  <path stroke="#F4F9EC" stroke-width="28" d="M334 208.7a50.6 50.6 0 0 1 63-6.5c18.5 12.6 27 39.3 2.8 79-20 33 21.8 54.9-21.4 88.8-11 8.6-29.8 8.6-50.3 3.2a115.8 115.8 0 0 1-38.7-17.2c-27.3-19.5-46.5-58.1-29.7-90 11.6-21.8 26.4-34.8 40.5-39.6 10.3-3.5 23.4-6.9 33.8-17.7Z"/>
  <path stroke="#F3F9EB" stroke-width="27.9" d="M334 208.7a50.6 50.6 0 0 1 62.9-6.4c18.6 12.6 27 39.3 3 78.9-20 33 21.6 54.8-21.4 88.7-11 8.7-29.8 8.7-50.3 3.3-16-4.2-28.5-9.6-38.9-17-27-19.5-46.2-58.4-29.5-90 11.6-21.8 26.3-35.1 40.3-40 10.2-3.5 23.5-6.7 33.9-17.5Z"/>
  <path stroke="#F2F9EA" stroke-width="27.7" d="M334 208.7a50.7 50.7 0 0 1 62.9-6.2c18.5 12.6 27 39.2 3.1 78.7-19.8 32.8 21.5 54.7-21.4 88.6-11 8.7-29.9 8.7-50.4 3.4-16-4.2-28.6-9.6-39-17-26.9-19.3-45.9-58.5-29.3-89.9 11.5-21.6 26.1-35.4 40-40.2 10.2-3.5 23.6-6.7 34-17.4Z"/>
  <path stroke="#F2F8E9" stroke-width="27.6" d="M334 208.7a50.9 50.9 0 0 1 62.8-6c18.6 12.5 27 39.2 3.3 78.5-19.7 32.8 21.2 54.7-21.5 88.4-11 8.7-29.8 8.8-50.4 3.5a114.3 114.3 0 0 1-39-16.8c-26.8-19.2-45.6-58.6-29.1-89.8 11.4-21.6 25.9-35.7 39.8-40.5 10.1-3.5 23.5-6.7 34-17.3Z"/>
  <path stroke="#F1F8E8" stroke-width="27.4" d="M333.9 208.6a51.1 51.1 0 0 1 62.9-5.8c18.6 12.6 27 39.2 3.5 78.5-19.7 32.7 21 54.6-21.6 88.2-11 8.8-30 8.8-50.5 3.6a114.2 114.2 0 0 1-39-16.7c-26.7-19.1-45.4-58.8-29-89.8 11.3-21.5 25.7-36 39.5-40.7 10.1-3.5 23.7-6.7 34.2-17.3Z"/>
  <path stroke="#F1F8E7" stroke-width="27.3" d="M333.9 208.6a51.2 51.2 0 0 1 62.9-5.7c18.5 12.6 27 39.2 3.5 78.4-19.5 32.7 20.9 54.5-21.5 88-11 8.8-30 9-50.5 3.8-16.6-4.1-29-9.4-39.2-16.6-26.5-19-45.1-59-28.8-89.8 11.3-21.3 25.6-36.3 39.3-41 10-3.4 23.7-6.6 34.3-17Z"/>
  <path stroke="#F0F8E6" stroke-width="27.1" d="M333.9 208.5a51.2 51.2 0 0 1 62.8-5.4c18.5 12.6 27 39.2 3.8 78.3-19.5 32.6 20.6 54.4-21.6 87.8-11.2 8.8-30 9-50.6 4a112.2 112.2 0 0 1-39.3-16.6c-26.2-18.9-44.8-59.1-28.6-89.8 11.2-21.1 25.5-36.6 39-41.2 10-3.4 23.8-6.5 34.5-17Z"/>
  <path stroke="#EFF7E5" stroke-width="27" d="M333.9 208.5a51.3 51.3 0 0 1 62.8-5.3c18.5 12.7 27 39.2 3.8 78.2-19.3 32.5 20.5 54.4-21.5 87.7-11.2 8.8-30 9-50.6 4a110 110 0 0 1-39.4-16.5c-26.2-18.7-44.6-59.2-28.5-89.7 11.2-21 25.3-36.8 38.9-41.5 9.9-3.4 23.8-6.4 34.5-16.9Z"/>
  <path stroke="#EFF7E4" stroke-width="26.8" d="M333.9 208.5a51.6 51.6 0 0 1 62.8-5.2c18.5 12.8 27 39.2 4 78.1-19.2 32.5 20.2 54.3-21.6 87.6-11.3 8.8-30.1 9-50.7 4-17.1-4.1-29.4-9.1-39.4-16.3-26-18.6-44.4-59.3-28.4-89.7 11-20.8 25.2-37 38.6-41.7 10-3.3 23.8-6.4 34.7-16.8Z"/>
  <path stroke="#EEF7E3" stroke-width="26.6" d="M333.9 208.5a51.5 51.5 0 0 1 62.8-5c18.4 12.7 26.9 39.1 4 78-19 32.4 20.1 54.1-21.6 87.3-11.2 8.9-30 9.2-50.7 4.3a110.5 110.5 0 0 1-39.5-16.3c-25.9-18.5-44-59.5-28.1-89.6 11-20.8 25-37.5 38.4-42 9.7-3.4 23.8-6.4 34.7-16.7Z"/>
  <path stroke="#EEF6E2" stroke-width="26.5" d="M333.9 208.4a51.6 51.6 0 0 1 62.8-4.7c18.3 12.7 26.9 39 4.1 77.8-19 32.4 19.9 54.1-21.6 87.1-11.2 9-30.1 9.3-50.8 4.5a110 110 0 0 1-39.6-16.2c-25.7-18.4-43.8-59.7-27.9-89.6 11-20.7 24.8-37.7 38.1-42.3 9.7-3.3 24-6.2 34.9-16.6Z"/>
  <path stroke="#EDF6E1" stroke-width="26.3" d="M333.9 208.4a51.7 51.7 0 0 1 62.7-4.6c18.4 12.7 26.9 39.1 4.3 77.7-18.8 32.4 19.7 54-21.6 87-11.3 9-30.1 9.4-50.8 4.5-17.7-4.1-30-9-39.7-16-25.5-18.3-43.6-59.8-27.8-89.6 10.9-20.5 24.7-38 37.9-42.5 9.6-3.3 24-6.2 35-16.5Z"/>
  <path stroke="#ECF6E0" stroke-width="26.2" d="M333.9 208.3a51.9 51.9 0 0 1 62.7-4.4c18.4 12.8 26.8 39.1 4.4 77.7-18.7 32.2 19.6 53.9-21.6 86.8-11.3 9-30.2 9.4-50.9 4.6a109 109 0 0 1-39.8-16c-25.4-18.1-43.2-60-27.6-89.4 10.8-20.5 24.6-38.3 37.7-42.8 9.6-3.3 24-6.2 35-16.5Z"/>
  <path stroke="#ECF5DF" stroke-width="26" d="M333.9 208.3c17-15.4 44.3-17 62.7-4.2 18.3 12.7 26.8 39 4.6 77.5-18.7 32.2 19.2 53.9-21.7 86.6-11.4 9.1-30.3 9.5-51 4.8-18-4.2-30.1-9-39.9-15.9-25.1-18-43-60-27.4-89.4 10.7-20.3 24.4-38.6 37.4-43 9.6-3.3 24.1-6.2 35.3-16.4Z"/>
  <path stroke="#EBF5DE" stroke-width="25.9" d="M333.9 208.3a52 52 0 0 1 62.6-4c18.4 12.7 26.9 39 4.7 77.3-18.5 32.1 19.2 53.8-21.7 86.5-11.3 9-30.2 9.6-51 4.9a107.7 107.7 0 0 1-39.9-15.8c-25-18-42.7-60.2-27.2-89.5 10.6-20 24.2-38.7 37.1-43.2 9.5-3.2 24-6 35.4-16.2Z"/>
  <path stroke="#EBF5DD" stroke-width="25.7" d="M333.9 208.3a52.1 52.1 0 0 1 62.6-4c18.3 12.8 26.8 39 4.9 77.3-18.5 32.1 18.8 53.8-21.7 86.3-11.5 9.1-30.3 9.7-51 5a106.2 106.2 0 0 1-40.1-15.6c-25-17.8-42.5-60.4-27.1-89.4 10.6-20 24-39.1 36.9-43.5 9.4-3.3 24.1-6 35.5-16.1Z"/>
  <path stroke="#EAF5DC" stroke-width="25.5" d="M333.9 208.2a52.1 52.1 0 0 1 62.6-3.6c18.3 12.7 26.7 38.9 5 77-18.4 32 18.7 53.8-21.8 86.2-11.4 9.2-30.3 9.8-51 5.1a106.5 106.5 0 0 1-40.2-15.5c-24.7-17.7-42.2-60.6-26.9-89.4 10.5-19.9 23.9-39.4 36.7-43.8 9.4-3.2 24.2-5.9 35.6-16Z"/>
  <path stroke="#E9F4DB" stroke-width="25.4" d="M333.9 208.2a52.3 52.3 0 0 1 62.6-3.5c18.3 12.8 26.7 38.9 5 77-18.2 32 18.6 53.6-21.7 86-11.4 9.1-30.4 9.8-51.1 5.2-18.7-4-30.8-8.7-40.3-15.4-24.5-17.6-41.9-60.7-26.7-89.4 10.4-19.7 23.8-39.7 36.5-44 9.3-3.2 24.2-6 35.7-15.9Z"/>
  <path stroke="#E9F4DA" stroke-width="25.2" d="M333.9 208.2a52.5 52.5 0 0 1 62.6-3.4c18.2 12.9 26.7 39 5.1 77-18 31.9 18.4 53.4-21.7 85.7-11.5 9.2-30.4 10-51.2 5.4-18.8-4-30.9-8.6-40.3-15.4-24.4-17.4-41.7-60.8-26.6-89.2 10.4-19.7 23.6-40 36.3-44.3 9.2-3.2 24.2-5.9 35.8-15.8Z"/>
  <path stroke="#E8F4D9" stroke-width="25.1" d="M333.9 208.2a52.6 52.6 0 0 1 62.5-3.3c18.2 12.9 26.7 39 5.3 76.8-18 31.9 18.2 53.5-21.7 85.7-11.5 9.3-30.4 10-51.2 5.5-19-4.1-31.1-8.6-40.5-15.3-24.3-17.4-41.3-61-26.4-89.2 10.4-19.5 23.5-40.3 36-44.6 9.2-3.1 24.3-5.8 36-15.6Z"/>
  <path stroke="#E8F3D8" stroke-width="24.9" d="M333.9 208a52.8 52.8 0 0 1 62.5-2.9c18.2 12.9 26.7 38.9 5.5 76.7-18 31.8 18 53.4-21.9 85.4-11.5 9.3-30.4 10.1-51.2 5.7-19.2-4.1-31.2-8.6-40.6-15.2-24-17.3-41-61.1-26.1-89.2 10.2-19.4 23.3-40.5 35.7-44.8 9.2-3.2 24.3-5.7 36-15.6Z"/>
  <path stroke="#E7F3D7" stroke-width="24.8" d="M333.9 208a52.8 52.8 0 0 1 62.5-2.7c18.2 12.9 26.7 38.8 5.5 76.5-17.7 31.7 17.8 53.4-21.8 85.3-11.5 9.4-30.5 10.1-51.3 5.8-19.4-4.1-31.4-8.5-40.6-15.1-23.9-17.2-40.8-61.3-26-89.2 10.1-19.3 23.1-40.8 35.5-45 9.1-3.1 24.4-5.7 36.2-15.5Z"/>
  <path stroke="#E6F3D6" stroke-width="24.6" d="M333.9 208a53 53 0 0 1 62.5-2.6c18.1 12.9 26.6 38.8 5.7 76.5-17.7 31.6 17.6 53.2-21.9 85-11.6 9.4-30.5 10.3-51.4 6-19.5-4.1-31.5-8.5-40.6-15-23.8-17-40.6-61.4-26-89.2 10.2-19.1 23.1-41 35.4-45.3 9-3 24.4-5.6 36.3-15.4Z"/>
  <path stroke="#E6F3D5" stroke-width="24.5" d="M333.9 208a53 53 0 0 1 62.5-2.4c18 12.9 26.5 38.8 5.7 76.3-17.5 31.6 17.4 53.1-21.8 85-11.6 9.3-30.6 10.3-51.4 5.9-19.7-4-31.7-8.3-40.8-14.8-23.6-17-40.3-61.6-25.7-89.2 10-19 22.8-41.3 35-45.5 9-3 24.6-5.6 36.5-15.3Z"/>
  <path stroke="#E5F2D4" stroke-width="24.3" d="M333.9 208a53.1 53.1 0 0 1 62.4-2.3c18.2 13 26.6 38.8 6 76.2-17.5 31.6 17.2 53.1-22 84.8-11.6 9.4-30.5 10.4-51.4 6.1-20-4-31.8-8.3-40.8-14.8-23.5-16.8-40.1-61.7-25.6-89 10-19 22.7-41.7 34.9-45.8 8.9-3.1 24.4-5.5 36.5-15.2Z"/>
  <path stroke="#E5F2D3" stroke-width="24.1" d="M333.9 208c17.6-14 44.3-15 62.4-2.2 18 13 26.6 38.8 6 76.1-17.2 31.6 17.1 53-21.9 84.7-11.6 9.4-30.6 10.4-51.5 6.2-20-4.1-32-8.3-41-14.7-23.2-16.7-39.6-61.8-25.3-89 10-18.8 22.6-42 34.6-46 8.9-3.1 24.6-5.5 36.7-15.1Z"/>
  <path stroke="#E4F2D2" stroke-width="24" d="M333.9 207.9a53.5 53.5 0 0 1 62.4-2c18 13 26.5 38.9 6.1 76.1-17.2 31.4 16.9 53-21.8 84.4-11.7 9.5-30.7 10.6-51.7 6.4-20.2-4.1-32-8.2-41-14.6-23-16.6-39.5-62-25.1-89 9.8-18.6 22.4-42.2 34.3-46.3 8.8-3 24.6-5.4 36.8-15Z"/>
  <path stroke="#E3F1D1" stroke-width="23.8" d="M333.9 207.9a53.4 53.4 0 0 1 62.3-1.7c18.1 13 26.6 38.7 6.3 75.8-17 31.4 16.7 53-21.9 84.3-11.7 9.5-30.7 10.6-51.6 6.4-20.4-4-32.3-8-41.1-14.4-23-16.5-39.3-62.2-25-89 9.7-18.5 22.2-42.5 34-46.6 8.8-3 24.7-5.3 37-14.8Z"/>
  <path stroke="#E3F1D0" stroke-width="23.7" d="M333.9 207.8a53.7 53.7 0 0 1 62.3-1.5c18 13 26.5 38.7 6.4 75.8-17 31.2 16.5 52.8-22 84-11.7 9.6-30.6 10.7-51.6 6.6-20.6-4-32.4-8-41.1-14.3-22.9-16.4-39-62.3-25-89 9.8-18.3 22.1-42.8 34-46.8 8.6-3 24.6-5.3 37-14.8Z"/>
  <path stroke="#E2F1CF" stroke-width="23.5" d="M333.9 207.8a54 54 0 0 1 62.3-1.4c18 13 26.5 38.7 6.6 75.7-17 31.2 16.2 52.8-22 83.9-11.8 9.6-30.8 10.8-51.7 6.7-20.8-4-32.6-8-41.3-14.3-22.7-16.2-38.7-62.4-24.7-88.9 9.6-18.2 22-43 33.7-47 8.6-3 24.6-5.2 37-14.7Z"/>
  <path stroke="#E2F0CE" stroke-width="23.4" d="M333.9 207.8a53.8 53.8 0 0 1 62.3-1.2c18 13 26.5 38.7 6.6 75.5-16.7 31.2 16.1 52.7-22 83.8-11.7 9.6-30.7 10.8-51.7 6.8-21-4-32.7-8-41.4-14.2-22.5-16-38.4-62.6-24.5-88.8 9.6-18.1 21.8-43.4 33.5-47.4 8.5-2.8 24.7-5 37.2-14.5Z"/>
  <path stroke="#E1F0CD" stroke-width="23.2" d="M333.9 207.7a54 54 0 0 1 62.3-1c18 13 26.4 38.7 6.8 75.4-16.7 31.2 15.9 52.6-22 83.6-11.9 9.7-30.9 11-51.9 7s-32.8-8-41.4-14c-22.4-16-38.2-62.8-24.4-88.9 9.5-18 21.7-43.6 33.2-47.6 8.5-2.9 24.8-5.1 37.4-14.5Z"/>
  <path stroke="#E0F0CC" stroke-width="23.1" d="M333.9 207.7a54.2 54.2 0 0 1 62.2-.8c18 13 26.4 38.6 7 75.3-16.6 31 15.7 52.5-22 83.3-11.9 9.7-31 11-52 7.2-21.2-4-33-7.9-41.5-14-22.2-15.9-37.9-62.9-24.1-88.8 9.4-17.8 21.4-43.9 32.9-47.8 8.4-2.9 24.8-5 37.5-14.4Z"/>
  <path stroke="#E0F0CB" stroke-width="22.9" d="M333.9 207.6c17.9-13 44.3-13.6 62.2-.5 17.9 13 26.4 38.6 7 75.1-16.4 31 15.6 52.5-22 83.2-11.8 9.8-30.9 11.2-51.9 7.3-21.5-4-33.2-7.9-41.7-13.9-22-15.8-37.6-63-24-88.7 9.5-17.8 21.4-44.2 32.8-48.1 8.4-3 24.8-5 37.6-14.4Z"/>
  <path stroke="#DFEFCA" stroke-width="22.7" d="M333.9 207.6c18-13 44.3-13.5 62.2-.4 17.9 13 26.4 38.6 7.1 75-16.3 31 15.4 52.4-22 83-11.9 9.9-31 11.3-52 7.4-21.6-4-33.2-7.7-41.7-13.7-22-15.7-37.3-63.2-23.8-88.7 9.3-17.7 21.1-44.5 32.5-48.4 8.3-2.8 24.9-5 37.7-14.2Z"/>
  <path stroke="#DFEFC9" stroke-width="22.6" d="M333.9 207.6a54.6 54.6 0 0 1 62.1-.3c18 13.1 26.4 38.6 7.3 75-16.1 31 15.2 52.3-22 82.9-12 9.7-31 11.3-52 7.4-21.9-4-33.5-7.7-41.9-13.7-21.7-15.5-37-63.3-23.6-88.6 9.2-17.5 21-44.7 32.3-48.6 8.2-2.8 24.9-5 37.8-14.1Z"/>
  <path stroke="#DEEFC8" stroke-width="22.4" d="M333.9 207.6a54.7 54.7 0 0 1 62.1-.2c17.9 13.1 26.4 38.6 7.5 75-16.1 30.7 15 52.1-22.1 82.6-12 9.9-31 11.4-52.1 7.6-22-4-33.6-7.6-41.9-13.6-21.6-15.4-36.8-63.4-23.5-88.6 9.2-17.4 20.9-45 32-48.8 8.2-2.8 25-4.9 38-14Z"/>
  <path stroke="#DDEEC7" stroke-width="22.3" d="M333.8 207.5a55 55 0 0 1 62.2.1c17.9 13.1 26.4 38.5 7.5 74.7-16 30.8 14.8 52.2-22 82.5-12 10-31.1 11.5-52.2 7.8-22.2-4-33.7-7.6-42-13.5-21.4-15.3-36.5-63.6-23.3-88.6 9.2-17.2 20.7-45.3 31.8-49.1 8.2-2.8 25-4.8 38-13.9Z"/>
  <path stroke="#DDEEC6" stroke-width="22.1" d="M333.8 207.5a55 55 0 0 1 62.2.3c17.8 13 26.3 38.4 7.7 74.6-15.9 30.7 14.5 52-22.2 82.3-12 9.9-31 11.6-52.2 7.8-22.3-3.9-33.9-7.5-42-13.3C266 344 251 295.4 264 270.6c9-17 20.6-45.6 31.6-49.3 8-2.8 25-4.7 38.1-13.8Z"/>
  <path stroke="#DCEEC5" stroke-width="22" d="M333.8 207.4a55.4 55.4 0 0 1 62.2.5c17.7 13.2 26.2 38.5 7.7 74.5-15.7 30.7 14.5 52-22.1 82.2-12 10-31 11.7-52.2 8-22.5-4-34-7.5-42.2-13.3-21.1-15.1-36-64-23-88.5 9-17 20.5-45.9 31.4-49.7 8-2.7 25-4.7 38.2-13.7Z"/>
  <path stroke="#DCEDC4" stroke-width="21.8" d="M333.8 207.4a55.3 55.3 0 0 1 62.1.7c17.8 13 26.3 38.4 8 74.4-15.7 30.5 14.1 51.9-22.2 82-12 10-31.2 11.7-52.3 8-22.7-3.9-34.2-7.4-42.2-13.1-21-15-35.7-64.1-22.8-88.5 8.9-16.9 20.3-46.2 31.1-49.9 7.9-2.7 25-4.6 38.3-13.6Z"/>
  <path stroke="#DBEDC3" stroke-width="21.6" d="M333.8 207.4a55.5 55.5 0 0 1 62.1.8c17.8 13.2 26.3 38.4 8 74.3-15.4 30.5 14 51.8-22.1 81.8-12 10-31.2 11.8-52.3 8.2-23-3.9-34.4-7.3-42.4-13-20.8-15-35.4-64.3-22.6-88.5 8.9-16.7 20-46.5 30.9-50.1 7.9-2.7 25-4.6 38.4-13.5Z"/>
  <path stroke="#DAEDC2" stroke-width="21.5" d="M333.8 207.4a55.6 55.6 0 0 1 62.1 1c17.7 13.1 26.2 38.3 8.2 74.1-15.5 30.5 13.8 51.8-22.3 81.7-12 10-31.2 11.9-52.3 8.3-23-3.9-34.5-7.3-42.5-13-20.6-14.8-35.2-64.3-22.4-88.4 8.8-16.6 20-46.7 30.6-50.4 7.9-2.7 25.2-4.5 38.6-13.3Z"/>
  <path stroke="#DAEDC1" stroke-width="21.3" d="M333.8 207.3a55.9 55.9 0 0 1 62 1.2c17.8 13.2 26.3 38.4 8.3 74-15.3 30.5 13.7 51.8-22.1 81.5-12.2 10-31.4 12-52.5 8.5-23.2-3.9-34.6-7.3-42.5-13-20.4-14.6-34.9-64.4-22.3-88.3 8.7-16.4 19.8-47 30.4-50.6 7.8-2.6 25.2-4.5 38.7-13.3Z"/>
  <path stroke="#D9ECC0" stroke-width="21.2" d="M333.8 207.3a55.9 55.9 0 0 1 62 1.4c17.8 13.2 26.2 38.3 8.4 73.9-15.2 30.4 13.5 51.7-22.2 81.3-12.2 10.1-31.3 12-52.5 8.6-23.3-3.9-34.7-7.2-42.5-12.8-20.4-14.6-34.7-64.7-22.2-88.4 8.7-16.3 19.7-47.2 30.2-50.8 7.7-2.6 25.2-4.4 38.8-13.2Z"/>
  <path stroke="#D9ECBF" stroke-width="21" d="M333.8 207.3a56 56 0 0 1 62 1.5c17.7 13.2 26.2 38.3 8.6 73.8-15.1 30.3 13.3 51.6-22.3 81.1-12.2 10.2-31.3 12.3-52.5 8.8-23.6-3.9-35-7.1-42.7-12.7-20.2-14.5-34.4-64.8-22-88.3 8.6-16.3 19.6-47.6 30-51.1 7.6-2.7 25.3-4.4 39-13.1Z"/>
  <path stroke="#D8ECBE" stroke-width="20.9" d="M333.8 207.3a56.1 56.1 0 0 1 62 1.6c17.7 13.3 26.2 38.4 8.6 73.7-15 30.3 13.2 51.6-22.2 81-12.2 10.2-31.4 12.3-52.6 8.8-23.8-3.8-35-7-42.8-12.6-20-14.3-34-64.9-21.7-88.2 8.4-16.1 19.3-47.8 29.7-51.4 7.6-2.6 25.2-4.3 39-13Z"/>
  <path stroke="#D7EBBD" stroke-width="20.7" d="M333.8 207.2a56.4 56.4 0 0 1 62 2c17.6 13.1 26.1 38.2 8.8 73.4-15 30.3 12.9 51.5-22.3 80.9-12.3 10.2-31.5 12.3-52.6 9-24-3.9-35.3-7-43-12.5-19.8-14.3-33.8-65.2-21.5-88.3 8.4-16 19.2-48.1 29.5-51.6 7.5-2.6 25.3-4.3 39.1-13Z"/>
  <path stroke="#D7EBBC" stroke-width="20.6" d="M333.8 207.2a56.4 56.4 0 0 1 62 2c17.6 13.3 26 38.3 8.8 73.5-14.7 30.1 12.8 51.4-22.2 80.6-12.3 10.3-31.5 12.5-52.7 9.1-24.1-3.8-35.4-7-43-12.4-19.6-14.1-33.6-65.2-21.4-88.1 8.4-15.9 19-48.5 29.2-52 7.5-2.5 25.4-4.2 39.3-12.7Z"/>
  <path stroke="#D6EBBB" stroke-width="20.4" d="M333.8 207.1a56.7 56.7 0 0 1 62 2.3c17.5 13.3 26 38.2 9 73.3-14.7 30.1 12.5 51.4-22.4 80.5-12.2 10.2-31.4 12.5-52.7 9.2-24.3-3.8-35.5-7-43-12.3-19.6-14-33.3-65.4-21.3-88.2 8.3-15.6 19-48.7 29-52.1 7.4-2.5 25.4-4.1 39.4-12.7Z"/>
  <path stroke="#D6EBBA" stroke-width="20.2" d="M333.8 207.1a56.8 56.8 0 0 1 62 2.4c17.5 13.4 26 38.3 9 73.3-14.5 30 12.4 51.2-22.3 80.2-12.3 10.4-31.5 12.7-52.8 9.4-24.4-3.8-35.6-6.9-43-12.2-19.4-14-33.1-65.5-21.2-88.1 8.3-15.6 18.8-49 28.8-52.5 7.4-2.5 25.4-4 39.5-12.5Z"/>
  <path stroke="#D5EAB9" stroke-width="20.1" d="M333.8 207a56.8 56.8 0 0 1 61.8 2.7c17.6 13.3 26.1 38.2 9.4 73-14.4 30 12.1 51.3-22.4 80.2-12.4 10.4-31.6 12.7-52.8 9.5-24.7-3.8-35.8-6.9-43.2-12.1-19.3-13.8-32.8-65.7-21-88.1 8.2-15.5 18.6-49.3 28.6-52.7 7.3-2.5 25.4-4 39.6-12.4Z"/>
  <path stroke="#D4EAB8" stroke-width="19.9" d="M333.8 207a57 57 0 0 1 61.8 2.8c17.6 13.4 26 38.2 9.4 73-14.2 30 12 51.2-22.3 80-12.4 10.4-31.6 12.8-53 9.6-24.7-3.8-35.9-6.8-43.2-12-19-13.7-32.5-65.9-20.7-88 8-15.4 18.4-49.6 28.3-53 7.2-2.4 25.4-4 39.7-12.3Z"/>
  <path stroke="#D4EAB7" stroke-width="19.8" d="M333.8 207a57.2 57.2 0 0 1 61.8 3c17.6 13.3 26 38.2 9.5 72.8-14.1 29.9 11.9 51.2-22.3 79.9-12.4 10.4-31.6 12.8-53 9.7-25-3.8-36.1-6.8-43.3-12-19-13.5-32.3-66-20.6-88 8-15.2 18.2-49.8 28-53.1 7.2-2.5 25.5-4 40-12.3Z"/>
  <path stroke="#D3E9B6" stroke-width="19.6" d="M333.8 207a57.4 57.4 0 0 1 61.8 3.1c17.5 13.4 26 38.2 9.7 72.8-14 29.8 11.6 51-22.4 79.6-12.5 10.4-31.7 13-53 9.8-25.2-3.7-36.3-6.6-43.5-11.8-18.8-13.4-32-66.1-20.4-88 8-15 18.1-50 27.8-53.4 7.2-2.4 25.6-3.9 40-12.1Z"/>
  <path stroke="#D3E9B5" stroke-width="19.5" d="M333.8 207a57.6 57.6 0 0 1 61.8 3.3c17.4 13.3 26 38.1 9.7 72.6-13.9 29.7 11.5 51-22.4 79.4-12.4 10.6-31.7 13.1-53 10-25.3-3.7-36.4-6.6-43.6-11.7-18.5-13.3-31.7-66.3-20.2-88 7.9-14.9 18-50.3 27.6-53.6 7-2.4 25.6-3.8 40.1-12Z"/>
  <path stroke="#D2E9B4" stroke-width="19.3" d="M333.8 207a57.7 57.7 0 0 1 61.7 3.4c17.5 13.4 26 38.1 10 72.6-13.9 29.6 11.3 50.8-22.5 79.2-12.5 10.5-31.7 13.2-53 10-25.6-3.6-36.6-6.5-43.7-11.5-18.5-13.2-31.4-66.4-20-88C274 258 284 222.3 293.5 219c7-2.5 25.6-3.9 40.2-12Z"/>
  <path stroke="#D1E8B3" stroke-width="19.2" d="M333.8 206.9a58 58 0 0 1 61.7 3.6c17.5 13.5 26 38.2 10 72.5-13.7 29.6 11.1 50.8-22.4 79-12.5 10.6-31.8 13.3-53.2 10.3-25.7-3.7-36.6-6.5-43.6-11.6-18.3-13-31.2-66.5-20-87.8 7.8-14.7 17.7-51 27.1-54.1 7-2.4 25.7-3.8 40.4-12Z"/>
  <path stroke="#D1E8B2" stroke-width="19" d="M333.8 206.9a58 58 0 0 1 61.7 3.8c17.4 13.4 25.9 38.1 10.2 72.3-13.6 29.6 10.9 50.8-22.5 79-12.6 10.5-31.8 13.2-53.2 10.2-25.9-3.6-36.9-6.4-43.8-11.3-18.2-13-31-66.8-19.7-87.9 7.7-14.6 17.5-51.2 26.9-54.4 6.9-2.4 25.6-3.7 40.4-11.7Z"/>
  <path stroke="#D0E8B1" stroke-width="18.8" d="M333.8 206.8a58.3 58.3 0 0 1 61.7 4c17.4 13.5 25.9 38.1 10.2 72.2-13.5 29.6 10.8 50.8-22.4 78.8-12.6 10.6-31.9 13.4-53.3 10.4-26-3.6-37-6.3-43.9-11.3-18-12.8-30.6-66.8-19.5-87.8 7.6-14.4 17.3-51.5 26.7-54.7 6.8-2.3 25.6-3.6 40.5-11.6Z"/>
  <path stroke="#D0E8B0" stroke-width="18.7" d="M333.8 206.8c19-10 44.3-9.2 61.7 4.2 17.3 13.5 25.8 38 10.4 72.1-13.5 29.4 10.5 50.6-22.5 78.5-12.7 10.7-32 13.6-53.4 10.6-26.2-3.6-37-6.3-44-11.2-17.7-12.7-30.3-67-19.3-87.7 7.6-14.4 17.2-51.9 26.4-55 6.8-2.3 25.8-3.6 40.7-11.5Z"/>
  <path stroke="#CFE7AF" stroke-width="18.5" d="M333.8 206.7c19-10 44.3-9 61.6 4.5 17.4 13.4 25.9 38 10.6 71.9-13.3 29.4 10.3 50.6-22.6 78.4-12.6 10.7-32 13.6-53.4 10.7-26.3-3.6-37.2-6.3-44-11-17.7-12.7-30.1-67.3-19.2-87.8 7.5-14.2 17-52 26.2-55.2 6.7-2.3 25.7-3.6 40.8-11.5Z"/>
  <path stroke="#CEE7AE" stroke-width="18.4" d="M333.8 206.7c19.2-9.8 44.3-8.9 61.6 4.6 17.3 13.5 25.9 38 10.6 71.9-13.1 29.3 10.3 50.4-22.5 78.2-12.6 10.7-32 13.7-53.4 10.8-26.6-3.6-37.4-6.2-44.2-11-17.4-12.5-29.7-67.3-19-87.7 7.5-14.1 17-52.4 26-55.5 6.6-2.2 25.8-3.4 41-11.3Z"/>
  <path stroke="#CEE7AD" stroke-width="18.2" d="M333.8 206.7a58.9 58.9 0 0 1 61.6 4.7c17.3 13.5 25.8 38 10.8 71.8-13.1 29.2 10 50.4-22.6 78-12.7 10.8-32 13.9-53.5 11-26.7-3.6-37.6-6.1-44.2-11-17.4-12.3-29.6-67.4-18.8-87.6 7.3-14 16.7-52.6 25.6-55.7 6.7-2.2 26-3.5 41.1-11.2Z"/>
  <path stroke="#CDE6AC" stroke-width="18.1" d="M333.8 206.7a58.8 58.8 0 0 1 61.5 5c17.4 13.4 25.8 37.9 11 71.5-13 29.2 9.8 50.4-22.6 78-12.7 10.7-32 13.8-53.5 11-27-3.6-37.8-6.1-44.4-10.9-17.1-12.3-29.3-67.5-18.7-87.6 7.3-13.8 16.7-52.9 25.6-56 6.5-2.2 25.8-3.3 41.1-11Z"/>
  <path stroke="#CDE6AB" stroke-width="17.9" d="M333.8 206.6a59 59 0 0 1 61.5 5.2c17.3 13.4 25.8 37.9 11 71.4-12.8 29.2 9.7 50.3-22.5 77.7-12.7 10.9-32.1 14-53.6 11.2-27.1-3.5-37.8-6-44.4-10.7-17-12.2-29-67.7-18.5-87.6 7.2-13.6 16.5-53.1 25.2-56.1 6.5-2.3 26-3.4 41.3-11Z"/>
  <path stroke="#CCE6AA" stroke-width="17.8" d="M333.8 206.6a59.4 59.4 0 0 1 61.5 5.3c17.3 13.5 25.8 38 11.1 71.4-12.7 29 9.5 50.2-22.6 77.5-12.7 11-32 14-53.6 11.3-27.3-3.5-38-6-44.5-10.6-16.8-12-28.7-67.9-18.3-87.5 7.2-13.6 16.3-53.5 25-56.5 6.4-2.2 26-3.3 41.4-10.9Z"/>
  <path stroke="#CBE5A9" stroke-width="17.6" d="M333.8 206.6c19.3-9.4 44.2-8.1 61.5 5.4 17.2 13.6 25.7 38 11.3 71.3-12.6 29 9.2 50.1-22.6 77.4-12.9 10.9-32.2 14.2-53.8 11.4-27.4-3.5-38.1-6-44.5-10.5-16.7-12-28.5-68-18.2-87.5 7.1-13.4 16.1-53.7 24.8-56.7 6.3-2.2 26-3.3 41.5-10.8Z"/>
  <path stroke="#CBE5A8" stroke-width="17.4" d="M333.8 206.6c19.3-9.3 44.2-8 61.5 5.6 17.2 13.6 25.7 37.9 11.3 71.2-12.4 29 9.1 50-22.6 77.1-12.8 11-32.2 14.3-53.7 11.6-27.7-3.5-38.3-5.8-44.7-10.4-16.5-11.9-28.2-68.2-18-87.5 7-13.3 16-54 24.6-57 6.3-2.1 26-3.2 41.6-10.6Z"/>
  <path stroke="#CAE5A7" stroke-width="17.3" d="M333.8 206.5a59.8 59.8 0 0 1 61.4 5.8c17.3 13.6 25.7 38 11.6 71-12.4 29 8.9 50-22.7 77.1-12.8 11-32.2 14.3-53.8 11.6-27.8-3.4-38.5-5.7-44.7-10.2-16.4-11.8-28-68.4-17.9-87.4 7-13.3 15.9-54.4 24.3-57.3 6.3-2.1 26-3.2 41.8-10.6Z"/>
  <path stroke="#CAE5A6" stroke-width="17.1" d="M333.8 206.5a60 60 0 0 1 61.4 6c17.2 13.6 25.7 37.8 11.7 71-12.3 28.7 8.7 49.9-22.7 76.8-12.9 11-32.3 14.4-53.8 11.7-28-3.4-38.6-5.7-45-10.2-16-11.6-27.6-68.4-17.6-87.4 7-13 15.8-54.6 24.2-57.4 6-2.1 26-3.1 41.8-10.5Z"/>
  <path stroke="#C9E4A5" stroke-width="17" d="M333.8 206.4c19.4-8.9 44.2-7.4 61.4 6.3 17.1 13.6 25.7 37.8 11.7 70.7-12 28.8 8.6 50-22.6 76.7-13 11.1-32.4 14.6-54 12-28-3.5-38.6-5.8-44.9-10.2-16-11.5-27.3-68.6-17.4-87.3 6.8-13 15.5-54.9 23.8-57.8 6.1-2 26.1-3 42-10.4Z"/>
  <path stroke="#C8E4A4" stroke-width="16.8" d="M333.8 206.4a60.4 60.4 0 0 1 61.3 6.4c17.2 13.6 25.7 37.8 12 70.7-12.1 28.7 8.3 49.8-22.8 76.5-12.9 11-32.3 14.6-53.9 12-28.3-3.4-38.9-5.6-45-10-15.9-11.4-27.1-68.8-17.3-87.3 6.7-12.8 15.4-55.2 23.6-58 6-2 26-3 42-10.3Z"/>
  <path stroke="#C8E4A3" stroke-width="16.7" d="M333.8 206.4c19.5-8.8 44.2-7.1 61.3 6.5 17.2 13.7 25.6 37.8 12 70.6-11.8 28.7 8.3 49.8-22.7 76.3-12.9 11.1-32.3 14.7-54 12.2-28.5-3.4-39-5.6-45-10-15.8-11.2-27-68.8-17.2-87.2 6.7-12.6 15.2-55.4 23.4-58.2 6-2 26.1-3 42.2-10.2Z"/>
  <path stroke="#C7E3A2" stroke-width="16.5" d="M333.8 206.4c19.5-8.7 44.2-7 61.3 6.6 17.1 13.7 25.6 37.9 12.2 70.5-11.8 28.7 8 49.7-22.8 76.2-13 11.2-32.4 14.8-54 12.3-28.7-3.4-39.2-5.6-45.2-9.9-15.6-11.1-26.6-69-17-87.2 6.7-12.5 15.1-55.7 23.2-58.5 5.9-2 26-3 42.3-10Z"/>
  <path stroke="#C7E3A1" stroke-width="16.3" d="M333.8 206.3a61 61 0 0 1 61.3 7c17 13.6 25.6 37.7 12.2 70.2-11.7 28.7 7.9 49.7-22.7 76-13 11.2-32.5 15-54.1 12.5-28.8-3.4-39.3-5.5-45.3-9.7-15.4-11.1-26.3-69.3-16.8-87.2 6.6-12.5 15-56 23-58.8 5.8-2 26.1-2.9 42.4-10Z"/>
  <path stroke="#C6E3A0" stroke-width="16.2" d="M333.8 206.3a61.1 61.1 0 0 1 61.3 7c17 13.7 25.5 37.8 12.4 70.3-11.6 28.5 7.6 49.6-22.8 75.8-13 11.2-32.5 15-54.1 12.6-29.1-3.4-39.5-5.5-45.4-9.7-15.3-10.9-26.1-69.3-16.7-87.1 6.5-12.3 14.8-56.3 22.8-59 5.7-2 26.2-3 42.5-10Z"/>
  <path stroke="#C6E39F" stroke-width="16" d="M333.8 206.2a61.3 61.3 0 0 1 61.2 7.3c17 13.7 25.6 37.7 12.6 70.1-11.5 28.5 7.4 49.6-22.9 75.7-13 11.3-32.4 15-54.1 12.6-29.3-3.3-39.7-5.3-45.5-9.5-15-10.8-25.7-69.5-16.4-87.1C275 263 283.3 218.7 291 216c5.8-2 26.2-2.9 42.7-9.9Z"/>
  <path stroke="#C5E29E" stroke-width="15.9" d="M333.8 206.2a61.3 61.3 0 0 1 61.2 7.5c17 13.7 25.6 37.7 12.6 70C396.3 312 415 333 385 359c-13.1 11.3-32.6 15.2-54.3 12.8-29.4-3.3-39.8-5.3-45.6-9.4-15-10.7-25.4-69.6-16.2-87.1 6.4-12 14.4-56.8 22.2-59.5 5.7-2 26.3-2.8 42.8-9.7Z"/>
  <path stroke="#C4E29D" stroke-width="15.7" d="M333.8 206.2c19.7-8.1 44.2-6.1 61.2 7.6s25.6 37.7 12.8 69.9c-11.3 28.4 7 49.4-22.9 75.3-13 11.4-32.6 15.3-54.3 12.9-29.5-3.3-40-5.3-45.6-9.3-14.8-10.6-25.3-69.8-16-87 6.2-12 14.2-57.2 21.9-59.8 5.6-2 26.3-2.8 42.9-9.6Z"/>
  <path stroke="#C4E29C" stroke-width="15.6" d="M333.8 206.2c19.7-8 44.2-6 61.1 7.7 17 13.8 25.6 37.7 13 69.8-11.2 28.4 6.9 49.4-23 75.2-13 11.3-32.5 15.3-54.2 13-29.8-3.2-40-5.2-45.7-9.2-14.7-10.5-25-70-16-87 6.2-11.9 14.2-57.5 21.8-60.1 5.5-1.9 26.3-2.6 43-9.4Z"/>
  <path stroke="#C3E19B" stroke-width="15.4" d="M333.8 206.1a62.2 62.2 0 0 1 61.1 8c17 13.8 25.5 37.7 13 69.6-11 28.3 6.8 49.4-22.8 75-13.1 11.4-32.7 15.5-54.4 13.1-30-3.1-40.2-5.1-45.8-9-14.5-10.4-24.7-70.1-15.8-87 6.2-11.7 14-57.8 21.5-60.3 5.5-1.9 26.4-2.7 43.2-9.4Z"/>
  <path stroke="#C3E19A" stroke-width="15.3" d="M333.8 206.1a62.1 62.1 0 0 1 61 8.2c17 13.7 25.6 37.6 13.2 69.5-10.8 28.2 6.6 49.2-22.8 74.7-13.2 11.5-32.8 15.7-54.5 13.3-30-3.1-40.3-5-45.9-9-14.3-10.2-24.4-70.2-15.6-86.9 6.1-11.6 14-58 21.4-60.6 5.4-1.8 26.3-2.5 43.2-9.2Z"/>
  <path stroke="#C2E199" stroke-width="15.1" d="M333.8 206a62.5 62.5 0 0 1 61 8.4c17 13.8 25.6 37.6 13.4 69.4-10.8 28.1 6.3 49.2-23 74.6-13.2 11.5-32.7 15.7-54.5 13.4-30.3-3.1-40.5-5-46-8.9-14.1-10.1-24-70.4-15.3-86.9 6-11.4 13.6-58.3 21-60.8 5.4-1.8 26.4-2.5 43.4-9.2Z"/>
  <path stroke="#C1E098" stroke-width="14.9" d="M333.8 206a62.7 62.7 0 0 1 61 8.5c17 13.8 25.5 37.6 13.4 69.4-10.6 28 6.3 49-22.9 74.4-13.2 11.5-32.7 15.7-54.5 13.5-30.5-3.1-40.7-5-46-8.8-14-10-24-70.5-15.3-86.9 6-11.2 13.5-58.5 20.8-61 5.3-1.8 26.5-2.5 43.5-9Z"/>
  <path stroke="#C1E097" stroke-width="14.8" d="M333.8 206a62.8 62.8 0 0 1 61 8.7c17 13.8 25.5 37.6 13.6 69.2-10.6 28 6 49-23 74.3-13.3 11.5-32.8 15.8-54.6 13.6-30.6-3.1-40.8-4.9-46.1-8.8-14-9.8-23.7-70.6-15.1-86.8 5.9-11 13.4-58.8 20.6-61.2 5.2-1.8 26.4-2.5 43.6-9Z"/>
  <path stroke="#C0E096" stroke-width="14.6" d="M333.8 206a63 63 0 0 1 61 8.8c16.9 13.8 25.4 37.6 13.7 69.1-10.5 28 5.8 49-23 74.1-13.3 11.6-32.9 16-54.6 13.8-30.8-3.1-41-4.8-46.2-8.6-13.8-9.9-23.5-70.9-15-86.8 5.8-11 13.3-59.1 20.3-61.6 5.2-1.8 26.6-2.4 43.8-8.8Z"/>
  <path stroke="#C0E095" stroke-width="14.5" d="M333.8 206c20-7.4 44.1-5 61 9 16.8 13.8 25.4 37.5 13.7 69-10.3 27.9 5.7 48.9-23 73.9-13.2 11.6-32.8 16-54.6 13.9-31-3.1-41.1-4.8-46.3-8.6-13.6-9.7-23.1-71-14.8-86.7 5.8-11 13.1-59.4 20.1-61.8 5.2-1.8 26.5-2.4 43.9-8.8Z"/>
  <path stroke="#BFDF94" stroke-width="14.3" d="M333.8 206c20-7.3 44.1-4.7 61 9 16.8 14 25.4 37.7 13.9 69-10.2 27.9 5.4 48.8-23 73.7-13.4 11.7-33 16.2-54.8 14-31.2-3-41.2-4.7-46.4-8.4-13.4-9.6-22.8-71-14.5-86.7 5.7-10.8 13-59.6 19.9-62 5-1.8 26.5-2.4 43.9-8.7Z"/>
  <path stroke="#BEDF93" stroke-width="14.2" d="M333.8 205.8c20-7 44.1-4.4 61 9.5 16.8 13.9 25.3 37.5 14 68.7-10.1 27.8 5.3 48.8-23 73.6-13.4 11.7-33 16.2-54.9 14.1-31.3-3-41.4-4.7-46.4-8.3-13.3-9.5-22.6-71.3-14.4-86.7 5.6-10.6 12.8-60 19.6-62.3 5-1.7 26.6-2.3 44-8.6Z"/>
  <path stroke="#BEDF92" stroke-width="14" d="M333.8 205.8c20-7 44.1-4.3 60.9 9.6 16.8 13.9 25.3 37.5 14.2 68.7-10 27.7 5.1 48.7-23 73.4-13.4 11.7-33 16.3-54.9 14.2-31.5-3-41.6-4.6-46.6-8.2-13.1-9.4-22.3-71.4-14.3-86.6 5.6-10.6 12.7-60.3 19.5-62.6 5-1.7 26.6-2.3 44.2-8.5Z"/>
  <path stroke="#BDDE91" stroke-width="13.9" d="M333.8 205.8c20-7 44.1-4.1 60.9 9.7 16.7 14 25.3 37.5 14.2 68.6-9.8 27.6 5 48.6-23 73.2-13.4 11.8-33 16.4-54.9 14.4-31.7-3-41.7-4.5-46.7-8.1-12.9-9.3-22-71.6-14-86.7 5.5-10.3 12.5-60.5 19.2-62.8 4.8-1.6 26.6-2.2 44.3-8.3Z"/>
  <path stroke="#BDDE90" stroke-width="13.7" d="M333.8 205.8c20-6.9 44.1-4 60.9 10 16.7 13.9 25.3 37.4 14.4 68.3-9.8 27.6 4.7 48.6-23 73.1-13.6 11.8-33.2 16.5-55 14.5-32-3-41.9-4.5-46.8-8-12.7-9.2-21.8-71.7-13.9-86.6 5.5-10.3 12.3-60.8 19-63.1 4.8-1.6 26.6-2.2 44.4-8.2Z"/>
  <path stroke="#BCDE8F" stroke-width="13.5" d="M333.8 205.7a64.3 64.3 0 0 1 60.8 10.2c16.8 13.9 25.4 37.4 14.5 68.3-9.6 27.5 4.6 48.5-23 72.9-13.5 11.8-33.1 16.5-55 14.5-32-2.8-42-4.4-46.8-7.9-12.7-9-21.5-71.8-13.8-86.5 5.4-10.2 12.2-61 18.7-63.3 4.8-1.6 26.7-2.1 44.6-8.2Z"/>
  <path stroke="#BBDD8E" stroke-width="13.4" d="M333.8 205.7a64.5 64.5 0 0 1 60.8 10.3c16.7 14 25.3 37.4 14.7 68.2-9.5 27.5 4.4 48.5-23.2 72.7-13.4 11.9-33 16.7-55 14.7-32.2-2.8-42.1-4.4-46.9-7.8-12.4-9-21.2-72-13.5-86.5 5.2-10 12-61.4 18.4-63.6 4.7-1.6 26.8-2 44.7-8Z"/>
  <path stroke="#BBDD8D" stroke-width="13.2" d="M333.8 205.7a64.7 64.7 0 0 1 60.8 10.5c16.7 14 25.2 37.4 14.8 68-9.5 27.5 4.2 48.4-23.1 72.6-13.6 11.9-33.3 16.8-55.2 14.8-32.4-2.8-42.3-4.3-47-7.7-12.3-8.8-21-72.1-13.4-86.5 5.3-9.8 12-61.6 18.3-63.8 4.6-1.6 26.7-2 44.8-8Z"/>
  <path stroke="#BADD8C" stroke-width="13.1" d="M333.8 205.7a64.8 64.8 0 0 1 60.8 10.6c16.6 14 25.2 37.4 14.8 68-9.3 27.4 4 48.3-23 72.3-13.6 12-33.3 17-55.2 15-32.6-2.8-42.4-4.3-47.1-7.6-12.2-8.7-20.7-72.3-13.2-86.4 5.2-9.8 11.7-62 18-64.1 4.5-1.6 26.8-2 44.9-7.8Z"/>
  <path stroke="#BADD8B" stroke-width="12.9" d="M333.8 205.6a65.2 65.2 0 0 1 60.8 10.8c16.6 14 25.2 37.4 15 68-9.2 27.2 3.8 48.1-23.2 72-13.5 12.1-33.3 17-55.2 15.2-32.7-2.8-42.6-4.3-47.2-7.5-12-8.6-20.4-72.5-13-86.4 5-9.6 11.6-62.2 17.8-64.3 4.5-1.6 26.7-2 45-7.8Z"/>
  <path stroke="#B9DC8A" stroke-width="12.8" d="M333.8 205.6c20.2-6.4 44-3 60.7 11 16.7 14 25.2 37.3 15.1 67.7-9 27.3 3.8 48.2-23.1 72-13.6 12-33.3 17.1-55.2 15.3-33-2.8-42.8-4.2-47.4-7.5-11.8-8.4-20.1-72.5-12.8-86.3 5-9.5 11.4-62.5 17.5-64.6 4.5-1.5 26.9-2 45.2-7.6Z"/>
  <path stroke="#B8DC89" stroke-width="12.6" d="M333.8 205.5a65.5 65.5 0 0 1 60.7 11.3c16.6 14 25.2 37.3 15.3 67.6-9 27.1 3.5 48.1-23.2 71.8-13.6 12-33.4 17.2-55.3 15.4-33.2-2.8-43-4.2-47.4-7.4-11.6-8.3-19.9-72.7-12.7-86.3 5-9.4 11.3-62.7 17.3-64.8 4.4-1.5 26.9-2 45.3-7.6Z"/>
  <path stroke="#B8DC88" stroke-width="12.5" d="M333.8 205.5a65.7 65.7 0 0 1 60.7 11.4c16.6 14 25.2 37.3 15.3 67.5-8.8 27.1 3.4 48-23.1 71.6-13.7 12.2-33.4 17.3-55.4 15.5-33.3-2.7-43-4-47.5-7.2-11.5-8.2-19.6-72.9-12.4-86.3 4.8-9.2 11-63 17-65 4.3-1.6 26.9-2 45.4-7.5Z"/>
  <path stroke="#B7DB87" stroke-width="12.3" d="M333.8 205.5a66 66 0 0 1 60.6 11.5c16.6 14 25.3 37.3 15.6 67.4-8.8 27.1 3.1 48-23.3 71.5-13.6 12.2-33.4 17.4-55.4 15.6-33.4-2.6-43.1-4-47.5-7.1-11.3-8.1-19.4-73-12.4-86.3 5-9 11-63.3 17-65.3 4.2-1.4 26.8-1.8 45.4-7.3Z"/>
  <path stroke="#B7DB86" stroke-width="12.1" d="M333.8 205.5a66 66 0 0 1 60.6 11.7c16.6 14 25.2 37.3 15.7 67.2-8.6 27 3 48-23.2 71.4-13.8 12.2-33.6 17.5-55.5 15.7-33.7-2.6-43.3-4-47.6-7-11.2-8-19.1-73.2-12.2-86.2 4.7-9 10.8-63.7 16.6-65.7 4.2-1.4 26.9-1.7 45.6-7.1Z"/>
  <path stroke="#B6DB85" stroke-width="12" d="M333.8 205.4a66.4 66.4 0 0 1 60.6 12c16.5 14 25.1 37.2 15.8 67.1-8.5 27 2.8 48-23.3 71.2-13.7 12.2-33.5 17.5-55.5 15.8-33.8-2.6-43.5-3.9-47.7-7-11-7.8-18.8-73.3-12-86 4.7-9 10.6-64 16.4-66 4.1-1.4 27-1.7 45.7-7.1Z"/>
  <path stroke="#B5DA84" stroke-width="11.8" d="M333.7 205.4c20.5-5.8 44.2-2 60.7 12 16.5 14.2 25.1 37.3 15.9 67.1-8.4 27 2.6 47.8-23.3 71-13.8 12.2-33.5 17.7-55.5 16-34-2.6-43.7-3.8-47.9-6.9-10.8-7.7-18.5-73.4-11.8-86 4.6-8.9 10.5-64.3 16.1-66.2 4.1-1.4 27-1.7 45.8-7Z"/>
  <path stroke="#B5DA83" stroke-width="11.7" d="M333.7 205.3a67.2 67.2 0 0 1 60.7 12.3c16.5 14.1 25 37.2 16 67-8.3 26.8 2.4 47.7-23.4 70.7-13.7 12.4-33.5 17.8-55.5 16.2-34.2-2.6-43.8-3.8-48-6.8-10.7-7.6-18.2-73.6-11.6-86.1 4.6-8.6 10.4-64.4 15.9-66.3 4.1-1.4 27-1.8 45.9-7Z"/>
  <path stroke="#B4DA82" stroke-width="11.5" d="M333.7 205.3a67 67 0 0 1 60.6 12.5c16.5 14.1 25.2 37.2 16.2 66.8-8.2 26.8 2.2 47.7-23.3 70.6-13.8 12.3-33.7 17.9-55.7 16.3-34.4-2.5-43.9-3.8-48-6.7-10.5-7.5-18-73.7-11.5-86 4.5-8.5 10.2-64.8 15.7-66.7 4-1.3 27-1.6 46-6.8Z"/>
  <path stroke="#B4DA81" stroke-width="11.4" d="M333.7 205.3a67.3 67.3 0 0 1 60.6 12.6c16.4 14.1 25.1 37.2 16.2 66.7-8 26.7 2.2 47.7-23.3 70.5-13.8 12.4-33.6 18-55.7 16.4-34.5-2.6-44-3.8-48-6.6-10.5-7.4-17.8-74-11.4-86 4.5-8.4 10.1-65 15.5-66.9 4-1.3 27-1.7 46.1-6.7Z"/>
  <path stroke="#B3D980" stroke-width="11.2" d="M333.7 205.3a67.6 67.6 0 0 1 60.6 12.7c16.4 14.2 25 37.2 16.4 66.6-8 26.7 1.9 47.7-23.4 70.4-13.8 12.3-33.6 18-55.7 16.4-34.8-2.4-44.3-3.6-48.2-6.4-10.2-7.4-17.4-74-11.1-86 4.3-8.2 9.8-65.3 15.2-67.1 3.8-1.4 27-1.6 46.2-6.6Z"/>
  <path stroke="#B2D97F" stroke-width="11" d="M333.7 205.2a67.7 67.7 0 0 1 60.5 13c16.5 14.2 25.1 37.2 16.5 66.5-7.7 26.6 1.8 47.5-23.3 70.1-13.8 12.4-33.7 18.1-55.8 16.6-34.9-2.4-44.4-3.5-48.2-6.4-10.1-7.2-17.2-74.1-11-85.9 4.3-8 9.8-65.6 15-67.3 3.8-1.4 27-1.7 46.3-6.6Z"/>
  <path stroke="#B2D97E" stroke-width="10.9" d="M333.7 205.2c20.7-5.3 44.2-1 60.5 13.2 16.4 14.2 25 37 16.7 66.3-7.7 26.6 1.6 47.5-23.4 70-13.9 12.5-33.8 18.2-56 16.7-35-2.4-44.4-3.5-48.2-6.2-10-7.2-17-74.4-10.8-86 4.2-8 9.6-65.8 14.7-67.6 3.8-1.3 27.2-1.5 46.5-6.4Z"/>
  <path stroke="#B1D87D" stroke-width="10.7" d="M333.7 205.1a68.2 68.2 0 0 1 60.5 13.4c16.4 14.2 25 37.1 16.8 66.3-7.6 26.5 1.3 47.4-23.4 69.7a74.8 74.8 0 0 1-56 16.9c-35.2-2.4-44.6-3.5-48.4-6.2-9.7-7-16.6-74.5-10.6-85.8 4.2-8 9.5-66.2 14.5-68 3.7-1.2 27.2-1.4 46.6-6.3Z"/>
  <path stroke="#B1D87C" stroke-width="10.6" d="M333.7 205.1c20.8-5 44.1-.7 60.5 13.5 16.3 14.3 25 37.1 16.9 66.2-7.5 26.5 1.2 47.4-23.5 69.6-13.8 12.6-33.7 18.4-56 17-35.3-2.4-44.7-3.5-48.4-6.1-9.7-6.9-16.4-74.6-10.5-85.9 4.1-7.7 9.3-66.4 14.3-68.1 3.6-1.2 27.2-1.5 46.7-6.2Z"/>
  <path stroke="#B0D87B" stroke-width="10.4" d="M333.7 205c20.9-4.9 44.1-.4 60.5 13.8 16.3 14.2 25 37 17 66-7.3 26.4 1 47.4-23.5 69.4a75 75 0 0 1-56 17.1c-35.6-2.3-45-3.3-48.6-6-9.4-6.7-16.1-74.7-10.3-85.7 4-7.6 9.2-66.8 14.1-68.4 3.5-1.2 27.2-1.4 46.8-6.1Z"/>
  <path stroke="#AFD87A" stroke-width="10.3" d="M333.7 205a68.8 68.8 0 0 1 60.4 14c16.3 14.2 25 37 17.1 65.8-7.1 26.4 1 47.3-23.4 69.3a75.2 75.2 0 0 1-56 17.2c-35.8-2.3-45.2-3.2-48.8-5.8-9.2-6.7-15.7-75-10-85.8 3.9-7.5 9-67 13.8-68.7 3.5-1.1 27.2-1.4 46.9-6Z"/>
  <path stroke="#AFD779" stroke-width="10.1" d="M333.7 205c21-4.7 44.1-.2 60.4 14 16.3 14.4 25 37.1 17.3 65.9-7 26.3.7 47.2-23.5 69a75.6 75.6 0 0 1-56.1 17.4c-36-2.2-45.3-3.2-48.8-5.8-9.1-6.5-15.6-75-9.9-85.7 3.8-7.3 8.8-67.3 13.5-68.9 3.5-1.1 27.3-1.3 47.1-5.9Z"/>
  <path stroke="#AED778" stroke-width="10" d="M333.7 205c21-4.7 44.1 0 60.4 14.3 16.2 14.2 25 37 17.3 65.6-6.9 26.3.6 47.2-23.4 68.9a75.5 75.5 0 0 1-56.2 17.5c-36.1-2.2-45.3-3.2-48.8-5.7-9-6.4-15.4-75.2-9.8-85.7 3.8-7.2 8.7-67.5 13.3-69.1 3.4-1.2 27.4-1.4 47.2-5.8Z"/>
  <path stroke="#AED777" stroke-width="9.8" d="M333.7 205c21-4.7 44.1 0 60.3 14.4 16.3 14.3 25 37 17.6 65.6-6.9 26.2.3 47-23.5 68.7-14 12.7-34 19-56.3 17.6-36.3-2.2-45.5-3.2-48.9-5.6-8.8-6.3-15-75.3-9.6-85.6 3.8-7.2 8.5-67.9 13-69.4 3.4-1.2 27.4-1.4 47.4-5.8Z"/>
  <path stroke="#ADD676" stroke-width="9.6" d="M333.7 205c21-4.6 44.1.2 60.3 14.5 16.3 14.3 25 37 17.6 65.5-6.6 26 .2 47-23.5 68.5a76 76 0 0 1-56.3 17.8c-36.4-2.2-45.6-3.1-49-5.5-8.6-6.2-14.7-75.5-9.4-85.6 3.7-7 8.4-68.1 13-69.7 3.2-1.1 27.3-1.3 47.3-5.6Z"/>
  <path stroke="#ACD675" stroke-width="9.5" d="M333.7 204.9a70 70 0 0 1 60.3 14.8c16.2 14.3 25 37 17.8 65.3-6.7 26 0 47-23.6 68.4a75.7 75.7 0 0 1-56.3 17.9c-36.7-2.2-45.8-3-49.1-5.4-8.5-6.1-14.5-75.7-9.3-85.6 3.6-6.8 8.3-68.4 12.7-69.9 3.2-1 27.3-1.3 47.5-5.5Z"/>
  <path stroke="#ACD674" stroke-width="9.3" d="M333.7 204.9a70 70 0 0 1 60.3 15c16.2 14.3 24.9 36.9 17.9 65.1-6.6 26-.2 47-23.6 68.3a76.2 76.2 0 0 1-56.4 17.9c-36.8-2-46-3-49.2-5.3-8.3-6-14.2-75.7-9-85.5 3.5-6.7 8-68.6 12.4-70.1 3.1-1.1 27.4-1.2 47.6-5.4Z"/>
  <path stroke="#ABD573" stroke-width="9.2" d="M333.7 204.8c21.1-4.2 44.1.8 60.3 15.2 16.2 14.4 24.9 36.9 18 65-6.4 26-.4 47-23.6 68.2a76.3 76.3 0 0 1-56.4 18c-37-2-46.1-2.9-49.3-5.1-8.2-6-14-76-8.9-85.6 3.5-6.5 7.9-69 12.1-70.4 3.1-1 27.5-1.2 47.8-5.3Z"/>
  <path stroke="#ABD572" stroke-width="9" d="M333.7 204.8c21.1-4.2 44.1 1 60.2 15.3 16.2 14.4 25 37 18.2 65-6.3 26-.6 46.8-23.6 67.9a76.1 76.1 0 0 1-56.5 18.2c-37.2-2-46.3-2.8-49.3-5-8.1-5.9-13.8-76.2-8.8-85.5 3.4-6.5 7.7-69.3 12-70.7 3-1 27.4-1.2 47.8-5.2Z"/>
  <path stroke="#AAD571" stroke-width="8.9" d="M333.7 204.8a70.8 70.8 0 0 1 60.2 15.5c16.1 14.4 25 36.9 18.2 64.8-6 26-.7 46.8-23.5 67.7a76.8 76.8 0 0 1-56.6 18.4c-37.3-2-46.4-2.8-49.4-5-7.9-5.6-13.5-76.2-8.6-85.4 3.3-6.4 7.6-69.6 11.7-71 3-1 27.5-1 48-5Z"/>
  <path stroke="#A9D570" stroke-width="8.7" d="M333.7 204.8c21.2-4 44.1 1.2 60.2 15.6s24.9 36.9 18.4 64.7c-6 25.9-1 46.7-23.7 67.6a76.7 76.7 0 0 1-56.6 18.4c-37.5-1.9-46.5-2.7-49.5-4.8-7.7-5.5-13.1-76.4-8.4-85.4 3.3-6.2 7.5-69.8 11.5-71.2 2.9-1 27.5-1 48.1-5Z"/>
  <path stroke="#A9D46F" stroke-width="8.6" d="M333.7 204.7c21.2-4 44.1 1.5 60.1 15.8 16.2 14.5 24.9 37 18.5 64.7-5.8 25.8-1 46.6-23.6 67.4a76.7 76.7 0 0 1-56.6 18.5c-37.8-1.9-46.7-2.7-49.6-4.7-7.6-5.4-13-76.6-8.2-85.4 3.2-6 7.3-70 11.2-71.4 2.8-1 27.5-1.1 48.2-5Z"/>
  <path stroke="#A8D46E" stroke-width="8.4" d="M333.7 204.7c21.2-3.9 44 1.6 60.1 16s24.9 36.8 18.7 64.5c-5.8 25.8-1.3 46.6-23.7 67.2a77.1 77.1 0 0 1-56.7 18.7c-37.9-1.9-46.9-2.6-49.7-4.7-7.4-5.2-12.6-76.6-8-85.3 3.1-5.9 7.1-70.3 11-71.7 2.8-1 27.6-1 48.3-4.7Z"/>
  <path stroke="#A8D46D" stroke-width="8.2" d="M333.7 204.6c21.3-3.7 44 1.8 60 16.3 16.1 14.4 25 36.8 18.9 64.4-5.7 25.6-1.4 46.5-23.7 67a77.3 77.3 0 0 1-56.7 18.8c-38.1-1.8-47-2.5-49.9-4.6-7.2-5.1-12.3-76.8-7.9-85.3 3.1-5.7 7.1-70.6 10.8-71.9 2.8-1 27.6-1 48.5-4.7Z"/>
  <path stroke="#A7D36C" stroke-width="8.1" d="M333.7 204.6c21.3-3.7 44 2 60 16.4a64.7 64.7 0 0 1 19 64.3C407 310.9 411 331.8 389 352a77 77 0 0 1-56.8 19c-38.2-1.8-47.2-2.5-50-4.5-7-5-12-77-7.6-85.2 3-5.8 6.8-71 10.5-72.2 2.7-1 27.7-1 48.6-4.6Z"/>
  <path stroke="#A6D36B" stroke-width="7.9" d="M333.7 204.6c21.4-3.6 44 2 60 16.5a65.3 65.3 0 0 1 19 64.2c-5.4 25.5-1.7 46.4-23.7 66.7a77.3 77.3 0 0 1-56.8 19c-38.4-1.7-47.3-2.4-50-4.3-6.9-5-11.8-77.1-7.5-85.2 3-5.6 6.7-71.2 10.3-72.4 2.6-1 27.6-1 48.7-4.5Z"/>
  <path stroke="#A6D36A" stroke-width="7.8" d="M333.7 204.6c21.4-3.6 44 2.2 60 16.7a65.2 65.2 0 0 1 19.1 64c-5.2 25.5-1.9 46.4-23.6 66.6a77.8 77.8 0 0 1-57 19.2c-38.6-1.8-47.4-2.5-50-4.3-6.8-4.8-11.5-77.3-7.4-85.2 3-5.4 6.6-71.5 10-72.7 2.6-.9 27.8-1 48.9-4.3Z"/>
  <path stroke="#A5D269" stroke-width="7.6" d="M333.7 204.5c21.4-3.4 44 2.4 60 17a65.7 65.7 0 0 1 19.3 64c-5.2 25.3-2.1 46.2-23.8 66.2a77.6 77.6 0 0 1-57 19.3c-38.7-1.7-47.5-2.3-50-4.1-6.7-4.8-11.3-77.4-7.2-85.2 2.7-5.3 6.3-71.7 9.8-72.9 2.5-.9 27.7-1 48.9-4.3Z"/>
  <path stroke="#A5D268" stroke-width="7.5" d="M333.7 204.5a73 73 0 0 1 60 17 65.8 65.8 0 0 1 19.3 64c-5 25.3-2.2 46.1-23.7 66.1a78 78 0 0 1-57 19.4c-39-1.7-47.7-2.2-50.2-4-6.5-4.7-11-77.6-7-85.1 2.7-5.2 6.2-72.1 9.6-73.2 2.4-.9 27.7-1 49-4.2Z"/>
  <path stroke="#A4D267" stroke-width="7.3" d="M333.7 204.4c21.5-3.2 44 2.8 60 17.4a66.2 66.2 0 0 1 19.5 63.7c-5 25.3-2.5 46.1-23.8 66a77.8 77.8 0 0 1-57 19.5c-39.2-1.7-48-2.2-50.4-4-6.3-4.5-10.7-77.7-6.8-85 2.6-5 6-72.4 9.3-73.5 2.4-.8 27.8-.9 49.2-4Z"/>
  <path stroke="#A3D266" stroke-width="7.1" d="M333.7 204.4c21.5-3.2 44 3 60 17.5a66.3 66.3 0 0 1 19.5 63.6c-4.8 25.3-2.6 46.1-23.7 65.8a78.3 78.3 0 0 1-57.1 19.7c-39.3-1.6-48-2.2-50.4-4-6.2-4.3-10.5-77.7-6.7-85 2.6-4.9 6-72.6 9.1-73.7 2.3-.7 27.9-.8 49.3-3.9Z"/>
  <path stroke="#A3D165" stroke-width="7" d="M333.7 204.4c21.6-3.1 44 3 59.9 17.6a66.7 66.7 0 0 1 19.8 63.5c-4.7 25.2-2.9 46-23.9 65.7a78 78 0 0 1-57 19.7c-39.6-1.5-48.3-2-50.6-3.7-6-4.3-10.2-78-6.5-85 2.6-4.8 5.8-72.9 8.9-74 2.3-.8 27.8-.8 49.4-3.8Z"/>
  <path stroke="#A2D164" stroke-width="6.8" d="M333.7 204.3a74 74 0 0 1 59.9 17.9 67.2 67.2 0 0 1 19.9 63.3c-4.6 25.2-3 46-23.9 65.5a78.2 78.2 0 0 1-57.2 20c-39.6-1.6-48.3-2.1-50.6-3.7-5.7-4.2-9.9-78.2-6.3-85 2.5-4.7 5.6-73.2 8.6-74.2 2.3-.8 28-.8 49.6-3.8Z"/>
  <path stroke="#A2D163" stroke-width="6.7" d="M333.6 204.3a74.2 74.2 0 0 1 60 18 67.2 67.2 0 0 1 20 63.3c-4.5 25.1-3.2 46-23.9 65.3a78.6 78.6 0 0 1-57.2 20c-39.9-1.4-48.5-2-50.7-3.6-5.7-4-9.7-78.2-6.2-84.8 2.4-4.6 5.5-73.5 8.5-74.5 2-.7 27.8-.8 49.5-3.7Z"/>
  <path stroke="#A1D062" stroke-width="6.5" d="M333.6 204.2a74.5 74.5 0 0 1 60 18.3 67.7 67.7 0 0 1 20 63.1c-4.3 25-3.3 46-23.8 65.2a79 79 0 0 1-57.3 20.1c-40-1.4-48.6-2-50.7-3.4-5.6-4-9.5-78.5-6-85 2.3-4.4 5.3-73.7 8.1-74.7 2.1-.7 28-.7 49.7-3.6Z"/>
  <path stroke="#A0D061" stroke-width="6.4" d="M333.6 204.2a74.8 74.8 0 0 1 60 18.4 68 68 0 0 1 20.1 63c-4.2 25-3.4 46-23.8 65a78.3 78.3 0 0 1-57.4 20.3c-40.1-1.4-48.7-1.9-50.8-3.4-5.4-3.8-9.1-78.6-5.8-84.8 2.3-4.4 5.2-74 8-75 2-.7 28-.7 49.7-3.5Z"/>
  <path stroke="#A0D060" stroke-width="6.2" d="M333.6 204.2c21.9-2.7 44.1 4 60 18.6a68.4 68.4 0 0 1 20.3 62.9c-4.1 25-3.7 45.7-23.9 64.8a79 79 0 0 1-57.5 20.4c-40.3-1.4-48.9-1.8-50.9-3.3-5.2-3.7-8.8-78.7-5.6-84.8 2.2-4.2 5-74.3 7.7-75.2 2-.7 28-.7 50-3.4Z"/>
  <path stroke="#9FD05F" stroke-width="6.1" d="M333.6 204.2a75.2 75.2 0 0 1 59.9 18.7 68.4 68.4 0 0 1 20.4 62.8c-4 24.9-3.8 45.7-23.8 64.6a79.2 79.2 0 0 1-57.5 20.6c-40.6-1.4-49.1-1.8-51-3.2-5-3.6-8.6-78.9-5.5-84.8 2.1-4 4.9-74.6 7.5-75.5 1.9-.6 28-.7 50-3.2Z"/>
  <path stroke="#9FCF5E" stroke-width="5.9" d="M333.6 204.1c22-2.4 44 4.3 59.9 19a69 69 0 0 1 20.6 62.6c-3.9 24.9-4 45.7-24 64.5a79.3 79.3 0 0 1-57.5 20.7c-40.7-1.4-49.2-1.8-51-3.1-5-3.5-8.4-79-5.4-84.8 2.1-3.9 4.7-74.8 7.2-75.7 1.9-.6 28.2-.6 50.2-3.2Z"/>
  <path stroke="#9ECF5D" stroke-width="5.7" d="M333.6 204.1c22-2.4 44 4.4 59.8 19a69.3 69.3 0 0 1 20.8 62.7c-3.8 24.7-4.2 45.6-24 64.3a79.4 79.4 0 0 1-57.5 20.7c-41-1.2-49.4-1.7-51.3-3-4.6-3.3-8-79.1-5-84.6 2-3.8 4.5-75.2 7-76 1.8-.6 28-.6 50.2-3Z"/>
  <path stroke="#9DCF5C" stroke-width="5.6" d="M333.6 204a76 76 0 0 1 59.8 19.4 69.5 69.5 0 0 1 20.9 62.4c-3.6 24.7-4.4 45.6-24 64a79.3 79.3 0 0 1-57.6 21c-41-1.2-49.5-1.6-51.3-2.9-4.6-3.3-7.8-79.3-5-84.6 2-3.7 4.5-75.5 6.8-76.2 1.8-.7 28.2-.7 50.4-3Z"/>
  <path stroke="#9DCE5B" stroke-width="5.4" d="M333.6 204c22-2.2 44 4.8 59.8 19.5a70 70 0 0 1 21 62.4c-3.5 24.6-4.6 45.5-24 63.9a79.7 79.7 0 0 1-57.7 21c-41.2-1.2-49.7-1.5-51.3-2.7-4.4-3.3-7.5-79.5-4.8-84.7 1.8-3.6 4.2-75.7 6.5-76.5 1.7-.5 28.1-.5 50.5-2.9Z"/>
  <path stroke="#9CCE5A" stroke-width="5.3" d="M333.6 204c22-2.1 44 5 59.7 19.6a70.3 70.3 0 0 1 21.2 62.3c-3.4 24.6-4.7 45.4-24 63.7a79.9 79.9 0 0 1-57.8 21.2c-41.4-1.1-49.8-1.5-51.4-2.7-4.2-3-7.2-79.6-4.6-84.6 1.8-3.4 4.1-76 6.3-76.8 1.6-.5 28.2-.5 50.6-2.7Z"/>
  <path stroke="#9CCE59" stroke-width="5.1" d="M333.6 204c22-2 44 5 59.7 19.8a70.5 70.5 0 0 1 21.3 62.1c-3.3 24.6-4.9 45.4-24 63.6a80 80 0 0 1-57.8 21.2c-41.6-1-50-1.4-51.5-2.5-4.2-3-7-79.8-4.5-84.6 1.8-3.3 4-76.2 6-77 1.6-.5 28.3-.5 50.8-2.6Z"/>
  <path stroke="#9BCD58" stroke-width="5" d="M333.6 204c22.1-2 44 5.2 59.7 20a70.8 70.8 0 0 1 21.3 62c-3 24.4-5 45.3-24 63.4a80 80 0 0 1-57.8 21.3c-41.7-1-50-1.4-51.6-2.4-4-2.8-6.7-80-4.3-84.6 1.7-3.1 3.8-76.5 5.8-77.2 1.6-.5 28.3-.5 51-2.6Z"/>
  <path stroke="#9ACD57" stroke-width="4.8" d="M333.6 204a77 77 0 0 1 59.7 20 71.4 71.4 0 0 1 21.5 62c-3 24.4-5.3 45.3-24.1 63.2a80.2 80.2 0 0 1-57.8 21.5c-42-1-50.3-1.3-51.8-2.3-3.8-2.7-6.4-80.1-4-84.5 1.5-3 3.6-76.9 5.6-77.5 1.4-.6 28.2-.5 51-2.5Z"/>
  <path stroke="#9ACD56" stroke-width="4.7" d="M333.6 203.9c22.2-1.8 44 5.5 59.7 20.3a71.7 71.7 0 0 1 21.5 61.8c-2.8 24.4-5.4 45.3-24 63a80.2 80.2 0 0 1-58 21.7c-42-1-50.3-1.2-51.7-2.3-3.6-2.5-6.2-80.2-4-84.4 1.6-2.9 3.6-77.1 5.4-77.8 1.4-.4 28.3-.4 51.1-2.3Z"/>
  <path stroke="#99CD55" stroke-width="4.5" d="M333.6 203.9c22.2-1.8 44 5.7 59.6 20.5A72 72 0 0 1 415 286c-2.8 24.4-5.6 45.2-24.1 63a80.5 80.5 0 0 1-58 21.7c-42.3-1-50.6-1.2-51.8-2.2-3.5-2.4-6-80.3-3.8-84.4 1.4-2.8 3.3-77.4 5.1-78 1.3-.4 28.3-.4 51.2-2.2Z"/>
  <path stroke="#99CC54" stroke-width="4.3" d="M333.6 203.8a78 78 0 0 1 59.6 20.7 72.7 72.7 0 0 1 21.9 61.5c-2.7 24.3-5.8 45.2-24.1 62.8a80.4 80.4 0 0 1-58 21.9c-42.5-1-50.7-1.2-52-2-3.3-2.4-5.7-80.6-3.6-84.4 1.4-2.7 3.1-77.8 4.9-78.3 1.3-.5 28.4-.5 51.3-2.2Z"/>
  <path stroke="#98CC53" stroke-width="4.2" d="M333.6 203.8c22.3-1.6 44 6 59.6 20.9a73 73 0 0 1 22 61.4c-2.5 24.2-6 45-24.2 62.6a80.8 80.8 0 0 1-58 22c-42.7-1-50.9-1.2-52-2-3.2-2.3-5.5-80.7-3.5-84.3 1.3-2.6 3-78 4.6-78.6 1.3-.4 28.5-.3 51.5-2Z"/>
  <path stroke="#97CC52" stroke-width="4" d="M333.6 203.7c22.3-1.5 44 6.3 59.5 21.2a73.3 73.3 0 0 1 22.2 61.2c-2.5 24.2-6.1 45-24.1 62.4a81.2 81.2 0 0 1-58.2 22.2c-42.8-.8-51-1.1-52.1-2-3-2-5.2-80.7-3.3-84.3 1.3-2.3 2.9-78.2 4.4-78.7 1.2-.4 28.5-.4 51.6-2Z"/>
  <path stroke="#97CB51" stroke-width="3.9" d="M333.6 203.7c22.4-1.4 44 6.4 59.5 21.3a73.7 73.7 0 0 1 22.3 61.2c-2.3 24-6.3 45-24.2 62.2a81 81 0 0 1-58.1 22.2c-43-.8-51.2-1-52.3-1.7-2.8-2-4.8-81-3-84.3 1.1-2.3 2.7-78.6 4.2-79 1-.4 28.4-.4 51.6-1.9Z"/>
  <path stroke="#96CB50" stroke-width="3.7" d="M333.6 203.7a79 79 0 0 1 59.5 21.4 74.3 74.3 0 0 1 22.4 61c-2.2 24.2-6.5 45-24.2 62.1a81 81 0 0 1-58.2 22.4c-43.2-.7-51.3-1-52.4-1.6-2.6-2-4.5-81.2-2.9-84.3 1.2-2.1 2.6-78.8 4-79.3 1-.3 28.5-.3 51.8-1.7Z"/>
  <path stroke="#96CB4F" stroke-width="3.6" d="M333.6 203.7c22.4-1.3 44 6.7 59.5 21.6a74.3 74.3 0 0 1 22.4 61c-2 23.9-6.6 44.8-24.2 61.8a81.1 81.1 0 0 1-58.2 22.5c-43.4-.7-51.5-.9-52.4-1.6-2.5-1.8-4.3-81.2-2.7-84.2 1-2 2.4-79 3.7-79.5 1-.4 28.5-.3 52-1.6Z"/>
  <path stroke="#95CA4E" stroke-width="3.4" d="M333.6 203.6c22.5-1.2 44 7 59.5 21.8a75.2 75.2 0 0 1 22.6 60.8c-2 24-6.8 44.9-24.2 61.8a81.5 81.5 0 0 1-58.4 22.6c-43.5-.7-51.5-.8-52.4-1.5-2.4-1.7-4-81.4-2.7-84.1 1-2 2.4-79.4 3.6-79.9.9-.3 28.5-.2 52-1.5Z"/>
  <path stroke="#94CA4D" stroke-width="3.3" d="M333.6 203.6c22.5-1.1 44 7 59.4 22a75.4 75.4 0 0 1 22.7 60.7c-1.7 23.9-6.9 44.8-24.2 61.5a81.6 81.6 0 0 1-58.3 22.8c-43.7-.6-51.8-.8-52.6-1.4-2.2-1.6-3.8-81.5-2.4-84.1 1-1.8 2-79.7 3.2-80 .9-.3 28.7-.3 52.2-1.5Z"/>
  <path stroke="#94CA4C" stroke-width="3.1" d="M333.6 203.5c22.6-1 44 7.3 59.4 22.2a76 76 0 0 1 22.9 60.6c-1.7 23.8-7.2 44.7-24.3 61.4a81.6 81.6 0 0 1-58.4 22.9c-43.9-.6-51.9-.8-52.7-1.3-2-1.5-3.5-81.7-2.2-84 .9-1.8 2-80 3-80.4.8-.3 28.6-.3 52.3-1.4Z"/>
  <path stroke="#93CA4B" stroke-width="2.9" d="M333.6 203.5c22.6-1 44 7.4 59.4 22.4a76.5 76.5 0 0 1 23 60.5c-1.5 23.7-7.3 44.6-24.3 61.1a82 82 0 0 1-58.5 23c-44-.5-52-.7-52.7-1.2-2-1.3-3.2-81.8-2-84 .7-1.5 1.7-80.2 2.8-80.5.7-.3 28.6-.3 52.3-1.3Z"/>
  <path stroke="#93C94A" stroke-width="2.8" d="M333.6 203.5c22.6-.9 44 7.5 59.3 22.5a77 77 0 0 1 23.2 60.4c-1.5 23.7-7.5 44.6-24.3 61a82.1 82.1 0 0 1-58.6 23.2c-44.2-.6-52.1-.7-52.8-1.1-1.7-1.3-3-82-1.8-84 .7-1.4 1.6-80.6 2.5-80.9.7-.2 28.7-.2 52.5-1.1Z"/>
  <path stroke="#92C949" stroke-width="2.6" d="M333.6 203.5c22.7-.8 44 7.7 59.3 22.6a77.6 77.6 0 0 1 23.3 60.3c-1.3 23.7-7.7 44.5-24.3 60.8a82 82 0 0 1-58.6 23.3c-44.4-.5-52.3-.5-53-1-1.5-1.1-2.6-82.1-1.6-84 .6-1.2 1.5-80.7 2.3-81 .6-.2 28.7-.2 52.6-1Z"/>
  <path stroke="#91C948" stroke-width="2.5" d="M333.6 203.4c22.7-.7 44 7.9 59.3 23a77.8 77.8 0 0 1 23.4 60c-1.1 23.7-7.8 44.5-24.4 60.7a82.2 82.2 0 0 1-58.6 23.4c-44.5-.4-52.4-.5-53-1-1.4-1-2.4-82.2-1.6-83.8.7-1.2 1.5-81 2.2-81.3.5-.2 28.7-.2 52.7-1Z"/>
  <path stroke="#91C847" stroke-width="2.3" d="M333.6 203.4c22.8-.6 44 8 59.3 23a78.7 78.7 0 0 1 23.5 60.1c-1 23.5-8 44.4-24.3 60.5a82.3 82.3 0 0 1-58.8 23.5c-44.7-.4-52.6-.5-53-.8-1.3-1-2.2-82.4-1.4-84 .5-1 1.2-81.3 1.8-81.5.6-.2 28.9-.2 53-.8Z"/>
  <path stroke="#90C846" stroke-width="2.2" d="M333.6 203.3c22.8-.5 44 8.3 59.3 23.3a79.3 79.3 0 0 1 23.5 59.9 86 86 0 0 1-24.3 60.4 82.4 82.4 0 0 1-58.7 23.5c-45-.2-52.8-.4-53.2-.6-1.1-.8-1.9-82.6-1.2-83.9.5-.9 1.1-81.6 1.6-81.9.5 0 28.8 0 53-.7Z"/>
  <path stroke="#90C845" stroke-width="2" d="M333.6 203.3c22.8-.5 44 8.4 59.2 23.4a79.7 79.7 0 0 1 23.8 59.9 85.5 85.5 0 0 1-24.4 60 82.4 82.4 0 0 1-58.8 23.8c-45-.2-53-.3-53.2-.5-1-.8-1.6-82.8-1-83.9.3-.7.8-81.9 1.3-82 .4-.2 28.9-.1 53.1-.7Z"/>
  <path stroke="#8FC744" stroke-width="1.8" d="M333.6 203.3c22.9-.4 44 8.5 59.2 23.6 15.2 15 24.5 36 23.9 59.7a85.5 85.5 0 0 1-24.4 60 82.8 82.8 0 0 1-58.9 23.8c-45.2-.2-53-.2-53.3-.5-.8-.6-1.4-82.8-.8-83.8.3-.6.7-82.2 1.1-82.3.3 0 28.9 0 53.2-.5Z"/>
  <path stroke="#8EC743" stroke-width="1.7" d="M333.6 203.3a81 81 0 0 1 83.1 83.4 85 85 0 0 1-24.3 59.7 83 83 0 0 1-59 24 2163 2163 0 0 1-53.4-.4c-.6-.4-1-83-.7-83.8.3-.5.7-82.4 1-82.5.2-.1 28.9-.1 53.3-.4Z"/>
  <path stroke="#8EC742" stroke-width="1.5" d="M333.6 203.2c23-.2 44 8.9 59.2 24 15.2 15 24.5 36 24 59.4a82.7 82.7 0 0 1-83.4 83.7c-45.5 0-53.2 0-53.4-.2-.5-.3-.8-83.2-.5-83.7.1-.4.4-82.8.7-82.9.2 0 29 0 53.4-.3Z"/>
  <path stroke="#8DC741" stroke-width="1.4" d="M333.6 203.2a82.4 82.4 0 0 1 83.4 83.5 82.9 82.9 0 0 1-83.5 83.7c-45.8 0-53.5-.2-53.6-.2-.3-.2-.5-83.3-.3-83.7l.4-83.1c.2 0 29 0 53.6-.2Z"/>
  <path stroke="#8DC640" stroke-width="1.2" d="M333.6 203.1a83 83 0 0 1 83.5 83.6 83.2 83.2 0 0 1-83.5 83.7c-46 0-53.7-.1-53.8-.2 0 0-.2-83.4 0-83.6l.1-83.3s29 0 53.7-.2Z"/>
  <path stroke="#8CC63F" stroke-width="1.1" d="M417.1 286.8a83.3 83.3 0 0 1-83.6 83.6h-53.7V203h53.8a83.5 83.5 0 0 1 83.5 83.7Z"/>
  <path fill="#001A35" fill-rule="evenodd" d="M152.6 430.8c8.3 0 12 4.8 12.6 8.7h3.3v-29.3c0-.5.4-1 1-1h5.3c.5 0 1 .5 1 1v66.4c0 .6-.5 1-1 1h-5.4c-.5 0-1-.4-1-1v-6.4h-3.2c-.7 3.9-4.3 8.7-12.6 8.7-12.6 0-20.6-10.3-20.6-23.4v-1.4c0-13 8-23.3 20.6-23.3Zm1.5 41.8c9.1 0 14.4-6.6 14.4-17V454c0-10.5-5.3-17-14.4-17-9 0-14.6 6.5-14.6 17v1.4c0 10.5 5.7 17 14.6 17ZM211.3 430.8c14.7 0 22 10.3 22 23.3v1c0 .6-.5 1-1 1h-35.5c.2 10.1 5.7 16.7 14.5 16.7 6.5 0 10.8-3.5 13.1-9.3.2-.4.6-.6 1-.6h5.7c.6 0 1 .6.8 1.2-2.7 8.8-9.3 14.8-20.6 14.8-14.5 0-21.8-10.3-21.8-23.4v-1.4c0-13 7.3-23.3 21.8-23.3Zm0 6.2c-7.9 0-13.2 5-14.3 13.4h28.7c-1.1-8.3-6.4-13.4-14.4-13.4Z" clip-rule="evenodd"/>
  <path fill="#001A35" d="M261.5 466.7c1.6 5.1 1.5 5.6 1.5 8.2h3.3c0-2.6-.2-3.2 1.4-8.2l10.9-34c0-.4.5-.6.9-.6h6.1c.7 0 1.2.6 1 1.2L272.1 477c-.1.3-.4.7-.9.7h-13.4c-.4 0-.7-.4-.8-.7l-14.4-43.7c-.2-.6.3-1.2 1-1.2h6.1c.4 0 .8.2.9.6l10.8 34ZM405.4 471.2v-32.8h-13.6a1 1 0 0 1-1-1V433c0-.5.5-1 1-1h20c.5 0 1 .5 1 1v38.2H429c.5 0 1 .5 1 1v4.4c0 .6-.5 1-1 1h-40c-.6 0-1-.4-1-1v-4.4c0-.5.4-1 1-1h16.3Zm3.7-62c3.7 0 7 3.8 6 8a6.2 6.2 0 0 1-4.6 4.7 6.5 6.5 0 0 1-8-6.2c0-3.5 3-6.4 6.6-6.4ZM446.6 433v5.8h3.3c2.3-6.5 8.3-8 12.9-8 12.4 0 18.4 8 18.4 21.1v24.7c0 .6-.4 1-1 1H475a1 1 0 0 1-1-1V452c0-10.4-5.7-14.8-13.7-14.8-9.3 0-13.6 5.5-13.6 16v23.5c0 .6-.4 1-1 1h-5.3c-.6 0-1-.4-1-1V433c0-.5.4-1 1-1h5.3c.6 0 1 .5 1 1ZM376.5 452v24.7c0 .5-.4 1-1 1h-5.3a1 1 0 0 1-1-1V452c0-10.6-5.6-15-13.6-15-9.4 0-13.7 5.7-13.7 16.1v24.6h-7.3V452c0-10.6-5.7-15-13.7-15-9.3 0-13.6 5.7-13.6 16.1v23.6c0 .5-.5 1-1 1h-5.4a1 1 0 0 1-1-1V433c0-.5.5-1 1-1h5.4c.5 0 1 .5 1 1v5.8h3.2c2.4-6.5 8.3-8 13-8 7.4 0 12.5 2.9 15.4 8h3.7c2-5.3 7.1-8 15.5-8 12.4 0 18.4 8 18.4 21.2Z"/>
  <path fill="#001A35" fill-rule="evenodd" d="M514.6 430.8c8.3 0 12 4.8 12.6 8.7h3.3v-29.3c0-.5.4-1 1-1h5.2c.6 0 1 .5 1 1v66.4c0 .6-.4 1-1 1h-5.3c-.5 0-1-.4-1-1v-6.4h-3.2c-.8 3.9-4.3 8.7-12.6 8.7-12.7 0-20.6-10.3-20.6-23.4v-1.4c0-13 7.9-23.3 20.6-23.3Zm1.4 41.8c9.1 0 14.5-6.6 14.5-17V454c0-10.5-5.4-17-14.5-17-9 0-14.6 6.5-14.6 17v1.4c0 10.5 5.7 17 14.6 17Z" clip-rule="evenodd"/>
</svg>
