<svg width="186" height="186" viewBox="0 0 186 186" fill="none" xmlns="http://www.w3.org/2000/svg">
<path d="M62.8389 88.3309C62.2646 87.7566 61.2421 87.2878 60.243 87.2878C57.732 87.2878 56.4751 89.0341 56.4751 91.9493V94.7796C56.4751 97.6949 57.7525 99.4617 60.3924 99.4617C61.4354 99.4617 62.6074 98.9518 63.2022 98.2047V99.2917H66.2464V83.3266H62.8418V88.328L62.8389 88.3309ZM62.8389 95.4623C62.4345 95.9311 61.9247 96.2505 61.327 96.2505C60.3279 96.2505 59.8797 95.6557 59.8797 94.3782V92.3771C59.8797 91.1202 60.3279 90.5049 61.327 90.5049C61.9218 90.5049 62.4345 90.8037 62.8389 91.2725V95.4652V95.4623Z" fill="url(#paint0_linear_906_47)"/>
<path d="M72.1649 87.2878C68.8658 87.2878 67.269 89.119 67.269 92.0343V94.8001C67.269 97.6744 68.8658 99.4616 72.1649 99.4616C75.464 99.4616 77.0608 97.6744 77.0608 94.8001V92.0343C77.0608 89.119 75.464 87.2878 72.1649 87.2878ZM73.6563 94.6537C73.6563 95.9106 73.3164 96.5054 72.1649 96.5054C71.0135 96.5054 70.6736 95.9106 70.6736 94.6537V92.1193C70.6736 90.8213 71.034 90.2471 72.1649 90.2471C73.2959 90.2471 73.6563 90.8213 73.6563 92.1193V94.6537Z" fill="url(#paint1_linear_906_47)"/>
<path d="M83.7149 96.4643C83.0761 96.4643 82.6308 96.145 82.6308 95.5707V90.1855H85.6105V87.4607H82.6308V84.9498L79.3112 85.2896V87.4607H77.3745V90.1855H79.2262V95.3568C79.2262 97.7623 80.1843 99.4646 83.123 99.4646C84.2071 99.4646 85.1652 99.1892 86.0617 98.612L85.2941 96.186C84.7608 96.3559 84.295 96.4614 83.7178 96.4614L83.7149 96.4643Z" fill="url(#paint2_linear_906_47)"/>
<path d="M126.75 88.3309C126.175 87.7566 125.153 87.2878 124.154 87.2878C121.643 87.2878 120.386 89.0341 120.386 91.9493V94.7796C120.386 97.6949 121.663 99.4617 124.303 99.4617C125.346 99.4617 126.518 98.9518 127.113 98.2047V99.2917H130.157V83.3266H126.752V88.328L126.75 88.3309ZM126.75 95.4623C126.345 95.9311 125.835 96.2505 125.238 96.2505C124.239 96.2505 123.79 95.6557 123.79 94.3782V92.3771C123.79 91.1202 124.239 90.5049 125.238 90.5049C125.832 90.5049 126.345 90.8037 126.75 91.2725V95.4652V95.4623Z" fill="url(#paint3_linear_906_47)"/>
<path d="M136.075 87.2878C134.543 87.2878 132.966 87.7771 131.563 88.6297L132.457 90.9913C133.819 90.3525 134.862 90.1181 135.776 90.1181C136.989 90.1181 137.329 90.6514 137.329 91.2901V91.7999C134.159 91.7999 131.176 92.9279 131.176 96.0366C131.176 98.1666 132.753 99.4646 134.754 99.4646C136.245 99.4646 137.139 98.8053 137.713 98.1227V99.2946H140.757V91.5685C140.757 88.8641 139.245 87.2908 136.075 87.2908V87.2878ZM137.332 95.8227C137.077 96.271 136.523 96.7603 135.671 96.7603C134.947 96.7603 134.522 96.3354 134.522 95.7172C134.522 94.6097 135.8 94.0999 137.332 94.0999V95.8227Z" fill="url(#paint4_linear_906_47)"/>
<path d="M146.184 95.0814H146.099L144.631 87.4607H141.053L144.508 100.089L143.397 103.596H146.652L151.718 87.4607H148.1L146.184 95.0814Z" fill="url(#paint5_linear_906_47)"/>
<path d="M155.568 90.7158C155.568 90.2265 156.016 90.0127 156.676 90.0127C157.739 90.0127 158.826 90.376 159.869 90.8653L160.678 88.4598C159.591 87.7801 158.059 87.2878 156.655 87.2878C154.121 87.2878 152.293 88.4159 152.293 90.9268C152.293 95.014 157.722 93.886 157.722 95.6733C157.722 96.268 157.423 96.6519 156.403 96.6519C155.551 96.6519 154.317 96.353 152.741 95.7143L152.017 98.1842C153.444 99.0368 155.061 99.4616 156.403 99.4616C159.488 99.4616 161 98.1197 161 95.3949C161 91.2872 155.571 92.3712 155.571 90.7129L155.568 90.7158Z" fill="url(#paint6_linear_906_47)"/>
<path d="M94.8628 87.2878C93.5443 87.2878 92.4368 87.7771 91.6487 88.5008V87.4578H88.584V99.2917H91.9885V91.2256C92.4368 90.8623 93.0521 90.5225 93.6703 90.5225C94.4995 90.5225 94.9683 90.9707 94.9683 92.2248V99.2917H98.3728V91.5216C98.3728 89.1161 97.4148 87.2849 94.8599 87.2849L94.8628 87.2878Z" fill="url(#paint7_linear_906_47)"/>
<path d="M104.168 87.2878C100.934 87.2878 99.4014 89.0546 99.4014 91.9493V95.0785C99.4014 97.7828 100.998 99.4646 104.253 99.4646C105.891 99.4646 107.426 99.1452 108.616 98.3366L107.787 95.9311C106.234 96.5698 105.487 96.6548 104.444 96.6548C103.231 96.6548 102.826 96.101 102.826 95.4623V94.6331H108.871V91.9523C108.871 88.9931 107.467 87.2908 104.168 87.2908V87.2878ZM105.66 92.1193H102.829V91.7355C102.829 90.6719 103.234 90.0332 104.256 90.0332C105.279 90.0332 105.663 90.6924 105.663 91.7355V92.1193H105.66Z" fill="url(#paint8_linear_906_47)"/>
<path d="M115.513 96.4643C114.874 96.4643 114.429 96.145 114.429 95.5707V90.1855H117.409V87.4607H114.429V84.9498L111.11 85.2896V87.4607H109.173V90.1855H111.025V95.3568C111.025 97.7623 111.983 99.4646 114.918 99.4646C116.005 99.4646 116.963 99.1892 117.857 98.612L117.089 96.186C116.556 96.3559 116.09 96.4614 115.513 96.4614V96.4643Z" fill="url(#paint9_linear_906_47)"/>
<path d="M38.6935 78C30.5777 78 24 84.5777 24 92.6935C24 100.809 30.5777 107.387 38.6935 107.387C46.8094 107.387 53.3871 100.809 53.3871 92.6935C53.3871 84.5777 46.8094 78 38.6935 78ZM38.6935 85.1812C39.5901 85.1812 40.3226 85.9108 40.3226 86.8103C40.3226 87.7097 39.593 88.4393 38.6935 88.4393C37.794 88.4393 37.0645 87.7097 37.0645 86.8103C37.0645 85.9108 37.794 85.1812 38.6935 85.1812ZM38.6935 100.203C37.797 100.203 37.0645 99.4734 37.0645 98.5739C37.0645 97.6744 37.794 96.9448 38.6935 96.9448C39.593 96.9448 40.3226 97.6744 40.3226 98.5739C40.3226 99.4734 39.593 100.203 38.6935 100.203ZM45.4382 97.1939C45.9187 97.4927 46.2058 98.0084 46.2058 98.5739C46.2058 99.0075 46.0359 99.4177 45.7283 99.7253C45.4206 100.033 45.0134 100.203 44.5768 100.203C44.4713 100.203 44.3629 100.191 44.2574 100.174C43.6099 100.051 43.0943 99.529 42.9771 98.8757C42.9302 98.6149 42.9448 98.3571 43.0181 98.108C43.062 97.9645 43.024 97.8121 42.9214 97.7066L39.5139 94.2991C39.4612 94.2464 39.3879 94.2142 39.3176 94.2142C39.2912 94.2142 39.2649 94.2171 39.2385 94.2288C39.0656 94.2903 38.884 94.3226 38.6965 94.3226C38.5998 94.3226 38.5031 94.3138 38.4064 94.2962C37.7472 94.1819 37.2081 93.6399 37.0938 92.9807C37.044 92.6965 37.0674 92.4181 37.1612 92.1515C37.1934 92.0607 37.1641 91.9523 37.0909 91.8761L33.5633 88.3485C33.5427 88.328 33.5134 88.3162 33.4841 88.3162C33.4724 88.3162 33.4636 88.3162 33.4548 88.3192C33.408 88.3338 33.3757 88.3778 33.3757 88.4246V90.7305C33.3757 90.9737 33.49 91.1963 33.6775 91.3106C34.158 91.6095 34.4452 92.1281 34.4452 92.6906C34.4452 93.2531 34.158 93.7717 33.6775 94.0706C33.49 94.1878 33.3757 94.4075 33.3757 94.6507V96.6108C33.3757 96.8511 33.49 97.0738 33.6775 97.191C34.158 97.4898 34.4452 98.0055 34.4452 98.5709C34.4452 99.4675 33.7156 100.2 32.8161 100.2C32.7077 100.2 32.5993 100.188 32.4909 100.168C31.8463 100.042 31.3365 99.5232 31.2164 98.8786C31.0963 98.2194 31.3775 97.5631 31.9342 97.2027C32.1393 97.0679 32.2594 96.8657 32.2594 96.6489V94.6478C32.2594 94.4075 32.1422 94.1849 31.9577 94.0677C31.4771 93.7688 31.19 93.2532 31.19 92.6877C31.19 92.1222 31.4771 91.6065 31.9577 91.3077C32.1452 91.1905 32.2594 90.9707 32.2594 90.7276V88.7674C32.2594 88.5272 32.1422 88.3045 31.9577 88.1873C31.4771 87.8885 31.19 87.3699 31.19 86.8073C31.19 85.9108 31.9196 85.1783 32.8191 85.1783C32.9245 85.1783 33.0329 85.19 33.1384 85.2076C33.7859 85.3336 34.3016 85.8522 34.4188 86.5055C34.4657 86.7663 34.451 87.0241 34.3778 87.2732C34.3338 87.4168 34.3719 87.5691 34.4774 87.6746L37.8849 91.0821C37.9405 91.1348 38.0109 91.167 38.0812 91.167C38.1076 91.167 38.1339 91.1641 38.1603 91.1524C38.3332 91.0909 38.5177 91.0586 38.7023 91.0586C38.799 91.0586 38.8957 91.0674 38.9895 91.0821C39.6487 91.1963 40.1907 91.7384 40.305 92.3976C40.3548 92.6789 40.3314 92.966 40.2376 93.2268C40.2054 93.3176 40.2347 93.426 40.3079 93.5022L43.8355 97.0298C43.856 97.0503 43.8853 97.062 43.9146 97.062C43.9264 97.062 43.9352 97.062 43.9469 97.0591C43.9938 97.0445 44.026 97.0005 44.026 96.9536V94.6478C44.026 94.4046 43.9088 94.1819 43.7242 94.0647C43.2437 93.7659 42.9566 93.2502 42.9566 92.6847C42.9566 92.1193 43.2437 91.6036 43.7242 91.3048C43.9117 91.1876 44.026 90.9678 44.026 90.7246V88.7645C44.026 88.5243 43.9088 88.3016 43.7242 88.1844C43.2437 87.8855 42.9566 87.3669 42.9566 86.8044C42.9566 85.9078 43.6861 85.1754 44.5856 85.1754C44.694 85.1754 44.8024 85.1871 44.9108 85.2076C45.5554 85.3336 46.0652 85.8522 46.1853 86.4968C46.3055 87.156 46.0242 87.8123 45.4675 88.1727C45.2624 88.3045 45.1423 88.5096 45.1423 88.7264V90.7276C45.1423 90.9678 45.2566 91.1905 45.4441 91.3077C45.9246 91.6065 46.2117 92.1251 46.2117 92.6877C46.2117 93.2502 45.9246 93.7688 45.4441 94.0677C45.2566 94.1849 45.1423 94.4046 45.1423 94.6478V96.6108C45.1423 96.8511 45.2566 97.0738 45.4441 97.191L45.4382 97.1939Z" fill="url(#paint10_linear_906_47)"/>
<defs>
<linearGradient id="paint0_linear_906_47" x1="23.9999" y1="92.6935" x2="160.994" y2="92.6935" gradientUnits="userSpaceOnUse">
<stop offset="0.05" stop-color="#01BAD8"/>
<stop offset="0.15" stop-color="#408DC1"/>
<stop offset="0.23" stop-color="#6771B3"/>
<stop offset="0.27" stop-color="#7767AE"/>
<stop offset="0.3" stop-color="#7F5EA8"/>
<stop offset="0.45" stop-color="#AE4D9D"/>
<stop offset="0.63" stop-color="#ED167C"/>
<stop offset="0.79" stop-color="#EF3F58"/>
<stop offset="0.97" stop-color="#FAA41A"/>
</linearGradient>
<linearGradient id="paint1_linear_906_47" x1="24" y1="92.6935" x2="160.994" y2="92.6935" gradientUnits="userSpaceOnUse">
<stop offset="0.05" stop-color="#01BAD8"/>
<stop offset="0.15" stop-color="#408DC1"/>
<stop offset="0.23" stop-color="#6771B3"/>
<stop offset="0.27" stop-color="#7767AE"/>
<stop offset="0.3" stop-color="#7F5EA8"/>
<stop offset="0.45" stop-color="#AE4D9D"/>
<stop offset="0.63" stop-color="#ED167C"/>
<stop offset="0.79" stop-color="#EF3F58"/>
<stop offset="0.97" stop-color="#FAA41A"/>
</linearGradient>
<linearGradient id="paint2_linear_906_47" x1="24.0002" y1="92.6935" x2="160.994" y2="92.6935" gradientUnits="userSpaceOnUse">
<stop offset="0.05" stop-color="#01BAD8"/>
<stop offset="0.15" stop-color="#408DC1"/>
<stop offset="0.23" stop-color="#6771B3"/>
<stop offset="0.27" stop-color="#7767AE"/>
<stop offset="0.3" stop-color="#7F5EA8"/>
<stop offset="0.45" stop-color="#AE4D9D"/>
<stop offset="0.63" stop-color="#ED167C"/>
<stop offset="0.79" stop-color="#EF3F58"/>
<stop offset="0.97" stop-color="#FAA41A"/>
</linearGradient>
<linearGradient id="paint3_linear_906_47" x1="24.0002" y1="92.6935" x2="160.994" y2="92.6935" gradientUnits="userSpaceOnUse">
<stop offset="0.05" stop-color="#01BAD8"/>
<stop offset="0.15" stop-color="#408DC1"/>
<stop offset="0.23" stop-color="#6771B3"/>
<stop offset="0.27" stop-color="#7767AE"/>
<stop offset="0.3" stop-color="#7F5EA8"/>
<stop offset="0.45" stop-color="#AE4D9D"/>
<stop offset="0.63" stop-color="#ED167C"/>
<stop offset="0.79" stop-color="#EF3F58"/>
<stop offset="0.97" stop-color="#FAA41A"/>
</linearGradient>
<linearGradient id="paint4_linear_906_47" x1="24" y1="92.6935" x2="160.994" y2="92.6935" gradientUnits="userSpaceOnUse">
<stop offset="0.05" stop-color="#01BAD8"/>
<stop offset="0.15" stop-color="#408DC1"/>
<stop offset="0.23" stop-color="#6771B3"/>
<stop offset="0.27" stop-color="#7767AE"/>
<stop offset="0.3" stop-color="#7F5EA8"/>
<stop offset="0.45" stop-color="#AE4D9D"/>
<stop offset="0.63" stop-color="#ED167C"/>
<stop offset="0.79" stop-color="#EF3F58"/>
<stop offset="0.97" stop-color="#FAA41A"/>
</linearGradient>
<linearGradient id="paint5_linear_906_47" x1="24.0001" y1="92.6935" x2="160.994" y2="92.6935" gradientUnits="userSpaceOnUse">
<stop offset="0.05" stop-color="#01BAD8"/>
<stop offset="0.15" stop-color="#408DC1"/>
<stop offset="0.23" stop-color="#6771B3"/>
<stop offset="0.27" stop-color="#7767AE"/>
<stop offset="0.3" stop-color="#7F5EA8"/>
<stop offset="0.45" stop-color="#AE4D9D"/>
<stop offset="0.63" stop-color="#ED167C"/>
<stop offset="0.79" stop-color="#EF3F58"/>
<stop offset="0.97" stop-color="#FAA41A"/>
</linearGradient>
<linearGradient id="paint6_linear_906_47" x1="24.0003" y1="92.6935" x2="160.994" y2="92.6935" gradientUnits="userSpaceOnUse">
<stop offset="0.05" stop-color="#01BAD8"/>
<stop offset="0.15" stop-color="#408DC1"/>
<stop offset="0.23" stop-color="#6771B3"/>
<stop offset="0.27" stop-color="#7767AE"/>
<stop offset="0.3" stop-color="#7F5EA8"/>
<stop offset="0.45" stop-color="#AE4D9D"/>
<stop offset="0.63" stop-color="#ED167C"/>
<stop offset="0.79" stop-color="#EF3F58"/>
<stop offset="0.97" stop-color="#FAA41A"/>
</linearGradient>
<linearGradient id="paint7_linear_906_47" x1="23.9999" y1="92.6935" x2="160.994" y2="92.6935" gradientUnits="userSpaceOnUse">
<stop offset="0.05" stop-color="#01BAD8"/>
<stop offset="0.15" stop-color="#408DC1"/>
<stop offset="0.23" stop-color="#6771B3"/>
<stop offset="0.27" stop-color="#7767AE"/>
<stop offset="0.3" stop-color="#7F5EA8"/>
<stop offset="0.45" stop-color="#AE4D9D"/>
<stop offset="0.63" stop-color="#ED167C"/>
<stop offset="0.79" stop-color="#EF3F58"/>
<stop offset="0.97" stop-color="#FAA41A"/>
</linearGradient>
<linearGradient id="paint8_linear_906_47" x1="23.9999" y1="92.6935" x2="160.994" y2="92.6935" gradientUnits="userSpaceOnUse">
<stop offset="0.05" stop-color="#01BAD8"/>
<stop offset="0.15" stop-color="#408DC1"/>
<stop offset="0.23" stop-color="#6771B3"/>
<stop offset="0.27" stop-color="#7767AE"/>
<stop offset="0.3" stop-color="#7F5EA8"/>
<stop offset="0.45" stop-color="#AE4D9D"/>
<stop offset="0.63" stop-color="#ED167C"/>
<stop offset="0.79" stop-color="#EF3F58"/>
<stop offset="0.97" stop-color="#FAA41A"/>
</linearGradient>
<linearGradient id="paint9_linear_906_47" x1="24.0002" y1="92.6935" x2="160.994" y2="92.6935" gradientUnits="userSpaceOnUse">
<stop offset="0.05" stop-color="#01BAD8"/>
<stop offset="0.15" stop-color="#408DC1"/>
<stop offset="0.23" stop-color="#6771B3"/>
<stop offset="0.27" stop-color="#7767AE"/>
<stop offset="0.3" stop-color="#7F5EA8"/>
<stop offset="0.45" stop-color="#AE4D9D"/>
<stop offset="0.63" stop-color="#ED167C"/>
<stop offset="0.79" stop-color="#EF3F58"/>
<stop offset="0.97" stop-color="#FAA41A"/>
</linearGradient>
<linearGradient id="paint10_linear_906_47" x1="24" y1="92.6935" x2="160.994" y2="92.6935" gradientUnits="userSpaceOnUse">
<stop offset="0.05" stop-color="#01BAD8"/>
<stop offset="0.15" stop-color="#408DC1"/>
<stop offset="0.23" stop-color="#6771B3"/>
<stop offset="0.27" stop-color="#7767AE"/>
<stop offset="0.3" stop-color="#7F5EA8"/>
<stop offset="0.45" stop-color="#AE4D9D"/>
<stop offset="0.63" stop-color="#ED167C"/>
<stop offset="0.79" stop-color="#EF3F58"/>
<stop offset="0.97" stop-color="#FAA41A"/>
</linearGradient>
</defs>
</svg>
