<svg width="186" height="186" viewBox="0 0 186 186" fill="none" xmlns="http://www.w3.org/2000/svg">
<path d="M147.473 94.0413C150.972 92.9395 153.078 90.5101 153.078 86.6254C153.078 81.6006 149.56 79.1069 144.188 79.1069H133.732V91.5051H110.944V91.1862V82.2378H124.743V79.1069H107.465V91.5051H96.7562C97.7919 90.256 98.3702 88.6411 98.3702 86.6254C98.3702 81.6006 94.8524 79.1069 89.4796 79.1069H81.2294V91.5051H70.2336L65.6629 79.1069H62.2227L57.6517 91.5051H36.4792V82.2378H49.9306V79.1069H33V106.996H36.4792V94.9165V94.5976H56.5116L51.9402 106.996H55.5935L59.939 94.5976H67.9463L72.2915 106.996H75.9448L71.3738 94.5976H81.2294V107H91.6854C97.0582 107 100.576 104.506 100.576 99.4815C100.576 97.4671 100.006 95.8461 98.9716 94.5976H107.465V106.996H124.743V103.865H110.944V94.5976H133.732V106.996H137.211V94.5976H140.991V94.5823H143.878L149.851 106.996H153.928L147.473 94.0413ZM61.0228 91.5051L63.8847 83.3395H64.0006L66.8625 91.5051H61.0228ZM84.7082 82.1991H89.016C92.6102 82.1991 94.7754 83.398 94.7754 86.7411C94.7754 90.1055 92.8086 91.461 89.3429 91.5051H84.7082V82.1991ZM91.2218 103.908H84.7082V94.5976H89.1773H91.3761C94.9515 94.5976 96.9812 95.9448 96.9812 99.3658C96.9812 102.709 94.8163 103.908 91.2218 103.908V103.908ZM140.991 91.5093V91.5051H137.211V82.1991H143.724C147.319 82.1991 149.483 83.398 149.483 86.7411C149.483 90.1621 147.454 91.5093 143.878 91.5093H140.991Z" fill="#0D0906"/>
</svg>
