<svg width="186" height="186" viewBox="0 0 186 186" fill="none" xmlns="http://www.w3.org/2000/svg">
<path d="M93.983 79.4711V82.0104H97.3589V82.8076H93.983V85.9079H93.1562V78.6739H97.7525V79.4711H93.983Z" fill="black"/>
<path d="M103.604 85.9078H102.797V84.6776C102.627 85.0768 102.336 85.4129 101.966 85.6388C101.595 85.8647 101.163 85.9691 100.73 85.9374C99.4606 85.9374 98.6929 85.1352 98.6929 83.8213V80.4651H99.4999V83.6048C99.4797 83.8091 99.5046 84.0153 99.5731 84.2089C99.6416 84.4024 99.7518 84.5785 99.8961 84.7246C100.04 84.8707 100.215 84.9833 100.408 85.0542C100.6 85.1252 100.806 85.1529 101.011 85.1352C102.138 85.1352 102.797 84.2986 102.797 83.1373V80.4651H103.604V85.9078Z" fill="black"/>
<path d="M110.528 82.5517V85.9079H109.721V82.7682C109.739 82.5618 109.712 82.3539 109.641 82.1592C109.569 81.9646 109.456 81.788 109.309 81.6419C109.162 81.4958 108.985 81.3839 108.79 81.3141C108.595 81.2442 108.387 81.2182 108.18 81.2377C107.945 81.2299 107.711 81.2691 107.491 81.3531C107.271 81.4371 107.07 81.5642 106.9 81.727C106.73 81.8897 106.594 82.0848 106.5 82.3008C106.407 82.5168 106.357 82.7493 106.355 82.9847V85.9079H105.572V80.4651H106.379V81.6856C106.563 81.2904 106.864 80.9609 107.24 80.7411C107.616 80.5212 108.051 80.4215 108.486 80.4553C109.76 80.4307 110.528 81.2377 110.528 82.5517Z" fill="black"/>
<path d="M117.329 85.9078H116.522V84.7415C116.319 85.1233 116.012 85.4394 115.637 85.653C115.261 85.8665 114.832 85.9686 114.401 85.9472C112.851 85.9472 111.778 84.8006 111.778 83.1816C111.778 81.5625 112.851 80.4208 114.391 80.4208C114.826 80.3989 115.258 80.5023 115.635 80.7186C116.013 80.935 116.321 81.2552 116.522 81.6413V78.2408H117.329V85.9078ZM116.522 83.2012C116.511 82.8144 116.387 82.4393 116.164 82.1228C115.941 81.8063 115.63 81.5624 115.27 81.4217C114.909 81.281 114.515 81.2496 114.137 81.3316C113.759 81.4135 113.413 81.6052 113.143 81.8825C112.874 82.1598 112.691 82.5105 112.62 82.8908C112.548 83.2711 112.59 83.6641 112.74 84.0206C112.891 84.3772 113.143 84.6815 113.466 84.8955C113.788 85.1095 114.166 85.2237 114.553 85.2238C114.818 85.2288 115.081 85.1795 115.325 85.0789C115.57 84.9783 115.791 84.8286 115.976 84.639C116.16 84.4495 116.304 84.224 116.398 83.9767C116.492 83.7294 116.534 83.4655 116.522 83.2012V83.2012Z" fill="black"/>
<path d="M122.722 85.0713C122.486 85.368 122.181 85.6028 121.834 85.7554C121.487 85.908 121.108 85.9739 120.729 85.9472C120.496 85.9698 120.261 85.9436 120.039 85.8705C119.817 85.7974 119.612 85.6788 119.438 85.5224C119.264 85.366 119.125 85.1752 119.028 84.962C118.932 84.7487 118.881 84.5178 118.879 84.2839C118.879 83.3341 119.632 82.7338 120.911 82.7239H122.703V82.404C122.703 81.6117 122.21 81.1344 121.226 81.1344C120.6 81.156 119.996 81.3728 119.499 81.7545L119.159 81.1639C119.799 80.6829 120.579 80.4253 121.379 80.4307C122.722 80.4307 123.465 81.1442 123.475 82.3105V85.9079H122.693L122.722 85.0713ZM122.722 84.028V83.3784H121.024C120.119 83.3784 119.642 83.654 119.642 84.2544C119.642 84.8547 120.134 85.2386 120.892 85.2386C121.287 85.2705 121.682 85.1684 122.012 84.9488C122.342 84.7292 122.589 84.4049 122.712 84.028H122.722Z" fill="black"/>
<path d="M126.94 86.4246C127.141 86.4335 127.33 86.521 127.467 86.6683C127.604 86.8156 127.678 87.0108 127.673 87.2119C127.674 87.3384 127.649 87.4637 127.599 87.5798C127.549 87.696 127.475 87.8004 127.382 87.8865C127.29 87.9726 127.18 88.0385 127.061 88.08C126.941 88.1214 126.815 88.1375 126.689 88.1273C126.392 88.1267 126.102 88.0413 125.852 87.8812L126.029 87.4383C126.205 87.5717 126.419 87.6443 126.639 87.645C126.708 87.6526 126.778 87.6456 126.844 87.6243C126.91 87.603 126.971 87.568 127.023 87.5215C127.074 87.475 127.116 87.4181 127.144 87.3546C127.172 87.2911 127.186 87.2223 127.186 87.1529C127.182 87.0898 127.166 87.0282 127.137 86.9717C127.109 86.9152 127.069 86.8652 127.021 86.8246C126.972 86.784 126.916 86.7538 126.856 86.7358C126.795 86.7178 126.732 86.7123 126.669 86.7198C126.555 86.7194 126.441 86.7293 126.329 86.7493L126.669 85.9325C125.995 85.839 125.522 85.3567 125.522 84.3971V81.2919H124.735V80.6374H125.522V79.225H126.319V80.662H128.042V81.3263H126.319V84.279C126.319 84.9384 126.575 85.1894 127.038 85.1894C127.349 85.1799 127.651 85.0827 127.909 84.9089L128.135 85.5584C127.85 85.7622 127.522 85.8969 127.176 85.9521L126.94 86.4246Z" fill="black"/>
<path d="M130.257 78.9051C130.25 79.0075 130.213 79.1057 130.152 79.1877C130.09 79.2696 130.005 79.3317 129.909 79.3664C129.812 79.401 129.708 79.4066 129.608 79.3826C129.508 79.3585 129.417 79.3059 129.347 79.231C129.277 79.1562 129.23 79.0625 129.212 78.9614C129.195 78.8603 129.207 78.7562 129.248 78.662C129.288 78.5678 129.356 78.4875 129.441 78.431C129.527 78.3745 129.627 78.3443 129.73 78.3441C129.802 78.344 129.874 78.3586 129.94 78.3872C130.006 78.4158 130.066 78.4577 130.115 78.5103C130.164 78.5629 130.202 78.6251 130.227 78.693C130.251 78.7609 130.261 78.8331 130.257 78.9051ZM129.336 85.9078V80.4651H130.134V85.9078H129.336Z" fill="black"/>
<path d="M135.473 85.0713C135.237 85.368 134.932 85.6028 134.584 85.7554C134.237 85.9081 133.858 85.9739 133.48 85.9472C133.247 85.9698 133.012 85.9436 132.79 85.8705C132.567 85.7974 132.363 85.6788 132.189 85.5224C132.015 85.366 131.875 85.1752 131.779 84.962C131.683 84.7488 131.632 84.5178 131.629 84.2839C131.629 83.3341 132.382 82.7338 133.667 82.7239H135.453V82.4041C135.453 81.6118 134.961 81.1344 133.977 81.1344C133.351 81.1567 132.747 81.3734 132.249 81.7545L131.91 81.1639C132.55 80.6836 133.329 80.4261 134.129 80.4307C135.473 80.4307 136.221 81.1443 136.231 82.3106V85.9079H135.443L135.473 85.0713ZM135.473 84.028V83.3784H133.77C132.86 83.3784 132.382 83.654 132.382 84.2544C132.382 84.8548 132.874 85.2386 133.632 85.2386C134.029 85.2728 134.426 85.1718 134.758 84.9521C135.091 84.7323 135.339 84.4067 135.463 84.028H135.473Z" fill="black"/>
<path d="M98.8894 92.0789L98.3972 92.7088C98.1187 92.424 97.7866 92.1969 97.4201 92.0407C97.0536 91.8844 96.6599 91.8021 96.2615 91.7984C95.877 91.7824 95.4933 91.8444 95.1334 91.9805C94.7735 92.1166 94.4448 92.3241 94.1671 92.5905C93.8894 92.8569 93.6685 93.1766 93.5175 93.5306C93.3666 93.8846 93.2888 94.2654 93.2888 94.6502C93.2888 95.035 93.3666 95.4158 93.5175 95.7698C93.6685 96.1237 93.8894 96.4435 94.1671 96.7099C94.4448 96.9763 94.7735 97.1838 95.1334 97.3199C95.4933 97.456 95.877 97.5179 96.2615 97.502C97.0573 97.4935 97.8203 97.184 98.3972 96.6358L98.8894 97.2018C98.1717 97.8953 97.2198 98.294 96.2221 98.3189C95.7432 98.3166 95.2695 98.22 94.828 98.0347C94.3864 97.8493 93.9857 97.5788 93.6487 97.2386C93.3117 96.8984 93.045 96.4952 92.8638 96.0519C92.6826 95.6086 92.5906 95.134 92.5928 94.6551C92.5951 94.1762 92.6916 93.7025 92.877 93.2609C93.0623 92.8194 93.3328 92.4187 93.673 92.0817C94.0133 91.7447 94.4165 91.4779 94.8598 91.2968C95.3031 91.1156 95.7777 91.0235 96.2566 91.0258C97.2351 91.0348 98.1746 91.4106 98.8894 92.0789V92.0789Z" fill="black"/>
<path d="M105.08 95.5483C105.085 96.0953 104.928 96.6315 104.627 97.0887C104.327 97.5459 103.897 97.9036 103.393 98.1163C102.889 98.3291 102.333 98.3872 101.796 98.2835C101.259 98.1798 100.765 97.9188 100.376 97.5337C99.9879 97.1486 99.7225 96.6568 99.614 96.1206C99.5054 95.5844 99.5586 95.028 99.7669 94.5221C99.9751 94.0163 100.329 93.5836 100.783 93.2792C101.238 92.9747 101.773 92.8122 102.32 92.8121C102.685 92.7956 103.049 92.8548 103.39 92.9861C103.731 93.1174 104.04 93.318 104.3 93.5751C104.559 93.8322 104.763 94.1403 104.897 94.4799C105.031 94.8195 105.094 95.1833 105.08 95.5483ZM100.371 95.5483C100.38 95.9356 100.502 96.3117 100.724 96.6295C100.946 96.9474 101.256 97.1928 101.616 97.335C101.977 97.4772 102.371 97.5099 102.75 97.429C103.129 97.3482 103.475 97.1573 103.746 96.8803C104.017 96.6033 104.2 96.2526 104.273 95.872C104.345 95.4914 104.304 95.0979 104.153 94.7408C104.003 94.3837 103.751 94.0788 103.428 93.8644C103.106 93.65 102.727 93.5356 102.339 93.5355C102.073 93.5247 101.807 93.5699 101.559 93.6683C101.311 93.7667 101.087 93.9161 100.9 94.1067C100.714 94.2974 100.569 94.5251 100.477 94.7752C100.384 95.0252 100.344 95.2919 100.361 95.5581L100.371 95.5483Z" fill="black"/>
<path d="M115.488 94.9184V98.2795H114.681V95.1349C114.702 94.9302 114.678 94.7234 114.61 94.5292C114.542 94.3351 114.432 94.1583 114.287 94.0117C114.143 93.865 113.968 93.752 113.775 93.6808C113.582 93.6095 113.376 93.5818 113.171 93.5995C112.049 93.6291 111.394 94.4361 111.394 95.6024V98.2795H110.577V95.1349C110.599 94.9305 110.575 94.7237 110.508 94.5296C110.44 94.3354 110.331 94.1585 110.187 94.0118C110.043 93.865 109.868 93.7519 109.675 93.6806C109.482 93.6093 109.276 93.5817 109.071 93.5995C107.954 93.6291 107.285 94.4361 107.285 95.6024V98.2795H106.488V92.8318H107.285V94.0621C107.456 93.6616 107.749 93.3248 108.121 93.0989C108.494 92.873 108.927 92.7692 109.362 92.8023C109.807 92.7623 110.251 92.8848 110.613 93.1472C110.975 93.4095 111.23 93.7939 111.33 94.2294C111.479 93.7862 111.771 93.4053 112.16 93.1468C112.55 92.8883 113.015 92.7671 113.481 92.8023C114.731 92.8023 115.488 93.6094 115.488 94.9184Z" fill="black"/>
<path d="M121.999 98.2795H121.192V97.0492C121.023 97.4493 120.733 97.7863 120.362 98.0123C119.991 98.2384 119.558 98.3422 119.125 98.309C117.856 98.309 117.093 97.5019 117.093 96.188V92.8318H117.875V95.9567C117.855 96.161 117.88 96.3673 117.948 96.5608C118.017 96.7544 118.127 96.9305 118.271 97.0766C118.416 97.2227 118.59 97.3352 118.783 97.4062C118.976 97.4772 119.181 97.5048 119.386 97.4872C120.513 97.4872 121.172 96.6506 121.172 95.5187V92.8417H121.979L121.999 98.2795Z" fill="black"/>
<path d="M128.943 94.9184V98.2795H128.135V95.1349C128.154 94.9287 128.127 94.7209 128.055 94.5265C127.984 94.332 127.871 94.1557 127.724 94.01C127.577 93.8643 127.399 93.7528 127.204 93.6836C127.009 93.6143 126.801 93.589 126.595 93.6094C126.36 93.6015 126.126 93.6405 125.907 93.7242C125.687 93.808 125.486 93.9346 125.316 94.0969C125.146 94.2591 125.01 94.4536 124.917 94.669C124.823 94.8845 124.773 95.1164 124.769 95.3514V98.2795H123.962V92.8318H124.765V94.0326C124.949 93.6379 125.25 93.3088 125.626 93.089C126.002 92.8693 126.436 92.7692 126.871 92.8023C128.18 92.8023 128.943 93.6094 128.943 94.9184Z" fill="black"/>
<path d="M131.654 91.2718C131.649 91.3745 131.613 91.4733 131.552 91.5559C131.49 91.6385 131.406 91.7014 131.31 91.7368C131.213 91.7721 131.108 91.7784 131.008 91.7549C130.908 91.7314 130.817 91.679 130.746 91.6044C130.676 91.5297 130.628 91.4359 130.61 91.3347C130.592 91.2334 130.604 91.1291 130.645 91.0346C130.685 90.9401 130.753 90.8595 130.839 90.8029C130.924 90.7462 131.025 90.7159 131.128 90.7158C131.199 90.7156 131.27 90.7302 131.336 90.7585C131.402 90.7868 131.462 90.8282 131.511 90.8803C131.56 90.9323 131.598 90.9939 131.623 91.0613C131.648 91.1286 131.658 91.2002 131.654 91.2718ZM130.739 98.2795V92.8318H131.531V98.2795H130.739Z" fill="black"/>
<path d="M136.31 97.9252C135.951 98.1807 135.525 98.3245 135.084 98.3385C134.287 98.3385 133.697 97.8464 133.697 96.7884V93.6783H132.914V93.0041H133.697V91.5671H134.494V93.0041H136.216V93.6635H134.494V96.6161C134.494 97.2756 134.75 97.5216 135.217 97.5216C135.526 97.5141 135.827 97.4185 136.083 97.246L136.31 97.9252Z" fill="black"/>
<path d="M140.911 97.433C140.674 97.7288 140.369 97.963 140.022 98.1155C139.675 98.268 139.296 98.3344 138.918 98.309C138.685 98.3315 138.45 98.3054 138.228 98.2323C138.005 98.1591 137.801 98.0406 137.627 97.8842C137.453 97.7278 137.313 97.5369 137.217 97.3237C137.121 97.1105 137.07 96.8796 137.067 96.6457C137.067 95.6959 137.82 95.0955 139.1 95.0857H140.891V94.7658C140.891 93.9686 140.399 93.4962 139.415 93.4962C138.788 93.5178 138.185 93.7346 137.687 94.1162L137.348 93.5257C137.986 93.0427 138.767 92.7849 139.567 92.7925C140.911 92.7925 141.654 93.506 141.664 94.6723V98.2696H140.881L140.911 97.433ZM140.911 96.3848V95.7353H139.213C138.307 95.7353 137.83 96.0158 137.83 96.6161C137.83 97.2165 138.322 97.6004 139.08 97.6004C139.475 97.6334 139.869 97.5324 140.2 97.3137C140.53 97.0949 140.777 96.7711 140.901 96.3947L140.911 96.3848Z" fill="black"/>
<path d="M144.301 94.0424C144.462 93.6586 144.738 93.3338 145.09 93.1119C145.442 92.8901 145.854 92.782 146.27 92.8023V93.6192C146.022 93.5961 145.773 93.6244 145.537 93.7023C145.301 93.7803 145.084 93.9062 144.899 94.0721C144.714 94.238 144.566 94.4404 144.463 94.6665C144.36 94.8925 144.305 95.1375 144.301 95.3859V98.2795H143.494V92.8318H144.301V94.0424Z" fill="black"/>
<path d="M150.457 97.433C150.223 97.7253 149.922 97.9573 149.579 98.1096C149.237 98.262 148.863 98.3304 148.489 98.309C148.256 98.3315 148.021 98.3054 147.799 98.2323C147.577 98.1591 147.372 98.0406 147.198 97.8842C147.024 97.7278 146.885 97.5369 146.788 97.3237C146.692 97.1105 146.641 96.8796 146.639 96.6457C146.639 95.6959 147.392 95.0955 148.676 95.0857H150.462V94.7658C150.462 93.9686 149.97 93.4962 148.986 93.4962C148.36 93.5184 147.756 93.7352 147.259 94.1162L146.919 93.5257C147.558 93.044 148.338 92.7864 149.139 92.7925C150.482 92.7925 151.23 93.506 151.24 94.6723V98.2696H150.453L150.457 97.433ZM150.457 96.3848V95.7353H148.765C147.854 95.7353 147.377 96.0158 147.377 96.6161C147.377 97.2165 147.869 97.6004 148.632 97.6004C149.026 97.6332 149.42 97.532 149.749 97.3132C150.079 97.0944 150.325 96.7707 150.448 96.3947L150.457 96.3848ZM147.731 90.6223H148.297C148.326 90.7973 148.416 90.9565 148.551 91.0714C148.686 91.1863 148.858 91.2493 149.035 91.2493C149.213 91.2493 149.384 91.1863 149.52 91.0714C149.655 90.9565 149.745 90.7973 149.773 90.6223H150.354C150.365 90.8012 150.339 90.9806 150.278 91.1492C150.217 91.3179 150.123 91.4722 150 91.6029C149.877 91.7335 149.729 91.8376 149.564 91.9087C149.399 91.9798 149.222 92.0166 149.043 92.0166C148.863 92.0166 148.686 91.9798 148.521 91.9087C148.357 91.8376 148.208 91.7335 148.086 91.6029C147.963 91.4722 147.868 91.3179 147.807 91.1492C147.746 90.9806 147.72 90.8012 147.731 90.6223Z" fill="black"/>
<path d="M96.1337 104.515V110.267H94.2932V104.515H92.1328V103.038H98.3137V104.515H96.1337Z" fill="black"/>
<path d="M100.927 103.097C100.927 103.283 100.872 103.465 100.768 103.619C100.665 103.774 100.518 103.894 100.346 103.966C100.175 104.037 99.9858 104.055 99.8034 104.019C99.6211 103.983 99.4536 103.893 99.3222 103.762C99.1907 103.63 99.1012 103.463 99.0649 103.281C99.0287 103.098 99.0473 102.909 99.1184 102.738C99.1896 102.566 99.31 102.419 99.4646 102.316C99.6192 102.212 99.8009 102.157 99.9868 102.157C100.111 102.153 100.235 102.175 100.351 102.22C100.467 102.266 100.572 102.335 100.661 102.423C100.749 102.512 100.818 102.617 100.864 102.733C100.909 102.849 100.931 102.973 100.927 103.097V103.097ZM99.0862 110.267V104.697H100.863V110.267H99.0862Z" fill="black"/>
<path d="M111.743 106.754V110.267H109.967V107.275C109.985 107.14 109.973 107.003 109.933 106.873C109.892 106.743 109.824 106.623 109.733 106.522C109.641 106.421 109.529 106.341 109.404 106.287C109.279 106.234 109.143 106.208 109.007 106.212C108.338 106.212 107.925 106.778 107.925 107.531V110.292H106.133V107.275C106.152 107.141 106.141 107.004 106.102 106.874C106.062 106.745 105.995 106.625 105.904 106.524C105.814 106.423 105.703 106.343 105.578 106.289C105.454 106.235 105.319 106.209 105.184 106.212C105.023 106.221 104.865 106.263 104.721 106.335C104.577 106.408 104.449 106.509 104.346 106.632C104.243 106.756 104.166 106.9 104.12 107.054C104.075 107.209 104.061 107.371 104.081 107.531V110.292H102.3V104.697H104.096V105.617C104.283 105.301 104.553 105.042 104.877 104.869C105.2 104.695 105.565 104.614 105.932 104.633C106.337 104.61 106.738 104.721 107.074 104.949C107.41 105.176 107.662 105.508 107.792 105.892C107.949 105.505 108.223 105.175 108.576 104.949C108.928 104.724 109.342 104.613 109.76 104.633C110.986 104.618 111.743 105.454 111.743 106.754Z" fill="black"/>
<path d="M114.858 103.097C114.858 103.284 114.803 103.466 114.698 103.621C114.594 103.776 114.446 103.897 114.273 103.967C114.101 104.038 113.911 104.055 113.728 104.017C113.545 103.98 113.377 103.888 113.247 103.755C113.116 103.621 113.028 103.452 112.994 103.268C112.96 103.085 112.982 102.895 113.056 102.724C113.13 102.552 113.254 102.407 113.411 102.306C113.568 102.205 113.751 102.153 113.938 102.157C114.061 102.156 114.183 102.179 114.297 102.226C114.41 102.273 114.513 102.343 114.599 102.431C114.685 102.519 114.752 102.623 114.797 102.737C114.841 102.852 114.862 102.974 114.858 103.097V103.097ZM113.018 110.267V104.697H114.794V110.267H113.018Z" fill="black"/>
<path d="M120.533 108.565C120.533 109.514 119.849 110.1 118.845 110.287L118.589 110.779C118.785 110.815 118.962 110.919 119.09 111.071C119.219 111.224 119.29 111.416 119.292 111.616C119.292 112.265 118.751 112.679 117.998 112.679C117.646 112.668 117.305 112.557 117.014 112.359L117.344 111.625C117.479 111.75 117.653 111.823 117.836 111.832C117.89 111.838 117.944 111.832 117.995 111.816C118.047 111.799 118.094 111.772 118.135 111.737C118.175 111.701 118.208 111.658 118.231 111.609C118.254 111.56 118.267 111.507 118.269 111.453C118.269 111.247 118.102 111.079 117.777 111.079C117.653 111.084 117.53 111.097 117.408 111.119L117.801 110.316C117.024 110.271 116.277 110.001 115.651 109.539L116.217 108.402C116.79 108.823 117.475 109.065 118.185 109.096C118.54 109.096 118.795 108.973 118.795 108.712C118.795 107.895 115.912 108.319 115.926 106.37C115.926 105.223 116.911 104.603 118.185 104.603C118.992 104.605 119.784 104.823 120.478 105.233L119.873 106.389C119.339 106.068 118.738 105.876 118.116 105.828C117.796 105.828 117.565 105.956 117.565 106.212C117.605 106.99 120.542 106.621 120.533 108.565Z" fill="black"/>
<path d="M127.156 107.477C127.156 109.194 125.936 110.331 124.115 110.331C122.294 110.331 121.069 109.194 121.069 107.477C121.069 105.76 122.289 104.638 124.115 104.638C125.941 104.638 127.156 105.764 127.156 107.477ZM122.865 107.477C122.865 108.348 123.357 108.924 124.115 108.924C124.873 108.924 125.355 108.348 125.355 107.477C125.355 106.606 124.863 106.03 124.115 106.03C123.367 106.03 122.865 106.64 122.865 107.497V107.477Z" fill="black"/>
<path d="M133.047 106.631V110.267H131.3V109.627C131.092 109.874 130.829 110.068 130.532 110.194C130.236 110.319 129.913 110.373 129.592 110.351C128.406 110.351 127.683 109.627 127.683 108.604C127.683 107.58 128.436 106.931 129.823 106.921H131.3V106.837C131.3 106.291 130.935 105.956 130.212 105.956C129.628 105.995 129.06 106.163 128.549 106.448L128.057 105.272C128.859 104.869 129.742 104.653 130.64 104.642C132.146 104.618 133.037 105.371 133.047 106.631ZM131.29 108.378V107.885H130.178C129.641 107.885 129.371 108.072 129.371 108.486C129.371 108.899 129.661 109.145 130.158 109.145C130.405 109.159 130.649 109.091 130.854 108.953C131.058 108.814 131.211 108.612 131.29 108.378V108.378Z" fill="black"/>
<path d="M136.083 105.636C136.266 105.32 136.53 105.058 136.849 104.879C137.168 104.7 137.529 104.61 137.894 104.618V106.227C136.861 106.134 136.177 106.621 136.083 107.403V110.267H134.297V104.697H136.083V105.636Z" fill="black"/>
<path d="M143.504 106.631V110.267H141.757V109.627C141.55 109.873 141.288 110.067 140.992 110.193C140.696 110.318 140.375 110.372 140.054 110.351C138.864 110.351 138.14 109.627 138.14 108.604C138.14 107.58 138.893 106.931 140.281 106.921H141.757V106.837C141.757 106.291 141.393 105.956 140.67 105.956C140.085 105.995 139.517 106.163 139.006 106.448L138.514 105.272C139.316 104.869 140.2 104.653 141.098 104.642C142.604 104.618 143.494 105.371 143.504 106.631ZM141.747 108.378V107.885H140.62C140.084 107.885 139.813 108.072 139.813 108.486C139.813 108.899 140.104 109.145 140.601 109.145C140.85 109.162 141.098 109.096 141.305 108.957C141.513 108.818 141.668 108.614 141.747 108.378V108.378Z" fill="black"/>
<path d="M46.9131 114.829C46.3134 114.833 45.7271 115.007 45.2233 115.332C44.7194 115.657 44.3188 116.12 44.0687 116.665C43.9555 116.96 43.4388 118.028 43.9801 118.028H50.3234C50.3234 117.984 50.3234 117.939 50.3234 117.89C50.0682 117.208 49.7554 116.55 49.3884 115.922C48.7396 115.245 47.8499 114.853 46.9131 114.829V114.829Z" fill="black"/>
<path d="M57.759 114.819C56.204 114.908 54.6883 116.084 54.5898 117.708C54.5652 118.2 54.5898 118.038 55.0819 118.038H61.0217C61.2333 118.038 60.5296 116.335 60.3672 116.153C60.0572 115.753 59.6627 115.426 59.2119 115.195C58.7611 114.965 58.2651 114.836 57.759 114.819V114.819Z" fill="black"/>
<path d="M68.4922 114.883C67.7958 114.904 67.1264 115.158 66.5912 115.604C66.0559 116.05 65.6856 116.663 65.5395 117.344C65.4608 117.792 65.1655 117.974 65.6478 117.974H71.6712C71.6225 117.155 71.2693 116.384 70.6811 115.812C70.0929 115.24 69.3122 114.909 68.4922 114.883V114.883Z" fill="black"/>
<path d="M41.5982 82.0202C41.2272 81.9884 40.8535 82.0251 40.4958 82.1285L40.4269 82.2909C42.1985 82.4385 44.7673 82.217 45.8401 82.6304L46.2781 82.9355C45.2644 83.1717 44.3097 82.8027 43.8865 83.0782C42.0706 82.8666 39.8118 83.2013 38.0205 83.0782L37.8975 83.3637C37.5447 83.3349 37.1897 83.3785 36.8542 83.4916L36.3621 83.3095L35.2696 83.5605L35.3976 83.4178C34.4134 83.28 34.6447 83.7032 34.4134 83.7573C34.49 83.568 34.49 83.3562 34.4134 83.1668C34.3519 83.0554 34.264 82.9608 34.1575 82.8912L34.0541 82.8223L34 82.7879C34.0144 83.8169 34.1565 84.8401 34.4232 85.834L34.5167 84.9236C34.9055 87.2661 35.1023 90.1154 35.432 92.6153L34.8907 92.3889C34.9252 97.064 34.7923 101.951 34.689 106.616V106.655L35.4714 105.331C36.559 103.461 37.5629 101.665 38.4241 99.9822L38.2961 99.9182C38.8626 99.2708 39.3152 98.532 39.6346 97.7332C40.3285 97.0098 41.0372 96.4784 41.6277 95.7353C41.6711 95.7477 41.7171 95.7477 41.7606 95.7353L42.1001 95.1448L45.8549 88.6538L49.4867 82.3696C49.3833 82.1826 49.2603 81.9759 49.1077 81.7102H41.6966L41.731 81.7397L41.5982 82.0202Z" fill="#CE0E2D"/>
<path d="M68.6642 86.8626C68.7697 86.9692 68.8814 87.0694 68.9988 87.1627C69.422 87.9058 69.4909 87.9796 69.9831 88.954C70.1504 88.6686 71.174 90.076 71.7891 90.7945L71.9909 91.3407C73.1455 92.5884 74.1987 93.9263 75.1404 95.3416C75.3323 95.7796 75.6571 96.0699 75.5931 96.3996L75.534 96.3209L75.5931 96.5768L75.6964 96.7146L75.7899 96.8524L75.9031 97.0049L76.0508 97.0541L76.0803 97.2657L76.3657 97.689C76.5429 98.0876 76.8578 98.3582 76.7791 98.6732L76.7299 98.6043L76.8135 98.9635C76.9366 98.8799 76.9858 99.3178 77.2023 99.2735C77.2761 99.5393 77.1432 99.5737 77.4139 100.017L77.3056 99.8296C77.4336 100.213 76.9907 99.7853 77.3696 100.464L77.7535 100.676L77.7879 101.016C77.706 100.917 77.6351 100.81 77.5763 100.696C77.9011 101.34 77.6403 101.296 77.6255 101.518L78.0143 102.33L78.2013 102.408C78.5857 103.319 79.038 104.199 79.5546 105.041C79.3331 105.08 79.7465 105.7 79.9925 106.134L79.9335 106.089C79.84 106.05 79.8203 106.089 79.8597 106.212L80.0221 106.493C80.1162 106.585 80.2004 106.688 80.2731 106.798L80.2435 106.877L80.524 107.369L80.7947 107.398C80.8439 107.605 80.7012 107.541 80.6175 107.531L81.2868 108.693L81.3311 108.727L81.5525 108.756C81.5919 108.929 81.4836 108.889 81.4049 108.875C81.4049 108.875 81.4049 108.875 81.4049 108.904L81.6165 109.273V108.515C81.6165 108.481 81.6165 108.456 81.587 108.417C81.5943 108.38 81.6041 108.344 81.6165 108.309V105.056C81.6165 105.08 81.587 105.115 81.5575 105.13C81.585 105.043 81.6047 104.954 81.6165 104.864V104.638C81.6069 104.544 81.5748 104.455 81.523 104.377C81.5821 104.421 81.5722 104.229 81.5722 104.086C81.5722 103.993 81.5722 103.929 81.6018 103.973C81.6182 103.875 81.6182 103.776 81.6018 103.678V103.619C81.5908 103.543 81.5621 103.47 81.5181 103.407C81.6214 103.481 81.5181 102.876 81.6018 103.058V102.846L81.5378 102.999C81.5337 102.937 81.5337 102.874 81.5378 102.812V102.787C81.5337 102.766 81.5337 102.744 81.5378 102.723V93.1911C81.5378 93.1911 81.5082 93.1173 81.5132 92.8761L81.5378 92.9303V92.1822C81.5378 92.1822 81.5082 92.0887 81.5132 91.8427L81.5378 91.8968V90.1055C81.5082 90.0809 81.5033 89.9727 81.5378 89.5396V88.8211C81.5132 88.7867 81.5033 88.6686 81.5378 88.2405V82.5517C81.464 82.1924 81.4098 81.3362 81.3409 81.9218C81.1195 81.8184 80.9522 81.8922 80.7307 81.843C78.2013 82.1728 75.037 82.0792 72.4633 82.3893V82.5271C72.3045 82.4467 72.1501 82.358 72.0007 82.2613C71.1838 82.3056 70.3915 82.3647 69.6435 82.4533V82.6009C69.1773 82.3675 68.7466 82.0693 68.364 81.7151H66.0954C66.0265 81.8381 65.9527 81.9661 65.8838 82.0793L68.6642 86.8626ZM80.1402 106.488C80.1084 106.377 80.0655 106.27 80.0122 106.168C80.0777 106.265 80.1244 106.374 80.15 106.488H80.1402Z" fill="#00953B"/>
<path d="M68.6003 109.244L68.5462 109.268H69.3089C69.3089 109.268 69.4073 109.239 69.6583 109.244L69.6042 109.268H71.4545C71.6046 109.249 71.7517 109.211 71.8925 109.155C71.8646 109.187 71.8459 109.226 71.8384 109.268H71.8777V109.14C71.8777 108.899 71.8531 108.648 71.8433 108.427C71.7744 108.427 71.7006 108.427 71.735 107.797C71.8039 108.176 71.7941 107.945 71.7941 107.738C71.7035 106.965 71.5488 106.201 71.3315 105.454C71.3315 105.489 71.3315 105.538 71.3315 105.617V105.435C71.1933 104.947 71.029 104.468 70.8394 103.998V103.998C70.6194 103.451 70.3629 102.92 70.0717 102.408C69.988 102.482 69.3335 101.39 69.2794 101.527C69.2154 101.296 69.0481 101.208 68.9448 101.006C67.2864 99.0373 64.5699 97.2018 62.0946 96.685L62.0405 96.8081C61.9174 96.6863 61.8007 96.5582 61.6911 96.4242C60.9566 96.1779 60.1799 96.0825 59.4077 96.1437L59.3782 96.2914C58.9409 95.9865 58.5339 95.6405 58.1627 95.2579C58.0495 95.2579 57.9412 95.2579 57.828 95.2579C56.6371 95.2631 55.4516 95.4185 54.2996 95.7205C54.1299 95.827 53.9656 95.942 53.8075 96.065C53.0004 96.3603 52.8528 96.2372 51.8391 96.7293C52.1196 96.9459 50.6186 97.8267 50.0232 98.5305L49.5311 98.806C48.509 100.05 47.6308 101.405 46.913 102.846C46.6571 103.21 46.5932 103.604 46.2831 103.712L46.3127 103.634L46.1306 103.806L46.0715 103.954L46.0076 104.096L45.9387 104.259L45.9977 104.401L45.8698 104.544L45.7615 105.036C45.5942 105.41 45.604 105.784 45.3432 105.937V105.858L45.1365 106.148C45.2891 106.173 44.9938 106.498 45.1808 106.606C45.09 106.692 45.0181 106.796 44.9697 106.911C44.9214 107.026 44.8978 107.15 44.9003 107.275V107.069C44.7822 107.433 44.669 106.832 44.5854 107.561L44.7724 107.945L44.6001 108.23C44.5869 108.106 44.5869 107.98 44.6001 107.856C44.4869 108.55 44.2999 108.348 44.1572 108.545C44.1031 108.574 44.0982 108.707 44.0933 108.845C45.0512 108.965 46.0169 109.012 46.9819 108.983C46.9032 109.194 47.6709 109.145 48.1827 109.15L48.1089 109.18C48.0252 109.239 48.0498 109.278 48.1827 109.303H48.5124C48.6428 109.268 48.7764 109.247 48.911 109.239L48.9651 109.303H49.536L49.7033 109.086C49.91 109.145 49.782 109.234 49.7279 109.303H51.1058H51.155L51.2928 109.126C51.47 109.18 51.3814 109.249 51.3273 109.313H51.3519H52.5821L52.6855 109.283L52.7937 109.313H56.1253C56.0949 109.302 56.069 109.281 56.0515 109.254C56.1383 109.28 56.2272 109.3 56.3172 109.313H56.5584C56.6514 109.302 56.7407 109.27 56.8192 109.219C56.7749 109.278 56.9717 109.268 57.1194 109.268C57.2178 109.268 57.2818 109.268 57.2375 109.298C57.3352 109.314 57.435 109.314 57.5328 109.298H57.5967C57.6745 109.288 57.7488 109.259 57.8133 109.214C57.7394 109.317 58.3595 109.214 58.1774 109.298H58.3693L58.2168 109.234C58.2807 109.23 58.3448 109.23 58.4087 109.234V109.234C58.4481 109.234 58.4678 109.234 58.4776 109.234H68.2263C68.2263 109.234 68.3592 109.244 68.6003 109.244ZM48.2663 109.116C48.385 109.107 48.504 109.124 48.6157 109.165C48.5021 109.13 48.3849 109.109 48.2663 109.101V109.116Z" fill="#EDDB00"/>
<path d="M54.8555 73.3197C55.1508 73.3738 54.7866 74.3728 54.6489 74.9437L54.393 75.1946C54.2217 76.2273 53.9208 77.2343 53.4973 78.1916C53.3103 78.4179 53.3005 78.6837 53.0347 78.7231V78.6689L52.9166 78.7329L52.8822 78.8313L52.8428 78.9297L52.8034 79.0331L52.8625 79.1512L52.7296 79.2152L52.6066 79.4957C52.4344 79.6974 52.4245 79.9582 52.1785 79.9878V79.9336L51.9767 80.0665C52.1096 80.1354 51.834 80.2584 51.9767 80.4011C51.834 80.5045 51.7306 80.4011 51.583 80.6964L51.647 80.5832C51.46 80.7505 51.4895 80.3569 51.2484 80.7604L51.3271 81.0655L51.1155 81.159L51.209 80.9474C50.9531 81.3066 50.8301 81.1147 50.6677 81.1492L50.5151 81.346C50.8301 81.4149 51.2385 81.5133 51.4009 81.3854C51.3517 81.597 51.8045 81.5527 52.1047 81.5527L52.0653 81.5822C52.0112 81.6462 52.0259 81.6806 52.1047 81.7102H52.3212C52.3887 81.6746 52.462 81.6513 52.5377 81.6413L52.5672 81.7102H52.9166L53.02 81.4887C53.143 81.5527 53.0643 81.6413 53.02 81.7102H53.827H53.8615L53.9402 81.533C54.0436 81.5822 53.9944 81.656 53.9402 81.7151H54.6735L54.7276 81.6806C54.7509 81.688 54.7726 81.6997 54.7916 81.7151H56.76C56.7397 81.699 56.7229 81.6789 56.7108 81.656C56.7608 81.6819 56.8136 81.7017 56.8683 81.7151H57.011C57.0723 81.7025 57.1267 81.6674 57.1635 81.6167C57.1635 81.6806 57.257 81.6708 57.3407 81.6659L57.4047 81.6954C57.4627 81.7111 57.5238 81.7111 57.5818 81.6954H57.6212C57.6714 81.6812 57.716 81.652 57.7491 81.6117C57.7049 81.7102 58.069 81.6117 57.9607 81.6954H58.0789L57.9854 81.6265C58.0279 81.6218 58.0708 81.6218 58.1133 81.6265V81.6265H63.8611C63.8611 81.6265 63.9103 81.5921 64.0531 81.597L64.0186 81.6265H64.4713C64.4713 81.6265 64.5255 81.5921 64.678 81.597L64.6436 81.6265H65.7115L65.6377 81.4887C65.6032 81.4887 65.5638 81.4395 65.4654 81.2033L65.2489 80.8194C65.2144 80.8194 65.1701 80.7555 65.0766 80.5242L63.3543 77.542C63.1968 77.4239 62.9114 77.0499 62.8622 77.104C62.8622 76.9367 62.7687 76.8875 62.744 76.7448C61.6909 75.5932 60.815 73.8856 59.7668 72.6996L59.6438 72.7587C59.6682 72.6324 59.6994 72.5076 59.7373 72.3847C59.4643 71.9902 59.1703 71.6107 58.8564 71.2479L58.7235 71.3168C58.7949 70.9305 58.9243 70.5572 59.1074 70.2096L57.8279 68L55.5642 71.9123C55.5543 72.0104 55.5543 72.1094 55.5642 72.2075C55.3508 72.5923 55.1141 72.9637 54.8555 73.3197V73.3197ZM52.1735 81.5724C52.246 81.5655 52.3187 81.5828 52.3802 81.6216C52.3143 81.5893 52.245 81.5646 52.1735 81.5478V81.5724Z" fill="#00A6CE"/>
</svg>
