<svg width="750" height="750" viewBox="0 0 750 750" fill="none" xmlns="http://www.w3.org/2000/svg">
  <path d="M397.368 288.713H352.167L397.172 291.128L397.368 288.713Z" fill="#282560"/>
  <path d="M427.246 288.517L427.27 290.909L472.799 288.572L427.246 288.517Z" fill="#282560"/>
  <path d="M526.614 288.713H481.421L526.427 291.128L526.614 288.713Z" fill="#282560"/>
  <path d="M556.071 288.65L556.086 291.05L601.616 288.705L556.071 288.65Z" fill="#282560"/>
  <path d="M481.335 261.961V288.541H526.372V389.652C529.154 391.106 531.558 393.189 533.394 395.735C535.23 398.281 536.447 401.219 536.949 404.318H556.391V348.931C553.93 348.111 551.788 346.537 550.271 344.433C548.754 342.328 547.937 339.799 547.937 337.205C547.937 334.61 548.754 332.081 550.271 329.977C551.788 327.872 553.93 326.298 556.391 325.478V288.541H601.6V261.961H481.335Z" fill="url(#paint0_linear_506_2)"/>
  <path d="M352.096 261.961V288.541H397.133V302.557C398.593 303.046 399.862 303.981 400.762 305.23C401.661 306.479 402.145 307.98 402.145 309.519C402.145 311.058 401.661 312.559 400.762 313.808C399.862 315.057 398.593 315.992 397.133 316.48V404.318H427.152V387.901C425.815 387.168 424.7 386.089 423.923 384.777C423.146 383.465 422.736 381.968 422.736 380.443C422.736 378.918 423.146 377.422 423.923 376.11C424.7 374.797 425.815 373.718 427.152 372.985V288.556H472.361V261.977L352.096 261.961Z" fill="url(#paint1_linear_506_2)"/>
  <path d="M187.296 243.926C190.922 243.926 193.862 240.986 193.862 237.359C193.862 233.733 190.922 230.793 187.296 230.793C183.669 230.793 180.729 233.733 180.729 237.359C180.729 240.986 183.669 243.926 187.296 243.926Z" fill="url(#paint2_linear_506_2)"/>
  <path d="M341.746 278.354V261.938H323.907C322.552 264.292 320.6 266.248 318.248 267.608C315.896 268.968 313.228 269.684 310.511 269.684C307.795 269.684 305.126 268.968 302.774 267.608C300.423 266.248 298.471 264.292 297.116 261.938H279.151V278.354H295.568V387.925H279.151V404.341H341.785V387.925H325.525V278.354H341.746Z" fill="url(#paint3_linear_506_2)"/>
  <path d="M359.226 349.932C366.907 349.932 373.133 343.705 373.133 336.024C373.133 328.343 366.907 322.117 359.226 322.117C351.545 322.117 345.319 328.343 345.319 336.024C345.319 343.705 351.545 349.932 359.226 349.932Z" fill="url(#paint4_linear_506_2)"/>
  <path d="M387.33 316.871C391.393 316.871 394.686 313.578 394.686 309.515C394.686 305.452 391.393 302.159 387.33 302.159C383.267 302.159 379.974 305.452 379.974 309.515C379.974 313.578 383.267 316.871 387.33 316.871Z" fill="url(#paint5_linear_506_2)"/>
  <path d="M600.943 352.933C603.931 352.933 606.353 350.511 606.353 347.524C606.353 344.536 603.931 342.114 600.943 342.114C597.956 342.114 595.534 344.536 595.534 347.524C595.534 350.511 597.956 352.933 600.943 352.933Z" fill="url(#paint6_linear_506_2)"/>
  <path d="M493.163 340.418C505.11 340.418 514.794 330.733 514.794 318.787C514.794 306.84 505.11 297.156 493.163 297.156C481.217 297.156 471.532 306.84 471.532 318.787C471.532 330.733 481.217 340.418 493.163 340.418Z" fill="url(#paint7_linear_506_2)"/>
  <path d="M441.404 388.018C446.524 388.018 450.675 383.867 450.675 378.747C450.675 373.626 446.524 369.475 441.404 369.475C436.283 369.475 432.132 373.626 432.132 378.747C432.132 383.867 436.283 388.018 441.404 388.018Z" fill="url(#paint8_linear_506_2)"/>
  <path d="M611.77 321.718C616.891 321.718 621.042 317.567 621.042 312.447C621.042 307.326 616.891 303.175 611.77 303.175C606.65 303.175 602.499 307.326 602.499 312.447C602.499 317.567 606.65 321.718 611.77 321.718Z" fill="url(#paint9_linear_506_2)"/>
  <path d="M505.257 355.474C508.089 355.474 510.385 353.178 510.385 350.346C510.385 347.514 508.089 345.218 505.257 345.218C502.425 345.218 500.129 347.514 500.129 350.346C500.129 353.178 502.425 355.474 505.257 355.474Z" fill="url(#paint10_linear_506_2)"/>
  <path d="M572.534 348.579C579.477 348.579 585.105 342.951 585.105 336.009C585.105 329.066 579.477 323.438 572.534 323.438C565.592 323.438 559.964 329.066 559.964 336.009C559.964 342.951 565.592 348.579 572.534 348.579Z" fill="url(#paint11_linear_506_2)"/>
  <path d="M520.415 416.802C527.358 416.802 532.986 411.174 532.986 404.232C532.986 397.289 527.358 391.661 520.415 391.661C513.473 391.661 507.845 397.289 507.845 404.232C507.845 411.174 513.473 416.802 520.415 416.802Z" fill="url(#paint12_linear_506_2)"/>
  <path d="M146.16 395.117C156.19 395.117 164.32 386.986 164.32 376.957C164.32 366.927 156.19 358.797 146.16 358.797C136.131 358.797 128 366.927 128 376.957C128 386.986 136.131 395.117 146.16 395.117Z" fill="url(#paint13_linear_506_2)"/>
  <path d="M472.705 262.141H352.096V288.713H472.705V262.141Z" fill="url(#paint14_linear_506_2)"/>
  <path d="M601.428 262.141H480.991V288.713H601.428V262.141Z" fill="url(#paint15_linear_506_2)"/>
  <path d="M258.92 321.491H172.302V348.063H258.92V321.491Z" fill="url(#paint16_linear_506_2)"/>
  <path d="M310.515 255.91C319.051 255.91 325.97 248.991 325.97 240.455C325.97 231.92 319.051 225 310.515 225C301.98 225 295.06 231.92 295.06 240.455C295.06 248.991 301.98 255.91 310.515 255.91Z" fill="#6FCADB"/>
  <path d="M325.345 304.41H295.498V387.925H325.345V304.41Z" fill="url(#paint17_linear_506_2)"/>
  <path d="M162.593 272.507C170.485 272.507 176.883 266.109 176.883 258.217C176.883 250.324 170.485 243.926 162.593 243.926C154.7 243.926 148.302 250.324 148.302 258.217C148.302 266.109 154.7 272.507 162.593 272.507Z" fill="url(#paint18_linear_506_2)"/>
  <path d="M210.608 411.565C216.086 411.565 220.528 407.123 220.528 401.644C220.528 396.165 216.086 391.724 210.608 391.724C205.129 391.724 200.687 396.165 200.687 401.644C200.687 407.123 205.129 411.565 210.608 411.565Z" fill="url(#paint19_linear_506_2)"/>
  <path d="M185.928 262.313C186.288 263.613 186.454 264.959 186.42 266.308C186.426 270.067 184.946 273.676 182.3 276.348C179.655 279.019 176.061 280.536 172.302 280.567V288.713H263.235V262.313H185.928Z" fill="url(#paint20_linear_506_2)"/>
  <path d="M185.834 262.313C186.237 263.619 186.438 264.98 186.428 266.347C186.427 268.224 186.056 270.082 185.336 271.815C184.617 273.549 183.562 275.124 182.234 276.449C180.905 277.775 179.328 278.826 177.593 279.542C175.858 280.258 173.999 280.625 172.122 280.621H171.614V404.138H195.176C194.511 402.824 194.161 401.373 194.152 399.901C194.143 397.754 194.836 395.663 196.124 393.946C197.412 392.229 199.226 390.979 201.289 390.387V262.313H185.834Z" fill="url(#paint21_linear_506_2)"/>
  <path d="M177.07 470.548H171.739V442.71H162.264V438.191H186.498V442.71H177.07V470.548Z" fill="#794F9E"/>
  <path d="M193.558 436.667C194.297 436.647 195.023 436.873 195.621 437.308C195.936 437.578 196.18 437.92 196.332 438.306C196.485 438.691 196.541 439.108 196.497 439.52C196.539 439.932 196.481 440.348 196.329 440.733C196.176 441.118 195.934 441.461 195.621 441.732C195.029 442.181 194.301 442.416 193.558 442.397C192.801 442.422 192.059 442.187 191.455 441.732C191.146 441.458 190.907 441.115 190.758 440.73C190.608 440.345 190.552 439.931 190.595 439.52C190.55 439.109 190.605 438.694 190.754 438.309C190.904 437.924 191.144 437.58 191.455 437.308C192.065 436.867 192.805 436.642 193.558 436.667ZM196.122 446.048V470.548H190.9V446.048H196.122Z" fill="#794F9E"/>
  <path d="M231.238 445.586C233.982 445.586 236.054 446.29 237.445 447.713C238.837 449.136 239.54 451.395 239.54 454.522V470.548H234.341V455.507C234.445 454.022 234.064 452.543 233.255 451.293C232.857 450.812 232.35 450.434 231.776 450.189C231.202 449.944 230.578 449.84 229.956 449.886C227.871 449.886 226.386 450.543 225.5 451.856C224.614 453.169 224.16 455.08 224.14 457.586V470.579H218.957V455.507C218.985 454.444 218.823 453.386 218.48 452.38C218.213 451.612 217.703 450.953 217.026 450.504C216.283 450.069 215.431 449.855 214.571 449.886C213.356 449.809 212.149 450.136 211.139 450.816C210.233 451.541 209.59 452.544 209.31 453.67C208.91 455.182 208.724 456.742 208.755 458.306V470.548H203.533V446.048H207.606L208.34 449.347H208.622C209.098 448.524 209.736 447.805 210.498 447.236C211.247 446.678 212.088 446.257 212.984 445.993C213.91 445.719 214.872 445.582 215.837 445.586C217.434 445.537 219.02 445.866 220.465 446.548C221.707 447.178 222.697 448.212 223.272 449.48H223.647C224.38 448.185 225.505 447.156 226.86 446.54C228.23 445.901 229.726 445.575 231.238 445.586V445.586Z" fill="#794F9E"/>
  <path d="M249.445 436.667C250.187 436.649 250.914 436.874 251.517 437.308C251.829 437.579 252.072 437.922 252.225 438.307C252.377 438.692 252.434 439.108 252.392 439.52C252.432 439.932 252.373 440.347 252.221 440.732C252.069 441.116 251.827 441.459 251.517 441.732C250.906 442.165 250.177 442.397 249.429 442.397C248.682 442.397 247.952 442.165 247.342 441.732C247.035 441.457 246.797 441.113 246.648 440.729C246.499 440.345 246.442 439.93 246.482 439.52C246.439 439.11 246.495 438.695 246.644 438.31C246.794 437.925 247.033 437.582 247.342 437.308C247.954 436.869 248.693 436.644 249.445 436.667V436.667ZM252.017 446.048V470.548H246.795V446.048H252.017Z" fill="#794F9E"/>
  <path d="M275.899 463.551C275.948 464.998 275.537 466.424 274.727 467.624C273.869 468.791 272.674 469.667 271.303 470.133C269.545 470.744 267.691 471.032 265.83 470.986C264.35 471.006 262.871 470.886 261.413 470.626C260.207 470.39 259.032 470.015 257.911 469.508V465.013C259.173 465.591 260.48 466.064 261.82 466.428C263.163 466.812 264.551 467.014 265.948 467.03C267.225 467.139 268.507 466.867 269.63 466.248C269.988 466.015 270.281 465.695 270.48 465.317C270.68 464.94 270.78 464.518 270.771 464.091C270.774 463.58 270.616 463.082 270.318 462.668C269.855 462.119 269.283 461.674 268.637 461.362C267.465 460.752 266.256 460.217 265.017 459.76C263.669 459.233 262.363 458.606 261.109 457.883C260.133 457.343 259.304 456.573 258.693 455.64C258.122 454.615 257.851 453.45 257.911 452.278C257.865 451.295 258.08 450.317 258.535 449.443C258.989 448.57 259.667 447.833 260.499 447.306C262.564 446.092 264.938 445.505 267.331 445.618C268.764 445.608 270.193 445.76 271.592 446.071C272.934 446.382 274.243 446.821 275.501 447.384L273.859 451.293C272.775 450.828 271.663 450.434 270.529 450.113C269.426 449.795 268.284 449.634 267.136 449.636C266.078 449.572 265.022 449.785 264.071 450.254C263.75 450.418 263.481 450.669 263.294 450.979C263.108 451.288 263.011 451.643 263.016 452.005C263.003 452.537 263.184 453.057 263.524 453.467C264.027 453.976 264.624 454.383 265.283 454.663C266.122 455.059 267.284 455.551 268.77 456.14C270.078 456.631 271.348 457.219 272.569 457.899C273.56 458.439 274.405 459.212 275.032 460.15C275.645 461.176 275.947 462.357 275.899 463.551V463.551Z" fill="#794F9E"/>
  <path d="M307.584 442.217C306.157 442.191 304.743 442.48 303.44 443.061C302.231 443.612 301.172 444.446 300.352 445.493C299.469 446.637 298.813 447.94 298.422 449.331C297.962 450.977 297.738 452.68 297.757 454.389C297.709 456.586 298.07 458.773 298.82 460.838C299.439 462.531 300.57 463.987 302.057 465.005C303.696 466.022 305.601 466.526 307.529 466.451C308.881 466.455 310.23 466.321 311.555 466.053C312.917 465.771 314.262 465.408 315.581 464.966V469.485C314.296 469.992 312.963 470.369 311.602 470.61C310.064 470.86 308.508 470.978 306.95 470.962C304.061 471.086 301.197 470.381 298.695 468.929C296.509 467.554 294.808 465.528 293.833 463.137C292.73 460.35 292.198 457.37 292.269 454.373C292.232 452.109 292.554 449.853 293.223 447.689C293.844 445.749 294.855 443.956 296.194 442.42C297.514 440.923 299.158 439.747 301.001 438.981C303.088 438.133 305.324 437.718 307.576 437.761C309.187 437.761 310.792 437.947 312.36 438.316C313.87 438.666 315.338 439.177 316.738 439.841L314.877 444.226C313.733 443.694 312.555 443.237 311.352 442.858C310.136 442.453 308.865 442.236 307.584 442.217V442.217Z" fill="#794F9E"/>
  <path d="M343.677 458.243C343.712 460.079 343.448 461.909 342.895 463.661C342.41 465.15 341.61 466.517 340.55 467.671C339.529 468.765 338.273 469.612 336.876 470.149C335.327 470.73 333.683 471.014 332.029 470.986C330.449 471.007 328.881 470.723 327.409 470.149C326.025 469.604 324.781 468.758 323.766 467.671C322.714 466.512 321.915 465.146 321.421 463.661C320.833 461.916 320.55 460.083 320.584 458.243C320.515 455.874 320.996 453.522 321.991 451.371C322.86 449.561 324.262 448.061 326.009 447.072C327.926 446.032 330.084 445.519 332.263 445.586C334.351 445.541 336.413 446.054 338.236 447.072C339.983 448.075 341.392 449.574 342.286 451.379C343.29 453.524 343.767 455.877 343.677 458.243V458.243ZM325.908 458.243C325.873 459.796 326.095 461.344 326.565 462.824C326.928 464.013 327.664 465.055 328.664 465.794C329.664 466.534 330.875 466.933 332.119 466.933C333.363 466.933 334.574 466.534 335.573 465.794C336.573 465.055 337.309 464.013 337.673 462.824C338.136 461.342 338.355 459.795 338.322 458.243C338.355 456.709 338.136 455.18 337.673 453.717C337.312 452.578 336.604 451.58 335.648 450.863C334.602 450.168 333.362 449.823 332.107 449.878C329.95 449.878 328.386 450.6 327.417 452.044C326.4 453.49 325.908 455.562 325.908 458.243Z" fill="#794F9E"/>
  <path d="M371.007 446.048V470.548H366.911L366.184 467.272H365.926C365.423 468.099 364.752 468.81 363.956 469.359C363.146 469.922 362.244 470.338 361.29 470.587C360.283 470.856 359.244 470.99 358.202 470.985C356.588 471.028 354.985 470.707 353.511 470.047C352.216 469.435 351.159 468.413 350.502 467.139C349.739 465.555 349.376 463.807 349.446 462.05V446.048H354.692V461.073C354.579 462.59 354.991 464.099 355.857 465.349C356.311 465.844 356.873 466.229 357.499 466.474C358.125 466.719 358.798 466.819 359.468 466.764C360.79 466.833 362.101 466.492 363.221 465.787C364.188 465.079 364.888 464.065 365.206 462.91C365.636 461.385 365.836 459.804 365.801 458.22V446.048H371.007Z" fill="#794F9E"/>
  <path d="M391.207 445.586C393.97 445.586 396.122 446.298 397.665 447.721C399.207 449.143 399.976 451.426 399.971 454.569V470.548H394.772V455.546C394.884 454.033 394.47 452.528 393.6 451.285C393.144 450.786 392.581 450.397 391.952 450.149C391.323 449.901 390.646 449.8 389.972 449.855C387.627 449.855 385.946 450.59 385.024 452.044C384.101 453.498 383.64 455.616 383.64 458.376V470.548H378.434V446.048H382.507L383.241 449.37H383.523C384.031 448.536 384.707 447.818 385.508 447.259C386.316 446.697 387.212 446.275 388.159 446.009C389.15 445.727 390.177 445.585 391.207 445.586V445.586Z" fill="#794F9E"/>
  <path d="M416.349 466.788C417.025 466.788 417.7 466.725 418.365 466.6C418.978 466.485 419.584 466.333 420.179 466.146V470.055C419.459 470.35 418.71 470.565 417.943 470.696C417.003 470.877 416.047 470.966 415.09 470.962C413.808 470.985 412.534 470.748 411.345 470.266C410.224 469.783 409.297 468.938 408.711 467.866C407.994 466.411 407.661 464.796 407.741 463.176V450.035H404.403V447.689L407.984 445.829L409.688 440.583H412.964V446.056H419.999V450.035H412.964V463.113C412.925 463.613 412.987 464.116 413.147 464.592C413.307 465.067 413.561 465.505 413.894 465.881C414.222 466.188 414.608 466.426 415.03 466.582C415.451 466.738 415.9 466.808 416.349 466.788V466.788Z" fill="#794F9E"/>
  <path d="M421.43 446.048H427.098L432.116 460.033C432.335 460.666 432.539 461.292 432.726 461.902C432.914 462.511 433.07 463.121 433.211 463.707C433.352 464.294 433.469 464.888 433.555 465.482H433.688C433.834 464.716 434.045 463.856 434.321 462.902C434.595 461.948 434.899 460.995 435.236 460.033L440.043 446.048H445.664L435.15 473.909C434.619 475.375 433.867 476.751 432.922 477.99C432.094 479.079 431.023 479.96 429.795 480.562C428.514 481.161 427.113 481.461 425.698 481.438C425.055 481.441 424.412 481.399 423.775 481.312C423.228 481.234 422.767 481.148 422.376 481.054V476.896C422.763 476.984 423.154 477.052 423.548 477.099C424.034 477.155 424.522 477.184 425.01 477.185C425.841 477.228 426.669 477.054 427.412 476.68C428.155 476.306 428.788 475.744 429.247 475.051C429.735 474.341 430.129 473.571 430.42 472.76L431.28 470.415L421.43 446.048Z" fill="#794F9E"/>
  <path d="M470.876 452.95L478.552 438.191H484.283L473.534 457.977V470.548H468.218V458.18L457.461 438.191H463.238L470.876 452.95Z" fill="#794F9E"/>
  <path d="M509.69 458.243C509.725 460.079 509.461 461.909 508.908 463.661C508.422 465.15 507.622 466.517 506.563 467.671C505.54 468.763 504.284 469.61 502.888 470.149C501.34 470.73 499.695 471.014 498.042 470.986C496.459 471.006 494.888 470.722 493.414 470.149C492.034 469.602 490.792 468.756 489.778 467.671C488.712 466.515 487.9 465.149 487.394 463.661C486.811 461.915 486.528 460.083 486.558 458.243C486.488 455.874 486.97 453.522 487.965 451.371C488.831 449.562 490.23 448.061 491.975 447.072C493.892 446.034 496.05 445.522 498.229 445.586C500.316 445.543 502.378 446.056 504.202 447.072C505.946 448.078 507.355 449.576 508.251 451.379C509.272 453.52 509.765 455.873 509.69 458.243V458.243ZM491.92 458.243C491.887 459.795 492.107 461.342 492.569 462.824C492.905 464.017 493.642 465.058 494.656 465.77C495.67 466.482 496.899 466.822 498.135 466.733C499.368 466.818 500.592 466.476 501.602 465.764C502.611 465.052 503.345 464.014 503.678 462.824C504.147 461.344 504.369 459.796 504.335 458.243C504.37 456.708 504.148 455.178 503.678 453.717C503.32 452.576 502.611 451.578 501.653 450.863C500.607 450.168 499.367 449.823 498.112 449.878C495.965 449.878 494.401 450.6 493.421 452.044C492.413 453.49 491.92 455.562 491.92 458.243Z" fill="#794F9E"/>
  <path d="M537.02 446.048V470.548H532.923L532.196 467.272H531.93C531.428 468.099 530.756 468.81 529.96 469.359C529.151 469.922 528.248 470.338 527.295 470.587C526.287 470.856 525.249 470.99 524.207 470.985C522.593 471.027 520.99 470.706 519.516 470.047C518.223 469.432 517.166 468.411 516.506 467.139C515.75 465.553 515.39 463.806 515.459 462.05V446.048H520.712V461.073C520.597 462.589 521.006 464.098 521.869 465.349C522.325 465.844 522.888 466.229 523.516 466.474C524.143 466.72 524.818 466.819 525.489 466.764C526.81 466.833 528.121 466.492 529.241 465.787C530.206 465.078 530.903 464.065 531.219 462.91C531.655 461.386 531.858 459.804 531.821 458.22V446.048H537.02Z" fill="#794F9E"/>
  <path d="M553.546 466.788C554.222 466.788 554.898 466.725 555.563 466.6C556.176 466.485 556.781 466.333 557.376 466.146V470.055C556.657 470.35 555.907 470.565 555.141 470.696C554.2 470.877 553.245 470.966 552.287 470.962C551.005 470.985 549.731 470.748 548.543 470.266C547.421 469.783 546.494 468.938 545.908 467.866C545.192 466.411 544.858 464.796 544.939 463.176V450.035H541.601V447.689L545.181 445.829L546.885 440.583H550.161V446.056H557.197V450.035H550.161V463.113C550.122 463.613 550.185 464.116 550.344 464.592C550.504 465.067 550.758 465.505 551.091 465.881C551.419 466.188 551.805 466.426 552.227 466.582C552.648 466.738 553.097 466.808 553.546 466.788Z" fill="#794F9E"/>
  <path d="M567.617 436.112V444.766C567.617 445.665 567.617 446.548 567.539 447.4C567.461 448.252 567.43 448.917 567.375 449.394H567.617C568.103 448.568 568.749 447.848 569.517 447.275C570.284 446.717 571.14 446.294 572.05 446.024C573.025 445.744 574.036 445.605 575.052 445.61C576.694 445.564 578.325 445.884 579.828 446.548C581.127 447.158 582.188 448.181 582.846 449.456C583.61 451.048 583.973 452.804 583.901 454.569V470.548H578.702V455.546C578.813 454.031 578.393 452.524 577.514 451.285C577.06 450.787 576.497 450.399 575.87 450.151C575.243 449.903 574.567 449.802 573.895 449.855C572.574 449.785 571.265 450.13 570.15 450.84C569.184 451.555 568.485 452.574 568.164 453.732C567.731 455.257 567.531 456.838 567.57 458.423V470.571H562.348V436.112H567.617Z" fill="#794F9E"/>
  <path d="M258.591 524.926H253.354V492.577H271.639V497.049H258.591V507.141H270.763V511.605H258.591V524.926Z" fill="#794F9E"/>
  <path d="M298.625 512.629C298.659 514.466 298.395 516.295 297.843 518.047C297.36 519.535 296.56 520.9 295.498 522.049C294.479 523.146 293.222 523.994 291.824 524.528C290.275 525.111 288.631 525.398 286.977 525.372C285.394 525.39 283.823 525.103 282.349 524.528C280.967 523.983 279.725 523.137 278.714 522.049C277.66 520.894 276.861 519.531 276.368 518.047C275.786 516.301 275.503 514.469 275.532 512.629C275.461 510.261 275.943 507.908 276.939 505.758C277.807 503.948 279.206 502.445 280.949 501.45C282.869 500.419 285.025 499.909 287.203 499.973C289.29 499.931 291.35 500.441 293.176 501.45C294.919 502.462 296.327 503.962 297.225 505.766C298.235 507.908 298.715 510.262 298.625 512.629ZM280.856 512.629C280.823 514.181 281.042 515.728 281.504 517.21C281.84 518.403 282.577 519.444 283.591 520.156C284.605 520.868 285.834 521.209 287.071 521.119C288.303 521.205 289.527 520.862 290.537 520.15C291.547 519.438 292.28 518.4 292.613 517.21C293.082 515.73 293.304 514.182 293.27 512.629C293.306 511.094 293.084 509.564 292.613 508.103C292.257 506.962 291.548 505.963 290.588 505.25C289.542 504.555 288.302 504.21 287.047 504.265C284.9 504.265 283.336 504.986 282.357 506.43C281.377 507.874 280.876 509.94 280.856 512.629V512.629Z" fill="#794F9E"/>
  <path d="M325.955 500.434V524.926H321.858L321.131 521.659H320.866C320.361 522.483 319.69 523.194 318.896 523.746C318.084 524.305 317.182 524.72 316.23 524.973C315.223 525.242 314.184 525.376 313.142 525.372C311.528 525.413 309.925 525.092 308.451 524.434C307.159 523.816 306.103 522.796 305.442 521.526C304.684 519.937 304.325 518.187 304.394 516.429V500.434H309.64V515.459C309.64 517.359 310.023 518.79 310.797 519.728C311.252 520.224 311.815 520.61 312.442 520.855C313.069 521.101 313.745 521.199 314.416 521.143C315.737 521.214 317.047 520.875 318.168 520.173C319.132 519.463 319.829 518.45 320.146 517.296C320.583 515.772 320.785 514.191 320.748 512.606V500.411L325.955 500.434Z" fill="#794F9E"/>
  <path d="M346.155 499.973C348.917 499.973 351.067 500.684 352.605 502.107C354.142 503.53 354.924 505.812 354.95 508.955V524.926H349.751V509.924C349.861 508.412 349.447 506.907 348.579 505.664C348.122 505.167 347.558 504.78 346.929 504.533C346.301 504.287 345.624 504.187 344.951 504.241C342.575 504.241 340.925 504.971 340.003 506.43C339.08 507.889 338.619 510 338.619 512.762V524.926H333.397V500.434H337.47L338.197 503.749H338.486C338.996 502.919 339.669 502.2 340.464 501.638C341.274 501.076 342.172 500.653 343.122 500.387C344.109 500.109 345.13 499.97 346.155 499.973Z" fill="#794F9E"/>
  <path d="M370.389 525.372C369.049 525.425 367.714 525.163 366.492 524.608C365.27 524.053 364.196 523.22 363.354 522.175C361.587 520.038 360.706 516.893 360.711 512.739C360.717 508.585 361.621 505.403 363.424 503.194C364.278 502.145 365.363 501.307 366.595 500.747C367.826 500.187 369.17 499.919 370.522 499.965C371.619 499.945 372.71 500.112 373.751 500.458C374.626 500.763 375.443 501.215 376.167 501.794C376.823 502.337 377.397 502.971 377.871 503.678H378.113C378.035 503.225 377.957 502.56 377.871 501.701C377.783 500.904 377.739 500.102 377.738 499.301V490.498H382.96V524.895H378.887L377.957 521.58H377.738C377.289 522.306 376.733 522.959 376.088 523.519C375.38 524.119 374.566 524.58 373.688 524.879C372.626 525.234 371.509 525.401 370.389 525.372ZM371.867 521.174C374.082 521.174 375.645 520.533 376.557 519.251C377.469 517.969 377.939 516.043 377.965 513.474V512.794C377.965 510.05 377.519 507.947 376.643 506.485C375.768 505.023 374.157 504.296 371.812 504.296C370.963 504.257 370.118 504.445 369.365 504.841C368.612 505.237 367.978 505.826 367.528 506.547C366.543 508.056 366.059 510.159 366.059 512.856C366.059 515.553 366.543 517.617 367.528 519.04C368.006 519.74 368.656 520.304 369.417 520.678C370.177 521.052 371.021 521.223 371.867 521.174V521.174Z" fill="#794F9E"/>
  <path d="M399.994 499.973C403.121 499.973 405.467 500.653 407.03 502.029C408.594 503.405 409.375 505.539 409.375 508.447V524.926H405.685L404.661 521.455H404.489C403.86 522.27 403.138 523.01 402.34 523.66C401.583 524.248 400.72 524.686 399.799 524.95C398.649 525.255 397.462 525.397 396.273 525.372C394.929 525.402 393.594 525.135 392.364 524.59C391.227 524.067 390.279 523.204 389.652 522.12C388.95 520.832 388.61 519.379 388.667 517.914C388.602 516.803 388.828 515.694 389.323 514.698C389.818 513.701 390.565 512.851 391.489 512.231C393.365 510.964 396.208 510.263 400.018 510.128L404.247 509.971V508.666C404.247 506.988 403.856 505.784 403.074 505.054C402.145 504.285 400.956 503.899 399.752 503.975C398.544 503.971 397.342 504.15 396.187 504.507C395.04 504.86 393.917 505.288 392.826 505.789L391.121 502.115C392.426 501.441 393.803 500.916 395.226 500.551C396.784 500.155 398.387 499.961 399.994 499.973V499.973ZM404.224 513.263L401.097 513.395C398.491 513.479 396.667 513.917 395.624 514.709C395.119 515.087 394.713 515.582 394.441 516.151C394.169 516.72 394.038 517.346 394.061 517.977C394.018 518.471 394.094 518.968 394.281 519.428C394.469 519.887 394.763 520.296 395.14 520.619C395.973 521.187 396.97 521.464 397.977 521.408C399.608 521.461 401.199 520.903 402.441 519.845C403.053 519.273 403.529 518.573 403.836 517.794C404.143 517.015 404.273 516.177 404.216 515.342L404.224 513.263Z" fill="#794F9E"/>
  <path d="M425.8 521.174C426.474 521.174 427.147 521.111 427.809 520.986C428.423 520.876 429.029 520.724 429.623 520.533V524.442C428.905 524.734 428.158 524.948 427.395 525.083C426.452 525.264 425.494 525.353 424.533 525.348C423.254 525.367 421.984 525.13 420.797 524.653C419.675 524.169 418.748 523.324 418.162 522.253C417.446 520.797 417.112 519.183 417.193 517.562V504.413H413.847V502.068L417.435 500.207L419.139 494.97H422.415V500.442H429.451V504.421H422.415V517.5C422.373 518 422.434 518.504 422.594 518.98C422.754 519.455 423.01 519.894 423.345 520.267C423.672 520.576 424.058 520.815 424.48 520.971C424.902 521.127 425.351 521.196 425.8 521.174Z" fill="#794F9E"/>
  <path d="M437.237 491.053C437.979 491.035 438.706 491.26 439.308 491.694C439.621 491.965 439.864 492.308 440.017 492.693C440.169 493.078 440.226 493.494 440.184 493.906C440.223 494.318 440.164 494.733 440.012 495.118C439.86 495.502 439.619 495.845 439.308 496.119C438.698 496.551 437.969 496.783 437.221 496.783C436.473 496.783 435.744 496.551 435.134 496.119C434.828 495.843 434.59 495.499 434.441 495.115C434.291 494.731 434.234 494.317 434.274 493.906C434.231 493.496 434.287 493.081 434.436 492.696C434.586 492.311 434.825 491.968 435.134 491.694C435.745 491.254 436.484 491.029 437.237 491.053V491.053ZM439.809 500.434V524.926H434.579V500.434H439.809Z" fill="#794F9E"/>
  <path d="M468.929 512.629C468.964 514.466 468.7 516.295 468.147 518.047C467.664 519.535 466.864 520.9 465.802 522.049C464.782 523.144 463.525 523.992 462.128 524.528C460.58 525.111 458.935 525.398 457.281 525.372C455.698 525.39 454.127 525.104 452.653 524.528C451.271 523.983 450.029 523.137 449.018 522.049C447.95 520.898 447.138 519.534 446.634 518.047C446.047 516.302 445.764 514.47 445.797 512.629C445.727 510.262 446.206 507.91 447.196 505.758C448.07 503.949 449.471 502.447 451.215 501.45C453.134 500.419 455.291 499.909 457.469 499.973C459.555 499.931 461.615 500.441 463.441 501.45C465.184 502.462 466.592 503.962 467.491 505.766C468.511 507.906 469.004 510.259 468.929 512.629V512.629ZM451.16 512.629C451.123 514.182 451.343 515.729 451.809 517.21C452.144 518.403 452.881 519.444 453.895 520.156C454.91 520.868 456.139 521.209 457.375 521.119C458.626 521.173 459.86 520.819 460.893 520.111C461.852 519.374 462.559 518.358 462.917 517.203C463.386 515.722 463.608 514.174 463.574 512.622C463.61 511.087 463.388 509.557 462.917 508.095C462.558 506.955 461.85 505.957 460.893 505.242C459.846 504.547 458.606 504.202 457.351 504.257C455.204 504.257 453.641 504.979 452.661 506.422C451.681 507.866 451.173 509.935 451.136 512.629H451.16Z" fill="#794F9E"/>
  <path d="M487.668 499.973C490.425 499.973 492.574 500.684 494.117 502.107C495.681 503.53 496.462 505.812 496.462 508.955V524.926H491.264V509.924C491.374 508.412 490.959 506.907 490.091 505.664C489.634 505.167 489.07 504.78 488.442 504.533C487.813 504.287 487.137 504.187 486.464 504.241C484.087 504.241 482.438 504.971 481.515 506.43C480.593 507.889 480.132 510 480.132 512.762V524.926H474.909V500.434H478.982L479.709 503.749H479.999C480.511 502.918 481.187 502.2 481.984 501.638C482.792 501.076 483.687 500.653 484.634 500.387C485.621 500.109 486.642 499.97 487.668 499.973V499.973Z" fill="#794F9E"/>
  <defs>
    <linearGradient id="paint0_linear_506_2" x1="540.436" y1="404.341" x2="541.577" y2="261.484" gradientUnits="userSpaceOnUse">
      <stop offset="0.66" stop-color="#673793"/>
      <stop offset="1" stop-color="#201B51"/>
    </linearGradient>
    <linearGradient id="paint1_linear_506_2" x1="411.197" y1="404.427" x2="412.338" y2="261.484" gradientUnits="userSpaceOnUse">
      <stop offset="0.52" stop-color="#794F9E"/>
      <stop offset="1" stop-color="#201B51"/>
    </linearGradient>
    <linearGradient id="paint2_linear_506_2" x1="193.862" y1="237.359" x2="180.721" y2="237.359" gradientUnits="userSpaceOnUse">
      <stop offset="0.43" stop-color="#794F9E"/>
      <stop offset="1" stop-color="#674E9F"/>
    </linearGradient>
    <linearGradient id="paint3_linear_506_2" x1="361.712" y1="313.127" x2="259.146" y2="353.152" gradientUnits="userSpaceOnUse">
      <stop offset="0.52" stop-color="#6FCADB"/>
      <stop offset="1" stop-color="#48C3D7"/>
    </linearGradient>
    <linearGradient id="paint4_linear_506_2" x1="345.319" y1="336.024" x2="373.133" y2="336.024" gradientUnits="userSpaceOnUse">
      <stop offset="0.43" stop-color="#794F9E"/>
      <stop offset="1" stop-color="#674E9F"/>
    </linearGradient>
    <linearGradient id="paint5_linear_506_2" x1="379.974" y1="309.515" x2="394.694" y2="309.515" gradientUnits="userSpaceOnUse">
      <stop offset="0.43" stop-color="#794F9E"/>
      <stop offset="1" stop-color="#674E9F"/>
    </linearGradient>
    <linearGradient id="paint6_linear_506_2" x1="595.534" y1="347.524" x2="606.353" y2="347.524" gradientUnits="userSpaceOnUse">
      <stop offset="0.43" stop-color="#794F9E"/>
      <stop offset="1" stop-color="#674E9F"/>
    </linearGradient>
    <linearGradient id="paint7_linear_506_2" x1="471.524" y1="318.787" x2="514.794" y2="318.787" gradientUnits="userSpaceOnUse">
      <stop offset="0.43" stop-color="#794F9E"/>
      <stop offset="1" stop-color="#674E9F"/>
    </linearGradient>
    <linearGradient id="paint8_linear_506_2" x1="432.132" y1="378.747" x2="450.675" y2="378.747" gradientUnits="userSpaceOnUse">
      <stop offset="0.43" stop-color="#794F9E"/>
      <stop offset="1" stop-color="#674E9F"/>
    </linearGradient>
    <linearGradient id="paint9_linear_506_2" x1="602.499" y1="312.447" x2="621.042" y2="312.447" gradientUnits="userSpaceOnUse">
      <stop offset="0.43" stop-color="#794F9E"/>
      <stop offset="1" stop-color="#674E9F"/>
    </linearGradient>
    <linearGradient id="paint10_linear_506_2" x1="500.129" y1="350.346" x2="510.385" y2="350.346" gradientUnits="userSpaceOnUse">
      <stop offset="0.43" stop-color="#794F9E"/>
      <stop offset="1" stop-color="#674E9F"/>
    </linearGradient>
    <linearGradient id="paint11_linear_506_2" x1="559.956" y1="336.009" x2="585.105" y2="336.009" gradientUnits="userSpaceOnUse">
      <stop offset="0.43" stop-color="#794F9E"/>
      <stop offset="1" stop-color="#674E9F"/>
    </linearGradient>
    <linearGradient id="paint12_linear_506_2" x1="507.837" y1="404.232" x2="532.986" y2="404.232" gradientUnits="userSpaceOnUse">
      <stop offset="0.43" stop-color="#794F9E"/>
      <stop offset="1" stop-color="#674E9F"/>
    </linearGradient>
    <linearGradient id="paint13_linear_506_2" x1="164.32" y1="376.957" x2="128.008" y2="376.957" gradientUnits="userSpaceOnUse">
      <stop offset="0.43" stop-color="#794F9E"/>
      <stop offset="1" stop-color="#674E9F"/>
    </linearGradient>
    <linearGradient id="paint14_linear_506_2" x1="352.096" y1="275.423" x2="472.705" y2="275.423" gradientUnits="userSpaceOnUse">
      <stop offset="0.43" stop-color="#794F9E"/>
      <stop offset="1" stop-color="#674E9F"/>
    </linearGradient>
    <linearGradient id="paint15_linear_506_2" x1="480.991" y1="275.423" x2="601.428" y2="275.423" gradientUnits="userSpaceOnUse">
      <stop offset="0.43" stop-color="#794F9E"/>
      <stop offset="1" stop-color="#674E9F"/>
    </linearGradient>
    <linearGradient id="paint16_linear_506_2" x1="259.584" y1="334.781" x2="174.717" y2="334.781" gradientUnits="userSpaceOnUse">
      <stop offset="0.52" stop-color="#794F9E"/>
      <stop offset="1" stop-color="#201B51"/>
    </linearGradient>
    <linearGradient id="paint17_linear_506_2" x1="310.429" y1="271.483" x2="310.429" y2="367.88" gradientUnits="userSpaceOnUse">
      <stop offset="0.52" stop-color="#6FCADB"/>
      <stop offset="1" stop-color="#48C3D7"/>
    </linearGradient>
    <linearGradient id="paint18_linear_506_2" x1="176.891" y1="258.217" x2="148.302" y2="258.217" gradientUnits="userSpaceOnUse">
      <stop offset="0.43" stop-color="#794F9E"/>
      <stop offset="1" stop-color="#674E9F"/>
    </linearGradient>
    <linearGradient id="paint19_linear_506_2" x1="220.528" y1="401.644" x2="200.687" y2="401.644" gradientUnits="userSpaceOnUse">
      <stop offset="0.43" stop-color="#794F9E"/>
      <stop offset="1" stop-color="#674E9F"/>
    </linearGradient>
    <linearGradient id="paint20_linear_506_2" x1="263.931" y1="275.509" x2="174.835" y2="275.509" gradientUnits="userSpaceOnUse">
      <stop offset="0.52" stop-color="#794F9E"/>
      <stop offset="1" stop-color="#201B51"/>
    </linearGradient>
    <linearGradient id="paint21_linear_506_2" x1="201.516" y1="333.225" x2="172.442" y2="333.225" gradientUnits="userSpaceOnUse">
      <stop offset="0.43" stop-color="#794F9E"/>
      <stop offset="1" stop-color="#674E9F"/>
    </linearGradient>
  </defs>
</svg>
