<svg width="266" height="266" viewBox="0 0 266 266" fill="none" xmlns="http://www.w3.org/2000/svg">
<g clip-path="url(#clip0_235_47)">
<path d="M29.6617 151.336C28.8529 150.867 28.1824 150.189 27.7194 149.37C27.2478 148.526 27 147.573 27 146.604C27 145.634 27.2478 144.681 27.7194 143.838C28.1861 143.017 28.8594 142.337 29.6707 141.867C30.482 141.396 31.4022 141.151 32.3373 141.158C33.0684 141.152 33.7938 141.29 34.4734 141.563C35.1051 141.809 35.6701 142.203 36.1219 142.713L35.2447 143.601C34.9108 143.189 34.4809 142.868 33.9938 142.667C33.4746 142.446 32.9164 142.335 32.3533 142.339C31.6414 142.335 30.9404 142.517 30.3191 142.869C29.6878 143.221 29.1623 143.74 28.7985 144.369C28.425 145.054 28.2291 145.822 28.2291 146.604C28.2291 147.386 28.425 148.154 28.7985 148.839C29.1596 149.469 29.684 149.988 30.3151 150.339C30.9348 150.69 31.6333 150.873 32.3433 150.871C32.9381 150.89 33.5298 150.778 34.0778 150.543C34.5286 150.334 34.9357 150.04 35.2767 149.676C35.5343 149.388 35.7375 149.055 35.8762 148.693C36.0339 148.285 36.1309 147.856 36.1639 147.419H32.3673V146.27H37.3149C37.3608 146.52 37.3849 146.773 37.3868 147.027C37.3879 147.663 37.286 148.295 37.0851 148.897C36.8876 149.496 36.5583 150.042 36.1219 150.493C35.1734 151.529 33.9119 152.048 32.3373 152.05C31.3985 152.058 30.4747 151.811 29.6617 151.336V151.336Z" fill="#666D74"/>
<path d="M40.3224 151.526C39.7536 151.183 39.2885 150.69 38.9776 150.098C38.6612 149.482 38.4961 148.798 38.4961 148.103C38.4961 147.409 38.6612 146.725 38.9776 146.108C39.2906 145.522 39.7555 145.033 40.3224 144.693C40.9135 144.35 41.5831 144.169 42.2646 144.169C42.9461 144.169 43.6158 144.35 44.2069 144.693C44.7738 145.033 45.2386 145.522 45.5517 146.108C45.8693 146.724 46.0352 147.409 46.0352 148.103C46.0352 148.798 45.8693 149.482 45.5517 150.098C45.2407 150.69 44.7756 151.183 44.2069 151.526C43.6158 151.869 42.9461 152.05 42.2646 152.05C41.5831 152.05 40.9135 151.869 40.3224 151.526ZM43.5195 150.586C43.9151 150.352 44.2389 150.012 44.4547 149.603C44.6871 149.138 44.8083 148.624 44.8083 148.103C44.8083 147.582 44.6871 147.069 44.4547 146.604C44.2377 146.196 43.9142 145.856 43.5195 145.621C43.1379 145.395 42.703 145.277 42.2606 145.279C41.8103 145.279 41.3684 145.402 40.9815 145.636C40.5946 145.869 40.2771 146.203 40.0626 146.604C39.8313 147.069 39.7109 147.583 39.7109 148.103C39.7109 148.624 39.8313 149.138 40.0626 149.603C40.2802 150.013 40.6069 150.354 41.0057 150.586C41.3895 150.812 41.8262 150.931 42.2706 150.929C42.7111 150.93 43.1438 150.812 43.5235 150.586H43.5195Z" fill="#666D74"/>
<path d="M48.8966 151.526C48.3279 151.183 47.8628 150.69 47.5518 150.098C47.2354 149.482 47.0703 148.798 47.0703 148.103C47.0703 147.409 47.2354 146.725 47.5518 146.108C47.8648 145.522 48.3297 145.033 48.8966 144.693C49.4877 144.35 50.1573 144.169 50.8388 144.169C51.5204 144.169 52.19 144.35 52.7811 144.693C53.3485 145.033 53.814 145.522 54.1279 146.108C54.4442 146.725 54.6094 147.409 54.6094 148.103C54.6094 148.798 54.4442 149.482 54.1279 150.098C53.8161 150.69 53.3504 151.183 52.7811 151.526C52.19 151.869 51.5204 152.05 50.8388 152.05C50.1573 152.05 49.4877 151.869 48.8966 151.526V151.526ZM52.0937 150.586C52.4897 150.353 52.8136 150.012 53.0289 149.603C53.2614 149.138 53.3825 148.624 53.3825 148.103C53.3825 147.582 53.2614 147.069 53.0289 146.604C52.8125 146.195 52.4889 145.855 52.0937 145.621C51.7121 145.395 51.2772 145.277 50.8348 145.279C50.3846 145.279 49.9426 145.402 49.5557 145.636C49.1688 145.869 48.8513 146.203 48.6368 146.604C48.4056 147.069 48.2851 147.583 48.2851 148.103C48.2851 148.624 48.4056 149.138 48.6368 149.603C48.8544 150.013 49.1811 150.354 49.58 150.586C49.9638 150.812 50.4005 150.931 50.8448 150.929C51.2853 150.93 51.718 150.812 52.0977 150.586H52.0937Z" fill="#666D74"/>
<path d="M57.1192 154.584C56.5978 154.228 56.2022 153.713 55.9902 153.113L57.0972 152.632C57.2572 153.055 57.541 153.418 57.9105 153.674C58.3061 153.947 58.7763 154.089 59.2553 154.078C60.0133 154.078 60.6007 153.864 61.0177 153.435C61.4353 153.008 61.6451 152.396 61.6451 151.603V150.772H61.5872C61.3332 151.164 60.9836 151.483 60.5721 151.698C60.113 151.94 59.6012 152.063 59.0834 152.054C58.4697 152.059 57.8676 151.885 57.349 151.552C56.8174 151.208 56.3873 150.726 56.1041 150.155C55.8016 149.517 55.6445 148.819 55.6445 148.112C55.6445 147.404 55.8016 146.706 56.1041 146.068C56.3861 145.494 56.8163 145.009 57.349 144.663C57.8678 144.331 58.4699 144.158 59.0834 144.163C59.6013 144.153 60.1134 144.276 60.5721 144.519C60.986 144.736 61.3361 145.06 61.5872 145.457H61.6451V144.392H62.8101V151.526C62.8101 152.719 62.4837 153.629 61.831 154.256C61.1782 154.883 60.3197 155.196 59.2553 155.194C58.4973 155.225 57.7493 155.011 57.1192 154.584ZM60.4562 150.588C60.8267 150.349 61.1253 150.012 61.3194 149.613C61.535 149.137 61.6465 148.62 61.6465 148.096C61.6465 147.573 61.535 147.056 61.3194 146.58C61.1273 146.181 60.8282 145.845 60.4562 145.611C60.0924 145.391 59.6763 145.274 59.2523 145.274C58.8282 145.274 58.4122 145.391 58.0483 145.611C57.671 145.85 57.3676 146.191 57.1731 146.596C56.9473 147.065 56.8363 147.583 56.8494 148.104C56.8369 148.628 56.9479 149.147 57.1731 149.619C57.3595 150.016 57.6543 150.35 58.0226 150.582C58.391 150.814 58.8173 150.935 59.2513 150.93C59.6771 150.935 60.0955 150.817 60.4562 150.588V150.588Z" fill="#666D74"/>
<path d="M64.6226 141.393H65.8455V151.813H64.6226V141.393Z" fill="#666D74"/>
<path d="M68.9629 151.54C68.4094 151.202 67.9591 150.716 67.6621 150.135C67.3432 149.51 67.1825 148.815 67.1945 148.113C67.1871 147.427 67.3369 146.75 67.6321 146.133C67.9109 145.547 68.3411 145.049 68.877 144.691C69.4331 144.326 70.0847 144.139 70.7473 144.153C71.4034 144.136 72.0513 144.305 72.6176 144.64C73.1418 144.962 73.5636 145.43 73.8326 145.987C74.1251 146.599 74.271 147.273 74.2582 147.953C74.2607 148.08 74.2459 148.208 74.2142 148.331H68.4194C68.4295 148.834 68.5671 149.325 68.819 149.759C69.0397 150.128 69.3553 150.43 69.7322 150.632C70.0894 150.823 70.4872 150.923 70.8912 150.923C71.8303 150.923 72.5544 150.477 73.0632 149.583L74.1003 150.092C73.8013 150.674 73.3569 151.166 72.8115 151.52C72.2266 151.861 71.564 152.041 70.889 152.044C70.2141 152.046 69.5502 151.871 68.9629 151.534V151.54ZM72.9593 147.318C72.9355 146.993 72.8472 146.675 72.6996 146.386C72.5324 146.062 72.2818 145.79 71.9742 145.599C71.5979 145.374 71.1659 145.264 70.7293 145.279C70.1887 145.266 69.6643 145.467 69.2686 145.84C68.8586 146.235 68.5842 146.753 68.4853 147.318H72.9593Z" fill="#666D74"/>
<path d="M79.2676 141.393H82.3748C83.3401 141.368 84.2954 141.596 85.1483 142.054C85.9159 142.478 86.5455 143.117 86.9607 143.896C87.3773 144.737 87.5943 145.664 87.5943 146.604C87.5943 147.544 87.3773 148.471 86.9607 149.312C86.5461 150.091 85.9164 150.731 85.1483 151.154C84.2955 151.612 83.34 151.839 82.3748 151.813H79.2676V141.393ZM82.3748 150.638C83.5937 150.638 84.5602 150.284 85.2742 149.575C85.9883 148.865 86.3459 147.875 86.3473 146.604C86.3473 145.331 85.9896 144.341 85.2742 143.633C84.5589 142.925 83.5924 142.572 82.3748 142.572H80.4765V150.638H82.3748Z" fill="#666D74"/>
<path d="M90.3038 151.54C89.7492 151.203 89.2981 150.716 89.0009 150.135C88.6821 149.51 88.5214 148.815 88.5333 148.113C88.5256 147.427 88.6761 146.749 88.9729 146.133C89.251 145.547 89.6805 145.049 90.2158 144.691C90.772 144.326 91.4236 144.139 92.0862 144.153C92.7423 144.136 93.3901 144.305 93.9565 144.64C94.4809 144.962 94.9032 145.43 95.1734 145.987C95.4645 146.6 95.6095 147.273 95.597 147.953C95.5991 148.08 95.585 148.207 95.5551 148.331H89.7602C89.7704 148.834 89.908 149.325 90.1599 149.759C90.38 150.129 90.6958 150.431 91.0731 150.632C91.4296 150.823 91.8267 150.923 92.23 150.923C93.1705 150.923 93.8952 150.477 94.4041 149.583L95.4392 150.092C95.1415 150.674 94.6977 151.167 94.1523 151.52C93.5674 151.861 92.9048 152.041 92.2299 152.044C91.555 152.046 90.8911 151.871 90.3038 151.534V151.54ZM94.3002 147.318C94.277 146.993 94.1893 146.676 94.0424 146.386C93.8755 146.061 93.6239 145.789 93.3151 145.599C92.9388 145.374 92.5068 145.263 92.0702 145.279C91.5297 145.266 91.0054 145.467 90.6095 145.84C90.1995 146.235 89.925 146.753 89.8262 147.318H94.3002Z" fill="#666D74"/>
<path d="M96.0728 144.392H97.3816L99.6556 150.361H99.6835L101.985 144.392H103.266L100.269 151.817H99.0361L96.0728 144.392Z" fill="#666D74"/>
<path d="M105.438 151.54C104.882 151.204 104.43 150.717 104.131 150.135C103.812 149.51 103.652 148.815 103.664 148.113C103.656 147.427 103.807 146.749 104.103 146.133C104.382 145.547 104.812 145.049 105.348 144.691C105.904 144.326 106.556 144.138 107.219 144.153C107.875 144.136 108.523 144.305 109.089 144.64C109.613 144.962 110.035 145.43 110.304 145.987C110.596 146.599 110.742 147.273 110.729 147.953C110.731 148.08 110.716 148.207 110.685 148.331H104.891C104.902 148.833 105.039 149.325 105.29 149.759C105.51 150.129 105.826 150.431 106.203 150.632C106.561 150.823 106.958 150.923 107.362 150.923C108.302 150.923 109.026 150.477 109.534 149.583L110.57 150.092C110.272 150.674 109.828 151.167 109.283 151.52C108.698 151.861 108.035 152.041 107.36 152.044C106.685 152.046 106.021 151.871 105.434 151.534L105.438 151.54ZM109.435 147.318C109.411 146.993 109.322 146.675 109.175 146.386C109.008 146.061 108.756 145.789 108.447 145.599C108.072 145.374 107.641 145.263 107.205 145.279C106.664 145.266 106.14 145.467 105.744 145.84C105.333 146.235 105.058 146.753 104.959 147.318H109.435Z" fill="#666D74"/>
<path d="M112.156 141.393H113.379V151.813H112.156V141.393Z" fill="#666D74"/>
<path d="M116.56 151.526C115.991 151.183 115.525 150.69 115.213 150.098C114.897 149.482 114.732 148.798 114.732 148.103C114.732 147.409 114.897 146.725 115.213 146.108C115.527 145.522 115.993 145.033 116.56 144.693C117.151 144.35 117.821 144.169 118.502 144.169C119.184 144.169 119.854 144.35 120.445 144.693C121.012 145.033 121.476 145.522 121.79 146.108C122.106 146.725 122.271 147.409 122.271 148.103C122.271 148.798 122.106 149.482 121.79 150.098C121.479 150.69 121.013 151.183 120.445 151.526C119.854 151.869 119.184 152.05 118.502 152.05C117.821 152.05 117.151 151.869 116.56 151.526V151.526ZM119.757 150.586C120.153 150.351 120.476 150.011 120.693 149.603C120.924 149.138 121.044 148.624 121.044 148.103C121.044 147.583 120.924 147.069 120.693 146.604C120.475 146.196 120.152 145.857 119.757 145.621C119.376 145.395 118.941 145.277 118.498 145.279C118.046 145.277 117.602 145.399 117.212 145.632C116.823 145.866 116.504 146.201 116.288 146.604C116.057 147.069 115.937 147.583 115.937 148.103C115.937 148.624 116.057 149.138 116.288 149.603C116.506 150.013 116.833 150.354 117.232 150.586C117.616 150.812 118.053 150.931 118.498 150.929C118.942 150.932 119.379 150.813 119.761 150.586H119.757Z" fill="#666D74"/>
<path d="M123.566 144.392H124.731V145.498H124.789C125.033 145.096 125.378 144.767 125.788 144.543C126.247 144.284 126.766 144.151 127.293 144.159C127.923 144.153 128.542 144.33 129.077 144.669C129.618 145.015 130.056 145.504 130.342 146.084C130.644 146.715 130.801 147.406 130.801 148.107C130.801 148.807 130.644 149.498 130.342 150.129C130.053 150.704 129.616 151.19 129.077 151.534C128.542 151.873 127.923 152.05 127.293 152.044C126.766 152.051 126.247 151.918 125.788 151.658C125.381 151.437 125.036 151.114 124.789 150.719H124.731L124.789 151.73V154.948H123.566V144.392ZM128.342 150.58C128.726 150.336 129.036 149.992 129.241 149.583C129.464 149.123 129.58 148.617 129.58 148.104C129.58 147.592 129.464 147.086 129.241 146.626C129.038 146.216 128.726 145.871 128.342 145.629C127.983 145.399 127.567 145.276 127.143 145.276C126.718 145.276 126.302 145.399 125.944 145.629C125.563 145.87 125.254 146.212 125.053 146.618C124.834 147.082 124.721 147.59 124.721 148.103C124.721 148.617 124.834 149.125 125.053 149.589C125.255 149.995 125.563 150.338 125.944 150.58C126.302 150.81 126.718 150.933 127.143 150.933C127.567 150.933 127.983 150.81 128.342 150.58V150.58Z" fill="#666D74"/>
<path d="M133.609 151.54C133.054 151.203 132.603 150.716 132.306 150.135C131.987 149.51 131.827 148.815 131.839 148.113C131.831 147.427 131.981 146.75 132.276 146.133C132.555 145.547 132.985 145.049 133.521 144.691C134.077 144.326 134.729 144.139 135.391 144.153C136.047 144.136 136.695 144.305 137.262 144.64C137.786 144.962 138.208 145.43 138.479 145.987C138.77 146.6 138.915 147.273 138.902 147.953C138.905 148.08 138.89 148.208 138.858 148.331H133.063C133.074 148.834 133.211 149.325 133.463 149.759C133.684 150.129 134 150.431 134.378 150.632C134.735 150.823 135.132 150.923 135.535 150.923C136.477 150.923 137.201 150.477 137.707 149.583L138.744 150.092C138.446 150.674 138.001 151.167 137.456 151.52C136.871 151.861 136.209 152.041 135.534 152.044C134.859 152.046 134.196 151.871 133.609 151.534V151.54ZM137.605 147.318C137.582 146.993 137.493 146.675 137.346 146.386C137.179 146.061 136.929 145.789 136.62 145.599C136.244 145.374 135.812 145.263 135.375 145.279C134.835 145.266 134.31 145.467 133.915 145.84C133.505 146.235 133.23 146.753 133.131 147.318H137.605Z" fill="#666D74"/>
<path d="M140.327 144.392H141.498V145.585H141.556C141.716 145.164 142.009 144.808 142.389 144.574C142.772 144.313 143.223 144.172 143.684 144.169C143.98 144.161 144.274 144.216 144.547 144.329V145.654C144.225 145.494 143.871 145.415 143.512 145.421C143.163 145.419 142.821 145.525 142.533 145.726C142.232 145.937 141.987 146.221 141.822 146.551C141.645 146.896 141.553 147.279 141.556 147.668V151.813H140.333L140.327 144.392Z" fill="#666D74"/>
<path d="M149.535 151.308C148.851 150.795 148.364 150.059 148.154 149.225L149.319 148.746C149.463 149.335 149.779 149.868 150.224 150.274C150.649 150.665 151.205 150.878 151.779 150.871C152.323 150.886 152.855 150.715 153.29 150.384C153.491 150.228 153.652 150.025 153.76 149.793C153.867 149.562 153.919 149.307 153.909 149.051C153.915 148.824 153.87 148.598 153.779 148.391C153.689 148.183 153.553 147.998 153.384 147.85C153.032 147.534 152.46 147.243 151.663 146.968L151.016 146.735C150.359 146.515 149.753 146.164 149.233 145.702C148.771 145.275 148.541 144.682 148.542 143.925C148.539 143.436 148.678 142.958 148.942 142.549C149.219 142.117 149.606 141.768 150.063 141.538C150.554 141.296 151.093 141.166 151.64 141.158C152.187 141.151 152.729 141.265 153.228 141.494C153.632 141.687 153.992 141.962 154.285 142.303C154.524 142.582 154.713 142.903 154.84 143.249L153.687 143.751C153.573 143.365 153.344 143.025 153.032 142.776C152.65 142.471 152.173 142.316 151.687 142.339C151.198 142.326 150.72 142.485 150.334 142.79C150.159 142.921 150.016 143.092 149.919 143.289C149.821 143.486 149.771 143.704 149.773 143.925C149.768 144.117 149.809 144.308 149.891 144.482C149.974 144.656 150.096 144.807 150.248 144.924C150.685 145.243 151.171 145.486 151.687 145.643L152.363 145.876C153.119 146.128 153.816 146.537 154.407 147.077C154.894 147.558 155.139 148.212 155.14 149.037C155.159 149.641 154.979 150.235 154.629 150.725C154.299 151.175 153.854 151.525 153.342 151.736C152.834 151.947 152.291 152.056 151.743 152.056C150.946 152.055 150.171 151.793 149.535 151.308Z" fill="#666D74"/>
<path d="M158.331 151.902C158.093 151.812 157.876 151.675 157.692 151.498C157.503 151.314 157.356 151.091 157.26 150.845C157.157 150.555 157.108 150.248 157.116 149.941V145.512H155.835V144.392H157.116V142.295H158.339V144.392H160.124V145.512H158.339V149.649C158.314 149.974 158.395 150.298 158.569 150.572C158.669 150.684 158.793 150.772 158.931 150.829C159.07 150.886 159.219 150.91 159.368 150.899C159.652 150.895 159.929 150.809 160.168 150.653V151.866C160.028 151.933 159.88 151.982 159.728 152.011C159.541 152.045 159.351 152.06 159.16 152.056C158.877 152.056 158.596 152.004 158.331 151.902V151.902Z" fill="#666D74"/>
<path d="M162.246 151.263C161.779 150.74 161.547 150.007 161.548 149.065V144.392H162.771V148.875C162.771 149.584 162.929 150.104 163.245 150.434C163.413 150.602 163.613 150.732 163.834 150.818C164.054 150.903 164.29 150.941 164.526 150.93C164.918 150.935 165.303 150.818 165.627 150.594C165.946 150.373 166.204 150.072 166.374 149.72C166.55 149.368 166.641 148.979 166.64 148.584V144.392H167.863V151.813H166.698V150.735H166.64C166.412 151.133 166.078 151.457 165.677 151.672C165.247 151.92 164.761 152.05 164.266 152.05C163.385 152.05 162.712 151.788 162.246 151.263Z" fill="#666D74"/>
<path d="M170.936 151.54C170.398 151.196 169.963 150.71 169.677 150.135C169.375 149.504 169.218 148.813 169.218 148.113C169.218 147.412 169.375 146.721 169.677 146.09C169.961 145.511 170.396 145.021 170.936 144.675C171.467 144.335 172.084 144.158 172.712 144.165C173.241 144.155 173.762 144.288 174.223 144.549C174.629 144.779 174.973 145.107 175.222 145.504H175.28L175.222 144.471V141.393H176.445V151.813H175.288V150.721H175.23C174.978 151.112 174.635 151.434 174.231 151.659C173.77 151.922 173.249 152.055 172.72 152.046C172.09 152.056 171.47 151.88 170.936 151.54V151.54ZM174.057 150.58C174.436 150.336 174.744 149.993 174.948 149.589C175.172 149.126 175.288 148.618 175.288 148.103C175.288 147.589 175.172 147.081 174.948 146.618C174.744 146.214 174.436 145.872 174.057 145.629C173.698 145.4 173.282 145.279 172.858 145.279C172.434 145.279 172.018 145.4 171.659 145.629C171.275 145.873 170.964 146.217 170.76 146.626C170.538 147.087 170.422 147.592 170.422 148.104C170.422 148.617 170.538 149.122 170.76 149.583C170.966 149.991 171.276 150.335 171.659 150.58C172.018 150.809 172.434 150.93 172.858 150.93C173.282 150.93 173.698 150.809 174.057 150.58V150.58Z" fill="#666D74"/>
<path d="M179.574 151.54C179.017 151.203 178.564 150.717 178.265 150.135C177.946 149.51 177.786 148.815 177.797 148.113C177.79 147.427 177.94 146.75 178.235 146.133C178.514 145.547 178.944 145.049 179.48 144.691C180.036 144.326 180.688 144.139 181.35 144.153C182.006 144.136 182.654 144.305 183.221 144.64C183.745 144.962 184.167 145.43 184.436 145.987C184.728 146.599 184.874 147.273 184.861 147.953C184.864 148.08 184.849 148.208 184.817 148.331H179.022C179.033 148.834 179.17 149.325 179.422 149.759C179.643 150.128 179.958 150.43 180.335 150.632C180.692 150.823 181.09 150.923 181.494 150.923C182.427 150.923 183.151 150.477 183.666 149.583L184.703 150.092C184.404 150.674 183.96 151.166 183.414 151.52C182.83 151.861 182.167 152.041 181.492 152.044C180.817 152.046 180.153 151.871 179.566 151.534L179.574 151.54ZM183.57 147.318C183.547 146.993 183.458 146.675 183.311 146.386C183.143 146.062 182.893 145.79 182.585 145.599C182.209 145.374 181.777 145.264 181.34 145.279C180.8 145.266 180.275 145.467 179.88 145.84C179.47 146.235 179.195 146.753 179.096 147.318H183.57Z" fill="#666D74"/>
<path d="M186.294 144.392H187.457V145.484H187.515C187.744 145.086 188.077 144.76 188.478 144.543C188.906 144.29 189.393 144.158 189.889 144.159C190.771 144.159 191.444 144.419 191.909 144.938C192.374 145.457 192.606 146.162 192.606 147.055V151.813H191.383V147.245C191.383 146.556 191.221 146.056 190.896 145.744C190.526 145.419 190.046 145.252 189.557 145.279C189.178 145.274 188.808 145.392 188.5 145.615C188.187 145.84 187.936 146.143 187.773 146.495C187.603 146.851 187.515 147.242 187.515 147.637V151.813H186.292L186.294 144.392Z" fill="#666D74"/>
<path d="M195.998 151.902C195.76 151.812 195.542 151.675 195.358 151.498C195.168 151.315 195.021 151.092 194.927 150.845C194.824 150.555 194.775 150.248 194.783 149.941V145.512H193.502V144.392H194.783V142.295H196.006V144.392H197.788V145.512H196.006V149.649C195.98 149.974 196.061 150.298 196.236 150.572C196.335 150.684 196.459 150.773 196.598 150.829C196.736 150.886 196.886 150.91 197.035 150.899C197.319 150.895 197.596 150.81 197.834 150.653V151.866C197.694 151.933 197.547 151.982 197.394 152.011C197.207 152.045 197.017 152.06 196.827 152.056C196.544 152.056 196.263 152.004 195.998 151.902V151.902Z" fill="#666D74"/>
<path d="M204.68 151.336C203.876 150.872 203.212 150.195 202.759 149.378C202.302 148.527 202.062 147.574 202.062 146.605C202.062 145.636 202.302 144.683 202.759 143.831C203.212 143.014 203.876 142.336 204.68 141.872C205.507 141.393 206.446 141.147 207.399 141.158C208.126 141.15 208.845 141.302 209.507 141.603C210.144 141.898 210.71 142.327 211.168 142.863L210.291 143.724C209.942 143.284 209.503 142.926 209.004 142.675C208.502 142.445 207.956 142.331 207.405 142.341C206.685 142.334 205.976 142.516 205.347 142.871C204.726 143.225 204.211 143.744 203.859 144.371C203.495 145.059 203.305 145.826 203.305 146.606C203.305 147.386 203.495 148.153 203.859 148.84C204.21 149.469 204.725 149.988 205.347 150.341C205.976 150.696 206.685 150.88 207.405 150.873C208.652 150.873 209.712 150.353 210.585 149.314L211.478 150.187C210.992 150.766 210.388 151.231 209.707 151.55C208.912 151.914 208.044 152.084 207.172 152.047C206.3 152.01 205.448 151.767 204.686 151.338L204.68 151.336Z" fill="#666D74"/>
<path d="M212.834 141.393H214.057V151.813H212.834V141.393Z" fill="#666D74"/>
<path d="M216.513 151.263C216.048 150.74 215.816 150.007 215.816 149.065V144.392H217.031V148.875C217.031 149.584 217.189 150.104 217.506 150.434C217.674 150.602 217.874 150.733 218.094 150.818C218.314 150.903 218.55 150.941 218.785 150.93C219.178 150.935 219.562 150.818 219.886 150.594C220.207 150.373 220.465 150.072 220.636 149.72C220.811 149.368 220.902 148.978 220.901 148.584V144.392H222.124V151.813H220.967V150.735H220.909C220.68 151.131 220.345 151.454 219.944 151.668C219.515 151.916 219.03 152.046 218.536 152.046C217.652 152.049 216.978 151.788 216.513 151.263Z" fill="#666D74"/>
<path d="M226.167 151.664C225.76 151.443 225.415 151.12 225.168 150.725H225.11V151.813H223.945V141.393H225.168V144.464L225.11 145.498H225.168C225.412 145.096 225.757 144.767 226.167 144.543C226.626 144.283 227.145 144.151 227.672 144.159C228.302 144.153 228.921 144.33 229.456 144.669C229.997 145.015 230.435 145.504 230.721 146.084C231.022 146.715 231.178 147.406 231.178 148.106C231.178 148.807 231.022 149.498 230.721 150.129C230.432 150.704 229.995 151.19 229.456 151.534C228.921 151.873 228.302 152.05 227.672 152.044C227.146 152.053 226.627 151.922 226.167 151.664V151.664ZM228.721 150.58C229.103 150.337 229.413 149.995 229.62 149.589C229.842 149.128 229.958 148.623 229.958 148.111C229.958 147.598 229.842 147.093 229.62 146.632C229.415 146.223 229.104 145.879 228.721 145.635C228.362 145.405 227.946 145.282 227.522 145.282C227.097 145.282 226.681 145.405 226.323 145.635C225.941 145.876 225.633 146.218 225.432 146.624C225.213 147.088 225.1 147.596 225.1 148.109C225.1 148.623 225.213 149.131 225.432 149.595C225.634 150.001 225.942 150.344 226.323 150.586C226.681 150.816 227.097 150.939 227.522 150.939C227.946 150.939 228.362 150.816 228.721 150.586V150.58Z" fill="#666D74"/>
<path d="M233.122 151.49C232.613 151.139 232.222 150.639 232.001 150.056L233.094 149.56C233.256 149.98 233.54 150.341 233.908 150.594C234.258 150.834 234.672 150.961 235.095 150.958C235.505 150.97 235.912 150.872 236.274 150.675C236.412 150.603 236.53 150.496 236.616 150.365C236.701 150.233 236.752 150.082 236.762 149.924C236.772 149.767 236.742 149.61 236.674 149.468C236.606 149.327 236.504 149.205 236.376 149.116C236.001 148.879 235.586 148.714 235.153 148.628L234.259 148.396C233.725 148.276 233.23 148.021 232.821 147.654C232.495 147.334 232.297 146.904 232.264 146.447C232.231 145.989 232.365 145.535 232.641 145.17C232.909 144.835 233.259 144.576 233.656 144.42C234.09 144.244 234.555 144.155 235.023 144.159C235.622 144.148 236.213 144.293 236.741 144.58C237.222 144.837 237.601 145.254 237.814 145.761L236.749 146.254C236.423 145.595 235.843 145.265 235.009 145.265C234.637 145.257 234.27 145.355 233.95 145.548C233.817 145.616 233.705 145.719 233.626 145.847C233.546 145.974 233.502 146.12 233.498 146.27C233.495 146.398 233.523 146.524 233.578 146.639C233.632 146.754 233.713 146.854 233.814 146.932C234.099 147.132 234.422 147.269 234.763 147.336L235.828 147.613C236.432 147.738 236.993 148.022 237.455 148.436C237.631 148.608 237.771 148.816 237.865 149.045C237.959 149.274 238.005 149.521 238 149.769C238.007 150.202 237.87 150.625 237.612 150.97C237.339 151.325 236.976 151.599 236.561 151.763C236.095 151.952 235.597 152.046 235.095 152.04C234.397 152.068 233.708 151.876 233.122 151.49Z" fill="#666D74"/>
<path d="M56.7334 159.7H57.8604L59.419 166.082L59.5629 166.676H59.6108L59.7907 166.082L61.709 159.7H62.768L64.6024 166.082L64.7822 166.676H64.8302L66.5207 159.7H67.6477L65.3337 168.395H64.2787L62.4563 162.11L62.2565 161.431H62.2085L62.0087 162.11L60.1144 168.395H59.0593L56.7334 159.7Z" fill="#666D74"/>
<path d="M69.0703 168.149C68.6086 167.868 68.2329 167.462 67.9853 166.978C67.717 166.46 67.5797 165.882 67.5857 165.297C67.5796 164.726 67.7047 164.161 67.9513 163.647C68.1834 163.159 68.5418 162.744 68.9884 162.446C69.4519 162.142 69.9948 161.986 70.547 161.997C71.0936 161.983 71.6334 162.123 72.1056 162.402C72.5427 162.67 72.8943 163.059 73.1187 163.524C73.3619 164.034 73.483 164.595 73.4724 165.162C73.4741 165.268 73.462 165.374 73.4364 165.477H68.6147C68.6242 165.896 68.7398 166.306 68.9504 166.666C69.1341 166.975 69.3973 167.226 69.7118 167.394C70.0092 167.554 70.3405 167.637 70.6769 167.637C71.4602 167.637 72.0637 167.265 72.4873 166.521L73.3505 166.945C73.102 167.43 72.7319 167.84 72.2775 168.135C71.7901 168.419 71.238 168.569 70.6755 168.571C70.113 168.574 69.5598 168.427 69.0703 168.147V168.149ZM72.4034 164.63C72.3841 164.359 72.3107 164.095 72.1876 163.854C72.0507 163.584 71.8434 163.357 71.5881 163.198C71.2749 163.01 70.9149 162.918 70.551 162.931C70.1006 162.92 69.6638 163.088 69.3341 163.399C68.9924 163.728 68.7636 164.16 68.6807 164.63H72.4034Z" fill="#666D74"/>
<path d="M75.2213 168.106C74.7965 167.814 74.4701 167.397 74.2861 166.911L75.1973 166.507C75.3317 166.857 75.568 167.157 75.8747 167.368C76.1666 167.568 76.5114 167.674 76.8638 167.671C77.2064 167.682 77.5456 167.6 77.847 167.435C77.9621 167.375 78.06 167.286 78.1311 167.176C78.2021 167.067 78.2439 166.941 78.2524 166.81C78.2608 166.679 78.2357 166.548 78.1793 166.43C78.123 166.312 78.0374 166.211 77.9309 166.137C77.6186 165.94 77.2731 165.802 76.9118 165.732L76.1685 165.53C75.7232 165.431 75.3104 165.218 74.9695 164.911C74.6986 164.645 74.5336 164.287 74.506 163.906C74.4784 163.524 74.59 163.146 74.8197 162.842C75.0427 162.563 75.3341 162.348 75.6649 162.218C76.0268 162.07 76.4138 161.996 76.8039 161.999C77.3034 161.99 77.7967 162.111 78.2366 162.351C78.6373 162.565 78.9528 162.912 79.1298 163.334L78.2426 163.738C77.9762 163.188 77.4926 162.913 76.7919 162.913C76.482 162.906 76.1764 162.988 75.9107 163.15C75.7991 163.206 75.7049 163.293 75.6384 163.4C75.5718 163.507 75.5354 163.63 75.533 163.756C75.5307 163.863 75.5534 163.969 75.5992 164.065C75.6451 164.161 75.7128 164.244 75.7968 164.308C76.0365 164.479 76.3087 164.597 76.5961 164.654L77.4833 164.885C77.9867 164.988 78.4541 165.225 78.8381 165.57C78.9855 165.714 79.1021 165.886 79.1805 166.077C79.2589 166.268 79.2975 166.474 79.2937 166.681C79.3014 167.045 79.1873 167.401 78.97 167.692C78.7424 167.988 78.44 168.216 78.0947 168.353C77.7061 168.511 77.2905 168.589 76.8718 168.583C76.2858 168.603 75.7085 168.436 75.2213 168.106V168.106Z" fill="#666D74"/>
<path d="M82.001 168.45C81.8032 168.375 81.6218 168.262 81.4675 168.116C81.3103 167.963 81.1876 167.778 81.1078 167.572C81.022 167.331 80.9813 167.075 80.9879 166.818V163.125H79.9209V162.191H80.9879V160.444H82.007V162.191H83.4937V163.125H82.007V166.575C81.989 166.847 82.0591 167.117 82.2069 167.344C82.2892 167.437 82.3913 167.51 82.5055 167.557C82.6198 167.604 82.7431 167.625 82.8663 167.617C83.1046 167.616 83.3377 167.546 83.5377 167.415V168.426C83.4212 168.481 83.2984 168.522 83.172 168.547C83.0156 168.574 82.8571 168.586 82.6984 168.583C82.4598 168.583 82.2234 168.537 82.001 168.45V168.45Z" fill="#666D74"/>
<path d="M88.8288 168.143C88.3516 167.858 87.9647 167.441 87.7138 166.941C87.44 166.39 87.3028 165.78 87.3141 165.164V159.7H88.3452V165.22C88.3179 165.841 88.5138 166.451 88.8967 166.937C89.2644 167.378 89.7919 167.599 90.4793 167.599C91.1667 167.599 91.6962 167.378 92.0679 166.937C92.4544 166.453 92.6527 165.842 92.6254 165.22V159.7H93.6245V165.16C93.6365 165.776 93.5072 166.386 93.2468 166.943C93.0097 167.445 92.6298 167.863 92.1558 168.145C91.6425 168.437 91.0604 168.584 90.4713 168.569C89.8956 168.581 89.3277 168.433 88.8288 168.143V168.143Z" fill="#666D74"/>
<path d="M95.0874 162.191H96.0585V163.101H96.1065C96.2968 162.771 96.5734 162.5 96.9058 162.319C97.2621 162.107 97.6678 161.996 98.0807 161.997C98.8161 161.997 99.3776 162.213 99.7652 162.646C100.153 163.079 100.347 163.667 100.347 164.412V168.379H99.3356V164.569C99.3356 163.995 99.2024 163.578 98.936 163.32C98.6288 163.048 98.2285 162.908 97.821 162.931C97.5054 162.927 97.1968 163.025 96.9398 163.21C96.6808 163.399 96.4743 163.652 96.3403 163.944C96.1979 164.241 96.1241 164.567 96.1245 164.897V168.379H95.1054L95.0874 162.191Z" fill="#666D74"/>
<path d="M101.898 160.844C101.828 160.777 101.773 160.696 101.736 160.606C101.699 160.516 101.681 160.42 101.682 160.323C101.68 160.226 101.699 160.131 101.736 160.042C101.773 159.953 101.828 159.873 101.898 159.807C102.035 159.671 102.22 159.594 102.413 159.594C102.606 159.594 102.791 159.671 102.929 159.807C102.998 159.873 103.053 159.953 103.09 160.042C103.128 160.131 103.146 160.226 103.144 160.323C103.146 160.419 103.128 160.516 103.092 160.605C103.056 160.695 103.002 160.776 102.935 160.844C102.867 160.914 102.786 160.968 102.697 161.006C102.608 161.043 102.512 161.063 102.416 161.063C102.32 161.063 102.224 161.043 102.135 161.006C102.046 160.968 101.966 160.914 101.898 160.844V160.844ZM101.91 162.191H102.909V168.379H101.91V162.191Z" fill="#666D74"/>
<path d="M103.852 162.191H104.943L106.837 167.166H106.861L108.779 162.191H109.846L107.352 168.379H106.329L103.852 162.191Z" fill="#666D74"/>
<path d="M111.657 168.149C111.195 167.868 110.819 167.462 110.572 166.978C110.303 166.46 110.166 165.882 110.172 165.297C110.166 164.726 110.291 164.161 110.538 163.647C110.77 163.159 111.128 162.744 111.575 162.446C112.038 162.142 112.581 161.986 113.133 161.997C113.68 161.983 114.22 162.123 114.692 162.402C115.129 162.67 115.481 163.059 115.705 163.524C115.948 164.034 116.069 164.595 116.059 165.162C116.061 165.268 116.048 165.374 116.023 165.477H111.201C111.211 165.896 111.326 166.306 111.537 166.666C111.721 166.975 111.984 167.226 112.298 167.394C112.596 167.554 112.927 167.637 113.263 167.637C114.047 167.637 114.65 167.265 115.074 166.521L115.937 166.945C115.688 167.43 115.318 167.84 114.864 168.135C114.378 168.417 113.827 168.566 113.267 168.569C112.706 168.571 112.155 168.425 111.667 168.147L111.657 168.149ZM114.99 164.63C114.97 164.359 114.897 164.095 114.774 163.854C114.637 163.584 114.43 163.357 114.175 163.198C113.857 163.009 113.492 162.918 113.123 162.935C112.673 162.924 112.236 163.092 111.907 163.403C111.565 163.732 111.336 164.164 111.253 164.634L114.99 164.63Z" fill="#666D74"/>
<path d="M117.256 162.191H118.227V163.186H118.275C118.406 162.832 118.651 162.533 118.97 162.337C119.289 162.118 119.664 162 120.049 161.997C120.295 161.991 120.54 162.036 120.768 162.131V163.235C120.5 163.1 120.205 163.03 119.905 163.032C119.614 163.031 119.329 163.12 119.09 163.287C118.836 163.462 118.63 163.698 118.49 163.975C118.343 164.262 118.267 164.581 118.269 164.905V168.371H117.25L117.256 162.191Z" fill="#666D74"/>
<path d="M122.004 168.106C121.579 167.814 121.252 167.397 121.068 166.911L121.98 166.507C122.114 166.857 122.35 167.157 122.657 167.368C122.952 167.57 123.3 167.676 123.656 167.671C123.999 167.682 124.338 167.6 124.639 167.435C124.754 167.375 124.852 167.286 124.923 167.176C124.994 167.067 125.036 166.941 125.045 166.81C125.053 166.679 125.028 166.548 124.972 166.43C124.915 166.312 124.83 166.211 124.723 166.137C124.411 165.94 124.065 165.802 123.704 165.732L122.961 165.53C122.515 165.431 122.103 165.218 121.762 164.911C121.491 164.645 121.326 164.287 121.298 163.906C121.271 163.524 121.382 163.146 121.612 162.842C121.835 162.563 122.126 162.348 122.457 162.218C122.819 162.07 123.206 161.996 123.596 161.999C124.096 161.99 124.589 162.111 125.029 162.351C125.427 162.568 125.739 162.917 125.912 163.34L125.025 163.744C124.758 163.194 124.275 162.919 123.574 162.919C123.264 162.912 122.959 162.994 122.693 163.156C122.581 163.213 122.487 163.299 122.421 163.406C122.354 163.513 122.318 163.636 122.315 163.762C122.313 163.869 122.336 163.975 122.381 164.071C122.427 164.167 122.495 164.25 122.579 164.315C122.819 164.485 123.091 164.603 123.378 164.66L124.266 164.891C124.765 164.992 125.229 165.225 125.612 165.564C125.76 165.708 125.876 165.88 125.955 166.071C126.033 166.262 126.072 166.468 126.068 166.674C126.076 167.039 125.962 167.395 125.744 167.686C125.517 167.982 125.214 168.21 124.869 168.347C124.48 168.505 124.065 168.583 123.646 168.577C123.063 168.597 122.489 168.433 122.004 168.106V168.106Z" fill="#666D74"/>
<path d="M127.207 160.844C127.137 160.777 127.082 160.696 127.045 160.606C127.008 160.516 126.99 160.42 126.991 160.323C126.989 160.226 127.008 160.131 127.045 160.042C127.082 159.953 127.137 159.873 127.207 159.807C127.344 159.671 127.529 159.594 127.722 159.594C127.915 159.594 128.1 159.671 128.238 159.807C128.307 159.873 128.362 159.953 128.399 160.042C128.437 160.131 128.455 160.226 128.454 160.323C128.455 160.419 128.437 160.516 128.401 160.605C128.365 160.695 128.311 160.776 128.244 160.844C128.176 160.914 128.095 160.968 128.006 161.006C127.917 161.043 127.822 161.063 127.725 161.063C127.629 161.063 127.533 161.043 127.444 161.006C127.355 160.968 127.275 160.914 127.207 160.844V160.844ZM127.219 162.191H128.218V168.379H127.219V162.191Z" fill="#666D74"/>
<path d="M131.433 168.45C131.235 168.375 131.054 168.262 130.9 168.116C130.742 167.963 130.62 167.778 130.54 167.572C130.454 167.331 130.413 167.075 130.42 166.818V163.125H129.353V162.191H130.42V160.444H131.439V162.191H132.926V163.125H131.439V166.575C131.421 166.847 131.491 167.117 131.639 167.344C131.721 167.437 131.823 167.51 131.938 167.557C132.052 167.604 132.175 167.625 132.298 167.617C132.537 167.616 132.77 167.546 132.97 167.415V168.426C132.853 168.481 132.73 168.522 132.604 168.547C132.448 168.574 132.289 168.586 132.131 168.583C131.892 168.583 131.656 168.537 131.433 168.45V168.45Z" fill="#666D74"/>
<path d="M136.091 167.991L133.561 162.191H134.664L136.582 166.79H136.606L138.453 162.191H139.556L135.779 171H134.724L136.091 167.991Z" fill="#666D74"/>
<path d="M144.387 168.137C143.914 167.851 143.526 167.44 143.266 166.948C143.003 166.434 142.865 165.864 142.865 165.285C142.865 164.707 143.003 164.136 143.266 163.623C143.526 163.13 143.914 162.719 144.387 162.434C144.88 162.148 145.438 161.997 146.006 161.997C146.574 161.997 147.132 162.148 147.625 162.434C148.099 162.719 148.486 163.13 148.746 163.623C149.01 164.136 149.147 164.707 149.147 165.285C149.147 165.864 149.01 166.434 148.746 166.948C148.486 167.44 148.099 167.851 147.625 168.137C147.132 168.423 146.574 168.573 146.006 168.573C145.438 168.573 144.88 168.423 144.387 168.137V168.137ZM147.055 167.354C147.384 167.158 147.654 166.875 147.834 166.535C148.027 166.147 148.128 165.719 148.128 165.285C148.128 164.851 148.027 164.423 147.834 164.036C147.654 163.695 147.384 163.412 147.055 163.217C146.737 163.028 146.375 162.929 146.006 162.931C145.629 162.93 145.259 163.031 144.935 163.226C144.611 163.42 144.345 163.7 144.166 164.036C143.973 164.423 143.872 164.851 143.872 165.285C143.872 165.719 143.973 166.147 144.166 166.535C144.3 166.783 144.482 167.002 144.7 167.178C144.919 167.354 145.171 167.484 145.44 167.561C145.709 167.637 145.991 167.658 146.268 167.622C146.546 167.587 146.813 167.496 147.055 167.354Z" fill="#666D74"/>
<path d="M150.862 163.125H149.735V162.191H150.862V161.52C150.855 161.165 150.947 160.814 151.126 160.509C151.296 160.223 151.541 159.99 151.833 159.835C152.136 159.676 152.474 159.594 152.816 159.599C153.122 159.592 153.427 159.642 153.715 159.744V160.755C153.571 160.699 153.438 160.652 153.316 160.616C153.167 160.577 153.014 160.558 152.86 160.561C152.733 160.56 152.607 160.584 152.49 160.633C152.372 160.682 152.266 160.755 152.177 160.846C152.077 160.952 152.001 161.077 151.951 161.213C151.902 161.35 151.88 161.496 151.889 161.641V162.199H153.46V163.134H151.889V168.391H150.87L150.862 163.125Z" fill="#666D74"/>
<path d="M158.966 160.675H156.557V159.7H162.383V160.683H159.986V168.387H158.966V160.675Z" fill="#666D74"/>
<path d="M163.318 160.844C163.249 160.777 163.194 160.696 163.157 160.606C163.12 160.516 163.101 160.42 163.103 160.323C163.101 160.226 163.119 160.131 163.157 160.042C163.194 159.953 163.249 159.873 163.318 159.807C163.456 159.671 163.641 159.594 163.834 159.594C164.027 159.594 164.212 159.671 164.35 159.807C164.419 159.873 164.474 159.953 164.511 160.042C164.548 160.131 164.567 160.226 164.565 160.323C164.567 160.419 164.549 160.516 164.513 160.605C164.477 160.695 164.423 160.776 164.356 160.844C164.288 160.914 164.207 160.968 164.118 161.006C164.029 161.043 163.933 161.063 163.837 161.063C163.741 161.063 163.645 161.043 163.556 161.006C163.467 160.968 163.386 160.914 163.318 160.844V160.844ZM163.33 162.191H164.33V168.379H163.33V162.191Z" fill="#666D74"/>
<path d="M165.944 162.191H166.915V163.101H166.963C167.155 162.771 167.431 162.498 167.763 162.313C168.099 162.107 168.485 161.997 168.878 161.997C169.291 161.987 169.697 162.101 170.047 162.325C170.37 162.532 170.619 162.838 170.76 163.198C170.97 162.84 171.265 162.54 171.617 162.325C171.993 162.101 172.422 161.987 172.858 161.997C173.562 161.997 174.094 162.213 174.457 162.646C174.819 163.079 174.997 163.667 174.99 164.412V168.379H173.991V164.569C173.991 163.995 173.875 163.578 173.643 163.32C173.509 163.184 173.348 163.079 173.17 163.012C172.992 162.945 172.802 162.917 172.612 162.931C172.316 162.929 172.026 163.023 171.785 163.198C171.533 163.382 171.333 163.628 171.204 163.914C171.066 164.218 170.998 164.55 171.004 164.885V168.379H169.985V164.581C169.985 163.999 169.869 163.578 169.637 163.32C169.505 163.184 169.345 163.08 169.169 163.013C168.994 162.946 168.805 162.918 168.618 162.931C168.32 162.929 168.03 163.025 167.791 163.204C167.538 163.392 167.338 163.643 167.209 163.932C167.072 164.239 167.004 164.573 167.009 164.909V168.379H165.99L165.944 162.191Z" fill="#666D74"/>
<path d="M176.519 160.844C176.449 160.777 176.394 160.696 176.357 160.606C176.32 160.516 176.302 160.42 176.303 160.323C176.301 160.226 176.32 160.131 176.357 160.042C176.394 159.953 176.449 159.873 176.519 159.807C176.656 159.671 176.841 159.594 177.034 159.594C177.227 159.594 177.412 159.671 177.55 159.807C177.619 159.873 177.674 159.953 177.712 160.042C177.749 160.131 177.767 160.226 177.766 160.323C177.768 160.419 177.752 160.514 177.718 160.604C177.683 160.694 177.632 160.775 177.566 160.844C177.498 160.914 177.417 160.968 177.328 161.006C177.239 161.043 177.144 161.063 177.047 161.063C176.951 161.063 176.855 161.043 176.766 161.006C176.677 160.968 176.597 160.914 176.529 160.844H176.519ZM176.531 162.191H177.53V168.379H176.531V162.191Z" fill="#666D74"/>
<path d="M179.636 168.106C179.211 167.814 178.885 167.397 178.701 166.911L179.612 166.507C179.746 166.857 179.983 167.157 180.289 167.368C180.584 167.57 180.933 167.676 181.288 167.671C181.631 167.681 181.97 167.6 182.272 167.435C182.387 167.375 182.485 167.286 182.556 167.176C182.627 167.067 182.668 166.94 182.677 166.81C182.685 166.679 182.66 166.548 182.604 166.43C182.548 166.312 182.462 166.211 182.355 166.137C182.043 165.94 181.698 165.802 181.336 165.732L180.593 165.53C180.148 165.431 179.735 165.218 179.394 164.911C179.123 164.645 178.958 164.287 178.931 163.906C178.903 163.524 179.015 163.146 179.244 162.842C179.467 162.563 179.759 162.348 180.089 162.217C180.451 162.07 180.838 161.996 181.228 161.999C181.728 161.989 182.221 162.11 182.661 162.349C183.062 162.563 183.377 162.91 183.554 163.332L182.661 163.744C182.395 163.194 181.911 162.919 181.21 162.919C180.901 162.912 180.595 162.994 180.329 163.156C180.218 163.212 180.123 163.299 180.057 163.406C179.99 163.513 179.954 163.636 179.952 163.762C179.949 163.869 179.972 163.975 180.018 164.071C180.064 164.167 180.131 164.25 180.215 164.315C180.455 164.485 180.727 164.603 181.015 164.66L181.902 164.891C182.405 164.994 182.873 165.231 183.257 165.576C183.404 165.72 183.521 165.892 183.599 166.083C183.677 166.274 183.716 166.48 183.712 166.687C183.72 167.051 183.606 167.407 183.389 167.698C183.161 167.994 182.859 168.222 182.513 168.359C182.125 168.517 181.709 168.595 181.29 168.589C180.702 168.608 180.123 168.439 179.636 168.106V168.106Z" fill="#666D74"/>
<path d="M186.074 168.137C185.601 167.851 185.213 167.44 184.953 166.948C184.69 166.434 184.552 165.864 184.552 165.285C184.552 164.707 184.69 164.136 184.953 163.623C185.213 163.13 185.601 162.719 186.074 162.434C186.567 162.148 187.125 161.997 187.693 161.997C188.261 161.997 188.819 162.148 189.312 162.434C189.786 162.719 190.173 163.13 190.433 163.623C190.697 164.136 190.834 164.707 190.834 165.285C190.834 165.864 190.697 166.434 190.433 166.948C190.173 167.44 189.786 167.851 189.312 168.137C188.819 168.423 188.261 168.573 187.693 168.573C187.125 168.573 186.567 168.423 186.074 168.137V168.137ZM188.742 167.354C189.071 167.158 189.341 166.875 189.521 166.535C189.714 166.147 189.815 165.719 189.815 165.285C189.815 164.851 189.714 164.423 189.521 164.036C189.341 163.695 189.071 163.412 188.742 163.217C188.424 163.028 188.062 162.929 187.693 162.931C187.316 162.93 186.946 163.031 186.622 163.226C186.298 163.42 186.032 163.7 185.853 164.036C185.66 164.423 185.559 164.851 185.559 165.285C185.559 165.719 185.66 166.147 185.853 166.535C185.987 166.783 186.169 167.002 186.387 167.178C186.606 167.354 186.858 167.484 187.127 167.561C187.396 167.637 187.678 167.658 187.955 167.622C188.233 167.587 188.5 167.496 188.742 167.354V167.354Z" fill="#666D74"/>
<path d="M192.776 168.306C192.442 168.144 192.159 167.89 191.961 167.572C191.767 167.253 191.667 166.885 191.673 166.511C191.661 166.214 191.721 165.918 191.849 165.65C191.977 165.383 192.167 165.151 192.405 164.976C192.944 164.591 193.592 164.397 194.251 164.424C194.597 164.421 194.941 164.462 195.276 164.545C195.53 164.602 195.775 164.696 196.002 164.824V164.448C196.009 164.238 195.97 164.03 195.887 163.837C195.804 163.645 195.679 163.474 195.522 163.338C195.183 163.053 194.752 162.904 194.311 162.919C193.982 162.916 193.657 162.993 193.364 163.144C193.085 163.286 192.848 163.502 192.681 163.769L191.913 163.186C192.161 162.808 192.507 162.506 192.912 162.313C193.348 162.098 193.827 161.99 194.311 161.997C195.142 161.997 195.796 162.218 196.271 162.658C196.512 162.889 196.7 163.169 196.823 163.48C196.946 163.791 197.001 164.126 196.985 164.46V168.379H196.014V167.494H195.966C195.768 167.813 195.493 168.076 195.166 168.258C194.806 168.47 194.396 168.58 193.979 168.573C193.563 168.581 193.151 168.49 192.776 168.306V168.306ZM195.03 167.396C195.322 167.222 195.566 166.976 195.738 166.681C195.913 166.384 196.004 166.044 196.002 165.698C195.783 165.556 195.545 165.45 195.294 165.382C195.006 165.3 194.707 165.259 194.407 165.261C193.848 165.261 193.426 165.378 193.142 165.613C193.006 165.72 192.897 165.859 192.823 166.017C192.749 166.175 192.712 166.348 192.717 166.523C192.712 166.681 192.745 166.838 192.811 166.982C192.878 167.125 192.977 167.25 193.1 167.348C193.377 167.565 193.721 167.677 194.071 167.663C194.409 167.665 194.741 167.573 195.03 167.396V167.396Z" fill="#666D74"/>
<path d="M198.387 162.191H199.358V163.186H199.406C199.538 162.832 199.783 162.533 200.102 162.337C200.42 162.118 200.796 162 201.181 161.997C201.427 161.991 201.672 162.036 201.9 162.131V163.235C201.632 163.1 201.336 163.03 201.037 163.032C200.746 163.031 200.461 163.12 200.222 163.287C199.968 163.462 199.762 163.698 199.622 163.975C199.475 164.262 199.398 164.581 199.4 164.905V168.371H198.381L198.387 162.191Z" fill="#666D74"/>
<path d="M203.399 168.306C203.065 168.144 202.782 167.89 202.584 167.572C202.39 167.253 202.29 166.885 202.296 166.511C202.284 166.214 202.344 165.918 202.472 165.65C202.599 165.383 202.79 165.151 203.027 164.976C203.566 164.591 204.215 164.397 204.874 164.424C205.219 164.421 205.563 164.462 205.899 164.545C206.153 164.602 206.397 164.696 206.624 164.824V164.448C206.632 164.238 206.593 164.03 206.51 163.837C206.427 163.645 206.302 163.474 206.145 163.338C205.805 163.053 205.374 162.904 204.934 162.919C204.605 162.916 204.28 162.993 203.986 163.144C203.707 163.286 203.471 163.502 203.303 163.769L202.536 163.186C202.781 162.809 203.123 162.507 203.525 162.313C203.96 162.098 204.439 161.99 204.924 161.997C205.755 161.997 206.408 162.218 206.884 162.658C207.124 162.889 207.312 163.169 207.436 163.48C207.559 163.791 207.614 164.126 207.597 164.46V168.379H206.626V167.494H206.578C206.38 167.813 206.105 168.076 205.779 168.258C205.419 168.47 205.009 168.58 204.592 168.573C204.179 168.58 203.771 168.488 203.399 168.306ZM205.653 167.396C205.945 167.222 206.188 166.976 206.36 166.681C206.536 166.384 206.627 166.044 206.624 165.698C206.406 165.556 206.167 165.45 205.917 165.382C205.628 165.3 205.329 165.259 205.03 165.261C204.47 165.261 204.048 165.378 203.765 165.613C203.629 165.72 203.519 165.859 203.445 166.017C203.371 166.175 203.335 166.348 203.339 166.523C203.335 166.681 203.367 166.838 203.434 166.982C203.5 167.125 203.599 167.25 203.723 167.348C204 167.565 204.344 167.677 204.694 167.663C205.032 167.665 205.363 167.573 205.653 167.396V167.396Z" fill="#666D74"/>
<path d="M121.116 134.22C122.488 134.222 123.821 133.765 124.91 132.921C125.999 132.077 126.782 130.893 127.137 129.552C127.493 128.212 127.401 126.79 126.877 125.508C126.352 124.225 125.423 123.154 124.236 122.461L102.373 109.69C100.942 108.855 99.2418 108.629 97.6462 109.062C96.0505 109.495 94.6903 110.552 93.8646 112C93.0389 113.448 92.8155 115.169 93.2434 116.783C93.6714 118.398 94.7156 119.775 96.1465 120.61L118.011 133.385C118.956 133.935 120.027 134.223 121.116 134.22V134.22Z" fill="#4284F3"/>
<path d="M164.719 121.45C166.091 121.451 167.424 120.995 168.513 120.151C169.602 119.307 170.385 118.123 170.74 116.782C171.096 115.442 171.004 114.02 170.48 112.737C169.955 111.455 169.026 110.384 167.839 109.69L145.974 96.9161C145.266 96.5024 144.483 96.2341 143.672 96.1264C142.861 96.0186 142.037 96.0736 141.247 96.2881C140.457 96.5027 139.717 96.8726 139.068 97.3767C138.42 97.8809 137.875 98.5094 137.467 99.2264C137.058 99.9435 136.793 100.735 136.686 101.556C136.58 102.376 136.634 103.21 136.846 104.01C137.058 104.809 137.424 105.559 137.922 106.215C138.42 106.872 139.041 107.422 139.75 107.836L161.612 120.612C162.557 121.163 163.629 121.452 164.719 121.45V121.45Z" fill="#0F9D58"/>
<path d="M102.347 109.62L111.685 115.08L124.212 107.761C124.92 107.347 125.541 106.797 126.039 106.14C126.537 105.483 126.903 104.734 127.115 103.934C127.327 103.135 127.381 102.301 127.274 101.48C127.168 100.659 126.902 99.8676 126.494 99.1506C126.085 98.4336 125.54 97.8051 124.891 97.301C124.243 96.7969 123.502 96.4271 122.712 96.2126C121.922 95.9982 121.098 95.9433 120.287 96.0512C119.476 96.159 118.694 96.4275 117.985 96.8412L96.1206 109.705C97.9829 108.619 100.351 108.455 102.347 109.62Z" fill="#E94335"/>
<path d="M161.638 120.568L152.3 115.108L139.773 122.43C138.343 123.266 137.298 124.643 136.87 126.257C136.442 127.872 136.666 129.593 137.492 131.041C138.317 132.489 139.677 133.546 141.273 133.979C142.869 134.412 144.569 134.186 146 133.35L167.874 120.568C166.927 121.123 165.851 121.416 164.756 121.416C163.661 121.416 162.586 121.123 161.638 120.568V120.568Z" fill="#FABB04"/>
</g>
<defs>
<clipPath id="clip0_235_47">
<rect width="211" height="75" fill="white" transform="translate(27 96)"/>
</clipPath>
</defs>
</svg>
