<svg width="266" height="266" viewBox="0 0 266 266" fill="none" xmlns="http://www.w3.org/2000/svg">
<g clip-path="url(#clip0_208_85)">
<path d="M34.2342 143.507C34.1267 143.178 33.985 142.883 33.809 142.622C33.6363 142.358 33.4294 142.133 33.1882 141.948C32.9503 141.762 32.6799 141.62 32.3768 141.522C32.0738 141.424 31.7414 141.376 31.3796 141.376C30.7866 141.376 30.2473 141.529 29.7617 141.835C29.2762 142.141 28.89 142.593 28.6033 143.189C28.3165 143.785 28.1731 144.517 28.1731 145.384C28.1731 146.25 28.3181 146.982 28.6082 147.578C28.8982 148.174 29.2908 148.626 29.7862 148.932C30.2815 149.238 30.8387 149.391 31.4579 149.391C32.0314 149.391 32.5365 149.269 32.9732 149.025C33.4131 148.777 33.7552 148.429 33.9996 147.979C34.2473 147.526 34.3711 146.993 34.3711 146.381L34.7426 146.459H31.7316V145.384H35.5443V146.459C35.5443 147.283 35.3683 148 35.0164 148.609C34.6676 149.219 34.1854 149.691 33.5695 150.027C32.9569 150.359 32.253 150.525 31.4579 150.525C30.5715 150.525 29.7927 150.317 29.1214 149.9C28.4534 149.482 27.932 148.89 27.5572 148.121C27.1857 147.351 27 146.439 27 145.384C27 144.592 27.1059 143.88 27.3177 143.248C27.5328 142.612 27.8358 142.071 28.2269 141.625C28.6179 141.178 29.0807 140.836 29.6151 140.599C30.1495 140.361 30.7377 140.242 31.3796 140.242C31.9076 140.242 32.3996 140.322 32.8558 140.481C33.3153 140.638 33.7243 140.861 34.0827 141.151C34.4444 141.438 34.7459 141.781 34.987 142.182C35.2282 142.58 35.3943 143.021 35.4856 143.507H34.2342Z" fill="#666D74"/>
<path d="M40.5144 150.545C39.8365 150.545 39.2418 150.384 38.7302 150.061C38.2219 149.738 37.8243 149.287 37.5375 148.707C37.254 148.127 37.1123 147.449 37.1123 146.674C37.1123 145.892 37.254 145.209 37.5375 144.626C37.8243 144.043 38.2219 143.59 38.7302 143.267C39.2418 142.945 39.8365 142.783 40.5144 142.783C41.1921 142.783 41.7852 142.945 42.2936 143.267C42.8052 143.59 43.2027 144.043 43.4863 144.626C43.773 145.209 43.9164 145.892 43.9164 146.674C43.9164 147.449 43.773 148.127 43.4863 148.707C43.2027 149.287 42.8052 149.738 42.2936 150.061C41.7852 150.384 41.1921 150.545 40.5144 150.545ZM40.5144 149.509C41.0292 149.509 41.4528 149.377 41.7852 149.113C42.1176 148.849 42.3636 148.502 42.5233 148.071C42.683 147.641 42.7628 147.175 42.7628 146.674C42.7628 146.172 42.683 145.704 42.5233 145.271C42.3636 144.838 42.1176 144.487 41.7852 144.22C41.4528 143.953 41.0292 143.82 40.5144 143.82C39.9995 143.82 39.5759 143.953 39.2435 144.22C38.9111 144.487 38.6651 144.838 38.5054 145.271C38.3457 145.704 38.2659 146.172 38.2659 146.674C38.2659 147.175 38.3457 147.641 38.5054 148.071C38.6651 148.502 38.9111 148.849 39.2435 149.113C39.5759 149.377 39.9995 149.509 40.5144 149.509Z" fill="#666D74"/>
<path d="M48.7273 150.545C48.0494 150.545 47.4547 150.384 46.9431 150.061C46.4348 149.738 46.0372 149.287 45.7505 148.707C45.467 148.127 45.3252 147.449 45.3252 146.674C45.3252 145.892 45.467 145.209 45.7505 144.626C46.0372 144.043 46.4348 143.59 46.9431 143.267C47.4547 142.945 48.0494 142.783 48.7273 142.783C49.4051 142.783 49.9982 142.945 50.5065 143.267C51.0181 143.59 51.4157 144.043 51.6992 144.626C51.9859 145.209 52.1293 145.892 52.1293 146.674C52.1293 147.449 51.9859 148.127 51.6992 148.707C51.4157 149.287 51.0181 149.738 50.5065 150.061C49.9982 150.384 49.4051 150.545 48.7273 150.545ZM48.7273 149.509C49.2421 149.509 49.6658 149.377 49.9982 149.113C50.3305 148.849 50.5766 148.502 50.7363 148.071C50.8959 147.641 50.9758 147.175 50.9758 146.674C50.9758 146.172 50.8959 145.704 50.7363 145.271C50.5766 144.838 50.3305 144.487 49.9982 144.22C49.6658 143.953 49.2421 143.82 48.7273 143.82C48.2124 143.82 47.7888 143.953 47.4564 144.22C47.124 144.487 46.878 144.838 46.7183 145.271C46.5586 145.704 46.4788 146.172 46.4788 146.674C46.4788 147.175 46.5586 147.641 46.7183 148.071C46.878 148.502 47.124 148.849 47.4564 149.113C47.7888 149.377 48.2124 149.509 48.7273 149.509Z" fill="#666D74"/>
<path d="M56.9206 153.36C56.3634 153.36 55.8843 153.288 55.4835 153.145C55.0827 153.005 54.7487 152.819 54.4815 152.588C54.2175 152.36 54.0073 152.115 53.8509 151.855L54.7699 151.209C54.8742 151.346 55.0061 151.503 55.1658 151.679C55.3255 151.858 55.5438 152.012 55.8208 152.143C56.101 152.277 56.4677 152.343 56.9206 152.343C57.5267 152.343 58.0269 152.197 58.4212 151.903C58.8155 151.61 59.0127 151.151 59.0127 150.525V149H58.9149C58.8302 149.137 58.7096 149.306 58.5532 149.509C58.4 149.707 58.1784 149.885 57.8884 150.041C57.6017 150.194 57.2139 150.271 56.7251 150.271C56.1189 150.271 55.5748 150.128 55.0925 149.841C54.6134 149.554 54.2338 149.137 53.9536 148.59C53.6766 148.042 53.5381 147.378 53.5381 146.596C53.5381 145.827 53.6733 145.157 53.9438 144.587C54.2143 144.013 54.5906 143.57 55.0729 143.257C55.5552 142.941 56.1125 142.783 56.7446 142.783C57.2334 142.783 57.6212 142.865 57.908 143.028C58.198 143.187 58.4196 143.37 58.5727 143.575C58.7292 143.777 58.8497 143.943 58.9345 144.074H59.0518V142.881H60.1662V150.603C60.1662 151.249 60.0196 151.773 59.7263 152.177C59.4363 152.585 59.0453 152.883 58.5532 153.071C58.0644 153.264 57.5202 153.36 56.9206 153.36ZM56.8815 149.235C57.3442 149.235 57.7353 149.129 58.0546 148.917C58.374 148.705 58.6167 148.401 58.7829 148.003C58.9491 147.606 59.0322 147.13 59.0322 146.576C59.0322 146.035 58.9508 145.558 58.7878 145.144C58.6249 144.73 58.3838 144.406 58.0644 144.171C57.745 143.937 57.3507 143.82 56.8815 143.82C56.3927 143.82 55.9853 143.943 55.6595 144.191C55.3369 144.438 55.0941 144.771 54.9312 145.188C54.7715 145.605 54.6917 146.068 54.6917 146.576C54.6917 147.097 54.7731 147.558 54.9361 147.959C55.1022 148.357 55.3467 148.669 55.6693 148.898C55.9951 149.122 56.3992 149.235 56.8815 149.235Z" fill="#666D74"/>
<path d="M63.4314 140.379V150.388H62.2778V140.379H63.4314Z" fill="#666D74"/>
<path d="M68.6922 150.545C67.969 150.545 67.3448 150.385 66.8201 150.066C66.2989 149.743 65.8964 149.294 65.6127 148.717C65.3327 148.137 65.1924 147.462 65.1924 146.693C65.1924 145.924 65.3327 145.247 65.6127 144.66C65.8964 144.07 66.2908 143.611 66.7959 143.282C67.3041 142.949 67.8974 142.783 68.5751 142.783C68.9662 142.783 69.3521 142.848 69.7334 142.979C70.1147 143.109 70.4617 143.321 70.7746 143.614C71.0876 143.904 71.3366 144.289 71.5224 144.767C71.7081 145.247 71.801 145.836 71.801 146.537V147.026H66.0138V146.029H70.6279C70.6279 145.605 70.5431 145.227 70.3738 144.895C70.2076 144.562 69.9697 144.3 69.6601 144.108C69.3538 143.915 68.9921 143.82 68.5751 143.82C68.1154 143.82 67.718 143.934 67.3825 144.161C67.05 144.387 66.7942 144.68 66.6149 145.041C66.4358 145.403 66.346 145.791 66.346 146.205V146.869C66.346 147.436 66.4439 147.917 66.6394 148.311C66.838 148.702 67.1136 149 67.4653 149.205C67.8173 149.408 68.2265 149.509 68.6922 149.509C68.9954 149.509 69.269 149.466 69.5133 149.381C69.761 149.294 69.9747 149.163 70.1537 148.99C70.3331 148.814 70.4714 148.596 70.5693 148.336L71.6839 148.648C71.5665 149.026 71.3693 149.359 71.0923 149.645C70.8153 149.929 70.4731 150.15 70.0659 150.31C69.6584 150.467 69.2007 150.545 68.6922 150.545Z" fill="#666D74"/>
<path d="M80.6728 150.388H77.5835V140.379H80.8097C81.7806 140.379 82.6118 140.579 83.3027 140.98C83.9933 141.377 84.5229 141.949 84.8911 142.695C85.2593 143.438 85.4437 144.328 85.4437 145.364C85.4437 146.407 85.2579 147.304 84.8864 148.057C84.5149 148.806 83.9737 149.383 83.2633 149.787C82.5529 150.188 81.6894 150.388 80.6728 150.388ZM78.7957 149.313H80.5947C81.4222 149.313 82.1084 149.153 82.6525 148.834C83.1967 148.515 83.6022 148.06 83.8694 147.471C84.1369 146.881 84.2705 146.178 84.2705 145.364C84.2705 144.556 84.1383 143.86 83.8745 143.277C83.6106 142.69 83.2162 142.241 82.6916 141.928C82.1669 141.612 81.5134 141.454 80.7313 141.454H78.7957V149.313Z" fill="#666D74"/>
<path d="M90.4681 150.545C89.7449 150.545 89.1207 150.385 88.596 150.066C88.0748 149.743 87.6723 149.294 87.3886 148.717C87.1086 148.137 86.9683 147.462 86.9683 146.693C86.9683 145.924 87.1086 145.247 87.3886 144.66C87.6723 144.07 88.0667 143.611 88.5718 143.282C89.0799 142.949 89.6732 142.783 90.351 142.783C90.742 142.783 91.128 142.848 91.5093 142.979C91.8906 143.109 92.2375 143.321 92.5505 143.614C92.8635 143.904 93.1125 144.289 93.2983 144.767C93.484 145.247 93.5769 145.836 93.5769 146.537V147.026H87.7897V146.029H92.4038C92.4038 145.605 92.319 145.227 92.1497 144.895C91.9835 144.562 91.7455 144.3 91.4359 144.108C91.1297 143.915 90.7679 143.82 90.351 143.82C89.8913 143.82 89.4939 143.934 89.1584 144.161C88.8259 144.387 88.5701 144.68 88.3907 145.041C88.2117 145.403 88.1219 145.791 88.1219 146.205V146.869C88.1219 147.436 88.2198 147.917 88.4153 148.311C88.6139 148.702 88.8895 149 89.2411 149.205C89.5931 149.408 90.0024 149.509 90.4681 149.509C90.7713 149.509 91.0449 149.466 91.2892 149.381C91.5369 149.294 91.7506 149.163 91.9296 148.99C92.109 148.814 92.2473 148.596 92.3452 148.336L93.4598 148.648C93.3423 149.026 93.1451 149.359 92.8682 149.645C92.5912 149.929 92.249 150.15 91.8418 150.31C91.4343 150.467 90.9766 150.545 90.4681 150.545Z" fill="#666D74"/>
<path d="M101.243 142.881L98.4665 150.388H97.2934L94.5171 142.881H95.7683L97.8409 148.863H97.919L99.9916 142.881H101.243Z" fill="#666D74"/>
<path d="M105.644 150.545C104.921 150.545 104.297 150.385 103.772 150.066C103.251 149.743 102.849 149.294 102.565 148.717C102.285 148.137 102.145 147.462 102.145 146.693C102.145 145.924 102.285 145.247 102.565 144.66C102.849 144.07 103.243 143.611 103.748 143.282C104.256 142.949 104.849 142.783 105.527 142.783C105.918 142.783 106.304 142.848 106.686 142.979C107.067 143.109 107.414 143.321 107.727 143.614C108.039 143.904 108.289 144.289 108.475 144.767C108.66 145.247 108.753 145.836 108.753 146.537V147.026H102.966V146.029H107.58C107.58 145.605 107.495 145.227 107.326 144.895C107.16 144.562 106.922 144.3 106.612 144.108C106.306 143.915 105.944 143.82 105.527 143.82C105.068 143.82 104.67 143.934 104.334 144.161C104.002 144.387 103.746 144.68 103.567 145.041C103.388 145.403 103.298 145.791 103.298 146.205V146.869C103.298 147.436 103.396 147.917 103.591 148.311C103.79 148.702 104.065 149 104.417 149.205C104.769 149.408 105.178 149.509 105.644 149.509C105.947 149.509 106.221 149.466 106.465 149.381C106.713 149.294 106.927 149.163 107.106 148.99C107.285 148.814 107.424 148.596 107.521 148.336L108.636 148.648C108.519 149.026 108.321 149.359 108.044 149.645C107.767 149.929 107.425 150.15 107.018 150.31C106.611 150.467 106.153 150.545 105.644 150.545Z" fill="#666D74"/>
<path d="M111.661 140.379V150.388H110.508V140.379H111.661Z" fill="#666D74"/>
<path d="M116.824 150.545C116.147 150.545 115.552 150.384 115.04 150.061C114.532 149.738 114.134 149.287 113.847 148.707C113.564 148.127 113.422 147.449 113.422 146.674C113.422 145.892 113.564 145.209 113.847 144.626C114.134 144.043 114.532 143.59 115.04 143.267C115.552 142.945 116.147 142.783 116.824 142.783C117.502 142.783 118.095 142.945 118.603 143.267C119.115 143.59 119.513 144.043 119.796 144.626C120.083 145.209 120.227 145.892 120.227 146.674C120.227 147.449 120.083 148.127 119.796 148.707C119.513 149.287 119.115 149.738 118.603 150.061C118.095 150.384 117.502 150.545 116.824 150.545ZM116.824 149.509C117.339 149.509 117.763 149.377 118.095 149.113C118.427 148.849 118.674 148.502 118.833 148.071C118.993 147.641 119.073 147.175 119.073 146.674C119.073 146.172 118.993 145.704 118.833 145.271C118.674 144.838 118.427 144.487 118.095 144.22C117.763 143.953 117.339 143.82 116.824 143.82C116.309 143.82 115.886 143.953 115.554 144.22C115.221 144.487 114.975 144.838 114.815 145.271C114.656 145.704 114.576 146.172 114.576 146.674C114.576 147.175 114.656 147.641 114.815 148.071C114.975 148.502 115.221 148.849 115.554 149.113C115.886 149.377 116.309 149.509 116.824 149.509Z" fill="#666D74"/>
<path d="M121.987 153.204V142.881H123.102V144.074H123.239C123.323 143.943 123.441 143.777 123.591 143.575C123.744 143.37 123.962 143.187 124.246 143.028C124.532 142.865 124.92 142.783 125.409 142.783C126.041 142.783 126.598 142.941 127.081 143.257C127.563 143.574 127.939 144.021 128.21 144.602C128.48 145.181 128.615 145.866 128.615 146.654C128.615 147.449 128.48 148.138 128.21 148.722C127.939 149.302 127.565 149.751 127.086 150.071C126.606 150.387 126.054 150.545 125.429 150.545C124.946 150.545 124.56 150.465 124.27 150.305C123.98 150.142 123.757 149.958 123.601 149.753C123.444 149.544 123.323 149.372 123.239 149.235H123.141V153.204H121.987ZM123.121 146.635C123.121 147.202 123.205 147.702 123.371 148.135C123.537 148.565 123.78 148.903 124.099 149.147C124.418 149.388 124.809 149.509 125.272 149.509C125.754 149.509 126.157 149.381 126.48 149.127C126.805 148.87 127.05 148.524 127.213 148.091C127.379 147.655 127.462 147.169 127.462 146.635C127.462 146.107 127.38 145.631 127.218 145.208C127.058 144.781 126.815 144.443 126.489 144.196C126.167 143.945 125.761 143.82 125.272 143.82C124.803 143.82 124.409 143.938 124.089 144.176C123.77 144.411 123.529 144.74 123.366 145.163C123.203 145.584 123.121 146.074 123.121 146.635Z" fill="#666D74"/>
<path d="M133.523 150.545C132.8 150.545 132.176 150.385 131.651 150.066C131.13 149.743 130.727 149.294 130.444 148.717C130.164 148.137 130.023 147.462 130.023 146.693C130.023 145.924 130.164 145.247 130.444 144.66C130.727 144.07 131.122 143.611 131.627 143.282C132.135 142.949 132.728 142.783 133.406 142.783C133.797 142.783 134.183 142.848 134.564 142.979C134.946 143.109 135.293 143.321 135.606 143.614C135.919 143.904 136.168 144.289 136.353 144.767C136.539 145.247 136.632 145.836 136.632 146.537V147.026H130.845V146.029H135.459C135.459 145.605 135.374 145.227 135.205 144.895C135.039 144.562 134.801 144.3 134.491 144.108C134.185 143.915 133.823 143.82 133.406 143.82C132.946 143.82 132.549 143.934 132.214 144.161C131.881 144.387 131.625 144.68 131.446 145.041C131.267 145.403 131.177 145.791 131.177 146.205V146.869C131.177 147.436 131.275 147.917 131.47 148.311C131.669 148.702 131.945 149 132.297 149.205C132.648 149.408 133.058 149.509 133.523 149.509C133.826 149.509 134.1 149.466 134.345 149.381C134.592 149.294 134.806 149.163 134.985 148.99C135.164 148.814 135.302 148.596 135.4 148.336L136.515 148.648C136.398 149.026 136.2 149.359 135.923 149.645C135.646 149.929 135.304 150.15 134.897 150.31C134.489 150.467 134.032 150.545 133.523 150.545Z" fill="#666D74"/>
<path d="M138.387 150.388V142.881H139.501V144.015H139.579C139.716 143.644 139.964 143.342 140.322 143.111C140.681 142.879 141.085 142.764 141.535 142.764C141.619 142.764 141.725 142.765 141.852 142.769C141.979 142.772 142.075 142.777 142.141 142.783V143.956C142.102 143.946 142.012 143.932 141.872 143.912C141.735 143.89 141.59 143.878 141.437 143.878C141.072 143.878 140.746 143.955 140.459 144.108C140.176 144.258 139.951 144.466 139.785 144.734C139.622 144.997 139.54 145.299 139.54 145.638V150.388H138.387Z" fill="#666D74"/>
<path d="M153.011 142.881C152.952 142.386 152.714 142.001 152.297 141.728C151.88 141.454 151.368 141.317 150.762 141.317C150.319 141.317 149.931 141.389 149.599 141.532C149.27 141.675 149.012 141.873 148.827 142.123C148.644 142.374 148.553 142.659 148.553 142.979C148.553 143.246 148.616 143.476 148.743 143.668C148.874 143.857 149.04 144.015 149.242 144.142C149.444 144.266 149.656 144.368 149.877 144.45C150.099 144.528 150.303 144.592 150.488 144.641L151.505 144.914C151.766 144.983 152.056 145.077 152.375 145.198C152.698 145.318 153.006 145.483 153.299 145.691C153.595 145.897 153.84 146.161 154.032 146.483C154.224 146.806 154.321 147.202 154.321 147.671C154.321 148.212 154.179 148.7 153.895 149.137C153.615 149.574 153.204 149.921 152.664 150.178C152.126 150.436 151.473 150.564 150.703 150.564C149.987 150.564 149.366 150.448 148.841 150.217C148.32 149.986 147.909 149.663 147.609 149.25C147.313 148.836 147.145 148.355 147.106 147.808H148.357C148.39 148.186 148.517 148.499 148.738 148.746C148.963 148.99 149.247 149.173 149.589 149.294C149.934 149.411 150.306 149.47 150.703 149.47C151.166 149.47 151.582 149.395 151.95 149.245C152.318 149.091 152.61 148.88 152.825 148.609C153.04 148.336 153.148 148.016 153.148 147.651C153.148 147.319 153.055 147.049 152.869 146.84C152.683 146.631 152.439 146.462 152.136 146.331C151.832 146.201 151.505 146.087 151.153 145.99L149.921 145.638C149.139 145.413 148.52 145.092 148.064 144.675C147.608 144.258 147.38 143.712 147.38 143.038C147.38 142.477 147.531 141.988 147.834 141.571C148.14 141.151 148.551 140.825 149.066 140.594C149.584 140.359 150.163 140.242 150.801 140.242C151.446 140.242 152.02 140.357 152.522 140.589C153.024 140.817 153.421 141.13 153.715 141.527C154.011 141.925 154.168 142.376 154.184 142.881H153.011Z" fill="#666D74"/>
<path d="M159.422 142.881V143.859H155.531V142.881H159.422ZM156.665 141.083H157.819V148.238C157.819 148.564 157.866 148.808 157.961 148.971C158.059 149.13 158.182 149.238 158.332 149.294C158.485 149.346 158.647 149.372 158.816 149.372C158.943 149.372 159.048 149.365 159.129 149.352C159.21 149.336 159.275 149.323 159.325 149.313L159.559 150.349C159.481 150.378 159.372 150.408 159.232 150.437C159.091 150.47 158.914 150.486 158.699 150.486C158.373 150.486 158.053 150.416 157.741 150.276C157.431 150.136 157.174 149.923 156.969 149.635C156.766 149.349 156.665 148.987 156.665 148.551V141.083Z" fill="#666D74"/>
<path d="M165.889 147.319V142.881H167.043V150.388H165.889V149.118H165.811C165.635 149.499 165.361 149.823 164.99 150.09C164.618 150.354 164.149 150.486 163.582 150.486C163.113 150.486 162.696 150.384 162.331 150.178C161.966 149.97 161.679 149.657 161.47 149.24C161.262 148.82 161.158 148.29 161.158 147.651V142.881H162.311V147.573C162.311 148.121 162.464 148.557 162.771 148.883C163.08 149.209 163.474 149.372 163.954 149.372C164.24 149.372 164.532 149.298 164.829 149.152C165.128 149.005 165.379 148.78 165.581 148.477C165.787 148.174 165.889 147.788 165.889 147.319Z" fill="#666D74"/>
<path d="M171.99 150.545C171.365 150.545 170.812 150.387 170.333 150.071C169.854 149.751 169.48 149.302 169.209 148.722C168.939 148.138 168.803 147.449 168.803 146.654C168.803 145.866 168.939 145.181 169.209 144.602C169.48 144.021 169.856 143.574 170.338 143.257C170.82 142.941 171.378 142.783 172.01 142.783C172.499 142.783 172.885 142.865 173.168 143.028C173.455 143.187 173.673 143.37 173.823 143.575C173.977 143.777 174.095 143.943 174.18 144.074H174.278V140.379H175.431V150.388H174.317V149.235H174.18C174.095 149.372 173.975 149.544 173.818 149.753C173.662 149.958 173.439 150.142 173.149 150.305C172.859 150.465 172.473 150.545 171.99 150.545ZM172.147 149.509C172.61 149.509 173.001 149.388 173.32 149.147C173.639 148.903 173.882 148.565 174.048 148.135C174.215 147.702 174.298 147.202 174.298 146.635C174.298 146.074 174.216 145.584 174.053 145.164C173.89 144.74 173.649 144.411 173.33 144.176C173.01 143.938 172.616 143.82 172.147 143.82C171.658 143.82 171.251 143.945 170.925 144.196C170.602 144.443 170.359 144.781 170.196 145.208C170.037 145.631 169.957 146.107 169.957 146.635C169.957 147.169 170.038 147.655 170.201 148.091C170.367 148.524 170.612 148.87 170.934 149.127C171.261 149.381 171.664 149.509 172.147 149.509Z" fill="#666D74"/>
<path d="M180.853 150.545C180.129 150.545 179.505 150.385 178.981 150.066C178.459 149.743 178.057 149.294 177.773 148.717C177.493 148.137 177.353 147.462 177.353 146.693C177.353 145.924 177.493 145.247 177.773 144.66C178.057 144.07 178.451 143.611 178.956 143.282C179.464 142.949 180.058 142.783 180.735 142.783C181.126 142.783 181.512 142.848 181.894 142.979C182.275 143.109 182.622 143.321 182.935 143.614C183.248 143.904 183.497 144.289 183.683 144.767C183.869 145.247 183.962 145.836 183.962 146.537V147.026H178.174V146.029H182.789C182.789 145.605 182.704 145.227 182.534 144.895C182.368 144.562 182.13 144.3 181.821 144.108C181.514 143.915 181.152 143.82 180.735 143.82C180.276 143.82 179.878 143.934 179.543 144.161C179.21 144.387 178.955 144.68 178.775 145.041C178.596 145.403 178.507 145.791 178.507 146.205V146.869C178.507 147.436 178.604 147.917 178.8 148.311C178.999 148.702 179.274 149 179.626 149.205C179.978 149.408 180.387 149.509 180.853 149.509C181.156 149.509 181.43 149.466 181.674 149.381C181.922 149.294 182.135 149.163 182.314 148.99C182.493 148.814 182.632 148.596 182.73 148.336L183.844 148.648C183.727 149.026 183.53 149.359 183.253 149.645C182.976 149.929 182.634 150.15 182.226 150.31C181.819 150.467 181.361 150.545 180.853 150.545Z" fill="#666D74"/>
<path d="M186.87 145.872V150.388H185.716V142.881H186.831V144.054H186.928C187.104 143.673 187.372 143.367 187.73 143.135C188.088 142.901 188.552 142.783 189.118 142.783C189.627 142.783 190.072 142.887 190.453 143.096C190.834 143.301 191.131 143.614 191.342 144.035C191.554 144.451 191.66 144.979 191.66 145.618V150.388H190.507V145.696C190.507 145.107 190.353 144.647 190.047 144.318C189.741 143.985 189.32 143.82 188.786 143.82C188.418 143.82 188.088 143.899 187.799 144.059C187.512 144.219 187.286 144.451 187.119 144.758C186.953 145.064 186.87 145.436 186.87 145.872Z" fill="#666D74"/>
<path d="M197.033 142.881V143.859H193.142V142.881H197.033ZM194.276 141.083H195.43V148.238C195.43 148.564 195.477 148.808 195.571 148.971C195.669 149.13 195.793 149.238 195.943 149.294C196.096 149.346 196.257 149.372 196.427 149.372C196.554 149.372 196.658 149.365 196.74 149.352C196.821 149.336 196.886 149.323 196.935 149.313L197.17 150.349C197.092 150.378 196.982 150.408 196.842 150.437C196.702 150.47 196.524 150.486 196.309 150.486C195.984 150.486 195.664 150.416 195.351 150.276C195.042 150.136 194.785 149.923 194.579 149.635C194.377 149.349 194.276 148.987 194.276 148.551V141.083Z" fill="#666D74"/>
<path d="M210.851 143.507H209.639C209.567 143.158 209.442 142.852 209.263 142.588C209.087 142.324 208.872 142.102 208.617 141.923C208.367 141.741 208.088 141.604 207.782 141.513C207.475 141.421 207.156 141.376 206.824 141.376C206.218 141.376 205.668 141.529 205.176 141.835C204.687 142.141 204.298 142.593 204.008 143.189C203.721 143.785 203.578 144.517 203.578 145.384C203.578 146.25 203.721 146.982 204.008 147.578C204.298 148.174 204.687 148.626 205.176 148.932C205.668 149.238 206.218 149.391 206.824 149.391C207.156 149.391 207.475 149.346 207.782 149.254C208.088 149.163 208.367 149.028 208.617 148.849C208.872 148.666 209.087 148.443 209.263 148.179C209.442 147.912 209.567 147.606 209.639 147.26H210.851C210.76 147.772 210.594 148.23 210.353 148.634C210.111 149.038 209.812 149.381 209.453 149.665C209.095 149.945 208.692 150.159 208.246 150.305C207.803 150.452 207.329 150.525 206.824 150.525C205.97 150.525 205.21 150.317 204.546 149.9C203.881 149.482 203.358 148.89 202.977 148.121C202.596 147.351 202.405 146.439 202.405 145.384C202.405 144.328 202.596 143.415 202.977 142.647C203.358 141.877 203.881 141.284 204.546 140.867C205.21 140.45 205.97 140.242 206.824 140.242C207.329 140.242 207.803 140.315 208.246 140.462C208.692 140.608 209.095 140.823 209.453 141.107C209.812 141.387 210.111 141.729 210.353 142.133C210.594 142.534 210.76 142.992 210.851 143.507Z" fill="#666D74"/>
<path d="M213.807 140.379V150.388H212.654V140.379H213.807Z" fill="#666D74"/>
<path d="M220.652 147.319V142.881H221.806V150.388H220.652V149.118H220.574C220.398 149.499 220.124 149.823 219.752 150.09C219.381 150.354 218.912 150.486 218.345 150.486C217.876 150.486 217.458 150.384 217.094 150.178C216.728 149.97 216.442 149.657 216.233 149.24C216.025 148.82 215.92 148.29 215.92 147.651V142.881H217.074V147.573C217.074 148.121 217.227 148.557 217.533 148.883C217.843 149.209 218.237 149.372 218.716 149.372C219.003 149.372 219.295 149.298 219.591 149.152C219.891 149.005 220.142 148.78 220.344 148.477C220.549 148.174 220.652 147.788 220.652 147.319Z" fill="#666D74"/>
<path d="M224.075 150.388V140.379H225.228V144.074H225.326C225.411 143.943 225.528 143.777 225.678 143.575C225.831 143.37 226.049 143.187 226.333 143.028C226.62 142.865 227.008 142.783 227.496 142.783C228.128 142.783 228.686 142.941 229.168 143.257C229.65 143.574 230.027 144.021 230.297 144.602C230.568 145.181 230.703 145.866 230.703 146.654C230.703 147.449 230.568 148.138 230.297 148.722C230.027 149.302 229.652 149.751 229.173 150.071C228.694 150.387 228.142 150.545 227.516 150.545C227.034 150.545 226.647 150.465 226.357 150.305C226.068 150.142 225.844 149.958 225.688 149.753C225.532 149.544 225.411 149.372 225.326 149.235H225.189V150.388H224.075ZM225.209 146.635C225.209 147.202 225.292 147.702 225.458 148.135C225.624 148.565 225.867 148.903 226.186 149.147C226.506 149.388 226.897 149.509 227.36 149.509C227.842 149.509 228.244 149.381 228.567 149.127C228.893 148.87 229.137 148.524 229.3 148.091C229.466 147.655 229.549 147.169 229.549 146.635C229.549 146.107 229.468 145.631 229.305 145.208C229.145 144.781 228.902 144.443 228.577 144.196C228.254 143.945 227.848 143.82 227.36 143.82C226.89 143.82 226.496 143.938 226.177 144.176C225.857 144.411 225.616 144.74 225.453 145.164C225.29 145.584 225.209 146.074 225.209 146.635Z" fill="#666D74"/>
<path d="M237.786 144.562L236.75 144.856C236.684 144.683 236.588 144.515 236.461 144.352C236.337 144.186 236.168 144.049 235.953 143.942C235.738 143.834 235.462 143.78 235.127 143.78C234.667 143.78 234.284 143.886 233.978 144.098C233.675 144.306 233.523 144.572 233.523 144.895C233.523 145.181 233.628 145.408 233.836 145.574C234.045 145.74 234.371 145.879 234.814 145.99L235.928 146.263C236.6 146.426 237.1 146.675 237.429 147.011C237.758 147.343 237.923 147.772 237.923 148.297C237.923 148.727 237.799 149.111 237.551 149.45C237.307 149.789 236.965 150.056 236.525 150.252C236.085 150.447 235.573 150.545 234.99 150.545C234.224 150.545 233.59 150.378 233.088 150.046C232.587 149.714 232.269 149.228 232.135 148.59L233.23 148.316C233.334 148.72 233.531 149.023 233.822 149.225C234.115 149.427 234.498 149.528 234.97 149.528C235.508 149.528 235.935 149.414 236.251 149.186C236.57 148.955 236.73 148.677 236.73 148.355C236.73 148.094 236.639 147.876 236.456 147.7C236.274 147.521 235.993 147.387 235.616 147.299L234.364 147.006C233.677 146.843 233.171 146.591 232.849 146.249C232.53 145.903 232.37 145.471 232.37 144.953C232.37 144.53 232.489 144.155 232.727 143.829C232.968 143.503 233.295 143.248 233.709 143.062C234.126 142.876 234.599 142.783 235.127 142.783C235.87 142.783 236.453 142.946 236.877 143.272C237.304 143.598 237.606 144.028 237.786 144.562Z" fill="#666D74"/>
<path d="M41.1265 166.045V157.703H43.9452C44.5997 157.703 45.1346 157.821 45.5501 158.057C45.9683 158.291 46.2779 158.607 46.4788 159.007C46.6798 159.406 46.7803 159.851 46.7803 160.342C46.7803 160.834 46.6798 161.281 46.4788 161.682C46.2806 162.084 45.9737 162.405 45.5582 162.644C45.1428 162.88 44.6105 162.998 43.9615 162.998H41.9411V162.102H43.9289C44.377 162.102 44.7368 162.025 45.0084 161.87C45.2799 161.715 45.4768 161.506 45.599 161.243C45.7239 160.976 45.7864 160.676 45.7864 160.342C45.7864 160.008 45.7239 159.71 45.599 159.446C45.4768 159.183 45.2786 158.977 45.0043 158.827C44.73 158.675 44.3661 158.599 43.9126 158.599H42.1366V166.045H41.1265Z" fill="#666D74"/>
<path d="M50.752 166.175C50.1872 166.175 49.6916 166.041 49.2653 165.772C48.8416 165.503 48.5103 165.127 48.2714 164.643C48.0351 164.16 47.917 163.595 47.917 162.949C47.917 162.297 48.0351 161.728 48.2714 161.243C48.5103 160.756 48.8416 160.379 49.2653 160.11C49.6916 159.841 50.1872 159.707 50.752 159.707C51.3169 159.707 51.8111 159.841 52.2347 160.11C52.6611 160.379 52.9924 160.756 53.2286 161.243C53.4676 161.728 53.5871 162.297 53.5871 162.949C53.5871 163.595 53.4676 164.16 53.2286 164.643C52.9924 165.127 52.6611 165.503 52.2347 165.772C51.8111 166.041 51.3169 166.175 50.752 166.175ZM50.752 165.311C51.1811 165.311 51.5341 165.201 51.8111 164.981C52.0881 164.762 52.2931 164.472 52.4262 164.114C52.5592 163.755 52.6258 163.367 52.6258 162.949C52.6258 162.531 52.5592 162.141 52.4262 161.78C52.2931 161.419 52.0881 161.127 51.8111 160.904C51.5341 160.682 51.1811 160.571 50.752 160.571C50.323 160.571 49.97 160.682 49.693 160.904C49.416 161.127 49.211 161.419 49.0779 161.78C48.9448 162.141 48.8783 162.531 48.8783 162.949C48.8783 163.367 48.9448 163.755 49.0779 164.114C49.211 164.472 49.416 164.762 49.693 164.981C49.97 165.201 50.323 165.311 50.752 165.311Z" fill="#666D74"/>
<path d="M56.0155 157.703V166.045H55.0542V157.703H56.0155Z" fill="#666D74"/>
<path d="M57.7761 166.045V159.789H58.7374V166.045H57.7761ZM58.2649 158.746C58.0775 158.746 57.9159 158.682 57.7802 158.554C57.6471 158.427 57.5806 158.273 57.5806 158.094C57.5806 157.915 57.6471 157.761 57.7802 157.634C57.9159 157.506 58.0775 157.443 58.2649 157.443C58.4523 157.443 58.6125 157.506 58.7455 157.634C58.8813 157.761 58.9492 157.915 58.9492 158.094C58.9492 158.273 58.8813 158.427 58.7455 158.554C58.6125 158.682 58.4523 158.746 58.2649 158.746Z" fill="#666D74"/>
<path d="M63.2195 159.789V160.603H59.9771V159.789H63.2195ZM60.922 158.289H61.8835V164.252C61.8835 164.524 61.9228 164.728 62.0016 164.863C62.083 164.996 62.186 165.086 62.3112 165.132C62.4387 165.175 62.573 165.197 62.7143 165.197C62.8203 165.197 62.9072 165.192 62.9751 165.181C63.0428 165.167 63.0973 165.157 63.138 165.149L63.3335 166.012C63.2682 166.036 63.1774 166.061 63.0606 166.085C62.9438 166.112 62.7958 166.126 62.6164 166.126C62.3452 166.126 62.079 166.067 61.8182 165.951C61.5601 165.834 61.3457 165.656 61.1747 165.417C61.0061 165.178 60.922 164.877 60.922 164.513V158.289Z" fill="#666D74"/>
<path d="M67.221 166.175C66.6183 166.175 66.0984 166.042 65.6609 165.776C65.2264 165.507 64.8912 165.132 64.655 164.652C64.4215 164.168 64.3047 163.606 64.3047 162.965C64.3047 162.324 64.4215 161.76 64.655 161.271C64.8912 160.779 65.2197 160.397 65.6407 160.122C66.0644 159.845 66.5584 159.707 67.1234 159.707C67.4492 159.707 67.7709 159.761 68.0886 159.87C68.4066 159.978 68.6956 160.155 68.9564 160.399C69.2169 160.641 69.4249 160.962 69.5797 161.361C69.7345 161.76 69.8119 162.251 69.8119 162.835V163.242H64.9888V162.411H68.8343C68.8343 162.059 68.7636 161.744 68.6223 161.467C68.484 161.189 68.2854 160.971 68.0276 160.811C67.7722 160.651 67.471 160.571 67.1234 160.571C66.7404 160.571 66.409 160.665 66.1293 160.856C65.8524 161.043 65.6393 161.287 65.4899 161.589C65.3405 161.89 65.2658 162.213 65.2658 162.558V163.112C65.2658 163.585 65.3472 163.985 65.5104 164.313C65.676 164.639 65.9055 164.888 66.1986 165.059C66.4921 165.227 66.8326 165.311 67.221 165.311C67.4737 165.311 67.7019 165.276 67.9055 165.205C68.1118 165.132 68.2898 165.024 68.4389 164.88C68.5883 164.733 68.7037 164.551 68.7852 164.334L69.714 164.595C69.6164 164.91 69.4518 165.187 69.221 165.425C68.9904 165.662 68.7051 165.846 68.3658 165.979C68.0263 166.11 67.6447 166.175 67.221 166.175Z" fill="#666D74"/>
<path d="M72.2359 162.281V166.045H71.2744V157.703H72.2359V160.766H72.3173C72.4637 160.443 72.6838 160.186 72.9769 159.996C73.273 159.803 73.6668 159.707 74.1584 159.707C74.5848 159.707 74.958 159.793 75.2784 159.964C75.5991 160.132 75.8474 160.391 76.0238 160.741C76.2031 161.089 76.2926 161.532 76.2926 162.069V166.045H75.3315V162.135C75.3315 161.638 75.2023 161.253 74.9445 160.982C74.6891 160.707 74.3348 160.571 73.8815 160.571C73.5665 160.571 73.2838 160.637 73.0341 160.77C72.7871 160.903 72.5916 161.097 72.4475 161.353C72.3062 161.608 72.2359 161.917 72.2359 162.281Z" fill="#666D74"/>
<path d="M79.0127 162.281V166.045H78.0513V159.789H78.9801V160.766H79.0615C79.2082 160.448 79.431 160.193 79.7295 160C80.0283 159.805 80.414 159.707 80.8865 159.707C81.3102 159.707 81.6807 159.794 81.9984 159.968C82.316 160.139 82.5634 160.399 82.7397 160.75C82.9164 161.097 83.0046 161.537 83.0046 162.069V166.045H82.0431V162.135C82.0431 161.643 81.9156 161.26 81.6605 160.986C81.4051 160.709 81.0547 160.571 80.6095 160.571C80.3026 160.571 80.0283 160.637 79.7867 160.77C79.5478 160.903 79.359 161.097 79.2204 161.353C79.082 161.608 79.0127 161.917 79.0127 162.281Z" fill="#666D74"/>
<path d="M84.761 166.045V159.789H85.7221V166.045H84.761ZM85.2496 158.746C85.0625 158.746 84.9006 158.682 84.765 158.554C84.6321 158.427 84.5654 158.273 84.5654 158.094C84.5654 157.915 84.6321 157.761 84.765 157.634C84.9006 157.506 85.0625 157.443 85.2496 157.443C85.437 157.443 85.5972 157.506 85.7305 157.634C85.8661 157.761 85.9341 157.915 85.9341 158.094C85.9341 158.273 85.8661 158.427 85.7305 158.554C85.5972 158.682 85.437 158.746 85.2496 158.746Z" fill="#666D74"/>
<path d="M90.0251 166.175C89.4386 166.175 88.9335 166.036 88.5098 165.759C88.0861 165.482 87.7603 165.101 87.5322 164.615C87.304 164.129 87.1899 163.573 87.1899 162.949C87.1899 162.314 87.3067 161.753 87.5403 161.267C87.7765 160.778 88.1049 160.397 88.5259 160.122C88.9496 159.845 89.444 159.707 90.0087 159.707C90.4485 159.707 90.8453 159.789 91.1983 159.951C91.5513 160.114 91.8404 160.342 92.0658 160.635C92.2913 160.929 92.431 161.271 92.4851 161.662H91.524C91.4507 161.377 91.2878 161.124 91.0351 160.904C90.7854 160.682 90.4485 160.571 90.0251 160.571C89.6503 160.571 89.3218 160.668 89.0391 160.864C88.7595 161.056 88.5411 161.329 88.3836 161.682C88.2288 162.033 88.1514 162.444 88.1514 162.917C88.1514 163.4 88.2274 163.821 88.3792 164.179C88.534 164.537 88.7514 164.816 89.0311 165.014C89.3134 165.212 89.6449 165.311 90.0251 165.311C90.2748 165.311 90.5017 165.268 90.7053 165.181C90.9089 165.094 91.0815 164.969 91.2225 164.806C91.3638 164.643 91.4641 164.448 91.524 164.22H92.4851C92.431 164.589 92.2967 164.922 92.082 165.218C91.8703 165.511 91.5893 165.744 91.239 165.918C90.8914 166.089 90.4865 166.175 90.0251 166.175Z" fill="#666D74"/>
<path d="M95.7317 166.191C95.335 166.191 94.9752 166.116 94.6522 165.967C94.3291 165.815 94.0723 165.596 93.8822 165.311C93.6921 165.024 93.5972 164.676 93.5972 164.269C93.5972 163.91 93.6678 163.62 93.8088 163.397C93.9502 163.172 94.139 162.995 94.3752 162.867C94.6115 162.74 94.8723 162.645 95.1573 162.582C95.445 162.517 95.7344 162.466 96.0248 162.428C96.4051 162.379 96.7134 162.342 96.9496 162.318C97.1885 162.291 97.3622 162.246 97.4709 162.183C97.5823 162.121 97.6378 162.012 97.6378 161.858V161.825C97.6378 161.423 97.5278 161.111 97.308 160.888C97.0906 160.665 96.7608 160.554 96.3183 160.554C95.8593 160.554 95.4995 160.655 95.2387 160.856C94.9779 161.056 94.7949 161.271 94.6889 161.499L93.7762 161.173C93.9394 160.793 94.1565 160.497 94.428 160.285C94.7023 160.071 95.0011 159.921 95.3242 159.837C95.65 159.751 95.9707 159.707 96.2857 159.707C96.4866 159.707 96.7174 159.731 96.9779 159.78C97.2414 159.827 97.4955 159.923 97.7398 160.069C97.9868 160.216 98.1917 160.437 98.3549 160.733C98.5178 161.029 98.5992 161.426 98.5992 161.923V166.045H97.6378V165.197H97.589C97.5237 165.333 97.4154 165.478 97.2633 165.633C97.1111 165.788 96.9089 165.919 96.6562 166.028C96.4038 166.137 96.0955 166.191 95.7317 166.191ZM95.8781 165.328C96.2584 165.328 96.5788 165.253 96.8396 165.104C97.1031 164.954 97.3013 164.762 97.4342 164.525C97.5702 164.289 97.6378 164.04 97.6378 163.78V162.9C97.5971 162.949 97.5076 162.994 97.3689 163.035C97.2333 163.073 97.0758 163.106 96.8964 163.136C96.7201 163.164 96.5475 163.188 96.3792 163.21C96.2136 163.229 96.079 163.245 95.9761 163.258C95.726 163.291 95.4925 163.344 95.2754 163.417C95.0607 163.488 94.8871 163.595 94.7541 163.739C94.6236 163.88 94.5586 164.073 94.5586 164.317C94.5586 164.652 94.6821 164.904 94.9291 165.075C95.1788 165.243 95.4952 165.328 95.8781 165.328Z" fill="#666D74"/>
<path d="M109.185 157.703H110.195V163.226C110.195 163.796 110.061 164.305 109.792 164.753C109.526 165.199 109.15 165.55 108.663 165.808C108.177 166.063 107.607 166.191 106.953 166.191C106.298 166.191 105.728 166.063 105.242 165.808C104.756 165.55 104.378 165.199 104.11 164.753C103.843 164.305 103.71 163.796 103.71 163.226V157.703H104.72V163.144C104.72 163.552 104.81 163.914 104.989 164.232C105.169 164.547 105.424 164.796 105.755 164.977C106.089 165.157 106.488 165.246 106.953 165.246C107.417 165.246 107.816 165.157 108.15 164.977C108.484 164.796 108.739 164.547 108.916 164.232C109.095 163.914 109.185 163.552 109.185 163.144V157.703Z" fill="#666D74"/>
<path d="M113.043 162.281V166.045H112.082V159.789H113.011V160.766H113.092C113.239 160.448 113.461 160.193 113.76 160C114.059 159.805 114.444 159.707 114.917 159.707C115.341 159.707 115.711 159.794 116.029 159.968C116.347 160.139 116.594 160.399 116.77 160.75C116.947 161.097 117.035 161.537 117.035 162.069V166.045H116.074V162.135C116.074 161.643 115.946 161.26 115.691 160.986C115.436 160.709 115.086 160.571 114.64 160.571C114.333 160.571 114.059 160.637 113.817 160.77C113.578 160.903 113.389 161.097 113.251 161.353C113.112 161.608 113.043 161.917 113.043 162.281Z" fill="#666D74"/>
<path d="M118.792 166.045V159.789H119.753V166.045H118.792ZM119.281 158.746C119.093 158.746 118.932 158.682 118.796 158.554C118.663 158.427 118.596 158.273 118.596 158.094C118.596 157.915 118.663 157.761 118.796 157.634C118.932 157.506 119.093 157.443 119.281 157.443C119.468 157.443 119.628 157.506 119.761 157.634C119.897 157.761 119.965 157.915 119.965 158.094C119.965 158.273 119.897 158.427 119.761 158.554C119.628 158.682 119.468 158.746 119.281 158.746Z" fill="#666D74"/>
<path d="M126.63 159.789L124.316 166.045H123.339L121.025 159.789H122.068L123.795 164.774H123.86L125.587 159.789H126.63Z" fill="#666D74"/>
<path d="M130.298 166.175C129.695 166.175 129.175 166.042 128.738 165.776C128.303 165.507 127.968 165.132 127.732 164.652C127.498 164.168 127.381 163.606 127.381 162.965C127.381 162.324 127.498 161.76 127.732 161.271C127.968 160.779 128.296 160.397 128.717 160.122C129.141 159.845 129.635 159.707 130.2 159.707C130.526 159.707 130.848 159.761 131.166 159.87C131.483 159.978 131.772 160.155 132.033 160.399C132.294 160.641 132.502 160.962 132.656 161.361C132.811 161.76 132.889 162.251 132.889 162.835V163.242H128.066V162.411H131.911C131.911 162.059 131.84 161.744 131.699 161.467C131.561 161.189 131.362 160.971 131.104 160.811C130.849 160.651 130.548 160.571 130.2 160.571C129.817 160.571 129.486 160.665 129.206 160.856C128.929 161.043 128.716 161.287 128.567 161.589C128.418 161.89 128.343 162.213 128.343 162.558V163.112C128.343 163.585 128.424 163.985 128.587 164.313C128.753 164.639 128.982 164.888 129.276 165.059C129.569 165.227 129.91 165.311 130.298 165.311C130.55 165.311 130.779 165.276 130.982 165.205C131.188 165.132 131.366 165.024 131.516 164.88C131.665 164.733 131.781 164.551 131.862 164.334L132.791 164.595C132.693 164.91 132.529 165.187 132.298 165.425C132.067 165.662 131.782 165.846 131.443 165.979C131.103 166.11 130.722 166.175 130.298 166.175Z" fill="#666D74"/>
<path d="M134.351 166.045V159.789H135.28V160.733H135.345C135.459 160.424 135.666 160.172 135.964 159.98C136.263 159.787 136.6 159.691 136.974 159.691C137.045 159.691 137.133 159.692 137.239 159.695C137.345 159.697 137.425 159.701 137.479 159.707V160.685C137.447 160.676 137.372 160.664 137.256 160.648C137.142 160.629 137.021 160.619 136.893 160.619C136.589 160.619 136.317 160.683 136.078 160.811C135.842 160.936 135.655 161.109 135.516 161.332C135.381 161.552 135.313 161.803 135.313 162.085V166.045H134.351Z" fill="#666D74"/>
<path d="M143.051 161.189L142.187 161.434C142.133 161.29 142.053 161.15 141.947 161.014C141.844 160.876 141.702 160.762 141.523 160.672C141.344 160.583 141.114 160.538 140.835 160.538C140.452 160.538 140.133 160.626 139.878 160.803C139.625 160.976 139.499 161.198 139.499 161.467C139.499 161.706 139.586 161.894 139.76 162.033C139.933 162.171 140.205 162.287 140.574 162.379L141.503 162.607C142.062 162.743 142.479 162.95 142.753 163.23C143.028 163.507 143.165 163.864 143.165 164.301C143.165 164.66 143.062 164.98 142.855 165.263C142.652 165.545 142.366 165.768 142 165.931C141.633 166.093 141.207 166.175 140.721 166.175C140.083 166.175 139.554 166.036 139.136 165.759C138.718 165.482 138.453 165.078 138.342 164.546L139.254 164.317C139.341 164.654 139.505 164.907 139.747 165.075C139.992 165.243 140.311 165.328 140.705 165.328C141.152 165.328 141.508 165.233 141.772 165.043C142.038 164.85 142.171 164.619 142.171 164.35C142.171 164.133 142.095 163.951 141.943 163.804C141.791 163.655 141.557 163.544 141.242 163.47L140.199 163.226C139.626 163.09 139.206 162.88 138.937 162.595C138.671 162.307 138.537 161.947 138.537 161.515C138.537 161.162 138.637 160.85 138.835 160.579C139.036 160.307 139.309 160.094 139.654 159.939C140.001 159.784 140.395 159.707 140.835 159.707C141.454 159.707 141.94 159.843 142.293 160.114C142.649 160.386 142.901 160.744 143.051 161.189Z" fill="#666D74"/>
<path d="M144.612 166.045V159.789H145.573V166.045H144.612ZM145.101 158.746C144.914 158.746 144.752 158.682 144.616 158.554C144.483 158.427 144.417 158.273 144.417 158.094C144.417 157.915 144.483 157.761 144.616 157.634C144.752 157.506 144.914 157.443 145.101 157.443C145.288 157.443 145.448 157.506 145.582 157.634C145.717 157.761 145.785 157.915 145.785 158.094C145.785 158.273 145.717 158.427 145.582 158.554C145.448 158.682 145.288 158.746 145.101 158.746Z" fill="#666D74"/>
<path d="M150.055 159.789V160.603H146.812V159.789H150.055ZM147.757 158.289H148.719V164.252C148.719 164.524 148.758 164.728 148.837 164.863C148.918 164.996 149.022 165.086 149.147 165.132C149.274 165.175 149.409 165.197 149.55 165.197C149.656 165.197 149.743 165.192 149.811 165.181C149.879 165.167 149.933 165.157 149.973 165.149L150.169 166.012C150.104 166.036 150.013 166.061 149.896 166.085C149.779 166.112 149.631 166.126 149.452 166.126C149.181 166.126 148.914 166.067 148.654 165.951C148.396 165.834 148.181 165.656 148.01 165.417C147.842 165.178 147.757 164.877 147.757 164.513V158.289Z" fill="#666D74"/>
<path d="M152.12 168.391C151.957 168.391 151.812 168.377 151.684 168.35C151.556 168.325 151.468 168.301 151.419 168.277L151.664 167.429C151.897 167.489 152.103 167.511 152.283 167.495C152.462 167.478 152.621 167.398 152.759 167.254C152.901 167.113 153.03 166.883 153.146 166.566L153.326 166.077L151.012 159.789H152.055L153.782 164.774H153.847L155.574 159.789H156.617L153.961 166.957C153.842 167.28 153.693 167.547 153.517 167.759C153.34 167.974 153.136 168.133 152.902 168.236C152.671 168.339 152.41 168.391 152.12 168.391Z" fill="#666D74"/>
<path d="M163.654 166.175C163.089 166.175 162.593 166.041 162.167 165.772C161.743 165.503 161.412 165.127 161.173 164.643C160.936 164.16 160.818 163.595 160.818 162.949C160.818 162.297 160.936 161.728 161.173 161.243C161.412 160.756 161.743 160.379 162.167 160.11C162.593 159.841 163.089 159.707 163.654 159.707C164.218 159.707 164.713 159.841 165.136 160.11C165.563 160.379 165.894 160.756 166.13 161.243C166.369 161.728 166.488 162.297 166.488 162.949C166.488 163.595 166.369 164.16 166.13 164.643C165.894 165.127 165.563 165.503 165.136 165.772C164.713 166.041 164.218 166.175 163.654 166.175ZM163.654 165.311C164.083 165.311 164.436 165.201 164.713 164.981C164.99 164.762 165.195 164.472 165.328 164.114C165.461 163.755 165.527 163.367 165.527 162.949C165.527 162.531 165.461 162.141 165.328 161.78C165.195 161.419 164.99 161.127 164.713 160.904C164.436 160.682 164.083 160.571 163.654 160.571C163.225 160.571 162.871 160.682 162.595 160.904C162.318 161.127 162.112 161.419 161.979 161.78C161.846 162.141 161.78 162.531 161.78 162.949C161.78 163.367 161.846 163.755 161.979 164.114C162.112 164.472 162.318 164.762 162.595 164.981C162.871 165.201 163.225 165.311 163.654 165.311Z" fill="#666D74"/>
<path d="M170.742 159.788V160.603H167.37V159.788H170.742ZM168.38 166.045V158.925C168.38 158.566 168.464 158.268 168.632 158.029C168.801 157.79 169.019 157.611 169.288 157.491C169.557 157.372 169.841 157.312 170.14 157.312C170.376 157.312 170.569 157.331 170.718 157.369C170.867 157.407 170.978 157.442 171.052 157.475L170.775 158.306C170.726 158.289 170.658 158.269 170.571 158.245C170.487 158.22 170.376 158.208 170.237 158.208C169.919 158.208 169.69 158.288 169.549 158.448C169.41 158.608 169.341 158.843 169.341 159.153V166.045H168.38Z" fill="#666D74"/>
<path d="M174.99 158.599V157.703H181.246V158.599H178.623V166.045H177.613V158.599H174.99Z" fill="#666D74"/>
<path d="M182.675 166.045V159.789H183.636V166.045H182.675ZM183.164 158.746C182.977 158.746 182.815 158.682 182.679 158.554C182.546 158.427 182.479 158.273 182.479 158.094C182.479 157.915 182.546 157.761 182.679 157.634C182.815 157.506 182.977 157.443 183.164 157.443C183.351 157.443 183.512 157.506 183.645 157.634C183.78 157.761 183.848 157.915 183.848 158.094C183.848 158.273 183.78 158.427 183.645 158.554C183.512 158.682 183.351 158.746 183.164 158.746Z" fill="#666D74"/>
<path d="M185.397 166.045V159.789H186.326V160.766H186.407C186.537 160.432 186.748 160.172 187.039 159.988C187.329 159.801 187.678 159.707 188.085 159.707C188.498 159.707 188.842 159.801 189.116 159.988C189.393 160.172 189.609 160.432 189.764 160.766H189.829C189.989 160.443 190.229 160.186 190.55 159.996C190.87 159.803 191.254 159.707 191.702 159.707C192.262 159.707 192.719 159.882 193.075 160.232C193.431 160.58 193.609 161.122 193.609 161.858V166.045H192.648V161.858C192.648 161.396 192.521 161.066 192.269 160.868C192.016 160.669 191.719 160.571 191.377 160.571C190.937 160.571 190.596 160.703 190.354 160.97C190.113 161.233 189.992 161.567 189.992 161.971V166.045H189.014V161.76C189.014 161.404 188.899 161.118 188.668 160.9C188.437 160.68 188.14 160.571 187.776 160.571C187.526 160.571 187.293 160.637 187.075 160.77C186.861 160.903 186.687 161.088 186.554 161.324C186.423 161.557 186.358 161.828 186.358 162.135V166.045H185.397Z" fill="#666D74"/>
<path d="M195.366 166.045V159.789H196.328V166.045H195.366ZM195.855 158.746C195.668 158.746 195.506 158.682 195.37 158.554C195.238 158.427 195.171 158.273 195.171 158.094C195.171 157.915 195.238 157.761 195.37 157.634C195.506 157.506 195.668 157.443 195.855 157.443C196.043 157.443 196.203 157.506 196.336 157.634C196.472 157.761 196.54 157.915 196.54 158.094C196.54 158.273 196.472 158.427 196.336 158.554C196.203 158.682 196.043 158.746 195.855 158.746Z" fill="#666D74"/>
<path d="M202.52 161.189L201.657 161.434C201.602 161.29 201.522 161.15 201.416 161.014C201.313 160.876 201.172 160.762 200.993 160.672C200.813 160.583 200.584 160.538 200.304 160.538C199.922 160.538 199.602 160.626 199.347 160.803C199.094 160.976 198.968 161.198 198.968 161.467C198.968 161.706 199.055 161.894 199.229 162.033C199.403 162.171 199.674 162.287 200.044 162.379L200.972 162.607C201.532 162.743 201.948 162.95 202.223 163.23C202.497 163.507 202.634 163.864 202.634 164.301C202.634 164.66 202.531 164.98 202.325 165.263C202.121 165.545 201.836 165.768 201.469 165.931C201.103 166.093 200.676 166.175 200.19 166.175C199.552 166.175 199.024 166.036 198.606 165.759C198.187 165.482 197.923 165.078 197.812 164.546L198.724 164.317C198.811 164.654 198.975 164.907 199.217 165.075C199.461 165.243 199.78 165.328 200.174 165.328C200.622 165.328 200.978 165.233 201.241 165.043C201.507 164.85 201.64 164.619 201.64 164.35C201.64 164.133 201.564 163.951 201.412 163.804C201.26 163.655 201.027 163.544 200.712 163.47L199.669 163.226C199.096 163.09 198.675 162.88 198.406 162.595C198.14 162.307 198.007 161.947 198.007 161.515C198.007 161.162 198.106 160.85 198.304 160.579C198.505 160.307 198.778 160.094 199.123 159.939C199.471 159.784 199.864 159.707 200.304 159.707C200.923 159.707 201.41 159.843 201.763 160.114C202.118 160.386 202.371 160.744 202.52 161.189ZM199.318 168.814L199.775 166.704H200.76L200.068 168.814H199.318Z" fill="#666D74"/>
<path d="M206.623 166.175C206.059 166.175 205.563 166.041 205.137 165.772C204.713 165.503 204.382 165.127 204.143 164.643C203.906 164.16 203.788 163.595 203.788 162.949C203.788 162.297 203.906 161.728 204.143 161.243C204.382 160.756 204.713 160.379 205.137 160.11C205.563 159.841 206.059 159.707 206.623 159.707C207.188 159.707 207.682 159.841 208.106 160.11C208.532 160.379 208.864 160.756 209.1 161.243C209.339 161.728 209.458 162.297 209.458 162.949C209.458 163.595 209.339 164.16 209.1 164.643C208.864 165.127 208.532 165.503 208.106 165.772C207.682 166.041 207.188 166.175 206.623 166.175ZM206.623 165.311C207.052 165.311 207.405 165.201 207.682 164.981C207.959 164.762 208.164 164.472 208.298 164.114C208.43 163.755 208.497 163.367 208.497 162.949C208.497 162.531 208.43 162.141 208.298 161.78C208.164 161.419 207.959 161.127 207.682 160.904C207.405 160.682 207.052 160.571 206.623 160.571C206.194 160.571 205.841 160.682 205.564 160.904C205.287 161.127 205.082 161.419 204.949 161.78C204.816 162.141 204.75 162.531 204.75 162.949C204.75 163.367 204.816 163.755 204.949 164.114C205.082 164.472 205.287 164.762 205.564 164.981C205.841 165.201 206.194 165.311 206.623 165.311Z" fill="#666D74"/>
<path d="M212.767 166.191C212.371 166.191 212.011 166.116 211.688 165.967C211.364 165.815 211.108 165.596 210.918 165.311C210.728 165.024 210.633 164.676 210.633 164.269C210.633 163.91 210.703 163.62 210.844 163.397C210.986 163.172 211.174 162.995 211.411 162.867C211.647 162.74 211.908 162.645 212.193 162.582C212.481 162.517 212.77 162.466 213.06 162.428C213.44 162.379 213.749 162.342 213.985 162.318C214.224 162.291 214.398 162.246 214.507 162.183C214.618 162.121 214.673 162.012 214.673 161.858V161.825C214.673 161.423 214.563 161.111 214.343 160.888C214.126 160.665 213.796 160.554 213.354 160.554C212.895 160.554 212.535 160.655 212.274 160.856C212.014 161.056 211.83 161.271 211.724 161.499L210.812 161.173C210.975 160.793 211.192 160.497 211.464 160.285C211.738 160.071 212.036 159.921 212.36 159.837C212.686 159.751 213.006 159.707 213.321 159.707C213.522 159.707 213.753 159.731 214.014 159.78C214.277 159.827 214.531 159.923 214.775 160.069C215.022 160.216 215.227 160.437 215.39 160.733C215.553 161.029 215.635 161.426 215.635 161.923V166.045H214.673V165.197H214.625C214.559 165.333 214.451 165.478 214.299 165.633C214.146 165.788 213.944 165.919 213.692 166.028C213.439 166.137 213.131 166.191 212.767 166.191ZM212.914 165.328C213.294 165.328 213.614 165.253 213.875 165.104C214.138 164.954 214.337 164.762 214.47 164.525C214.605 164.289 214.673 164.04 214.673 163.78V162.9C214.633 162.949 214.543 162.994 214.405 163.035C214.269 163.073 214.111 163.106 213.932 163.136C213.755 163.164 213.583 163.188 213.415 163.21C213.249 163.229 213.115 163.245 213.011 163.258C212.762 163.291 212.528 163.344 212.311 163.417C212.096 163.488 211.923 163.595 211.789 163.739C211.659 163.88 211.594 164.073 211.594 164.317C211.594 164.652 211.717 164.904 211.965 165.075C212.214 165.243 212.531 165.328 212.914 165.328Z" fill="#666D74"/>
<path d="M217.389 166.045V159.789H218.318V160.733H218.383C218.497 160.424 218.704 160.172 219.002 159.98C219.301 159.787 219.638 159.691 220.012 159.691C220.083 159.691 220.172 159.692 220.277 159.695C220.383 159.697 220.463 159.701 220.517 159.707V160.685C220.485 160.676 220.41 160.664 220.294 160.648C220.18 160.629 220.059 160.619 219.931 160.619C219.627 160.619 219.355 160.683 219.117 160.811C218.88 160.936 218.693 161.109 218.554 161.332C218.419 161.552 218.351 161.803 218.351 162.085V166.045H217.389Z" fill="#666D74"/>
<path d="M223.498 166.191C223.102 166.191 222.742 166.116 222.419 165.967C222.096 165.815 221.839 165.596 221.649 165.311C221.459 165.024 221.364 164.676 221.364 164.269C221.364 163.91 221.434 163.62 221.575 163.397C221.717 163.172 221.906 162.995 222.142 162.867C222.378 162.74 222.639 162.645 222.924 162.582C223.212 162.517 223.501 162.466 223.791 162.428C224.172 162.379 224.48 162.342 224.716 162.318C224.955 162.291 225.129 162.246 225.237 162.183C225.349 162.121 225.404 162.012 225.404 161.858V161.825C225.404 161.423 225.295 161.111 225.075 160.888C224.857 160.665 224.527 160.554 224.085 160.554C223.626 160.554 223.266 160.655 223.005 160.856C222.745 161.056 222.561 161.271 222.455 161.499L221.543 161.173C221.706 160.793 221.923 160.497 222.195 160.285C222.469 160.071 222.768 159.921 223.091 159.837C223.417 159.751 223.737 159.707 224.052 159.707C224.253 159.707 224.484 159.731 224.744 159.78C225.008 159.827 225.262 159.923 225.506 160.069C225.753 160.216 225.959 160.437 226.122 160.733C226.284 161.029 226.366 161.426 226.366 161.923V166.045H225.404V165.197H225.356C225.29 165.333 225.182 165.478 225.03 165.633C224.878 165.788 224.675 165.919 224.423 166.028C224.17 166.137 223.862 166.191 223.498 166.191ZM223.645 165.328C224.025 165.328 224.345 165.253 224.606 165.104C224.87 164.954 225.068 164.762 225.201 164.525C225.337 164.289 225.404 164.04 225.404 163.78V162.9C225.364 162.949 225.274 162.994 225.136 163.035C225 163.073 224.842 163.106 224.663 163.136C224.487 163.164 224.314 163.188 224.146 163.21C223.98 163.229 223.846 163.245 223.743 163.258C223.493 163.291 223.259 163.344 223.042 163.417C222.827 163.488 222.654 163.595 222.521 163.739C222.39 163.88 222.325 164.073 222.325 164.317C222.325 164.652 222.449 164.904 222.696 165.075C222.945 165.243 223.262 165.328 223.645 165.328Z" fill="#666D74"/>
<path d="M118.124 134.144C120.189 134.144 122.177 133.073 123.286 131.162C124.93 128.314 123.955 124.662 121.106 123.019L100.192 110.937C97.3432 109.293 93.692 110.268 92.0477 113.117C90.4038 115.965 91.3787 119.616 94.227 121.26L115.142 133.341C116.079 133.876 117.111 134.144 118.124 134.144Z" fill="#4284F3"/>
<path d="M159.839 122.063C161.903 122.063 163.891 120.992 165 119.081C166.644 116.232 165.67 112.581 162.821 110.937L141.906 98.856C139.058 97.2121 135.406 98.187 133.762 101.035C132.118 103.884 133.093 107.535 135.942 109.179L156.856 121.26C157.793 121.814 158.825 122.063 159.839 122.063Z" fill="#0F9D58"/>
<path d="M100.154 110.88L109.081 116.041L121.068 109.121C123.917 107.477 124.892 103.826 123.247 100.978C121.603 98.1297 117.952 97.1548 115.104 98.7987L94.189 110.956C95.986 109.943 98.2417 109.771 100.154 110.88Z" fill="#E94335"/>
<path d="M156.876 121.241L147.948 116.079L135.961 122.999C133.113 124.643 132.138 128.294 133.782 131.143C135.426 133.991 139.077 134.966 141.926 133.322L162.84 121.241C161.063 122.254 158.787 122.33 156.876 121.241Z" fill="#FABB04"/>
</g>
<defs>
<clipPath id="clip0_208_85">
<rect width="211" height="71" fill="white" transform="translate(27 98)"/>
</clipPath>
</defs>
</svg>
