<svg width="186" height="186" viewBox="0 0 186 186" fill="none" xmlns="http://www.w3.org/2000/svg">
<path d="M30.4329 88.9439C28.949 88.7835 27.5051 88.5027 26.1014 88.0214C24.9784 87.6204 23.9356 87.099 23.1335 86.2166C21.7698 84.6925 21.6896 82.9679 22.2511 81.123C22.8527 79.3583 24.1763 78.2353 25.7805 77.3931C27.0239 76.7514 28.3073 76.3102 29.6709 75.9492C29.7511 75.9492 29.7912 75.9091 29.9517 75.869C29.1094 75.5883 28.3474 75.3075 27.6255 74.9867C25.8206 74.1444 24.1763 73.0214 23.0533 71.3369C21.7698 69.4118 21.4089 67.2861 21.5693 65.0401C21.8902 60.9492 24.0158 58.0214 27.3447 55.8155C29.1495 54.6123 31.1549 53.8503 33.2805 53.5294C36.088 53.0883 38.8955 53.1685 41.6629 54.131C43.0666 54.6123 44.3902 55.3343 45.5132 56.3369C45.9944 56.738 45.9944 56.738 46.4757 56.3369C47.8394 55.2139 49.2431 54.1712 50.8474 53.5294C52.7725 52.7674 54.6576 52.607 56.5025 53.6899C58.3073 54.7728 58.9891 56.8182 58.187 58.5428C57.5453 59.9065 56.5426 60.6284 54.9784 60.6685C53.4142 60.6685 52.4116 59.8663 51.7698 58.5829C51.4891 58.0615 51.2886 57.4599 50.9276 56.9786C50.5265 56.4974 50.2458 56.4171 49.6843 56.6578C48.8821 57.0188 48.1602 57.6204 47.4784 58.1417C47.2779 58.3022 47.4383 58.4225 47.5185 58.5428C48.2003 59.5856 48.6816 60.7086 48.9624 61.9519C49.8046 65.6417 49.0025 68.9305 46.6763 71.8583C45.0319 73.9439 42.8661 75.2273 40.2592 75.869C38.0533 76.4305 35.8073 76.6712 33.5613 76.9118C32.2779 77.0321 31.0346 77.2327 29.8313 77.7139C28.7886 78.115 28.0265 79.2781 28.0265 80.4011C28.0265 81.1631 28.5078 81.8048 29.3501 82.1257C30.2725 82.4867 31.2351 82.5268 32.1977 82.607C35.687 82.9278 39.2164 82.8877 42.7458 83.1284C45.3527 83.2888 47.9196 83.6899 50.326 84.853C52.211 85.7754 53.7351 87.099 54.4971 89.1444C55.0586 90.6685 55.1388 92.1925 54.8982 93.7567C54.2565 98.3289 51.4891 101.257 47.5586 103.342C45.2324 104.545 42.7057 105.147 40.0987 105.508C37.8527 105.829 35.6067 105.909 33.3608 105.869C30.6335 105.829 27.9062 105.628 25.2592 104.746C23.2538 104.104 21.5292 103.021 20.2859 101.337C18.9624 99.5722 18.9223 97.607 19.7244 95.6016C20.5265 93.5963 22.1308 92.353 23.9757 91.3904C25.941 90.3476 28.0265 89.7059 30.1522 89.1845C30.2324 89.0642 30.3527 89.0642 30.4329 88.9439ZM38.695 89.5455C37.7725 89.5455 37.0105 89.5856 36.2485 89.6257C34.3233 89.7861 32.4383 90.1872 30.7137 91.1097C29.1495 91.9118 27.7859 92.9947 27.0239 94.6391C26.2217 96.4038 26.1816 98.1685 27.3447 99.853C28.5078 101.497 30.1121 102.46 32.0773 102.941C34.4035 103.543 36.7698 103.503 39.1362 103.182C41.4624 102.861 43.588 102.059 45.4731 100.655C46.8367 99.6524 47.9998 98.4492 48.5212 96.7647C48.8821 95.6818 48.9624 94.5589 48.5212 93.4359C47.9998 92.0722 46.9169 91.3102 45.5934 90.7487C43.3474 89.8262 40.941 89.5856 38.695 89.5455ZM40.4196 65.4011C40.4196 64.599 40.3795 63.7166 40.2993 62.8343C40.0586 60.7487 39.6174 58.7434 38.3741 56.9786C37.0506 55.0535 34.6041 54.8129 32.9196 56.4172C32.0372 57.2594 31.4757 58.2621 31.1549 59.3851C30.1522 62.5936 30.2324 65.8423 30.9543 69.1311C31.3153 70.7353 32.0372 72.1391 33.2003 73.3022C34.8046 74.8663 37.1308 74.8262 38.5747 73.2621C39.2164 72.5803 39.5372 71.738 39.818 70.8557C40.3394 69.0909 40.4196 67.3262 40.4196 65.4011Z" fill="#0C0D98"/>
<path d="M117.867 77.5535C119.431 72.9813 121.236 68.6096 122.519 64.0374C122.88 62.7139 123.241 61.4305 123.321 60.0668C123.401 58.7834 123.121 57.6203 121.957 56.8182C121.276 56.377 120.514 56.2166 119.711 56.0561C119.391 56.016 119.11 55.8957 118.829 55.7754C118.468 55.5749 118.308 55.2941 118.348 54.8529C118.388 54.4519 118.669 54.2112 119.03 54.0909C119.511 53.9305 119.992 53.9706 120.514 54.0107C122.439 54.2513 124.364 54.3315 126.329 54.3315C127.933 54.3315 129.498 54.0909 131.062 53.9305C131.623 53.8904 132.145 53.8904 132.626 54.0909C133.027 54.2513 133.227 54.5321 133.268 54.9733C133.268 55.4144 132.987 55.5749 132.666 55.7353C132.225 55.8957 131.744 56.016 131.302 56.2166C129.498 56.8984 128.254 58.1818 127.452 59.9465C125.968 63.2754 124.725 66.6845 123.522 70.0936C120.915 77.393 118.388 84.7727 115.5 91.9519C114.377 94.7192 113.174 97.4465 111.49 99.9331C109.885 102.299 107.88 104.184 105.112 105.147C102.626 106.029 100.059 106.15 97.6125 104.947C95.4066 103.864 94.2435 101.257 94.9253 99.0508C95.7275 96.3235 98.8558 94.9198 101.302 96.2032C102.425 96.7647 102.987 97.7674 103.348 98.9305C103.548 99.5321 103.629 100.134 103.909 100.695C104.35 101.658 104.872 101.898 105.875 101.537C106.957 101.176 107.679 100.414 108.401 99.6123C109.645 98.1283 110.567 96.4438 111.449 94.7192C112.131 93.4358 112.693 92.1123 113.094 90.7086C113.415 89.5856 113.415 88.5027 113.054 87.3797C112.211 84.8128 111.169 82.3663 110.126 79.9198C108.361 75.7085 106.516 71.5374 104.671 67.3663C103.388 64.4786 102.104 61.5508 100.58 58.7433C99.8184 57.2995 98.6954 56.377 97.0911 55.9759C96.8505 55.9358 96.6499 55.8556 96.4494 55.6952C96.1686 55.5348 95.9681 55.2941 96.0082 54.9733C96.0483 54.6123 96.2088 54.3717 96.5296 54.2112C97.2114 53.8904 97.9334 53.9305 98.6553 54.0107C101.984 54.4118 105.353 54.4519 108.722 54.3315C110.487 54.2513 112.211 53.9706 113.976 54.0508C114.498 54.0508 114.858 54.2513 114.979 54.6524C115.139 55.0936 114.979 55.4946 114.538 55.7754C114.096 56.0561 113.615 56.1364 113.094 56.2567C112.211 56.4572 111.53 56.9385 111.088 57.7005C110.727 58.262 110.687 58.8636 110.888 59.5053C111.65 62.1925 112.653 64.7995 113.655 67.3663C114.939 70.6952 116.383 73.9839 117.826 77.2326C117.746 77.3529 117.786 77.393 117.867 77.5535Z" fill="#0C0D98"/>
<path d="M81.7695 68.9305C78.6412 68.9305 75.5129 68.9305 72.4246 68.9305C72.184 68.9305 72.1439 69.0107 72.1038 69.2513C72.0236 71.9786 72.2642 74.6657 73.4273 77.1925C74.3097 79.1577 75.553 80.8823 77.4781 82.0053C78.8016 82.7674 80.2455 83.0481 81.7695 83.0481C85.0182 82.9679 87.6252 81.524 90.0316 79.4786C90.3925 79.1577 90.7134 78.877 91.1145 78.5962C91.5556 78.3155 91.9567 78.3155 92.3177 78.5962C92.5984 78.8369 92.6786 79.3583 92.5182 79.7994C92.3578 80.2005 92.077 80.5214 91.8364 80.8422C89.8711 83.2085 87.3444 84.8128 84.3765 85.6952C80.807 86.7379 77.1973 86.8984 73.5877 86.0561C70.2187 85.254 67.4915 83.4492 65.4059 80.6818C63.1198 77.6738 62.1572 74.2647 62.2776 70.4946C62.3578 67.5668 62.9995 64.7994 64.4433 62.2727C67.0503 57.7807 70.7802 54.7727 75.954 53.8101C78.4808 53.3289 80.9674 53.369 83.4941 54.0107C86.3417 54.7326 88.5877 56.3369 90.3123 58.7433C91.315 60.1871 92.2375 61.6711 92.799 63.3556C93.2 64.5187 93.4407 65.7219 93.4407 67.0053C93.4407 68.1684 93.0396 68.5695 91.8765 68.6497C89.0289 68.8101 86.2214 68.77 83.3738 68.8101C82.8524 68.8101 82.331 68.8101 81.8096 68.8101C81.7695 68.8502 81.7695 68.8903 81.7695 68.9305ZM77.1572 66.2433C78.922 66.2834 80.6466 66.3636 82.3711 66.123C83.8952 65.9224 84.5369 65.401 84.6572 63.877C84.8578 61.3101 84.0556 59.024 82.2508 57.139C80.446 55.254 78.0396 55.2941 76.3551 56.2567C74.9113 57.0588 74.1492 58.4224 73.5476 59.9064C72.7856 61.8315 72.5048 63.877 72.3043 65.9224C72.2642 66.123 72.3444 66.2032 72.5449 66.2032C74.1091 66.2433 75.6332 66.2433 77.1572 66.2433Z" fill="#010101"/>
<path d="M146.303 67.1257C146.263 69.893 146.463 72.5401 147.225 75.1872C147.867 77.3529 148.829 79.3182 150.394 80.9626C153.361 84.0508 158.696 83.7299 161.222 80C161.944 78.9171 162.466 77.7139 162.947 76.5107C163.107 76.0695 163.308 75.6283 163.629 75.2674C163.869 74.9866 164.15 74.7861 164.551 74.7861C165.193 74.7861 165.514 75.1872 165.514 75.869C165.514 77.1123 165.193 78.2754 164.672 79.3583C163.709 81.2433 162.466 82.9278 160.781 84.2513C159.297 85.4144 157.573 86.0561 155.688 86.3369C151.717 86.9385 147.867 86.6577 144.297 84.6123C140.447 82.4064 137.96 79.0775 136.958 74.7861C136.035 70.8556 136.156 66.9251 137.88 63.1952C140.287 58.0615 144.217 54.7326 149.872 53.6497C152.76 53.0882 155.688 53.2487 158.495 54.2112C160.661 54.9733 162.666 56.0561 164.07 57.9412C165.073 59.3048 165.394 60.8289 164.872 62.5134C164.471 63.8369 163.188 64.7995 161.784 64.9599C159.899 65.1203 158.575 64.238 157.653 62.6738C157.091 61.6711 156.771 60.5882 156.41 59.5053C156.209 58.9438 155.968 58.3823 155.728 57.8208C154.885 56.0962 153.642 55.5347 151.757 55.7754C149.832 56.016 148.629 57.2192 147.827 58.8636C147.025 60.4679 146.744 62.1925 146.543 63.9572C146.343 64.9599 146.303 66.0428 146.303 67.1257Z" fill="#010101"/>
<path d="M99.618 123.115C100.059 122.914 100.5 122.714 100.982 122.674C103.027 122.513 104.431 124.238 104.11 126.243C103.749 128.529 101.463 129.612 99.4174 128.57C99.2971 128.489 99.1768 128.449 99.0565 128.369C98.5752 128.088 98.5752 128.088 98.3345 128.61C98.2944 128.73 98.2142 128.89 98.0538 128.85C97.8934 128.81 97.8934 128.65 97.8934 128.489C97.8934 127.166 97.9335 125.842 97.9335 124.519C97.9335 123.075 97.9335 121.671 97.9335 120.227C97.9335 119.826 97.8131 119.545 97.3319 119.505C97.2115 119.505 97.011 119.465 97.0511 119.265C97.0912 119.104 97.2115 119.104 97.372 119.104C98.0137 119.104 98.6554 119.185 99.2971 119.104C99.618 119.064 99.618 119.305 99.618 119.545C99.618 120.588 99.618 121.631 99.618 122.674C99.618 122.914 99.618 122.995 99.618 123.115ZM99.4976 126.444C99.4976 126.805 99.4976 127.126 99.5779 127.487C99.6982 128.048 100.099 128.449 100.581 128.529C101.022 128.61 101.543 128.329 101.784 127.808C102.385 126.524 102.345 125.201 101.784 123.917C101.583 123.396 101.142 123.195 100.661 123.235C100.139 123.316 99.8987 123.556 99.7383 124.118C99.5377 124.88 99.5779 125.682 99.4976 126.444Z" fill="#010101"/>
<path d="M25.5802 125.481C25.2994 125.481 25.0588 125.481 24.778 125.481C24.0962 125.481 24.0962 125.481 23.8957 126.083C23.7754 126.484 23.6551 126.885 23.5347 127.246C23.3743 127.928 23.6149 128.289 24.2968 128.449C24.3369 128.449 24.4171 128.489 24.4572 128.489C24.5775 128.529 24.6978 128.529 24.6978 128.73C24.6978 128.93 24.5374 128.93 24.377 128.93C24.0561 128.93 23.7353 128.89 23.3743 128.85C22.8529 128.85 22.3315 128.81 21.8101 128.89C21.6497 128.93 21.4492 128.93 21.4091 128.73C21.369 128.529 21.5294 128.489 21.6898 128.449C22.3315 128.289 22.6123 127.807 22.8529 127.286C23.2941 126.323 23.6149 125.321 23.9759 124.318C24.6176 122.714 25.2593 121.15 25.8609 119.545C25.9412 119.385 25.9813 119.225 26.2219 119.225C26.4625 119.225 26.5428 119.345 26.5829 119.505C27.6256 121.832 28.508 124.198 29.4706 126.564C29.5909 126.885 29.7513 127.206 29.9117 127.527C30.1123 128.048 30.4732 128.369 31.0347 128.449C31.1952 128.489 31.3155 128.529 31.3155 128.69C31.2754 128.89 31.1149 128.85 30.9946 128.85C30.0321 128.77 29.1096 128.73 28.147 128.77C27.7861 128.81 27.4251 128.81 27.024 128.85C26.8636 128.85 26.7032 128.85 26.7032 128.69C26.6631 128.489 26.8636 128.489 26.9839 128.489C27.746 128.329 27.8663 128.088 27.6657 127.366C27.5053 126.765 27.3048 126.243 27.0641 125.682C26.9839 125.521 26.9037 125.441 26.7032 125.441C26.3823 125.481 25.9813 125.481 25.5802 125.481ZM25.5802 121.751C25.1791 122.794 24.8182 123.757 24.4171 124.719C24.3369 124.96 24.4973 124.92 24.6176 124.92C25.2593 124.92 25.901 124.88 26.5026 124.88C26.7433 124.88 26.8235 124.799 26.7032 124.559C26.3422 123.676 25.9813 122.754 25.5802 121.751Z" fill="#010101"/>
<path d="M40.7008 125.08C40.3399 125.922 40.019 126.684 39.6982 127.447C39.5377 127.807 39.3773 128.209 39.2169 128.57C39.1367 128.73 39.1367 128.971 38.896 128.93C38.6955 128.93 38.6554 128.73 38.6153 128.57C38.2142 127.767 37.8131 126.925 37.4522 126.123C37.0511 125.321 36.6901 124.519 36.2891 123.717C36.1688 123.436 35.9682 123.195 35.6474 123.155C35.527 123.115 35.4067 123.075 35.4468 122.914C35.4869 122.794 35.6073 122.754 35.7276 122.754C36.6099 122.834 37.4923 122.834 38.4147 122.754C38.5752 122.754 38.6955 122.794 38.7356 122.955C38.7356 123.115 38.6153 123.155 38.495 123.155C38.134 123.195 38.0137 123.396 38.1741 123.757C38.5752 124.799 39.0966 125.762 39.5778 126.845C39.9388 126.043 40.2998 125.361 40.38 124.559C40.4602 123.957 40.2597 123.396 39.6581 123.155C39.5377 123.115 39.4174 123.035 39.4976 122.874C39.5377 122.754 39.6581 122.714 39.7784 122.754C40.6206 122.834 41.4629 122.874 42.3452 122.754C42.4656 122.754 42.626 122.794 42.626 122.914C42.626 123.035 42.5458 123.075 42.4254 123.115C41.9442 123.315 41.9041 123.396 42.0645 123.877C42.4254 124.799 42.8666 125.722 43.3078 126.725C43.749 125.682 44.1099 124.639 44.4308 123.636C44.511 123.436 44.3907 123.275 44.1901 123.235C44.1099 123.195 43.9896 123.195 43.9094 123.155C43.7891 123.115 43.6688 123.075 43.7089 122.914C43.749 122.794 43.8693 122.754 43.9495 122.754C44.4709 122.834 44.9923 122.834 45.5137 122.754C45.634 122.754 45.7543 122.794 45.7543 122.914C45.7543 123.035 45.6741 123.115 45.5538 123.155C45.0725 123.315 44.872 123.717 44.7115 124.158C44.1901 125.561 43.6688 127.005 43.1474 128.409C43.0672 128.61 43.027 128.93 42.7864 128.93C42.5458 128.93 42.5057 128.65 42.4254 128.449C41.9442 127.447 41.503 126.444 41.0618 125.481C40.8613 125.401 40.7811 125.281 40.7008 125.08Z" fill="#010101"/>
<path d="M159.497 127.928C159.096 128.249 158.735 128.529 158.334 128.73C157.452 129.171 156.329 128.971 155.888 128.249C155.647 127.888 155.567 127.527 155.567 127.126C155.567 126.083 155.567 125 155.527 123.957C155.527 123.556 155.447 123.235 154.925 123.195C154.805 123.195 154.685 123.115 154.725 122.995C154.725 122.874 154.845 122.874 154.965 122.874C155.607 122.874 156.289 122.834 156.931 122.834C157.171 122.834 157.091 123.035 157.091 123.155C157.091 124.158 157.091 125.201 157.131 126.203C157.131 126.604 157.131 127.045 157.211 127.447C157.332 128.249 158.013 128.529 158.655 128.048C159.096 127.727 159.377 127.286 159.417 126.725C159.497 125.762 159.497 124.84 159.497 123.877C159.497 123.476 159.377 123.195 158.936 123.235C158.816 123.235 158.575 123.235 158.615 122.995C158.655 122.794 158.856 122.834 158.976 122.834C159.618 122.794 160.259 122.874 160.901 122.794C161.102 122.754 161.062 122.914 161.062 122.995C161.062 123.396 161.102 123.797 161.102 124.198C161.102 125.441 161.142 126.644 161.142 127.888C161.142 128.209 161.222 128.409 161.543 128.449C161.663 128.449 161.864 128.489 161.824 128.69C161.824 128.93 161.623 128.85 161.463 128.85C160.941 128.85 160.42 128.85 159.898 128.85C159.578 128.85 159.457 128.73 159.497 128.409C159.457 128.249 159.457 128.088 159.497 127.928Z" fill="#0C0D98"/>
<path d="M150.594 122.674C151.757 122.674 152.719 123.035 153.361 124.037C154.043 125.08 153.963 126.203 153.361 127.286C152.358 129.051 149.952 129.532 148.348 128.329C147.305 127.527 146.984 126.444 147.225 125.201C147.425 123.957 148.227 123.195 149.431 122.834C149.792 122.714 150.193 122.674 150.594 122.674ZM149.11 125.642C149.11 126.324 149.19 127.005 149.471 127.647C149.711 128.209 150.153 128.529 150.594 128.489C151.195 128.449 151.516 128.088 151.677 127.567C152.078 126.283 151.957 125.04 151.396 123.797C151.195 123.356 150.875 123.075 150.393 123.075C149.872 123.075 149.591 123.436 149.391 123.877C149.11 124.479 149.07 125.08 149.11 125.642Z" fill="#0C0D98"/>
<path d="M72.4252 128.971C70.821 128.971 69.5776 128.128 69.2167 126.925C68.5349 124.719 70.099 122.674 72.5055 122.714C73.6686 122.714 74.6712 123.115 75.3129 124.158C76.3958 125.963 75.2728 128.449 73.2274 128.89C72.8664 128.93 72.5857 128.971 72.4252 128.971ZM73.7488 126.203C73.7488 125.361 73.6284 124.559 73.2675 123.837C73.0669 123.436 72.7461 123.115 72.2247 123.115C71.7434 123.115 71.4226 123.436 71.2621 123.877C70.7809 125.241 70.821 126.564 71.4627 127.888C71.6632 128.289 72.0242 128.529 72.4653 128.529C72.9466 128.529 73.2675 128.249 73.468 127.807C73.7087 127.246 73.7889 126.725 73.7488 126.203Z" fill="#010101"/>
<path d="M65.0452 125.802C65.0452 125.201 65.0452 124.599 65.0452 124.037C65.0452 123.676 65.0051 123.476 64.604 123.556C64.5238 123.556 64.4436 123.556 64.3634 123.556C64.2431 123.516 64.0024 123.596 64.0024 123.356C64.0024 123.155 64.0425 122.874 64.3233 122.874C64.965 122.914 65.0853 122.594 65.1254 121.992C65.2057 120.869 65.6869 119.947 66.8099 119.505C67.6121 119.185 68.4543 119.144 69.2966 119.385C69.4971 119.425 69.6575 119.545 69.7778 119.666C70.1388 120.027 70.219 120.348 69.9383 120.668C69.6976 120.949 69.1762 120.989 68.8153 120.709C68.6147 120.548 68.4543 120.348 68.334 120.107C68.1736 119.826 67.973 119.586 67.572 119.626C67.1709 119.706 66.9704 119.987 66.85 120.348C66.6896 121.07 66.6896 121.832 66.6896 122.553C66.6896 122.754 66.8099 122.754 66.9302 122.754C67.2511 122.754 67.572 122.754 67.9329 122.794C68.0532 122.794 68.2939 122.794 68.2538 122.995C68.2137 123.195 68.2137 123.476 67.8928 123.476C67.572 123.476 67.2912 123.516 66.9704 123.516C66.7297 123.516 66.6896 123.596 66.6896 123.797C66.6896 124.96 66.6495 126.123 66.6896 127.246C66.6896 128.128 66.9302 128.369 67.6522 128.489C67.7725 128.489 67.9329 128.529 67.8928 128.69C67.8928 128.89 67.6923 128.85 67.572 128.85C66.5292 128.77 65.4463 128.77 64.4035 128.85C64.2832 128.85 64.0827 128.89 64.0425 128.69C64.0024 128.489 64.203 128.449 64.3233 128.409C64.7645 128.329 64.9249 128.048 64.9249 127.607C64.9249 126.965 64.9249 126.324 64.9249 125.722C65.0051 125.802 65.0452 125.802 65.0452 125.802Z" fill="#010101"/>
<path d="M56.9039 127.286C57.305 126.163 57.7863 125.12 57.9066 123.997C57.9467 123.516 57.8264 123.356 57.305 123.195C57.1847 123.155 56.944 123.155 56.9841 122.955C57.0243 122.714 57.2248 122.754 57.3852 122.794C58.067 122.874 58.7087 122.874 59.3906 122.794C59.5109 122.794 59.7114 122.714 59.7515 122.955C59.7916 123.155 59.5911 123.155 59.4708 123.235C59.0697 123.396 58.8291 123.676 58.6686 124.037C57.9868 125.602 57.5055 127.246 56.9039 128.85C56.5831 129.652 56.3023 130.455 55.9013 131.176C55.5002 131.898 54.9788 132.5 54.0964 132.66C53.2943 132.821 52.6125 132.46 52.5323 131.818C52.4521 131.377 52.7328 130.936 53.1339 130.815C53.5751 130.695 53.936 130.896 54.1366 131.377C54.3772 132.019 54.6579 132.059 55.0991 131.497C55.5002 131.016 55.7809 130.455 55.9815 129.893C56.0617 129.612 56.0617 129.372 55.9815 129.091C55.2997 127.286 54.5376 125.521 53.6954 123.837C53.5751 123.556 53.3745 123.356 53.0537 123.235C52.9333 123.195 52.7328 123.155 52.813 122.995C52.8531 122.834 53.0136 122.834 53.174 122.834C53.5751 122.874 54.0162 122.874 54.4173 122.914C54.9788 122.914 55.5002 122.914 56.0617 122.834C56.182 122.834 56.3825 122.794 56.4226 122.955C56.4628 123.155 56.3023 123.195 56.1419 123.235C55.6606 123.436 55.5403 123.596 55.7007 124.118C55.9414 125.16 56.3825 126.163 56.9039 127.286Z" fill="#010101"/>
<path d="M143.655 127.246C144.016 126.203 144.417 125.321 144.617 124.318C144.778 123.556 144.698 123.396 143.976 123.155C143.855 123.115 143.775 123.035 143.735 122.955C143.735 122.834 143.855 122.754 143.976 122.794C144.778 122.914 145.54 122.794 146.342 122.834C146.422 122.834 146.502 122.874 146.543 122.914C146.583 122.995 146.502 123.035 146.462 123.035C145.179 123.596 145.139 124.92 144.698 126.003C144.056 127.567 143.615 129.171 142.893 130.695C142.572 131.377 142.211 131.979 141.569 132.38C141.048 132.701 140.486 132.781 139.925 132.58C139.444 132.42 139.163 131.898 139.283 131.417C139.403 130.976 139.764 130.735 140.246 130.775C140.647 130.815 140.807 131.096 140.887 131.417C141.088 131.938 141.289 132.019 141.69 131.618C142.251 131.056 142.572 130.374 142.772 129.612C142.813 129.412 142.772 129.211 142.692 129.051C142.01 127.286 141.248 125.521 140.406 123.797C140.246 123.516 140.085 123.275 139.724 123.155C139.604 123.115 139.444 123.075 139.484 122.914C139.524 122.754 139.684 122.714 139.805 122.714C140.246 122.754 140.727 122.754 141.168 122.794C141.69 122.794 142.211 122.794 142.732 122.714C142.853 122.714 143.053 122.674 143.053 122.874C143.093 123.035 142.933 123.075 142.813 123.155C142.251 123.356 142.211 123.476 142.371 124.078C142.732 125.16 143.174 126.163 143.655 127.246Z" fill="#0C0D98"/>
<path d="M49.5245 128.209C49.1234 128.57 48.7223 128.85 48.201 128.971C47.3186 129.171 46.5967 128.81 46.356 128.088C46.0753 127.326 46.4363 126.404 47.1983 126.043C47.7197 125.802 48.2411 125.602 48.7625 125.401C49.4844 125.12 49.7651 124.639 49.6448 123.877C49.5646 123.436 49.2838 123.155 48.8828 123.115C48.4416 123.075 48.2812 123.235 48.1207 123.757C48.0004 124.198 47.84 124.599 47.3186 124.679C46.7972 124.759 46.4363 124.358 46.5566 123.837C46.6368 123.436 46.8774 123.155 47.2384 123.035C48.2812 122.594 49.3239 122.553 50.4068 122.955C51.0084 123.195 51.2892 123.596 51.2892 124.238C51.2892 125.12 51.2892 126.003 51.2892 126.885C51.2892 127.126 51.2892 127.366 51.3293 127.567C51.4095 128.289 51.4095 128.289 52.1314 128.409C52.2117 128.409 52.2919 128.409 52.332 128.489C52.3721 128.61 52.2919 128.69 52.2117 128.73C51.4897 128.971 50.7277 129.131 49.9657 128.93C49.6448 128.85 49.6047 128.529 49.5245 128.209ZM49.6047 125.441C49.1635 125.682 48.7625 125.922 48.4015 126.163C47.8801 126.524 47.6796 127.126 47.9603 127.727C48.1207 128.088 48.3614 128.209 48.7223 128.128C49.1635 128.088 49.5245 127.687 49.6448 127.126C49.725 126.604 49.6849 126.003 49.6047 125.441Z" fill="#010101"/>
<path d="M89.8316 128.209C89.4305 128.529 89.0294 128.85 88.5481 128.93C87.6257 129.131 86.9438 128.81 86.7032 128.048C86.4225 127.286 86.7834 126.364 87.5455 126.003C88.0668 125.722 88.6684 125.561 89.2299 125.321C89.9118 125.04 90.1925 124.398 89.9519 123.717C89.8316 123.356 89.5909 123.115 89.1497 123.115C88.7487 123.115 88.5481 123.356 88.4278 123.717C88.3877 123.917 88.3476 124.158 88.1872 124.318C87.9465 124.639 87.4652 124.759 87.1043 124.559C86.8235 124.398 86.7433 123.997 86.9037 123.596C87.0241 123.315 87.2647 123.115 87.5455 122.995C88.508 122.594 89.4706 122.553 90.4733 122.834C91.1551 123.035 91.516 123.436 91.5562 124.198C91.5963 125.321 91.516 126.484 91.5963 127.607C91.6364 128.249 91.7166 128.329 92.3182 128.369C92.3984 128.369 92.5588 128.329 92.5588 128.489C92.5588 128.61 92.4786 128.69 92.3583 128.73C91.6765 128.93 90.9545 129.051 90.2326 128.93C89.9519 128.89 89.9519 128.489 89.8316 128.209ZM89.9118 125.441C89.5107 125.682 89.1497 125.882 88.7888 126.123C88.3075 126.404 88.1471 126.765 88.1872 127.326C88.2273 127.687 88.3075 128.008 88.6685 128.168C88.9893 128.289 89.3904 128.128 89.6711 127.807C89.8316 127.647 89.9118 127.447 89.9519 127.206C90.0321 126.604 89.992 126.003 89.9118 125.441Z" fill="#010101"/>
<path d="M109.203 125.642C108.602 125.642 108.04 125.642 107.439 125.642C107.198 125.642 107.158 125.722 107.158 125.922C107.198 126.203 107.198 126.484 107.278 126.765C107.679 128.249 108.923 128.73 110.246 127.848C110.406 127.767 110.527 127.647 110.687 127.527C110.767 127.447 110.888 127.366 111.008 127.447C111.128 127.567 111.048 127.687 110.968 127.807C110.647 128.209 110.246 128.529 109.765 128.69C108.602 129.091 107.439 129.131 106.436 128.329C104.952 127.166 104.952 124.759 106.396 123.476C107.398 122.553 108.963 122.353 110.005 123.035C110.727 123.516 111.128 124.198 111.209 125.08C111.249 125.401 111.128 125.521 110.808 125.521C110.286 125.521 109.725 125.521 109.203 125.521C109.203 125.602 109.203 125.602 109.203 125.642ZM108.201 125.12C108.361 125.12 108.521 125.12 108.682 125.12C109.564 125.12 109.805 124.799 109.484 123.917C109.404 123.757 109.324 123.556 109.203 123.436C108.722 122.914 108.04 122.995 107.679 123.556C107.479 123.877 107.398 124.278 107.318 124.639C107.238 125 107.318 125.16 107.719 125.12C107.84 125.08 108.04 125.12 108.201 125.12Z" fill="#010101"/>
<path d="M127.211 125.642C126.65 125.642 126.048 125.642 125.487 125.642C125.366 125.642 125.286 125.602 125.246 125.802C125.246 126.644 125.406 127.406 126.048 127.968C126.65 128.489 127.532 128.449 128.334 127.888C128.455 127.807 128.575 127.687 128.735 127.567C128.856 127.487 128.976 127.366 129.096 127.487C129.257 127.647 129.096 127.767 129.016 127.888C128.695 128.249 128.334 128.529 127.893 128.69C126.73 129.091 125.527 129.171 124.484 128.369C123.04 127.246 123 124.88 124.364 123.596C125.406 122.594 126.93 122.353 128.053 123.075C128.775 123.516 129.176 124.238 129.297 125.12C129.337 125.401 129.217 125.602 128.896 125.561C128.334 125.561 127.773 125.561 127.211 125.561C127.211 125.602 127.211 125.602 127.211 125.642ZM126.249 125.12C126.409 125.12 126.57 125.12 126.69 125.12C127.612 125.12 127.853 124.719 127.492 123.837C127.412 123.676 127.332 123.516 127.211 123.396C126.77 122.955 126.128 122.995 125.767 123.516C125.527 123.837 125.447 124.198 125.366 124.559C125.286 125.241 125.206 125.16 125.848 125.12C125.968 125.12 126.088 125.12 126.249 125.12Z" fill="#010101"/>
<path d="M132.465 124.037C132.706 123.596 132.947 123.315 133.227 123.075C133.628 122.714 134.15 122.634 134.671 122.714C135.393 122.874 135.714 123.717 135.313 124.318C135.032 124.719 134.471 124.759 134.15 124.358C134.029 124.198 133.909 124.037 133.789 123.837C133.588 123.556 133.388 123.556 133.147 123.797C132.826 124.118 132.706 124.519 132.626 124.96C132.505 126.003 132.545 127.045 132.626 128.088C132.666 128.369 132.826 128.489 133.067 128.529C133.187 128.529 133.348 128.57 133.468 128.57C133.548 128.57 133.588 128.65 133.588 128.73C133.588 128.81 133.548 128.89 133.428 128.89C133.308 128.89 133.227 128.93 133.107 128.93C132.185 128.85 131.262 128.85 130.34 128.93C130.179 128.93 129.939 128.971 129.898 128.73C129.858 128.489 130.099 128.489 130.259 128.489C130.62 128.449 130.821 128.289 130.821 127.928C130.821 126.644 130.901 125.361 130.781 124.037C130.741 123.436 130.66 123.396 130.099 123.235C129.979 123.195 129.778 123.195 129.818 122.995C129.818 122.794 129.979 122.834 130.139 122.794C130.741 122.754 131.382 122.714 131.984 122.634C132.305 122.594 132.385 122.714 132.385 122.995C132.385 123.315 132.425 123.636 132.465 124.037Z" fill="#010101"/>
<path d="M79.0024 123.917C79.2831 123.636 79.4436 123.316 79.7243 123.115C80.2056 122.714 80.7671 122.553 81.3687 122.754C82.0104 122.995 82.2109 123.676 81.8901 124.238C81.6093 124.679 81.0077 124.719 80.6869 124.278C80.5666 124.118 80.4864 123.957 80.366 123.797C80.1254 123.476 80.0051 123.476 79.7243 123.757C79.3232 124.158 79.243 124.679 79.2029 125.241C79.1227 126.083 79.1628 126.925 79.2029 127.807C79.243 128.369 79.2831 128.409 79.8446 128.489C80.0051 128.529 80.2457 128.449 80.2056 128.69C80.2056 128.89 79.965 128.89 79.8045 128.89C78.842 128.81 77.8393 128.85 76.8767 128.89C76.7564 128.89 76.5559 128.93 76.5158 128.69C76.5158 128.489 76.6762 128.489 76.7965 128.489C77.3179 128.489 77.4382 128.168 77.4382 127.727C77.4783 126.444 77.4783 125.201 77.3981 123.957C77.358 123.556 77.1976 123.275 76.7564 123.235C76.6361 123.235 76.4355 123.235 76.4355 123.035C76.4355 122.794 76.6361 122.834 76.7965 122.834C77.4382 122.794 78.0799 122.754 78.7216 122.674C78.9222 122.634 79.0024 122.714 79.0024 122.955C79.0024 123.275 79.0024 123.596 79.0024 123.917Z" fill="#010101"/>
<path d="M118.709 125.441C118.709 124.96 118.669 124.479 118.709 123.997C118.749 123.556 118.588 123.476 118.187 123.516C118.027 123.556 117.866 123.516 117.706 123.476C117.586 123.436 117.425 123.436 117.425 123.275C117.425 123.155 117.546 123.115 117.666 123.075C117.907 122.995 118.187 122.914 118.428 122.794C119.15 122.473 119.551 121.872 119.832 121.19C119.912 121.029 119.912 120.749 120.153 120.789C120.433 120.829 120.313 121.11 120.313 121.31C120.313 121.711 120.313 122.072 120.313 122.473C120.313 122.674 120.353 122.754 120.594 122.754C121.035 122.754 121.476 122.754 121.917 122.754C122.038 122.754 122.318 122.634 122.278 122.955C122.238 123.195 122.238 123.436 121.877 123.436C121.436 123.436 120.995 123.516 120.554 123.516C120.393 123.516 120.313 123.556 120.313 123.757C120.313 124.84 120.273 125.922 120.233 127.005C120.233 127.166 120.273 127.366 120.273 127.527C120.393 128.168 120.915 128.489 121.556 128.249C121.757 128.168 121.957 128.048 122.158 127.968C122.238 127.928 122.318 127.928 122.399 128.008C122.439 128.088 122.399 128.168 122.358 128.249C122.198 128.449 121.997 128.57 121.757 128.69C121.035 129.091 120.313 129.091 119.551 128.85C118.989 128.65 118.749 128.209 118.629 127.647C118.588 126.885 118.669 126.163 118.709 125.441Z" fill="#010101"/>
<path d="M113.133 125.521C113.133 124.96 113.093 124.438 113.133 123.877C113.133 123.556 113.053 123.476 112.732 123.516C112.532 123.556 112.331 123.516 112.171 123.516C112.05 123.516 111.89 123.476 111.89 123.316C111.85 123.155 112.01 123.155 112.131 123.075C112.411 122.955 112.692 122.914 112.973 122.754C113.575 122.433 113.976 121.952 114.216 121.35C114.256 121.23 114.296 121.15 114.337 121.07C114.417 120.949 114.457 120.789 114.617 120.829C114.778 120.869 114.778 121.029 114.778 121.19C114.778 121.631 114.778 122.072 114.778 122.513C114.778 122.754 114.858 122.834 115.059 122.794C115.5 122.794 115.901 122.794 116.342 122.794C116.462 122.794 116.703 122.714 116.703 122.995C116.703 123.235 116.623 123.436 116.302 123.476C115.861 123.476 115.46 123.556 115.018 123.556C114.818 123.556 114.738 123.596 114.738 123.837C114.738 124.96 114.698 126.083 114.698 127.206C114.698 128.249 115.339 128.61 116.302 128.209C116.462 128.128 116.703 127.848 116.823 128.088C116.944 128.329 116.623 128.449 116.462 128.57C115.7 129.091 114.898 129.171 114.056 128.89C113.294 128.65 113.093 128.008 113.053 127.326C113.093 126.684 113.133 126.123 113.133 125.521Z" fill="#010101"/>
<path d="M163.147 120.588C163.147 119.866 163.668 119.345 164.31 119.385C164.952 119.425 165.433 119.947 165.353 120.668C165.233 121.631 165.072 122.634 164.912 123.596C164.791 124.398 164.631 125.201 164.511 126.043C164.47 126.203 164.47 126.324 164.27 126.324C164.069 126.324 164.029 126.203 163.989 126.043C163.708 124.278 163.428 122.473 163.147 120.709C163.147 120.668 163.147 120.628 163.147 120.588Z" fill="#010101"/>
<path d="M164.27 127.005C164.832 127.005 165.233 127.447 165.233 128.008C165.233 128.57 164.792 128.971 164.27 128.971C163.709 128.971 163.308 128.529 163.308 127.968C163.308 127.447 163.749 127.005 164.27 127.005Z" fill="#010101"/>
</svg>
