<svg width="266" height="266" viewBox="0 0 266 266" fill="none" xmlns="http://www.w3.org/2000/svg">
<path d="M70.4329 128.944C68.949 128.783 67.5051 128.503 66.1014 128.021C64.9784 127.62 63.9356 127.099 63.1335 126.217C61.7698 124.692 61.6896 122.968 62.2511 121.123C62.8527 119.358 64.1763 118.235 65.7805 117.393C67.0239 116.751 68.3073 116.31 69.6709 115.949C69.7511 115.949 69.7912 115.909 69.9517 115.869C69.1094 115.588 68.3474 115.307 67.6255 114.987C65.8206 114.144 64.1763 113.021 63.0533 111.337C61.7698 109.412 61.4089 107.286 61.5693 105.04C61.8902 100.949 64.0158 98.0214 67.3447 95.8155C69.1495 94.6123 71.1549 93.8503 73.2805 93.5294C76.088 93.0883 78.8955 93.1685 81.6629 94.131C83.0666 94.6123 84.3902 95.3343 85.5132 96.3369C85.9944 96.738 85.9944 96.738 86.4757 96.3369C87.8394 95.2139 89.2431 94.1712 90.8474 93.5294C92.7725 92.7674 94.6576 92.607 96.5025 93.6899C98.3073 94.7728 98.9891 96.8182 98.187 98.5428C97.5453 99.9065 96.5426 100.628 94.9784 100.668C93.4142 100.668 92.4116 99.8663 91.7698 98.5829C91.4891 98.0615 91.2886 97.4599 90.9276 96.9786C90.5265 96.4974 90.2458 96.4171 89.6843 96.6578C88.8821 97.0188 88.1602 97.6204 87.4784 98.1417C87.2779 98.3022 87.4383 98.4225 87.5185 98.5428C88.2003 99.5856 88.6816 100.709 88.9624 101.952C89.8046 105.642 89.0025 108.93 86.6763 111.858C85.0319 113.944 82.8661 115.227 80.2592 115.869C78.0533 116.43 75.8073 116.671 73.5613 116.912C72.2779 117.032 71.0346 117.233 69.8313 117.714C68.7886 118.115 68.0265 119.278 68.0265 120.401C68.0265 121.163 68.5078 121.805 69.3501 122.126C70.2725 122.487 71.2351 122.527 72.1977 122.607C75.687 122.928 79.2164 122.888 82.7458 123.128C85.3527 123.289 87.9196 123.69 90.326 124.853C92.211 125.775 93.7351 127.099 94.4971 129.144C95.0586 130.668 95.1388 132.192 94.8982 133.757C94.2565 138.329 91.4891 141.257 87.5586 143.342C85.2324 144.545 82.7057 145.147 80.0987 145.508C77.8527 145.829 75.6067 145.909 73.3608 145.869C70.6335 145.829 67.9062 145.628 65.2592 144.746C63.2538 144.104 61.5292 143.021 60.2859 141.337C58.9624 139.572 58.9223 137.607 59.7244 135.602C60.5265 133.596 62.1308 132.353 63.9757 131.39C65.941 130.348 68.0265 129.706 70.1522 129.184C70.2324 129.064 70.3527 129.064 70.4329 128.944ZM78.695 129.545C77.7725 129.545 77.0105 129.586 76.2485 129.626C74.3233 129.786 72.4383 130.187 70.7137 131.11C69.1495 131.912 67.7859 132.995 67.0239 134.639C66.2217 136.404 66.1816 138.168 67.3447 139.853C68.5078 141.497 70.1121 142.46 72.0773 142.941C74.4035 143.543 76.7698 143.503 79.1362 143.182C81.4624 142.861 83.588 142.059 85.4731 140.655C86.8367 139.652 87.9998 138.449 88.5212 136.765C88.8821 135.682 88.9624 134.559 88.5212 133.436C87.9998 132.072 86.9169 131.31 85.5934 130.749C83.3474 129.826 80.941 129.586 78.695 129.545ZM80.4196 105.401C80.4196 104.599 80.3795 103.717 80.2993 102.834C80.0586 100.749 79.6174 98.7434 78.3741 96.9786C77.0506 95.0535 74.6041 94.8129 72.9196 96.4172C72.0372 97.2594 71.4757 98.2621 71.1549 99.3851C70.1522 102.594 70.2324 105.842 70.9543 109.131C71.3153 110.735 72.0372 112.139 73.2003 113.302C74.8046 114.866 77.1308 114.826 78.5747 113.262C79.2164 112.58 79.5372 111.738 79.818 110.856C80.3394 109.091 80.4196 107.326 80.4196 105.401Z" fill="#0C0D98"/>
<path d="M157.867 117.553C159.431 112.981 161.236 108.61 162.519 104.037C162.88 102.714 163.241 101.43 163.321 100.067C163.401 98.7834 163.121 97.6203 161.957 96.8182C161.276 96.377 160.514 96.2166 159.711 96.0561C159.391 96.016 159.11 95.8957 158.829 95.7754C158.468 95.5749 158.308 95.2941 158.348 94.8529C158.388 94.4519 158.669 94.2112 159.03 94.0909C159.511 93.9305 159.992 93.9706 160.514 94.0107C162.439 94.2513 164.364 94.3315 166.329 94.3315C167.933 94.3315 169.498 94.0909 171.062 93.9305C171.623 93.8904 172.145 93.8904 172.626 94.0909C173.027 94.2513 173.227 94.5321 173.268 94.9733C173.268 95.4144 172.987 95.5749 172.666 95.7353C172.225 95.8957 171.744 96.016 171.302 96.2166C169.498 96.8984 168.254 98.1818 167.452 99.9465C165.968 103.275 164.725 106.684 163.522 110.094C160.915 117.393 158.388 124.773 155.5 131.952C154.377 134.719 153.174 137.446 151.49 139.933C149.885 142.299 147.88 144.184 145.112 145.147C142.626 146.029 140.059 146.15 137.613 144.947C135.407 143.864 134.244 141.257 134.925 139.051C135.728 136.323 138.856 134.92 141.302 136.203C142.425 136.765 142.987 137.767 143.348 138.93C143.548 139.532 143.629 140.134 143.909 140.695C144.35 141.658 144.872 141.898 145.875 141.537C146.957 141.176 147.679 140.414 148.401 139.612C149.645 138.128 150.567 136.444 151.449 134.719C152.131 133.436 152.693 132.112 153.094 130.709C153.415 129.586 153.415 128.503 153.054 127.38C152.211 124.813 151.169 122.366 150.126 119.92C148.361 115.708 146.516 111.537 144.671 107.366C143.388 104.479 142.104 101.551 140.58 98.7433C139.818 97.2995 138.695 96.377 137.091 95.9759C136.851 95.9358 136.65 95.8556 136.449 95.6952C136.169 95.5348 135.968 95.2941 136.008 94.9733C136.048 94.6123 136.209 94.3717 136.53 94.2112C137.211 93.8904 137.933 93.9305 138.655 94.0107C141.984 94.4118 145.353 94.4519 148.722 94.3315C150.487 94.2513 152.211 93.9706 153.976 94.0508C154.498 94.0508 154.858 94.2513 154.979 94.6524C155.139 95.0936 154.979 95.4946 154.538 95.7754C154.096 96.0561 153.615 96.1364 153.094 96.2567C152.211 96.4572 151.53 96.9385 151.088 97.7005C150.727 98.262 150.687 98.8636 150.888 99.5053C151.65 102.192 152.653 104.8 153.655 107.366C154.939 110.695 156.383 113.984 157.826 117.233C157.746 117.353 157.786 117.393 157.867 117.553Z" fill="#0C0D98"/>
<path d="M121.769 108.93C118.641 108.93 115.513 108.93 112.425 108.93C112.184 108.93 112.144 109.011 112.104 109.251C112.024 111.979 112.264 114.666 113.427 117.192C114.31 119.158 115.553 120.882 117.478 122.005C118.802 122.767 120.245 123.048 121.769 123.048C125.018 122.968 127.625 121.524 130.032 119.479C130.392 119.158 130.713 118.877 131.114 118.596C131.556 118.315 131.957 118.315 132.318 118.596C132.598 118.837 132.679 119.358 132.518 119.799C132.358 120.2 132.077 120.521 131.836 120.842C129.871 123.208 127.344 124.813 124.376 125.695C120.807 126.738 117.197 126.898 113.588 126.056C110.219 125.254 107.491 123.449 105.406 120.682C103.12 117.674 102.157 114.265 102.278 110.495C102.358 107.567 102.999 104.799 104.443 102.273C107.05 97.7807 110.78 94.7727 115.954 93.8101C118.481 93.3289 120.967 93.369 123.494 94.0107C126.342 94.7326 128.588 96.3369 130.312 98.7433C131.315 100.187 132.237 101.671 132.799 103.356C133.2 104.519 133.441 105.722 133.441 107.005C133.441 108.168 133.04 108.569 131.876 108.65C129.029 108.81 126.221 108.77 123.374 108.81C122.852 108.81 122.331 108.81 121.81 108.81C121.769 108.85 121.769 108.89 121.769 108.93ZM117.157 106.243C118.922 106.283 120.647 106.364 122.371 106.123C123.895 105.922 124.537 105.401 124.657 103.877C124.858 101.31 124.056 99.024 122.251 97.139C120.446 95.254 118.04 95.2941 116.355 96.2567C114.911 97.0588 114.149 98.4224 113.548 99.9064C112.786 101.831 112.505 103.877 112.304 105.922C112.264 106.123 112.344 106.203 112.545 106.203C114.109 106.243 115.633 106.243 117.157 106.243Z" fill="#010101"/>
<path d="M186.303 107.126C186.263 109.893 186.463 112.54 187.225 115.187C187.867 117.353 188.829 119.318 190.394 120.963C193.361 124.051 198.696 123.73 201.222 120C201.944 118.917 202.466 117.714 202.947 116.511C203.107 116.069 203.308 115.628 203.629 115.267C203.869 114.987 204.15 114.786 204.551 114.786C205.193 114.786 205.514 115.187 205.514 115.869C205.514 117.112 205.193 118.275 204.672 119.358C203.709 121.243 202.466 122.928 200.781 124.251C199.297 125.414 197.573 126.056 195.688 126.337C191.717 126.938 187.867 126.658 184.297 124.612C180.447 122.406 177.96 119.077 176.958 114.786C176.035 110.856 176.156 106.925 177.88 103.195C180.287 98.0615 184.217 94.7326 189.872 93.6497C192.76 93.0882 195.688 93.2487 198.495 94.2112C200.661 94.9733 202.666 96.0561 204.07 97.9412C205.073 99.3048 205.394 100.829 204.872 102.513C204.471 103.837 203.188 104.799 201.784 104.96C199.899 105.12 198.575 104.238 197.653 102.674C197.091 101.671 196.771 100.588 196.41 99.5053C196.209 98.9438 195.968 98.3823 195.728 97.8208C194.885 96.0962 193.642 95.5347 191.757 95.7754C189.832 96.016 188.629 97.2192 187.827 98.8636C187.025 100.468 186.744 102.192 186.543 103.957C186.343 104.96 186.303 106.043 186.303 107.126Z" fill="#010101"/>
<path d="M139.618 163.115C140.059 162.914 140.5 162.714 140.982 162.674C143.027 162.513 144.431 164.238 144.11 166.243C143.749 168.529 141.463 169.612 139.417 168.57C139.297 168.489 139.177 168.449 139.057 168.369C138.575 168.088 138.575 168.088 138.335 168.61C138.294 168.73 138.214 168.89 138.054 168.85C137.893 168.81 137.893 168.65 137.893 168.489C137.893 167.166 137.934 165.842 137.934 164.519C137.934 163.075 137.934 161.671 137.934 160.227C137.934 159.826 137.813 159.545 137.332 159.505C137.212 159.505 137.011 159.465 137.051 159.265C137.091 159.104 137.212 159.104 137.372 159.104C138.014 159.104 138.655 159.185 139.297 159.104C139.618 159.064 139.618 159.305 139.618 159.545C139.618 160.588 139.618 161.631 139.618 162.674C139.618 162.914 139.618 162.995 139.618 163.115ZM139.498 166.444C139.498 166.805 139.498 167.126 139.578 167.487C139.698 168.048 140.099 168.449 140.581 168.529C141.022 168.61 141.543 168.329 141.784 167.808C142.385 166.524 142.345 165.201 141.784 163.917C141.583 163.396 141.142 163.195 140.661 163.235C140.139 163.316 139.899 163.556 139.738 164.118C139.538 164.88 139.578 165.682 139.498 166.444Z" fill="#010101"/>
<path d="M65.5802 165.481C65.2994 165.481 65.0588 165.481 64.778 165.481C64.0962 165.481 64.0962 165.481 63.8957 166.083C63.7754 166.484 63.6551 166.885 63.5347 167.246C63.3743 167.928 63.6149 168.289 64.2968 168.449C64.3369 168.449 64.4171 168.489 64.4572 168.489C64.5775 168.529 64.6978 168.529 64.6978 168.73C64.6978 168.93 64.5374 168.93 64.377 168.93C64.0561 168.93 63.7353 168.89 63.3743 168.85C62.8529 168.85 62.3315 168.81 61.8101 168.89C61.6497 168.93 61.4492 168.93 61.4091 168.73C61.369 168.529 61.5294 168.489 61.6898 168.449C62.3315 168.289 62.6123 167.807 62.8529 167.286C63.2941 166.323 63.6149 165.321 63.9759 164.318C64.6176 162.714 65.2593 161.15 65.8609 159.545C65.9412 159.385 65.9813 159.225 66.2219 159.225C66.4625 159.225 66.5428 159.345 66.5829 159.505C67.6256 161.832 68.508 164.198 69.4706 166.564C69.5909 166.885 69.7513 167.206 69.9117 167.527C70.1123 168.048 70.4732 168.369 71.0347 168.449C71.1952 168.489 71.3155 168.529 71.3155 168.69C71.2754 168.89 71.1149 168.85 70.9946 168.85C70.0321 168.77 69.1096 168.73 68.147 168.77C67.7861 168.81 67.4251 168.81 67.024 168.85C66.8636 168.85 66.7032 168.85 66.7032 168.69C66.6631 168.489 66.8636 168.489 66.9839 168.489C67.746 168.329 67.8663 168.088 67.6657 167.366C67.5053 166.765 67.3048 166.243 67.0641 165.682C66.9839 165.521 66.9037 165.441 66.7032 165.441C66.3823 165.481 65.9813 165.481 65.5802 165.481ZM65.5802 161.751C65.1791 162.794 64.8182 163.757 64.4171 164.719C64.3369 164.96 64.4973 164.92 64.6176 164.92C65.2593 164.92 65.901 164.88 66.5026 164.88C66.7433 164.88 66.8235 164.799 66.7032 164.559C66.3422 163.676 65.9813 162.754 65.5802 161.751Z" fill="#010101"/>
<path d="M80.7008 165.08C80.3399 165.922 80.019 166.684 79.6982 167.447C79.5377 167.807 79.3773 168.209 79.2169 168.57C79.1367 168.73 79.1367 168.971 78.896 168.93C78.6955 168.93 78.6554 168.73 78.6153 168.57C78.2142 167.767 77.8131 166.925 77.4522 166.123C77.0511 165.321 76.6901 164.519 76.2891 163.717C76.1688 163.436 75.9682 163.195 75.6474 163.155C75.527 163.115 75.4067 163.075 75.4468 162.914C75.4869 162.794 75.6073 162.754 75.7276 162.754C76.6099 162.834 77.4923 162.834 78.4147 162.754C78.5752 162.754 78.6955 162.794 78.7356 162.955C78.7356 163.115 78.6153 163.155 78.495 163.155C78.134 163.195 78.0137 163.396 78.1741 163.757C78.5752 164.799 79.0966 165.762 79.5778 166.845C79.9388 166.043 80.2998 165.361 80.38 164.559C80.4602 163.957 80.2597 163.396 79.6581 163.155C79.5377 163.115 79.4174 163.035 79.4976 162.874C79.5377 162.754 79.6581 162.714 79.7784 162.754C80.6206 162.834 81.4629 162.874 82.3452 162.754C82.4656 162.754 82.626 162.794 82.626 162.914C82.626 163.035 82.5458 163.075 82.4254 163.115C81.9442 163.315 81.9041 163.396 82.0645 163.877C82.4254 164.799 82.8666 165.722 83.3078 166.725C83.749 165.682 84.1099 164.639 84.4308 163.636C84.511 163.436 84.3907 163.275 84.1901 163.235C84.1099 163.195 83.9896 163.195 83.9094 163.155C83.7891 163.115 83.6688 163.075 83.7089 162.914C83.749 162.794 83.8693 162.754 83.9495 162.754C84.4709 162.834 84.9923 162.834 85.5137 162.754C85.634 162.754 85.7543 162.794 85.7543 162.914C85.7543 163.035 85.6741 163.115 85.5538 163.155C85.0725 163.315 84.872 163.717 84.7115 164.158C84.1901 165.561 83.6688 167.005 83.1474 168.409C83.0672 168.61 83.027 168.93 82.7864 168.93C82.5458 168.93 82.5057 168.65 82.4254 168.449C81.9442 167.447 81.503 166.444 81.0618 165.481C80.8613 165.401 80.7811 165.281 80.7008 165.08Z" fill="#010101"/>
<path d="M199.497 167.928C199.096 168.249 198.735 168.529 198.334 168.73C197.452 169.171 196.329 168.971 195.888 168.249C195.647 167.888 195.567 167.527 195.567 167.126C195.567 166.083 195.567 165 195.527 163.957C195.527 163.556 195.447 163.235 194.925 163.195C194.805 163.195 194.685 163.115 194.725 162.995C194.725 162.874 194.845 162.874 194.965 162.874C195.607 162.874 196.289 162.834 196.931 162.834C197.171 162.834 197.091 163.035 197.091 163.155C197.091 164.158 197.091 165.201 197.131 166.203C197.131 166.604 197.131 167.045 197.211 167.447C197.332 168.249 198.013 168.529 198.655 168.048C199.096 167.727 199.377 167.286 199.417 166.725C199.497 165.762 199.497 164.84 199.497 163.877C199.497 163.476 199.377 163.195 198.936 163.235C198.816 163.235 198.575 163.235 198.615 162.995C198.655 162.794 198.856 162.834 198.976 162.834C199.618 162.794 200.259 162.874 200.901 162.794C201.102 162.754 201.062 162.914 201.062 162.995C201.062 163.396 201.102 163.797 201.102 164.198C201.102 165.441 201.142 166.644 201.142 167.888C201.142 168.209 201.222 168.409 201.543 168.449C201.663 168.449 201.864 168.489 201.824 168.69C201.824 168.93 201.623 168.85 201.463 168.85C200.941 168.85 200.42 168.85 199.898 168.85C199.578 168.85 199.457 168.73 199.497 168.409C199.457 168.249 199.457 168.088 199.497 167.928Z" fill="#0C0D98"/>
<path d="M190.594 162.674C191.757 162.674 192.719 163.035 193.361 164.037C194.043 165.08 193.963 166.203 193.361 167.286C192.358 169.051 189.952 169.532 188.348 168.329C187.305 167.527 186.984 166.444 187.225 165.201C187.425 163.957 188.227 163.195 189.431 162.834C189.792 162.714 190.193 162.674 190.594 162.674ZM189.11 165.642C189.11 166.324 189.19 167.005 189.471 167.647C189.711 168.209 190.153 168.529 190.594 168.489C191.195 168.449 191.516 168.088 191.677 167.567C192.078 166.283 191.957 165.04 191.396 163.797C191.195 163.356 190.875 163.075 190.393 163.075C189.872 163.075 189.591 163.436 189.391 163.877C189.11 164.479 189.07 165.08 189.11 165.642Z" fill="#0C0D98"/>
<path d="M112.425 168.971C110.821 168.971 109.578 168.128 109.217 166.925C108.535 164.719 110.099 162.674 112.505 162.714C113.669 162.714 114.671 163.115 115.313 164.158C116.396 165.963 115.273 168.449 113.227 168.89C112.866 168.93 112.586 168.971 112.425 168.971ZM113.749 166.203C113.749 165.361 113.628 164.559 113.267 163.837C113.067 163.436 112.746 163.115 112.225 163.115C111.743 163.115 111.423 163.436 111.262 163.877C110.781 165.241 110.821 166.564 111.463 167.888C111.663 168.289 112.024 168.529 112.465 168.529C112.947 168.529 113.267 168.249 113.468 167.807C113.709 167.246 113.789 166.725 113.749 166.203Z" fill="#010101"/>
<path d="M105.045 165.802C105.045 165.201 105.045 164.599 105.045 164.037C105.045 163.676 105.005 163.476 104.604 163.556C104.524 163.556 104.444 163.556 104.363 163.556C104.243 163.516 104.002 163.596 104.002 163.356C104.002 163.155 104.043 162.874 104.323 162.874C104.965 162.914 105.085 162.594 105.125 161.992C105.206 160.869 105.687 159.947 106.81 159.505C107.612 159.185 108.454 159.144 109.297 159.385C109.497 159.425 109.658 159.545 109.778 159.666C110.139 160.027 110.219 160.348 109.938 160.668C109.698 160.949 109.176 160.989 108.815 160.709C108.615 160.548 108.454 160.348 108.334 160.107C108.174 159.826 107.973 159.586 107.572 159.626C107.171 159.706 106.97 159.987 106.85 160.348C106.69 161.07 106.69 161.832 106.69 162.553C106.69 162.754 106.81 162.754 106.93 162.754C107.251 162.754 107.572 162.754 107.933 162.794C108.053 162.794 108.294 162.794 108.254 162.995C108.214 163.195 108.214 163.476 107.893 163.476C107.572 163.476 107.291 163.516 106.97 163.516C106.73 163.516 106.69 163.596 106.69 163.797C106.69 164.96 106.65 166.123 106.69 167.246C106.69 168.128 106.93 168.369 107.652 168.489C107.773 168.489 107.933 168.529 107.893 168.69C107.893 168.89 107.692 168.85 107.572 168.85C106.529 168.77 105.446 168.77 104.404 168.85C104.283 168.85 104.083 168.89 104.043 168.69C104.002 168.489 104.203 168.449 104.323 168.409C104.765 168.329 104.925 168.048 104.925 167.607C104.925 166.965 104.925 166.324 104.925 165.722C105.005 165.802 105.045 165.802 105.045 165.802Z" fill="#010101"/>
<path d="M96.9039 167.286C97.305 166.163 97.7863 165.12 97.9066 163.997C97.9467 163.516 97.8264 163.356 97.305 163.195C97.1847 163.155 96.944 163.155 96.9841 162.955C97.0243 162.714 97.2248 162.754 97.3852 162.794C98.067 162.874 98.7087 162.874 99.3906 162.794C99.5109 162.794 99.7114 162.714 99.7515 162.955C99.7916 163.155 99.5911 163.155 99.4708 163.235C99.0697 163.396 98.8291 163.676 98.6686 164.037C97.9868 165.602 97.5055 167.246 96.9039 168.85C96.5831 169.652 96.3023 170.455 95.9013 171.176C95.5002 171.898 94.9788 172.5 94.0964 172.66C93.2943 172.821 92.6125 172.46 92.5323 171.818C92.4521 171.377 92.7328 170.936 93.1339 170.815C93.5751 170.695 93.936 170.896 94.1366 171.377C94.3772 172.019 94.6579 172.059 95.0991 171.497C95.5002 171.016 95.7809 170.455 95.9815 169.893C96.0617 169.612 96.0617 169.372 95.9815 169.091C95.2997 167.286 94.5376 165.521 93.6954 163.837C93.5751 163.556 93.3745 163.356 93.0537 163.235C92.9333 163.195 92.7328 163.155 92.813 162.995C92.8531 162.834 93.0136 162.834 93.174 162.834C93.5751 162.874 94.0162 162.874 94.4173 162.914C94.9788 162.914 95.5002 162.914 96.0617 162.834C96.182 162.834 96.3825 162.794 96.4226 162.955C96.4628 163.155 96.3023 163.195 96.1419 163.235C95.6606 163.436 95.5403 163.596 95.7007 164.118C95.9414 165.16 96.3825 166.163 96.9039 167.286Z" fill="#010101"/>
<path d="M183.655 167.246C184.016 166.203 184.417 165.321 184.617 164.318C184.778 163.556 184.698 163.396 183.976 163.155C183.855 163.115 183.775 163.035 183.735 162.955C183.735 162.834 183.855 162.754 183.976 162.794C184.778 162.914 185.54 162.794 186.342 162.834C186.422 162.834 186.502 162.874 186.543 162.914C186.583 162.995 186.502 163.035 186.462 163.035C185.179 163.596 185.139 164.92 184.698 166.003C184.056 167.567 183.615 169.171 182.893 170.695C182.572 171.377 182.211 171.979 181.569 172.38C181.048 172.701 180.486 172.781 179.925 172.58C179.444 172.42 179.163 171.898 179.283 171.417C179.403 170.976 179.764 170.735 180.246 170.775C180.647 170.815 180.807 171.096 180.887 171.417C181.088 171.938 181.289 172.019 181.69 171.618C182.251 171.056 182.572 170.374 182.772 169.612C182.813 169.412 182.772 169.211 182.692 169.051C182.01 167.286 181.248 165.521 180.406 163.797C180.246 163.516 180.085 163.275 179.724 163.155C179.604 163.115 179.444 163.075 179.484 162.914C179.524 162.754 179.684 162.714 179.805 162.714C180.246 162.754 180.727 162.754 181.168 162.794C181.69 162.794 182.211 162.794 182.732 162.714C182.853 162.714 183.053 162.674 183.053 162.874C183.093 163.035 182.933 163.075 182.813 163.155C182.251 163.356 182.211 163.476 182.371 164.078C182.732 165.16 183.174 166.163 183.655 167.246Z" fill="#0C0D98"/>
<path d="M89.5245 168.209C89.1234 168.57 88.7223 168.85 88.201 168.971C87.3186 169.171 86.5967 168.81 86.356 168.088C86.0753 167.326 86.4363 166.404 87.1983 166.043C87.7197 165.802 88.2411 165.602 88.7625 165.401C89.4844 165.12 89.7651 164.639 89.6448 163.877C89.5646 163.436 89.2838 163.155 88.8828 163.115C88.4416 163.075 88.2812 163.235 88.1207 163.757C88.0004 164.198 87.84 164.599 87.3186 164.679C86.7972 164.759 86.4363 164.358 86.5566 163.837C86.6368 163.436 86.8774 163.155 87.2384 163.035C88.2812 162.594 89.3239 162.553 90.4068 162.955C91.0084 163.195 91.2892 163.596 91.2892 164.238C91.2892 165.12 91.2892 166.003 91.2892 166.885C91.2892 167.126 91.2892 167.366 91.3293 167.567C91.4095 168.289 91.4095 168.289 92.1314 168.409C92.2117 168.409 92.2919 168.409 92.332 168.489C92.3721 168.61 92.2919 168.69 92.2117 168.73C91.4897 168.971 90.7277 169.131 89.9657 168.93C89.6448 168.85 89.6047 168.529 89.5245 168.209ZM89.6047 165.441C89.1635 165.682 88.7625 165.922 88.4015 166.163C87.8801 166.524 87.6796 167.126 87.9603 167.727C88.1207 168.088 88.3614 168.209 88.7223 168.128C89.1635 168.088 89.5245 167.687 89.6448 167.126C89.725 166.604 89.6849 166.003 89.6047 165.441Z" fill="#010101"/>
<path d="M129.832 168.209C129.43 168.529 129.029 168.85 128.548 168.93C127.626 169.131 126.944 168.81 126.703 168.048C126.422 167.286 126.783 166.364 127.545 166.003C128.067 165.722 128.668 165.561 129.23 165.321C129.912 165.04 130.192 164.398 129.952 163.717C129.832 163.356 129.591 163.115 129.15 163.115C128.749 163.115 128.548 163.356 128.428 163.717C128.388 163.917 128.348 164.158 128.187 164.318C127.946 164.639 127.465 164.759 127.104 164.559C126.823 164.398 126.743 163.997 126.904 163.596C127.024 163.315 127.265 163.115 127.545 162.995C128.508 162.594 129.471 162.553 130.473 162.834C131.155 163.035 131.516 163.436 131.556 164.198C131.596 165.321 131.516 166.484 131.596 167.607C131.636 168.249 131.717 168.329 132.318 168.369C132.398 168.369 132.559 168.329 132.559 168.489C132.559 168.61 132.479 168.69 132.358 168.73C131.676 168.93 130.954 169.051 130.233 168.93C129.952 168.89 129.952 168.489 129.832 168.209ZM129.912 165.441C129.511 165.682 129.15 165.882 128.789 166.123C128.307 166.404 128.147 166.765 128.187 167.326C128.227 167.687 128.307 168.008 128.668 168.168C128.989 168.289 129.39 168.128 129.671 167.807C129.832 167.647 129.912 167.447 129.952 167.206C130.032 166.604 129.992 166.003 129.912 165.441Z" fill="#010101"/>
<path d="M149.203 165.642C148.602 165.642 148.04 165.642 147.439 165.642C147.198 165.642 147.158 165.722 147.158 165.922C147.198 166.203 147.198 166.484 147.278 166.765C147.679 168.249 148.923 168.73 150.246 167.848C150.406 167.767 150.527 167.647 150.687 167.527C150.767 167.447 150.888 167.366 151.008 167.447C151.128 167.567 151.048 167.687 150.968 167.807C150.647 168.209 150.246 168.529 149.765 168.69C148.602 169.091 147.439 169.131 146.436 168.329C144.952 167.166 144.952 164.759 146.396 163.476C147.398 162.553 148.963 162.353 150.005 163.035C150.727 163.516 151.128 164.198 151.209 165.08C151.249 165.401 151.128 165.521 150.808 165.521C150.286 165.521 149.725 165.521 149.203 165.521C149.203 165.602 149.203 165.602 149.203 165.642ZM148.201 165.12C148.361 165.12 148.521 165.12 148.682 165.12C149.564 165.12 149.805 164.799 149.484 163.917C149.404 163.757 149.324 163.556 149.203 163.436C148.722 162.914 148.04 162.995 147.679 163.556C147.479 163.877 147.398 164.278 147.318 164.639C147.238 165 147.318 165.16 147.719 165.12C147.84 165.08 148.04 165.12 148.201 165.12Z" fill="#010101"/>
<path d="M167.211 165.642C166.65 165.642 166.048 165.642 165.487 165.642C165.366 165.642 165.286 165.602 165.246 165.802C165.246 166.644 165.406 167.406 166.048 167.968C166.65 168.489 167.532 168.449 168.334 167.888C168.455 167.807 168.575 167.687 168.735 167.567C168.856 167.487 168.976 167.366 169.096 167.487C169.257 167.647 169.096 167.767 169.016 167.888C168.695 168.249 168.334 168.529 167.893 168.69C166.73 169.091 165.527 169.171 164.484 168.369C163.04 167.246 163 164.88 164.364 163.596C165.406 162.594 166.93 162.353 168.053 163.075C168.775 163.516 169.176 164.238 169.297 165.12C169.337 165.401 169.217 165.602 168.896 165.561C168.334 165.561 167.773 165.561 167.211 165.561C167.211 165.602 167.211 165.602 167.211 165.642ZM166.249 165.12C166.409 165.12 166.57 165.12 166.69 165.12C167.612 165.12 167.853 164.719 167.492 163.837C167.412 163.676 167.332 163.516 167.211 163.396C166.77 162.955 166.128 162.995 165.767 163.516C165.527 163.837 165.447 164.198 165.366 164.559C165.286 165.241 165.206 165.16 165.848 165.12C165.968 165.12 166.088 165.12 166.249 165.12Z" fill="#010101"/>
<path d="M172.465 164.037C172.706 163.596 172.947 163.315 173.227 163.075C173.628 162.714 174.15 162.634 174.671 162.714C175.393 162.874 175.714 163.717 175.313 164.318C175.032 164.719 174.471 164.759 174.15 164.358C174.029 164.198 173.909 164.037 173.789 163.837C173.588 163.556 173.388 163.556 173.147 163.797C172.826 164.118 172.706 164.519 172.626 164.96C172.505 166.003 172.545 167.045 172.626 168.088C172.666 168.369 172.826 168.489 173.067 168.529C173.187 168.529 173.348 168.57 173.468 168.57C173.548 168.57 173.588 168.65 173.588 168.73C173.588 168.81 173.548 168.89 173.428 168.89C173.308 168.89 173.227 168.93 173.107 168.93C172.185 168.85 171.262 168.85 170.34 168.93C170.179 168.93 169.939 168.971 169.898 168.73C169.858 168.489 170.099 168.489 170.259 168.489C170.62 168.449 170.821 168.289 170.821 167.928C170.821 166.644 170.901 165.361 170.781 164.037C170.741 163.436 170.66 163.396 170.099 163.235C169.979 163.195 169.778 163.195 169.818 162.995C169.818 162.794 169.979 162.834 170.139 162.794C170.741 162.754 171.382 162.714 171.984 162.634C172.305 162.594 172.385 162.714 172.385 162.995C172.385 163.315 172.425 163.636 172.465 164.037Z" fill="#010101"/>
<path d="M119.002 163.917C119.283 163.636 119.444 163.316 119.724 163.115C120.206 162.714 120.767 162.553 121.369 162.754C122.01 162.995 122.211 163.676 121.89 164.238C121.609 164.679 121.008 164.719 120.687 164.278C120.567 164.118 120.486 163.957 120.366 163.797C120.125 163.476 120.005 163.476 119.724 163.757C119.323 164.158 119.243 164.679 119.203 165.241C119.123 166.083 119.163 166.925 119.203 167.807C119.243 168.369 119.283 168.409 119.845 168.489C120.005 168.529 120.246 168.449 120.206 168.69C120.206 168.89 119.965 168.89 119.805 168.89C118.842 168.81 117.839 168.85 116.877 168.89C116.756 168.89 116.556 168.93 116.516 168.69C116.516 168.489 116.676 168.489 116.797 168.489C117.318 168.489 117.438 168.168 117.438 167.727C117.478 166.444 117.478 165.201 117.398 163.957C117.358 163.556 117.198 163.275 116.756 163.235C116.636 163.235 116.436 163.235 116.436 163.035C116.436 162.794 116.636 162.834 116.797 162.834C117.438 162.794 118.08 162.754 118.722 162.674C118.922 162.634 119.002 162.714 119.002 162.955C119.002 163.275 119.002 163.596 119.002 163.917Z" fill="#010101"/>
<path d="M158.709 165.441C158.709 164.96 158.669 164.479 158.709 163.997C158.749 163.556 158.588 163.476 158.187 163.516C158.027 163.556 157.866 163.516 157.706 163.476C157.586 163.436 157.425 163.436 157.425 163.275C157.425 163.155 157.546 163.115 157.666 163.075C157.907 162.995 158.187 162.914 158.428 162.794C159.15 162.473 159.551 161.872 159.832 161.19C159.912 161.029 159.912 160.749 160.153 160.789C160.433 160.829 160.313 161.11 160.313 161.31C160.313 161.711 160.313 162.072 160.313 162.473C160.313 162.674 160.353 162.754 160.594 162.754C161.035 162.754 161.476 162.754 161.917 162.754C162.038 162.754 162.318 162.634 162.278 162.955C162.238 163.195 162.238 163.436 161.877 163.436C161.436 163.436 160.995 163.516 160.554 163.516C160.393 163.516 160.313 163.556 160.313 163.757C160.313 164.84 160.273 165.922 160.233 167.005C160.233 167.166 160.273 167.366 160.273 167.527C160.393 168.168 160.915 168.489 161.556 168.249C161.757 168.168 161.957 168.048 162.158 167.968C162.238 167.928 162.318 167.928 162.399 168.008C162.439 168.088 162.399 168.168 162.358 168.249C162.198 168.449 161.997 168.57 161.757 168.69C161.035 169.091 160.313 169.091 159.551 168.85C158.989 168.65 158.749 168.209 158.629 167.647C158.588 166.885 158.669 166.163 158.709 165.441Z" fill="#010101"/>
<path d="M153.133 165.521C153.133 164.96 153.093 164.438 153.133 163.877C153.133 163.556 153.053 163.476 152.732 163.516C152.532 163.556 152.331 163.516 152.171 163.516C152.05 163.516 151.89 163.476 151.89 163.316C151.85 163.155 152.01 163.155 152.131 163.075C152.411 162.955 152.692 162.914 152.973 162.754C153.575 162.433 153.976 161.952 154.216 161.35C154.256 161.23 154.296 161.15 154.337 161.07C154.417 160.949 154.457 160.789 154.617 160.829C154.778 160.869 154.778 161.029 154.778 161.19C154.778 161.631 154.778 162.072 154.778 162.513C154.778 162.754 154.858 162.834 155.059 162.794C155.5 162.794 155.901 162.794 156.342 162.794C156.462 162.794 156.703 162.714 156.703 162.995C156.703 163.235 156.623 163.436 156.302 163.476C155.861 163.476 155.46 163.556 155.018 163.556C154.818 163.556 154.738 163.596 154.738 163.837C154.738 164.96 154.698 166.083 154.698 167.206C154.698 168.249 155.339 168.61 156.302 168.209C156.462 168.128 156.703 167.848 156.823 168.088C156.944 168.329 156.623 168.449 156.462 168.57C155.7 169.091 154.898 169.171 154.056 168.89C153.294 168.65 153.093 168.008 153.053 167.326C153.093 166.684 153.133 166.123 153.133 165.521Z" fill="#010101"/>
<path d="M203.147 160.588C203.147 159.866 203.668 159.345 204.31 159.385C204.952 159.425 205.433 159.947 205.353 160.668C205.233 161.631 205.072 162.634 204.912 163.596C204.791 164.398 204.631 165.201 204.511 166.043C204.47 166.203 204.47 166.324 204.27 166.324C204.069 166.324 204.029 166.203 203.989 166.043C203.708 164.278 203.428 162.473 203.147 160.709C203.147 160.668 203.147 160.628 203.147 160.588Z" fill="#010101"/>
<path d="M204.27 167.005C204.832 167.005 205.233 167.447 205.233 168.008C205.233 168.57 204.792 168.971 204.27 168.971C203.709 168.971 203.308 168.529 203.308 167.968C203.308 167.447 203.749 167.005 204.27 167.005Z" fill="#010101"/>
</svg>
