<svg width="266" height="266" viewBox="0 0 266 266" fill="none" xmlns="http://www.w3.org/2000/svg">
<path fill-rule="evenodd" clip-rule="evenodd" d="M102.013 76.1282C98.9706 76.7921 96.9235 78.6403 95.6659 81.858C95.3274 82.7248 95.3251 86.9895 95.6632 87.864C97.2052 91.853 100.01 93.688 104.566 93.688C110.173 93.688 113.674 90.2901 113.702 84.8246C113.732 78.6739 108.428 74.7277 102.013 76.1282ZM78.2385 76.4645C78.0902 76.6433 78.0456 79.0256 78.0797 84.973L78.127 93.233H80.038H81.949L81.9986 89.9989L82.0487 86.7643L85.7296 86.8139L89.411 86.863L89.4606 90.0935L89.5102 93.324H91.4189H93.3277L93.2803 84.8155L93.233 76.307H91.413H89.593L89.502 79.674L89.411 83.041L85.7255 83.0902L82.04 83.1398V79.8961C82.04 77.6161 81.975 76.5878 81.8216 76.4344C81.5022 76.115 78.5074 76.14 78.2385 76.4645ZM113.409 76.4913C113.319 76.7261 113.547 77.4636 114.254 79.219C114.335 79.4192 114.58 80.0744 114.8 80.675C115.02 81.2756 115.265 81.9308 115.346 82.131C115.426 82.3312 115.59 82.7817 115.71 83.132C115.83 83.4824 115.994 83.9328 116.074 84.133C116.155 84.3332 116.4 84.9884 116.62 85.589C116.84 86.1896 117.085 86.8448 117.166 87.045C117.247 87.2452 117.492 87.9004 117.712 88.501C117.932 89.1016 118.177 89.7568 118.258 89.957C118.339 90.1572 118.584 90.8124 118.804 91.413C119.551 93.4551 119.39 93.324 121.156 93.324H122.719L123.142 92.1865C123.375 91.5609 123.731 90.5986 123.933 90.048C124.134 89.4975 124.365 88.8832 124.446 88.683C124.527 88.4828 124.772 87.8276 124.992 87.227C126.13 84.1176 126.231 83.9824 126.605 85.0858C126.732 85.4625 126.913 85.9553 127.006 86.1805C127.341 86.9881 127.514 87.4313 128.086 88.956C128.788 90.827 128.894 91.1018 129.135 91.686C129.239 91.9363 129.423 92.4072 129.546 92.7325L129.768 93.324H131.384C132.273 93.324 133 93.3031 133 93.2776C133 93.2521 133.212 92.6584 133.471 91.9581C133.731 91.2579 134.01 90.4803 134.092 90.23C134.174 89.9798 134.502 89.0789 134.82 88.228C135.138 87.3772 135.466 86.4763 135.548 86.226C135.63 85.9758 135.958 85.0749 136.276 84.224C136.594 83.3732 136.922 82.4723 137.004 82.222C137.086 81.9718 137.412 81.0709 137.727 80.22C139.33 75.8939 139.395 76.216 136.924 76.216C134.791 76.216 134.846 76.1837 134.279 77.763C133.689 79.4083 132.798 82.061 132.629 82.677C132.255 84.0425 131.687 86.1728 131.599 86.5445C131.415 87.3198 131.228 87.0782 130.616 85.2705C130.505 84.9452 130.347 84.5152 130.264 84.315C130.18 84.1148 129.937 83.4187 129.724 82.768C129.511 82.1174 129.265 81.4212 129.178 81.221C129.091 81.0208 128.845 80.3247 128.631 79.674C128.417 79.0234 128.193 78.3682 128.134 78.218C128.075 78.0679 127.891 77.5765 127.727 77.126C127.433 76.3229 127.41 76.3061 126.54 76.2501C124.746 76.135 125.144 75.4598 122.68 82.8135C121.179 87.2925 121.159 87.3285 120.814 86.1805C120.686 85.7551 120.519 85.2023 120.442 84.952C120.365 84.7018 120.2 84.1285 120.075 83.678C119.786 82.6406 119.191 80.787 118.992 80.311C118.909 80.1108 118.742 79.6604 118.622 79.31C118.502 78.9597 118.338 78.5092 118.258 78.309C118.178 78.1088 118.009 77.6584 117.882 77.308C117.491 76.2306 117.459 76.216 115.409 76.216C113.886 76.216 113.494 76.2702 113.409 76.4913ZM106.833 79.9179C108.777 80.7801 109.742 82.3722 109.774 84.77C109.87 91.8689 99.5066 92.1765 99.1753 85.0844C98.9819 80.9453 103.014 78.2248 106.833 79.9179ZM138.369 124.615C131.44 125.795 129.957 136.421 136.293 139.49C137.931 140.283 138.336 140.367 140.553 140.367C147.013 140.367 150.71 134.579 148.02 128.679C146.559 125.474 142.749 123.87 138.369 124.615ZM118.928 124.929C118.86 124.997 118.804 125.692 118.804 126.473V127.893L121.125 127.944L123.445 127.995L123.493 134.047L123.541 140.098H125.174H126.807L126.855 134.047L126.903 127.995L129.231 127.944L131.559 127.893L131.506 126.397L131.453 124.901L125.252 124.853C121.842 124.827 118.996 124.861 118.928 124.929ZM142.404 127.915C146.1 129.492 146.416 134.864 142.919 136.693C139.44 138.513 135.844 136.364 135.827 132.454C135.812 128.853 139.17 126.536 142.404 127.915ZM130.452 173.213C130.452 173.409 130.544 173.798 130.657 174.078C130.989 174.906 131.123 175.257 131.544 176.407C131.764 177.008 132.009 177.663 132.09 177.863C132.171 178.063 132.416 178.718 132.636 179.319C132.856 179.92 133.101 180.575 133.182 180.775C133.263 180.975 133.508 181.63 133.728 182.231C133.948 182.832 134.193 183.487 134.274 183.687C134.355 183.887 134.6 184.542 134.82 185.143C135.04 185.744 135.285 186.399 135.366 186.599C135.447 186.799 135.691 187.454 135.909 188.055C136.536 189.785 136.403 189.687 138.206 189.744L139.825 189.795L140.25 188.652C140.483 188.024 140.839 187.059 141.041 186.508C141.242 185.957 141.473 185.343 141.554 185.143C141.635 184.943 141.88 184.288 142.1 183.687C142.32 183.086 142.568 182.431 142.652 182.231C142.737 182.031 142.857 181.683 142.92 181.458C143.093 180.84 143.455 180.965 143.713 181.731C143.84 182.106 144.031 182.618 144.138 182.868C144.383 183.441 144.515 183.785 145.012 185.143C145.232 185.744 145.485 186.419 145.576 186.645C145.955 187.591 146.084 187.919 146.417 188.783L146.767 189.693L148.377 189.746C150.106 189.803 150.151 189.782 150.454 188.783C150.545 188.483 150.881 187.541 151.199 186.69C151.518 185.839 151.846 184.938 151.928 184.688C152.01 184.438 152.338 183.537 152.656 182.686C152.974 181.835 153.302 180.934 153.384 180.684C153.466 180.434 153.794 179.533 154.112 178.682C154.43 177.831 154.758 176.93 154.84 176.68C154.922 176.43 155.244 175.534 155.554 174.689C156.245 172.811 156.266 172.833 153.832 172.897L151.853 172.949L151.522 173.859C150.968 175.378 149.891 178.556 149.734 179.137C149.653 179.437 149.41 180.338 149.193 181.139C148.977 181.94 148.757 182.82 148.705 183.096C148.653 183.371 148.548 183.596 148.471 183.596C148.395 183.596 148.248 183.371 148.147 183.096C147.319 180.866 146.747 179.265 145.825 176.589C145.584 175.888 145.192 174.783 144.955 174.132L144.524 172.949L143.376 172.894C141.792 172.818 142.155 172.172 139.801 179.271C139.014 181.647 138.311 183.592 138.24 183.593C138.127 183.596 137.894 182.873 137.158 180.229C136.889 179.265 136.291 177.409 136.1 176.953C136.017 176.753 135.85 176.302 135.73 175.952C135.61 175.602 135.446 175.151 135.366 174.951C135.286 174.751 135.117 174.3 134.99 173.95C134.598 172.868 134.574 172.858 132.432 172.858C130.589 172.858 130.452 172.883 130.452 173.213ZM156.784 172.977C156.716 173.045 156.66 176.856 156.66 181.445V189.789L163.167 189.741L169.673 189.693V188.055V186.417L165.123 186.326L160.573 186.235V184.688V183.141L164.668 183.05L168.763 182.959V181.321V179.683L164.668 179.592L160.573 179.501L160.52 178.119C160.449 176.24 160.22 176.332 165.138 176.274L169.309 176.225V174.587V172.949L163.108 172.901C159.698 172.875 156.852 172.909 156.784 172.977ZM171.357 172.962C171.281 173.038 171.22 176.854 171.22 181.443V189.784H176.622C180.392 189.784 182.22 189.717 182.673 189.562C186.387 188.295 187.251 184.087 184.334 181.469L183.687 180.889L184.104 180.589C186.67 178.743 185.654 174.556 182.322 173.244C181.614 172.966 171.607 172.708 171.357 172.962ZM181.14 176.756C182.165 177.78 181.785 178.956 180.303 179.35C179.206 179.641 175.545 179.658 175.26 179.374C175.03 179.143 174.948 176.653 175.164 176.438C175.555 176.045 180.704 176.319 181.14 176.756ZM181.292 183.205C182.049 183.916 182.247 184.605 181.901 185.33C181.402 186.376 180.868 186.524 177.817 186.468L175.133 186.417L175.08 184.794C175.004 182.469 174.767 182.636 178.032 182.712C180.68 182.773 180.862 182.801 181.292 183.205Z" fill="#F8FAF7"/>
<path fill-rule="evenodd" clip-rule="evenodd" d="M157.889 132.864L157.843 157.661L133 157.755C119.336 157.807 108.136 157.868 108.111 157.891C108.086 157.915 108.066 168.991 108.066 182.504V207.074H157.57H207.074V157.843V108.612H194.823C184.334 108.612 182.523 108.574 182.22 108.345C181.918 108.116 180.134 108.077 169.901 108.072L157.935 108.066L157.889 132.864ZM134.585 173.086C134.681 173.211 134.863 173.6 134.99 173.95C135.117 174.3 135.286 174.751 135.366 174.951C135.446 175.151 135.61 175.602 135.73 175.952C135.85 176.302 136.017 176.753 136.1 176.953C136.29 177.409 136.889 179.265 137.158 180.229C137.894 182.873 138.126 183.596 138.24 183.593C138.311 183.592 139.014 181.647 139.801 179.271C142.155 172.172 141.792 172.818 143.376 172.894L144.524 172.949L144.955 174.132C145.192 174.783 145.583 175.888 145.825 176.589C146.747 179.265 147.319 180.866 148.146 183.096C148.248 183.371 148.395 183.596 148.471 183.596C148.548 183.596 148.653 183.371 148.705 183.096C148.757 182.82 148.977 181.94 149.193 181.139C149.41 180.338 149.653 179.437 149.734 179.137C149.891 178.556 150.967 175.378 151.522 173.859L151.853 172.949L153.832 172.897C156.265 172.833 156.244 172.811 155.554 174.689C155.243 175.534 154.922 176.43 154.84 176.68C154.758 176.93 154.43 177.831 154.112 178.682C153.794 179.533 153.466 180.434 153.384 180.684C153.302 180.934 152.974 181.835 152.656 182.686C152.338 183.537 152.01 184.438 151.928 184.688C151.846 184.938 151.518 185.839 151.199 186.69C150.881 187.541 150.545 188.483 150.454 188.783C150.151 189.782 150.106 189.803 148.377 189.746L146.767 189.693L146.417 188.783C146.084 187.919 145.955 187.591 145.576 186.645C145.485 186.419 145.232 185.744 145.012 185.143C144.515 183.785 144.383 183.441 144.138 182.868C144.031 182.618 143.84 182.106 143.713 181.731C143.455 180.965 143.093 180.84 142.92 181.458C142.857 181.683 142.736 182.031 142.652 182.231C142.568 182.431 142.32 183.086 142.1 183.687C141.88 184.288 141.634 184.943 141.554 185.143C141.473 185.343 141.242 185.957 141.041 186.508C140.839 187.059 140.483 188.024 140.249 188.652L139.825 189.795L138.206 189.744C136.403 189.687 136.536 189.785 135.909 188.055C135.691 187.454 135.446 186.799 135.366 186.599C135.285 186.399 135.04 185.744 134.82 185.143C134.6 184.542 134.354 183.887 134.274 183.687C134.193 183.487 133.948 182.832 133.728 182.231C133.508 181.63 133.262 180.975 133.182 180.775C133.101 180.575 132.856 179.92 132.636 179.319C132.416 178.718 132.17 178.063 132.09 177.863C132.009 177.663 131.764 177.008 131.544 176.407C131.123 175.257 130.989 174.906 130.657 174.078C130.183 172.9 130.245 172.858 132.432 172.858C133.801 172.858 134.465 172.928 134.585 173.086ZM169.309 174.587V176.225L165.137 176.274C160.22 176.332 160.449 176.24 160.52 178.119L160.573 179.501L164.668 179.592L168.763 179.683V181.321V182.959L164.668 183.05L160.573 183.141V184.688V186.235L165.123 186.326L169.673 186.417V188.055V189.693L163.166 189.741L156.66 189.789V181.445C156.66 176.856 156.715 173.045 156.784 172.977C156.851 172.909 159.697 172.875 163.108 172.901L169.309 172.949V174.587ZM182.322 173.244C185.654 174.556 186.67 178.743 184.104 180.589L183.687 180.889L184.333 181.469C187.251 184.087 186.387 188.295 182.673 189.562C182.22 189.717 180.392 189.784 176.622 189.784H171.22V181.443C171.22 176.854 171.281 173.038 171.356 172.962C171.607 172.708 181.614 172.966 182.322 173.244ZM175.163 176.438C174.948 176.653 175.03 179.143 175.26 179.374C175.545 179.658 179.206 179.641 180.303 179.35C181.785 178.956 182.164 177.78 181.14 176.756C180.703 176.319 175.555 176.045 175.163 176.438ZM175.127 182.909C175.072 183.052 175.051 183.9 175.08 184.794L175.133 186.417L177.817 186.468C180.868 186.524 181.402 186.376 181.901 185.33C182.247 184.605 182.049 183.916 181.292 183.205C180.718 182.666 175.319 182.407 175.127 182.909Z" fill="#8CEB14"/>
<path fill-rule="evenodd" clip-rule="evenodd" d="M108.612 133.001V157.571L133.136 157.525L157.661 157.479L157.707 132.955L157.753 108.43H133.182H108.612V133.001ZM142.642 124.627C149.673 125.961 151.179 136.413 144.786 139.504C143.175 140.282 142.761 140.367 140.553 140.367C133.073 140.367 129.375 132.233 134.391 126.815C136.224 124.836 139.358 124.005 142.642 124.627ZM131.506 126.397L131.558 127.893L129.231 127.944L126.903 127.995L126.855 134.047L126.807 140.098H125.174H123.541L123.493 134.047L123.445 127.995L121.124 127.944L118.804 127.893V126.473C118.804 125.692 118.859 124.997 118.928 124.929C118.995 124.861 121.841 124.827 125.252 124.853L131.453 124.901L131.506 126.397ZM138.75 127.906C135.631 129.124 134.74 133.215 137.027 135.819C139.27 138.375 143.815 137.522 145.012 134.322C146.553 130.204 142.776 126.334 138.75 127.906Z" fill="#64348B"/>
<path fill-rule="evenodd" clip-rule="evenodd" d="M59.0473 59.0475C58.9804 59.1139 58.9258 81.3507 58.9258 108.462V157.755L71.406 170.231C78.2701 177.093 83.9826 182.676 84.1005 182.636C84.2615 182.582 84.3266 179.503 84.3616 170.25L84.4085 157.934H96.2917C105.292 157.934 108.228 157.881 108.393 157.716C108.561 157.548 108.612 151.803 108.612 132.964V108.431L133.227 108.385L157.843 108.339L157.889 83.6325L157.935 58.926H108.552C81.391 58.926 59.1137 58.9806 59.0473 59.0475ZM106.792 76.1118C111.255 77.2125 113.724 80.3251 113.701 84.8246C113.674 90.2901 110.172 93.688 104.566 93.688C100.01 93.688 97.2049 91.853 95.6629 87.864C95.3249 86.9895 95.3271 82.7248 95.6657 81.858C97.4752 77.2284 101.949 74.9179 106.792 76.1118ZM81.8214 76.4344C81.9747 76.5878 82.0398 77.6161 82.0398 79.8961V83.1398L85.7253 83.0902L89.4108 83.041L89.5018 79.674L89.5928 76.307H91.4128H93.2328L93.2801 84.8155L93.3274 93.324H91.4187H89.51L89.4604 90.0935L89.4108 86.863L85.7294 86.8139L82.0484 86.7643L81.9984 89.9989L81.9488 93.233H80.0378H78.1268L78.0795 84.973C78.0453 79.0256 78.0899 76.6433 78.2383 76.4645C78.5072 76.14 81.502 76.115 81.8214 76.4344ZM117.477 76.4435C117.573 76.5686 117.755 76.9577 117.881 77.308C118.008 77.6584 118.178 78.1088 118.258 78.309C118.338 78.5092 118.502 78.9597 118.622 79.31C118.742 79.6604 118.909 80.1108 118.992 80.311C119.191 80.787 119.786 82.6406 120.075 83.678C120.2 84.1285 120.365 84.7018 120.442 84.952C120.519 85.2023 120.686 85.7551 120.814 86.1805C121.158 87.3285 121.178 87.2925 122.679 82.8135C125.143 75.4598 124.746 76.135 126.54 76.2502C127.41 76.3061 127.432 76.3229 127.726 77.126C127.891 77.5765 128.074 78.0679 128.134 78.218C128.193 78.3682 128.417 79.0234 128.63 79.674C128.845 80.3247 129.091 81.0208 129.178 81.221C129.265 81.4212 129.51 82.1174 129.724 82.768C129.937 83.4187 130.18 84.1148 130.263 84.315C130.347 84.5152 130.505 84.9452 130.616 85.2705C131.228 87.0782 131.415 87.3198 131.598 86.5445C131.687 86.1728 132.254 84.0425 132.629 82.677C132.798 82.061 133.689 79.4083 134.279 77.763C134.846 76.1837 134.791 76.216 136.924 76.216C139.395 76.216 139.33 75.8939 137.727 80.22C137.411 81.0709 137.086 81.9718 137.004 82.222C136.921 82.4723 136.594 83.3732 136.276 84.224C135.958 85.0749 135.63 85.9758 135.548 86.226C135.465 86.4763 135.138 87.3772 134.82 88.228C134.502 89.0789 134.174 89.9798 134.092 90.23C134.01 90.4803 133.731 91.2579 133.471 91.9581C133.212 92.6584 133 93.2521 133 93.2776C133 93.3031 132.273 93.324 131.384 93.324H129.768L129.545 92.7325C129.423 92.4072 129.238 91.9363 129.135 91.686C128.894 91.1018 128.788 90.827 128.086 88.956C127.513 87.4313 127.341 86.9881 127.006 86.1805C126.912 85.9553 126.732 85.4625 126.604 85.0858C126.231 83.9824 126.13 84.1176 124.992 87.227C124.772 87.8276 124.526 88.4828 124.446 88.683C124.365 88.8832 124.134 89.4975 123.933 90.048C123.731 90.5986 123.375 91.5609 123.142 92.1865L122.719 93.324H121.156C119.389 93.324 119.551 93.4551 118.804 91.413C118.584 90.8124 118.338 90.1572 118.258 89.957C118.177 89.7568 117.932 89.1016 117.712 88.501C117.492 87.9004 117.246 87.2452 117.166 87.045C117.085 86.8448 116.84 86.1896 116.62 85.589C116.4 84.9884 116.155 84.3332 116.074 84.133C115.994 83.9328 115.83 83.4824 115.71 83.132C115.59 82.7817 115.425 82.3312 115.345 82.131C115.265 81.9308 115.02 81.2756 114.8 80.675C114.58 80.0744 114.334 79.4192 114.254 79.219C113.547 77.4636 113.319 76.7261 113.409 76.4913C113.548 76.1282 117.203 76.0854 117.477 76.4435ZM102.242 79.8788C99.5477 81.0668 98.2974 84.6772 99.6651 87.318C101.698 91.2424 107.492 91.1878 109.364 87.227C111.507 82.6952 106.82 77.8599 102.242 79.8788Z" fill="#04B2EA"/>
<path fill-rule="evenodd" clip-rule="evenodd" d="M181.958 95.9567C181.958 107.91 181.967 108.24 182.31 108.424C183.084 108.838 207.074 108.668 207.074 108.248C207.074 107.663 183 83.678 182.413 83.678H181.958V95.9567ZM157.751 132.818L157.661 157.479L133.1 157.525C119.591 157.55 108.477 157.632 108.402 157.707C108.327 157.782 119.377 157.821 132.957 157.795C146.537 157.768 157.712 157.682 157.792 157.603C157.871 157.524 157.914 146.367 157.889 132.808L157.842 108.157L157.751 132.818Z" fill="#64AC44"/>
</svg>
