<svg width="266" height="266" viewBox="0 0 266 266" fill="none" xmlns="http://www.w3.org/2000/svg">
<path d="M140.013 167.998V142.274L207.462 110.118V135.842L140.013 167.998Z" fill="url(#paint0_linear_208_85)"/>
<path d="M140.013 78.0001V103.725L207.462 135.88V110.156L140.013 78.0001Z" fill="#208CAA"/>
<path d="M126.45 78V103.725L59.0005 135.88V110.156L126.45 78Z" fill="url(#paint1_linear_208_85)"/>
<path d="M126.45 167.998V142.274L59 110.118V135.842L126.45 167.998Z" fill="#298CAB"/>
<path d="M59.9302 176.544H61.7333V186.203H59.9302V176.544Z" fill="#565656"/>
<path d="M63.582 179.06H65.3525V179.792C65.7542 179.448 66.118 179.21 66.4441 179.077C66.7696 178.943 67.1032 178.875 67.4444 178.875C68.1442 178.875 68.7376 179.123 69.2258 179.618C69.6359 180.038 69.841 180.659 69.841 181.482V186.203H68.0898V183.075C68.0898 182.222 68.0516 181.656 67.9764 181.376C67.9008 181.096 67.7695 180.883 67.5819 180.737C67.3938 180.59 67.1623 180.517 66.8859 180.517C66.5282 180.517 66.2206 180.639 65.9645 180.881C65.7074 181.124 65.5297 181.459 65.43 181.888C65.3785 182.111 65.3525 182.594 65.3525 183.337V186.203H63.582V179.06Z" fill="#565656"/>
<path d="M70.7969 179.06H72.6009L74.3837 183.275L76.1628 179.06H77.9574L74.9545 186.203H73.8068L70.7969 179.06Z" fill="#565656"/>
<path d="M82.3399 180.53C81.7927 180.53 81.3377 180.726 80.9762 181.118C80.6138 181.509 80.4328 182.012 80.4328 182.625C80.4328 183.241 80.6171 183.749 80.9857 184.148C81.3542 184.546 81.8079 184.746 82.3465 184.746C82.9022 184.746 83.3634 184.55 83.7296 184.158C84.0963 183.766 84.2791 183.253 84.2791 182.618C84.2791 181.997 84.0963 181.493 83.7296 181.108C83.3634 180.723 82.9003 180.53 82.3399 180.53ZM84.2016 179.06H85.9721V186.203H84.2016V185.448C83.8557 185.781 83.5094 186.02 83.1616 186.167C82.8138 186.313 82.4373 186.387 82.0309 186.387C81.1199 186.387 80.3317 186.029 79.6664 185.313C79.0011 184.597 78.6689 183.708 78.6689 182.645C78.6689 181.542 78.9907 180.637 79.6338 179.932C80.2779 179.228 81.0594 178.875 81.9794 178.875C82.4023 178.875 82.7997 178.956 83.1711 179.119C83.5425 179.28 83.886 179.523 84.2016 179.847V179.06Z" fill="#565656"/>
<path d="M87.976 176.427H89.7466V179.059H90.7974V180.603H89.7466V186.203H87.976V180.603H87.0679V179.059H87.976V176.427Z" fill="#565656"/>
<path d="M95.0914 180.53C94.5442 180.53 94.0892 180.726 93.7272 181.118C93.3653 181.509 93.1843 182.012 93.1843 182.625C93.1843 183.241 93.3686 183.749 93.7371 184.148C94.1057 184.546 94.5593 184.746 95.098 184.746C95.6537 184.746 96.1148 184.55 96.481 184.158C96.8472 183.766 97.0306 183.253 97.0306 182.618C97.0306 181.997 96.8472 181.493 96.481 181.108C96.1148 180.723 95.6518 180.53 95.0914 180.53ZM96.9526 179.06H98.7236V186.203H96.9526V185.448C96.6072 185.781 96.2608 186.02 95.9131 186.167C95.5653 186.313 95.1887 186.387 94.7823 186.387C93.8713 186.387 93.0827 186.029 92.4179 185.313C91.7526 184.597 91.4199 183.708 91.4199 182.645C91.4199 181.542 91.7422 180.637 92.3853 179.932C93.0288 179.228 93.8108 178.875 94.7308 178.875C95.1537 178.875 95.5511 178.956 95.9225 179.119C96.2939 179.28 96.6374 179.523 96.9526 179.847V179.06Z" fill="#565656"/>
<path d="M100.5 179.06H102.271V179.88C102.574 179.543 102.911 179.291 103.28 179.125C103.651 178.959 104.054 178.875 104.491 178.875C104.932 178.875 105.331 178.985 105.685 179.204C106.04 179.422 106.326 179.742 106.542 180.162C106.823 179.742 107.169 179.422 107.577 179.204C107.987 178.985 108.433 178.875 108.917 178.875C109.42 178.875 109.861 178.994 110.242 179.23C110.623 179.466 110.896 179.775 111.063 180.155C111.229 180.537 111.313 181.156 111.313 182.014V186.203H109.529V182.578C109.529 181.769 109.43 181.22 109.231 180.934C109.032 180.647 108.734 180.504 108.336 180.504C108.033 180.504 107.762 180.591 107.522 180.766C107.282 180.941 107.103 181.183 106.987 181.492C106.87 181.801 106.811 182.296 106.811 182.979V186.203H105.028V182.743C105.028 182.104 104.981 181.641 104.888 181.354C104.795 181.067 104.655 180.854 104.469 180.714C104.282 180.574 104.057 180.504 103.793 180.504C103.498 180.504 103.23 180.592 102.99 180.77C102.749 180.947 102.569 181.196 102.45 181.515C102.331 181.835 102.271 182.338 102.271 183.025V186.203H100.5V179.06Z" fill="#565656"/>
<path d="M115.004 180.32H115.581C116.035 180.32 116.351 180.287 116.528 180.221C116.705 180.155 116.845 180.047 116.946 179.895C117.048 179.744 117.099 179.56 117.099 179.345C117.099 178.972 116.956 178.699 116.671 178.528C116.463 178.401 116.078 178.337 115.516 178.337H115.004V180.32ZM113.188 176.544H115.114C116.156 176.544 116.908 176.642 117.368 176.836C117.829 177.032 118.192 177.347 118.457 177.782C118.723 178.218 118.857 178.74 118.857 179.348C118.857 180.023 118.682 180.583 118.334 181.029C117.986 181.475 117.514 181.786 116.917 181.962C116.567 182.062 115.929 182.113 115.004 182.113V186.203H113.188V176.544Z" fill="#565656"/>
<path d="M120.024 179.06H121.542V179.959C121.706 179.604 121.924 179.336 122.197 179.151C122.469 178.967 122.767 178.875 123.092 178.875C123.321 178.875 123.561 178.937 123.812 179.06L123.261 180.603C123.053 180.497 122.882 180.445 122.748 180.445C122.475 180.445 122.246 180.615 122.057 180.957C121.869 181.298 121.776 181.968 121.776 182.966L121.782 183.314V186.203H120.024V179.06Z" fill="#565656"/>
<path d="M128.03 180.563C127.48 180.563 127.022 180.757 126.656 181.144C126.29 181.532 126.107 182.027 126.107 182.631C126.107 183.253 126.288 183.756 126.65 184.141C127.011 184.527 127.469 184.719 128.024 184.719C128.578 184.719 129.04 184.524 129.408 184.135C129.776 183.745 129.96 183.244 129.96 182.631C129.96 182.018 129.779 181.52 129.418 181.137C129.056 180.754 128.594 180.563 128.03 180.563ZM128.001 178.876C128.667 178.876 129.293 179.044 129.879 179.381C130.465 179.718 130.922 180.175 131.25 180.753C131.579 181.331 131.744 181.954 131.744 182.624C131.744 183.299 131.578 183.929 131.247 184.515C130.916 185.102 130.466 185.561 129.895 185.891C129.325 186.222 128.695 186.387 128.008 186.387C126.996 186.387 126.132 186.022 125.416 185.294C124.701 184.565 124.343 183.68 124.343 182.638C124.343 181.522 124.747 180.592 125.556 179.847C126.265 179.199 127.08 178.876 128.001 178.876" fill="#565656"/>
<path d="M136.57 180.55C136.012 180.55 135.551 180.739 135.189 181.118C134.825 181.496 134.643 181.973 134.643 182.546C134.643 183.141 134.829 183.629 135.201 184.01C135.573 184.391 136.04 184.581 136.602 184.581C137.151 184.581 137.605 184.396 137.961 184.023C138.318 183.651 138.496 183.163 138.496 182.559C138.496 181.964 138.317 181.48 137.958 181.108C137.599 180.736 137.136 180.55 136.57 180.55ZM138.405 179.06H140.17V185.179C140.17 186.387 139.93 187.275 139.45 187.844C138.805 188.615 137.835 189 136.538 189C135.845 189 135.264 188.913 134.793 188.737C134.321 188.562 133.923 188.305 133.599 187.966C133.275 187.627 133.035 187.214 132.879 186.728H134.832C135.004 186.93 135.227 187.082 135.499 187.185C135.772 187.288 136.094 187.339 136.466 187.339C136.942 187.339 137.324 187.264 137.614 187.116C137.904 186.967 138.108 186.774 138.227 186.538C138.346 186.301 138.405 185.895 138.405 185.317C138.094 185.632 137.768 185.858 137.426 185.996C137.084 186.134 136.697 186.203 136.265 186.203C135.318 186.203 134.518 185.857 133.865 185.166C133.213 184.474 132.886 183.599 132.886 182.539C132.886 181.406 133.232 180.495 133.923 179.808C134.551 179.186 135.299 178.875 136.168 178.875C136.574 178.875 136.958 178.951 137.319 179.102C137.68 179.253 138.042 179.501 138.405 179.847V179.06Z" fill="#565656"/>
<path d="M141.544 179.06H143.062V179.959C143.227 179.604 143.445 179.336 143.718 179.151C143.99 178.967 144.288 178.875 144.612 178.875C144.842 178.875 145.082 178.937 145.333 179.06L144.781 180.603C144.574 180.497 144.403 180.445 144.269 180.445C143.996 180.445 143.766 180.615 143.578 180.957C143.39 181.298 143.296 181.968 143.296 182.966L143.302 183.314V186.203H141.544V179.06Z" fill="#565656"/>
<path d="M149.555 180.53C149.008 180.53 148.553 180.726 148.191 181.118C147.829 181.509 147.648 182.012 147.648 182.625C147.648 183.241 147.832 183.749 148.201 184.148C148.569 184.546 149.023 184.746 149.561 184.746C150.117 184.746 150.578 184.55 150.944 184.158C151.311 183.766 151.494 183.253 151.494 182.618C151.494 181.997 151.311 181.493 150.944 181.108C150.578 180.723 150.115 180.53 149.555 180.53ZM151.416 179.06H153.187V186.203H151.416V185.448C151.071 185.781 150.724 186.02 150.376 186.167C150.029 186.313 149.652 186.387 149.246 186.387C148.335 186.387 147.546 186.029 146.881 185.313C146.216 184.597 145.883 183.708 145.883 182.645C145.883 181.542 146.206 180.637 146.849 179.932C147.492 179.228 148.274 178.875 149.194 178.875C149.617 178.875 150.014 178.956 150.386 179.119C150.757 179.28 151.101 179.523 151.416 179.847V179.06Z" fill="#565656"/>
<path d="M154.964 179.06H156.735V179.88C157.038 179.543 157.374 179.291 157.744 179.125C158.114 178.959 158.518 178.875 158.954 178.875C159.396 178.875 159.794 178.985 160.149 179.204C160.504 179.422 160.789 179.742 161.005 180.162C161.287 179.742 161.632 179.422 162.041 179.204C162.45 178.985 162.896 178.875 163.381 178.875C163.883 178.875 164.325 178.994 164.705 179.23C165.087 179.466 165.36 179.775 165.526 180.155C165.693 180.537 165.776 181.156 165.776 182.014V186.203H163.993V182.578C163.993 181.769 163.893 181.22 163.695 180.934C163.496 180.647 163.196 180.504 162.799 180.504C162.496 180.504 162.225 180.591 161.985 180.766C161.745 180.941 161.567 181.183 161.451 181.492C161.333 181.801 161.275 182.296 161.275 182.979V186.203H159.492V182.743C159.492 182.104 159.445 181.641 159.352 181.354C159.259 181.067 159.119 180.854 158.932 180.714C158.746 180.574 158.52 180.504 158.256 180.504C157.962 180.504 157.694 180.592 157.454 180.77C157.213 180.947 157.033 181.196 156.913 181.515C156.794 181.835 156.735 182.338 156.735 183.025V186.203H154.964V179.06Z" fill="#565656"/>
<path d="M170.809 180.53C170.262 180.53 169.808 180.726 169.445 181.118C169.084 181.509 168.903 182.012 168.903 182.625C168.903 183.241 169.086 183.749 169.455 184.148C169.823 184.546 170.277 184.746 170.816 184.746C171.371 184.746 171.833 184.55 172.199 184.158C172.565 183.766 172.749 183.253 172.749 182.618C172.749 181.997 172.565 181.493 172.199 181.108C171.833 180.723 171.37 180.53 170.809 180.53ZM172.67 179.06H174.441V186.203H172.67V185.448C172.325 185.781 171.979 186.02 171.631 186.167C171.283 186.313 170.906 186.387 170.501 186.387C169.59 186.387 168.801 186.029 168.136 185.313C167.471 184.597 167.138 183.708 167.138 182.645C167.138 181.542 167.46 180.637 168.103 179.932C168.747 179.228 169.529 178.875 170.449 178.875C170.872 178.875 171.27 178.956 171.641 179.119C172.013 179.28 172.355 179.523 172.67 179.847V179.06Z" fill="#565656"/>
<path d="M175.816 179.06H177.334V179.959C177.499 179.604 177.716 179.336 177.989 179.151C178.262 178.967 178.56 178.875 178.884 178.875C179.114 178.875 179.353 178.937 179.605 179.06L179.053 180.603C178.845 180.497 178.675 180.445 178.541 180.445C178.268 180.445 178.038 180.615 177.85 180.957C177.662 181.298 177.568 181.968 177.568 182.966L177.574 183.314V186.203H175.816V179.06Z" fill="#565656"/>
<path d="M185.78 181.738C185.663 181.34 185.432 181.016 185.088 180.766C184.744 180.517 184.344 180.392 183.889 180.392C183.395 180.392 182.962 180.532 182.589 180.812C182.356 180.987 182.139 181.296 181.94 181.738H185.78ZM187.55 183.15H181.862C181.944 183.658 182.164 184.062 182.521 184.362C182.877 184.661 183.332 184.811 183.886 184.811C184.548 184.811 185.116 184.577 185.592 184.109L187.083 184.818C186.712 185.351 186.266 185.747 185.747 186.003C185.228 186.258 184.612 186.387 183.899 186.387C182.792 186.387 181.89 186.034 181.194 185.326C180.498 184.62 180.15 183.735 180.15 182.671C180.15 181.581 180.496 180.676 181.191 179.956C181.885 179.236 182.755 178.875 183.801 178.875C184.913 178.875 185.817 179.236 186.513 179.956C187.208 180.676 187.557 181.627 187.557 182.809L187.55 183.15Z" fill="#565656"/>
<path d="M189.95 184.332C190.231 184.332 190.471 184.431 190.67 184.631C190.868 184.83 190.968 185.071 190.968 185.356C190.968 185.641 190.868 185.884 190.67 186.085C190.471 186.286 190.231 186.387 189.95 186.387C189.668 186.387 189.428 186.286 189.23 186.085C189.031 185.884 188.932 185.641 188.932 185.356C188.932 185.071 189.031 184.83 189.23 184.631C189.428 184.431 189.668 184.332 189.95 184.332Z" fill="#565656"/>
<path d="M194.834 180.32H195.404C195.981 180.32 196.379 180.243 196.596 180.09C196.814 179.936 196.923 179.681 196.923 179.326C196.923 179.114 196.869 178.932 196.761 178.775C196.654 178.619 196.509 178.507 196.328 178.439C196.147 178.371 195.815 178.337 195.332 178.337H194.834V180.32ZM193.019 176.544H194.943C195.996 176.544 196.747 176.64 197.194 176.83C197.641 177.021 198 177.337 198.272 177.779C198.545 178.221 198.681 178.744 198.681 179.348C198.681 179.983 198.53 180.514 198.23 180.94C197.929 181.367 197.477 181.69 196.871 181.909L199.131 186.203H197.146L195.001 182.113H194.834V186.203H193.019V176.544Z" fill="#565656"/>
<path d="M203.749 180.563C203.199 180.563 202.741 180.757 202.375 181.144C202.008 181.532 201.826 182.027 201.826 182.631C201.826 183.253 202.006 183.756 202.368 184.141C202.73 184.527 203.188 184.719 203.742 184.719C204.297 184.719 204.758 184.524 205.126 184.135C205.494 183.745 205.678 183.244 205.678 182.631C205.678 182.018 205.497 181.52 205.136 181.137C204.774 180.754 204.312 180.563 203.749 180.563ZM203.72 178.876C204.386 178.876 205.012 179.044 205.597 179.381C206.183 179.718 206.64 180.175 206.969 180.753C207.298 181.331 207.462 181.954 207.462 182.624C207.462 183.299 207.297 183.929 206.966 184.515C206.635 185.102 206.184 185.561 205.614 185.891C205.042 186.222 204.414 186.387 203.726 186.387C202.715 186.387 201.85 186.022 201.135 185.294C200.419 184.565 200.061 183.68 200.061 182.638C200.061 181.522 200.466 180.592 201.274 179.847C201.984 179.199 202.798 178.876 203.72 178.876" fill="#565656"/>
<defs>
<linearGradient id="paint0_linear_208_85" x1="140.013" y1="139.058" x2="207.462" y2="139.058" gradientUnits="userSpaceOnUse">
<stop stop-color="#717275"/>
<stop offset="0.584962" stop-color="#717275"/>
<stop offset="1" stop-color="#4D4C4E"/>
</linearGradient>
<linearGradient id="paint1_linear_208_85" x1="59.0003" y1="106.94" x2="126.45" y2="106.94" gradientUnits="userSpaceOnUse">
<stop stop-color="#4D4C4E"/>
<stop offset="0.415038" stop-color="#717275"/>
<stop offset="1" stop-color="#717275"/>
</linearGradient>
</defs>
</svg>
