<svg xmlns="http://www.w3.org/2000/svg" width="500" height="500" fill="none" viewBox="0 0 500 500">
  <path fill="#191E30" fill-rule="evenodd"
        d="M399.5 298c1.4 0 2.6.4 3.5 1 1 .6 1.6 1.5 2.1 2.6.5 1.2.7 2.6.7 4.4l-.1.4-.4.6-.5.2h-9.7c.1 1.7.6 2.9 1.3 3.7.8.8 2 1.2 3.4 1.2 1 0 1.7-.2 2.3-.4l1.5-.6.7-.3c.2 0 .3.1.5.3l.4.7.2.5c0 .2-.1.4-.4.6l-1.2.6a10.6 10.6 0 0 1-4 .8c-2.5 0-4.4-.7-5.6-2-1.3-1.3-1.9-3.3-1.9-6 0-1.8.3-3.3.8-4.6a5.8 5.8 0 0 1 2.5-2.7c1-.6 2.3-1 3.9-1Zm-111 0c1.4 0 2.5.4 3.5 1 .9.6 1.6 1.5 2 2.6.5 1.2.8 2.6.8 4.4l-.2.4-.4.6-.4.2H284c.1 1.7.6 2.9 1.4 3.7.7.8 1.9 1.2 3.4 1.2a7.1 7.1 0 0 0 3.8-1l.7-.3.4.3.5.7.1.5c0 .2-.1.4-.4.6l-1.2.6a10.6 10.6 0 0 1-3.9.8c-2.5 0-4.4-.7-5.7-2-1.2-1.3-1.8-3.3-1.8-6 0-1.8.2-3.3.8-4.6a5.8 5.8 0 0 1 2.4-2.7c1-.6 2.4-1 4-1Zm139.7 0c2.3 0 4 .8 5.2 2.2 1.2 1.4 1.8 3.4 1.8 6s-.6 4.6-1.8 6c-1.1 1.4-2.9 2-5.2 2-2.3 0-4-.6-5.3-2-1.2-1.4-1.8-3.4-1.8-6a9 9 0 0 1 1.8-6c1.3-1.4 3-2.1 5.3-2.1ZM220 298c2.3 0 4 .8 5.2 2.2 1.2 1.4 1.8 3.4 1.8 6s-.6 4.6-1.8 6c-1.1 1.4-2.9 2-5.2 2-2.3 0-4-.6-5.3-2-1.2-1.4-1.8-3.4-1.8-6a9 9 0 0 1 1.8-6c1.3-1.4 3-2.1 5.3-2.1Zm97.3 0c2.2 0 4 .8 5.2 2.2 1.2 1.4 1.8 3.4 1.8 6s-.6 4.6-1.8 6c-1.2 1.4-3 2-5.2 2-2.3 0-4.1-.6-5.3-2-1.3-1.4-1.9-3.4-1.9-6a9 9 0 0 1 1.9-6c1.2-1.4 3-2.1 5.3-2.1Zm37.7 0c2.2 0 4 .8 5.2 2.2 1.2 1.4 1.8 3.4 1.8 6s-.6 4.6-1.8 6c-1.2 1.4-3 2-5.2 2-2.3 0-4.1-.6-5.3-2-1.2-1.4-1.9-3.4-1.9-6a9 9 0 0 1 1.9-6c1.2-1.4 3-2.1 5.3-2.1Zm-77.4.2.3.3.3.7V300l-9 11.8h8.5c.4 0 .6.3.6.9v.4c0 .6-.2.9-.6.9h-11.4l-.3-.3-.3-.6v-1l9-11.8h-7.9c-.4 0-.6-.3-.6-.9v-.4c0-.6.2-.9.6-.9h10.8Zm99.2-6.9c.8 0 1.2.2 1.2.7v8.1c.5-.5 1.2-1 2-1.4a5.9 5.9 0 0 1 5.9.3c.5.3.9.8 1.2 1.4.3.7.5 1.5.5 2.6v10.5c0 .4-.4.6-1.2.6h-.2c-.8 0-1.2-.2-1.2-.6v-10.3c0-.9-.3-1.6-.8-2.1-.5-.6-1.3-.8-2.3-.8-.6 0-1.1 0-1.6.3a6 6 0 0 0-2.3 1.8v11c0 .5-.4.7-1.2.7h-.2c-.8 0-1.2-.2-1.2-.6V292c0-.5.4-.7 1.2-.7h.2Zm-71 6.7c.5 0 1 .1 1.3.3.3.2.4.5.4 1v.6l-.3.7c0 .2-.2.3-.3.3l-.6-.2-1-.2c-.6 0-1.1.2-1.5.5a7 7 0 0 0-1.4 1.4v11c0 .5-.4.7-1.2.7h-.2c-.8 0-1.2-.2-1.2-.6v-10.7a19.4 19.4 0 0 0-.4-3.8l.2-.3.5-.2.6-.1h.4c.2 0 .4 0 .6.3l.3.8.2.8c.5-.7 1-1.3 1.7-1.7.6-.4 1.2-.6 1.8-.6Zm-97.3 0c.6 0 1 .1 1.3.3.3.2.5.5.5 1l-.1.6-.2.7-.3.3-.6-.2-1.1-.2c-.6 0-1 .2-1.5.5a7 7 0 0 0-1.4 1.4v11c0 .5-.4.7-1.2.7h-.1c-.8 0-1.2-.2-1.2-.6v-10.7a19.4 19.4 0 0 0-.4-3.8c0-.1 0-.2.2-.3l.5-.2.5-.1h.4c.3 0 .5 0 .6.3.1.2.3.4.3.8l.2.8c.6-.7 1.1-1.3 1.7-1.7.6-.4 1.3-.6 1.9-.6Zm-12.2-6.8h1l.9.3c.2.1.4.3.4.6l-.1.5-.2.6c-.1.2-.2.3-.4.3h-.4l-1-.1-.7.1c-.3.1-.5.3-.6.6-.2.4-.3.8-.3 1.5v2.6h2.7c.4 0 .6.3.6 1v.3c0 .6-.2 1-.6 1h-2.7v13c0 .4-.4.6-1.2.6h-.1c-.8 0-1.3-.2-1.3-.6v-13H191c-.4 0-.6-.4-.6-1v-.4c0-.6.2-.9.6-.9h1.2v-2.8c0-1 .2-1.7.4-2.2a3.3 3.3 0 0 1 2.3-1.8c.5-.2 1-.2 1.3-.2Zm220.5 6.8c.6 0 1 .1 1.3.3.3.2.5.5.5 1l-.1.6-.2.7-.3.3-.6-.2-1.1-.2c-.6 0-1 .2-1.5.5a7 7 0 0 0-1.4 1.4v11c0 .5-.4.7-1.2.7h-.1c-.8 0-1.2-.2-1.2-.6v-10.7a19.4 19.4 0 0 0-.4-3.8c0-.1 0-.2.2-.3l.5-.2.5-.1h.4c.3 0 .5 0 .6.3.1.2.3.4.3.8l.2.8c.6-.7 1.1-1.3 1.7-1.7.6-.4 1.3-.6 1.9-.6Zm-168.4 0 1.6.3a5 5 0 0 1 1.6.7c.5.3.9.8 1.2 1.4.3.7.5 1.5.5 2.6v10.5c0 .4-.5.6-1.3.6h-.1c-.8 0-1.2-.2-1.2-.6v-10.3a3 3 0 0 0-.8-2.1c-.5-.6-1.2-.8-2.2-.8-.5 0-1 0-1.5.3a6.2 6.2 0 0 0-2 1.6l-.2.1v11.2c0 .4-.4.6-1.3.6h-.1c-.8 0-1.2-.2-1.2-.6v-10.3a3 3 0 0 0-.8-2.1c-.5-.6-1.2-.8-2.2-.8-.5 0-1 0-1.5.3-.5.2-.9.4-1.2.7l-1 1v11.2c0 .4-.4.6-1.3.6s-1.3-.2-1.3-.6v-10.7a19.4 19.4 0 0 0-.4-3.8c0-.1 0-.2.2-.3l.5-.2.6-.1h.4c.2 0 .4 0 .6.3l.3.8.2.8a7 7 0 0 1 2-1.5c.8-.5 1.7-.8 2.6-.8l1.6.3c.6 0 1.1.3 1.6.7.6.3 1 .9 1.2 1.6.6-.7 1.4-1.3 2.2-1.8.9-.5 1.8-.8 2.7-.8Zm106.5 2.2c-1.5 0-2.6.5-3.3 1.5-.7 1-1 2.4-1 4.5 0 2 .3 3.5 1 4.4.7 1 1.8 1.5 3.3 1.5 1.5 0 2.6-.5 3.3-1.5.7-1 1.1-2.4 1.1-4.4 0-2-.4-3.5-1-4.5-.8-1-1.9-1.5-3.4-1.5Zm-15-5.8c.5 0 .8.2.8.7v3.1h2.6c.4 0 .6.3.6 1v.3c0 .6-.2 1-.6 1h-2.6v9.3c0 1 .2 1.5.5 1.8.4.3.8.5 1.2.5l.9-.1h.4c.2 0 .3 0 .4.2l.2.7v.4c0 .3 0 .5-.3.6-.3.2-.6.2-1 .3h-.9a4.7 4.7 0 0 1-2.5-.7c-.4-.3-.8-.7-1-1.3-.3-.6-.4-1.3-.4-2.1v-9.7h-1.6c-.4 0-.6-.3-.6-.9v-.4c0-.6.2-.9.6-.9h1.6l.3-3.1c0-.5.4-.7 1-.7h.3Zm59.6 5.8c-1.3 0-2.3.4-3 1.2-.8.8-1.2 2-1.3 3.6h8c0-1.6-.3-2.8-1-3.6-.5-.8-1.4-1.2-2.7-1.2Zm-82.3 0c-1.5 0-2.6.5-3.3 1.5-.7 1-1 2.4-1 4.5 0 2 .3 3.5 1 4.4.7 1 1.8 1.5 3.3 1.5 1.5 0 2.6-.5 3.3-1.5.7-1 1-2.4 1-4.4 0-2-.3-3.5-1-4.5s-1.8-1.5-3.3-1.5Zm-28.7 0c-1.4 0-2.4.4-3.1 1.2-.7.8-1.1 2-1.3 3.6h8c0-1.6-.3-2.8-.9-3.6-.6-.8-1.5-1.2-2.7-1.2Zm139.8 0c-1.5 0-2.6.5-3.3 1.5-.7 1-1 2.4-1 4.5 0 2 .3 3.5 1 4.4.7 1 1.8 1.5 3.3 1.5 1.5 0 2.6-.5 3.3-1.5.7-1 1-2.4 1-4.4 0-2-.3-3.5-1-4.5s-1.8-1.5-3.3-1.5Zm-208.3 0c-1.5 0-2.6.5-3.3 1.5-.7 1-1 2.4-1 4.5 0 2 .3 3.5 1 4.4.7 1 1.8 1.5 3.3 1.5 1.5 0 2.6-.5 3.3-1.5.7-1 1-2.4 1-4.4 0-2-.3-3.5-1-4.5s-1.8-1.5-3.3-1.5ZM380.2 226.5c7 0 12.2 2 15.8 6 3.7 4.1 5.5 10 5.5 17.8 0 7.7-1.8 13.6-5.5 17.6-3.6 4.1-8.9 6.2-15.8 6.2-6.8 0-12-2-15.7-6.2-3.7-4-5.6-10-5.6-17.6 0-7.8 1.9-13.7 5.6-17.8 3.6-4 8.9-6 15.7-6Zm-47.4 0c6.8 0 12 2 15.7 6 3.7 4.1 5.5 10 5.5 17.8 0 7.7-1.8 13.6-5.5 17.6-3.6 4.1-8.9 6.2-15.7 6.2-6.9 0-12.2-2-15.8-6.2-3.7-4-5.6-10-5.6-17.6 0-7.8 1.9-13.7 5.6-17.8 3.6-4 8.9-6 15.8-6Zm-180.2 0c.2 0 .4.2.4.3v8.7c0 .2 0 .3-.2.4H140v37.2l-.3.4H131c-.2 0-.4 0-.5-.3V236H118a.5.5 0 0 1-.4-.2V227c0-.2 0-.4.2-.4H152.6Zm-40.3 0c.2 0 .4.2.5.3V273c0 .2-.1.4-.3.5h-8.7a.5.5 0 0 1-.4-.3V227c0-.2 0-.4.2-.4h8.7Zm301.7.3c2.3 0 3.5.7 3.5 2V266h16c1.1 0 1.7 1 1.7 3v1.7c0 1.9-.6 2.8-1.7 2.8h-22.3c-1.7 0-2.5-.8-2.5-2.5v-42.4c0-1.2 1.2-1.9 3.6-1.9h1.7Zm-142.5 0c2.4 0 3.6.7 3.6 2V246h20.3v-17.3c0-1.2 1.2-1.9 3.5-1.9h1.8c2.4 0 3.6.7 3.6 2v43c0 1.3-1.2 2-3.6 2h-1.8c-2.3 0-3.5-.7-3.5-2v-18.3H275v18.3c0 1.3-1.2 2-3.6 2h-1.8c-2.3 0-3.5-.7-3.5-2v-43c0-1.3 1.2-2 3.5-2h1.8Zm108.8 7.2c-4 0-7 1.3-9.1 4.1a20 20 0 0 0-3.2 12.1c0 5.3 1 9.4 3.2 12.2 2 2.8 5 4.2 9 4.2s7.1-1.4 9.2-4.2c2-2.8 3-6.9 3-12.2 0-5.3-1-9.3-3-12-2.1-2.9-5.1-4.2-9.1-4.2Zm-47.5 0c-4 0-7 1.3-9.1 4.1-2.1 2.8-3.1 6.8-3.1 12.1s1 9.4 3 12.2c2.2 2.8 5.2 4.2 9.2 4.2 4 0 7-1.4 9-4.2 2.1-2.8 3.2-6.9 3.2-12.2 0-5.3-1-9.3-3.1-12-2.1-2.9-5.1-4.2-9.1-4.2Zm-86.6-7.5a34.4 34.4 0 0 1 8.6 1.2c1.3.3 2.4.8 3.3 1.3 1 .6 1.6 1.3 1.6 2 0 .5-.2 1.2-.6 2-.4 1-.9 1.7-1.4 2.4-.6.6-1.1 1-1.6 1l-1-.4-.5-.3a18.6 18.6 0 0 0-8.6-1.7c-4.4 0-7.7 1.3-9.8 4-2.2 2.6-3.2 6.7-3.2 12.3 0 5.4 1 9.5 3.2 12.3 2 2.7 5.3 4 9.7 4a19 19 0 0 0 8.7-1.8l1.5-.7a3 3 0 0 1 1-.4c.5 0 1 .4 1.6 1a9.2 9.2 0 0 1 1.8 4c0 .6-.2 1-.6 1.6-.4.4-1 .9-1.7 1.3a35.5 35.5 0 0 1-12.3 2.5c-7.5 0-13-2-16.6-5.8-3.6-3.9-5.4-10-5.4-18 0-16 7.4-23.8 22.3-23.8Zm-39.2 0a26.1 26.1 0 0 1 7.5 1.2c1.1.3 2 .8 2.7 1.3 1 .6 1.4 1.2 1.4 2 0 .4-.1 1-.5 1.9-.3.8-.7 1.5-1.2 2.1-.5.6-1 1-1.4 1-.2 0-.3 0-.5-.2l-.4-.1-.8-.4-.6-.2-2.3-.8c-.9-.2-2-.3-3.4-.3-1.7 0-3 .2-4.1.6-1 .5-1.8 1.1-2.2 1.9-.5.7-.7 1.6-.7 2.5 0 1.4.3 2.4 1 3.3a8 8 0 0 0 2.9 2 92.1 92.1 0 0 1 8.2 3.5c1.5.8 2.8 1.7 4 2.7 1.3 1 2.3 2.3 3 3.8.8 1.6 1.1 3.5 1.1 5.8 0 2.4-.4 4.5-1.2 6.3-.8 1.8-2 3.3-3.4 4.4-1.4 1.1-3 2-4.8 2.5-1.8.5-3.7.8-5.6.8-3.3 0-6-.3-8.4-1-2.3-.7-4-1.4-5.2-2.3-1-.7-1.6-1.5-1.6-2.2 0-.6.2-1.3.6-2.1.4-.8 1-1.5 1.5-2.1.6-.6 1-1 1.4-1l.7.3.6.3.4.2 1.2.6 1.5.6.8.4a14 14 0 0 0 8.8.2c1-.3 2-1 2.6-1.8.7-.9 1-2 1-3.3 0-1.5-.5-2.7-1.5-3.6-1-.9-2.3-1.7-3.8-2.3l-3.3-1.4-1.6-.8c-1.3-.5-2.5-1.1-3.7-1.8-1.2-.7-2.3-1.5-3.2-2.6-1-1-1.7-2.2-2.3-3.6-.5-1.5-.8-3.2-.8-5.2 0-3 .7-5.4 2.2-7.4 1.4-1.9 3.3-3.3 5.7-4.3 2.4-1 5-1.4 7.7-1.4Z"
        clip-rule="evenodd"/>
  <path fill="#017BBB"
        d="M184.2 221.3c-1.6 0-3.2-.8-4-2.4a61.8 61.8 0 0 0-45.2-30 4.7 4.7 0 0 1-4.1-5.2 4.7 4.7 0 0 1 5.3-4 71.3 71.3 0 0 1 52 34.5 4.7 4.7 0 0 1-4 7Z"/>
  <path fill="#23AB85"
        d="M173 242.9c-2.1 0-4-1.4-4.6-3.6A43 43 0 0 0 90.1 229a42.6 42.6 0 0 0-4.2 10.3c-.7 2.6-3.3 4-5.8 3.4-2.6-.7-4-3.3-3.4-5.8a52.5 52.5 0 0 1 57.3-38.2 52.5 52.5 0 0 1 43.6 38.2 4.7 4.7 0 0 1-4.6 6Z"/>
  <path fill="#E3522F"
        d="M118 320.2h-.7a71.2 71.2 0 0 1-59.2-88.6 71.2 71.2 0 0 1 59.2-51.9c2.6-.4 5 1.5 5.3 4 .4 2.6-1.5 5-4 5.3a61.7 61.7 0 0 0-51.4 76.8 61.7 61.7 0 0 0 51.3 45 4.7 4.7 0 0 1-.5 9.4Z"/>
  <path fill="#EFB938"
        d="M127.1 301.6A52.5 52.5 0 0 1 76.7 263a4.8 4.8 0 0 1 9.2-2.4 43 43 0 0 0 46.9 31.2 43 43 0 0 0 35.6-31.2 4.7 4.7 0 1 1 9.2 2.4 52 52 0 0 1-50.5 38.7Z"/>
  <path fill="#191E30" fill-rule="evenodd"
        d="M439.9 235.9a4.5 4.5 0 0 1-3.3-1.4 4.8 4.8 0 0 1-1.4-3.3c0-.7.1-1.3.4-1.8a4.7 4.7 0 0 1 2.5-2.5c.5-.3 1.1-.4 1.8-.4a4.6 4.6 0 0 1 3.3 1.4c.4.4.8.9 1 1.5a4.6 4.6 0 0 1 0 3.6 4.8 4.8 0 0 1-2.5 2.5c-.6.2-1.2.4-1.8.4Zm0-.8a3.9 3.9 0 0 0 2.8-1.2c.3-.3.6-.7.8-1.2a4 4 0 0 0-.9-4.3 3.8 3.8 0 0 0-2.7-1.1 3.9 3.9 0 0 0-3.6 2.4 3.7 3.7 0 0 0 0 3c.2.5.5.9.8 1.2a4 4 0 0 0 2.8 1.1Zm-1.2-1.3c-.3 0-.4 0-.4-.2v-4.8c0-.1 0-.2.2-.2h1.4c.6 0 1 0 1.4.3.3.2.4.6.4 1 0 .3 0 .6-.2.8l-.6.4.3.3.3.5.6 1.6v.1c0 .1-.1.2-.4.2h-.2c-.2 0-.3 0-.4-.2l-.6-1.4a1 1 0 0 0-.3-.4l-.5-.1h-.5v1.9c0 .1 0 .2-.4.2h-.1Zm.5-3h.8c.2 0 .4 0 .5-.2.2-.2.2-.3.2-.5 0-.3 0-.4-.2-.5a.8.8 0 0 0-.5-.2h-.8v1.4Z"
        clip-rule="evenodd"/>
</svg>
