<svg width="186" height="186" viewBox="0 0 186 186" fill="none" xmlns="http://www.w3.org/2000/svg">
<path d="M32.1992 93.5746L35.8288 89.945C38.5343 87.2377 38.5343 82.8508 35.8288 80.1416L32.1992 76.5083L23.6587 85.0396L32.1992 93.5746Z" fill="#0099FF"/>
<path d="M32.1992 110.659L35.8288 107.03C38.5343 104.322 38.5343 99.9355 35.8288 97.2263L32.1992 93.5968L23.6587 102.124L32.1992 110.659Z" fill="#FFA300"/>
<path d="M32.1992 93.5709L23.6587 102.106L20.0291 98.4727C17.3236 95.7653 17.3236 91.3784 20.0291 88.6692L23.6587 85.0396L32.19 93.5709H32.1992Z" fill="#36CD77"/>
<path d="M46.1898 105.305C46.8953 105.727 47.6379 105.975 48.3435 105.975C49.4731 106.01 50.2138 105.34 50.2138 103.892V84.6868H56.3211V104.283C56.3211 108.555 53.2841 110.849 49.4008 110.814C47.6361 110.814 45.9398 110.392 44.6343 109.579L46.1898 105.305ZM53.2508 76C55.2989 76 56.7099 77.3426 56.7099 79.2481C56.7099 81.1184 55.297 82.461 53.2508 82.461C51.2378 82.461 49.7897 81.1184 49.7897 79.2481C49.7897 77.3426 51.2378 76 53.2508 76Z" fill="#06224D"/>
<path d="M60.206 84.6868H66.3132V94.9607C66.3132 97.2199 67.5484 98.5977 69.4909 98.5977C71.8205 98.5625 73.1983 96.6551 73.1983 94.0774V84.685H79.3055V103.714H73.1983V100.574C71.8927 102.833 69.7743 103.964 67.0188 103.964C62.8874 103.964 60.2041 101.138 60.2041 96.6903V84.6868H60.206Z" fill="#06224D"/>
<path d="M83.5444 84.6869H89.6517V87.7942C90.9943 85.5702 93.1813 84.4406 96.0071 84.4036C100.209 84.4036 102.963 87.2646 102.963 91.7127V103.716H96.8904V93.4071C96.8904 91.183 95.5849 89.8053 93.5368 89.8053C91.3128 89.8053 89.8998 91.3942 89.6536 93.6534V103.714H83.5463V84.6869H83.5444Z" fill="#06224D"/>
<path d="M109.742 76C111.613 76 112.955 77.3426 112.955 79.2129C112.955 81.1184 111.613 82.461 109.742 82.461C107.872 82.461 106.529 81.1184 106.529 79.2129C106.529 77.3426 107.87 76 109.742 76ZM106.67 84.6868H112.744V103.716H106.67V84.6868Z" fill="#06224D"/>
<path d="M125.841 84.4739C132.054 84.4739 136.221 88.322 136.221 94.183C136.221 100.044 132.054 103.927 125.841 103.927C119.591 103.927 115.427 100.044 115.427 94.183C115.427 88.322 119.591 84.4739 125.841 84.4739ZM125.841 99.1958C128.347 99.1958 130.078 97.2181 130.078 94.2534C130.078 91.3238 128.349 89.3109 125.841 89.3109C123.299 89.3109 121.569 91.3238 121.569 94.2534C121.569 97.22 123.299 99.1958 125.841 99.1958Z" fill="#06224D"/>
<path d="M138.871 84.6869H144.978V87.8998C146.284 85.6758 148.439 84.4387 151.158 84.4036V89.9108C147.626 89.5942 145.297 91.2534 144.978 93.9367V103.716H138.871V84.6869Z" fill="#06224D"/>
<path d="M153.382 97.3959C155.535 98.9144 158.007 99.7625 160.126 99.7625C161.326 99.7625 162.209 99.3384 162.209 98.4551C162.209 95.6663 152.359 97.1144 152.395 90.4423C152.395 86.5239 155.713 84.4036 160.126 84.4036C162.88 84.4036 165.633 85.1813 167.963 86.5572L165.879 90.5108C163.585 89.2757 161.467 88.6053 159.878 88.6053C158.783 88.6053 158.007 89.0294 158.007 89.9108C158.007 92.5238 168.035 91.2534 168 97.8903C168 101.809 164.576 103.964 159.985 103.964C156.807 103.964 153.737 103.046 151.441 101.281L153.382 97.3959Z" fill="#06224D"/>
</svg>
