<svg width="186" height="186" viewBox="0 0 186 186" fill="none" xmlns="http://www.w3.org/2000/svg">
<path d="M33.8838 88.3544H24.0078V98.2433H33.8838V88.3544Z" fill="#181832"/>
<path d="M30.5871 88.3544H27.2905V98.2433H30.5871V88.3544Z" fill="#009FA3"/>
<path d="M33.8765 94.9501V91.6492H24.0004V94.9501H33.8765Z" fill="#009FA3"/>
<path d="M33.8838 100.709H24.0078V110.598H33.8838V100.709Z" fill="#181832"/>
<path d="M33.8813 107.309V104.009H24.0053V107.309H33.8813Z" fill="#FFC834"/>
<path d="M46.2217 100.709H36.3457V110.598H46.2217V100.709Z" fill="#181832"/>
<path d="M41.2835 109.16C43.2174 109.16 44.7852 107.59 44.7852 105.653C44.7852 103.717 43.2174 102.147 41.2835 102.147C39.3495 102.147 37.7817 103.717 37.7817 105.653C37.7817 107.59 39.3495 109.16 41.2835 109.16Z" fill="#E72B5F"/>
<path d="M33.8838 76H24.0078V85.889H33.8838V76Z" fill="#181832"/>
<path d="M28.9319 77.6299L25.4712 83.6427H32.4063L28.9319 77.6299Z" fill="#4B70B6"/>
<path d="M65.9736 82.9305L69.5027 82.1772V100.791H72.7309V104.092H68.9829C67.3141 104.092 65.9736 102.736 65.9736 101.079V82.9305Z" fill="#181832"/>
<path d="M90.0484 89.1625V104.092H87.0255L86.9981 102.092C85.8491 103.544 83.852 104.421 81.5677 104.421C77.1905 104.421 74.1675 101.215 74.1675 96.6271C74.1675 92.0388 77.1905 88.8337 81.5677 88.8337C83.893 88.8337 85.8491 89.7103 86.9981 91.1622L87.0255 89.1625H90.0484ZM86.6698 96.6271C86.6698 93.8467 84.7958 91.9155 82.1148 91.9155C79.4338 91.9155 77.5598 93.8467 77.5598 96.6271C77.5598 99.4075 79.4338 101.339 82.1148 101.339C84.7958 101.339 86.6698 99.4075 86.6698 96.6271Z" fill="#181832"/>
<path d="M108.35 89.1625V104.092H105.327L105.3 102.161C104.028 103.64 102.277 104.393 100.225 104.393C96.4226 104.393 93.9468 101.667 93.9468 97.4078V89.1625H97.3254V97.2024C97.3254 99.8321 98.6523 101.339 100.827 101.339C103.303 101.339 104.958 99.5308 104.958 97.0106V89.1488H108.35V89.1625Z" fill="#181832"/>
<path d="M127.036 95.8327V104.078H123.657V96.0382C123.657 93.4084 122.303 91.9018 120.032 91.9018C117.556 91.9018 115.833 93.7097 115.833 96.2299V104.092H112.454V89.1625H115.477L115.504 91.1211C116.777 89.6145 118.555 88.8474 120.661 88.8474C124.491 88.8611 127.036 91.5731 127.036 95.8327Z" fill="#181832"/>
<path d="M129.936 96.6271C129.936 91.9977 133.137 88.8337 137.87 88.8337C140.045 88.8337 141.919 89.5871 143.519 91.1348L141.467 93.3399C140.564 92.436 139.265 91.9155 137.938 91.9155C135.216 91.9155 133.315 93.8467 133.315 96.6271C133.315 99.4349 135.189 101.339 137.938 101.339C139.388 101.339 140.715 100.791 141.618 99.791L143.697 102.065C142.042 103.667 140.195 104.421 137.897 104.421C133.068 104.421 129.936 101.339 129.936 96.6271Z" fill="#181832"/>
<path d="M161 95.8327V104.078H157.608V96.0382C157.608 93.4084 156.253 91.9018 153.983 91.9018C151.507 91.9018 149.783 93.7097 149.783 96.2299V104.092H146.405V82.9305L149.783 82.1772V90.9156C150.987 89.5596 152.615 88.8611 154.612 88.8611C158.524 88.8611 161 91.6004 161 95.8327Z" fill="#181832"/>
</svg>
