<svg width="186" height="186" viewBox="0 0 186 186" fill="none" xmlns="http://www.w3.org/2000/svg">
<g clip-path="url(#clip0_109_35)">
<path d="M42.0249 101.528C39.8501 102.432 34.5594 104.856 28.1749 105.491C25.5042 105.758 23.9805 103.443 28.7727 98.2624C26.0485 100.623 20.9893 105.563 26.4173 106.462C28.8134 106.858 32.4685 106.256 35.7065 105.286C39.7229 104.084 43.0423 102.595 44.9424 101.667C44.1258 101.319 43.2966 100.956 43.2966 100.956C43.0347 101.078 42.3123 101.408 42.0249 101.528Z" fill="#788386"/>
<path d="M68.0489 94.2705C67.825 92.6519 67.4969 91.3382 67.2247 90.3447C66.8991 89.1555 66.6423 88.4313 66.5837 88.2585C64.2767 90.8351 61.6568 93.6328 55.6514 97.5941C55.8167 98.9129 55.9159 100.592 55.893 101.637C56.941 101.937 58.6961 102.394 58.6961 102.394C58.6961 102.394 60.0518 95.3403 63.8469 94.1231C66.8152 93.1703 67.9395 99.0832 67.9191 103.05C68.5754 99.7768 68.4609 97.2536 68.0489 94.2705Z" fill="#788386"/>
<path d="M68.3031 82.112C67.718 83.6797 66.6828 84.6376 65.5738 85.6668C65.004 84.4547 64.3274 82.9657 63.4117 81.492C62.7911 80.4908 62.1475 79.4922 60.9419 78.0108C59.8532 76.6717 58.5815 75.4774 57.419 74.5779C56.0175 73.4929 54.6236 72.7764 53.6367 72.4359C60.2093 77.683 60.2093 82.3355 58.4848 83.6949C57.5538 84.4242 55.8445 84.5208 54.5295 83.7305C53.2882 82.9835 52.0774 81.7358 51.0218 80.877C49.3863 79.5481 47.3565 77.5788 43.8921 76.6285C47.6464 79.1136 50.3554 82.9581 51.6654 85.5525C52.1919 86.5916 53.0872 88.3297 53.7359 90.0881C54.326 91.6838 54.7787 93.2872 54.972 94.1714C54.3896 94.578 53.652 95.0913 52.8125 95.6427C51.2762 96.6463 49.4779 97.7339 47.6262 98.7401C47.9415 98.8748 49.0378 99.3169 49.2972 99.4185C53.568 97.0453 58.3576 93.9478 62.6894 89.8543C66.7617 86.0047 68.0589 83.1893 68.3031 82.112Z" fill="#788386"/>
<path d="M54.0234 109.961L54.672 110.332C55.7557 109.054 56.8672 107.385 57.3479 106.139C57.0554 106.053 56.1779 105.794 55.5318 105.585C55.2902 106.536 54.9646 108.162 54.0234 109.961Z" fill="#788386"/>
<path d="M57.2792 79.3245C57.2792 78.4707 56.6255 77.1214 55.079 77.1214C53.4129 77.1214 52.917 78.8696 52.917 79.5226C52.917 80.1782 53.5528 81.6063 54.9976 81.6063C56.7476 81.6063 57.2792 80.1782 57.2792 79.3245Z" fill="#788386"/>
<path d="M70.9764 97.0376C70.9764 97.0376 72.2609 98.2039 73.637 100.656C74.6875 102.531 74.8146 103.682 71.9836 104.272C69.033 104.884 65.6576 104.224 63.6991 103.969C62.1348 103.766 56.0378 102.17 53.9622 101.543C51.8739 100.91 47.9796 99.4922 44.795 98.0515C43.2714 97.1723 41.9742 93.8868 41.3484 90.1618C40.7253 86.4367 40.6922 83.1004 41.3154 80.3586C41.6333 78.9637 42.0963 77.4416 42.6304 76.537C44.1846 73.8969 46.2042 71.4398 50.803 71.6431C48.0559 71.0053 45.904 71.7244 44.7645 72.2682C43.3375 72.9492 42.1446 74.0469 40.9313 76.0161C39.8452 77.7796 38.52 80.3637 38.0239 86.7822C37.9451 87.8139 37.7849 88.9141 37.1947 89.5011C36.5105 90.1846 35.2183 90.205 35.2183 90.205C34.2798 90.205 33.4608 89.9534 32.7357 89.2851C31.23 87.8977 31.2859 83.7458 31.6242 81.3649C32.0134 78.6359 33.2496 77.2917 33.626 76.8038C35.2031 74.8955 36.9785 74.7304 37.3321 74.7177C30.5152 74.6745 27.9462 82.5795 28.4244 89.3511C26.3259 87.9486 24.1791 86.0555 24.1893 84.1599C23.299 85.9844 25.7612 88.5254 27.1678 89.6155C29.4113 91.3535 35.3989 95.3377 38.2096 96.7378C41.0228 98.1379 46.9698 101.007 55.206 103.781C56.923 104.361 71.1061 108.823 76.4553 106.073C81.0083 103.731 70.9764 97.0376 70.9764 97.0376Z" fill="#9E0B0F"/>
<path d="M42.3939 100.755C42.0607 100.613 40.7278 99.975 39.4687 99.3728C38.5276 98.923 36.1214 97.6729 33.8347 96.3566C31.3877 94.949 28.8848 93.1042 28.8848 93.1042C29.5512 96.9894 30.9197 100.168 31.7362 101.944C32.3161 103.21 32.8782 104.3 32.8782 104.3C34.4248 103.931 35.0759 103.736 37.4033 102.877C39.7078 102.023 41.3408 101.243 42.3939 100.755Z" fill="#9E0B0F"/>
<path d="M39.7666 105.552C38.5125 106.03 36.6074 106.582 34.7734 107.072C38.0572 111.575 41.5165 113.508 43.4497 114.116C46.212 114.985 48.7862 114.789 51.2076 112.82C44.8334 115.983 40.026 111.603 39.7666 105.552Z" fill="#9E0B0F"/>
<path d="M56.2258 111.455C53.9823 110.703 52.1713 109.44 50.4391 107.839C48.595 106.137 47.4529 104.607 46.2141 102.768C44.9169 103.393 43.5561 104.005 42.0376 104.661C42.0376 104.661 44.3217 108.177 49.4318 110.828C54.5546 113.485 60.7407 114.593 64.1593 109.928C61.397 112.375 58.0953 112.08 56.2258 111.455Z" fill="#9E0B0F"/>
<path d="M32.6314 84.686C32.6593 86.1648 33.6538 87.044 34.7934 87.0516C35.9329 87.0617 36.9732 86.2156 36.9656 84.8435C36.9554 83.4688 36.0957 82.4118 34.7934 82.3914C33.7785 82.3711 32.6033 83.2071 32.6314 84.686Z" fill="#9E0B0F"/>
<path d="M159.222 91.7905C157.278 96.4456 153.802 99.9877 148.714 98.4682C143.625 96.9487 144.891 88.5533 147.73 85.5601C150.288 82.8564 155.371 78.9865 159.553 79.6243C160.285 79.7386 161.526 80.7754 160.758 81.1082C159.987 81.4411 152.082 81.5935 149.154 89.9C148.134 92.7916 149.472 95.1497 152.084 95.0557C155.16 94.9464 159.326 91.5466 159.222 91.7905Z" fill="#788386"/>
<path d="M143.337 92.0141C142.457 90.8071 141.358 87.9714 143.957 87.2269C144.711 85.8039 143.446 84.4115 140.738 84.8536C139.346 85.0823 140.407 80.0308 138.141 79.9952C136.752 80.44 134.093 84.1904 131.326 87.6385C128.97 90.581 126.206 93.5336 125.911 94.1181C125.524 94.9362 125.221 97.5636 125.834 98.8213C126.349 99.8759 128.033 99.6929 130.192 97.2435C131.375 95.9069 130.377 94.7228 131.766 92.7942C132.817 91.3331 133.458 90.8732 133.964 90.5277C135.294 89.6154 136.813 89.4274 137.111 89.9C139.53 93.6454 138.649 99.3575 143.337 99.3575C147.071 99.3601 143.744 92.5782 143.337 92.0141ZM134.216 88.8633C133.285 89.0234 133.34 87.8113 134.071 86.7441C135.017 85.3643 136.197 83.9033 136.632 83.7077C137.403 83.6924 138.135 88.195 134.216 88.8633Z" fill="#788386"/>
<path d="M123.347 92.8298C123.418 90.4184 122.871 85.6566 118.949 86.9677C113.548 88.782 111.5 95.1929 112.803 97.3527C113.317 98.209 116.362 100.605 119.282 95.5715C120.478 98.8951 120.93 101.507 122.724 101.434C124.516 101.362 125.064 97.5408 123.347 92.8298ZM116.464 95.5741C114.449 95.7621 113.597 93.1372 116.242 90.6446C118.916 88.1188 121.433 88.6753 121.332 90.6064C121.184 93.3888 118.462 95.3937 116.464 95.5741Z" fill="#9E0B0F"/>
<path d="M106.393 86.6704C101.945 88.8785 100.795 93.7598 102.588 95.5004C104.175 97.0427 107.419 95.2387 107.419 95.2387C104.674 101.434 104.526 107.405 108.517 107.405C112.557 107.405 111.007 100.834 110.677 98.7299C109.868 93.5438 110.786 93.3863 112.068 90.6801C112.633 89.4909 111.631 84.0761 106.393 86.6704ZM105.697 93.9072C103.682 94.0901 102.832 91.4678 105.477 88.9726C108.151 86.4519 110.669 87.0059 110.567 88.9345C110.42 91.7194 107.698 93.7217 105.697 93.9072Z" fill="#9E0B0F"/>
<path d="M98.1194 98.6918C100.208 99.0628 101.202 97.2485 101.123 96.466C101.001 95.2615 100.612 89.9026 101.599 87.6386C98.4145 87.8571 93.9047 97.9372 98.1194 98.6918Z" fill="#9E0B0F"/>
<path d="M102.146 80.9609C100.731 80.3308 99.546 84.597 102.146 85.5931C103.689 86.1927 104.682 82.084 102.146 80.9609Z" fill="#9E0B0F"/>
<path d="M91.3837 79.4769C89.5625 82.2644 84.6456 89.8619 83.88 91.013C83.1119 92.1641 79.3626 97.2333 83.88 98.7299C85.4546 99.2483 91.0555 99.3601 95.5959 99.3956C95.6239 99.2305 97.2416 95.6884 90.7987 95.5715C88.7078 95.5359 86.9171 93.3354 88.896 88.0832C89.3386 86.9042 91.8619 82.1501 92.4088 80.3663C92.541 79.9394 92.8513 77.2256 91.3837 79.4769Z" fill="#9E0B0F"/>
</g>
<defs>
<clipPath id="clip0_109_35">
<rect width="137" height="44" fill="white" transform="translate(24 71)"/>
</clipPath>
</defs>
</svg>
