<svg xmlns="http://www.w3.org/2000/svg" width="398" height="398" fill="none" viewBox="0 0 398 398">
  <path fill="#515159"
        d="M70.18 185.96a2.66 2.66 0 0 0-1.95-.8c-.77 0-1.41.27-1.94.8a2.68 2.68 0 0 0-.79 1.96v21.9c0 .77.27 1.41.8 1.94.52.53 1.16.79 1.93.79s1.42-.26 1.95-.79.8-1.17.8-1.94v-21.9c0-.77-.27-1.42-.8-1.96Zm-7.75-3.86a7.88 7.88 0 0 1 5.8-2.42c2.26 0 4.2.8 5.8 2.42a7.96 7.96 0 0 1 2.4 5.82v21.9c0 2.27-.8 4.2-2.4 5.8a7.9 7.9 0 0 1-5.8 2.41 7.9 7.9 0 0 1-5.8-2.4 7.91 7.91 0 0 1-2.4-5.8v-21.91c0-2.27.8-4.2 2.4-5.82M81.03 190.64h5.47v5.49l.03-.6c.02-.26.12-.7.32-1.33.2-.62.47-1.17.81-1.64a5.55 5.55 0 0 1 4.3-1.91c1.03 0 1.92.19 2.67.57.74.38 1.3.84 1.64 1.36.35.53.62 1.06.81 1.6.2.53.3 1 .3 1.38l.05.57v2.73h-5.45c0-.08 0-.17-.03-.3a5.05 5.05 0 0 0-.56-1.48 2.11 2.11 0 0 0-.81-.66c-.38-.2-.83-.3-1.35-.3a3 3 0 0 0-1.43.33c-.4.21-.68.48-.84.81-.16.33-.28.61-.35.83-.07.23-.1.44-.1.66v19.28h-5.48v-27.39ZM107.53 212.55c.8 0 1.43-.23 1.9-.68.46-.46.73-.9.8-1.35l.05-.7v-3.23c-.87.31-1.79.48-2.75.48-.77 0-1.41.26-1.94.8a2.69 2.69 0 0 0-.6 2.9c.1.31.22.59.39.83s.44.46.81.65c.38.2.82.3 1.34.3Zm-5.8-19.5a7.9 7.9 0 0 1 5.8-2.4c2.26 0 4.2.8 5.81 2.4a7.9 7.9 0 0 1 2.42 5.8v19.18h-5.53l.02-4.87c0 .2-.11.64-.34 1.31-.2.63-.47 1.18-.82 1.65a5.52 5.52 0 0 1-4.29 1.91c-1.01 0-1.9-.19-2.64-.57a4.2 4.2 0 0 1-1.64-1.37 8.32 8.32 0 0 1-.83-1.59c-.2-.53-.31-1-.31-1.39l-.05-.56v-2.73c0-2.26.8-4.2 2.4-5.8a7.9 7.9 0 0 1 5.8-2.41c.77 0 1.41-.27 1.95-.8.53-.54.8-1.19.8-1.96 0-.76-.27-1.4-.8-1.94a2.68 2.68 0 0 0-1.95-.78c-.77 0-1.41.26-1.94.78a2.64 2.64 0 0 0-.78 1.94h-5.48c0-2.26.8-4.2 2.4-5.8ZM130.8 209.82v-10.97l-.03-.29a4.92 4.92 0 0 0-.56-1.48 2.12 2.12 0 0 0-.81-.66c-.39-.2-.84-.3-1.35-.3-.8 0-1.43.23-1.89.69-.45.45-.71.92-.78 1.4l-.06.64v10.97l.03.3c.02.12.07.34.16.65s.22.59.39.83c.16.24.44.46.82.66.39.2.83.29 1.33.29.8 0 1.43-.23 1.88-.68.45-.46.73-.93.81-1.4l.06-.65Zm0-30.14h5.45v38.35h-5.45v-5.48l-.03.6c-.02.26-.13.7-.33 1.32a5.8 5.8 0 0 1-.83 1.65 5.54 5.54 0 0 1-4.3 1.91c-1.03 0-1.9-.19-2.65-.57a4.22 4.22 0 0 1-1.63-1.37 8.27 8.27 0 0 1-.82-1.59c-.2-.53-.31-1-.31-1.39l-.05-.56v-16.42c0-.15 0-.35.02-.6.02-.26.13-.7.34-1.33.2-.62.48-1.17.82-1.64a5.46 5.46 0 0 1 4.27-1.91c1.03 0 1.92.19 2.67.57.75.38 1.3.84 1.64 1.36.35.53.62 1.06.83 1.6.2.53.3 1 .3 1.38l.06.57v-16.45ZM145.81 201.61h5.48v-2.76c0-.76-.26-1.4-.79-1.93a2.63 2.63 0 0 0-1.93-.8c-.77 0-1.42.27-1.95.8-.54.52-.8 1.17-.8 1.94v2.75Zm-3.04-8.56a7.9 7.9 0 0 1 5.8-2.4c2.26 0 4.19.8 5.8 2.4a7.91 7.91 0 0 1 2.4 5.8V207.07H145.8v2.75c0 .77.27 1.41.8 1.94.54.53 1.19.79 1.96.79.76 0 1.4-.27 1.93-.79.53-.53.79-1.17.79-1.94h5.48c0 2.27-.8 4.2-2.4 5.8a7.9 7.9 0 0 1-5.8 2.41 7.9 7.9 0 0 1-5.8-2.4 7.91 7.91 0 0 1-2.4-5.8v-10.98c0-2.26.8-4.2 2.4-5.8M168.12 212.55c.8 0 1.44-.23 1.9-.68.46-.46.73-.9.8-1.35l.05-.7v-3.23c-.87.31-1.79.48-2.75.48-.76 0-1.41.26-1.94.8a2.69 2.69 0 0 0-.6 2.9 2.22 2.22 0 0 0 1.2 1.48c.38.2.82.3 1.34.3Zm-5.8-19.5a7.9 7.9 0 0 1 5.8-2.4c2.26 0 4.2.8 5.81 2.4a7.9 7.9 0 0 1 2.42 5.8v19.18h-5.53l.03-4.87c0 .2-.12.64-.35 1.31-.2.63-.47 1.18-.81 1.65a5.52 5.52 0 0 1-4.29 1.91c-1.02 0-1.9-.19-2.65-.57a4.2 4.2 0 0 1-1.64-1.37 8.26 8.26 0 0 1-.83-1.59 4 4 0 0 1-.3-1.39l-.06-.56v-2.73c0-2.26.8-4.2 2.4-5.8a7.9 7.9 0 0 1 5.8-2.41c.77 0 1.42-.27 1.95-.8.54-.54.8-1.19.8-1.96 0-.76-.26-1.4-.8-1.94a2.68 2.68 0 0 0-1.95-.78c-.76 0-1.41.26-1.94.78a2.64 2.64 0 0 0-.78 1.94h-5.48c0-2.26.8-4.2 2.4-5.8ZM189.47 179.68h16.4v5.48h-5.47v32.87h-5.45v-32.87h-5.48v-5.48ZM212.98 201.61h5.48v-2.76c0-.76-.26-1.4-.79-1.93a2.63 2.63 0 0 0-1.94-.8c-.76 0-1.41.27-1.95.8-.53.52-.8 1.17-.8 1.94v2.75Zm-3.04-8.56a7.9 7.9 0 0 1 5.8-2.4c2.25 0 4.19.8 5.8 2.4a7.91 7.91 0 0 1 2.4 5.8V207.07h-10.96v2.75c0 .77.27 1.41.8 1.94.54.53 1.19.79 1.95.79.77 0 1.42-.27 1.94-.79.53-.53.79-1.17.79-1.94h5.47c0 2.27-.8 4.2-2.4 5.8a7.9 7.9 0 0 1-5.8 2.41 7.9 7.9 0 0 1-5.8-2.4 7.91 7.91 0 0 1-2.4-5.8v-10.98c0-2.26.8-4.2 2.4-5.8M234.18 211.76c.53.53 1.17.79 1.94.79.76 0 1.41-.26 1.95-.79.53-.53.8-1.17.8-1.94h5.45c0 2.27-.8 4.2-2.4 5.8a7.9 7.9 0 0 1-5.8 2.41 7.9 7.9 0 0 1-5.8-2.4 7.91 7.91 0 0 1-2.4-5.8v-10.98c0-2.26.8-4.2 2.4-5.8a7.89 7.89 0 0 1 5.8-2.4c2.26 0 4.2.8 5.8 2.4a7.92 7.92 0 0 1 2.4 5.8h-5.45c0-.76-.27-1.4-.8-1.93a2.67 2.67 0 0 0-1.95-.8c-.77 0-1.41.27-1.94.8a2.63 2.63 0 0 0-.79 1.94v10.96c0 .77.27 1.41.8 1.94ZM247.6 179.68h5.48v16.45l.03-.6c.02-.26.12-.7.32-1.33.2-.62.47-1.17.81-1.64a5.55 5.55 0 0 1 4.3-1.91c1.03 0 1.92.19 2.67.57.74.38 1.29.84 1.64 1.36.34.53.62 1.06.81 1.6.2.53.3 1 .3 1.38l.05.57v21.9h-5.45V198.8c0-.14-.03-.31-.1-.52l-.3-.88c-.14-.39-.42-.7-.82-.93-.4-.23-.9-.34-1.53-.34a3 3 0 0 0-1.43.32c-.4.21-.68.48-.84.81-.16.33-.28.61-.35.83-.07.23-.1.44-.1.66v19.28h-5.48v-38.35ZM280.42 179.68h5.47v16.45h5.48v-16.45h5.48v38.35h-5.48v-16.42h-5.48v16.42h-5.47v-38.35ZM301.76 190.64h5.48v19.18a5.7 5.7 0 0 0 .19.95c.08.31.21.59.38.83s.45.46.83.66c.38.2.83.29 1.32.29a3 3 0 0 0 1.43-.32c.4-.22.69-.49.85-.82.15-.33.28-.6.36-.83.07-.22.12-.44.12-.65v-19.29h5.45v27.4h-5.45v-5.5l-.03.61c-.02.26-.13.7-.33 1.32-.21.63-.49 1.18-.83 1.65-.35.47-.9.9-1.64 1.31-.75.4-1.64.6-2.66.6-1.03 0-1.91-.19-2.65-.57a4.21 4.21 0 0 1-1.63-1.37 8.2 8.2 0 0 1-.83-1.59c-.2-.53-.3-1-.3-1.39l-.06-.56v-21.91ZM328.24 210.09c.03.18.1.4.18.68.1.28.22.55.4.83.16.28.44.5.82.68.38.18.83.27 1.34.27.5 0 .95-.1 1.33-.3.38-.2.66-.4.82-.65a4.92 4.92 0 0 0 .59-1.78v-10.97l-.06-.64a2.71 2.71 0 0 0-.81-1.4 2.54 2.54 0 0 0-1.89-.68c-.5 0-.94.1-1.32.3-.38.19-.66.4-.83.65-.17.24-.3.51-.39.82a5.8 5.8 0 0 0-.18.95v11.24Zm0-13.96.05-.56c0-.4.1-.86.3-1.4.2-.53.46-1.06.81-1.59.35-.52.9-.98 1.64-1.36a5.76 5.76 0 0 1 2.66-.58c1.03 0 1.91.2 2.66.6.75.4 1.3.84 1.64 1.32a6.88 6.88 0 0 1 1.13 2.97c.03.25.04.45.04.6v16.42l-.06.56c0 .4-.1.86-.3 1.4-.19.53-.46 1.06-.8 1.58-.36.53-.9.98-1.65 1.37-.75.38-1.63.57-2.66.57-1.02 0-1.9-.2-2.66-.6-.74-.4-1.3-.84-1.64-1.31a5.57 5.57 0 0 1-.81-1.65c-.2-.62-.3-1.06-.32-1.32a9.05 9.05 0 0 1-.03-.6v5.48h-5.48v-38.35h5.48v16.45Z"/>
  <path fill="#FC582B"
        d="M362 201.31c-1.58 0-5.12.82-5.12 3.98v11.24c0 5.13-4.63 7.47-6.98 7.47h-4.95v-4.9h3c2.77 0 3.05-2.19 3.05-3.83v-10.63c0-4.47 3.97-5.45 5.66-5.73v-.1c-1.69-.17-5.67-.83-5.67-6.06v-10.31c0-1.64-.27-3.82-3.05-3.82h-3v-4.9h4.96c2.35 0 6.98 2.34 6.98 7.47v10.8c0 3.54 3.54 4.41 5.12 4.41v4.91ZM36 196.4c1.47 0 5.12-.76 5.12-3.98V181.2c0-5.13 4.63-7.48 6.98-7.48h4.95v4.91h-3c-2.77 0-3.04 2.18-3.04 3.82v10.63c0 4.37-3.98 5.57-5.67 5.73v.11c1.69.16 5.67.82 5.67 6.06v10.3c0 1.64.27 3.82 3.05 3.82h3V224H48.1c-2.35 0-6.98-2.35-6.98-7.47v-10.8c0-3.55-3.65-4.42-5.12-4.42v-4.9ZM188.59 218.03h-6.29v-6.26h6.29v6.26ZM275.19 218.03h-6.29v-6.26h6.29v6.26Z"/>
</svg>
