<svg width="186" height="186" viewBox="0 0 186 186" fill="none" xmlns="http://www.w3.org/2000/svg">
<path d="M37.3205 115.204C37.6861 115.204 38.0165 115.137 38.3105 115.002C38.6044 114.868 38.8565 114.686 39.0662 114.457C39.2759 114.229 39.4378 113.961 39.5519 113.652C39.666 113.343 39.7234 113.015 39.7234 112.666C39.7234 112.319 39.666 111.99 39.5519 111.682C39.4378 111.372 39.2759 111.104 39.0662 110.876C38.8565 110.648 38.6044 110.466 38.3105 110.332C38.0165 110.197 37.6861 110.129 37.3205 110.129C36.9549 110.129 36.6245 110.197 36.3306 110.332C36.0366 110.466 35.7845 110.648 35.5748 110.876C35.3651 111.104 35.2026 111.372 35.0891 111.682C34.975 111.99 34.9182 112.319 34.9182 112.666C34.9182 113.015 34.975 113.343 35.0891 113.652C35.2026 113.961 35.3651 114.229 35.5748 114.457C35.7845 114.686 36.0366 114.868 36.3306 115.002C36.6245 115.137 36.9549 115.204 37.3205 115.204ZM37.3205 116.014C36.8348 116.014 36.3873 115.929 35.9799 115.758C35.5718 115.587 35.2223 115.351 34.9314 115.051C34.6404 114.751 34.4122 114.397 34.2473 113.99C34.0824 113.582 34 113.141 34 112.666C34 112.193 34.0824 111.752 34.2473 111.344C34.4122 110.936 34.6404 110.582 34.9314 110.282C35.2223 109.982 35.5718 109.747 35.9799 109.575C36.3873 109.404 36.8348 109.319 37.3205 109.319C37.8062 109.319 38.2537 109.404 38.6617 109.575C39.0692 109.747 39.4187 109.982 39.7096 110.282C40.0006 110.582 40.2288 110.936 40.3937 111.344C40.5586 111.752 40.641 112.193 40.641 112.666C40.641 113.141 40.5586 113.582 40.3937 113.99C40.2288 114.397 40.0006 114.751 39.7096 115.051C39.4187 115.351 39.0692 115.587 38.6617 115.758C38.2537 115.929 37.8062 116.014 37.3205 116.014Z" fill="#1D1D1D"/>
<path d="M42.02 111.664H42.823V112.306H42.8636C42.9174 112.145 42.9896 112.057 43.0793 111.964C43.1695 111.871 43.2698 111.776 43.381 111.71C43.4921 111.644 43.6134 111.584 43.7454 111.545C43.8774 111.506 44.0095 111.482 44.1415 111.482C44.2735 111.482 44.3936 111.5 44.5011 111.534L44.4653 112.407C44.399 112.389 44.3333 112.373 44.2675 112.361C44.2012 112.349 44.1355 112.343 44.0698 112.343C43.6737 112.343 43.3589 112.454 43.1492 112.676C42.9395 112.898 42.823 113.244 42.823 113.711V115.838H42.02V111.664Z" fill="#1D1D1D"/>
<path d="M47.6238 112.235C47.4075 112.235 47.2128 112.272 47.0389 112.347C46.8645 112.422 46.7175 112.524 46.598 112.653C46.4779 112.782 46.3847 112.938 46.319 113.121C46.2527 113.304 46.2198 113.504 46.2198 113.719C46.2198 114.151 46.3459 114.498 46.598 114.759C46.8501 115.02 47.1919 115.15 47.6238 115.15C48.0557 115.15 48.3975 115.02 48.6496 114.759C48.9017 114.498 49.0278 114.151 49.0278 113.719C49.0278 113.504 48.9943 113.304 48.9286 113.121C48.8623 112.938 48.7691 112.782 48.6496 112.653C48.5295 112.524 48.3825 112.422 48.2087 112.347C48.0342 112.272 47.8395 112.235 47.6238 112.235ZM49.7262 115.816C49.7262 116.14 49.7262 116.436 49.615 116.703C49.5039 116.97 49.3749 117.201 49.1705 117.396C48.9668 117.591 48.7344 117.742 48.4465 117.85C48.1591 117.958 47.8478 118.012 47.4995 118.012C47.0915 118.012 46.7217 117.955 46.3829 117.841C46.0436 117.727 45.7234 117.528 45.4175 117.247L45.9671 116.563C46.1768 116.791 46.405 116.963 46.6512 117.08C46.8973 117.197 47.1763 117.256 47.4882 117.256C47.7881 117.256 48.0372 117.212 48.2356 117.126C48.4333 117.039 48.591 116.927 48.7081 116.788C48.8252 116.65 48.8557 116.493 48.9035 116.316C48.9513 116.139 48.9232 115.96 48.9232 115.781V115.195H49.0003C48.8443 115.356 48.6329 115.621 48.3664 115.745C48.0988 115.867 47.8186 115.917 47.5246 115.917C47.2128 115.917 46.923 115.856 46.6566 115.745C46.3895 115.634 46.1601 115.479 45.9683 115.284C45.7759 115.089 45.626 114.857 45.5179 114.589C45.4097 114.323 45.356 114.032 45.356 113.72C45.356 113.409 45.4073 113.116 45.5089 112.843C45.6111 112.57 45.7568 112.331 45.945 112.127C46.1344 111.923 46.3626 111.764 46.6291 111.65C46.8961 111.536 47.1948 111.479 47.5246 111.479C47.8126 111.479 48.0934 111.515 48.3664 111.641C48.6388 111.767 48.8533 111.984 49.0092 112.145H48.9232V111.663H49.7262V115.816Z" fill="#1D1D1D"/>
<path d="M53.7252 113.75C53.5335 113.75 53.3369 113.787 53.1362 113.807C52.9348 113.828 52.752 113.881 52.5871 113.941C52.4217 114.001 52.2872 114.091 52.1821 114.199C52.0769 114.308 52.0244 114.448 52.0244 114.616C52.0244 114.862 52.1074 115.041 52.2717 115.149C52.4372 115.256 52.6606 115.311 52.942 115.311C53.1643 115.311 53.353 115.274 53.5096 115.2C53.6649 115.124 53.791 115.028 53.8871 114.908C53.9833 114.787 54.0042 114.654 54.0467 114.507C54.0879 114.36 54.0616 114.214 54.0616 114.071V113.75H53.7252ZM51.4395 112.109C51.6677 111.898 51.9318 111.741 52.2317 111.636C52.5316 111.532 52.8315 111.479 53.1314 111.479C53.4433 111.479 53.7121 111.518 53.9367 111.597C54.1614 111.674 54.3466 111.779 54.49 111.911C54.6339 112.043 54.7164 112.195 54.7851 112.366C54.8544 112.536 54.8639 112.715 54.8639 112.9V115.078C54.8639 115.228 54.8914 115.359 54.8974 115.485C54.904 115.611 54.9368 115.677 54.9494 115.838H54.2295C54.211 115.677 54.202 115.356 54.202 115.196H54.1847C54.0042 115.516 53.791 115.671 53.5454 115.785C53.2993 115.899 53.0143 115.958 52.6905 115.958C52.4927 115.958 52.3034 115.932 52.1235 115.879C51.9437 115.824 51.786 115.744 51.651 115.635C51.5159 115.528 51.4096 115.394 51.3319 115.235C51.2537 115.077 51.2148 114.892 51.2148 114.683C51.2148 114.406 51.2758 114.176 51.3989 113.989C51.5219 113.804 51.6904 113.652 51.9031 113.535C52.1158 113.418 52.3649 113.365 52.6499 113.315C52.9348 113.264 53.2395 113.269 53.5633 113.269H54.0616V113.027C54.0616 112.918 54.0879 112.811 54.0467 112.702C54.0042 112.594 53.9654 112.497 53.8812 112.41C53.7975 112.323 53.7043 112.254 53.5783 112.203C53.4522 112.152 53.3082 112.127 53.1344 112.127C52.9785 112.127 52.8446 112.142 52.7281 112.171C52.611 112.202 52.5059 112.239 52.4103 112.284C52.3141 112.329 52.2275 112.382 52.1498 112.443C52.0716 112.502 51.9969 112.559 51.9252 112.613L51.4395 112.109Z" fill="#1D1D1D"/>
<path d="M56.3091 111.664H57.1114V112.306H57.2799C57.3815 111.984 57.5583 111.862 57.8104 111.721C58.0625 111.58 58.3535 111.494 58.6833 111.494C58.887 111.494 59.0841 111.518 59.2729 111.581C59.4617 111.644 59.6266 111.738 59.7676 111.87C59.9086 112.002 59.9869 112.17 60.0705 112.376C60.1547 112.583 60.1619 112.826 60.1619 113.107V115.838H59.359V113.333C59.359 113.134 59.3631 112.965 59.3094 112.824C59.2556 112.683 59.1988 112.57 59.1092 112.483C59.019 112.397 58.9228 112.333 58.8063 112.293C58.6892 112.254 58.5715 112.235 58.4455 112.235C58.2776 112.235 58.1235 112.262 57.9795 112.316C57.8355 112.371 57.7107 112.455 57.6025 112.572C57.4944 112.689 57.3361 112.837 57.2763 113.018C57.216 113.197 57.1114 113.411 57.1114 113.657V115.838H56.3091V111.664Z" fill="#1D1D1D"/>
<path d="M61.7678 111.663H62.5708V115.837H61.7678V111.663ZM61.689 110.057C61.689 109.895 61.7475 109.756 61.8646 109.639C61.9811 109.522 62.1209 109.464 62.2828 109.464C62.4447 109.464 62.5845 109.522 62.7016 109.639C62.8181 109.756 62.8767 109.895 62.8767 110.057C62.8767 110.219 62.8181 110.359 62.7016 110.476C62.5845 110.592 62.4447 110.651 62.2828 110.651C62.1209 110.651 61.9811 110.592 61.8646 110.476C61.7475 110.359 61.689 110.219 61.689 110.057Z" fill="#1D1D1D"/>
<path d="M64.0156 115.123L66.4585 112.306H64.0156V111.663H67.3875V112.307L65.0097 115.195H67.5476V115.838H64.0156V115.123Z" fill="#1D1D1D"/>
<path d="M71.1647 113.75C70.9729 113.75 70.7764 113.787 70.575 113.807C70.3743 113.828 70.1915 113.881 70.0266 113.941C69.8611 114.001 69.7261 114.091 69.6215 114.199C69.5164 114.308 69.4638 114.448 69.4638 114.616C69.4638 114.862 69.5463 115.041 69.7111 115.149C69.876 115.256 70.0995 115.311 70.3815 115.311C70.6037 115.311 70.7925 115.274 70.949 115.2C71.1044 115.124 71.2304 115.028 71.3266 114.908C71.4228 114.787 71.4742 114.654 71.516 114.507C71.5578 114.36 71.5614 114.214 71.5614 114.071V113.75H71.1647ZM68.8789 112.109C69.1071 111.898 69.3712 111.741 69.6711 111.636C69.9704 111.532 70.2703 111.479 70.5708 111.479C70.8827 111.479 71.1516 111.518 71.3762 111.597C71.6008 111.674 71.786 111.779 71.9294 111.911C72.0734 112.043 72.1056 112.195 72.1743 112.366C72.2437 112.536 72.2036 112.715 72.2036 112.9V115.078C72.2036 115.228 72.2807 115.359 72.2867 115.485C72.2932 115.611 72.3763 115.677 72.3882 115.838H71.6683C71.6504 115.677 71.6414 115.356 71.6414 115.196H71.6235C71.4437 115.516 71.2304 115.671 70.9849 115.785C70.7387 115.899 70.4538 115.958 70.1299 115.958C69.9322 115.958 69.7428 115.932 69.563 115.879C69.3832 115.824 69.2254 115.744 69.0904 115.635C68.9554 115.528 68.8491 115.394 68.7714 115.235C68.6931 115.077 68.6543 114.892 68.6543 114.683C68.6543 114.406 68.7152 114.176 68.8383 113.989C68.9614 113.804 69.1293 113.652 69.3425 113.535C69.5552 113.418 69.8043 113.365 70.0893 113.315C70.3743 113.264 70.679 113.269 71.0028 113.269H71.5614V113.027C71.5614 112.918 71.5578 112.811 71.516 112.702C71.4742 112.594 71.4198 112.497 71.3362 112.41C71.2519 112.323 71.1516 112.254 71.0255 112.203C70.8994 112.152 70.7513 112.127 70.5774 112.127C70.4215 112.127 70.2859 112.142 70.1694 112.171C70.0523 112.202 69.9459 112.239 69.8504 112.284C69.7542 112.329 69.6675 112.382 69.5899 112.443C69.5116 112.502 69.4369 112.559 69.3646 112.613L68.8789 112.109Z" fill="#1D1D1D"/>
<path d="M74.7914 117.925H74.0805L74.6564 116.319H75.4934L74.7914 117.925ZM76.0568 112.306H74.933V114.224C74.933 114.344 74.9778 114.461 74.9832 114.579C74.9897 114.696 75.0328 114.801 75.0716 114.894C75.111 114.987 75.1815 115.062 75.2622 115.119C75.3434 115.175 75.4671 115.204 75.623 115.204C75.7192 115.204 75.7467 115.196 75.8489 115.177C75.9504 115.159 76.0568 115.126 76.0568 115.078V115.816C76.0568 115.871 75.9098 115.908 75.7568 115.929C75.6039 115.95 75.5227 115.96 75.4384 115.96C75.1266 115.96 74.9031 115.917 74.7323 115.83C74.5614 115.743 74.4443 115.63 74.3636 115.493C74.2824 115.354 74.2011 115.199 74.1862 115.028C74.1707 114.858 74.13 114.686 74.13 114.511V112.306H73.167V111.664H74.13V110.379H74.933V111.664H76.0568V112.306Z" fill="#1D1D1D"/>
<path d="M77.5013 111.663H78.3036V115.837H77.5013V111.663ZM77.4541 110.057C77.4541 109.895 77.5127 109.756 77.6297 109.639C77.7468 109.522 77.886 109.464 78.0479 109.464C78.2104 109.464 78.3497 109.522 78.4667 109.639C78.5838 109.756 78.6418 109.895 78.6418 110.057C78.6418 110.219 78.5838 110.359 78.4667 110.476C78.3497 110.592 78.2104 110.651 78.0479 110.651C77.886 110.651 77.7468 110.592 77.6297 110.476C77.5127 110.359 77.4541 110.219 77.4541 110.057Z" fill="#1D1D1D"/>
<path d="M82.4035 113.75C82.2117 113.75 82.0151 113.787 81.8144 113.807C81.6131 113.828 81.4303 113.881 81.2654 113.941C81.0999 114.001 80.9655 114.091 80.8603 114.199C80.7552 114.308 80.7026 114.448 80.7026 114.616C80.7026 114.862 80.7856 115.041 80.9499 115.149C81.1154 115.256 81.3388 115.311 81.6208 115.311C81.8425 115.311 82.0313 115.274 82.1878 115.2C82.3431 115.124 82.4692 115.028 82.5654 114.908C82.6616 114.787 82.7123 114.654 82.7542 114.507C82.796 114.36 82.799 114.214 82.799 114.071V113.75H82.4035ZM80.1177 112.109C80.3459 111.898 80.61 111.741 80.9099 111.636C81.2098 111.532 81.5097 111.479 81.8096 111.479C82.1215 111.479 82.3903 111.518 82.615 111.597C82.8396 111.674 83.0248 111.779 83.1682 111.911C83.3122 112.043 83.3438 112.195 83.4125 112.366C83.4818 112.536 83.4412 112.715 83.4412 112.9V115.078C83.4412 115.228 83.5195 115.359 83.5254 115.485C83.5314 115.611 83.6151 115.677 83.6276 115.838H82.9077C82.8892 115.677 82.8802 115.356 82.8802 115.196H82.8629C82.6825 115.516 82.4692 115.671 82.2236 115.785C81.9775 115.899 81.6925 115.958 81.3687 115.958C81.171 115.958 80.9816 115.932 80.8018 115.879C80.6219 115.824 80.4642 115.744 80.3292 115.635C80.1942 115.528 80.0878 115.394 80.0102 115.235C79.9319 115.077 79.8931 114.892 79.8931 114.683C79.8931 114.406 79.954 114.176 80.0771 113.989C80.2001 113.804 80.3686 113.652 80.5813 113.535C80.7946 113.418 81.0431 113.365 81.3281 113.315C81.6131 113.264 81.9178 113.269 82.2416 113.269H82.799V113.027C82.799 112.918 82.796 112.811 82.7542 112.702C82.7123 112.594 82.6586 112.497 82.5743 112.41C82.4907 112.323 82.3903 112.254 82.2643 112.203C82.1382 112.152 81.9906 112.127 81.8168 112.127C81.6603 112.127 81.5252 112.142 81.4081 112.171C81.2911 112.202 81.1847 112.239 81.0891 112.284C80.9935 112.329 80.9063 112.382 80.8286 112.443C80.7504 112.502 80.6757 112.559 80.6034 112.613L80.1177 112.109Z" fill="#1D1D1D"/>
<path d="M88.3877 114.52C88.5436 114.755 88.7432 114.927 88.9863 115.038C89.2289 115.149 89.4798 115.205 89.7373 115.205C89.8813 115.205 90.0288 115.181 90.1788 115.136C90.3287 115.092 90.465 115.025 90.588 114.934C90.7111 114.844 90.8115 114.733 90.8891 114.602C90.9674 114.47 91.0062 114.316 91.0062 114.142C91.0062 113.896 90.9286 113.71 90.7726 113.58C90.6161 113.451 90.4231 113.343 90.1919 113.256C89.9607 113.169 89.7086 113.085 89.4362 113.004C89.1632 112.923 88.911 112.811 88.6804 112.666C88.4492 112.523 88.2557 112.329 88.0997 112.087C87.9438 111.844 87.8655 111.515 87.8655 111.101C87.8655 110.915 87.9062 110.717 87.9874 110.507C88.0681 110.297 88.1959 110.105 88.3698 109.931C88.5436 109.757 88.7671 109.611 89.0401 109.495C89.3131 109.378 89.6417 109.319 90.0253 109.319C90.3736 109.319 90.7063 109.367 91.0248 109.463C91.342 109.559 91.6216 109.754 91.8612 110.048L91.1592 110.687C91.051 110.519 90.8981 110.384 90.7003 110.282C90.5026 110.18 90.2774 110.129 90.0253 110.129C89.7857 110.129 89.5861 110.16 89.4272 110.224C89.2683 110.287 89.1405 110.368 89.0449 110.466C88.9487 110.566 88.8812 110.673 88.8423 110.786C88.8029 110.899 88.7838 111.005 88.7838 111.101C88.7838 111.371 88.8615 111.578 89.018 111.722C89.1733 111.866 89.3669 111.983 89.5981 112.073C89.8293 112.163 90.0808 112.243 90.3538 112.317C90.6269 112.388 90.879 112.489 91.1102 112.617C91.3408 112.746 91.5344 112.92 91.6903 113.139C91.8462 113.358 91.9245 113.661 91.9245 114.044C91.9245 114.35 91.8659 114.626 91.7488 114.871C91.6317 115.117 91.4746 115.325 91.2763 115.493C91.0779 115.66 90.8443 115.789 90.5743 115.879C90.3043 115.969 90.0169 116.014 89.7104 116.014C89.3024 116.014 88.9158 115.942 88.5496 115.798C88.184 115.654 87.893 115.432 87.6768 115.132L88.3877 114.52Z" fill="#1D1D1D"/>
<path d="M95.6432 112.306H94.3588V114.224C94.3588 114.344 94.4221 114.461 94.4281 114.579C94.4346 114.696 94.4866 114.801 94.5261 114.894C94.5649 114.986 94.6402 115.062 94.7214 115.119C94.8021 115.176 94.9281 115.205 95.0841 115.205C95.1802 115.205 95.2705 115.196 95.3726 115.178C95.4748 115.159 95.4825 115.126 95.6432 115.079V115.816C95.4825 115.87 95.4347 115.908 95.2824 115.929C95.1289 115.951 95.0165 115.96 94.9329 115.96C94.621 115.96 94.3827 115.917 94.2112 115.829C94.0403 115.743 93.9161 115.63 93.8348 115.493C93.7542 115.355 93.6496 115.2 93.6347 115.03C93.6198 114.857 93.5558 114.685 93.5558 114.511V112.306H92.5928V111.664H93.5558V110.379H94.3588V111.664H95.6432V112.306Z" fill="#1D1D1D"/>
<path d="M100.781 115.838H99.9777V115.196H99.9962C99.8941 115.356 99.7172 115.608 99.4651 115.749C99.213 115.89 98.9227 115.96 98.5923 115.96C98.3826 115.96 98.1842 115.929 97.9984 115.866C97.8126 115.803 97.6489 115.705 97.5079 115.573C97.367 115.442 97.1961 115.272 97.1119 115.065C97.0276 114.858 96.9272 114.613 96.9272 114.332V111.664H97.7302V114.108C97.7302 114.306 97.8192 114.474 97.8736 114.615C97.9273 114.756 98.0301 114.87 98.1203 114.957C98.2105 115.044 98.3294 115.107 98.4465 115.146C98.5636 115.185 98.6926 115.204 98.8187 115.204C98.9866 115.204 99.1467 115.178 99.2901 115.123C99.4347 115.07 99.5619 114.984 99.6706 114.867C99.7782 114.75 99.8451 114.602 99.9054 114.421C99.9652 114.242 99.9777 114.029 99.9777 113.783V111.664H100.781V115.838Z" fill="#1D1D1D"/>
<path d="M104.468 115.204C104.685 115.204 104.879 115.167 105.053 115.093C105.227 115.018 105.374 114.915 105.494 114.786C105.614 114.657 105.707 114.501 105.773 114.318C105.84 114.135 105.872 113.935 105.872 113.72C105.872 113.503 105.84 113.304 105.773 113.121C105.707 112.938 105.614 112.782 105.494 112.653C105.374 112.525 105.227 112.423 105.053 112.347C104.879 112.272 104.685 112.234 104.468 112.234C104.253 112.234 104.057 112.272 103.884 112.347C103.71 112.423 103.563 112.525 103.443 112.653C103.323 112.782 103.229 112.938 103.164 113.121C103.097 113.304 103.064 113.503 103.064 113.72C103.064 113.935 103.097 114.135 103.164 114.318C103.229 114.501 103.323 114.657 103.443 114.786C103.563 114.915 103.71 115.018 103.884 115.093C104.057 115.167 104.253 115.204 104.468 115.204ZM106.56 115.839H105.758V115.195H105.854C105.699 115.516 105.484 115.622 105.211 115.749C104.938 115.875 104.657 115.949 104.369 115.949C104.039 115.949 103.741 115.897 103.474 115.784C103.207 115.67 102.979 115.514 102.79 115.309C102.601 115.106 102.456 114.87 102.354 114.6C102.252 114.33 102.201 114.037 102.201 113.719C102.201 113.401 102.252 113.105 102.354 112.832C102.456 112.559 102.601 112.323 102.79 112.122C102.979 111.921 103.207 111.764 103.474 111.65C103.741 111.535 104.039 111.479 104.369 111.479C104.675 111.479 104.964 111.516 105.233 111.645C105.503 111.774 105.71 111.984 105.854 112.145H105.758V109.094H106.56V115.839Z" fill="#1D1D1D"/>
<path d="M111.433 113.429C111.427 113.269 111.399 113.054 111.348 112.904C111.297 112.754 111.221 112.609 111.119 112.498C111.016 112.386 110.889 112.292 110.736 112.229C110.583 112.166 110.405 112.131 110.201 112.131C110.003 112.131 109.821 112.167 109.656 112.241C109.491 112.316 109.352 112.413 109.238 112.533C109.124 112.653 109.035 112.817 108.972 112.963C108.909 113.11 108.878 113.269 108.878 113.429H111.433ZM108.878 114.072C108.878 114.232 108.918 114.399 108.999 114.553C109.08 114.706 109.186 114.822 109.318 114.93C109.45 115.038 109.603 115.115 109.778 115.175C109.952 115.235 110.132 115.262 110.317 115.262C110.569 115.262 110.788 115.201 110.975 115.085C111.16 114.967 111.331 114.812 111.487 114.62L112.099 115.087C111.65 115.67 111.019 115.96 110.21 115.96C109.873 115.96 109.569 115.903 109.296 115.789C109.023 115.676 108.792 115.518 108.603 115.317C108.415 115.116 108.269 114.879 108.167 114.606C108.064 114.333 108.014 114.038 108.014 113.719C108.014 113.401 108.069 113.106 108.18 112.833C108.291 112.56 108.444 112.323 108.639 112.122C108.834 111.922 109.067 111.764 109.337 111.65C109.606 111.536 109.901 111.479 110.219 111.479C110.596 111.479 110.916 111.545 111.177 111.677C111.438 111.809 111.653 111.981 111.82 112.195C111.988 112.407 112.051 112.647 112.126 112.915C112.201 113.181 112.18 113.453 112.18 113.728V114.072H108.878Z" fill="#1D1D1D"/>
<path d="M113.625 111.664H114.427V112.306H114.457C114.559 111.984 114.736 111.862 114.988 111.721C115.24 111.58 115.531 111.494 115.861 111.494C116.064 111.494 116.262 111.518 116.45 111.581C116.639 111.644 116.804 111.738 116.945 111.87C117.086 112.002 117.153 112.17 117.237 112.376C117.321 112.583 117.317 112.826 117.317 113.107V115.838H116.514V113.333C116.514 113.134 116.529 112.965 116.475 112.824C116.422 112.683 116.371 112.57 116.281 112.483C116.19 112.397 116.098 112.333 115.981 112.293C115.864 112.254 115.748 112.235 115.622 112.235C115.454 112.235 115.3 112.262 115.156 112.316C115.012 112.371 114.888 112.455 114.78 112.572C114.672 112.689 114.583 112.837 114.522 113.018C114.463 113.197 114.427 113.411 114.427 113.657V115.838H113.625V111.664Z" fill="#1D1D1D"/>
<path d="M119.893 117.925H119.182L119.757 116.319H120.594L119.893 117.925ZM121.171 112.306H120.047V114.224C120.047 114.344 120.085 114.461 120.091 114.579C120.097 114.696 120.137 114.801 120.176 114.894C120.215 114.987 120.284 115.062 120.365 115.119C120.446 115.175 120.569 115.204 120.725 115.204C120.821 115.204 120.854 115.196 120.957 115.177C121.059 115.159 121.171 115.126 121.171 115.078V115.816C121.171 115.871 121.017 115.908 120.864 115.929C120.712 115.95 120.627 115.96 120.543 115.96C120.231 115.96 120.006 115.917 119.835 115.83C119.664 115.743 119.546 115.63 119.465 115.493C119.384 115.354 119.309 115.199 119.294 115.028C119.279 114.858 119.244 114.686 119.244 114.511V112.306H118.281V111.664H119.244V110.379H120.047V111.664H121.171V112.306Z" fill="#1D1D1D"/>
<path d="M122.615 111.663H123.418V115.837H122.615V111.663ZM122.556 110.057C122.556 109.895 122.615 109.756 122.731 109.639C122.848 109.522 122.988 109.464 123.15 109.464C123.312 109.464 123.451 109.522 123.568 109.639C123.685 109.756 123.744 109.895 123.744 110.057C123.744 110.219 123.685 110.359 123.568 110.476C123.451 110.592 123.312 110.651 123.15 110.651C122.988 110.651 122.848 110.592 122.731 110.476C122.615 110.359 122.556 110.219 122.556 110.057Z" fill="#1D1D1D"/>
<path d="M125.184 109.095H125.987V115.838H125.184V109.095Z" fill="#1D1D1D"/>
<path d="M128.378 113.719C128.378 113.935 128.411 114.135 128.477 114.318C128.543 114.502 128.636 114.657 128.756 114.786C128.876 114.915 129.023 115.017 129.197 115.092C129.371 115.167 129.566 115.204 129.782 115.204C129.998 115.204 130.193 115.167 130.367 115.092C130.541 115.017 130.688 114.915 130.808 114.786C130.928 114.657 131.02 114.502 131.087 114.318C131.153 114.135 131.186 113.935 131.186 113.719C131.186 113.504 131.153 113.304 131.087 113.121C131.02 112.938 130.928 112.783 130.808 112.653C130.688 112.525 130.541 112.422 130.367 112.347C130.193 112.272 129.998 112.235 129.782 112.235C129.566 112.235 129.371 112.272 129.197 112.347C129.023 112.422 128.876 112.525 128.756 112.653C128.636 112.783 128.543 112.938 128.477 113.121C128.411 113.304 128.378 113.504 128.378 113.719ZM127.514 113.719C127.514 113.408 127.573 113.117 127.69 112.847C127.806 112.577 127.967 112.339 128.171 112.137C128.375 111.932 128.615 111.771 128.891 111.654C129.167 111.538 129.464 111.479 129.782 111.479C130.1 111.479 130.397 111.538 130.673 111.654C130.949 111.771 131.189 111.932 131.393 112.137C131.596 112.339 131.757 112.577 131.874 112.847C131.991 113.117 132.05 113.408 132.05 113.719C132.05 114.031 131.991 114.324 131.874 114.597C131.757 114.87 131.596 115.107 131.393 115.308C131.189 115.509 130.949 115.668 130.673 115.785C130.397 115.902 130.1 115.96 129.782 115.96C129.464 115.96 129.167 115.902 128.891 115.785C128.615 115.668 128.375 115.509 128.171 115.308C127.967 115.107 127.806 114.87 127.69 114.597C127.573 114.324 127.514 114.031 127.514 113.719" fill="#1D1D1D"/>
<path d="M133.372 111.664H134.175V112.306H134.254C134.308 112.145 134.38 112.057 134.47 111.964C134.56 111.871 134.66 111.776 134.771 111.71C134.882 111.644 135.004 111.584 135.136 111.545C135.268 111.506 135.4 111.482 135.532 111.482C135.664 111.482 135.784 111.5 135.892 111.534L135.856 112.407C135.79 112.389 135.724 112.373 135.658 112.361C135.592 112.349 135.526 112.343 135.46 112.343C135.064 112.343 134.73 112.454 134.52 112.676C134.31 112.898 134.175 113.244 134.175 113.711V115.838H133.372V111.664Z" fill="#1D1D1D"/>
<path d="M142.038 115.204C142.254 115.204 142.448 115.167 142.623 115.093C142.797 115.018 142.944 114.915 143.064 114.786C143.184 114.657 143.276 114.501 143.343 114.318C143.408 114.135 143.442 113.935 143.442 113.72C143.442 113.503 143.408 113.304 143.343 113.121C143.276 112.938 143.184 112.782 143.064 112.653C142.944 112.525 142.797 112.423 142.623 112.347C142.448 112.272 142.254 112.234 142.038 112.234C141.822 112.234 141.627 112.272 141.453 112.347C141.279 112.423 141.132 112.525 141.012 112.653C140.892 112.782 140.799 112.938 140.732 113.121C140.667 113.304 140.634 113.503 140.634 113.72C140.634 113.935 140.667 114.135 140.732 114.318C140.799 114.501 140.892 114.657 141.012 114.786C141.132 114.915 141.279 115.018 141.453 115.093C141.627 115.167 141.822 115.204 142.038 115.204ZM144.129 115.839H143.326V115.195H143.423C143.267 115.516 143.053 115.622 142.78 115.749C142.507 115.875 142.227 115.949 141.939 115.949C141.609 115.949 141.31 115.897 141.043 115.784C140.777 115.67 140.548 115.514 140.359 115.309C140.171 115.106 140.025 114.87 139.923 114.6C139.821 114.33 139.77 114.037 139.77 113.719C139.77 113.401 139.821 113.105 139.923 112.832C140.025 112.559 140.171 112.323 140.359 112.122C140.548 111.921 140.777 111.764 141.043 111.65C141.31 111.535 141.609 111.479 141.939 111.479C142.245 111.479 142.533 111.516 142.803 111.645C143.073 111.774 143.28 111.984 143.423 112.145H143.326V109.094H144.129V115.839Z" fill="#1D1D1D"/>
<path d="M145.895 111.663H146.698V115.837H145.895V111.663ZM145.709 110.057C145.709 109.895 145.768 109.756 145.885 109.639C146.002 109.522 146.141 109.464 146.303 109.464C146.465 109.464 146.604 109.522 146.721 109.639C146.839 109.756 146.897 109.895 146.897 110.057C146.897 110.219 146.839 110.359 146.721 110.476C146.604 110.592 146.465 110.651 146.303 110.651C146.141 110.651 146.002 110.592 145.885 110.476C145.768 110.359 145.709 110.219 145.709 110.057Z" fill="#1D1D1D"/>
<path d="M148.303 111.664H149.106V112.306H149.183C149.285 111.984 149.462 111.862 149.714 111.721C149.966 111.58 150.257 111.494 150.587 111.494C150.791 111.494 150.987 111.518 151.176 111.581C151.365 111.644 151.53 111.738 151.671 111.87C151.812 112.002 151.855 112.17 151.939 112.376C152.023 112.583 151.996 112.826 151.996 113.107V115.838H151.193V113.333C151.193 113.134 151.232 112.965 151.178 112.824C151.124 112.683 151.085 112.57 150.995 112.483C150.904 112.397 150.818 112.333 150.701 112.293C150.584 112.254 150.47 112.235 150.345 112.235C150.177 112.235 150.024 112.262 149.88 112.316C149.736 112.371 149.613 112.455 149.505 112.572C149.397 112.689 149.284 112.837 149.224 113.018C149.164 113.197 149.106 113.411 149.106 113.657V115.838H148.303V111.664Z" fill="#1D1D1D"/>
<path d="M34.9396 119.585V123.032C34.9396 123.204 34.9641 123.382 35.0107 123.567C35.0573 123.752 35.1356 123.921 35.2449 124.078C35.3536 124.233 35.497 124.361 35.6738 124.459C35.8501 124.558 36.0687 124.607 36.3286 124.607C36.5885 124.607 36.8072 124.558 36.9834 124.459C37.1602 124.361 37.3036 124.233 37.413 124.078C37.5217 123.921 37.5522 123.752 37.5988 123.567C37.6459 123.382 37.6215 123.204 37.6215 123.032V119.585H38.4107V123.15C38.4107 123.472 38.3832 123.764 38.2744 124.027C38.1645 124.289 38.0277 124.516 37.8353 124.708C37.643 124.901 37.4237 125.049 37.1644 125.153C36.9045 125.257 36.6267 125.309 36.3256 125.309C36.0239 125.309 35.7449 125.257 35.485 125.153C35.2252 125.049 34.9999 124.901 34.8076 124.708C34.6158 124.516 34.4437 124.289 34.335 124.027C34.2257 123.764 34.1504 123.472 34.1504 123.15V119.585H34.9396Z" fill="#1D1D1D"/>
<path d="M39.3569 121.478H40.1461V122.109H40.1647C40.2531 121.793 40.4066 121.718 40.6247 121.596C40.8433 121.474 41.0955 121.396 41.381 121.396C41.5579 121.396 41.7281 121.416 41.8918 121.47C42.0555 121.524 42.1983 121.605 42.3202 121.719C42.4427 121.833 42.5143 121.978 42.5872 122.157C42.6595 122.336 42.6703 122.546 42.6703 122.79V125.107H41.8817V122.985C41.8817 122.814 41.9277 122.667 41.8811 122.545C41.8339 122.423 41.8064 122.324 41.7281 122.249C41.6505 122.173 41.5782 122.119 41.4766 122.085C41.375 122.051 41.2789 122.035 41.1695 122.035C41.0244 122.035 40.8935 122.058 40.7687 122.105C40.6438 122.151 40.5369 122.225 40.4431 122.327C40.3499 122.428 40.2764 122.557 40.2244 122.712C40.1724 122.869 40.1461 123.053 40.1461 123.266V125.107H39.3569V121.478Z" fill="#1D1D1D"/>
<path d="M43.6167 121.478H44.2482V125.107H43.6167V121.478ZM43.5176 120.148C43.5176 120.007 43.5684 119.886 43.6693 119.785C43.7709 119.683 43.8916 119.633 44.032 119.633C44.1724 119.633 44.293 119.683 44.3946 119.785C44.4956 119.886 44.5463 120.007 44.5463 120.148C44.5463 120.288 44.4956 120.408 44.3946 120.51C44.293 120.612 44.1724 120.662 44.032 120.662C43.8916 120.662 43.7709 120.612 43.6693 120.51C43.5684 120.408 43.5176 120.288 43.5176 120.148Z" fill="#1D1D1D"/>
<path d="M44.8975 121.478H45.7082L46.8152 124.308L47.8756 121.478H48.6242L47.1743 125.107H46.4024L44.8975 121.478Z" fill="#1D1D1D"/>
<path d="M51.8284 123.055C51.823 122.898 51.7985 122.738 51.7543 122.607C51.7101 122.478 51.6438 122.355 51.5553 122.258C51.4675 122.162 51.3564 122.082 51.2244 122.027C51.0917 121.973 50.937 121.943 50.7602 121.943C50.5887 121.943 50.4316 121.974 50.2888 122.039C50.1454 122.104 50.0247 122.189 49.9262 122.293C49.827 122.396 49.7505 122.531 49.6961 122.658C49.6412 122.786 49.6143 122.898 49.6143 123.055H51.8284ZM49.6143 123.529C49.6143 123.687 49.6495 123.862 49.7194 123.994C49.7893 124.127 49.8819 124.252 49.9961 124.345C50.1108 124.438 50.2428 124.518 50.3939 124.57C50.5445 124.622 50.7004 124.651 50.8617 124.651C51.0798 124.651 51.2698 124.602 51.4305 124.501C51.5918 124.399 51.74 124.266 51.8756 124.1L52.4055 124.505C52.0154 125.01 51.4699 125.262 50.7679 125.262C50.477 125.262 50.2129 125.212 49.9763 125.114C49.7398 125.015 49.5402 124.879 49.3765 124.705C49.2128 124.53 49.0868 124.325 48.9984 124.088C48.9099 123.852 48.8657 123.596 48.8657 123.321C48.8657 123.045 48.9135 122.79 49.0097 122.552C49.1059 122.316 49.2385 122.111 49.4076 121.937C49.5761 121.763 49.778 121.626 50.0116 121.527C50.2458 121.429 50.5003 121.379 50.7757 121.379C51.1037 121.379 51.3803 121.436 51.6061 121.551C51.8326 121.665 52.0178 121.815 52.1641 121.999C52.3093 122.184 52.3517 122.392 52.4168 122.623C52.482 122.854 52.4521 123.089 52.4521 123.328V123.529H49.6143Z" fill="#1D1D1D"/>
<path d="M53.2407 121.478H53.8722V122.109H53.9803C54.0269 121.952 54.0891 121.888 54.1673 121.806C54.2456 121.726 54.3322 121.64 54.4284 121.584C54.5246 121.526 54.6297 121.472 54.7445 121.439C54.8586 121.404 54.9727 121.383 55.0874 121.383C55.2015 121.383 55.306 121.397 55.3992 121.428L55.3682 122.183C55.3108 122.168 55.2535 122.155 55.1961 122.144C55.1394 122.134 55.0826 122.128 55.0252 122.128C54.6823 122.128 54.3734 122.224 54.1912 122.416C54.009 122.61 53.8722 122.908 53.8722 123.313V125.107H53.2407V121.478Z" fill="#1D1D1D"/>
<path d="M57.957 122.401C57.8739 122.297 57.7712 122.21 57.6487 122.14C57.5268 122.069 57.3775 122.035 57.2006 122.035C57.0345 122.035 56.89 122.069 56.7681 122.14C56.6456 122.21 56.5847 122.313 56.5847 122.447C56.5847 122.557 56.6199 122.645 56.6898 122.712C56.7603 122.78 56.8434 122.836 56.9396 122.876C57.0357 122.918 57.1379 122.949 57.2478 122.97C57.3566 122.991 57.4504 123.01 57.528 123.025C57.6792 123.06 57.8202 123.105 57.9534 123.157C58.0854 123.21 58.2001 123.277 58.2963 123.36C58.3925 123.443 58.4678 123.544 58.5221 123.664C58.5771 123.783 58.604 123.929 58.604 124.101C58.604 124.308 58.5598 124.486 58.4714 124.635C58.3829 124.782 58.2688 124.903 58.1284 124.997C57.988 125.09 57.8285 125.158 57.6487 125.2C57.4701 125.242 57.2891 125.262 57.1074 125.262C56.8004 125.262 56.5315 125.215 56.3003 125.122C56.0685 125.028 55.8624 124.856 55.6802 124.607L56.2107 124.17C56.3248 124.285 56.4521 124.386 56.5925 124.475C56.7328 124.563 56.9043 124.607 57.1074 124.607C57.1953 124.607 57.2849 124.598 57.3763 124.58C57.4671 124.562 57.5477 124.533 57.6176 124.494C57.6881 124.455 57.7455 124.406 57.7891 124.346C57.8333 124.286 57.856 124.217 57.856 124.139C57.856 124.035 57.8232 123.95 57.758 123.882C57.6929 123.814 57.6152 123.761 57.5244 123.722C57.4336 123.683 57.3368 123.652 57.2359 123.629C57.1343 123.605 57.0447 123.586 56.967 123.57C56.8159 123.534 56.6731 123.492 56.5381 123.445C56.4025 123.399 56.283 123.336 56.179 123.259C56.0757 123.18 55.992 123.082 55.9299 122.962C55.8672 122.842 55.8361 122.694 55.8361 122.517C55.8361 122.326 55.8767 122.158 55.9568 122.015C56.0374 121.872 56.1444 121.754 56.2764 121.66C56.4096 121.567 56.5602 121.496 56.7287 121.449C56.8977 121.403 57.068 121.379 57.2395 121.379C57.4892 121.379 57.7282 121.426 57.957 121.52C58.1858 121.613 58.3674 121.769 58.503 121.988L57.957 122.401Z" fill="#1D1D1D"/>
<path d="M59.2368 121.478H60.026V125.107H59.2368V121.478ZM59.189 120.148C59.189 120.007 59.2397 119.886 59.3413 119.785C59.4423 119.683 59.563 119.633 59.7033 119.633C59.8437 119.633 59.965 119.683 60.066 119.785C60.1675 119.886 60.2177 120.007 60.2177 120.148C60.2177 120.288 60.1675 120.408 60.066 120.51C59.965 120.612 59.8437 120.662 59.7033 120.662C59.563 120.662 59.4423 120.612 59.3413 120.51C59.2397 120.408 59.189 120.288 59.189 120.148Z" fill="#1D1D1D"/>
<path d="M62.8651 122.109H61.9187V123.757C61.9187 123.861 61.9558 123.964 61.9606 124.065C61.9659 124.167 62.0024 124.258 62.0364 124.338C62.0699 124.419 62.1308 124.484 62.2007 124.533C62.2712 124.583 62.3782 124.608 62.5132 124.608C62.5962 124.608 62.6876 124.599 62.7761 124.584C62.8645 124.568 62.8651 124.539 63.0228 124.498V125.137C62.8651 125.184 62.8286 125.216 62.696 125.234C62.564 125.253 62.4594 125.262 62.3865 125.262C62.1165 125.262 61.9062 125.225 61.758 125.149C61.6099 125.074 61.5005 124.976 61.4306 124.857C61.3601 124.737 61.3189 124.603 61.3064 124.455C61.2932 124.307 61.2873 124.158 61.2873 124.007V122.109H60.3403V121.478H61.2873V120.374H61.9187V121.478H62.8651V122.109Z" fill="#1D1D1D"/>
<path d="M65.7377 123.371C65.5717 123.371 65.4014 123.39 65.2269 123.408C65.0531 123.427 64.8942 123.467 64.7514 123.519C64.6086 123.571 64.4915 123.646 64.4007 123.739C64.3093 123.833 64.2639 123.954 64.2639 124.099C64.2639 124.312 64.3356 124.466 64.4784 124.56C64.6211 124.653 64.8153 124.701 65.0597 124.701C65.252 124.701 65.4151 124.668 65.5507 124.604C65.6858 124.538 65.7951 124.454 65.8781 124.35C65.9612 124.246 65.9755 124.13 66.0114 124.003C66.0484 123.876 66.0209 123.75 66.0209 123.625V123.371H65.7377ZM63.7573 121.925C63.955 121.743 64.1832 121.607 64.4431 121.517C64.7036 121.425 64.9635 121.379 65.2234 121.379C65.4934 121.379 65.7258 121.413 65.9212 121.481C66.1159 121.548 66.2754 121.64 66.4003 121.754C66.5252 121.868 66.5598 121.999 66.6195 122.147C66.6793 122.295 66.6518 122.45 66.6518 122.612V124.498C66.6518 124.628 66.7121 124.717 66.7175 124.826C66.7223 124.935 66.7874 125.107 66.7982 125.107H66.1745C66.1589 124.95 66.1506 124.791 66.1506 124.633H66.1356C65.9791 124.791 65.7951 125.028 65.5818 125.127C65.3685 125.226 65.1218 125.269 64.841 125.269C64.6695 125.269 64.5058 125.242 64.3499 125.196C64.194 125.148 64.0572 125.076 63.9407 124.983C63.8236 124.89 63.7316 124.773 63.6635 124.635C63.5966 124.498 63.5625 124.337 63.5625 124.155C63.5625 123.917 63.6157 123.716 63.722 123.555C63.829 123.394 63.9741 123.262 64.1587 123.161C64.3433 123.06 64.559 122.998 64.8058 122.954C65.0531 122.911 65.3166 122.898 65.5973 122.898H66.0209V122.721C66.0209 122.627 66.0484 122.534 66.0114 122.44C65.9755 122.346 65.9439 122.263 65.871 122.186C65.7981 122.111 65.7186 122.051 65.6093 122.007C65.5006 121.963 65.3763 121.94 65.2251 121.94C65.0901 121.94 64.9748 121.954 64.8733 121.98C64.7717 122.006 64.6809 122.039 64.5978 122.077C64.5148 122.116 64.4401 122.162 64.3726 122.214C64.3051 122.265 64.2406 122.315 64.1779 122.363L63.7573 121.925Z" fill="#1D1D1D"/>
<path d="M69.492 122.109H68.5457V123.757C68.5457 123.861 68.5786 123.964 68.5839 124.065C68.5893 124.167 68.624 124.258 68.658 124.338C68.6915 124.419 68.7512 124.484 68.8217 124.533C68.8916 124.583 68.9979 124.608 69.1336 124.608C69.2166 124.608 69.2321 124.599 69.3206 124.584C69.409 124.568 69.492 124.539 69.492 124.498V125.137C69.492 125.184 69.3731 125.216 69.2405 125.234C69.1079 125.253 69.0416 125.262 68.9687 125.262C68.698 125.262 68.5075 125.225 68.3593 125.149C68.2105 125.074 68.1108 124.976 68.0409 124.857C67.9704 124.737 67.9375 124.603 67.9244 124.455C67.9118 124.307 67.9142 124.158 67.9142 124.007V122.109H66.9673V121.478H67.9142V120.374H68.5457V121.478H69.492V122.109Z" fill="#1D1D1D"/>
<path d="M73.1052 123.055C73.0999 122.898 73.0754 122.738 73.0311 122.607C72.9869 122.478 72.9206 122.355 72.8322 122.258C72.7444 122.162 72.6333 122.082 72.5012 122.027C72.3686 121.973 72.2139 121.943 72.037 121.943C71.8656 121.943 71.7084 121.974 71.5657 122.039C71.4223 122.104 71.3016 122.189 71.203 122.293C71.1038 122.396 71.0274 122.531 70.973 122.658C70.918 122.786 70.8912 122.898 70.8912 123.055H73.1052ZM70.8912 123.529C70.8912 123.687 70.9264 123.862 70.9963 123.994C71.0662 124.127 71.1588 124.252 71.2729 124.345C71.3876 124.438 71.5197 124.518 71.6708 124.57C71.8214 124.622 71.9773 124.651 72.1386 124.651C72.3567 124.651 72.546 124.602 72.7073 124.501C72.8686 124.399 73.0168 124.266 73.1518 124.1L73.6823 124.505C73.2922 125.01 72.7468 125.262 72.0448 125.262C71.7538 125.262 71.4898 125.212 71.2532 125.114C71.0166 125.015 70.8171 124.879 70.6534 124.705C70.4897 124.53 70.3636 124.325 70.2752 124.088C70.1868 123.852 70.1426 123.596 70.1426 123.321C70.1426 123.045 70.1904 122.79 70.2866 122.552C70.3827 122.316 70.5154 122.111 70.6844 121.937C70.8529 121.763 71.0549 121.626 71.2884 121.527C71.5226 121.429 71.7771 121.379 72.0526 121.379C72.3805 121.379 72.6572 121.436 72.883 121.551C73.1094 121.665 73.2946 121.815 73.441 121.999C73.5862 122.184 73.6399 122.392 73.705 122.623C73.7702 122.854 73.7516 123.089 73.7516 123.328V123.529H70.8912Z" fill="#1D1D1D"/>
<path d="M76.5361 123.371C76.37 123.371 76.1997 123.39 76.0259 123.408C75.8514 123.427 75.6925 123.467 75.5497 123.519C75.4069 123.571 75.2898 123.646 75.199 123.739C75.1082 123.833 75.0628 123.954 75.0628 124.099C75.0628 124.312 75.1339 124.466 75.2773 124.56C75.4201 124.653 75.6136 124.701 75.858 124.701C76.0504 124.701 76.2135 124.668 76.3491 124.604C76.4841 124.538 76.5934 124.454 76.6765 124.35C76.7595 124.246 76.8181 124.13 76.8539 124.003C76.8904 123.876 76.9071 123.75 76.9071 123.625V123.371H76.5361ZM74.5556 121.925C74.7534 121.743 74.9816 121.607 75.242 121.517C75.5019 121.425 75.7618 121.379 76.0217 121.379C76.2917 121.379 76.5241 121.413 76.7195 121.481C76.9143 121.548 77.0738 121.64 77.1986 121.754C77.3235 121.868 77.4024 121.999 77.4621 122.147C77.5218 122.295 77.538 122.45 77.538 122.612V124.498C77.538 124.628 77.5547 124.717 77.5595 124.826C77.5649 124.935 77.5858 125.107 77.5965 125.107H76.9728C76.9573 124.95 76.9495 124.791 76.9495 124.633H76.934C76.778 124.791 76.5934 125.028 76.3802 125.127C76.1669 125.226 75.9201 125.269 75.6399 125.269C75.4679 125.269 75.3042 125.242 75.1483 125.196C74.9923 125.148 74.8555 125.076 74.739 124.983C74.6219 124.89 74.5299 124.773 74.4624 124.635C74.3949 124.498 74.3608 124.337 74.3608 124.155C74.3608 123.917 74.414 123.716 74.5204 123.555C74.6273 123.394 74.7725 123.262 74.9571 123.161C75.1417 123.06 75.3574 122.998 75.6041 122.954C75.8514 122.911 76.1149 122.898 76.3957 122.898H76.9071V122.721C76.9071 122.627 76.8904 122.534 76.8539 122.44C76.8181 122.346 76.7637 122.263 76.6914 122.186C76.6185 122.111 76.5277 122.051 76.419 122.007C76.3097 121.963 76.18 121.94 76.0289 121.94C75.8938 121.94 75.7761 121.954 75.6746 121.98C75.573 122.006 75.481 122.039 75.398 122.077C75.3149 122.116 75.2391 122.162 75.1716 122.214C75.104 122.265 75.0389 122.315 74.9768 122.363L74.5556 121.925Z" fill="#1D1D1D"/>
<path d="M82.2276 124.607C82.4146 124.607 82.5837 124.575 82.7343 124.51C82.8854 124.445 83.0127 124.356 83.1166 124.245C83.2206 124.133 83.3006 123.997 83.358 123.839C83.4153 123.681 83.444 123.508 83.444 123.321C83.444 123.134 83.4153 122.961 83.358 122.803C83.3006 122.644 83.2206 122.509 83.1166 122.397C83.0127 122.285 82.8854 122.197 82.7343 122.132C82.5837 122.067 82.4146 122.034 82.2276 122.034C82.0406 122.034 81.8716 122.067 81.721 122.132C81.5699 122.197 81.4426 122.285 81.3387 122.397C81.2347 122.509 81.1541 122.644 81.0973 122.803C81.04 122.961 81.0113 123.134 81.0113 123.321C81.0113 123.508 81.04 123.681 81.0973 123.839C81.1541 123.997 81.2347 124.133 81.3387 124.245C81.4426 124.356 81.5699 124.445 81.721 124.51C81.8716 124.575 82.0406 124.607 82.2276 124.607ZM84.0068 125.107H83.3753V124.634H83.4285C83.2935 124.792 83.1077 124.987 82.8711 125.095C82.6345 125.205 82.3913 125.261 82.1416 125.261C81.856 125.261 81.5974 125.212 81.3661 125.113C81.1349 125.015 80.9372 124.877 80.7735 124.701C80.6098 124.524 80.4837 124.319 80.3953 124.085C80.3069 123.85 80.2627 123.597 80.2627 123.321C80.2627 123.045 80.3069 122.789 80.3953 122.553C80.4837 122.316 80.6098 122.111 80.7735 121.937C80.9372 121.762 81.1349 121.627 81.3661 121.528C81.5974 121.429 81.856 121.379 82.1416 121.379C82.4069 121.379 82.6566 121.409 82.8902 121.521C83.1244 121.633 83.3036 121.794 83.4285 121.952H83.3753V119.269H84.0068V125.107Z" fill="#1D1D1D"/>
<path d="M87.7947 123.055C87.7893 122.898 87.7648 122.738 87.7206 122.607C87.6764 122.478 87.6101 122.355 87.5217 122.258C87.4338 122.162 87.3227 122.082 87.1907 122.027C87.0581 121.973 86.9033 121.943 86.7265 121.943C86.555 121.943 86.3979 121.974 86.2551 122.039C86.1117 122.104 85.991 122.189 85.8925 122.293C85.7933 122.396 85.7168 122.531 85.6625 122.658C85.6075 122.786 85.5806 122.898 85.5806 123.055H87.7947ZM85.5806 123.529C85.5806 123.687 85.6159 123.862 85.6858 123.994C85.7557 124.127 85.8483 124.252 85.9624 124.345C86.0771 124.438 86.2091 124.518 86.3603 124.57C86.5108 124.622 86.6667 124.651 86.828 124.651C87.0467 124.651 87.2361 124.602 87.3968 124.501C87.5581 124.399 87.7063 124.266 87.8419 124.1L88.3718 124.505C87.9817 125.01 87.4362 125.262 86.7342 125.262C86.4433 125.262 86.1792 125.212 85.9432 125.114C85.7067 125.015 85.5065 124.879 85.3428 124.705C85.1791 124.53 85.0531 124.325 84.9647 124.088C84.8762 123.852 84.832 123.596 84.832 123.321C84.832 123.045 84.8798 122.79 84.9766 122.552C85.0722 122.316 85.2048 122.111 85.3739 121.937C85.5424 121.763 85.7443 121.626 85.9779 121.527C86.2121 121.429 86.4666 121.379 86.742 121.379C87.07 121.379 87.3466 121.436 87.5724 121.551C87.7989 121.665 87.9847 121.815 88.1304 121.999C88.2756 122.184 88.3216 122.392 88.3867 122.623C88.4519 122.854 88.425 123.089 88.425 123.328V123.529H85.5806Z" fill="#1D1D1D"/>
<path d="M90.6636 119.585H91.5292L93.1507 124.16H93.1662L94.8504 119.585H95.6688L93.4936 125.107H92.7922L90.6636 119.585Z" fill="#1D1D1D"/>
<path d="M98.3123 123.055C98.3069 122.898 98.2824 122.738 98.2382 122.607C98.194 122.478 98.1277 122.355 98.0392 122.258C97.9514 122.162 97.8409 122.082 97.7083 122.027C97.5756 121.973 97.4209 121.943 97.2441 121.943C97.0726 121.943 96.9155 121.974 96.7727 122.039C96.6299 122.104 96.5086 122.189 96.41 122.293C96.3109 122.396 96.2344 122.531 96.18 122.658C96.1257 122.786 96.0982 122.898 96.0982 123.055H98.3123ZM96.0982 123.529C96.0982 123.687 96.1334 123.862 96.2033 123.994C96.2738 124.127 96.3658 124.252 96.4799 124.345C96.5947 124.438 96.7267 124.518 96.8778 124.57C97.029 124.622 97.1843 124.651 97.3456 124.651C97.5643 124.651 97.7537 124.602 97.915 124.501C98.0757 124.399 98.2238 124.266 98.3595 124.1L98.8894 124.505C98.4993 125.01 97.9538 125.262 97.2524 125.262C96.9609 125.262 96.6974 125.212 96.4608 125.114C96.2236 125.015 96.0241 124.879 95.8604 124.705C95.6967 124.53 95.5707 124.325 95.4822 124.088C95.3938 123.852 95.3496 123.596 95.3496 123.321C95.3496 123.045 95.3974 122.79 95.4942 122.552C95.5898 122.316 95.723 122.111 95.8915 121.937C96.0606 121.763 96.2619 121.626 96.4955 121.527C96.7297 121.429 96.9842 121.379 97.2596 121.379C97.5876 121.379 97.8642 121.436 98.09 121.551C98.3164 121.665 98.5022 121.815 98.648 121.999C98.7932 122.184 98.8655 122.392 98.9306 122.623C98.9957 122.854 98.9957 123.089 98.9957 123.328V123.529H96.0982Z" fill="#1D1D1D"/>
<path d="M101.712 122.401C101.629 122.297 101.526 122.21 101.404 122.14C101.282 122.069 101.132 122.035 100.956 122.035C100.789 122.035 100.645 122.069 100.523 122.14C100.401 122.21 100.34 122.313 100.34 122.447C100.34 122.557 100.375 122.645 100.445 122.712C100.515 122.78 100.598 122.836 100.694 122.876C100.791 122.918 100.893 122.949 101.002 122.97C101.111 122.991 101.205 123.01 101.283 123.025C101.433 123.06 101.575 123.105 101.708 123.157C101.84 123.21 101.954 123.277 102.051 123.36C102.147 123.443 102.222 123.544 102.277 123.664C102.331 123.783 102.359 123.929 102.359 124.101C102.359 124.308 102.315 124.486 102.226 124.635C102.138 124.782 102.024 124.903 101.883 124.997C101.743 125.09 101.583 125.158 101.404 125.2C101.224 125.242 101.044 125.262 100.862 125.262C100.555 125.262 100.286 125.215 100.055 125.122C99.8234 125.028 99.6173 124.856 99.4351 124.607L99.9656 124.17C100.08 124.285 100.207 124.386 100.347 124.475C100.488 124.563 100.659 124.607 100.862 124.607C100.95 124.607 101.04 124.598 101.131 124.58C101.222 124.562 101.303 124.533 101.373 124.494C101.443 124.455 101.5 124.406 101.544 124.346C101.588 124.286 101.61 124.217 101.61 124.139C101.61 124.035 101.578 123.95 101.513 123.882C101.448 123.814 101.37 123.761 101.279 123.722C101.188 123.683 101.092 123.652 100.991 123.629C100.889 123.605 100.8 123.586 100.721 123.57C100.571 123.534 100.428 123.492 100.293 123.445C100.157 123.399 100.038 123.336 99.9339 123.259C99.83 123.18 99.7469 123.082 99.6842 122.962C99.6221 122.842 99.591 122.694 99.591 122.517C99.591 122.326 99.6316 122.158 99.7117 122.015C99.7923 121.872 99.8993 121.754 100.031 121.66C100.165 121.567 100.315 121.496 100.484 121.449C100.653 121.403 100.823 121.379 100.994 121.379C101.244 121.379 101.483 121.426 101.712 121.52C101.941 121.613 102.122 121.769 102.258 121.988L101.712 122.401Z" fill="#1D1D1D"/>
<path d="M104.991 122.109H103.886V123.757C103.886 123.861 103.959 123.964 103.964 124.065C103.97 124.167 104.024 124.258 104.058 124.338C104.092 124.419 104.161 124.484 104.232 124.533C104.302 124.583 104.413 124.608 104.548 124.608C104.632 124.608 104.689 124.599 104.777 124.584C104.866 124.568 104.991 124.539 104.991 124.498V125.137C104.833 125.184 104.832 125.216 104.7 125.234C104.568 125.253 104.481 125.262 104.408 125.262C104.138 125.262 103.937 125.225 103.789 125.149C103.641 125.074 103.536 124.976 103.465 124.857C103.395 124.737 103.321 124.603 103.308 124.455C103.294 124.307 103.255 124.158 103.255 124.007V122.109H102.466V121.478H103.255V120.374H103.886V121.478H104.991V122.109Z" fill="#1D1D1D"/>
<path d="M109.578 124.607C109.765 124.607 109.934 124.575 110.085 124.51C110.236 124.445 110.363 124.356 110.467 124.245C110.571 124.133 110.651 123.997 110.709 123.839C110.766 123.681 110.795 123.508 110.795 123.321C110.795 123.134 110.766 122.961 110.709 122.803C110.651 122.644 110.571 122.509 110.467 122.397C110.363 122.285 110.236 122.197 110.085 122.132C109.934 122.067 109.765 122.034 109.578 122.034C109.391 122.034 109.222 122.067 109.072 122.132C108.92 122.197 108.793 122.285 108.689 122.397C108.585 122.509 108.505 122.644 108.448 122.803C108.391 122.961 108.362 123.134 108.362 123.321C108.362 123.508 108.391 123.681 108.448 123.839C108.505 123.997 108.585 124.133 108.689 124.245C108.793 124.356 108.92 124.445 109.072 124.51C109.222 124.575 109.391 124.607 109.578 124.607ZM111.459 125.107H110.67V124.634H110.779C110.643 124.792 110.458 124.987 110.222 125.095C109.985 125.205 109.742 125.261 109.492 125.261C109.207 125.261 108.948 125.212 108.717 125.113C108.486 125.015 108.288 124.877 108.124 124.701C107.96 124.524 107.834 124.319 107.746 124.085C107.657 123.85 107.613 123.597 107.613 123.321C107.613 123.045 107.657 122.789 107.746 122.553C107.834 122.316 107.96 122.111 108.124 121.937C108.288 121.762 108.486 121.627 108.717 121.528C108.948 121.429 109.207 121.379 109.492 121.379C109.757 121.379 110.007 121.409 110.241 121.521C110.474 121.633 110.654 121.794 110.779 121.952H110.67V119.269H111.459V125.107Z" fill="#1D1D1D"/>
<path d="M112.406 121.478H113.037V125.107H112.406V121.478ZM112.292 120.148C112.292 120.007 112.342 119.886 112.443 119.785C112.545 119.683 112.666 119.633 112.806 119.633C112.946 119.633 113.067 119.683 113.169 119.785C113.27 119.886 113.321 120.007 113.321 120.148C113.321 120.288 113.27 120.408 113.169 120.51C113.067 120.612 112.946 120.662 112.806 120.662C112.666 120.662 112.545 120.612 112.443 120.51C112.342 120.408 112.292 120.288 112.292 120.148Z" fill="#1D1D1D"/>
<path d="M113.984 121.478H114.773V122.109H114.833C114.922 121.793 115.075 121.718 115.293 121.596C115.512 121.474 115.764 121.396 116.05 121.396C116.227 121.396 116.397 121.416 116.561 121.47C116.724 121.524 116.867 121.605 116.99 121.719C117.111 121.833 117.162 121.978 117.234 122.157C117.307 122.336 117.297 122.546 117.297 122.79V125.107H116.666V122.985C116.666 122.814 116.654 122.667 116.608 122.545C116.561 122.423 116.504 122.324 116.426 122.249C116.349 122.173 116.262 122.119 116.16 122.085C116.059 122.051 115.955 122.035 115.846 122.035C115.7 122.035 115.566 122.058 115.441 122.105C115.316 122.151 115.207 122.225 115.114 122.327C115.02 122.428 114.925 122.557 114.873 122.712C114.821 122.869 114.773 123.053 114.773 123.266V125.107H113.984V121.478Z" fill="#1D1D1D"/>
<path d="M121.557 120.373H119.821V119.585H124.082V120.373H122.345V125.107H121.557V120.373Z" fill="#1D1D1D"/>
<path d="M124.555 121.478H125.343V125.107H124.555V121.478ZM124.517 120.148C124.517 120.007 124.568 119.886 124.669 119.785C124.77 119.683 124.891 119.633 125.031 119.633C125.172 119.633 125.293 119.683 125.394 119.785C125.496 119.886 125.546 120.007 125.546 120.148C125.546 120.288 125.496 120.408 125.394 120.51C125.293 120.612 125.172 120.662 125.031 120.662C124.891 120.662 124.77 120.612 124.669 120.51C124.568 120.408 124.517 120.288 124.517 120.148Z" fill="#1D1D1D"/>
<path d="M126.29 121.478H126.921V122.109H127.012C127.027 121.952 127.067 121.963 127.132 121.885C127.198 121.807 127.281 121.717 127.382 121.648C127.483 121.578 127.603 121.51 127.741 121.461C127.879 121.412 128.03 121.383 128.196 121.383C128.472 121.383 128.704 121.439 128.891 121.553C129.078 121.667 129.231 121.839 129.351 122.066C129.47 121.839 129.639 121.665 129.857 121.551C130.075 121.437 130.297 121.379 130.52 121.379C130.806 121.379 131.04 121.426 131.222 121.52C131.404 121.614 131.547 121.738 131.651 121.89C131.755 122.043 131.77 122.217 131.809 122.412C131.848 122.608 131.812 122.81 131.812 123.017V125.107H131.181V123.11C131.181 122.97 131.193 122.835 131.174 122.705C131.156 122.575 131.129 122.461 131.071 122.361C131.014 122.263 130.939 122.184 130.835 122.124C130.731 122.064 130.596 122.035 130.424 122.035C130.086 122.035 129.827 122.138 129.681 122.346C129.536 122.554 129.446 122.821 129.446 123.149V125.107H128.656V123.235C128.656 123.059 128.71 122.897 128.692 122.752C128.673 122.606 128.668 122.48 128.614 122.373C128.559 122.267 128.497 122.184 128.395 122.124C128.294 122.064 128.165 122.035 127.995 122.035C127.87 122.035 127.753 122.059 127.635 122.109C127.518 122.158 127.418 122.232 127.33 122.33C127.241 122.43 127.111 122.556 127.059 122.709C127.007 122.862 126.921 123.043 126.921 123.251V125.107H126.29V121.478Z" fill="#1D1D1D"/>
<path d="M132.759 121.478H133.548V125.107H132.759V121.478ZM132.719 120.148C132.719 120.007 132.77 119.886 132.871 119.785C132.973 119.683 133.093 119.633 133.234 119.633C133.374 119.633 133.495 119.683 133.596 119.785C133.698 119.886 133.748 120.007 133.748 120.148C133.748 120.288 133.698 120.408 133.596 120.51C133.495 120.612 133.374 120.662 133.234 120.662C133.093 120.662 132.973 120.612 132.871 120.51C132.77 120.408 132.719 120.288 132.719 120.148Z" fill="#1D1D1D"/>
<path d="M135.643 127H135.027L135.525 125.58H136.251L135.643 127ZM136.508 122.401C136.425 122.297 136.322 122.209 136.2 122.139C136.078 122.069 135.929 122.034 135.752 122.034C135.585 122.034 135.441 122.069 135.319 122.139C135.197 122.209 135.136 122.312 135.136 122.448C135.136 122.557 135.171 122.645 135.241 122.712C135.311 122.781 135.394 122.835 135.491 122.877C135.586 122.918 135.689 122.949 135.799 122.97C135.908 122.991 136.002 123.009 136.079 123.025C136.23 123.061 136.371 123.105 136.504 123.157C136.637 123.209 136.751 123.277 136.848 123.36C136.943 123.443 137.019 123.544 137.073 123.664C137.128 123.783 137.155 123.929 137.155 124.1C137.155 124.309 137.111 124.487 137.023 124.635C136.934 124.782 136.82 124.904 136.68 124.997C136.539 125.091 136.379 125.158 136.2 125.199C136.021 125.242 135.84 125.262 135.658 125.262C135.352 125.262 135.083 125.215 134.852 125.122C134.62 125.028 134.413 124.856 134.231 124.607L134.761 124.171C134.876 124.285 135.003 124.386 135.144 124.474C135.284 124.563 135.456 124.607 135.658 124.607C135.747 124.607 135.836 124.598 135.927 124.58C136.018 124.562 136.099 124.533 136.169 124.494C136.239 124.455 136.296 124.406 136.34 124.347C136.385 124.286 136.407 124.217 136.407 124.14C136.407 124.036 136.374 123.951 136.309 123.882C136.244 123.815 136.166 123.761 136.076 123.723C135.984 123.683 135.888 123.652 135.787 123.629C135.686 123.605 135.596 123.586 135.518 123.57C135.367 123.534 135.224 123.492 135.089 123.445C134.954 123.399 134.834 123.336 134.73 123.258C134.626 123.18 134.543 123.081 134.481 122.962C134.418 122.842 134.387 122.694 134.387 122.517C134.387 122.326 134.427 122.158 134.508 122.014C134.589 121.872 134.696 121.754 134.828 121.66C134.96 121.566 135.111 121.496 135.28 121.449C135.449 121.403 135.619 121.379 135.791 121.379C136.04 121.379 136.279 121.426 136.508 121.52C136.736 121.613 136.919 121.769 137.054 121.988L136.508 122.401Z" fill="#1D1D1D"/>
<path d="M138.418 123.321C138.418 123.508 138.446 123.682 138.504 123.839C138.561 123.998 138.641 124.133 138.745 124.245C138.849 124.356 138.977 124.445 139.127 124.51C139.278 124.576 139.447 124.607 139.634 124.607C139.821 124.607 139.99 124.576 140.141 124.51C140.292 124.445 140.419 124.356 140.523 124.245C140.627 124.133 140.708 123.998 140.765 123.839C140.822 123.682 140.851 123.508 140.851 123.321C140.851 123.135 140.822 122.961 140.765 122.802C140.708 122.643 140.627 122.51 140.523 122.397C140.419 122.286 140.292 122.197 140.141 122.132C139.99 122.066 139.821 122.035 139.634 122.035C139.447 122.035 139.278 122.066 139.127 122.132C138.977 122.197 138.849 122.286 138.745 122.397C138.641 122.51 138.561 122.643 138.504 122.802C138.446 122.961 138.418 123.135 138.418 123.321ZM137.669 123.321C137.669 123.051 137.72 122.798 137.821 122.564C137.923 122.33 138.062 122.125 138.239 121.949C138.415 121.772 138.623 121.633 138.862 121.532C139.101 121.43 139.358 121.379 139.634 121.379C139.91 121.379 140.167 121.43 140.406 121.532C140.645 121.633 140.853 121.772 141.03 121.949C141.206 122.125 141.345 122.33 141.447 122.564C141.549 122.798 141.599 123.051 141.599 123.321C141.599 123.591 141.549 123.844 141.447 124.081C141.345 124.317 141.206 124.523 141.03 124.697C140.853 124.871 140.645 125.009 140.406 125.11C140.167 125.211 139.91 125.262 139.634 125.262C139.358 125.262 139.101 125.211 138.862 125.11C138.623 125.009 138.415 124.871 138.239 124.697C138.062 124.523 137.923 124.317 137.821 124.081C137.72 123.844 137.669 123.591 137.669 123.321" fill="#1D1D1D"/>
<path d="M144.32 123.371C144.154 123.371 143.983 123.39 143.81 123.408C143.635 123.427 143.476 123.467 143.333 123.519C143.191 123.571 143.074 123.646 142.983 123.739C142.892 123.833 142.847 123.954 142.847 124.099C142.847 124.312 142.918 124.466 143.061 124.56C143.204 124.653 143.397 124.701 143.642 124.701C143.834 124.701 143.997 124.668 144.133 124.604C144.268 124.538 144.377 124.454 144.46 124.35C144.543 124.246 144.552 124.13 144.588 124.003C144.624 123.876 144.592 123.75 144.592 123.625V123.371H144.32ZM142.34 121.925C142.537 121.743 142.766 121.607 143.026 121.517C143.286 121.425 143.546 121.379 143.805 121.379C144.075 121.379 144.308 121.413 144.503 121.481C144.698 121.548 144.858 121.64 144.982 121.754C145.107 121.868 145.136 121.999 145.196 122.147C145.256 122.295 145.222 122.45 145.222 122.612V124.498C145.222 124.628 145.288 124.717 145.294 124.826C145.299 124.935 145.369 125.107 145.38 125.107H144.756C144.741 124.95 144.733 124.791 144.733 124.633H144.718C144.562 124.791 144.377 125.028 144.164 125.127C143.951 125.226 143.704 125.269 143.424 125.269C143.252 125.269 143.088 125.242 142.932 125.196C142.776 125.148 142.64 125.076 142.523 124.983C142.406 124.89 142.314 124.773 142.246 124.635C142.179 124.498 142.145 124.337 142.145 124.155C142.145 123.917 142.198 123.716 142.305 123.555C142.411 123.394 142.557 123.262 142.741 123.161C142.925 123.06 143.141 122.998 143.388 122.954C143.635 122.911 143.899 122.898 144.18 122.898H144.592V122.721C144.592 122.627 144.624 122.534 144.588 122.44C144.552 122.346 144.523 122.263 144.45 122.186C144.377 122.111 144.299 122.051 144.19 122.007C144.081 121.963 143.958 121.94 143.807 121.94C143.672 121.94 143.556 121.954 143.455 121.98C143.354 122.006 143.263 122.039 143.18 122.077C143.097 122.116 143.022 122.162 142.955 122.214C142.887 122.265 142.823 122.315 142.76 122.363L142.34 121.925Z" fill="#1D1D1D"/>
<path d="M146.169 121.478H146.8V122.109H146.932C146.978 121.952 147.041 121.888 147.119 121.806C147.197 121.726 147.284 121.64 147.38 121.584C147.477 121.526 147.582 121.472 147.696 121.439C147.811 121.404 147.925 121.383 148.039 121.383C148.153 121.383 148.257 121.397 148.351 121.428L148.32 122.183C148.262 122.168 148.205 122.155 148.148 122.144C148.091 122.134 148.034 122.128 147.977 122.128C147.634 122.128 147.314 122.224 147.131 122.416C146.949 122.61 146.8 122.908 146.8 123.313V125.107H146.169V121.478Z" fill="#1D1D1D"/>
<path d="M150.94 123.371C150.773 123.371 150.604 123.39 150.429 123.408C150.255 123.427 150.096 123.467 149.954 123.519C149.811 123.571 149.694 123.646 149.603 123.739C149.511 123.833 149.466 123.954 149.466 124.099C149.466 124.312 149.538 124.466 149.681 124.56C149.824 124.653 150.017 124.701 150.262 124.701C150.454 124.701 150.617 124.668 150.753 124.604C150.888 124.538 150.997 124.454 151.08 124.35C151.163 124.246 151.175 124.13 151.212 124.003C151.248 123.876 151.218 123.75 151.218 123.625V123.371H150.94ZM148.959 121.925C149.157 121.743 149.385 121.607 149.645 121.517C149.906 121.425 150.166 121.379 150.425 121.379C150.696 121.379 150.928 121.413 151.123 121.481C151.318 121.548 151.478 121.64 151.602 121.754C151.727 121.868 151.76 121.999 151.82 122.147C151.88 122.295 151.849 122.45 151.849 122.612V124.498C151.849 124.628 151.912 124.717 151.917 124.826C151.922 124.935 151.99 125.107 152 125.107H151.376C151.361 124.95 151.353 124.791 151.353 124.633H151.338C151.181 124.791 150.997 125.028 150.784 125.127C150.571 125.226 150.324 125.269 150.043 125.269C149.872 125.269 149.708 125.242 149.552 125.196C149.396 125.148 149.259 125.076 149.143 124.983C149.026 124.89 148.934 124.773 148.866 124.635C148.798 124.498 148.765 124.337 148.765 124.155C148.765 123.917 148.818 123.716 148.924 123.555C149.031 123.394 149.176 123.262 149.361 123.161C149.545 123.06 149.761 122.998 150.008 122.954C150.255 122.911 150.519 122.898 150.799 122.898H151.218V122.721C151.218 122.627 151.248 122.534 151.212 122.44C151.175 122.346 151.144 122.263 151.072 122.186C150.999 122.111 150.92 122.051 150.811 122.007C150.702 121.963 150.578 121.94 150.427 121.94C150.292 121.94 150.176 121.954 150.075 121.98C149.974 122.006 149.883 122.039 149.8 122.077C149.717 122.116 149.642 122.162 149.575 122.214C149.507 122.265 149.443 122.315 149.38 122.363L148.959 121.925Z" fill="#1D1D1D"/>
<path d="M124.723 67.2799L128.102 67.3032L127.896 98.8534C127.896 98.8534 127.787 105.055 119.657 105.138C111.528 105.225 111.156 98.5398 111.156 98.5398L111.358 67.195L113.148 67.204L112.949 98.3462C112.949 98.3462 113.679 102.652 119.503 102.589C124.194 101.861 124.475 98.7865 124.475 98.7865L124.723 67.2799Z" fill="#1D1D1D"/>
<path d="M100.486 62.7087C101.912 61.1189 103.136 60.1164 103.136 60.1164L101.302 60.1039C101.302 60.1039 99.958 61.1321 98.3241 62.6967L78.6328 62.588L84.4697 65.3224L95.7796 65.3953C93.9467 67.5849 92.4059 70.1263 92.5876 72.3548C92.8146 80.0735 103.809 84.0901 102.946 90.056C102.08 96.0225 93.3063 103.129 93.3063 103.129L94.488 104.975C94.488 104.975 106.577 95.2709 106.546 88.4268C106.583 83.0093 98.2649 79.1666 96.4374 73.7551C95.4958 70.8946 96.7212 67.8788 98.3695 65.412L131.946 65.6283L131.689 105.214L136.188 105.245L136.31 65.6582L142.53 65.6964L142.545 62.9435L100.486 62.7087Z" fill="#1D1D1D"/>
<path d="M68.9363 62.519C82.94 62.6063 94.2266 72.1633 94.1549 83.8461C94.0755 95.5557 82.67 104.95 68.6656 104.865C67.7982 104.861 66.9462 104.816 66.1021 104.745L66.2233 102.849C66.9588 102.913 67.7187 102.951 68.4948 102.957C79.9618 103.04 89.3104 94.46 89.3892 83.8024C89.4436 73.1616 80.2068 64.4661 68.7397 64.3914L68.7361 62.522C68.803 62.5208 68.8693 62.5196 68.9363 62.519Z" fill="#1D1D1D"/>
<path d="M68.7363 62.522L68.7399 64.3913C57.2812 64.316 47.9326 72.888 47.8621 83.5365C47.7976 93.5339 54.9423 101.803 66.2235 102.849L66.1022 104.745C53.3089 103.589 43.3814 94.4862 43.4555 83.5198C43.5284 71.8944 54.8419 62.5172 68.7363 62.522Z" fill="#1D1D1D"/>
<path d="M80.8778 70.6742C79.8448 70.3241 78.8836 69.9035 77.8542 69.5528C76.1384 68.9232 74.4895 68.7051 72.6996 68.487C71.6696 68.3544 70.6468 68.3114 69.6234 68.3114C67.7702 68.3114 65.9187 68.4518 64.0566 68.453C63.5876 68.4518 63.1168 68.4446 62.6442 68.4213C62.5403 68.4129 62.4399 68.4094 62.3395 68.4094C60.5944 68.4082 59.3882 69.5923 57.6814 70.0445C56.7088 70.3134 55.6059 70.1688 54.6488 70.4376L54.6333 70.3845C55.6077 70.1144 56.7088 70.2584 57.6659 69.9914C59.3554 69.5475 60.567 68.3562 62.3395 68.3544C62.4417 68.3544 62.5439 68.358 62.6478 68.3669C63.118 68.3885 63.5876 68.3974 64.0566 68.3974C65.9175 68.3974 67.766 68.2564 69.6234 68.2564C70.648 68.2564 71.6732 68.2994 72.7061 68.4321C74.496 68.6507 76.1509 68.8694 77.8715 69.5009C78.9051 69.8522 79.8657 70.2733 80.8951 70.6222C81.5792 70.8343 82.4048 70.9066 83.0297 71.188L83.0082 71.2382C82.394 70.9622 81.5702 70.8875 80.8778 70.6742Z" fill="#1D1D1D"/>
<path d="M52.7013 94.7767L52.6919 94.776V94.7767H52.7013Z" fill="#1D1D1D"/>
<path d="M55.3946 76.2483C53.585 76.5351 50.7101 75.9418 48.9495 76.2692L48.7314 76.3104L48.7733 76.5273L48.7834 76.5823L49.0051 76.5608L49.0308 76.7023L49.0409 76.7567C50.6062 76.4646 53.0013 76.9103 54.8694 76.8003C55.0212 76.5888 55.198 76.4066 55.3946 76.2483Z" fill="#1D1D1D"/>
<path d="M88.9928 77.2337C87.6079 76.7235 83.5478 77.4559 82.2144 77.2444C79.9178 76.8256 77.7145 75.8632 75.2447 75.7013C75.2286 75.7007 75.2161 75.724 75.2149 75.724H75.1856C73.4877 75.724 71.9069 76.2915 70.3924 76.3411C69.2711 76.3853 67.6419 76.6715 66.2905 76.6715H66.2869C65.6686 76.6715 65.5317 76.6177 65.1321 76.4421L64.9289 76.362L64.9224 76.3824C65.0162 76.4499 65.1058 76.5227 65.19 76.5992C65.3585 76.7498 65.5031 76.9224 65.6249 77.1142C65.9625 77.1751 65.9081 77.1984 66.2869 77.1984C67.7094 77.1972 69.3577 76.8806 70.4115 76.8424C72.0318 76.779 73.5964 76.1971 75.1665 76.1971H75.1856C75.2011 76.1971 75.2119 76.1858 75.222 76.1858C77.567 76.3334 79.7518 77.2988 82.1319 77.7385L82.1421 77.6812C82.1439 77.6812 82.1457 77.68 82.1457 77.68L82.1367 77.7337C83.5544 77.95 87.5888 77.2343 88.8183 77.6979L89.0239 77.775L89.2001 77.3108L88.9928 77.2337Z" fill="#1D1D1D"/>
<path d="M87.6867 75.6304C87.4107 75.53 86.6824 75.5982 86.5426 75.5695C85.8932 75.4386 85.2282 75.3926 84.5675 75.346C83.1235 75.2457 81.747 75.0551 80.349 74.6703C78.9003 74.2713 77.4826 73.9504 75.9717 73.9367C74.1173 73.9194 72.2551 74.3507 70.4084 74.1076C69.2864 73.9624 68.269 73.6924 67.2223 73.6924C66.5436 73.6924 65.8524 73.6708 65.117 73.7569C64.7615 73.7969 64.4066 73.8124 64.0512 73.8124C62.5343 73.8136 61.8371 73.6177 60.3059 73.6165C60.052 73.6165 59.7975 73.6254 59.5418 73.644C57.8164 73.7258 56.4662 74.8508 54.947 74.8956C53.8549 74.9601 52.5094 75.0216 51.4078 75.0216C51.3636 75.0216 51.3241 75.021 51.2817 75.021L49.8306 75.0198V75.3233V75.5671H51.2763H51.4078C52.5274 75.5671 53.8776 75.5038 54.9702 75.4374C56.6968 75.3538 58.0476 74.23 59.5681 74.187C59.8208 74.1685 60.0621 74.1601 60.3059 74.1601C61.5175 74.1595 62.7595 74.3543 64.0512 74.3561C64.421 74.3561 64.7938 74.34 65.172 74.2987C66.9732 74.0884 68.7452 74.466 70.5393 74.6703C71.7891 74.8113 73.0437 74.5401 74.2983 74.5108C75.5206 74.4822 76.7477 74.4618 77.9605 74.6447C79.1667 74.8239 80.3467 75.2134 81.5325 75.4936C82.8666 75.809 84.1039 75.9542 85.472 75.9488C85.4702 75.9369 85.4708 75.8993 85.4768 75.8879C85.4816 75.8981 85.4851 75.9405 85.4828 75.9488C85.7038 75.9865 88.2942 76.3736 88.1258 75.9709C88.0875 75.8789 87.842 75.6872 87.6867 75.6304Z" fill="#1D1D1D"/>
<path d="M83.4963 69.9158C83.4431 69.9158 83.3893 69.9026 83.3403 69.8722C83.0793 69.7115 82.4197 69.5627 81.8372 69.4307C81.2302 69.2938 80.6567 69.1642 80.3377 68.9945C80.0676 68.8506 79.8012 68.6958 79.5437 68.5453C79.199 68.3445 78.8423 68.1366 78.4827 67.9616C77.8046 67.6288 77.1193 67.5093 76.394 67.3833C76.1569 67.3414 75.9161 67.2996 75.6712 67.25C75.4716 67.2094 75.2757 67.1915 75.0815 67.1479C74.4231 67.0015 73.8018 66.8892 73.1333 66.8892H73.1261C72.7282 66.8892 72.3196 66.8916 71.9247 66.9173C71.4378 66.9507 70.9335 66.9716 70.4293 66.9579C69.7889 66.9412 69.1496 66.8665 68.5319 66.8002C67.2432 66.6646 66.0263 66.5313 64.7818 66.8169C64.2949 66.9268 63.8062 67.0654 63.3336 67.2017C62.6669 67.3934 61.9775 67.5906 61.2671 67.7154C60.6912 67.817 59.9874 67.9867 59.243 68.1659C57.7787 68.519 56.1185 68.9193 54.8979 68.9193C54.7325 68.9193 54.5986 68.7854 54.5986 68.6205C54.5986 68.4557 54.7325 68.3212 54.8979 68.3212C56.0474 68.3212 57.6706 67.9299 59.1026 67.5852C59.8566 67.4024 60.5693 67.2309 61.1638 67.1258C61.8431 67.0069 62.517 66.8139 63.1688 66.6251C63.6491 66.4877 64.1455 66.3443 64.6486 66.2296C65.991 65.9226 67.3149 66.0635 68.5946 66.1992C69.2016 66.2643 69.8289 66.3306 70.446 66.3473C70.9228 66.3617 71.4115 66.3366 71.8846 66.3049C72.2891 66.2774 72.7073 66.2577 73.1249 66.2577H73.1333C73.8675 66.2577 74.5504 66.4005 75.2111 66.5475C75.4023 66.5911 75.5947 66.6287 75.79 66.6681C76.0296 66.7171 76.265 66.756 76.4968 66.796C77.2651 66.9304 77.991 67.0553 78.7455 67.4251C79.1249 67.6115 79.4905 67.823 79.8448 68.0297C80.0975 68.1767 80.3586 68.3284 80.6185 68.4664C80.8664 68.599 81.4274 68.7257 81.9692 68.8482C82.6575 69.0047 83.3075 69.1505 83.6528 69.362C83.7938 69.4486 83.8374 69.632 83.7514 69.773C83.6952 69.865 83.5966 69.9158 83.4963 69.9158Z" fill="#1D1D1D"/>
<path d="M82.6914 71.4274C82.591 71.4274 82.5103 71.4196 82.4482 71.4035C82.2666 71.3557 82.0814 71.3217 81.886 71.2858C81.7056 71.2529 81.5192 71.2183 81.334 71.1723C81.0532 71.1018 80.791 70.9978 80.537 70.8975C80.2891 70.7995 80.0549 70.7069 79.81 70.6454C79.2526 70.5056 78.7256 70.2857 78.2166 70.073C77.8301 69.9123 77.4316 69.7462 77.0319 69.6214C76.404 69.4242 75.7325 69.3053 75.0825 69.19C74.8173 69.1434 74.5526 69.0962 74.2909 69.0443C72.9927 68.788 71.7184 68.7509 70.37 68.7103C69.9697 68.6989 69.5676 68.6864 69.1626 68.6691C68.19 68.6267 67.1953 68.6715 66.2328 68.7157C65.4902 68.7497 64.7225 68.7844 63.9632 68.7796L63.6149 68.7766C62.2641 68.7629 60.8673 68.7485 59.7071 69.4463C59.023 69.858 58.3545 70.073 57.6143 70.2941C57.1495 70.4315 56.3866 70.4894 55.5782 70.551C54.577 70.628 53.4424 70.7147 52.9364 70.962C52.7877 71.0343 52.609 70.9722 52.5361 70.824C52.4638 70.6758 52.5254 70.4966 52.6741 70.4243C53.2829 70.1268 54.4264 70.0402 55.5328 69.9553C56.3083 69.8962 57.0402 69.84 57.444 69.7205C58.1448 69.512 58.7751 69.3095 59.3994 68.9337C60.7042 68.1487 62.1876 68.1636 63.6214 68.1792L63.9673 68.1816C64.7117 68.1875 65.4705 68.1523 66.2053 68.1182C67.1809 68.0734 68.1894 68.0274 69.1889 68.0716C69.5909 68.089 69.9906 68.1015 70.3879 68.1129C71.7011 68.1517 73.0596 68.1917 74.4068 68.4576C74.6649 68.509 74.9254 68.555 75.1865 68.6022C75.855 68.7198 76.5462 68.8423 77.2106 69.0502C77.6359 69.1829 78.0482 69.3549 78.4466 69.5222C78.958 69.7349 79.4414 69.9368 79.9551 70.0659C80.2383 70.1364 80.5018 70.2409 80.7569 70.3419C81.0036 70.4398 81.2366 70.5319 81.4786 70.5928C81.6459 70.634 81.8149 70.6651 81.9942 70.6979C82.1919 70.7344 82.3968 70.7714 82.6 70.8252C82.7541 70.858 83.5075 70.7505 83.9119 70.6932C84.3534 70.6292 84.6294 70.591 84.7776 70.5934C84.9425 70.5964 85.0739 70.7326 85.0709 70.8975C85.0679 71.063 84.9377 71.1914 84.7668 71.1908C84.6647 71.1896 84.3086 71.2404 83.9968 71.2846C83.4029 71.3689 82.9716 71.4274 82.6914 71.4274Z" fill="#1D1D1D"/>
<path d="M86.3859 73.1246C86.3399 73.1246 86.2933 73.1139 86.2497 73.0912C85.5489 72.7315 83.9341 72.6306 82.6358 72.5493C81.205 72.4603 79.7897 71.9788 78.4216 71.5128C76.9674 71.0187 75.4637 70.5061 73.9755 70.4864C73.4784 70.4798 72.9694 70.5145 72.4772 70.5479C71.998 70.579 71.5045 70.6142 71.0081 70.6095C70.3306 70.6059 69.6471 70.5676 68.9864 70.53C68.6452 70.5109 68.3041 70.4912 67.9624 70.4762C67.4325 70.4535 66.8966 70.4147 66.3792 70.3765C65.7047 70.3275 65.0075 70.2767 64.324 70.2624C62.3531 70.2217 60.6767 70.766 58.9914 71.3778C57.2487 72.0104 52.8892 72.7447 51.1143 71.836C50.9673 71.7607 50.9094 71.5803 50.9846 71.4339C51.0599 71.2869 51.2397 71.2284 51.3867 71.3037C52.9203 72.0905 57.1083 71.4249 58.7871 70.8156C60.528 70.1835 62.2629 69.6225 64.3366 69.6643C65.0356 69.6793 65.7405 69.7306 66.4222 69.7802C66.936 69.8179 67.4671 69.8567 67.9881 69.8788C68.3322 69.8943 68.6763 69.9135 69.0204 69.9332C69.6734 69.9702 70.3491 70.0084 71.0111 70.012C71.4824 70.0144 71.9687 69.9816 72.4371 69.9511C72.9414 69.917 73.4629 69.8818 73.9833 69.889C75.5665 69.9099 77.1156 70.4368 78.6145 70.9464C79.9456 71.3999 81.3221 71.8682 82.6735 71.9525C84.3941 72.0606 85.7705 72.1729 86.5227 72.5595C86.6697 72.6353 86.7276 72.8152 86.6524 72.9627C86.5992 73.0649 86.4946 73.1246 86.3859 73.1246Z" fill="#1D1D1D"/>
<path d="M86.458 74.4052C84.8533 74.4052 82.3345 73.6459 81.059 73.2599L81.0274 73.2504C80.0601 72.9582 78.9836 72.9212 77.9422 72.8842C77.5097 72.8692 77.0622 72.8531 76.6279 72.8196C76.1858 72.785 75.7586 72.6243 75.3458 72.4677C74.9085 72.3023 74.5005 72.141 74.1002 72.1481C72.3862 72.1535 70.9278 72.3017 69.6422 72.598C68.5047 72.8603 67.3498 72.7366 66.1275 72.6058C64.9876 72.4833 63.8095 72.3572 62.6457 72.5735C61.4502 72.7939 60.2798 72.8656 59.1483 72.9343C57.3495 73.0449 55.651 73.1482 53.7989 73.7952C53.1657 74.0157 51.3632 73.9739 50.6881 73.7235C50.5334 73.6662 50.4545 73.4941 50.5119 73.3394C50.5692 73.1847 50.7413 73.1058 50.8966 73.1632C51.4343 73.3633 53.1029 73.4039 53.6018 73.2295C55.5321 72.5562 57.3518 72.4456 59.1113 72.3375C60.2255 72.27 61.3773 72.2001 62.5363 71.9844C63.7862 71.7544 65.0091 71.8847 66.1908 72.0113C67.3618 72.1368 68.4682 72.2909 69.5071 72.0519C70.8376 71.7443 72.3396 71.6218 74.0984 71.6218H74.105C74.6086 71.6218 75.0907 71.7682 75.5573 71.9444C75.948 72.092 76.3172 72.2132 76.6745 72.2413C77.0957 72.2748 77.5366 72.2802 77.9632 72.2957C79.0421 72.3333 80.1587 72.368 81.2 72.6828L81.2323 72.69C82.6052 73.1046 85.4621 73.9655 86.8666 73.7857C87.0297 73.766 87.1797 73.8795 87.2012 74.0444C87.2221 74.2075 87.1062 74.3568 86.9425 74.3777C86.7938 74.3968 86.6313 74.4052 86.458 74.4052Z" fill="#1D1D1D"/>
<path d="M66.0759 79.1199C66.1721 79.1402 66.3872 79.1605 66.4828 79.182C68.3235 79.5775 70.2269 79.9867 72.2121 79.5291C72.8287 79.3857 73.4076 79.1533 73.9686 78.9281C75.3731 78.3635 76.5859 77.8766 78.1374 78.7477C79.9106 79.7424 82.1223 80.2526 84.0329 80.1678C84.6954 80.1385 85.3227 80.0381 85.8819 79.8619C86.6813 79.6098 87.5535 79.6701 88.4766 79.734C88.9921 79.7699 89.525 79.8063 90.0442 79.7836L90.0179 79.1868C89.5316 79.2077 89.0148 79.1725 88.516 79.1378C87.5792 79.0733 86.6108 79.007 85.7069 79.2907C83.7085 79.9204 80.6443 79.4718 78.4212 78.2243C76.6271 77.2171 75.1652 77.8043 73.7517 78.3719C73.2116 78.5888 72.6536 78.8128 72.0813 78.9454C70.2215 79.375 68.3826 78.9795 66.6041 78.5965C66.4356 78.5601 66.2677 78.5242 66.1004 78.4884C66.0604 78.4806 66.021 78.4729 65.981 78.4651C66.064 78.6515 66.0126 78.8534 66.0652 79.0733C66.0694 79.0882 66.0724 79.1043 66.0759 79.1199Z" fill="#1D1D1D"/>
<path d="M54.096 79.2891C54.1253 79.077 54.1617 78.8673 54.2041 78.6659C51.8736 79.0465 49.7975 79.3249 47.5888 78.5626L47.394 79.1277C49.6714 79.9134 51.7565 79.6642 54.096 79.2891Z" fill="#1D1D1D"/>
<path d="M65.9919 80.6444C65.9913 80.8087 65.9877 80.9754 65.9781 81.1397C65.9781 81.1439 65.9775 81.1481 65.9775 81.1534C66.4698 81.1743 66.9681 81.2096 67.455 81.2442C68.7681 81.338 70.1261 81.4342 71.4416 81.2783C72.0283 81.2066 72.6204 81.117 73.1927 81.0304C73.9078 80.921 74.648 80.8081 75.3769 80.7346C76.6614 80.6068 77.8598 80.6946 79.0391 81.0053C79.3797 81.0955 79.7256 81.1958 80.0607 81.2926C80.9455 81.5489 81.8608 81.8142 82.8047 81.9265C83.3119 81.9874 83.818 82.0107 84.3216 82.0107C85.2219 82.0107 86.1151 81.9355 86.9885 81.8614C87.1964 81.8441 87.4049 81.8267 87.614 81.8094C87.8417 81.7915 88.0806 81.7479 88.3124 81.7049C88.8418 81.6075 89.3896 81.5071 89.8102 81.7055L90.0605 81.1642C89.4685 80.8846 88.7981 81.0083 88.2067 81.117C87.9797 81.1582 87.7652 81.1982 87.5674 81.2138C87.3577 81.2305 87.148 81.2484 86.9389 81.2657C85.5451 81.3834 84.229 81.4952 82.874 81.3327C81.9773 81.2269 81.0859 80.9676 80.2232 80.7179C79.8851 80.6199 79.5356 80.5184 79.1879 80.427C77.9399 80.0978 76.6739 80.004 75.3183 80.1402C74.5745 80.2143 73.8272 80.329 73.1049 80.4383C72.5367 80.5249 71.9494 80.6146 71.3717 80.6833C70.1117 80.8344 68.7825 80.7394 67.4968 80.648C67.0021 80.6128 66.4955 80.5769 65.9919 80.5554V80.5895V80.6444Z" fill="#1D1D1D"/>
<path d="M54.0023 80.6147H53.9223C53.9223 80.457 53.9247 80.4253 53.9276 80.3315C53.4174 80.4128 52.9072 80.5358 52.4132 80.6577C51.6682 80.8423 50.8975 81.0311 50.1453 81.0592L50.0724 81.0616C49.6297 81.0783 49.1715 81.0956 48.7623 80.9869C48.5675 80.9349 48.3698 80.9134 48.1786 80.8931C47.9713 80.8704 47.7753 80.8501 47.6051 80.7915L47.4336 81.3615C47.6594 81.4373 47.8942 81.463 48.1212 81.4875C48.3005 81.5066 48.4695 81.5246 48.6249 81.5664C49.1112 81.6966 49.6106 81.6769 50.0933 81.659L50.165 81.656C50.9722 81.6255 51.7703 81.429 52.5416 81.2384C52.9975 81.1255 53.467 81.0138 53.9288 80.9355C53.9253 80.8274 53.9229 80.7736 53.9223 80.6147H54.0023Z" fill="#1D1D1D"/>
<path d="M47.6892 85.103L47.6904 85.1L47.6396 85.0719L47.6892 85.103Z" fill="#1D1D1D"/>
<path d="M47.8781 85.2254L47.9283 85.2499L47.6894 85.103L47.6792 85.1221L47.8781 85.2254Z" fill="#1D1D1D"/>
<path d="M52.0594 82.5201C51.3556 82.6438 50.628 82.7716 49.911 82.8738C49.7742 82.8935 49.6314 82.9156 49.4833 82.9389C48.565 83.0829 47.4228 83.2621 46.6371 82.8774L46.4023 83.4204C46.8403 83.6349 47.3427 83.7072 47.8547 83.7072C48.4396 83.7072 49.037 83.6134 49.5651 83.5304C49.7103 83.5077 49.8513 83.4856 49.9857 83.4665C50.711 83.3625 51.4429 83.2341 52.1508 83.1098C52.8086 82.9945 53.4813 82.8768 54.1552 82.7776C54.0853 82.5954 54.0273 82.4018 53.9813 82.1993C53.3337 82.2961 52.6897 82.409 52.0594 82.5201Z" fill="#1D1D1D"/>
<path d="M65.6705 82.7804C65.6693 82.7834 65.6687 82.7863 65.6675 82.7899C65.8742 82.7606 66.1006 82.7373 66.3718 82.7475L66.4901 82.7218C67.2112 82.6878 68.5788 82.5868 69.0597 82.5892C69.135 82.5892 69.2078 82.5862 69.2795 82.5802L69.2861 82.5796L69.2933 82.5784C70.0699 82.4625 70.4589 82.3281 71.0939 82.3269L71.0987 82.3502H71.1107C71.2254 82.3502 71.346 82.3317 71.4811 82.3442C72.2983 82.4183 73.1796 82.4805 73.9939 82.5539C75.9271 82.7039 77.6746 82.5091 79.5213 82.9925C80.2191 83.143 80.8846 83.1812 81.537 83.1812C82.38 83.1812 83.1859 83.1125 84.0086 83.1137C84.7613 83.1137 85.4872 83.1663 86.2758 83.3736V83.3742C86.7496 83.5337 88.4307 83.6347 88.8483 83.6353C89.1662 83.6353 89.4947 83.5761 89.9165 83.4584L90.1304 83.3987L90.0014 82.922L89.7935 82.9805C89.3908 83.0922 89.1202 83.1406 88.8639 83.1406C88.5299 83.1406 87.0148 83.057 86.4365 82.8957C85.6001 82.6722 84.8007 82.6161 84.0247 82.6161C83.1751 82.6161 82.3543 82.6836 81.537 82.683C80.9037 82.683 80.2752 82.6436 79.6324 82.5049C77.6919 82.0007 75.905 82.1979 74.0345 82.0485C73.2208 81.9762 72.3396 81.9344 71.5223 81.8603C71.3789 81.8478 71.2475 81.8771 71.1244 81.8771H71.1059C70.3902 81.8771 69.9672 82.0103 69.267 82.1154C67.8589 82.1525 66.6682 82.2116 65.8581 82.2552C65.8569 82.2606 65.8551 82.2576 65.8533 82.2636C65.7989 82.4309 65.7338 82.6041 65.6705 82.7804Z" fill="#1D1D1D"/>
<path d="M89.8372 84.4204C89.8216 84.418 89.8097 84.4013 89.8043 84.4013H89.8007C89.7876 84.4013 89.7816 84.4186 89.7816 84.4186C89.6382 84.4186 88.1416 84.4246 87.8907 84.424C85.2178 84.1312 82.6752 83.9102 79.9228 83.8235C77.7267 83.7495 75.5018 83.2954 73.1856 83.2936C73.0613 83.2936 72.9383 83.2966 72.8134 83.299C70.965 83.2876 69.2306 83.0714 67.3445 82.9901C67.32 82.9889 67.3021 82.9895 67.2848 82.9895C66.8977 82.9907 66.363 83.023 65.8641 83.0995C65.6042 83.1425 65.3581 83.1909 65.1406 83.2608C65.1878 83.1365 65.2512 82.9698 65.3145 82.8031C65.3157 82.7984 65.3175 82.7936 65.3193 82.79C65.3205 82.7864 65.3216 82.7834 65.3222 82.7804C65.3868 82.6042 65.4531 82.4226 65.5074 82.2553C65.5092 82.2493 65.511 82.2439 65.5134 82.2386C65.5648 82.0802 65.606 81.9345 65.6269 81.8198C65.6705 81.6053 65.695 81.3801 65.7088 81.1524C65.7088 81.1477 65.7094 81.1441 65.7094 81.1399C65.7189 80.975 65.7225 80.8089 65.7237 80.6446V80.5897V80.5544C65.7225 80.2378 65.7124 79.9277 65.7136 79.6451C65.7118 79.6248 65.658 79.6021 65.658 79.5752C65.6616 79.4838 65.6084 79.387 65.6084 79.2926V79.2825L65.7165 79.3536H65.7189C65.7189 79.0369 65.7136 78.9862 65.7022 78.832C65.6885 78.6373 65.6646 78.4359 65.6317 78.2621C65.6287 78.2465 65.6263 78.2214 65.6234 78.2059C65.5791 77.9849 65.5188 77.7746 65.4435 77.5858C65.3772 77.4179 65.2983 77.2608 65.2069 77.1174C65.0845 76.9262 64.9405 76.7536 64.772 76.6012C64.6878 76.5253 64.5982 76.4537 64.5038 76.3873C63.8753 75.9435 63.0269 75.6991 61.9504 75.5187C61.2233 75.4117 60.3026 75.3048 59.3593 75.3048C58.0593 75.3084 56.6828 75.5014 55.7538 76.2481C55.5567 76.4065 55.3798 76.5899 55.2281 76.8002C55.1719 76.8784 55.1194 76.9603 55.0698 77.0463C54.8326 77.4591 54.6378 78.0273 54.5034 78.6659C54.461 78.8673 54.4251 79.0764 54.3953 79.2891C54.3481 79.6284 54.3182 79.9815 54.3068 80.3316C54.3039 80.4254 54.3015 80.457 54.3015 80.6148H54.3176H54.3015C54.3021 80.7737 54.3045 80.8274 54.3086 80.9356C54.326 81.3753 54.3767 81.8036 54.4729 82.2009C54.5225 82.4035 54.5835 82.5964 54.6581 82.778C54.7191 82.9268 54.7884 83.0678 54.869 83.1986C54.8087 83.195 54.7448 83.1933 54.6767 83.1921C53.7853 83.1974 52.1842 83.4699 50.7462 83.8092C50.0293 83.9771 49.356 84.1635 48.8368 84.3433C48.5757 84.4329 47.9353 84.5213 47.7626 84.6092C47.5876 84.7042 47.8779 84.7705 47.7847 84.9252L47.6909 85.1002L47.7536 85.1337L47.7566 85.1319C47.759 85.1301 47.7608 85.1289 47.7626 85.1259L47.8092 85.1474L47.7692 85.1439L47.8002 85.1905H47.802C47.8403 85.0321 48.6361 84.8989 49.1349 84.7424C50.6452 84.2453 53.486 83.6121 54.6617 83.6121H54.6737C54.8869 83.6121 55.0477 83.676 55.0751 83.6921L55.5023 83.8564L55.5405 83.8952L55.8458 83.5105L55.6708 83.3767C55.4688 83.2267 55.3022 82.9967 55.1701 82.7093C55.0901 82.5355 55.0232 82.3419 54.9694 82.1322C54.8702 81.7493 54.8135 81.3155 54.7997 80.8633C54.7973 80.7802 54.7961 80.6984 54.7967 80.6136L54.7979 80.5944L54.7967 80.5867C54.7967 80.4779 54.7991 80.3692 54.8033 80.2599C54.8176 79.9038 54.8541 79.5471 54.9085 79.2054C54.9431 78.9885 54.9843 78.7783 55.0315 78.5781C55.1552 78.0542 55.3183 77.6001 55.4993 77.2913C55.6176 77.075 55.7538 76.8886 55.9109 76.7249C55.9277 76.7219 55.945 76.7195 55.9611 76.7165L55.9289 76.7076C56.6004 76.0277 57.6536 75.76 59.3456 75.7618L59.3503 75.7236H59.3593C60.2656 75.7236 61.1647 75.8658 61.8727 75.9691C63.0789 76.1735 63.9225 76.4728 64.4416 76.9489C64.594 77.0887 64.723 77.256 64.8306 77.4382C64.9435 77.63 65.0313 77.854 65.0952 78.1085C65.1777 78.4371 65.2201 78.8272 65.2219 79.2908C65.2219 79.3787 65.2201 79.4713 65.2183 79.5663C65.2171 79.5955 65.2171 79.6206 65.2171 79.6445C65.2171 79.9331 65.2261 80.2366 65.2273 80.5377V80.5897C65.2279 80.7737 65.2237 80.9577 65.2129 81.1357C65.1998 81.3442 65.1771 81.5444 65.1388 81.7272C65.1209 81.8383 65.0582 82.042 64.9817 82.2631C64.9387 82.3873 64.8915 82.5176 64.8449 82.6412C64.8162 82.7165 64.7881 82.79 64.7619 82.8605C64.7272 82.9513 64.6955 83.0373 64.6681 83.1096C64.6436 83.1741 64.6244 83.2303 64.6089 83.2751L64.9447 83.8916C65.0492 83.7907 65.471 83.6425 65.9298 83.5774C66.3934 83.5045 66.9096 83.4549 67.2717 83.4549H67.2818C67.3021 83.4549 67.3165 83.4699 67.3272 83.4705C69.1822 83.5493 70.9249 83.7757 72.8194 83.7883C72.9454 83.7859 73.0667 83.7877 73.1856 83.7877C75.4361 83.7865 77.6538 84.2423 79.9067 84.3206C82.6453 84.4078 85.1778 84.6062 87.8507 84.8995L87.8609 84.875H87.8728C88.1291 84.875 89.6328 84.9043 89.7804 84.9043L89.7816 84.875H89.7882H89.7906H89.7959L90.0224 84.9204L90.0379 84.4389L89.8372 84.4204Z" fill="#1D1D1D"/>
<path d="M53.9946 98.0597L53.9253 98.2694L54.1344 98.3381L54.1517 98.3548L54.4056 98.4492V98.1804C54.5639 97.8237 54.6918 97.3637 54.8316 96.8403C54.6326 96.9174 54.457 97.01 54.2622 97.111C54.1601 97.4748 54.0806 97.798 53.9946 98.0597Z" fill="#1D1D1D"/>
<path d="M54.8621 90.2634C54.6124 90.3237 54.3663 90.3883 54.1231 90.4528C53.8059 90.5376 53.4785 90.6248 53.1511 90.6959C52.0046 90.9409 50.6825 91.138 49.4279 91.2503L49.1155 91.2784L49.1615 91.5664C49.1573 91.5754 49.1513 91.5879 49.1471 91.5957C49.1286 91.6321 49.1065 91.6775 49.0981 91.7384L49.4733 91.7916L49.4781 91.846C49.5426 91.8412 49.6078 91.8346 49.6723 91.8281C49.6675 91.8597 49.6579 91.8806 49.6573 91.883L49.6645 91.8693C49.6705 91.8567 49.6771 91.8436 49.6842 91.8269C50.8988 91.7098 52.1636 91.518 53.2694 91.2808C53.6105 91.2079 53.9451 91.1183 54.2689 91.0317C54.4738 90.9773 54.6751 90.9236 54.8759 90.874C54.8765 90.8423 54.8771 90.8088 54.8771 90.7772C54.8771 90.6015 54.8723 90.4301 54.8621 90.2634Z" fill="#1D1D1D"/>
<path d="M52.0303 92.3409L51.9096 92.3929C51.3744 92.6247 50.1012 92.8625 49.6084 92.8547L49.6006 93.4522C50.2082 93.4629 51.5321 93.2 52.1182 92.9479L52.2382 92.896C53.0119 92.5644 53.9134 92.4276 54.7642 92.3571C54.7893 92.1498 54.8108 91.9478 54.8281 91.7525C53.9027 91.823 52.9026 91.967 52.0303 92.3409Z" fill="#1D1D1D"/>
<path d="M51.5284 95.3642L51.4077 95.4168C50.8724 95.6474 49.5993 95.8858 49.1064 95.878L49.0986 96.476C49.7062 96.4868 51.0301 96.2239 51.6162 95.9712L51.7369 95.9198C52.51 95.5877 53.4115 95.4508 54.2622 95.3803C54.2873 95.173 54.3088 94.9711 54.3261 94.7763C53.4007 94.8462 52.4012 94.9902 51.5284 95.3642Z" fill="#1D1D1D"/>
<path d="M53.5639 93.5866C53.037 93.6547 52.5776 93.9026 52.1331 94.1428C51.734 94.3579 51.3576 94.561 51.001 94.5897L51.0571 95.1853C51.559 95.1447 52.0166 94.8973 52.4593 94.659C52.85 94.4481 53.2533 94.2306 53.6536 94.1786C53.9278 94.1446 54.2092 94.1201 54.4953 94.1034C54.5413 93.9026 54.5867 93.7001 54.6298 93.4988C54.2689 93.5143 53.9117 93.5418 53.5639 93.5866Z" fill="#1D1D1D"/>
<path d="M54.3172 88.7295C53.7735 88.7666 53.2585 88.8854 52.7603 89.0181C52.1993 89.168 51.6688 89.2923 51.1161 89.2923H51.1078C50.9136 89.2923 50.7159 89.3007 50.5068 89.2917C50.0641 89.2726 49.6064 89.2624 49.1685 89.321C48.7694 89.3747 48.4474 89.5689 48.1362 89.7529C47.85 89.922 47.5794 90.0851 47.2866 90.103L47.3201 90.7004C47.7389 90.6742 48.0782 90.474 48.4062 90.2804C48.6834 90.1162 48.9457 89.962 49.239 89.9226C49.6303 89.8694 50.0647 89.8873 50.4841 89.9059C50.6896 89.9142 50.9017 89.9232 51.1066 89.9232H51.1161C51.7375 89.9232 52.3259 89.7667 52.8959 89.6149C53.3912 89.4829 53.8589 89.3586 54.3512 89.3264C54.4791 89.3174 54.6069 89.312 54.7354 89.3042C54.6768 89.0683 54.5968 88.8771 54.4988 88.7188C54.4384 88.7224 54.3775 88.7259 54.3172 88.7295Z" fill="#1D1D1D"/>
<path d="M53.5117 96.7516C53.2888 96.8998 53.0582 97.0527 52.8091 97.183L52.9955 97.735C53.2655 97.5934 53.5063 97.4333 53.7393 97.2785C53.8253 97.2206 53.9101 97.165 53.9938 97.1119C54.047 96.8741 54.1019 96.6202 54.1575 96.3525C53.9317 96.4726 53.7202 96.6136 53.5117 96.7516Z" fill="#1D1D1D"/>
<path d="M55.8426 90.1624C55.8253 89.9181 55.8169 89.6815 55.7769 89.4551C55.7661 89.3953 55.7631 89.3368 55.75 89.2794C55.7004 89.062 55.6359 88.8654 55.5493 88.6898C55.3796 88.3456 55.146 88.081 54.8634 87.8946C54.398 87.5863 53.8293 87.4847 53.2378 87.4835C53.2342 87.4835 53.2294 87.4835 53.2205 87.4847C51.8082 87.4871 49.1424 88.4084 48.1883 88.4669L47.9673 88.4818L48.0037 88.9771L48.2218 88.9867C49.2882 88.9102 51.9109 88.0302 53.2109 88.0302H53.2282C53.7701 88.0302 54.2391 88.0989 54.5868 88.3307C54.7463 88.4347 54.8849 88.5565 55.0014 88.7316C55.106 88.8899 55.1914 89.0751 55.2541 89.3105C55.2738 89.3852 55.2918 89.461 55.3073 89.5453C55.3473 89.7723 55.3748 90.0125 55.3903 90.2652C55.4005 90.4319 55.4059 90.6027 55.4059 90.7778C55.4059 90.8094 55.4053 90.8423 55.4047 90.8746C55.4011 91.1446 55.3832 91.4385 55.3533 91.7528C55.3348 91.9475 55.3121 92.1495 55.2846 92.3574C55.2123 92.913 55.1113 93.5038 54.9954 94.0959C54.9554 94.2984 54.9136 94.5003 54.8712 94.7017C54.7481 95.277 54.6149 95.838 54.4828 96.3524C54.4141 96.6212 54.346 96.8739 54.2797 97.1111C54.4751 97.0101 54.6675 96.9175 54.867 96.8405C54.9255 96.6224 54.9847 96.3924 55.0438 96.1546C55.1597 95.6868 55.275 95.188 55.382 94.6802C55.4238 94.4812 55.4638 94.2811 55.5027 94.0798C55.618 93.4835 55.7171 92.8861 55.7876 92.3239C55.8133 92.1178 55.7978 91.9177 55.8157 91.7217C55.8456 91.3848 55.8265 91.0663 55.8265 90.7772V90.7658C55.8265 90.5603 55.8563 90.359 55.8426 90.1624" fill="#1D1D1D"/>
<path d="M89.6053 86.9197C89.4649 86.8893 88.129 86.9006 87.9886 86.9006C86.921 86.9114 85.7286 87.5566 84.7243 87.5566H84.7189H84.7016C83.7726 87.5566 82.8394 87.4992 81.9068 87.4986C81.5221 87.4992 81.1397 87.4879 80.7574 87.4879C79.4538 87.4879 78.1555 87.4742 76.8645 87.3983C75.4277 87.2872 73.9616 87.0255 72.4991 87.0249C71.9602 87.0249 71.4207 87.0583 70.8854 87.1515C70.1882 87.2872 69.5771 87.4144 68.9038 87.4783C68.7287 87.4921 68.5489 87.498 68.3637 87.498C67.4203 87.4992 66.3748 87.3296 65.3694 87.329C64.9434 87.329 64.5222 87.3588 64.119 87.4532L64.0813 87.4604L63.7886 87.5297L63.96 87.8195C64.1727 88.1755 64.3645 88.5483 64.5395 88.9337C64.6309 89.1356 64.7176 89.3405 64.8006 89.5484C65.0378 90.1435 65.2433 90.7618 65.4315 91.3891C65.4942 91.5988 65.5546 91.8103 65.6143 92.02C65.7332 92.4418 65.8461 92.8648 65.9584 93.2859C66.0116 93.4843 66.0642 93.6826 66.1174 93.8792C66.1562 94.0268 66.1962 94.1743 66.2362 94.3189L66.2882 94.3046C66.29 94.3064 66.29 94.3081 66.29 94.3111L66.238 94.3267C66.2637 94.4085 66.2906 94.4904 66.3175 94.5728C66.3796 94.7598 66.4453 94.9498 66.5146 95.1404C66.6813 95.6034 66.8665 96.0724 67.0637 96.5419C67.1509 96.7504 67.2399 96.9595 67.3307 97.1674C67.9861 98.667 69.2001 102.116 69.7802 103.378L69.8716 103.577L70.4099 103.332L70.2133 103.133C69.6661 101.946 68.513 98.6096 67.9001 97.229C67.8069 97.0181 67.7143 96.8078 67.6247 96.5969C67.4006 96.0718 67.1891 95.5478 67.0021 95.0328C66.9322 94.8422 66.8659 94.6523 66.8032 94.4641C66.7715 94.3691 66.7405 94.2747 66.7106 94.1791C66.6801 94.0698 66.6509 93.9586 66.6204 93.8487C66.5684 93.6546 66.5164 93.4598 66.4645 93.2638C66.3605 92.8731 66.2554 92.4782 66.1454 92.0827C66.0881 91.8748 66.0295 91.6681 65.9692 91.4626C65.7852 90.8317 65.5838 90.2056 65.3503 89.5956C65.2696 89.3853 65.186 89.1762 65.0975 88.9719C64.9356 88.5955 64.7588 88.2526 64.5628 87.8983C64.8203 87.8625 65.0904 87.8726 65.3694 87.8726H65.3879L65.3915 87.8469C66.3348 87.8487 67.372 88.0035 68.3637 88.0053C68.559 88.0041 68.755 87.9921 68.9468 87.9778C69.6583 87.9103 70.288 87.7741 70.9739 87.6408C71.4721 87.5542 71.9811 87.519 72.4991 87.519C73.9025 87.5178 75.3566 87.7735 76.8293 87.887C78.1454 87.9646 79.4514 88.0023 80.7556 88.0023C81.0722 88.0023 81.3888 88.0298 81.7055 88.0298H81.9068H82.0191C82.9117 88.0298 83.8036 88.0065 84.6932 88.0357C84.7076 88.0363 84.7141 88.022 84.7189 88.022C85.8911 88.0112 87.0991 87.3893 87.9737 87.3929L87.9767 87.3989H87.9886C88.1015 87.3989 88.2091 87.3959 88.3077 87.4168L89.7176 87.4562L89.8215 86.9675L89.6053 86.9197Z" fill="#1D1D1D"/>
<path d="M87.6676 90.3579C87.4651 90.4266 87.2727 90.4559 87.0857 90.4989C85.9984 90.7498 85.1226 90.8699 84.1213 90.8699H84.1135C82.7018 90.8699 81.4215 90.8681 80.0564 90.4224C77.7025 89.6559 75.1407 89.6589 72.6482 90.3967C72.2796 90.506 71.8895 90.6542 71.4761 90.8018C70.5345 91.1393 69.5613 91.4906 68.7064 91.5354C68.0439 91.5695 67.3819 91.5402 66.7134 91.4595C66.7713 91.6656 66.8287 91.8735 66.8836 92.0809C67.312 92.1251 67.7392 92.1508 68.1663 92.1508C68.3557 92.1508 68.5457 92.1466 68.7357 92.1376C69.673 92.088 70.7317 91.7099 71.6655 91.3759C72.0717 91.2313 72.4547 91.0939 72.8078 90.9905C75.1909 90.2838 77.6368 90.2784 79.8819 91.0097C81.3241 91.4792 82.706 91.5014 84.1129 91.5014H84.1213C85.1757 91.5014 86.0862 91.3592 87.2118 91.0987C87.4268 91.0497 87.6413 90.987 87.848 90.9177C88.2638 90.7761 88.6564 90.6476 89.0297 90.6948L89.1002 90.104C88.599 90.0406 88.1258 90.2031 87.6676 90.3579Z" fill="#1D1D1D"/>
<path d="M86.976 92.4121C86.6128 92.4957 86.2687 92.5746 85.9437 92.62C85.5518 92.6738 85.1628 92.7526 84.7865 92.8285C84.1639 92.9546 83.5755 93.0735 82.9661 93.0938L82.7409 93.1009C81.4731 93.1452 80.0369 93.1935 78.8253 92.8518C77.591 92.5041 76.5497 92.436 75.169 92.436C74.7592 92.436 74.3446 92.4217 73.9061 92.4061C72.6551 92.3631 71.361 92.3183 70.1763 92.6254C70.0246 92.6654 69.8746 92.7048 69.7253 92.7449C68.8375 92.9791 68.0184 93.1959 67.1934 93.264C67.2435 93.46 67.2943 93.6548 67.3445 93.8483C68.1917 93.7671 69.0179 93.5484 69.8692 93.3232C70.0174 93.2844 70.1668 93.2455 70.3179 93.2055C71.4232 92.9187 72.6754 92.9617 73.8864 93.0042C74.3105 93.0191 74.7496 93.034 75.169 93.034C76.5007 93.034 77.5008 93.0986 78.673 93.4283C79.9688 93.794 81.4516 93.7438 82.76 93.6984L82.984 93.6918C83.6406 93.6691 84.2798 93.5407 84.8982 93.4158C85.2656 93.3411 85.6462 93.2646 86.0201 93.2127C86.3708 93.1643 86.7424 93.0782 87.1021 92.9964C87.6882 92.8602 88.294 92.721 88.8263 92.7347L88.8412 92.1373C88.2372 92.1218 87.5962 92.2693 86.976 92.4121Z" fill="#1D1D1D"/>
<path d="M86.3877 94.3859C86.187 94.3984 85.9976 94.4092 85.8357 94.4092C84.4992 94.4092 83.3617 94.4743 82.1549 94.7945C80.6625 95.1888 79.2902 95.3191 77.9586 95.1888C77.0965 95.1052 76.2308 94.8638 75.3932 94.6302C74.567 94.3996 73.7126 94.1618 72.8356 94.0627C71.4711 93.9085 69.858 94.0071 68.0407 94.356C67.8674 94.3895 67.6941 94.4259 67.5215 94.4641C67.5824 94.6523 67.6463 94.8423 67.7139 95.0329C67.8578 95.0018 68.0024 94.9714 68.1464 94.9439C69.9082 94.6057 71.4645 94.5095 72.7723 94.6571C73.6051 94.7509 74.4373 94.9833 75.2421 95.2073C76.103 95.4475 76.9931 95.6954 77.9042 95.7845C78.2543 95.8179 78.6068 95.8352 78.9634 95.8352C80.0305 95.8352 81.1309 95.6823 82.2983 95.3728C83.4472 95.0699 84.5428 95.0072 85.8357 95.0072C86.0143 95.0072 86.2121 94.9958 86.4212 94.9827C86.9242 94.9528 87.4941 94.9188 87.8717 95.0508L88.0575 94.485C87.573 94.3154 86.9433 94.3524 86.3877 94.3859Z" fill="#1D1D1D"/>
<path d="M87.6785 88.7908C86.9658 88.9861 86.2925 89.1343 85.6072 89.1343H85.6036C84.0778 89.1343 82.5591 88.9814 81.0901 88.8003C79.2942 88.5787 77.4374 88.366 75.5435 88.4723C74.3248 88.5404 73.1186 88.7507 71.9524 88.9455C71.4541 89.028 70.9385 89.1188 70.4307 89.1928L70.2216 89.2263C69.1791 89.3798 68.194 89.5268 67.2195 89.2143C66.7697 89.0704 66.3162 89.0076 65.8682 88.9706C65.9542 89.1767 66.0348 89.3846 66.1131 89.5955C66.4303 89.6314 66.741 89.6875 67.0481 89.7861C68.1468 90.1386 69.2436 89.9767 70.3035 89.8201L70.512 89.7891C71.0252 89.7144 71.5437 89.6278 72.045 89.5447C73.1962 89.3524 74.3863 89.1534 75.5752 89.0877C77.4189 88.9843 79.25 89.191 81.0208 89.4103C82.5066 89.5943 84.0432 89.7658 85.603 89.7658H85.6072C86.3683 89.7658 87.1098 89.5818 87.8273 89.3852C88.552 89.1869 89.2366 89.0082 89.9302 89.0184L89.9374 88.4066C89.1655 88.3959 88.4098 88.5906 87.6785 88.7908Z" fill="#1D1D1D"/>
<path d="M83.9336 97.0988C82.8289 97.0606 81.8874 97.2135 80.8909 97.3766C80.6513 97.4161 80.4034 97.4573 80.1519 97.4943C78.9988 97.6682 77.9169 97.4071 76.9066 97.1233C75.5397 96.7404 74.0856 96.781 72.6798 96.8198C71.8655 96.8419 71.0237 96.8652 70.228 96.8025C69.7763 96.7666 69.3211 96.7135 68.8808 96.6627C68.6944 96.64 68.5062 96.6179 68.3174 96.597C68.4046 96.8079 68.4936 97.0182 68.5844 97.2291C68.6609 97.2374 68.738 97.247 68.8156 97.2559C69.2607 97.3091 69.7213 97.3623 70.1838 97.3987C71.0094 97.4638 71.8661 97.44 72.6947 97.4172C74.0593 97.3796 75.4698 97.3402 76.7549 97.7004C77.5483 97.9227 78.4468 98.1473 79.4003 98.1473C79.6745 98.1473 79.9535 98.1294 80.2361 98.0858C80.4906 98.0475 80.7403 98.0075 80.9817 97.9675C81.9501 97.8086 82.8648 97.6592 83.9139 97.6962L83.9419 97.6968C84.3404 97.7112 84.6845 97.7231 85.0215 97.8576L85.2294 97.299C84.8016 97.1293 84.3745 97.1138 83.9611 97.0994L83.9336 97.0988Z" fill="#1D1D1D"/>
<path d="M82.5528 99.95C81.892 100.307 79.4599 99.4643 78.2913 99.0586C77.615 98.8238 77.3097 98.7199 77.1478 98.7145C76.3389 98.684 75.5694 98.8854 74.825 99.0801C74.0716 99.2773 73.3601 99.4649 72.605 99.4332C71.9382 99.4057 71.6485 99.2068 71.2476 98.9314C71.0475 98.794 70.8204 98.6386 70.5247 98.4928C70.085 98.2754 69.4213 98.0364 68.7324 98.4588L69.0449 98.9684C69.3914 98.7563 69.7433 98.773 70.26 99.0281C70.5175 99.156 70.7165 99.2922 70.9089 99.4242C71.3372 99.7182 71.7417 99.996 72.5805 100.031C73.4246 100.065 74.2138 99.8586 74.9762 99.659C75.711 99.4661 76.4046 99.285 77.1215 99.3119C77.2243 99.3215 77.6867 99.4822 78.0953 99.6232C79.6373 100.158 81.0986 100.63 82.073 100.63C82.3801 100.63 82.6394 100.584 82.8371 100.476C83.0391 100.366 83.1753 100.196 83.2284 99.9828L82.6489 99.8377C82.64 99.8735 82.6215 99.9129 82.5528 99.95Z" fill="#1D1D1D"/>
<path d="M75.683 101.44C75.1412 101.632 74.6298 101.814 74.153 101.719C73.8346 101.656 73.5066 101.505 73.1595 101.344C72.7037 101.133 72.2323 100.916 71.7161 100.868C71.3995 100.838 71.0082 100.848 70.6969 100.857C70.5434 100.862 70.3408 100.867 70.1831 100.867V101.464C70.3408 101.464 70.5637 101.459 70.7154 101.454C71.0082 101.446 71.3457 101.437 71.6259 101.463C72.0399 101.502 72.4623 101.689 72.8913 101.887C73.2551 102.055 73.6404 102.229 74.0288 102.306C74.159 102.331 74.2928 102.343 74.4213 102.343C74.9207 102.343 75.4082 102.172 75.8802 102.003C76.538 101.771 77.1599 101.552 77.7143 101.848L77.9969 101.32C77.2095 100.9 76.3988 101.187 75.683 101.44Z" fill="#1D1D1D"/>
</svg>
