<svg width="186" height="186" viewBox="0 0 186 186" fill="none" xmlns="http://www.w3.org/2000/svg">
<path d="M69.6195 105.92H68.4351V105.613H71.1601V105.92H69.9757V108.977H69.6195V105.92Z" fill="#484748"/>
<path d="M73.1014 106.43C73.4191 106.43 73.6712 106.522 73.8573 106.708C74.0467 106.891 74.1413 107.158 74.1413 107.511V108.977H73.7995V107.545C73.7995 107.282 73.7338 107.081 73.6021 106.944C73.4707 106.806 73.2829 106.737 73.0388 106.737C72.766 106.737 72.5494 106.819 72.3888 106.982C72.2316 107.142 72.1529 107.365 72.1529 107.65V108.977H71.811V105.411H72.1529V106.891C72.2461 106.743 72.3743 106.63 72.538 106.55C72.7017 106.469 72.8895 106.43 73.1014 106.43Z" fill="#484748"/>
<path d="M77.4383 107.819H75.3199C75.3391 108.081 75.4402 108.294 75.6232 108.458C75.8061 108.618 76.0372 108.698 76.3165 108.698C76.474 108.698 76.6184 108.671 76.7498 108.616C76.8815 108.559 76.9954 108.475 77.0917 108.366L77.2842 108.587C77.1721 108.722 77.0308 108.824 76.8605 108.895C76.6938 108.965 76.5091 109.001 76.3069 109.001C76.0469 109.001 75.8158 108.946 75.6136 108.837C75.4148 108.725 75.259 108.571 75.1465 108.376C75.0344 108.18 74.978 107.959 74.978 107.713C74.978 107.466 75.031 107.245 75.1369 107.05C75.2463 106.854 75.3938 106.702 75.5799 106.593C75.7693 106.484 75.9812 106.43 76.2154 106.43C76.4499 106.43 76.6601 106.484 76.8461 106.593C77.0325 106.702 77.1783 106.854 77.2842 107.05C77.3902 107.242 77.4431 107.463 77.4431 107.713L77.4383 107.819ZM76.2154 106.723C75.9716 106.723 75.7663 106.801 75.5991 106.958C75.4354 107.112 75.3426 107.314 75.3199 107.564H77.1157C77.0934 107.314 76.9988 107.112 76.8317 106.958C76.668 106.801 76.4627 106.723 76.2154 106.723Z" fill="#484748"/>
<path d="M81.8353 106.449L80.7086 108.977H80.3572L79.2354 106.449H79.5916L80.5401 108.602L81.4982 106.449H81.8353Z" fill="#484748"/>
<path d="M83.4353 109.001C83.1912 109.001 82.9714 108.946 82.7757 108.837C82.5797 108.725 82.4256 108.571 82.3135 108.376C82.2011 108.18 82.145 107.959 82.145 107.713C82.145 107.466 82.2011 107.245 82.3135 107.05C82.4256 106.854 82.5797 106.702 82.7757 106.593C82.9714 106.484 83.1912 106.43 83.4353 106.43C83.6792 106.43 83.8989 106.484 84.0949 106.593C84.2906 106.702 84.443 106.854 84.5523 107.05C84.6644 107.245 84.7209 107.466 84.7209 107.713C84.7209 107.959 84.6644 108.18 84.5523 108.376C84.443 108.571 84.2906 108.725 84.0949 108.837C83.8989 108.946 83.6792 109.001 83.4353 109.001ZM83.4353 108.698C83.6149 108.698 83.7755 108.658 83.9168 108.578C84.0612 108.494 84.1734 108.377 84.2538 108.227C84.334 108.076 84.3742 107.905 84.3742 107.713C84.3742 107.521 84.334 107.349 84.2538 107.199C84.1734 107.048 84.0612 106.933 83.9168 106.853C83.7755 106.769 83.6149 106.728 83.4353 106.728C83.2555 106.728 83.0935 106.769 82.9491 106.853C82.8077 106.933 82.6953 107.048 82.612 107.199C82.5316 107.349 82.4917 107.521 82.4917 107.713C82.4917 107.905 82.5316 108.076 82.612 108.227C82.6953 108.377 82.8077 108.494 82.9491 108.578C83.0935 108.658 83.2555 108.698 83.4353 108.698Z" fill="#484748"/>
<path d="M85.5726 106.449H85.9145V108.977H85.5726V106.449ZM85.746 105.896C85.6755 105.896 85.616 105.872 85.5678 105.824C85.5197 105.776 85.4956 105.718 85.4956 105.651C85.4956 105.587 85.5197 105.531 85.5678 105.483C85.616 105.435 85.6755 105.411 85.746 105.411C85.8165 105.411 85.876 105.435 85.9241 105.483C85.9723 105.527 85.9963 105.582 85.9963 105.646C85.9963 105.717 85.9723 105.776 85.9241 105.824C85.876 105.872 85.8165 105.896 85.746 105.896Z" fill="#484748"/>
<path d="M88.0694 109.001C87.8191 109.001 87.5941 108.946 87.3954 108.837C87.1993 108.728 87.0453 108.576 86.9332 108.381C86.8207 108.182 86.7646 107.959 86.7646 107.713C86.7646 107.466 86.8207 107.245 86.9332 107.05C87.0453 106.854 87.1993 106.702 87.3954 106.593C87.5941 106.484 87.8191 106.43 88.0694 106.43C88.2875 106.43 88.4818 106.473 88.652 106.559C88.8253 106.642 88.9615 106.766 89.0612 106.929L88.8061 107.102C88.7225 106.977 88.6166 106.884 88.4883 106.824C88.3597 106.759 88.22 106.728 88.0694 106.728C87.8865 106.728 87.721 106.769 87.5735 106.853C87.4291 106.933 87.3149 107.048 87.2317 107.199C87.1512 107.349 87.1113 107.521 87.1113 107.713C87.1113 107.908 87.1512 108.081 87.2317 108.232C87.3149 108.379 87.4291 108.494 87.5735 108.578C87.721 108.658 87.8865 108.698 88.0694 108.698C88.22 108.698 88.3597 108.667 88.4883 108.607C88.6166 108.546 88.7225 108.453 88.8061 108.328L89.0612 108.501C88.9615 108.664 88.8253 108.789 88.652 108.876C88.4787 108.959 88.2844 109.001 88.0694 109.001Z" fill="#484748"/>
<path d="M92.0496 107.819H89.9312C89.9505 108.081 90.0516 108.294 90.2345 108.458C90.4175 108.618 90.6486 108.698 90.9278 108.698C91.0853 108.698 91.2298 108.671 91.3611 108.616C91.4929 108.559 91.6067 108.475 91.703 108.366L91.8956 108.587C91.7835 108.722 91.6421 108.824 91.4719 108.895C91.3051 108.965 91.1204 109.001 90.9182 109.001C90.6582 109.001 90.4271 108.946 90.2249 108.837C90.0261 108.725 89.8703 108.571 89.7579 108.376C89.6458 108.18 89.5894 107.959 89.5894 107.713C89.5894 107.466 89.6423 107.245 89.7482 107.05C89.8576 106.854 90.0051 106.702 90.1912 106.593C90.3807 106.484 90.5925 106.43 90.8267 106.43C91.0613 106.43 91.2714 106.484 91.4574 106.593C91.6438 106.702 91.7896 106.854 91.8956 107.05C92.0015 107.242 92.0544 107.463 92.0544 107.713L92.0496 107.819ZM90.8267 106.723C90.5829 106.723 90.3776 106.801 90.2104 106.958C90.0467 107.112 89.9539 107.314 89.9312 107.564H91.7271C91.7047 107.314 91.6101 107.112 91.443 106.958C91.2793 106.801 91.074 106.723 90.8267 106.723Z" fill="#484748"/>
<path d="M95.3538 109.001C95.1096 109.001 94.8899 108.946 94.6942 108.837C94.4982 108.725 94.3441 108.571 94.232 108.376C94.1195 108.18 94.0635 107.959 94.0635 107.713C94.0635 107.466 94.1195 107.245 94.232 107.05C94.3441 106.854 94.4982 106.702 94.6942 106.593C94.8899 106.484 95.1096 106.43 95.3538 106.43C95.5976 106.43 95.8174 106.484 96.0134 106.593C96.2091 106.702 96.3614 106.854 96.4708 107.05C96.5829 107.245 96.6393 107.466 96.6393 107.713C96.6393 107.959 96.5829 108.18 96.4708 108.376C96.3614 108.571 96.2091 108.725 96.0134 108.837C95.8174 108.946 95.5976 109.001 95.3538 109.001ZM95.3538 108.698C95.5333 108.698 95.6939 108.658 95.8353 108.578C95.9797 108.494 96.0918 108.377 96.1723 108.227C96.2524 108.076 96.2927 107.905 96.2927 107.713C96.2927 107.521 96.2524 107.349 96.1723 107.199C96.0918 107.048 95.9797 106.933 95.8353 106.853C95.6939 106.769 95.5333 106.728 95.3538 106.728C95.1739 106.728 95.012 106.769 94.8675 106.853C94.7262 106.933 94.6137 107.048 94.5305 107.199C94.45 107.349 94.4101 107.521 94.4101 107.713C94.4101 107.905 94.45 108.076 94.5305 108.227C94.6137 108.377 94.7262 108.494 94.8675 108.578C95.012 108.658 95.1739 108.698 95.3538 108.698Z" fill="#484748"/>
<path d="M98.3287 105.675C98.1812 105.675 98.0687 105.715 97.9917 105.795C97.9178 105.875 97.881 105.994 97.881 106.151V106.449H98.6609V106.737H97.8906V108.977H97.5488V106.737H97.0962V106.449H97.5488V106.136C97.5488 105.906 97.6145 105.723 97.7462 105.589C97.881 105.454 98.0705 105.387 98.3143 105.387C98.4106 105.387 98.5038 105.401 98.5935 105.43C98.6833 105.455 98.759 105.494 98.8198 105.545L98.7043 105.8C98.6049 105.717 98.4797 105.675 98.3287 105.675Z" fill="#484748"/>
<path d="M103.065 108.977L102.294 107.895C102.208 107.905 102.118 107.91 102.025 107.91H101.119V108.977H100.763V105.613H102.025C102.455 105.613 102.792 105.715 103.036 105.92C103.28 106.125 103.402 106.407 103.402 106.766C103.402 107.029 103.334 107.251 103.199 107.434C103.068 107.613 102.879 107.743 102.631 107.823L103.455 108.977H103.065ZM102.015 107.607C102.349 107.607 102.604 107.533 102.781 107.386C102.957 107.238 103.045 107.032 103.045 106.766C103.045 106.493 102.957 106.285 102.781 106.141C102.604 105.994 102.349 105.92 102.015 105.92H101.119V107.607H102.015Z" fill="#484748"/>
<path d="M105.359 109.001C105.115 109.001 104.896 108.946 104.7 108.837C104.504 108.725 104.35 108.571 104.237 108.376C104.125 108.18 104.069 107.959 104.069 107.713C104.069 107.466 104.125 107.245 104.237 107.05C104.35 106.854 104.504 106.702 104.7 106.593C104.896 106.484 105.115 106.43 105.359 106.43C105.603 106.43 105.823 106.484 106.019 106.593C106.215 106.702 106.367 106.854 106.476 107.05C106.589 107.245 106.645 107.466 106.645 107.713C106.645 107.959 106.589 108.18 106.476 108.376C106.367 108.571 106.215 108.725 106.019 108.837C105.823 108.946 105.603 109.001 105.359 109.001ZM105.359 108.698C105.539 108.698 105.7 108.658 105.841 108.578C105.985 108.494 106.098 108.377 106.178 108.227C106.258 108.076 106.298 107.905 106.298 107.713C106.298 107.521 106.258 107.349 106.178 107.199C106.098 107.048 105.985 106.933 105.841 106.853C105.7 106.769 105.539 106.728 105.359 106.728C105.18 106.728 105.017 106.769 104.873 106.853C104.732 106.933 104.619 107.048 104.536 107.199C104.456 107.349 104.415 107.521 104.415 107.713C104.415 107.905 104.456 108.076 104.536 108.227C104.619 108.377 104.732 108.494 104.873 108.578C105.017 108.658 105.18 108.698 105.359 108.698Z" fill="#484748"/>
<path d="M110.655 106.43C110.973 106.43 111.222 106.521 111.402 106.704C111.585 106.886 111.676 107.155 111.676 107.511V108.977H111.334V107.545C111.334 107.282 111.27 107.081 111.142 106.944C111.017 106.806 110.838 106.737 110.607 106.737C110.344 106.737 110.137 106.819 109.986 106.982C109.835 107.142 109.76 107.365 109.76 107.65V108.977H109.418V107.545C109.418 107.282 109.354 107.081 109.226 106.944C109.1 106.806 108.92 106.737 108.686 106.737C108.426 106.737 108.219 106.819 108.065 106.982C107.914 107.142 107.839 107.365 107.839 107.65V108.977H107.497V106.449H107.824V106.91C107.914 106.756 108.039 106.638 108.2 106.555C108.36 106.471 108.545 106.43 108.754 106.43C108.966 106.43 109.148 106.474 109.303 106.564C109.46 106.654 109.577 106.787 109.654 106.963C109.747 106.796 109.88 106.666 110.054 106.574C110.23 106.478 110.431 106.43 110.655 106.43Z" fill="#484748"/>
<path d="M113.643 106.43C113.973 106.43 114.227 106.513 114.403 106.68C114.58 106.843 114.668 107.086 114.668 107.41V108.977H114.341V108.583C114.264 108.714 114.15 108.816 113.999 108.89C113.851 108.964 113.675 109.001 113.469 109.001C113.187 109.001 112.962 108.934 112.795 108.799C112.628 108.664 112.545 108.487 112.545 108.265C112.545 108.051 112.622 107.878 112.776 107.746C112.934 107.615 113.182 107.549 113.522 107.549H114.326V107.396C114.326 107.178 114.265 107.012 114.143 106.901C114.022 106.785 113.844 106.728 113.609 106.728C113.449 106.728 113.295 106.755 113.147 106.809C112.999 106.86 112.872 106.933 112.766 107.026L112.612 106.771C112.741 106.662 112.895 106.579 113.075 106.521C113.254 106.46 113.444 106.43 113.643 106.43ZM113.522 108.732C113.715 108.732 113.88 108.688 114.018 108.602C114.156 108.512 114.259 108.384 114.326 108.217V107.804H113.532C113.099 107.804 112.882 107.954 112.882 108.256C112.882 108.403 112.938 108.52 113.05 108.607C113.163 108.69 113.32 108.732 113.522 108.732Z" fill="#484748"/>
<path d="M117.041 106.43C117.359 106.43 117.611 106.522 117.797 106.708C117.987 106.891 118.081 107.158 118.081 107.511V108.977H117.739V107.545C117.739 107.282 117.674 107.081 117.542 106.944C117.41 106.806 117.223 106.737 116.979 106.737C116.706 106.737 116.489 106.819 116.329 106.982C116.172 107.142 116.093 107.365 116.093 107.65V108.977H115.751V106.449H116.078V106.915C116.172 106.761 116.3 106.642 116.464 106.559C116.63 106.473 116.823 106.43 117.041 106.43Z" fill="#484748"/>
<path d="M119.163 106.449H119.505V108.977H119.163V106.449ZM119.337 105.896C119.266 105.896 119.207 105.872 119.159 105.824C119.11 105.776 119.086 105.718 119.086 105.651C119.086 105.587 119.11 105.531 119.159 105.483C119.207 105.435 119.266 105.411 119.337 105.411C119.407 105.411 119.467 105.435 119.515 105.483C119.563 105.527 119.587 105.582 119.587 105.646C119.587 105.717 119.563 105.776 119.515 105.824C119.467 105.872 119.407 105.896 119.337 105.896Z" fill="#484748"/>
<path d="M121.496 106.43C121.827 106.43 122.08 106.513 122.257 106.68C122.434 106.843 122.522 107.086 122.522 107.41V108.977H122.194V108.583C122.117 108.714 122.003 108.816 121.852 108.89C121.705 108.964 121.529 109.001 121.323 109.001C121.041 109.001 120.816 108.934 120.649 108.799C120.482 108.664 120.398 108.487 120.398 108.265C120.398 108.051 120.475 107.878 120.63 107.746C120.787 107.615 121.036 107.549 121.376 107.549H122.18V107.396C122.18 107.178 122.119 107.012 121.997 106.901C121.875 106.785 121.697 106.728 121.462 106.728C121.302 106.728 121.148 106.755 121 106.809C120.853 106.86 120.726 106.933 120.62 107.026L120.466 106.771C120.594 106.662 120.749 106.579 120.928 106.521C121.108 106.46 121.297 106.43 121.496 106.43ZM121.376 108.732C121.568 108.732 121.734 108.688 121.872 108.602C122.01 108.512 122.112 108.384 122.18 108.217V107.804H121.385C120.952 107.804 120.735 107.954 120.735 108.256C120.735 108.403 120.792 108.52 120.904 108.607C121.016 108.69 121.174 108.732 121.376 108.732Z" fill="#484748"/>
<path d="M124.895 106.43C125.213 106.43 125.465 106.522 125.651 106.708C125.84 106.891 125.935 107.158 125.935 107.511V108.977H125.593V107.545C125.593 107.282 125.527 107.081 125.396 106.944C125.264 106.806 125.076 106.737 124.832 106.737C124.56 106.737 124.343 106.819 124.182 106.982C124.025 107.142 123.946 107.365 123.946 107.65V108.977H123.604V106.449H123.932V106.915C124.025 106.761 124.153 106.642 124.317 106.559C124.484 106.473 124.677 106.43 124.895 106.43Z" fill="#484748"/>
<path d="M129.158 105.92H127.974V105.613H130.699V105.92H129.514V108.977H129.158V105.92Z" fill="#484748"/>
<path d="M133.291 107.819H131.173C131.192 108.081 131.293 108.294 131.476 108.458C131.659 108.618 131.89 108.698 132.17 108.698C132.327 108.698 132.471 108.671 132.603 108.616C132.735 108.559 132.848 108.475 132.945 108.366L133.137 108.587C133.025 108.722 132.884 108.824 132.714 108.895C132.547 108.965 132.362 109.001 132.16 109.001C131.9 109.001 131.669 108.946 131.467 108.837C131.268 108.725 131.112 108.571 131 108.376C130.887 108.18 130.831 107.959 130.831 107.713C130.831 107.466 130.884 107.245 130.99 107.05C131.099 106.854 131.247 106.702 131.433 106.593C131.622 106.484 131.834 106.43 132.068 106.43C132.303 106.43 132.513 106.484 132.699 106.593C132.886 106.702 133.031 106.854 133.137 107.05C133.243 107.242 133.296 107.463 133.296 107.713L133.291 107.819ZM132.068 106.723C131.825 106.723 131.619 106.801 131.452 106.958C131.288 107.112 131.196 107.314 131.173 107.564H132.969C132.946 107.314 132.852 107.112 132.685 106.958C132.521 106.801 132.316 106.723 132.068 106.723Z" fill="#484748"/>
<path d="M135.196 109.001C134.946 109.001 134.721 108.946 134.522 108.837C134.326 108.728 134.172 108.576 134.06 108.381C133.947 108.182 133.891 107.959 133.891 107.713C133.891 107.466 133.947 107.245 134.06 107.05C134.172 106.854 134.326 106.702 134.522 106.593C134.721 106.484 134.946 106.43 135.196 106.43C135.414 106.43 135.608 106.473 135.778 106.559C135.952 106.642 136.088 106.766 136.188 106.929L135.933 107.102C135.849 106.977 135.743 106.884 135.615 106.824C135.486 106.759 135.347 106.728 135.196 106.728C135.013 106.728 134.848 106.769 134.7 106.853C134.556 106.933 134.441 107.048 134.358 107.199C134.278 107.349 134.238 107.521 134.238 107.713C134.238 107.908 134.278 108.081 134.358 108.232C134.441 108.379 134.556 108.494 134.7 108.578C134.848 108.658 135.013 108.698 135.196 108.698C135.347 108.698 135.486 108.667 135.615 108.607C135.743 108.546 135.849 108.453 135.933 108.328L136.188 108.501C136.088 108.664 135.952 108.789 135.778 108.876C135.605 108.959 135.411 109.001 135.196 109.001Z" fill="#484748"/>
<path d="M138.266 106.43C138.584 106.43 138.836 106.522 139.022 106.708C139.211 106.891 139.306 107.158 139.306 107.511V108.977H138.964V107.545C138.964 107.282 138.898 107.081 138.767 106.944C138.635 106.806 138.447 106.737 138.203 106.737C137.931 106.737 137.714 106.819 137.553 106.982C137.396 107.142 137.317 107.365 137.317 107.65V108.977H136.976V105.411H137.317V106.891C137.411 106.743 137.539 106.63 137.703 106.55C137.866 106.469 138.054 106.43 138.266 106.43Z" fill="#484748"/>
<path d="M142.804 109.006C142.553 109.006 142.312 108.965 142.081 108.885C141.853 108.805 141.677 108.699 141.552 108.568L141.691 108.294C141.813 108.416 141.975 108.515 142.178 108.592C142.38 108.666 142.588 108.703 142.804 108.703C143.105 108.703 143.331 108.648 143.482 108.539C143.633 108.427 143.709 108.283 143.709 108.107C143.709 107.972 143.667 107.865 143.584 107.785C143.503 107.705 143.404 107.644 143.285 107.602C143.166 107.557 143.001 107.509 142.789 107.458C142.535 107.394 142.333 107.333 142.182 107.275C142.032 107.214 141.902 107.123 141.792 107.002C141.687 106.88 141.634 106.715 141.634 106.506C141.634 106.337 141.678 106.183 141.768 106.045C141.858 105.904 141.996 105.792 142.182 105.709C142.369 105.625 142.6 105.584 142.876 105.584C143.068 105.584 143.256 105.611 143.439 105.665C143.625 105.717 143.786 105.789 143.921 105.882L143.8 106.165C143.659 106.072 143.508 106.003 143.348 105.959C143.187 105.911 143.03 105.887 142.876 105.887C142.58 105.887 142.357 105.944 142.207 106.06C142.059 106.171 141.985 106.317 141.985 106.497C141.985 106.631 142.025 106.74 142.105 106.824C142.189 106.904 142.291 106.966 142.414 107.011C142.539 107.053 142.706 107.099 142.914 107.15C143.161 107.211 143.36 107.272 143.511 107.333C143.665 107.391 143.795 107.48 143.901 107.602C144.007 107.721 144.06 107.882 144.06 108.088C144.06 108.257 144.013 108.413 143.921 108.554C143.83 108.691 143.691 108.802 143.502 108.885C143.312 108.965 143.079 109.006 142.804 109.006Z" fill="#484748"/>
<path d="M146.252 108.823C146.188 108.881 146.107 108.925 146.011 108.958C145.918 108.986 145.82 109.001 145.717 109.001C145.48 109.001 145.297 108.937 145.169 108.809C145.04 108.68 144.976 108.499 144.976 108.265V106.737H144.523V106.449H144.976V105.896H145.318V106.449H146.088V106.737H145.318V108.246C145.318 108.397 145.355 108.512 145.429 108.592C145.506 108.669 145.615 108.708 145.756 108.708C145.826 108.708 145.894 108.696 145.958 108.674C146.026 108.651 146.083 108.619 146.132 108.578L146.252 108.823Z" fill="#484748"/>
<path d="M147.914 106.43C148.245 106.43 148.498 106.513 148.675 106.68C148.852 106.843 148.94 107.086 148.94 107.41V108.977H148.612V108.583C148.535 108.714 148.421 108.816 148.27 108.89C148.123 108.964 147.946 109.001 147.741 109.001C147.458 109.001 147.234 108.934 147.067 108.799C146.9 108.664 146.816 108.487 146.816 108.265C146.816 108.051 146.893 107.878 147.048 107.746C147.205 107.615 147.454 107.549 147.794 107.549H148.598V107.396C148.598 107.178 148.537 107.012 148.415 106.901C148.293 106.785 148.115 106.728 147.88 106.728C147.72 106.728 147.566 106.755 147.418 106.809C147.271 106.86 147.144 106.933 147.038 107.026L146.884 106.771C147.012 106.662 147.166 106.579 147.346 106.521C147.526 106.46 147.715 106.43 147.914 106.43ZM147.794 108.732C147.986 108.732 148.152 108.688 148.29 108.602C148.428 108.512 148.53 108.384 148.598 108.217V107.804H147.803C147.37 107.804 147.153 107.954 147.153 108.256C147.153 108.403 147.21 108.52 147.322 108.607C147.434 108.69 147.592 108.732 147.794 108.732Z" fill="#484748"/>
<path d="M150.349 106.944C150.43 106.774 150.548 106.646 150.706 106.559C150.866 106.473 151.064 106.43 151.298 106.43V106.761L151.216 106.756C150.949 106.756 150.741 106.838 150.59 107.002C150.439 107.165 150.364 107.394 150.364 107.689V108.977H150.022V106.449H150.349V106.944Z" fill="#484748"/>
<path d="M153.513 108.823C153.449 108.881 153.368 108.925 153.272 108.958C153.179 108.986 153.081 109.001 152.978 109.001C152.741 109.001 152.558 108.937 152.429 108.809C152.301 108.68 152.237 108.499 152.237 108.265V106.737H151.784V106.449H152.237V105.896H152.579V106.449H153.349V106.737H152.579V108.246C152.579 108.397 152.616 108.512 152.689 108.592C152.766 108.669 152.876 108.708 153.017 108.708C153.088 108.708 153.155 108.696 153.219 108.674C153.286 108.651 153.344 108.619 153.392 108.578L153.513 108.823Z" fill="#484748"/>
<path d="M156.571 106.449V108.977H156.244V108.515C156.154 108.669 156.03 108.789 155.873 108.876C155.716 108.959 155.536 109.001 155.334 109.001C155.003 109.001 154.742 108.909 154.549 108.727C154.36 108.541 154.265 108.27 154.265 107.915V106.449H154.607V107.881C154.607 108.147 154.673 108.349 154.804 108.487C154.936 108.624 155.124 108.693 155.368 108.693C155.634 108.693 155.844 108.613 155.998 108.453C156.152 108.29 156.229 108.064 156.229 107.775V106.449H156.571Z" fill="#484748"/>
<path d="M158.988 106.43C159.225 106.43 159.44 106.484 159.633 106.593C159.826 106.699 159.976 106.849 160.086 107.045C160.195 107.24 160.249 107.463 160.249 107.713C160.249 107.966 160.195 108.19 160.086 108.386C159.976 108.581 159.826 108.733 159.633 108.842C159.444 108.948 159.229 109.001 158.988 109.001C158.782 109.001 158.596 108.959 158.429 108.876C158.266 108.789 158.131 108.664 158.025 108.501V109.909H157.683V106.449H158.01V106.949C158.113 106.782 158.248 106.654 158.415 106.564C158.585 106.474 158.776 106.43 158.988 106.43ZM158.964 108.698C159.14 108.698 159.301 108.658 159.445 108.578C159.59 108.494 159.702 108.377 159.782 108.227C159.866 108.076 159.907 107.905 159.907 107.713C159.907 107.521 159.866 107.351 159.782 107.203C159.702 107.053 159.59 106.936 159.445 106.853C159.301 106.769 159.14 106.728 158.964 106.728C158.784 106.728 158.622 106.769 158.478 106.853C158.336 106.936 158.224 107.053 158.14 107.203C158.06 107.351 158.02 107.521 158.02 107.713C158.02 107.905 158.06 108.076 158.14 108.227C158.224 108.377 158.336 108.494 158.478 108.578C158.622 108.658 158.784 108.698 158.964 108.698Z" fill="#484748"/>
<path d="M161.779 109.001C161.574 109.001 161.376 108.972 161.187 108.914C161.001 108.853 160.854 108.778 160.749 108.688L160.903 108.419C161.009 108.502 161.142 108.571 161.302 108.626C161.463 108.677 161.63 108.703 161.803 108.703C162.034 108.703 162.204 108.667 162.313 108.597C162.426 108.523 162.482 108.421 162.482 108.29C162.482 108.196 162.451 108.124 162.39 108.073C162.329 108.019 162.252 107.978 162.159 107.953C162.066 107.924 161.943 107.897 161.788 107.871C161.583 107.833 161.418 107.794 161.293 107.756C161.167 107.714 161.06 107.646 160.97 107.549C160.883 107.453 160.84 107.32 160.84 107.15C160.84 106.939 160.928 106.766 161.105 106.631C161.281 106.497 161.527 106.43 161.841 106.43C162.005 106.43 162.169 106.452 162.333 106.497C162.496 106.538 162.631 106.594 162.737 106.665L162.588 106.939C162.379 106.795 162.13 106.723 161.841 106.723C161.623 106.723 161.458 106.761 161.346 106.838C161.237 106.915 161.182 107.016 161.182 107.141C161.182 107.237 161.212 107.314 161.273 107.372C161.338 107.429 161.416 107.472 161.509 107.501C161.602 107.527 161.731 107.554 161.894 107.583C162.097 107.621 162.259 107.66 162.381 107.698C162.503 107.737 162.607 107.802 162.694 107.895C162.78 107.988 162.824 108.116 162.824 108.28C162.824 108.501 162.73 108.677 162.544 108.809C162.361 108.937 162.106 109.001 161.779 109.001Z" fill="#484748"/>
<path d="M76.1149 97.228H73.4095V101.879H68.4497V84.3759H76.4657C78.0522 84.3759 79.4298 84.6426 80.5987 85.176C81.7677 85.6928 82.6694 86.4429 83.3039 87.4264C83.9387 88.3932 84.2558 89.5351 84.2558 90.852C84.2558 92.1189 83.9552 93.2273 83.3541 94.1775C82.7695 95.111 81.9262 95.8444 80.824 96.3779L84.6066 101.879H79.296L76.1149 97.228ZM79.2462 90.852C79.2462 90.0352 78.9872 89.4017 78.4696 88.9516C77.9517 88.5016 77.1838 88.2765 76.1648 88.2765H73.4095V93.4024H76.1648C77.1838 93.4024 77.9517 93.1857 78.4696 92.7523C78.9872 92.3022 79.2462 91.6688 79.2462 90.852Z" fill="#484748"/>
<path d="M96.8662 102.229C95.0126 102.229 93.3429 101.837 91.8566 101.054C90.3871 100.27 89.2264 99.1867 88.3746 97.8031C87.5396 96.4196 87.1221 94.861 87.1221 93.1273C87.1221 91.3937 87.5396 89.8351 88.3746 88.4516C89.2264 87.068 90.3871 85.9845 91.8566 85.201C93.3429 84.4176 95.0126 84.0258 96.8662 84.0258C98.7198 84.0258 100.382 84.4176 101.851 85.201C103.337 85.9845 104.498 87.068 105.333 88.4516C106.185 89.8351 106.61 91.3937 106.61 93.1273C106.61 94.861 106.185 96.4196 105.333 97.8031C104.498 99.1867 103.337 100.27 101.851 101.054C100.382 101.837 98.7198 102.229 96.8662 102.229ZM96.8662 98.1282C97.7514 98.1282 98.553 97.9198 99.2711 97.5031C99.9892 97.0863 100.557 96.5029 100.974 95.7528C101.392 94.986 101.601 94.1108 101.601 93.1273C101.601 92.1439 101.392 91.277 100.974 90.5269C100.557 89.7601 99.9892 89.1684 99.2711 88.7516C98.553 88.3349 97.7514 88.1265 96.8662 88.1265C95.9813 88.1265 95.1797 88.3349 94.4616 88.7516C93.7436 89.1684 93.1758 89.7601 92.7583 90.5269C92.3408 91.277 92.132 92.1439 92.132 93.1273C92.132 94.1108 92.3408 94.986 92.7583 95.7528C93.1758 96.5029 93.7436 97.0863 94.4616 97.5031C95.1797 97.9198 95.9813 98.1282 96.8662 98.1282Z" fill="#484748"/>
<path d="M113.727 88.3015H108.342V84.3759H124.048V88.3015H118.687V101.879H113.727V88.3015Z" fill="#484748"/>
<path d="M133.384 102.229C131.965 102.229 130.587 102.054 129.251 101.704C127.915 101.354 126.83 100.887 125.995 100.304L127.623 96.6529C128.408 97.1697 129.318 97.5864 130.353 97.9031C131.389 98.2198 132.407 98.3782 133.409 98.3782C135.313 98.3782 136.265 97.9031 136.265 96.953C136.265 96.4529 135.989 96.0862 135.438 95.8528C134.904 95.6027 134.035 95.3444 132.833 95.0777C131.514 94.7943 130.412 94.4942 129.527 94.1775C128.642 93.8441 127.882 93.3191 127.247 92.6023C126.613 91.8855 126.295 90.9186 126.295 89.7018C126.295 88.6349 126.588 87.6765 127.172 86.8263C127.756 85.9595 128.625 85.2761 129.777 84.776C130.946 84.2759 132.374 84.0258 134.061 84.0258C135.213 84.0258 136.349 84.1592 137.467 84.4259C138.586 84.676 139.572 85.051 140.423 85.5511L138.895 89.2267C137.225 88.3266 135.605 87.8765 134.035 87.8765C133.05 87.8765 132.332 88.0265 131.881 88.3265C131.43 88.6099 131.205 88.985 131.205 89.4518C131.205 89.9185 131.472 90.2685 132.006 90.5019C132.541 90.7353 133.401 90.977 134.587 91.227C135.922 91.5104 137.025 91.8188 137.893 92.1522C138.778 92.4689 139.538 92.9857 140.173 93.7024C140.824 94.4026 141.149 95.361 141.149 96.5779C141.149 97.6281 140.857 98.5782 140.273 99.4284C139.688 100.279 138.812 100.962 137.643 101.479C136.474 101.979 135.054 102.229 133.384 102.229Z" fill="#484748"/>
<path d="M156.22 98.4782H148.806L147.428 101.879H142.368L150.108 84.3759H154.993L162.758 101.879H157.598L156.22 98.4782ZM154.768 94.8276L152.513 89.2267L150.259 94.8276H154.768Z" fill="#484748"/>
<path fill-rule="evenodd" clip-rule="evenodd" d="M22 81.4663L41.8379 70L61.6757 81.4663V104.399L41.8379 115.865L22 104.399V81.4663ZM47.3967 92.9444L50.0979 95.9868V105.756L44.9639 100.616L44.9471 100.644L44.929 100.676H38.4831L38.4647 100.645L38.4479 100.616L33.3138 105.756V95.9868L36.0154 92.9444C35.7843 91.3314 35.656 89.5947 35.656 87.7809V87.6707L32.4702 85.6502C32.044 86.2312 31.3569 86.6082 30.5818 86.6082C30.3077 86.6082 30.0448 86.5611 29.8003 86.4746L25.8017 94.3545C26.0989 94.6055 26.2881 94.9809 26.2881 95.4007C26.2881 96.1561 25.6765 96.7683 24.9218 96.7683C24.1672 96.7683 23.5556 96.1561 23.5556 95.4007C23.5556 94.6454 24.1672 94.033 24.9218 94.033C24.9769 94.033 25.0313 94.0362 25.0847 94.0426L29.1179 86.0939C28.5825 85.6642 28.2396 85.0039 28.2396 84.2635C28.2396 82.9687 29.2881 81.919 30.5818 81.919C31.8751 81.919 32.9236 82.9687 32.9236 84.2635C32.9236 84.3777 32.9155 84.4898 32.9001 84.5996C32.883 84.719 32.8568 84.8354 32.8222 84.9482L35.6694 86.754C35.879 78.8159 38.5016 72.5408 41.7059 72.5408C45.0472 72.5408 47.7561 79.3638 47.7561 87.7809C47.7561 88.708 47.7225 89.615 47.6587 90.4954L52.2933 89.7836C52.2614 89.5765 52.2446 89.3644 52.2446 89.1483C52.2446 86.8824 54.0796 85.0451 56.3429 85.0451C58.6063 85.0451 60.4414 86.8824 60.4414 89.1483C60.4414 91.2824 58.8137 93.0347 56.7335 93.2316V97.5849C57.8405 97.7713 58.6851 98.7329 58.6851 99.8943C58.6851 101.189 57.6365 102.239 56.3429 102.239C55.0496 102.239 54.001 101.189 54.001 99.8943C54.001 98.7329 54.8457 97.7713 55.9526 97.5849V93.2316C54.3503 93.08 53.0164 92.0053 52.4881 90.5444L47.5918 91.2963C47.5553 91.6839 47.5126 92.0659 47.4646 92.4415C47.4431 92.6104 47.4206 92.7781 47.3967 92.9444ZM41.901 83.0915C40.1764 83.0915 38.7783 84.4912 38.7783 86.2175C38.7783 87.9439 40.1764 89.3437 41.901 89.3437C43.6255 89.3437 45.0236 87.9439 45.0236 86.2175C45.0236 84.4912 43.6255 83.0915 41.901 83.0915Z" fill="#484748"/>
<path fill-rule="evenodd" clip-rule="evenodd" d="M41.6762 114.039C41.0322 114.039 40.5054 113.512 40.5054 112.867V103.098C40.5054 102.453 41.0322 101.925 41.6762 101.925C42.3203 101.925 42.8472 102.453 42.8472 103.098V112.867C42.8472 113.512 42.3203 114.039 41.6762 114.039Z" fill="#F5E08E"/>
<path fill-rule="evenodd" clip-rule="evenodd" d="M38.749 107.787C38.4271 107.787 38.1636 107.523 38.1636 107.201V102.902C38.1636 102.58 38.4271 102.316 38.749 102.316C39.0711 102.316 39.3345 102.58 39.3345 102.902V107.201C39.3345 107.523 39.0711 107.787 38.749 107.787Z" fill="#5A87B9"/>
<path fill-rule="evenodd" clip-rule="evenodd" d="M44.7991 109.741C44.3699 109.741 44.0186 109.389 44.0186 108.959V102.707C44.0186 102.277 44.3699 101.925 44.7991 101.925C45.2285 101.925 45.5797 102.277 45.5797 102.707V108.959C45.5797 109.389 45.2285 109.741 44.7991 109.741Z" fill="#DE4D52"/>
</svg>
