<svg xmlns="http://www.w3.org/2000/svg" viewBox="0 0 186 186">
  <defs>
    <style>
      .cls-2{fill:#fff}.cls-3{fill:#231f20}.cls-4{fill:#ea3939}
    </style>
  </defs>
  <g id="Layer_2" data-name="Layer 2">
    <g id="Layer_1-2" data-name="Layer 1">
      <path fill="none" d="M0 0h186v186H0z"/>
      <path d="M103.71 74.37h4.54v32.92h-4.54z" class="cls-2"/>
      <path d="M103.71 74.37h4.54v32.92h-4.54z" class="cls-3"/>
      <path d="M70.79 72.1h4.54v32.92h-4.54z" class="cls-2"/>
      <path d="M70.79 72.1h4.54v32.92h-4.54z" class="cls-3"/>
      <path d="M124.15 108.43H41a4.31 4.31 0 0 1-4.3-4.3V75.35a4.3 4.3 0 0 1 4.3-4.29h95.76a4.53 4.53 0 0 1 2.8.9 4.28 4.28 0 0 1 1.67 3.42L141.19 88a2.27 2.27 0 0 1-2.29 2.26 2.27 2.27 0 0 1-2.25-2.26l.06-12.38H41.27v28.28h82.88a2.27 2.27 0 0 1 2.27 2.27 2.28 2.28 0 0 1-2.27 2.26Z" class="cls-3"/>
      <path d="M98.03 80.04H79.87v4.54h6.81v15.9h4.54v-15.9h6.81v-4.54zM58.7 100.48h5.72l-3.86-9a6.46 6.46 0 0 0 1.7-2.08 6.21 6.21 0 0 0-.17-5.94 6.91 6.91 0 0 0-6-3.4h-8.01v20.44h4.54v-7.4H56ZM52.62 84h3.44a3 3 0 0 1 2.61 1.46 2.17 2.17 0 0 1 0 2.11 2.91 2.91 0 0 1-2.63 1.49h-3.42ZM123.81 100.91a11.17 11.17 0 1 1 9.26-17.42l-4.71 3.18a5.46 5.46 0 0 0-4.55-2.42 5.49 5.49 0 1 0 0 11 5.51 5.51 0 0 0 4.47-2.3l4.62 3.3a11.2 11.2 0 0 1-9.09 4.66Z" class="cls-3"/>
      <path d="M138 96.33h-.06A1.87 1.87 0 0 0 137 98v4.12a18.61 18.61 0 0 0 .39 3.79l.21 1a30.53 30.53 0 0 0 .78 3l1 3.1c.37 1.26.67.91 1.24.91.81 0 1.45-.24 1.29-1.51l-.71-4.41-.28-2.44a37.13 37.13 0 0 1-.21-5.17l.07-2.33a1.86 1.86 0 0 0-1.11-1.77 1.87 1.87 0 0 0-1.67.04Z" class="cls-4"/>
      <path d="M131.67 107.38v.05a1.87 1.87 0 0 0 1.63 1h4.11a18.47 18.47 0 0 0 3.79-.39l1-.21a30.38 30.38 0 0 0 3-.79l3.11-1a1.32 1.32 0 0 0 .91-1.25c0-.8.25-1.58-1.51-1.29l-4.45.7-2.43.27a37.34 37.34 0 0 1-5.18.21l-2.33-.07a1.88 1.88 0 0 0-1.77 1.12 1.88 1.88 0 0 0 .12 1.65Z" class="cls-4"/>
    </g>
  </g>
</svg>
