<svg width="186" height="186" viewBox="0 0 186 186" fill="none" xmlns="http://www.w3.org/2000/svg">
<g clip-path="url(#clip0_906_47)">
<path fill-rule="evenodd" clip-rule="evenodd" d="M23.9751 105.008L26.1668 104.324L25.7889 104.02L27.9806 103.108L27.6027 102.652L29.7944 102.044L30.0967 103.64L25.94 106.224L23.9751 105.008Z" fill="#DACB00"/>
<path fill-rule="evenodd" clip-rule="evenodd" d="M56.3212 73.4705V79.246L47.0254 82.3617L39.2412 79.626L56.3212 73.4705Z" fill="#526D1A"/>
<path fill-rule="evenodd" clip-rule="evenodd" d="M63.8788 96.5724L46.95 102.272L37.881 99.2321L29.7944 101.74L45.9675 107.515L64.0299 100.98L63.8788 96.5724Z" fill="#DACB00"/>
<path fill-rule="evenodd" clip-rule="evenodd" d="M45.8921 95.5085V87.7572L24.1265 80.0059V87.7572L45.8921 95.5085Z" fill="#B5A808"/>
<path fill-rule="evenodd" clip-rule="evenodd" d="M57.228 98.5483V91.101L64.0298 88.8212V100.828L57.228 98.5483Z" fill="#B5A808"/>
<path fill-rule="evenodd" clip-rule="evenodd" d="M29.6433 101.664H29.5678V103.032L27.754 102.652V104.4L25.789 103.868V105.464L24.0508 104.932V107.135L45.892 114.963V107.363L29.6433 101.664Z" fill="#B5A808"/>
<path fill-rule="evenodd" clip-rule="evenodd" d="M66.2218 80.3859L45.8921 87.7572V95.4325L64.0301 88.8211V100.828L45.8921 107.439V114.963L71.1341 105.844L71.2097 78.7141L66.2218 80.3859Z" fill="#526D1A"/>
<path fill-rule="evenodd" clip-rule="evenodd" d="M64.1054 76.2823L46.9499 82.4377L39.1657 79.702L56.2456 73.5465L49.2172 71.0388L23.9751 80.0059L45.8163 87.7572L71.1339 78.79L64.1054 76.2823Z" fill="#DACB00"/>
<path fill-rule="evenodd" clip-rule="evenodd" d="M87.3826 85.4774C87.6093 85.5534 87.6093 85.6294 87.6093 85.8574V87.4532C87.6093 87.6812 87.6849 87.9092 87.4582 87.9092H83.5283C82.7725 87.9092 82.1679 88.0612 82.1679 88.6691V88.8971C82.1679 89.3531 82.4702 89.6571 83.0748 89.961L86.0222 91.0249C87.6093 91.6329 88.5918 92.3168 88.5918 94.5206V94.9766C88.5918 97.3324 86.7024 98.2443 83.6794 98.2443C82.3191 98.2443 80.8831 98.0923 79.5228 97.8643C79.2961 97.7883 79.0693 97.7123 79.0693 97.4843V96.0405C79.0693 95.8125 79.3716 95.8885 79.5984 95.8885H84.284C85.0398 95.8885 85.4176 95.4325 85.4176 94.9006V94.4446C85.4176 93.8367 85.0398 93.6087 84.284 93.3047L81.5633 92.3168C80.203 91.8609 79.5228 90.9489 79.5228 88.7451V88.3652C79.5228 86.0094 80.9587 85.0975 84.0573 85.0975C85.1153 85.0975 86.249 85.2495 87.3826 85.4774Z" fill="#526D1A"/>
<path fill-rule="evenodd" clip-rule="evenodd" d="M92.7484 86.2374C92.8995 86.1614 93.0507 86.3134 93.0507 86.4653V88.8211H94.411C94.6377 88.8211 94.8645 88.8971 94.8645 89.1251V90.721C94.7889 90.9489 94.6377 91.1009 94.411 91.1769H93.0507V94.9006C93.0507 95.5845 93.2774 95.7365 93.882 95.7365H94.4866C94.6377 95.7365 94.7889 95.8125 94.7889 95.9645V97.6363C94.7889 97.8643 94.6377 97.9403 94.4866 97.9403C93.9576 98.0163 93.4285 98.0923 92.9751 98.0923C91.4636 98.0923 90.2544 98.0163 90.2544 95.8885V91.1009H89.1208C88.9696 91.1009 88.894 90.8729 88.894 90.645V89.0491C88.894 88.8971 88.9696 88.7451 89.1208 88.7451H90.2544V87.0733C90.2544 86.9213 90.2544 86.8453 90.4055 86.8453L92.7484 86.2374Z" fill="#526D1A"/>
<path fill-rule="evenodd" clip-rule="evenodd" d="M99.3236 94.2926C98.4922 94.2926 98.3411 94.5206 98.3411 95.0525C98.3411 95.7365 98.5678 95.8125 99.4747 95.8125C99.9282 95.8125 100.382 95.7365 100.835 95.6605V94.2926H99.3236ZM103.48 91.5569V97.1804C103.48 97.4843 103.48 97.6363 103.178 97.7123C101.969 97.9403 100.759 98.0923 99.4747 98.0163C96.9052 98.0163 95.4692 97.8643 95.4692 95.1285C95.4692 92.8487 96.6784 92.3928 98.9457 92.3928H100.684V92.0888C100.684 91.4049 100.306 91.1009 99.4747 91.1009H96.3006C96.1494 91.1009 96.1494 91.1009 96.1494 90.8729V89.2011C96.1494 88.9731 96.225 88.9731 96.3761 88.9731C97.3586 88.7451 98.4167 88.6691 99.4747 88.6691C103.027 88.6691 103.48 89.885 103.48 91.5569Z" fill="#526D1A"/>
<path fill-rule="evenodd" clip-rule="evenodd" d="M110.811 88.8211C111.038 88.8211 111.189 88.8971 111.189 89.2011V90.8729C111.189 91.0249 110.886 91.1009 110.735 91.1009H109.148C108.468 91.1009 108.015 91.2529 108.015 91.9368V97.7123C108.015 97.8643 108.015 97.9403 107.864 97.9403H105.521C105.37 97.9403 105.294 97.9403 105.294 97.7123V91.1769C105.294 89.0491 106.73 88.6691 108.468 88.6691C109.224 88.6691 110.055 88.7451 110.811 88.8211Z" fill="#526D1A"/>
<path fill-rule="evenodd" clip-rule="evenodd" d="M115.119 86.2374C115.27 86.1614 115.27 86.3134 115.27 86.4653V88.8211H116.857C117.084 88.8211 117.084 88.8971 117.084 89.1251V90.721C117.084 90.873 117.084 91.1769 116.857 91.1769H115.27V94.9006C115.27 95.5845 115.799 95.7365 116.403 95.7365H117.008C117.159 95.7365 117.084 95.8125 117.084 95.9645V97.6363C117.084 97.8643 117.084 97.9403 116.932 97.9403C116.403 98.0163 115.874 98.0923 115.345 98.0923C113.834 98.0923 112.549 98.0163 112.549 95.8885V91.1009H111.718C111.567 91.1009 111.642 90.8729 111.642 90.645V89.0491C111.642 88.8971 111.491 88.7451 111.718 88.7451H112.549V87.0733C112.549 86.9213 112.625 86.8453 112.776 86.8453L115.119 86.2374Z" fill="#526D1A"/>
<path fill-rule="evenodd" clip-rule="evenodd" d="M121.769 94.2926C120.938 94.2926 120.787 94.5206 120.787 95.0525C120.787 95.7365 121.089 95.8125 121.996 95.8125C122.449 95.8125 122.978 95.7365 123.432 95.6605V94.2926H121.769ZM126.152 91.5569V97.1804C126.228 97.4083 126.001 97.6363 125.775 97.7123C124.565 97.9403 123.281 98.0923 122.071 98.0163C119.502 98.0163 118.066 97.8643 118.066 95.1285C118.066 92.8487 119.351 92.3928 121.694 92.3928H123.507V92.0888C123.507 91.4049 122.978 91.1009 122.147 91.1009H118.973C118.822 91.1009 118.973 91.1009 118.973 90.8729V89.2011C118.973 88.9731 118.973 88.9731 119.048 88.9731C120.106 88.7451 121.164 88.6691 122.147 88.6691C125.699 88.6691 126.152 89.885 126.152 91.5569Z" fill="#526D1A"/>
<path fill-rule="evenodd" clip-rule="evenodd" d="M133.181 88.8211C133.408 88.8211 133.408 88.8971 133.408 89.2011V90.8729C133.408 91.0249 133.408 91.1009 133.181 91.1009H131.594C130.914 91.1009 130.687 91.2529 130.687 91.9368V97.7123C130.687 97.8643 130.536 97.9403 130.385 97.9403H128.042C127.891 97.9403 127.966 97.9403 127.966 97.7123V91.1769C127.966 89.0491 129.251 88.6691 130.989 88.6691C131.669 88.6691 132.425 88.7451 133.181 88.8211Z" fill="#526D1A"/>
<path fill-rule="evenodd" clip-rule="evenodd" d="M137.111 88.8211C137.262 88.8211 137.489 88.8971 137.489 89.0491V97.7883C137.489 97.9403 137.262 98.0163 137.111 98.0163H134.768C134.617 98.0163 134.315 98.0163 134.315 97.7883V89.0491C134.315 88.8971 134.617 88.8211 134.768 88.8211H137.111ZM137.565 86.2374C137.64 86.9973 137.036 87.6812 136.204 87.7572C136.129 87.7572 136.053 87.7572 135.902 87.7572C134.844 87.7572 134.239 87.2253 134.239 86.2374C134.239 85.3254 134.844 84.7935 135.902 84.7935C136.658 84.7175 137.413 85.2494 137.489 86.0094C137.565 86.0854 137.565 86.1614 137.565 86.2374Z" fill="#526D1A"/>
<path fill-rule="evenodd" clip-rule="evenodd" d="M147.162 88.8212C147.314 88.8212 147.465 88.8972 147.465 89.0491V97.4844C147.465 97.7124 147.389 97.7123 147.162 97.7883C145.726 98.0163 144.366 98.0923 142.93 98.0923C139.756 98.0923 138.849 97.4084 138.849 94.1407V89.0491C138.849 88.8972 139.151 88.8212 139.303 88.8212H141.645C141.797 88.8212 142.023 88.8972 142.023 89.0491V93.3048C142.023 95.5845 142.023 95.7365 143.459 95.7365H144.744V89.1251C144.744 88.9731 144.593 88.8972 144.82 88.8972L147.162 88.8212Z" fill="#526D1A"/>
<path fill-rule="evenodd" clip-rule="evenodd" d="M161.975 92.0128V97.7123C161.975 97.8643 161.824 97.9403 161.673 97.9403H159.33C159.179 97.9403 159.33 97.9403 159.33 97.7123V93.5327C159.33 91.2529 159.103 91.1769 157.894 91.1769C157.516 91.1769 157.214 91.1769 156.836 91.2529C156.987 91.7089 156.987 92.2408 156.987 92.6968V97.7883C156.987 97.9403 156.912 98.0163 156.761 98.0163H154.418C154.267 98.0163 154.418 98.0163 154.418 97.7883V92.7728C154.418 91.2529 154.04 91.1769 152.906 91.1769H152.151V97.7883C152.151 97.9403 151.999 98.0163 151.848 98.0163H149.354C149.203 98.0163 149.279 98.0163 149.279 97.7883V89.2771C149.279 89.1251 149.279 89.0491 149.43 89.0491C150.488 88.8211 151.546 88.7452 152.68 88.7452C153.738 88.6692 154.72 88.8971 155.703 89.2771C156.609 88.8971 157.667 88.7452 158.65 88.7452C160.993 88.6692 161.975 89.5051 161.975 92.0128Z" fill="#526D1A"/>
</g>
<defs>
<clipPath id="clip0_906_47">
<rect width="138" height="44" fill="white" transform="translate(24 71)"/>
</clipPath>
</defs>
</svg>
