<svg width="186" height="186" viewBox="0 0 186 186" fill="none" xmlns="http://www.w3.org/2000/svg">
<path d="M54.8301 92.7455V107.662H52.5611V92.7455H48.4185V90.5644H58.9581V92.7455H54.8301Z" fill="#1C144E"/>
<path d="M61.491 102.26C61.491 102.67 61.6374 103.095 61.9448 103.549C62.2375 103.988 62.5889 104.368 62.9841 104.676C63.7014 105.247 64.5504 105.525 65.5019 105.525C67.0243 105.525 68.2686 104.793 69.2347 103.314L71.1816 104.471C70.5083 105.554 69.6885 106.389 68.7077 106.959C67.727 107.545 66.6584 107.838 65.4873 107.838C64.609 107.838 63.7746 107.677 62.9987 107.34C62.2083 107.003 61.5203 106.535 60.9201 105.935C60.3199 105.335 59.8515 104.647 59.5148 103.856C59.1781 103.066 59.0171 102.231 59.0171 101.368C59.0171 100.504 59.1781 99.6548 59.5148 98.8644C59.8515 98.0739 60.3199 97.3712 60.9201 96.7711C61.5056 96.1709 62.1936 95.7025 62.9841 95.3804C63.7746 95.0584 64.6236 94.8973 65.4873 94.8973C66.3509 94.8973 67.2 95.0584 67.9905 95.3804C68.7809 95.7025 69.4836 96.1709 70.0545 96.7711C71.328 98.0739 71.9575 99.5816 71.9575 101.294C71.9575 101.602 71.9282 101.924 71.8843 102.275H61.491V102.26ZM63.5257 97.4444C62.9109 97.7518 62.4132 98.1617 62.0472 98.6594C61.6813 99.1718 61.491 99.6987 61.491 100.27H69.5128C69.5128 99.6987 69.3225 99.1718 68.9566 98.6594C68.5906 98.1471 68.0929 97.7518 67.4781 97.4444C66.8633 97.137 66.2046 96.976 65.5019 96.976C64.7993 96.976 64.1405 97.137 63.5257 97.4444Z" fill="#1C144E"/>
<path d="M77.5344 107.34C76.7586 107.003 76.0706 106.535 75.4704 105.935C74.8849 105.349 74.4311 104.661 74.0944 103.871C73.7577 103.08 73.5967 102.231 73.5967 101.368C73.5967 100.504 73.7577 99.6548 74.0944 98.8644C74.4311 98.0739 74.8849 97.3712 75.4704 96.8003C76.0706 96.2002 76.7586 95.7317 77.5344 95.395C78.3103 95.0584 79.1446 94.8973 80.0083 94.8973C82.0284 94.8973 83.7411 95.761 85.1464 97.4737L83.1409 98.6301C82.248 97.6933 81.2087 97.2102 80.0083 97.2102C79.4374 97.2102 78.9104 97.3127 78.3981 97.5323C77.8857 97.7518 77.4466 98.0446 77.0806 98.4252C76.7 98.8058 76.4073 99.245 76.1877 99.7573C75.9681 100.27 75.851 100.811 75.851 101.382C75.851 101.953 75.9681 102.495 76.1877 103.007C76.4073 103.519 76.7147 103.973 77.0806 104.339C77.4612 104.72 77.9004 105.012 78.3981 105.232C78.9104 105.452 79.4374 105.554 80.0083 105.554C81.2087 105.554 82.248 105.086 83.1409 104.134L85.1464 105.291C83.7411 107.003 82.0284 107.867 80.0083 107.867C79.1446 107.838 78.3103 107.677 77.5344 107.34Z" fill="#1C144E"/>
<path d="M94.8954 107.706V99.8159C94.8954 99.0108 94.6173 98.3228 94.0464 97.7665C93.7829 97.503 93.4902 97.2981 93.1388 97.1517C92.7875 96.9907 92.4362 96.9175 92.0702 96.9175C91.2944 96.9175 90.6357 97.1956 90.0648 97.7665C89.4939 98.3374 89.2157 99.0108 89.2157 99.8159V107.706H86.9468V90.5644H89.2157V95.761C90.0355 94.9852 90.987 94.6046 92.0702 94.6046C92.7582 94.6046 93.4023 94.7363 94.0171 94.9998C94.632 95.2633 95.1882 95.6439 95.6566 96.1124C96.1251 96.5954 96.4764 97.1517 96.7545 97.7958C97.018 98.4399 97.1498 99.1132 97.1498 99.8159V107.706H94.8954Z" fill="#1C144E"/>
<path d="M100.927 107.706V90.6083H110.281V92.9212H103.166V98.1178H107.953V100.226H103.166V105.393H110.281V107.706H100.927Z" fill="#852AFF"/>
<path d="M118.61 107.706H116.429L111.364 94.8534H113.809L117.542 104.237L121.245 94.8534H123.69L118.61 107.706Z" fill="#852AFF"/>
<path d="M126.588 102.26C126.588 102.67 126.735 103.095 127.042 103.549C127.335 103.988 127.686 104.368 128.081 104.676C128.799 105.247 129.648 105.525 130.599 105.525C132.121 105.525 133.366 104.793 134.332 103.314L136.279 104.471C135.605 105.554 134.786 106.389 133.805 106.959C132.824 107.545 131.756 107.838 130.584 107.838C129.706 107.838 128.872 107.677 128.096 107.34C127.305 107.003 126.617 106.535 126.017 105.935C125.417 105.335 124.949 104.647 124.612 103.856C124.275 103.066 124.114 102.231 124.114 101.368C124.114 100.504 124.275 99.6548 124.612 98.8644C124.949 98.0739 125.417 97.3712 126.017 96.7711C126.603 96.1709 127.291 95.7025 128.081 95.3804C128.872 95.0584 129.721 94.8973 130.584 94.8973C131.463 94.8973 132.297 95.0584 133.088 95.3804C133.878 95.7025 134.581 96.1709 135.152 96.7711C136.425 98.0739 137.055 99.5816 137.055 101.294C137.055 101.602 137.025 101.924 136.981 102.275H126.588V102.26ZM128.608 97.4444C127.993 97.7518 127.496 98.1617 127.13 98.6594C126.764 99.1718 126.574 99.6987 126.574 100.27H134.595C134.595 99.6987 134.405 99.1718 134.039 98.6594C133.673 98.1471 133.175 97.7518 132.561 97.4444C131.946 97.137 131.287 96.976 130.584 96.976C129.882 96.976 129.238 97.137 128.608 97.4444Z" fill="#852AFF"/>
<path d="M147.345 107.706V99.9915C147.345 99.2156 147.067 98.5569 146.496 97.986C145.955 97.4444 145.281 97.1663 144.491 97.1663C143.715 97.1663 143.056 97.4444 142.485 98.0153C142.222 98.2788 142.017 98.5716 141.87 98.9229C141.709 99.2742 141.636 99.6255 141.636 99.9915V107.706H139.396V95.1608H141.636V96.2148C141.958 95.8195 142.397 95.4975 142.924 95.234C143.451 94.9705 143.978 94.8534 144.491 94.8534C145.179 94.8534 145.837 94.9851 146.452 95.2486C147.082 95.5121 147.623 95.8927 148.106 96.3612C148.575 96.8296 148.926 97.3712 149.204 98.0007C149.468 98.6301 149.599 99.2888 149.599 99.9915V107.706H147.345Z" fill="#852AFF"/>
<path d="M155.265 97.1663V107.706H153.084V97.1663H151.151V94.8534H153.084V90.6083H155.265V94.8534H157.197V97.1663H155.265Z" fill="#852AFF"/>
<path d="M165.335 97.8103C165.013 97.2394 164.369 96.9613 163.403 96.9613C162.891 96.9613 162.496 97.0199 162.218 97.137C161.852 97.2687 161.588 97.4737 161.412 97.7225C161.237 97.986 161.149 98.2641 161.149 98.5715C161.149 98.9521 161.281 99.2888 161.559 99.5962C161.852 99.9183 162.32 100.094 162.979 100.109C164.12 100.167 165.057 100.299 165.775 100.518C166.492 100.738 167.034 101.133 167.414 101.675C167.795 102.217 168 102.992 168 103.988C168 104.998 167.619 105.876 166.843 106.608C166.463 106.974 166.023 107.267 165.526 107.486C165.013 107.706 164.486 107.823 163.945 107.823H163.564C162.188 107.823 161.09 107.428 160.241 106.637C159.553 106.008 159.129 105.115 158.953 103.958H161.237C161.325 104.368 161.5 104.705 161.749 104.954C162.144 105.335 162.686 105.525 163.389 105.525C163.579 105.525 163.711 105.51 163.798 105.496C164.399 105.466 164.867 105.291 165.218 104.998C165.555 104.705 165.731 104.324 165.731 103.885C165.731 103.27 165.54 102.861 165.16 102.67C164.779 102.48 164.047 102.392 162.979 102.392C161.632 102.392 160.593 101.968 159.875 101.104C159.29 100.46 158.997 99.6255 158.997 98.6301C158.997 98.4105 159.012 98.2349 159.026 98.1178C159.158 97.0052 159.626 96.1562 160.402 95.556C161.178 94.9559 162.217 94.6631 163.506 94.6631C164.443 94.6631 165.277 94.868 165.98 95.2779C166.477 95.5853 166.902 96.0098 167.268 96.5661C167.604 97.1077 167.839 97.7957 167.941 98.6155L167.883 98.6447H165.701C165.614 98.3812 165.497 98.0885 165.335 97.8103Z" fill="#852AFF"/>
<path d="M34.073 107.794L28.7153 98.513H24.4995C23.9871 98.513 23.4601 98.4545 22.9624 98.3227C20.0494 97.6201 18 95.0291 18 92.0136C18 89.1737 19.8152 86.6998 22.4794 85.8361C23.7383 81.7667 27.4564 79 31.7894 79C35.0245 79 38.0839 80.6395 39.8845 83.3037C40.1919 83.3915 40.4993 83.494 40.792 83.6111C43.6904 84.8115 45.5642 87.622 45.5642 90.7547C45.5642 93.8873 43.6904 96.6979 40.8067 97.8982C40.3968 98.0739 39.9869 98.2056 39.5478 98.3081L34.073 107.794ZM31.7894 81.4446C28.3494 81.4446 25.4217 83.7721 24.6605 87.1243L24.4848 87.8855L23.7236 88.0465C23.6651 88.0612 23.6065 88.0758 23.548 88.0905C21.7182 88.5296 20.4446 90.1545 20.4446 92.0282C20.4446 93.9019 21.7182 95.5268 23.5333 95.9659C23.8407 96.0391 24.1628 96.0831 24.4995 96.0831H30.1206L34.073 102.919L37.9961 96.1123L38.5816 96.0245C39.0208 95.9659 39.4453 95.8488 39.8552 95.6732C41.846 94.8534 43.1195 92.9211 43.1195 90.7839C43.1195 88.6321 41.8314 86.7145 39.8552 85.8947C39.5478 85.763 39.2111 85.6605 38.8744 85.6019L38.3474 85.4995L38.0693 85.031C36.7372 82.7767 34.395 81.4446 31.7894 81.4446Z" fill="#1C144E"/>
<path d="M25.7148 93.5505C26.5556 93.5505 27.2372 92.8689 27.2372 92.0281C27.2372 91.1873 26.5556 90.5057 25.7148 90.5057C24.874 90.5057 24.1924 91.1873 24.1924 92.0281C24.1924 92.8689 24.874 93.5505 25.7148 93.5505Z" fill="#852AFF"/>
<path d="M31.789 93.5505C32.6298 93.5505 33.3114 92.8689 33.3114 92.0281C33.3114 91.1873 32.6298 90.5057 31.789 90.5057C30.9482 90.5057 30.2666 91.1873 30.2666 92.0281C30.2666 92.8689 30.9482 93.5505 31.789 93.5505Z" fill="#852AFF"/>
<path d="M37.8495 93.5505C38.6903 93.5505 39.3719 92.8689 39.3719 92.0281C39.3719 91.1873 38.6903 90.5057 37.8495 90.5057C37.0087 90.5057 36.3271 91.1873 36.3271 92.0281C36.3271 92.8689 37.0087 93.5505 37.8495 93.5505Z" fill="#852AFF"/>
</svg>
