<svg width="186" height="186" viewBox="0 0 186 186" fill="none" xmlns="http://www.w3.org/2000/svg">
<g clip-path="url(#clip0_109_35)">
<path d="M122.857 67L115.808 68.5435L117.26 75.1361L124.31 73.5995L122.857 67Z" fill="#EFC418"/>
<path d="M141.617 79.1836C140.963 78.9435 140.302 78.9024 139.634 79.0464C138.904 79.2042 138.416 79.4443 138.175 79.7667C137.927 80.0823 137.858 80.4939 137.975 81.0016C138.085 81.5092 138.429 81.8797 139.014 82.1129C139.6 82.353 140.316 82.552 141.169 82.7166C142.023 82.8744 142.945 83.0528 143.937 83.2517C144.928 83.4507 145.878 83.7731 146.794 84.219C147.338 84.4865 147.84 84.8158 148.308 85.2069L147.372 78.628L143.586 80.8644C142.925 79.9863 142.264 79.4237 141.617 79.1836V79.1836Z" fill="#EFC418"/>
<path d="M146.959 97.6649C145.954 98.296 144.784 98.7625 143.448 99.0506C141.259 99.5309 139.29 99.4623 137.534 98.8311C135.779 98.2068 134.264 96.9377 132.977 95.0306L137.452 91.7583C138.147 92.6707 138.918 93.2607 139.765 93.5419C140.605 93.8232 141.362 93.8918 142.03 93.7409C143.297 93.4665 143.813 92.7736 143.565 91.6623C143.448 91.1272 143.09 90.7361 142.484 90.4823C141.878 90.2353 141.156 90.0227 140.323 89.8375C139.483 89.6591 138.56 89.4807 137.555 89.3024C136.55 89.124 135.6 88.8084 134.698 88.3557C133.803 87.9097 132.991 87.2923 132.268 86.5034C131.545 85.7145 131.036 84.6306 130.726 83.238C130.492 82.1609 130.464 81.1182 130.664 80.1166C130.857 79.1082 131.27 78.182 131.896 77.3314C132.523 76.4807 133.363 75.7467 134.402 75.1156C134.781 74.8892 135.18 74.6834 135.607 74.4981L110.032 78.1272L112.717 96.9789L117.887 95.847L119.628 103.77L113.866 105.033L114.513 109.54L121.384 108.566L120.496 105.671C121.487 105.321 122.162 104.799 122.527 104.107C122.885 103.414 122.898 102.309 122.568 100.793L117.694 78.676L125.453 76.9747L130.32 99.0438C131.036 102.302 130.753 104.95 129.473 106.988C129.37 107.152 129.26 107.31 129.142 107.461L151.041 104.36L149.699 94.9757C149.616 95.1129 149.527 95.2501 149.43 95.3805C148.79 96.2654 147.971 97.0269 146.959 97.6649V97.6649Z" fill="#EFC418"/>
<path d="M147.042 76.3298L146.56 72.9478L142.229 73.5652C142.925 73.6887 143.586 73.8945 144.205 74.1894C145.307 74.7108 146.257 75.4243 147.042 76.3298Z" fill="#EFC418"/>
<path d="M42.4076 117.751C40.9274 116.256 39.9568 113.882 39.4886 110.644L37.8295 99.0095L36.0327 98.6253L37.3889 119.007L43.5159 118.602C43.1097 118.369 42.738 118.081 42.4076 117.751V117.751Z" fill="#3F3F40"/>
<path d="M58.8609 117.484L54.8611 89.467L63.7969 88.2048L67.7898 116.215L58.8609 117.484ZM109.206 110.349L101.055 111.502L98.5831 94.1937C98.3835 92.8148 98.0393 91.8406 97.5505 91.2781C97.0617 90.7156 96.3802 90.496 95.499 90.6195C94.7693 90.7224 94.1979 91.0929 93.7848 91.724C93.3717 92.362 93.2754 93.4253 93.4888 94.914L95.9533 112.229L87.0244 113.491L84.553 96.1831C84.3396 94.6876 83.9816 93.6929 83.4859 93.1852C82.9834 92.6844 82.3707 92.4786 81.6409 92.5815C81.0558 92.6639 80.5463 92.904 80.1195 93.3019C79.6927 93.6929 79.3691 94.1868 79.1557 94.7768L81.9301 114.212L72.9943 115.481L69.0014 87.4639L76.9459 86.3388L77.297 88.8016L77.4071 88.781C78.7977 86.5446 80.8837 85.2274 83.6649 84.8296C86.4737 84.4317 88.7249 85.3029 90.4115 87.4433C91.2032 86.2153 92.1739 85.2069 93.3304 84.4111C94.4801 83.6153 95.8432 83.1077 97.4197 82.8813C100.16 82.4971 102.383 83.0802 104.097 84.6375C105.805 86.2016 106.948 88.9457 107.505 92.8765L108.517 99.9562L107.078 78.3124L62.3581 81.2623L62.7849 84.2807L54.6752 85.4264L54.1589 81.8042L35 83.0734L35.5989 92.0807L37.2374 91.6897L38.4766 83.9377L44.6173 83.0665L45.7119 90.7636L50.9164 90.0296L51.8458 96.5261L46.6413 97.267L48.4312 109.821C48.562 110.734 48.9062 111.406 49.4776 111.845C50.0421 112.291 50.7994 112.442 51.7494 112.304C52.3346 112.222 52.9404 112.044 53.5738 111.769L54.9644 117.196C54.5651 117.463 54.1452 117.703 53.7115 117.93L109.467 114.253L109.206 110.349Z" fill="#3F3F40"/>
</g>
<defs>
<clipPath id="clip0_109_35">
<rect width="116" height="52" fill="white" transform="translate(35 67)"/>
</clipPath>
</defs>
</svg>
