<svg width="186" height="186" viewBox="0 0 186 186" fill="none" xmlns="http://www.w3.org/2000/svg">
<g clip-path="url(#clip0_906_47)">
<path d="M68.4074 43.0202C68.2657 43 68.134 43 67.9922 43C67.8505 43 67.7188 43 67.5771 43.0202C65.491 43.2324 63.8809 44.9705 63.8809 47.1027V95.1019C63.8809 97.2441 65.5011 98.9822 67.5771 99.1944C67.7188 99.2146 67.8505 99.2146 67.9922 99.2146C68.134 99.2146 68.2657 99.2146 68.4074 99.1944C70.4733 98.9822 72.0935 97.2441 72.0935 95.1019V47.0926C72.0935 44.9705 70.4733 43.2324 68.4074 43.0101V43.0202Z" fill="url(#paint0_linear_906_47)"/>
<path d="M51.5368 53.7215C49.2685 53.7215 47.4355 55.5505 47.4355 57.8141V84.3601C47.4355 86.6237 49.2685 88.4527 51.5368 88.4527C53.8052 88.4527 55.6583 86.6237 55.6583 84.3601V57.8242C55.6583 55.5606 53.8052 53.7316 51.5368 53.7316V53.7215Z" fill="url(#paint1_linear_906_47)"/>
<path d="M37.3494 61.0376C36.843 60.7041 36.2557 60.4717 35.6177 60.3908C35.4456 60.3706 35.2734 60.3605 35.1114 60.3605C34.9494 60.3605 34.7772 60.3807 34.6051 60.3908C32.5696 60.6334 31 62.3613 31 64.4531V77.7312C31 79.8229 32.5696 81.5509 34.6051 81.7934C34.7772 81.8136 34.9494 81.8237 35.1114 81.8237C35.2734 81.8237 35.4557 81.8035 35.6177 81.7934C36.2456 81.7126 36.8329 81.4903 37.3494 81.1467C38.4734 80.4394 39.2127 79.1762 39.2127 77.7312V64.4531C39.2127 63.0081 38.4734 61.7449 37.3494 61.0376Z" fill="url(#paint2_linear_906_47)"/>
<path d="M122.544 67.5453L105.137 57.5109L105.056 57.4806C103.101 56.3893 100.61 57.0461 99.4861 59.0065C98.3418 60.9568 99.0203 63.4729 100.995 64.6047L112.266 71.1023L94.119 81.551V81.5712L88.519 84.7846V50.3262C88.519 48.9115 87.7798 47.5271 86.4634 46.7692C85.1671 46.0113 83.6279 46.0619 82.4026 46.7389C82.3418 46.7692 82.2811 46.7995 82.2203 46.8501V46.8703C81.6634 47.1936 81.1874 47.6686 80.8431 48.2749C80.4684 48.9216 80.2861 49.6088 80.2861 50.3262V91.9087C80.2861 93.283 80.9646 94.5865 82.2001 95.3545C82.2507 95.3848 82.2912 95.4151 82.3418 95.4455C83.6684 96.2134 85.2279 96.1528 86.4634 95.4455L122.504 74.6896C123.122 74.3359 123.658 73.8307 124.043 73.1637C124.317 72.6686 124.489 72.1633 124.549 71.6379C124.549 71.5772 124.57 71.5166 124.57 71.456V70.8598C124.489 69.536 123.78 68.2931 122.534 67.5655L122.544 67.5453Z" fill="url(#paint3_linear_906_47)"/>
<path d="M72.3977 132.026C71.78 131.844 70.98 131.672 69.9977 131.5C69.1268 131.369 68.4888 131.228 68.0838 131.076C67.6888 130.924 67.4863 130.672 67.4863 130.298C67.4863 129.975 67.6686 129.702 68.0432 129.5C68.4078 129.287 68.9648 129.186 69.7141 129.186C70.9597 129.186 72.104 129.479 73.1572 130.076L74.3116 127.61C73.7648 127.287 73.066 127.034 72.2357 126.842C71.3951 126.66 70.5546 126.569 69.7141 126.569C68.5698 126.569 67.5875 126.731 66.747 127.054C65.9065 127.378 65.2686 127.832 64.8331 128.418C64.3977 129.004 64.1749 129.671 64.1749 130.429C64.1749 131.329 64.4078 132.026 64.8736 132.511C65.3394 132.996 65.8964 133.34 66.5243 133.532C67.1622 133.723 67.9724 133.895 68.9445 134.047C69.7749 134.148 70.3926 134.279 70.7876 134.421C71.1926 134.572 71.385 134.815 71.385 135.148C71.385 135.876 70.6559 136.24 69.1875 136.24C68.4584 136.24 67.7192 136.129 66.9597 135.916C66.2002 135.704 65.5622 135.421 65.0255 135.088L63.8711 137.574C64.4382 137.947 65.1876 138.251 66.1394 138.493C67.0913 138.736 68.0635 138.857 69.0559 138.857C70.2306 138.857 71.2331 138.695 72.0939 138.382C72.9445 138.069 73.5926 137.614 74.0382 137.038C74.4838 136.462 74.7065 135.805 74.7065 135.067C74.7065 134.198 74.4736 133.511 74.0179 133.026C73.5622 132.541 73.0154 132.198 72.3977 132.016V132.026Z" fill="#19263C"/>
<path d="M81.6732 136.129C81.1973 136.129 80.8327 135.997 80.5694 135.714C80.3061 135.441 80.1846 135.047 80.1846 134.552V129.692H83.1618V127.034H80.1846V124.124H76.7112V127.034H74.8682V129.692H76.7112V134.593C76.7112 135.997 77.096 137.068 77.8758 137.786C78.6555 138.513 79.7593 138.877 81.177 138.877C81.7239 138.877 82.2504 138.816 82.7466 138.685C83.2428 138.564 83.658 138.372 84.0023 138.119L83.0707 135.684C82.6859 135.977 82.2201 136.129 81.6732 136.129Z" fill="#19263C"/>
<path d="M90.2302 126.579C89.2682 126.579 88.3264 126.701 87.4151 126.953C86.5037 127.206 85.7239 127.559 85.0657 128.014L86.3113 130.429C86.7366 130.086 87.2632 129.823 87.8809 129.621C88.4986 129.419 89.1264 129.318 89.7543 129.318C90.6758 129.318 91.3644 129.52 91.8201 129.924C92.2758 130.328 92.5087 130.914 92.5087 131.662H89.7543C88.0024 131.662 86.7163 131.975 85.8758 132.612C85.0353 133.249 84.6201 134.118 84.6201 135.229C84.6201 135.926 84.8024 136.543 85.1568 137.089C85.5113 137.634 86.0277 138.069 86.7062 138.372C87.3745 138.685 88.1745 138.837 89.0961 138.837C90.8783 138.837 92.0935 138.281 92.7416 137.169V138.655H95.9923V131.844C95.9923 130.065 95.4961 128.742 94.5037 127.863C93.5113 126.983 92.0834 126.539 90.2302 126.539V126.579ZM92.5189 134.926C92.3264 135.462 92.0024 135.866 91.5366 136.139C91.0809 136.411 90.5543 136.553 89.9568 136.553C89.3594 136.553 88.8733 136.422 88.5188 136.169C88.1745 135.906 87.9923 135.563 87.9923 135.118C87.9923 134.188 88.7011 133.724 90.129 133.724H92.5087V134.946L92.5189 134.926Z" fill="#19263C"/>
<path d="M101.187 128.338V126.761H97.876V138.695H101.349V133.057C101.349 131.945 101.633 131.116 102.19 130.561C102.757 130.005 103.527 129.732 104.529 129.732C104.661 129.732 104.924 129.752 105.309 129.772V126.579C104.387 126.579 103.577 126.731 102.868 127.024C102.16 127.317 101.603 127.751 101.187 128.338Z" fill="#19263C"/>
<path d="M113.309 136.129C112.833 136.129 112.468 135.997 112.205 135.714C111.942 135.441 111.82 135.047 111.82 134.552V129.692H114.798V127.034H111.82V124.124H108.347V127.034H106.504V129.692H108.347V134.593C108.347 135.997 108.732 137.068 109.512 137.786C110.291 138.513 111.395 138.877 112.813 138.877C113.36 138.877 113.886 138.816 114.382 138.685C114.879 138.564 115.294 138.372 115.638 138.119L114.706 135.684C114.322 135.977 113.856 136.129 113.309 136.129Z" fill="#19263C"/>
<path d="M125.42 132.662C125.42 133.724 125.167 134.532 124.661 135.067C124.155 135.603 123.486 135.876 122.656 135.876C121.036 135.876 120.236 134.916 120.236 132.996V126.761H116.762V133.501C116.762 135.28 117.218 136.614 118.139 137.513C119.061 138.412 120.307 138.867 121.876 138.867C122.615 138.867 123.304 138.726 123.942 138.453C124.58 138.18 125.127 137.786 125.582 137.27V138.695H128.874V126.761H125.4V132.662H125.42Z" fill="#19263C"/>
<path d="M140.651 127.347C139.739 126.842 138.727 126.579 137.613 126.579C135.972 126.579 134.717 127.095 133.856 128.135V126.761H130.544V143H134.018V137.432C134.889 138.392 136.094 138.877 137.623 138.877C138.737 138.877 139.749 138.624 140.661 138.109C141.572 137.594 142.291 136.876 142.808 135.957C143.324 135.037 143.587 133.956 143.587 132.733C143.587 131.511 143.324 130.429 142.808 129.51C142.291 128.59 141.572 127.873 140.661 127.357L140.651 127.347ZM139.203 135.138C138.636 135.734 137.906 136.038 137.015 136.038C136.124 136.038 135.395 135.734 134.828 135.138C134.261 134.542 133.967 133.734 133.967 132.733C133.967 131.733 134.251 130.924 134.828 130.328C135.395 129.732 136.124 129.429 137.015 129.429C137.906 129.429 138.636 129.732 139.203 130.328C139.77 130.924 140.063 131.733 140.063 132.733C140.063 133.734 139.78 134.542 139.203 135.138Z" fill="#19263C"/>
<path d="M154.312 133.036C153.856 132.551 153.309 132.208 152.691 132.026C152.074 131.844 151.274 131.672 150.291 131.5C149.42 131.369 148.782 131.228 148.377 131.076C147.982 130.924 147.78 130.672 147.78 130.298C147.78 129.975 147.962 129.702 148.337 129.5C148.701 129.287 149.258 129.186 150.008 129.186C151.253 129.186 152.398 129.479 153.451 130.076L154.605 127.61C154.058 127.287 153.36 127.034 152.529 126.842C151.689 126.66 150.848 126.569 150.008 126.569C148.863 126.569 147.881 126.731 147.041 127.054C146.2 127.378 145.562 127.832 145.127 128.418C144.691 129.004 144.468 129.671 144.468 130.429C144.468 131.329 144.701 132.026 145.167 132.511C145.633 132.996 146.19 133.34 146.828 133.532C147.466 133.723 148.276 133.895 149.248 134.047C150.079 134.148 150.696 134.279 151.091 134.421C151.496 134.572 151.689 134.815 151.689 135.148C151.689 135.876 150.96 136.24 149.491 136.24C148.762 136.24 148.023 136.129 147.263 135.916C146.504 135.704 145.866 135.421 145.329 135.088L144.175 137.574C144.742 137.947 145.491 138.251 146.443 138.493C147.395 138.736 148.367 138.857 149.36 138.857C150.534 138.857 151.537 138.695 152.398 138.382C153.248 138.069 153.896 137.614 154.342 137.038C154.787 136.462 155.01 135.805 155.01 135.067C155.01 134.198 154.777 133.511 154.322 133.026L154.312 133.036Z" fill="#19263C"/>
<path d="M66.7264 121.355H68.7821V114.15H71.6378V112.473H63.8809V114.15H66.7264V121.355Z" fill="#19263C"/>
<path d="M73.1268 113.574C73.4205 113.574 73.6534 113.483 73.8458 113.311C74.0281 113.139 74.1192 112.917 74.1192 112.654C74.1192 112.412 74.0281 112.21 73.8458 112.048C73.6635 111.886 73.4205 111.806 73.1268 111.806C72.8331 111.806 72.6002 111.886 72.4179 112.058C72.2357 112.23 72.1445 112.442 72.1445 112.685C72.1445 112.927 72.2357 113.15 72.4179 113.311C72.6002 113.483 72.8433 113.564 73.1268 113.564V113.574Z" fill="#19263C"/>
<path d="M74.1191 114.524H72.1343V121.355H74.1191V114.524Z" fill="#19263C"/>
<path d="M77.623 117.929C77.623 117.333 77.7546 116.888 78.0281 116.595C78.3015 116.292 78.666 116.141 79.1217 116.141C79.9825 116.141 80.4179 116.676 80.4179 117.747V121.355H82.4027V117.929C82.4027 117.333 82.5344 116.888 82.8078 116.595C83.0812 116.292 83.4458 116.141 83.9116 116.141C84.3268 116.141 84.6508 116.272 84.8736 116.535C85.0964 116.797 85.2078 117.202 85.2078 117.747V121.355H87.1926V117.444C87.1926 116.434 86.9394 115.686 86.4331 115.181C85.9268 114.675 85.2483 114.423 84.3977 114.423C83.8913 114.423 83.4255 114.524 82.9901 114.716C82.5546 114.908 82.2103 115.191 81.9268 115.544C81.6939 115.181 81.38 114.908 80.985 114.716C80.5901 114.524 80.1648 114.433 79.6787 114.433C79.2432 114.433 78.8382 114.514 78.4635 114.665C78.0888 114.817 77.785 115.039 77.5319 115.322V114.534H75.6382V121.365H77.623V117.939V117.929Z" fill="#19263C"/>
<path d="M90.1596 112.048C89.9774 111.886 89.7343 111.806 89.4406 111.806C89.147 111.806 88.9039 111.886 88.7217 112.058C88.5394 112.23 88.4482 112.442 88.4482 112.695C88.4482 112.947 88.5394 113.16 88.7217 113.331C88.9039 113.503 89.147 113.584 89.4406 113.584C89.7343 113.584 89.9774 113.493 90.1596 113.321C90.3419 113.15 90.4331 112.927 90.4331 112.665C90.4331 112.422 90.3419 112.22 90.1596 112.048Z" fill="#19263C"/>
<path d="M90.4428 114.524H88.458V121.355H90.4428V114.524Z" fill="#19263C"/>
<path d="M94.5749 124.73L95.0205 123.871C95.1724 123.588 95.2534 123.305 95.2534 123.042C95.2534 122.81 95.1724 122.628 95.0205 122.487C94.8584 122.345 94.6458 122.274 94.3724 122.274C94.0989 122.274 93.8863 122.345 93.7344 122.487C93.5724 122.628 93.5015 122.81 93.5015 123.042C93.5015 123.214 93.542 123.356 93.623 123.467C93.704 123.578 93.8255 123.659 93.9774 123.72L93.6635 124.73H94.5951H94.5749Z" fill="#19263C"/>
<path d="M96.1746 117.545C95.8202 117.444 95.3645 117.343 94.8075 117.252C94.3113 117.171 93.9468 117.091 93.7138 117.01C93.4809 116.929 93.3695 116.777 93.3695 116.565C93.3695 116.383 93.4708 116.232 93.6835 116.11C93.8961 115.989 94.21 115.928 94.6354 115.928C95.3442 115.928 96.0024 116.1 96.5999 116.434L97.2581 115.029C96.9442 114.847 96.5493 114.696 96.0733 114.595C95.5974 114.483 95.1113 114.433 94.6354 114.433C93.9873 114.433 93.4202 114.524 92.9341 114.716C92.448 114.908 92.0936 115.16 91.8404 115.494C91.5873 115.827 91.4657 116.211 91.4657 116.646C91.4657 117.161 91.5974 117.555 91.8607 117.838C92.124 118.121 92.4379 118.313 92.8024 118.424C93.167 118.536 93.6328 118.637 94.1898 118.717C94.6657 118.778 95.01 118.849 95.243 118.93C95.4759 119.011 95.5873 119.152 95.5873 119.344C95.5873 119.758 95.1721 119.96 94.3316 119.96C93.9164 119.96 93.4911 119.9 93.0657 119.779C92.6404 119.657 92.2657 119.496 91.9619 119.304L91.3037 120.728C91.6278 120.941 92.0531 121.112 92.5999 121.254C93.1468 121.395 93.6936 121.466 94.2607 121.466C94.929 121.466 95.5062 121.375 95.9923 121.193C96.4784 121.011 96.8531 120.759 97.1062 120.425C97.3594 120.092 97.4911 119.718 97.4911 119.293C97.4911 118.798 97.3594 118.404 97.0961 118.131C96.8328 117.848 96.529 117.656 96.1645 117.555L96.1746 117.545Z" fill="#19263C"/>
<path d="M103.587 114.878C103.02 114.574 102.372 114.423 101.653 114.423C100.934 114.423 100.286 114.574 99.7188 114.878C99.1517 115.181 98.696 115.595 98.3821 116.131C98.058 116.666 97.896 117.272 97.896 117.949C97.896 118.627 98.058 119.233 98.3821 119.758C98.7061 120.294 99.1517 120.708 99.7188 121.011C100.286 121.314 100.934 121.466 101.653 121.466C102.372 121.466 103.02 121.314 103.587 121.011C104.154 120.708 104.6 120.294 104.924 119.758C105.248 119.223 105.41 118.616 105.41 117.949C105.41 117.283 105.248 116.666 104.924 116.131C104.6 115.595 104.154 115.181 103.587 114.878ZM102.909 119.314C102.585 119.657 102.169 119.829 101.653 119.829C101.137 119.829 100.721 119.657 100.397 119.314C100.063 118.97 99.9011 118.515 99.9011 117.939C99.9011 117.363 100.063 116.909 100.397 116.565C100.731 116.221 101.147 116.05 101.653 116.05C102.159 116.05 102.574 116.221 102.909 116.565C103.233 116.909 103.395 117.363 103.395 117.939C103.395 118.515 103.233 118.97 102.909 119.314Z" fill="#19263C"/>
<path d="M107.04 121.193C107.425 121.375 107.881 121.456 108.407 121.456C109.42 121.456 110.119 121.143 110.493 120.506V121.355H112.347V117.464C112.347 116.454 112.063 115.686 111.496 115.191C110.929 114.686 110.119 114.433 109.055 114.433C108.509 114.433 107.972 114.504 107.445 114.645C106.919 114.787 106.473 114.989 106.109 115.251L106.817 116.636C107.061 116.444 107.364 116.282 107.719 116.171C108.073 116.06 108.428 115.999 108.792 115.999C109.319 115.999 109.714 116.11 109.977 116.353C110.24 116.585 110.372 116.919 110.372 117.353H108.792C107.79 117.353 107.05 117.535 106.574 117.899C106.099 118.263 105.855 118.758 105.855 119.395C105.855 119.789 105.957 120.152 106.159 120.456C106.362 120.769 106.655 121.011 107.04 121.193ZM109.005 118.505H110.362V119.203C110.25 119.506 110.068 119.738 109.805 119.89C109.542 120.051 109.238 120.122 108.904 120.122C108.569 120.122 108.286 120.051 108.083 119.9C107.881 119.748 107.79 119.546 107.79 119.293C107.79 118.758 108.195 118.495 109.005 118.495V118.505Z" fill="#19263C"/>
<path d="M117.694 116.252V114.423C117.167 114.423 116.701 114.504 116.306 114.675C115.901 114.847 115.587 115.09 115.344 115.423V114.524H113.451V121.355H115.435V118.131C115.435 117.495 115.598 117.02 115.922 116.707C116.246 116.393 116.691 116.232 117.258 116.232C117.339 116.232 117.481 116.232 117.704 116.262L117.694 116.252Z" fill="#19263C"/>
<path d="M124.58 121.355V117.464C124.58 116.454 124.296 115.686 123.729 115.191C123.162 114.686 122.352 114.433 121.288 114.433C120.742 114.433 120.205 114.504 119.678 114.645C119.152 114.787 118.706 114.989 118.342 115.251L119.05 116.636C119.293 116.444 119.597 116.282 119.952 116.171C120.306 116.06 120.661 115.999 121.025 115.999C121.552 115.999 121.947 116.11 122.21 116.353C122.473 116.585 122.605 116.919 122.605 117.353H121.025C120.023 117.353 119.283 117.535 118.807 117.899C118.331 118.263 118.088 118.758 118.088 119.395C118.088 119.789 118.19 120.152 118.392 120.456C118.595 120.769 118.888 121.011 119.273 121.193C119.658 121.375 120.114 121.456 120.64 121.456C121.653 121.456 122.352 121.143 122.726 120.506V121.355H124.58ZM122.595 119.203C122.483 119.506 122.301 119.738 122.038 119.89C121.774 120.051 121.471 120.122 121.136 120.122C120.802 120.122 120.519 120.051 120.316 119.9C120.114 119.748 120.012 119.546 120.012 119.293C120.012 118.758 120.417 118.495 121.228 118.495H122.585V119.192L122.595 119.203Z" fill="#19263C"/>
</g>
<defs>
<linearGradient id="paint0_linear_906_47" x1="97.7543" y1="98.4871" x2="40.3072" y2="45.3945" gradientUnits="userSpaceOnUse">
<stop offset="0.06" stop-color="#F6A300"/>
<stop offset="0.51" stop-color="#E72987"/>
<stop offset="1" stop-color="#78226A"/>
</linearGradient>
<linearGradient id="paint1_linear_906_47" x1="90.2001" y1="106.662" x2="32.753" y2="53.5695" gradientUnits="userSpaceOnUse">
<stop offset="0.07" stop-color="#F6A300"/>
<stop offset="0.51" stop-color="#E72987"/>
<stop offset="1" stop-color="#78226A"/>
</linearGradient>
<linearGradient id="paint2_linear_906_47" x1="82.6456" y1="114.837" x2="25.1985" y2="61.7446" gradientUnits="userSpaceOnUse">
<stop offset="0.12" stop-color="#F6A300"/>
<stop offset="0.51" stop-color="#E72987"/>
<stop offset="1" stop-color="#78226A"/>
</linearGradient>
<linearGradient id="paint3_linear_906_47" x1="108.398" y1="86.9572" x2="50.9504" y2="33.8747" gradientUnits="userSpaceOnUse">
<stop offset="0.08" stop-color="#F6A300"/>
<stop offset="0.51" stop-color="#E72987"/>
<stop offset="1" stop-color="#78226A"/>
</linearGradient>
<clipPath id="clip0_906_47">
<rect width="124" height="100" fill="white" transform="translate(31 43)"/>
</clipPath>
</defs>
</svg>
