<svg width="186" height="186" viewBox="0 0 186 186" fill="none" xmlns="http://www.w3.org/2000/svg">
<path d="M49.2898 83.258V107.045H56.0682V83.258H63.2499V78.8029H49.2798L49.2898 83.258Z" fill="url(#paint0_linear_109_35)"/>
<path d="M32.6212 83.9982C39.8686 90.033 45.7199 97.8134 49.2898 107.045H56.0682C50.7894 95.6804 43.5171 86.1805 32.6152 79.1264L32.6212 83.9982Z" fill="url(#paint1_linear_109_35)"/>
<path d="M24.209 78.8029V95.565C24.209 104.56 29.1006 107.591 34.7006 107.591C39.7773 107.591 44.175 104.274 45.6012 102.346C44.9447 101.015 44.491 100.166 43.8667 99.2075C42.594 100.888 38.8944 102.666 37.1169 102.666C32.6375 102.666 31.046 99.44 31.046 94.575V86.7437V78.8029H24.209Z" fill="url(#paint2_linear_109_35)"/>
<path fill-rule="evenodd" clip-rule="evenodd" d="M41.0464 83.258H47.7151V78.8029H41.0464V83.258Z" fill="#E4AE38"/>
<path d="M115.42 101.307C115.42 101.4 115.399 101.503 115.369 101.596C115.226 102.02 114.818 102.434 114.176 102.434C113.717 102.434 113.329 102.155 113.329 101.565C113.329 100.593 114.441 100.417 115.42 100.438V101.307ZM116.286 99.9213C116.286 98.9186 115.919 97.8748 114.41 97.8748C113.788 97.8748 113.197 98.0506 112.789 98.3193L112.993 98.9186C113.34 98.6916 113.819 98.5469 114.278 98.5469C115.287 98.5469 115.399 99.2911 115.399 99.7045V99.8078C113.493 99.7974 112.432 100.459 112.432 101.668C112.432 102.392 112.942 103.107 113.941 103.107C114.645 103.107 115.175 102.754 115.45 102.361H115.481L115.552 102.992H116.368C116.307 102.651 116.286 102.227 116.286 101.793V99.9213ZM109.536 102.992H110.423V100.325C110.423 100.17 110.443 100.025 110.464 99.901C110.586 99.2185 111.035 98.7329 111.667 98.7329C111.789 98.7329 111.882 98.7433 111.973 98.7638V97.9059C111.892 97.8852 111.82 97.8748 111.718 97.8748C111.116 97.8748 110.576 98.2988 110.352 98.9705H110.311L110.28 97.9885H109.495C109.526 98.4538 109.536 98.9603 109.536 99.5497V102.992ZM107.221 101.307C107.221 101.4 107.201 101.503 107.17 101.596C107.028 102.02 106.62 102.434 105.977 102.434C105.519 102.434 105.131 102.155 105.131 101.565C105.131 100.593 106.243 100.417 107.221 100.438V101.307ZM108.088 99.9213C108.088 98.9186 107.721 97.8748 106.212 97.8748C105.59 97.8748 104.998 98.0506 104.591 98.3193L104.794 98.9186C105.141 98.6916 105.62 98.5469 106.079 98.5469C107.089 98.5469 107.201 99.2911 107.201 99.7045V99.8078C105.294 99.7974 104.234 100.459 104.234 101.668C104.234 102.392 104.743 103.107 105.743 103.107C106.447 103.107 106.977 102.754 107.252 102.361H107.283L107.354 102.992H108.17C108.108 102.651 108.088 102.227 108.088 101.793V99.9213ZM101.093 98.5571C102.153 98.5571 102.572 99.632 102.572 100.48C102.572 101.606 101.929 102.423 101.073 102.423C100.195 102.423 99.5739 101.596 99.5739 100.5C99.5739 99.5497 100.033 98.5571 101.093 98.5571V98.5571ZM101.113 97.8748C99.7468 97.8748 98.666 98.857 98.666 100.531C98.666 102.113 99.6959 103.107 101.032 103.107C102.225 103.107 103.489 102.299 103.489 100.448C103.489 98.9186 102.531 97.8748 101.113 97.8748ZM94.638 102.754C95.0357 102.981 95.5457 103.097 95.9432 103.097H95.9841L95.5766 103.831C96.0552 103.872 96.3616 103.996 96.3714 104.265C96.3714 104.513 96.1575 104.596 95.9334 104.596C95.7499 104.596 95.5457 104.544 95.3823 104.44L95.2298 104.885C95.4032 104.989 95.6785 105.061 95.9229 105.061C96.4947 105.061 96.9835 104.833 96.9835 104.223C96.9835 103.831 96.647 103.562 96.2699 103.51L96.5553 103.056C97.4015 102.888 97.8707 102.33 97.8707 101.596C97.8707 100.852 97.4318 100.417 96.5757 100.087C95.9334 99.8387 95.6374 99.6526 95.6374 99.2392C95.6374 98.8673 95.9334 98.5571 96.4636 98.5571C96.9225 98.5571 97.2795 98.7225 97.4725 98.8466L97.6973 98.1846C97.4222 98.0196 96.9835 97.8748 96.4838 97.8748C95.423 97.8748 94.7807 98.5364 94.7807 99.3428C94.7807 99.9421 95.1989 100.438 96.0861 100.759C96.7491 101.007 97.0038 101.244 97.0038 101.679C97.0038 102.092 96.6981 102.423 96.0453 102.423C95.597 102.423 95.1272 102.237 94.863 102.061L94.638 102.754ZM93.0478 96.0244C92.7209 96.0244 92.4867 96.2726 92.4867 96.5932C92.4867 96.903 92.7111 97.1516 93.027 97.1516C93.3842 97.1516 93.6079 96.903 93.5983 96.5932C93.5983 96.2726 93.3842 96.0244 93.0478 96.0244V96.0244ZM93.4959 97.9885H92.5991V102.992H93.4959V97.9885ZM84.0948 102.992H84.9716V99.9732C84.9716 99.818 84.9918 99.6632 85.0424 99.5287C85.1855 99.0738 85.5935 98.6192 86.1546 98.6192C86.8375 98.6192 87.1842 99.1979 87.1842 99.994V102.992H88.0612V99.901C88.0612 99.7356 88.0921 99.5704 88.1324 99.4461C88.2853 99.0018 88.6831 98.6192 89.193 98.6192C89.9169 98.6192 90.2638 99.1979 90.2638 100.159V102.992H91.1408V100.046C91.1408 98.3089 90.1719 97.8748 89.5199 97.8748C89.0503 97.8748 88.7238 97.9989 88.4284 98.2263C88.2239 98.3811 88.0307 98.5982 87.8778 98.8775H87.8573C87.6434 98.2884 87.1329 97.8748 86.46 97.8748C85.6444 97.8748 85.1855 98.3193 84.9102 98.7947H84.8801L84.8387 97.9885H84.0537C84.0842 98.4023 84.0948 98.8258 84.0948 99.3428V102.992ZM82.1573 96.0244C81.831 96.0244 81.5964 96.2726 81.5964 96.5932C81.5964 96.903 81.8201 97.1516 82.1364 97.1516C82.4934 97.1516 82.7184 96.903 82.7075 96.5932C82.7075 96.2726 82.4934 96.0244 82.1573 96.0244ZM82.6058 97.9885H81.7083V102.992H82.6058V97.9885ZM78.0988 102.992H78.9958V96.7895H81.0965V96.0244H76.0065V96.7895H78.0988V102.992ZM69.3601 102.992H70.2575V99.9838C70.2575 99.8286 70.2776 99.6733 70.3183 99.5598C70.4714 99.0533 70.9304 98.6293 71.5216 98.6293C72.3678 98.6293 72.6638 99.3015 72.6638 100.108V102.992H73.5613V100.005C73.5613 98.2884 72.5005 97.8748 71.8174 97.8748C71.002 97.8748 70.4309 98.34 70.1859 98.8153H70.1652L70.1148 97.9885H69.3189C69.3494 98.4023 69.3601 98.8258 69.3601 99.3428V102.992ZM67.4227 96.0244C67.0962 96.0244 66.8614 96.2726 66.8614 96.5932C66.8614 96.903 67.086 97.1516 67.4019 97.1516C67.7591 97.1516 67.9834 96.903 67.973 96.5932C67.973 96.2726 67.7591 96.0244 67.4227 96.0244ZM67.8708 97.9885H66.9738V102.992H67.8708V97.9885ZM64.5882 100.893C64.5882 101.038 64.5771 101.162 64.5468 101.286C64.3839 101.968 63.8326 102.371 63.2312 102.371C62.2627 102.371 61.7731 101.534 61.7731 100.521C61.7731 99.4152 62.3241 98.5882 63.2516 98.5882C63.9247 98.5882 64.4146 99.0632 64.5468 99.6424C64.5771 99.7559 64.5882 99.9114 64.5882 100.025V100.893ZM64.5882 95.6523V98.6397H64.5673C64.3429 98.2365 63.8326 97.8748 63.0785 97.8748C61.8752 97.8748 60.8554 98.8983 60.8658 100.562C60.8658 102.082 61.7835 103.107 62.9765 103.107C63.7822 103.107 64.3839 102.681 64.6588 102.123H64.6793L64.72 102.992H65.5257C65.495 102.651 65.4848 102.144 65.4848 101.7V95.6523H64.5882Z" fill="#E4AE38"/>
<path d="M158.147 88.387V89.4046H157.366V90.4456H158.147V93.036C158.147 93.76 158.281 94.258 158.571 94.5745C158.828 94.8573 159.252 95.0404 159.754 95.0404C160.189 95.0404 160.546 94.9721 160.747 94.8914L160.725 93.8281C160.569 93.8731 160.446 93.8957 160.189 93.8957C159.665 93.8957 159.486 93.545 159.486 92.8778V90.4456H160.792V89.4046H159.486V87.9913L158.147 88.387ZM152.924 94.6424C153.326 94.8686 153.918 95.0404 154.577 95.0404C156.016 95.0404 156.786 94.3031 156.786 93.3076C156.775 92.4929 156.317 91.9841 155.335 91.622C154.643 91.3734 154.387 91.2034 154.387 90.8527C154.387 90.5136 154.655 90.2762 155.145 90.2762C155.625 90.2762 156.061 90.457 156.294 90.5927L156.562 89.6086C156.25 89.4387 155.726 89.2803 155.123 89.2803C153.862 89.2803 153.07 90.0382 153.07 91.0112C153.059 91.656 153.505 92.2443 154.565 92.6176C155.234 92.855 155.457 93.0472 155.457 93.4205C155.457 93.7826 155.19 94.0316 154.588 94.0316C154.096 94.0316 153.505 93.8281 153.193 93.6355L152.924 94.6424ZM148.472 91.5767H150.86C150.872 91.0681 150.648 90.231 149.733 90.231C148.886 90.231 148.528 91.0112 148.472 91.5767ZM152.11 92.55H148.472C148.506 93.545 149.276 93.9748 150.146 93.9748C150.782 93.9748 151.24 93.8843 151.653 93.7262L151.854 94.6876C151.385 94.8802 150.738 95.0404 149.957 95.0404C148.193 95.0404 147.156 93.9297 147.156 92.2443C147.156 90.7172 148.071 89.2803 149.811 89.2803C151.586 89.2803 152.155 90.7514 152.155 91.9615C152.155 92.2217 152.132 92.4253 152.11 92.55V92.55ZM144.567 94.9142L147.167 87.2896H145.705L144.612 90.7734C144.31 91.7016 144.042 92.6288 143.841 93.5336H143.819C143.618 92.6062 143.373 91.7129 143.083 90.7514L142.056 87.2896H140.561L142.994 94.9142H144.567ZM134.524 91.5767C134.58 91.0112 134.937 90.231 135.785 90.231C136.7 90.231 136.923 91.0681 136.912 91.5767H134.524ZM138.162 92.55C138.184 92.4253 138.206 92.2217 138.206 91.9615C138.206 90.7514 137.637 89.2803 135.863 89.2803C134.122 89.2803 133.208 90.7172 133.208 92.2443C133.208 93.9297 134.245 95.0404 136.008 95.0404C136.789 95.0404 137.437 94.8802 137.905 94.6876L137.704 93.7262C137.291 93.8843 136.834 93.9748 136.198 93.9748C135.327 93.9748 134.557 93.545 134.524 92.55H138.162ZM130.708 92.5271C130.708 92.6739 130.696 92.8096 130.663 92.9341C130.529 93.5336 130.038 93.9183 129.48 93.9183C128.61 93.9183 128.119 93.1831 128.119 92.1762C128.119 91.1472 128.61 90.3549 129.492 90.3549C130.116 90.3549 130.551 90.7963 130.674 91.3393C130.696 91.4522 130.708 91.5883 130.708 91.7016V92.5271ZM130.708 86.8709V90.0046H130.686C130.44 89.5972 129.905 89.2803 129.157 89.2803C127.851 89.2803 126.713 90.3779 126.724 92.2217C126.724 93.9183 127.751 95.0404 129.045 95.0404C129.837 95.0404 130.496 94.6536 130.819 94.0428H130.841L130.897 94.9142H132.125C132.103 94.5405 132.08 93.9297 132.08 93.3641V86.8709H130.708ZM121.97 92.9795C121.97 93.07 121.959 93.1831 121.926 93.285C121.803 93.6809 121.401 94.0428 120.855 94.0428C120.42 94.0428 120.074 93.794 120.074 93.2508C120.074 92.414 120.999 92.1989 121.97 92.2217V92.9795ZM123.309 91.5995C123.309 90.4005 122.807 89.2803 121.067 89.2803C120.207 89.2803 119.504 89.518 119.102 89.767L119.371 90.6717C119.738 90.4341 120.297 90.2648 120.832 90.2648C121.792 90.2648 121.937 90.8641 121.937 91.2262V91.3165C119.928 91.3053 118.712 92.0067 118.712 93.3981C118.712 94.2352 119.326 95.0404 120.42 95.0404C121.123 95.0404 121.692 94.7328 122.026 94.3031H122.059L122.149 94.9142H123.388C123.332 94.5745 123.309 94.0881 123.309 93.5905V91.5995ZM114.304 91.5767C114.36 91.0112 114.717 90.231 115.565 90.231C116.48 90.231 116.704 91.0681 116.692 91.5767H114.304ZM117.942 92.55C117.965 92.4253 117.987 92.2217 117.987 91.9615C117.987 90.7514 117.418 89.2803 115.643 89.2803C113.903 89.2803 112.988 90.7172 112.988 92.2443C112.988 93.9297 114.026 95.0404 115.788 95.0404C116.57 95.0404 117.217 94.8802 117.686 94.6876L117.485 93.7262C117.072 93.8843 116.614 93.9748 115.978 93.9748C115.108 93.9748 114.338 93.545 114.304 92.55H117.942ZM109.718 88.387V89.4046H108.937V90.4456H109.718V93.036C109.718 93.76 109.852 94.258 110.142 94.5745C110.399 94.8573 110.823 95.0404 111.325 95.0404C111.76 95.0404 112.117 94.9721 112.318 94.8914L112.296 93.8281C112.14 93.8731 112.017 93.8957 111.76 93.8957C111.236 93.8957 111.057 93.545 111.057 92.8778V90.4456H112.363V89.4046H111.057V87.9913L109.718 88.387ZM106.761 92.9795C106.761 93.07 106.75 93.1831 106.717 93.285C106.594 93.6809 106.192 94.0428 105.645 94.0428C105.21 94.0428 104.864 93.794 104.864 93.2508C104.864 92.414 105.79 92.1989 106.761 92.2217V92.9795ZM108.1 91.5995C108.1 90.4005 107.598 89.2803 105.857 89.2803C104.998 89.2803 104.295 89.518 103.893 89.767L104.161 90.6717C104.529 90.4341 105.087 90.2648 105.623 90.2648C106.583 90.2648 106.728 90.8641 106.728 91.2262V91.3165C104.719 91.3053 103.503 92.0067 103.503 93.3981C103.503 94.2352 104.117 95.0404 105.21 95.0404C105.913 95.0404 106.482 94.7328 106.817 94.3031H106.85L106.939 94.9142H108.178C108.123 94.5745 108.1 94.0881 108.1 93.5905V91.5995ZM100.2 88.387V89.4046H99.4186V90.4456H100.2V93.036C100.2 93.76 100.334 94.258 100.624 94.5745C100.88 94.8573 101.304 95.0404 101.807 95.0404C102.242 95.0404 102.599 94.9721 102.8 94.8914L102.777 93.8281C102.621 93.8731 102.498 93.8957 102.242 93.8957C101.718 93.8957 101.539 93.545 101.539 92.8778V90.4456H102.844V89.4046H101.539V87.9913L100.2 88.387ZM97.8006 87.1089C97.3437 87.1089 97.0305 87.4368 97.0305 87.8665C97.0305 88.2853 97.3318 88.6134 97.7893 88.6134C98.2696 88.6134 98.5707 88.2853 98.5707 87.8665C98.5596 87.4368 98.2695 87.1089 97.8006 87.1089ZM98.4927 89.4046H97.1085V94.9142H98.4927V89.4046ZM92.1208 94.6424C92.5222 94.8686 93.1138 95.0404 93.7726 95.0404C95.2117 95.0404 95.9813 94.3031 95.9813 93.3076C95.9707 92.4929 95.5132 91.9841 94.5308 91.622C93.8391 91.3734 93.5828 91.2034 93.5828 90.8527C93.5828 90.5136 93.8508 90.2762 94.3414 90.2762C94.8213 90.2762 95.2565 90.457 95.4905 90.5927L95.7584 89.6086C95.4464 89.4387 94.922 89.2803 94.3189 89.2803C93.0581 89.2803 92.2655 90.0382 92.2655 91.0112C92.2549 91.656 92.7011 92.2443 93.7609 92.6176C94.4307 92.855 94.654 93.0472 94.654 93.4205C94.654 93.7826 94.3857 94.0316 93.7832 94.0316C93.2927 94.0316 92.7011 93.8281 92.3886 93.6355L92.1208 94.6424ZM88.4834 94.9142H89.8559V92.0631C89.8559 91.905 89.878 91.7577 89.9001 91.6334C90.023 91.0112 90.4692 90.5813 91.128 90.5813C91.295 90.5813 91.4178 90.6041 91.5296 90.6267V89.3144C91.4178 89.2916 91.3396 89.2803 91.206 89.2803C90.6252 89.2803 89.9894 89.6767 89.7214 90.457H89.6774L89.6328 89.4046H88.4385C88.4717 89.9029 88.4834 90.4341 88.4834 91.1808V94.9142ZM83.6961 91.5767C83.7514 91.0112 84.1092 90.231 84.9569 90.231C85.8717 90.231 86.0949 91.0681 86.084 91.5767H83.6961ZM87.3342 92.55C87.3563 92.4253 87.3786 92.2217 87.3786 91.9615C87.3786 90.7514 86.8097 89.2803 85.0353 89.2803C83.2943 89.2803 82.3792 90.7172 82.3792 92.2443C82.3792 93.9297 83.4169 95.0404 85.1802 95.0404C85.9616 95.0404 86.6085 94.8802 87.077 94.6876L86.8762 93.7262C86.4633 93.8843 86.0062 93.9748 85.37 93.9748C84.4992 93.9748 83.7297 93.545 83.6961 92.55H87.3342ZM76.5875 89.4046L78.6073 94.9142H79.9576L82.0335 89.4046H80.5829L79.7236 92.1989C79.5783 92.6967 79.4554 93.1265 79.3551 93.5793H79.3218C79.2215 93.1265 79.1097 92.6853 78.9533 92.1989L78.072 89.4046H76.5875ZM75.0366 87.1089C74.5793 87.1089 74.2663 87.4368 74.2663 87.8665C74.2663 88.2853 74.5681 88.6134 75.0258 88.6134C75.5054 88.6134 75.8067 88.2853 75.8067 87.8665C75.7959 87.4368 75.5054 87.1089 75.0366 87.1089ZM75.7288 89.4046H74.3447V94.9142H75.7288V89.4046ZM67.9622 94.9142H69.3456V91.6788C69.3456 91.5203 69.3573 91.3505 69.4015 91.2262C69.5468 90.8075 69.9258 90.4119 70.4729 90.4119C71.2199 90.4119 71.5106 91.0112 71.5106 91.8033V94.9142H72.8831V91.6444C72.8831 89.9029 71.9016 89.2803 70.953 89.2803C70.049 89.2803 69.4576 89.801 69.2232 90.231H69.1896L69.1223 89.4046H67.9174C67.951 89.8801 67.9622 90.4119 67.9622 91.0455V94.9142ZM60.5752 87.2896V91.656C60.5752 94.0545 61.7019 95.0404 63.4427 95.0404C65.2503 95.0404 66.4445 93.9976 66.4445 91.6444V87.2896H65.072V91.7353C65.072 93.2281 64.4808 93.9183 63.4875 93.9183C62.5617 93.9183 61.9477 93.2281 61.9477 91.7353V87.2896H60.5752Z" fill="#4377BA"/>
<defs>
<linearGradient id="paint0_linear_109_35" x1="56.2649" y1="78.8029" x2="56.2649" y2="107.045" gradientUnits="userSpaceOnUse">
<stop stop-color="#4377BA"/>
<stop offset="0.186813" stop-color="#4377BA"/>
<stop offset="0.697802" stop-color="#2A547C"/>
<stop offset="1" stop-color="#2A547C"/>
</linearGradient>
<linearGradient id="paint1_linear_109_35" x1="41.2307" y1="104.856" x2="47.1472" y2="83.0737" gradientUnits="userSpaceOnUse">
<stop stop-color="#4377BA"/>
<stop offset="0.461538" stop-color="#4377BA"/>
<stop offset="1" stop-color="#2A547C"/>
</linearGradient>
<linearGradient id="paint2_linear_109_35" x1="28.8968" y1="77.5296" x2="37.0126" y2="107.408" gradientUnits="userSpaceOnUse">
<stop stop-color="#4377BA"/>
<stop offset="0.461538" stop-color="#4377BA"/>
<stop offset="1" stop-color="#2A547C"/>
</linearGradient>
</defs>
</svg>
