<svg width="437" height="323" viewBox="0 0 437 323" fill="none" xmlns="http://www.w3.org/2000/svg">
<path d="M362.4 151.273C343.4 145.156 338.034 139.906 338.034 134.295C338.034 126.404 347.389 121.734 361.022 121.734C366.279 121.734 370.087 122.204 372.733 122.784L372.661 138.386L390.573 138.712L391.842 107.362C383.394 105.335 370.377 102.91 359.499 102.91C334.336 102.91 314.466 114.82 314.466 136.359C314.466 156.848 328.28 164.414 352.719 171.98C371.573 177.844 373.567 182.333 373.567 188.125C373.567 194.75 364.285 199.71 352.429 199.71C340.282 199.71 326.794 195.583 318.527 192.18C316.279 196.994 311.456 205.067 308.302 209.665C320.557 216.398 335.17 220.054 351.595 220.054C376.649 220.054 397.933 208.217 397.933 184.723C397.861 166.478 386.874 159.093 362.4 151.273V151.273ZM114.79 103.778H66.0945V118.041H78.3137L47.8565 203.873H38.1392V218.099H79.0026V203.836H69.3941L74.9416 188.198H119.213L124.761 203.836H115.769V218.099H159.46V203.836H150.36L114.79 103.778ZM81.2144 170.387L97.0594 125.716L112.941 170.387H81.2144V170.387Z" fill="#0596FF"/>
<path d="M281.145 123.29C275.126 120.72 268.49 119.308 261.492 119.308C259.716 119.308 257.939 119.417 256.199 119.562C250.107 127.888 246.481 138.169 246.481 149.282C246.481 170.17 259.208 188.089 277.337 195.727C272.769 198.877 267.33 200.723 261.492 200.723C245.394 200.723 232.34 186.822 232.34 169.699C232.34 162.315 234.77 155.545 238.831 150.187C238.831 142.332 241.623 128.033 245.865 121.77C225.488 128.322 210.984 147.617 210.984 169.699C210.984 178.496 213.232 186.714 217.184 193.917C212.398 198.949 205.944 201.809 199.78 201.809C191.441 201.809 185.422 195.293 185.422 185.519V140.703H211.456V122.856H185.422V103.561H162.035V122.856H144.885V140.703H162.035V187.836C162.035 212.054 178.932 219.982 195.357 219.982C209.099 219.982 220.303 213.502 226.503 206.045C235.567 214.733 247.895 220.09 261.492 220.09C289.013 220.09 312.001 197.646 312.001 169.699C312.037 148.812 299.274 130.929 281.145 123.29V123.29ZM289.266 179.184C276.939 175.564 267.874 163.582 267.874 149.282C267.874 145.988 268.382 142.802 269.288 139.798C281.616 143.418 290.681 155.4 290.681 169.699C290.644 172.994 290.173 176.179 289.266 179.184" fill="#0596FF"/>
</svg>
