<svg width="233" height="233" viewBox="0 0 233 233" fill="none" xmlns="http://www.w3.org/2000/svg">
  <path d="M178.791 111.7C170.659 109.082 168.362 106.835 168.362 104.433C168.362 101.056 172.366 99.0571 178.201 99.0571C180.451 99.0571 182.081 99.2583 183.214 99.5065L183.183 106.185L190.85 106.324L191.393 92.9056C187.777 92.038 182.205 91 177.549 91C166.779 91 158.274 96.0977 158.274 105.317C158.274 114.087 164.187 117.325 174.647 120.564C182.717 123.073 183.571 124.995 183.571 127.474C183.571 130.31 179.598 132.433 174.523 132.433C169.324 132.433 163.551 130.666 160.012 129.21C159.05 131.27 156.986 134.726 155.636 136.694C160.881 139.575 167.136 141.14 174.166 141.14C184.89 141.14 194 136.074 194 126.018C193.969 118.209 189.266 115.048 178.791 111.7ZM72.8083 91.3715H51.9655V97.4764H57.1956L44.1592 134.214H40V140.304H57.4905V134.199H53.3778L55.7523 127.505H74.7014L77.0761 134.199H73.2273V140.304H91.9281V134.199H88.0331L72.8083 91.3715ZM58.4372 119.882L65.2192 100.761L72.0169 119.882H58.4372Z" fill="#0596FF"/>
  <path d="M144.012 99.7231C141.436 98.6231 138.595 98.0187 135.6 98.0187C134.84 98.0187 134.079 98.0654 133.335 98.1274C130.727 101.691 129.175 106.092 129.175 110.848C129.175 119.789 134.623 127.459 142.382 130.728C140.427 132.076 138.099 132.866 135.6 132.866C128.71 132.866 123.122 126.916 123.122 119.587C123.122 116.427 124.162 113.529 125.901 111.236C125.901 107.874 127.096 101.753 128.911 99.0725C120.19 101.877 113.982 110.136 113.982 119.587C113.982 123.353 114.944 126.87 116.635 129.953C114.587 132.107 111.824 133.331 109.186 133.331C105.617 133.331 103.04 130.542 103.04 126.359V107.176H114.184V99.5373H103.04V91.2786H93.0302V99.5373H85.6896V107.176H93.0302V127.35C93.0302 137.716 100.263 141.109 107.293 141.109C113.175 141.109 117.97 138.336 120.624 135.144C124.504 138.863 129.78 141.156 135.6 141.156C147.38 141.156 157.219 131.549 157.219 119.587C157.235 110.647 151.772 102.993 144.012 99.7231ZM147.488 123.647C142.212 122.098 138.332 116.969 138.332 110.848C138.332 109.438 138.549 108.075 138.937 106.789C144.214 108.338 148.094 113.467 148.094 119.587C148.078 120.998 147.876 122.361 147.488 123.647Z" fill="#0596FF"/>
</svg>
