<svg xmlns="http://www.w3.org/2000/svg" xmlns:xlink="http://www.w3.org/1999/xlink" width="310" height="310">
  <defs>
    <path id="a" d="M0 .1h33.3v34.7H0z"/>
    <path id="c" d="M0 .1h210.3v44.8H0z"/>
  </defs>
  <g fill="none" fill-rule="evenodd">
    <g transform="translate(243.9 136)">
      <mask id="b" fill="#fff">
        <use xlink:href="#a"/>
      </mask>
      <path fill="#F9A61B" d="m26.5 20.3-.7-2.1s.1-.2.4 0l2 1.4c.9 1.3 1.4 6.6 1.5 8.5-.9-.4-2-1-2.8-1.7l-.4-6.1Zm-5.2-5c-1.5-1.5-2.7-3-3.8-4.7.7-1.5 1.3-5.2 1-6.7a15 15 0 0 0-1.6-2.3C16.6 1.3 15.6 0 15 0l-.2.1v1.3l-4.5 3.1V6l.8.5c.7-.1 2.6-.6 3-.5l-1.8 2.8-2.1 1.5-2.7-.8-.5.1-2 2.2-.1.4-.1 2.4v.8c0 1.8.8 2.6.8 2.6L6.9 16a6 6 0 0 1-.5-1.4v-2l1.3-1 3.3 2.4s1 1.7 1.8 2.7c.6.7 3.5 2.7 5 3.5 0 .7.4 2 .6 2.6l4.1 4.2-2.4 3c-.9.6-1.7 1.6-1.6 2.5h2.8l.3-1.6 3.3-3.7c.2-.2.2-.3 0-.6l-.9-3.2c.5-.6 1.5-2 1.5-3.6 0-3-3.2-3.7-4.2-4.5Zm-15.1-6-2.6.7s-1.2.4-1.7.8c-.5.3-1 .9-1 1.2l2.1.5 1-1 .6-.3 1.8-1.9h-.2Zm10.5 19.1 3.1-3 1.3 1.3-3.4 2.9c-.3.3-.5.9-.6 1.2h-2.5c.1-1 1.4-2 2-2.4ZM0 34.8h33.3v-1.1H0v1Z" mask="url(#b)"/>
    </g>
    <g transform="translate(31 136)">
      <mask id="d" fill="#fff">
        <use xlink:href="#c"/>
      </mask>
      <path fill="#F9A61B" d="M79.4 34.8v-2.2h2.1V14.1h-2V12h9.2v20.6h2.1v2.2H79.4ZM188.6 32a6.7 6.7 0 0 1-6 3.2c-3.6 0-6-3.2-6-7 0-4.6 3.3-7.5 8.5-7.5a9 9 0 0 1 3.2.5v-1.4c0-2.8-1.7-4.2-4.2-4.2a6.6 6.6 0 0 0-5.2 2.6l-1.3-1.5c2.3-3.6 5.8-5.2 9.1-5.2 5.5 0 8.8 3.3 8.8 8.3v12.8h2.3v2.2h-9.2V32Zm-.3-8.5c-.2-.2-.6-.5-1.6-.5-2.1 0-2.6 2.1-2.6 4.3 0 2.1.7 3.9 2.5 3.9.9 0 1.4-.4 1.7-.7v-7Zm19.2 9.1h2.8v2.2h-10V5.6H198v-2h9.6v29Zm-133-18.5v16.8c0 1.2.8 1.4 1.5 1.4s1.3-.2 1.3-.2v2s-1.3 1-4.4 1c-3.5 0-5.6-1.8-5.6-5.5V14.1h-2.4v-1.6l8.3-6.7h1.3V12h2.8v2h-2.8Zm6.3-8.2c0 2 1.8 3.4 4.4 3.4 2.5 0 4.4-1.3 4.4-3.4 0-2-1.9-3.3-4.4-3.3-2.6 0-4.4 1.3-4.4 3.3ZM55 19.1c0-2-.7-3.6-2.5-3.6-1.7 0-2.4 1.6-2.4 3.6v13.5h2v2.2H40.7v-2.2H43V14.1h-2.2V12h9v3.5h.1c.9-2 2.8-4 6-4 3.4 0 5.4 2 6 4.8.3 1 .4 2.8.4 3.7v12.6h2.7v2.2h-10V19Zm-39 4.3c0 6.9 4.2 12.4 11.4 12.4s11.4-5.5 11.4-12.4c0-7-4.2-12.5-11.4-12.5s-11.5 5.6-11.5 12.5Zm8.4-.1c0-7 .6-10 3-10 2.3 0 3 3 3 10s-.7 10-3 10c-2.4 0-3-3-3-10Zm100.5-1.2c0-6 .5-8.2 2.5-8.2 2.1 0 2.5 2.2 2.6 8.2h-5.1Zm10.4 6.6a6.3 6.3 0 0 1-5 2.1c-2 0-5.3-1.2-5.4-6.4H137v-1.7c0-6.4-2.6-11.2-9.4-11.2-7 0-10.4 5.3-10.4 11.9 0 6.6 3.5 11.8 10.4 11.8 4.4 0 7.2-2.1 8.8-5.4l-1.2-1.1ZM30.3 0s5.5 5.5 8 8.4v2.1A17.6 17.6 0 0 0 26.6 6C16.3 6 9.9 13.8 9.9 23.4c0 9.5 6 17.3 16.7 17.3 5.2 0 9.5-2.5 11.8-5.1v2c-3.2 4.5-9 7.3-16.3 7.3C9 45 0 35.4 0 23.4 0 11.3 10 1.9 22 1.9c3.1 0 5.9.5 8.3 1.3v-3Zm142.1 14v16.8c0 1.2.8 1.4 1.5 1.4s1.3-.2 1.3-.2v2s-1.3 1-4.4 1c-3.5 0-5.6-1.8-5.6-5.5V14.1h-2.4v-1.6l8.3-6.7h1.3V12h3.5v2h-3.5ZM107 19c0-2-.7-3.6-2.5-3.6-1.7 0-2.5 1.6-2.5 3.6v13.5h2.1v2.2H92.6v-2.2h2.2V14.1h-2.2V12h9v3.5h.1c.9-2 2.8-4 6-4 3.4 0 5.4 2 6 4.8.3 1 .4 2.8.4 3.7v12.6h2.7v2.2h-10V19Zm46 0c0-2-.7-3.6-2.5-3.6-1.7 0-2.5 1.6-2.5 3.6v13.5h2.1v2.2h-11.4v-2.2h2.1V14.1h-2V12h8.9v3.5h.1c.9-2 2.8-4 6-4 3.3 0 5.4 2 6 4.8.3 1 .3 2.8.3 3.7v12.6h2.8v2.2h-10V19Z" mask="url(#d)"/>
    </g>
  </g>
</svg>
