<svg width="233" height="233" viewBox="0 0 233 233" xmlns="http://www.w3.org/2000/svg">
  <path d="M39.4574 103H30.6452C28.3523 103 26.1534 103.911 24.5321 105.532C22.9108 107.153 22 109.352 22 111.645C22 113.938 22.9108 116.137 24.5321 117.758C26.1534 119.38 28.3523 120.29 30.6452 120.29H30.8274V120.473C30.8274 122.765 31.7382 124.964 33.3595 126.586C34.9808 128.207 37.1797 129.118 39.4726 129.118C41.7654 129.118 43.9643 128.207 45.5856 126.586C47.2069 124.964 48.1178 122.765 48.1178 120.473V111.645C48.1178 110.509 47.8936 109.383 47.4582 108.333C47.0228 107.283 46.3847 106.33 45.5803 105.527C44.7759 104.724 43.8211 104.087 42.7704 103.654C41.7198 103.22 40.594 102.998 39.4574 103ZM46.1747 111.645C46.1687 113.423 45.4585 115.127 44.1997 116.383C42.9408 117.639 41.2357 118.345 39.4574 118.347H32.7477V111.645C32.8063 109.902 33.5401 108.249 34.7941 107.037C36.0481 105.824 37.7243 105.146 39.4688 105.146C41.2132 105.146 42.8894 105.824 44.1434 107.037C45.3975 108.249 46.1313 109.902 46.1899 111.645H46.1747ZM30.6452 118.347C29.7436 118.378 28.8451 118.226 28.0032 117.902C27.1613 117.578 26.3932 117.088 25.7446 116.461C25.0961 115.834 24.5804 115.082 24.2282 114.252C23.8759 113.421 23.6944 112.528 23.6944 111.626C23.6944 110.724 23.8759 109.831 24.2282 109.001C24.5804 108.17 25.0961 107.419 25.7446 106.792C26.3932 106.165 27.1613 105.675 28.0032 105.35C28.8451 105.026 29.7436 104.875 30.6452 104.905H34.0304C33.03 105.716 32.2233 106.739 31.6691 107.902C31.1149 109.064 30.8274 110.335 30.8274 111.622V118.347H30.6452ZM39.4574 127.19C37.6751 127.19 35.9658 126.482 34.7048 125.223C33.4439 123.963 32.7345 122.255 32.7325 120.473V120.29H39.4574C40.7457 120.291 42.0177 120.002 43.1801 119.447C44.3424 118.891 45.3657 118.082 46.1747 117.08V120.473C46.1727 122.253 45.4643 123.961 44.205 125.22C42.9457 126.48 41.2383 127.188 39.4574 127.19Z" fill="#5C4AE6"/>
  <path d="M104.338 121.383C104.233 121.289 104.151 121.171 104.1 121.039C104.048 120.907 104.029 120.765 104.042 120.624V112.639H106.873V110.696H104.05V106.469L101.917 107.038V110.696H99.5413V112.639H101.917V120.473C101.881 120.89 101.937 121.31 102.081 121.704C102.226 122.097 102.454 122.454 102.752 122.75C103.323 123.254 104.063 123.524 104.824 123.509H106.904V121.611H105.128C104.846 121.633 104.565 121.552 104.338 121.383Z" fill="#1E3C52"/>
  <path d="M95.3514 121.004C94.7296 121.438 93.992 121.676 93.2337 121.687C92.5033 121.689 91.7847 121.503 91.1464 121.148C90.475 120.765 89.9231 120.202 89.5525 119.524C89.1212 118.733 88.9065 117.843 88.9301 116.943C88.9029 116.11 89.0995 115.284 89.4994 114.552C89.8716 113.884 90.4136 113.327 91.0705 112.935C91.7054 112.554 92.4321 112.352 93.173 112.351C93.9322 112.345 94.6775 112.555 95.321 112.958C95.9732 113.376 96.4611 114.006 96.7024 114.742H98.7746C98.5927 113.907 98.2155 113.126 97.674 112.465C97.1358 111.826 96.4684 111.309 95.7157 110.947C94.9844 110.584 94.1792 110.394 93.3628 110.393C92.2329 110.387 91.1176 110.647 90.1066 111.152C89.0964 111.658 88.2571 112.45 87.6929 113.429C87.102 114.56 86.7883 115.815 86.7777 117.091C86.7672 118.367 87.06 119.628 87.6322 120.769C88.1516 121.734 88.9434 122.526 89.9092 123.046C90.8924 123.559 91.9879 123.82 93.0971 123.805C94.079 123.826 95.0504 123.599 95.9207 123.144C96.7233 122.716 97.4048 122.092 97.9017 121.33C98.362 120.682 98.6683 119.937 98.7973 119.152H96.71C96.4953 119.913 96.0128 120.57 95.3514 121.004Z" fill="#1E3C52"/>
  <path d="M128.05 110.909C127.305 111.236 126.698 111.813 126.335 112.541V110.674H124.369V123.456H126.494V116.328C126.479 115.618 126.652 114.916 126.995 114.294C127.311 113.712 127.785 113.231 128.361 112.905C128.937 112.575 129.587 112.395 130.251 112.381H131.769L131.822 110.408H130.471C129.638 110.4 128.812 110.571 128.05 110.909Z" fill="#1E3C52"/>
  <path d="M67.9357 104.996L68.0116 112.829C67.5068 112.061 66.8166 111.432 66.0048 111.001C65.1929 110.57 64.2855 110.35 63.3664 110.362C62.1725 110.345 60.9948 110.641 59.9508 111.22C58.9502 111.775 58.1267 112.601 57.5751 113.603C56.9962 114.669 56.7033 115.867 56.725 117.08C56.7038 118.276 56.997 119.456 57.5751 120.503C58.1349 121.489 58.9573 122.301 59.9508 122.848C61.0036 123.407 62.1822 123.687 63.374 123.66C64.5827 123.676 65.7757 123.386 66.8427 122.818C67.8584 122.28 68.7025 121.467 69.2791 120.473C69.8747 119.431 70.1788 118.249 70.1596 117.049L70.0609 104.966L67.9357 104.996ZM68.0419 117.08C68.0522 117.912 67.8344 118.731 67.412 119.448C67.0086 120.138 66.4265 120.707 65.7269 121.095C65.0064 121.498 64.1918 121.702 63.3664 121.687C62.5683 121.695 61.7824 121.491 61.0893 121.095C60.4102 120.71 59.8527 120.142 59.4802 119.455C59.084 118.727 58.8827 117.909 58.8958 117.08C58.875 116.216 59.0762 115.361 59.4802 114.598C59.8462 113.9 60.4082 113.325 61.0969 112.943C61.8113 112.546 62.6176 112.345 63.4347 112.359C64.0488 112.332 64.6619 112.43 65.2372 112.646C65.8125 112.863 66.3379 113.194 66.782 113.619C67.2112 114.063 67.5471 114.589 67.7701 115.165C67.993 115.741 68.0983 116.356 68.0799 116.973L68.0419 117.08Z" fill="#1E3C52"/>
  <path d="M192.779 118.226C192.779 120.503 191.063 121.702 189.143 121.725C187.223 121.748 185.674 120.533 185.674 118.074V110.696H183.572V118.074C183.572 121.869 186.35 123.698 188.885 123.698C189.693 123.753 190.5 123.583 191.218 123.208C191.936 122.833 192.536 122.267 192.953 121.573V123.455H194.919V110.696H192.779V118.226Z" fill="#1E3C52"/>
  <path d="M166.562 110.416C165.746 110.354 164.928 110.52 164.201 110.895C163.473 111.27 162.864 111.84 162.441 112.541V110.704H160.475V123.455H162.6V116.328C162.58 115.82 162.662 115.314 162.841 114.838C163.02 114.363 163.293 113.928 163.643 113.56C163.994 113.192 164.415 112.898 164.881 112.695C165.347 112.493 165.849 112.386 166.357 112.381H167.875V110.416H166.562Z" fill="#1E3C52"/>
  <path d="M133.697 110.696H135.822V123.455H133.697V110.696Z" fill="#1E3C52"/>
  <path d="M133.568 108.313H135.951V105.672H133.545L133.568 108.313Z" fill="#1E3C52"/>
  <path d="M84.3228 113.588C83.769 112.595 82.9523 111.773 81.9623 111.213C80.9015 110.635 79.709 110.342 78.5011 110.362C77.3101 110.341 76.1345 110.634 75.0932 111.213C74.094 111.773 73.2712 112.601 72.7174 113.603C72.1362 114.669 71.8407 115.866 71.8597 117.08C71.8409 118.276 72.1367 119.457 72.7174 120.503C73.2849 121.497 74.1216 122.31 75.1311 122.848C76.185 123.4 77.357 123.688 78.5467 123.688C79.7364 123.688 80.9083 123.4 81.9623 122.848C82.9605 122.305 83.7863 121.492 84.3456 120.503C84.9357 119.457 85.2346 118.273 85.2108 117.072C85.2236 115.853 84.9175 114.652 84.3228 113.588ZM82.4708 119.448C82.0878 120.136 81.5233 120.706 80.8389 121.095C80.1238 121.498 79.3141 121.702 78.4936 121.687C77.6804 121.701 76.8784 121.496 76.171 121.095C75.497 120.702 74.9432 120.133 74.5694 119.448C74.1722 118.72 73.9708 117.901 73.985 117.072C73.9688 116.211 74.1698 115.36 74.5694 114.598C74.94 113.904 75.5008 113.33 76.1861 112.943C76.8999 112.558 77.698 112.357 78.5087 112.357C79.3195 112.357 80.1176 112.558 80.8313 112.943C81.5194 113.331 82.0848 113.904 82.4632 114.598C82.8728 115.357 83.0769 116.21 83.0552 117.072C83.0736 117.902 82.872 118.721 82.4708 119.448Z" fill="#1E3C52"/>
  <path d="M119.685 110.689V112.966C119.228 112.145 118.539 111.477 117.704 111.046C116.856 110.588 115.906 110.35 114.942 110.355C113.777 110.318 112.622 110.579 111.587 111.114C110.585 111.652 109.758 112.466 109.203 113.459C108.61 114.547 108.311 115.772 108.338 117.011C108.294 118.272 108.593 119.521 109.203 120.624C109.766 121.586 110.583 122.373 111.564 122.901C112.607 123.43 113.765 123.691 114.934 123.66C115.879 123.663 116.811 123.448 117.659 123.03C118.519 122.625 119.234 121.965 119.708 121.141L119.655 123.418H121.757V110.689H119.685ZM119.154 119.281C118.827 119.997 118.3 120.604 117.636 121.027C116.882 121.489 116.008 121.719 115.124 121.687C114.306 121.702 113.498 121.506 112.778 121.118C112.088 120.745 111.517 120.184 111.131 119.501C110.728 118.775 110.524 117.955 110.539 117.125C110.518 116.241 110.722 115.366 111.131 114.583C111.503 113.884 112.07 113.309 112.763 112.928C113.48 112.54 114.286 112.344 115.101 112.359C115.974 112.33 116.837 112.548 117.59 112.989C118.259 113.394 118.805 113.974 119.169 114.666C119.534 115.369 119.722 116.151 119.716 116.943C119.707 117.755 119.515 118.554 119.154 119.281Z" fill="#1E3C52"/>
  <path d="M155.898 110.696V112.905C155.372 112.117 154.658 111.472 153.821 111.028C152.983 110.584 152.049 110.355 151.101 110.362C150.214 110.333 149.33 110.488 148.506 110.816C147.681 111.144 146.933 111.639 146.308 112.269C145.683 112.9 145.195 113.653 144.875 114.48C144.554 115.308 144.408 116.193 144.445 117.08C144.411 117.959 144.56 118.836 144.882 119.655C145.204 120.474 145.692 121.217 146.315 121.839C146.938 122.461 147.683 122.947 148.502 123.267C149.322 123.586 150.199 123.734 151.078 123.698C151.995 123.698 152.898 123.476 153.711 123.052C154.524 122.628 155.222 122.014 155.746 121.262V122.636C155.746 125.748 154.228 127.122 151.314 127.122C148.399 127.122 147.473 125.512 147.397 124.844H145.264C145.34 125.778 146.175 129.095 151.336 129.095C156.498 129.095 157.864 126.029 157.864 122.636V110.696H155.898ZM155.739 117.307C155.697 118.506 155.184 119.64 154.312 120.463C153.439 121.285 152.277 121.731 151.078 121.702C150.472 121.719 149.868 121.609 149.306 121.382C148.743 121.154 148.234 120.812 147.81 120.378C147.386 119.944 147.056 119.427 146.841 118.859C146.627 118.292 146.532 117.686 146.562 117.08C146.522 116.463 146.611 115.846 146.823 115.266C147.035 114.686 147.366 114.156 147.795 113.712C148.224 113.267 148.741 112.917 149.313 112.684C149.885 112.451 150.499 112.34 151.116 112.359C151.736 112.347 152.351 112.462 152.924 112.696C153.498 112.93 154.018 113.279 154.452 113.721C154.886 114.162 155.225 114.688 155.449 115.266C155.673 115.843 155.777 116.461 155.754 117.08L155.739 117.307Z" fill="#1E3C52"/>
  <path d="M175.071 110.355C174.183 110.326 173.299 110.48 172.474 110.808C171.649 111.137 170.901 111.631 170.275 112.262C169.65 112.892 169.161 113.644 168.84 114.472C168.518 115.3 168.371 116.185 168.407 117.072C168.407 118.84 169.109 120.535 170.359 121.784C171.608 123.034 173.303 123.736 175.071 123.736C176.838 123.736 178.533 123.034 179.783 121.784C181.033 120.535 181.735 118.84 181.735 117.072C181.78 116.183 181.639 115.294 181.321 114.462C181.003 113.63 180.514 112.873 179.887 112.241C179.26 111.609 178.507 111.114 177.678 110.79C176.849 110.465 175.961 110.317 175.071 110.355ZM175.071 121.824C174.458 121.826 173.851 121.702 173.287 121.462C172.723 121.221 172.214 120.868 171.792 120.424C171.369 119.98 171.041 119.454 170.829 118.879C170.616 118.304 170.523 117.692 170.555 117.08C170.555 115.872 171.034 114.714 171.889 113.86C172.743 113.006 173.901 112.526 175.109 112.526C176.317 112.526 177.475 113.006 178.329 113.86C179.183 114.714 179.663 115.872 179.663 117.08C179.689 117.699 179.588 118.317 179.367 118.895C179.146 119.474 178.809 120.001 178.377 120.446C177.945 120.89 177.427 121.241 176.855 121.478C176.282 121.715 175.668 121.832 175.048 121.824H175.071Z" fill="#1E3C52"/>
  <path d="M204.308 110.362C203.361 110.357 202.427 110.586 201.59 111.03C200.752 111.473 200.038 112.118 199.511 112.905V110.704H197.538V128.875H199.663V121.232C200.186 121.993 200.886 122.615 201.703 123.045C202.521 123.475 203.43 123.699 204.354 123.698C205.24 123.72 206.122 123.559 206.944 123.227C207.766 122.894 208.511 122.397 209.133 121.766C209.755 121.134 210.242 120.382 210.562 119.555C210.882 118.728 211.03 117.844 210.995 116.958C211.029 116.075 210.879 115.195 210.553 114.373C210.228 113.551 209.735 112.807 209.106 112.186C208.477 111.565 207.725 111.083 206.899 110.769C206.073 110.455 205.191 110.316 204.308 110.362ZM204.308 121.702C203.688 121.706 203.073 121.586 202.499 121.348C201.926 121.11 201.406 120.76 200.971 120.317C200.536 119.875 200.194 119.35 199.965 118.773C199.737 118.196 199.626 117.579 199.64 116.958C199.616 116.344 199.721 115.731 199.946 115.159C200.172 114.588 200.514 114.069 200.951 113.636C201.388 113.204 201.91 112.867 202.484 112.647C203.058 112.427 203.671 112.329 204.285 112.359C204.896 112.325 205.507 112.422 206.078 112.642C206.649 112.861 207.166 113.2 207.597 113.635C208.027 114.069 208.36 114.59 208.575 115.163C208.789 115.736 208.879 116.348 208.84 116.958C208.872 117.57 208.779 118.182 208.566 118.756C208.354 119.33 208.027 119.856 207.605 120.3C207.183 120.743 206.675 121.097 206.113 121.338C205.55 121.579 204.943 121.703 204.331 121.702H204.308Z" fill="#1E3C52"/>
</svg>
