<svg xmlns="http://www.w3.org/2000/svg" width="400" height="400" fill="none">
  <path fill="#3A4A5D" fill-rule="evenodd" d="M87.867 255.067c-.806.805-.272 41.83.561 43.179 1.794 2.902 4.991 3.882 9.764 2.993 3.458-.644 3.95-1.265 3.152-3.981-.684-2.33-.54-2.277-3.887-1.436-.819.205-1.291.006-2.247-.95l-1.21-1.21v-18.799c0-10.338-.109-19.082-.243-19.43-.25-.652-5.291-.966-5.89-.366Zm225.92.641c-.125.5-.174 2.165-.107 3.7l.12 2.792 2.9.118 2.9.117V254.8h-2.792c-2.57 0-2.811.072-3.021.908Zm-19.902 1.592c-.548.41-.688 1.366-.777 5.295-.088 3.906-.219 4.81-.708 4.874-.33.043-1.275.188-2.1.322l-1.5.245v4.764h1.567c3.019 0 2.833-.752 2.833 11.466 0 12.384.233 14.061 2.16 15.53 4.561 3.48 17.029.874 13.474-2.816-.202-.209-.427-.83-.5-1.38-.154-1.15-.981-1.178-3.812-.129-1.599.592-1.745.58-3.087-.25l-1.409-.87-.113-10.396c-.129-11.847-.349-11.155 3.553-11.155 3.214 0 3.734-.382 3.734-2.745 0-1.955-.861-2.455-4.229-2.455H300v-4.986c0-4.52-.072-5.025-.774-5.4-1.074-.575-4.533-.519-5.341.086Zm-231.56 10.249c-1.471.358-2.806.786-2.966.951-.161.165-.577.307-.926.316-2.163.056-7.365 5.889-8.613 9.659-5.441 16.445 12.739 30.055 26.674 19.969 3.798-2.749 4.718-5.232 2.298-6.201-2.496-.998-3.403-.838-4.672.827-2.026 2.659-9.668 5.033-10.72 3.33-.136-.22-.514-.4-.84-.4-2.825 0-8.094-7.96-6.119-9.243.313-.203 6.023-.32 12.959-.266 14.484.114 13.585.369 13.266-3.764-.345-4.478-1.91-7.958-4.866-10.819-2.501-2.421-6.064-4.168-9.2-4.511-1.32-.144-2.67-.316-3-.381-.33-.065-1.804.175-3.275.533Zm91.184-.123c-10.991 2.645-16.09 15.047-10.762 26.174 4.155 8.678 15.117 11.012 22.261 4.739 1.875-1.646 1.847-1.721 2.03 5.334.243 9.347.847 10.469 5.514 10.245L175 313.8l.123-2.389c.099-1.934-.015-2.489-.6-2.917-.678-.495-.73-1.775-.834-20.495l-.111-19.967-1.389-.26c-2.957-.555-4.189.04-4.189 2.023 0 2.131-.573 2.602-1.591 1.308-1.098-1.396-5.088-3.389-7.409-3.701-1.1-.148-2.27-.327-2.6-.398-.33-.071-1.631.119-2.891.422Zm117.842-.037c-3.355.609-6.468 2.08-8.726 4.124L261 272.984l-.119-2.489c-.135-2.824-.693-3.244-3.583-2.702-2.158.405-2.085-.184-2.092 16.893-.006 15.102.023 15.701.768 16.1.855.457 2.933.535 4.326.162l.9-.241v-9.414c0-9.333.009-9.431 1.043-11.546 2.748-5.617 9.42-8.482 12.872-5.527 2.454 2.101 2.615 2.962 2.864 15.379l.221 10.998 1.702.359c1.026.216 2.218.21 3-.014l1.298-.373v-11.985c0-14.496-.562-17.21-4.078-19.689-.915-.645-5.266-2.194-5.784-2.059-.076.02-1.42.269-2.987.553Zm-155.751.261c-16.438 4.435-16.645 29.06-.282 33.623 9.482 2.644 19.324-3.466 21.13-13.119 2.403-12.848-8.711-23.779-20.848-20.504Zm113.6.028c-.99.216-1.971.557-2.18.757-.209.201-.704.365-1.1.365-.396 0-.72.168-.72.373s-.363.488-.807.629c-2.151.683-4.955 4.389-7.291 9.639-.205.462-.313 2.892-.238 5.4.298 9.982 6.238 16.268 16.111 17.05 4.872.385 11.564-2.584 14.042-6.231 1.322-1.945 1.24-2.589-.431-3.386-2.306-1.1-3.236-.881-5.312 1.248-5.845 5.995-15.944 2.973-17.483-5.231-.35-1.865-.94-1.786 13.27-1.791 14.667-.005 13.519.353 13.202-4.115-.745-10.5-10.172-17.082-21.063-14.707Zm-47.1.204-.9.174v25.469l1.161 2.587c3.245 7.233 13.946 7.867 20.778 1.232 1.803-1.751 2.061-1.698 2.061.427 0 2.394 1.26 3.429 4.174 3.429 3.243 0 4.303-2.967 2.026-5.673l-1-1.188v-26.246l-.9-.241c-1.314-.352-4.015-.293-4.637.101-.424.268-.551 2.452-.6 10.294l-.063 9.953-1.355 2.345c-3.674 6.357-11.744 7.498-14.542 2.055-.759-1.476-.837-2.487-1.007-13.065-.211-13.158.013-12.656-5.196-11.653Zm132.7.076-1 .278-.104 16.234-.105 16.234.905.243c1.156.309 3.051.31 4.204.001l.9-.241v-32.614l-.9-.241c-1.116-.299-2.588-.259-3.9.106Zm10.9-.076c-.495.096-.9.28-.9.411 0 .294 2.477 4.233 2.835 4.507.281.215 5.741 7.628 7.445 10.107 1.124 1.635 1.065 2.053-.58 4.147-3.017 3.843-9.7 13.038-9.7 13.347 0 .467 1.573.787 3.891.794 2.05.005 2.122-.036 3.724-2.095.899-1.155 1.87-2.391 2.159-2.746.289-.355 1.56-2.02 2.824-3.7 1.265-1.68 2.427-3.054 2.584-3.054.313 0 2.379 2.214 3.018 3.234 2.344 3.739 5.97 7.94 7.059 8.179 3.511.771 6.092-.403 4.563-2.075-.232-.254-2.399-3.134-4.815-6.4-2.416-3.266-4.711-6.287-5.1-6.713-.389-.427-.704-.967-.701-1.2.007-.485 5.173-7.555 5.668-7.758.179-.074.326-.311.326-.528 0-.217 1.14-1.867 2.534-3.667 3.223-4.161 3.353-4.515 1.787-4.828-4.263-.852-5.051-.398-9.186 5.289-5.147 7.079-4.752 6.749-6.176 5.17-.647-.717-2.6-3.249-4.341-5.628-3.866-5.284-4.526-5.639-8.918-4.793Zm-256.713 4.746c3.892.979 8.28 6.598 6.899 8.834-.389.628-18.821.62-19.681-.009-1.789-1.308 3.704-8.635 6.492-8.659.386-.003.973-.189 1.303-.413.606-.41 2.807-.302 4.987.247Zm167.529-.038c4.315 1.309 8.713 6.709 7.178 8.813-.317.435-18.141.753-19.44.347-1.719-.537.479-5.391 3.388-7.482 2.903-2.087 5.751-2.625 8.874-1.678Zm-112.883 1.027c5.171 2.638 8.399 10.245 6.165 14.529-.329.63-.598 1.324-.598 1.542 0 .218-.581 1.143-1.292 2.054-8.669 11.12-23.203-.918-16.529-13.69 2.178-4.167 8.379-6.412 12.254-4.435Zm37.394.036c4.971 2.199 6.166 4.758 5.986 12.82-.232 10.346-13.331 13.277-18.32 4.099-5.028-9.25 3.433-20.856 12.334-16.919Z" clip-rule="evenodd"/>
  <path fill="#1CB3EB" fill-rule="evenodd" d="M191.996 89.207c-.116.116-1.464.386-2.995.6-3.294.46-8.121 1.706-11.7 3.022-24.993 9.188-42.248 34.029-42.248 60.823 0 7.149 1.61 16.601 3.621 21.26.299.694.544 1.461.544 1.706 0 .245.159.757.353 1.139.194.382 1.272 2.596 2.395 4.92 17.702 36.616 65.562 47.37 97.652 21.942 8.69-6.886 16.479-17.328 19.815-26.567.398-1.1.839-2.18.982-2.4.262-.405.684-1.8 1.753-5.8 6.447-24.114-3.013-52.042-22.74-67.136a237.001 237.001 0 0 1-2.81-2.171c-3.057-2.5-12.77-7.299-17.6-8.694-3.954-1.143-6.274-1.713-8.4-2.064-2.626-.434-18.28-.922-18.622-.58Zm15.422 23.093c12.307 2.508 24.074 11.156 29.165 21.434 1.543 3.117 2.635 5.644 2.635 6.101 0 .236.16.74.356 1.122 1.864 3.632 2.548 16.944 1.121 21.795a1329.02 1329.02 0 0 0-1.343 4.6c-2.844 9.825-13.176 21.114-22.934 25.06-.99.4-2.25.911-2.8 1.136-8.085 3.299-24.88 2.658-30.589-1.167-.434-.291-1.028-.529-1.319-.529-.292 0-1.515-.63-2.719-1.4-1.204-.77-2.289-1.4-2.412-1.4-.69 0-6.653-5.393-8.899-8.047-9.207-10.881-12.367-26.119-8.202-39.553 2.275-7.337 11.811-21.2 14.583-21.2.136 0 .9-.519 1.699-1.154 7.369-5.856 21.445-8.879 31.658-6.798Zm-69 73.845c-2.668 2.066-6.8 7.564-6.8 9.047 0 .275-.158.671-.352.88-.678.732-1.733 7.411-1.473 9.32.364 2.661 1.116 5.796 1.498 6.24.18.209.327.601.327.871 0 .799 2.678 5.018 4.299 6.774 9.534 10.326 26.758 9.237 34.679-2.194 1.373-1.981 1.2-2.492-1.249-3.689-1.061-.518-1.989-1.077-2.062-1.242-.074-.165-.296-.3-.494-.3-.199 0-1.239-.54-2.311-1.2-2.427-1.493-2.868-1.494-4.193-.007-5.097 5.721-14.363 4.37-17.506-2.553-1.644-3.619-.723-8.452 2.204-11.562 1.683-1.788 1.744-2.237.508-3.747-1.049-1.282-3.468-5.191-3.488-5.637-.082-1.814-1.887-2.318-3.587-1.001Zm29.245 37.059c-3.72 3.96-16.237 6.728-21.167 4.681-1.914-.794-2.3-.23-1.664 2.435 3.301 13.826 22.591 13.688 25.583-.184.673-3.119-.303-7.843-1.627-7.878-.127-.003-.633.422-1.125.946Z" clip-rule="evenodd"/>
</svg>
