<svg xmlns="http://www.w3.org/2000/svg" xmlns:xlink="http://www.w3.org/1999/xlink" width="310" height="310">
  <defs>
    <path id="a" d="M0 .26h71.01v53.01H0z"/>
    <path id="c" d="M.3.03h25.49v30.92H.3z"/>
  </defs>
  <g fill="none" fill-rule="evenodd">
    <g transform="translate(33.32 105.16)">
      <mask id="b" fill="#fff">
        <use xlink:href="#a"/>
      </mask>
      <path fill="#F05C22" d="M36.32 8.5a8.24 8.24 0 0 0 8.24 8.24h5.76-.01s1.74.1 2.95 1.3a5.28 5.28 0 0 1 1.26 2.86v11.86a4.9 4.9 0 0 1-1.28 2.75c-1.1 1.11-2.92 1.28-2.92 1.28h-11.6a5.41 5.41 0 0 1-2.85-1.26 5.2 5.2 0 0 1-1.3-2.76v-6a8.24 8.24 0 1 0-8.23 8.24h5.78-.01s1.73.13 2.94 1.34a5.25 5.25 0 0 1 1.26 2.83v5.85a8.24 8.24 0 0 0 8.24 8.24c4.56 0 8.25-3.69 8.25-8.24v-5.79c.03-.3.28-1.92 1.26-2.9a5.24 5.24 0 0 1 3-1.32l-.01-.01h5.71a8.24 8.24 0 0 0 8.25-8.24v-.04a8.24 8.24 0 0 0-8.24-8.24h-5.81a5.44 5.44 0 0 1-2.88-1.26 5.04 5.04 0 0 1-1.27-2.77V8.5a8.24 8.24 0 0 0-16.49 0m-9.88 44.77a8.24 8.24 0 0 1-8.24-8.24v-5.96a5.04 5.04 0 0 0-1.27-2.77 5.44 5.44 0 0 0-2.89-1.26h-5.8A8.24 8.24 0 0 1 0 26.79v-.03a8.24 8.24 0 0 1 8.24-8.24h5.72v-.01c0 .02 1.82-.15 2.98-1.32a5.45 5.45 0 0 0 1.27-2.9V8.5a8.24 8.24 0 0 1 16.48 0v5.85c.06.4.31 1.88 1.27 2.83a5.11 5.11 0 0 0 2.94 1.33h5.77a8.24 8.24 0 1 1-8.24 8.24v-5.99a5.19 5.19 0 0 0-1.3-2.76 5.4 5.4 0 0 0-2.84-1.26h-11.6s-1.82.17-2.93 1.27a4.9 4.9 0 0 0-1.28 2.76v11.86a5.3 5.3 0 0 0 1.27 2.85 4.99 4.99 0 0 0 2.95 1.3h-.01 5.75a8.24 8.24 0 1 1 0 16.5" mask="url(#b)"/>
    </g>
    <g transform="translate(92.44 148.11)">
      <mask id="d" fill="#fff">
        <use xlink:href="#c"/>
      </mask>
      <path fill="#525E65" d="M12.9 5.29c-3.9 0-6.27 2.7-6.78 7.46h13.8c-.3-4.07-2.21-7.46-7.02-7.46m12.72 12.26H6.01c.62 5.7 3.84 8.14 7.46 8.14 2.49 0 4.46-.9 6.44-2.37l3.45 3.73c-2.6 2.48-5.71 3.9-10.23 3.9C6.18 30.95.3 25.35.3 15.52.3 5.45 5.6.02 13.3.02c8.42 0 12.49 6.85 12.49 14.87 0 1.08-.11 2.04-.17 2.66" mask="url(#d)"/>
    </g>
    <path fill="#525E65" d="M139.66 178.44v-16.79c0-6-2.26-8.14-6.1-8.14-3.9 0-6.1 2.77-6.1 7.58v17.35h-5.83v-29.68h5.82v2.83c1.47-2.15 4.41-3.45 7.46-3.45 6.9 0 10.57 4.52 10.57 13.28v17.02h-5.82ZM168.14 157.41c-1.3-1.75-4.02-3.9-6.96-3.9-4.18 0-6.44 3.17-6.44 9.44 0 7.46 2.37 10.74 6.67 10.74 2.77 0 5.2-1.87 6.73-3.79v-12.49Zm-.06 21.03v-2.83c-2.15 1.98-4.64 3.45-7.75 3.45-6.38 0-11.41-4.64-11.41-15.94 0-10.17 5.54-14.98 11.7-14.98 3 0 5.82 1.58 7.46 3.4v-11.31l5.76-3v41.2h-5.76ZM221.04 178.44h-5.82l-10.62-29.68h6.1l5.31 16.11c.96 2.88 1.81 5.65 2.2 7.3.35-1.65 1.14-4.42 2.04-7.3l5.09-16.1h6.16l-10.46 29.67ZM196.61 157.41c-1.3-1.75-4.01-3.9-6.95-3.9-4.18 0-6.45 3.17-6.45 9.44 0 7.46 2.38 10.74 6.67 10.74 2.77 0 5.2-1.87 6.73-3.79v-12.49Zm-.06 21.03v-2.83c-2.14 1.98-4.63 3.45-7.74 3.45-6.39 0-11.42-4.64-11.42-15.94 0-10.17 5.54-14.98 11.7-14.98 3 0 5.82 1.58 7.46 3.4v-2.8h5.77v29.7h-5.77ZM250.37 157.41c-1.3-1.75-4.02-3.9-6.96-3.9-4.18 0-6.44 3.17-6.44 9.44 0 7.46 2.38 10.74 6.67 10.74 2.77 0 5.2-1.87 6.73-3.79v-12.49Zm-.06 21.03v-2.83c-2.15 1.98-4.63 3.45-7.74 3.45-6.39 0-11.42-4.64-11.42-15.94 0-10.17 5.54-14.98 11.7-14.98 3 0 5.82 1.58 7.46 3.4v-2.8h5.76v29.7h-5.76Z"/>
  </g>
</svg>
