<svg width="233" height="233" viewBox="0 0 233 233" xmlns="http://www.w3.org/2000/svg">
  <path d="M80.9544 121.848C73.3933 121.848 71.0961 119.839 71.0961 117.272V108.093H76.0439V116.761C76.0439 118.872 78.248 119.458 81.1962 119.458C82.7366 119.483 84.277 119.415 85.8091 119.253V108.121H90.7569V121.29C88.8968 121.56 85.2046 121.848 80.9544 121.848V121.848ZM36.7037 121.504V115.961H26.9477V121.504H22V108.075H26.9477V113.571H36.7037V108.075H41.6608V121.504H36.7037ZM102.15 110.762H115.542V108.065H101.108C97.202 108.065 95.8441 108.772 95.8441 110.809V121.532H100.792V115.905H115.496V113.515H100.801V111.609C100.82 111.097 101.108 110.762 102.14 110.762H102.15ZM125.726 110.762C124.666 110.762 124.396 111.097 124.396 111.581V113.543H139.1V115.84H124.396V117.998C124.396 118.482 124.684 118.816 125.726 118.816H139.1V121.513H124.684C120.778 121.513 119.42 120.807 119.42 118.77V110.79C119.42 108.763 120.778 108.056 124.684 108.056H139.1V110.753H125.726V110.772V110.762Z" fill="black"/>
  <path d="M144.103 118.993C144.103 118.314 144.494 118.063 145.647 118.063H147.628C148.763 118.063 149.172 118.314 149.172 118.993V120.611C149.172 121.29 148.791 121.532 147.628 121.532H145.647C144.512 121.532 144.103 121.29 144.103 120.611V118.993Z" fill="#005DA5"/>
  <path d="M56.4853 113.227C53.3232 113.227 50.4774 113.515 48.4871 113.859C47.0642 114.073 46.441 114.631 46.441 115.84V119.235C46.441 120.444 47.0642 120.974 48.4871 121.216C50.4774 121.56 53.3232 121.848 56.4853 121.848C60.6425 121.867 64.3069 121.532 66.1204 121.244V112.529C66.1204 108.316 64.5022 108.065 59.0243 108.065H48.0128V110.39H58.8941C60.9495 110.39 61.1448 110.948 61.1448 112.185V113.227H56.4946H56.4853ZM56.4853 119.616C54.9415 119.616 53.3976 119.495 52.4025 119.3C51.705 119.179 51.3888 118.919 51.3888 118.333V116.761C51.3888 116.156 51.705 115.887 52.4118 115.794C53.3976 115.608 54.9415 115.477 56.4853 115.477H61.1262V119.449C60.1775 119.542 58.3454 119.616 56.4853 119.616V119.616ZM160.62 121.699C156.714 121.699 153.589 119.421 153.589 114.854C153.589 110.716 156.342 108 160.816 108C162.304 108 163.569 108.27 164.554 108.725L163.931 109.841C162.983 109.445 161.964 109.246 160.937 109.256C157.7 109.256 155.868 111.441 155.868 114.929C155.868 118.677 158.063 120.444 160.546 120.444C161.272 120.463 161.996 120.372 162.694 120.174V115.161H159.653V114.045H164.824V121.002C163.829 121.439 162.127 121.699 160.62 121.699V121.699ZM173.418 112.213C173.036 112.092 172.581 112.046 172.097 112.046C171.511 112.046 170.907 112.111 170.479 112.306V121.513H168.349V111.627C169.763 111.112 171.262 110.866 172.767 110.902C173.25 110.902 173.79 110.957 173.901 110.957L173.418 112.213ZM180.449 121.699C176.942 121.699 175.352 119.421 175.352 116.277C175.352 113.152 176.942 110.883 180.449 110.883C183.955 110.883 185.545 113.152 185.545 116.277C185.573 119.421 183.955 121.699 180.449 121.699ZM180.449 111.971C178.207 111.971 177.454 113.924 177.454 116.249C177.454 118.574 178.198 120.565 180.449 120.565C182.69 120.565 183.443 118.574 183.443 116.259C183.443 113.934 182.718 111.971 180.449 111.971V111.971ZM193.292 121.699C190.205 121.699 188.586 120.639 188.586 118.286V111.078H190.688V118.36C190.688 119.811 191.525 120.537 193.32 120.537C194.139 120.537 195.059 120.416 195.617 120.202V111.069H197.719V120.927C196.752 121.364 194.985 121.699 193.292 121.699ZM205.345 121.671C204.601 121.671 203.829 121.56 203.346 121.439V125.671H201.263V111.609C202.379 111.143 203.774 110.883 205.271 110.883C208.972 110.883 211 112.938 211 116.11C210.972 119.597 208.749 121.681 205.345 121.681V121.671ZM205.178 111.925C204.527 111.925 203.829 111.99 203.346 112.185V120.369C203.847 120.515 204.367 120.587 204.89 120.583C207.522 120.583 208.87 118.993 208.87 116.212C208.87 113.589 207.884 111.925 205.178 111.925V111.925Z" fill="black"/>
</svg>
