<svg width="233" height="233" xmlns="http://www.w3.org/2000/svg" xmlns:xlink="http://www.w3.org/1999/xlink">
  <defs>
    <path id="a" d="M0 0h119.1v95.8H0z"/>
  </defs>
  <g fill="none" fill-rule="evenodd">
    <path fill="#47C0BD" d="m72 173 17.1-17-34.1-.1z"/>
    <g transform="translate(59.4 60.2)">
      <mask id="b" fill="#fff">
        <use xlink:href="#a"/>
      </mask>
      <path d="M113 18.2c-3.2 5-9 13-15 7l15.3-15.3-3.2-3.5C101.8-1.9 92.6-2 85.3 5.3a15.7 15.7 0 0 0-4.7 15.6l-4.8-5.4a10 10 0 0 0-2.9 13.7l-5.5-4.5-7.3 7.2 9.9 9.9c-7.6-6-15.8-5.5-22.4 1-7 7-6.5 15.6-1.3 22.6l-1-1.1c-7-7-14.5-4.5-18.2-.8-3 3-4.7 6.9-4 9.6l-15-15-8 8 29.6 29.7h16L34.8 85c-5.6-5.8-5.7-8.8-3-11.5 2.7-2.6 5.8-1 11.1 4.4l10.6 10.6 8-8-10-10c7.2 5.5 15.9 5.7 23.6-2l.1-.1c4.8-4.4 6.2-8.6 6.2-8.6l-6-4c-3.4 4.9-9.1 13-15.1 6.9l15.3-15.3 9.5 9.5 8.3-8.3-11.9-12C76 31.2 79.3 26 81.6 24c1.1 2.3 2.7 4.5 4.8 6.5 7.7 7.7 17.7 9.3 26.4.6l.2-.2c4.7-4.3 6.1-8.6 6.1-8.6l-6-4Zm-22-7.4c2.8-2.6 5.5-1.5 8.5 1.4l-7.2 7.3c-3.6-4.2-3.4-6.5-1.2-8.7ZM54.7 57.1c-3.5-4.2-3.4-6.5-1.2-8.7 2.7-2.7 5.4-1.5 8.5 1.4l-7.3 7.3Z" fill="#313842" mask="url(#b)"/>
    </g>
  </g>
</svg>
