<svg width="186" height="186" fill="none" xmlns="http://www.w3.org/2000/svg"><path fill-rule="evenodd" clip-rule="evenodd" d="M33.67 77.946h6.007l2.31-13.94h-5.979l-2.338 13.94ZM24.023 64.006h-6.006v35.83h6.006v-35.83ZM53.986 64.006h-6.008v35.83h6.008v-35.83ZM36.008 99.836l2.66-15.919h-6.006l-2.66 15.919h6.006Z" fill="#009"/><path d="M26.692 122.86H25.44l-.928-2.513h-4.43l-.928 2.513H18l3.643-9.772h1.42l3.63 9.772Zm-6.301-3.518h3.797l-1.899-5.026-1.898 5.026ZM32.995 113.088h3.699c1.912 0 3.15.934 3.15 3.03 0 2.107-1.238 3.043-3.15 3.043h-2.532v3.699h-1.167v-9.772Zm1.167 5.068h2.504c1.209 0 1.983-.601 1.983-2.038 0-1.425-.788-2.025-1.983-2.025h-2.504v4.063ZM48.972 119.496c0 2.247-1.45 3.503-3.826 3.503-2.349 0-3.797-1.256-3.797-3.503v-3.043c0-2.262 1.449-3.505 3.826-3.505 2.348 0 3.797 1.243 3.797 3.505v3.043Zm-1.168-3.043c0-1.592-.985-2.5-2.63-2.5-1.674 0-2.658.908-2.658 2.5v3.043c0 1.591.984 2.498 2.63 2.498 1.673 0 2.658-.907 2.658-2.498v-3.043ZM51.306 113.088h3.91c1.913 0 3.15.934 3.15 3.03 0 1.577-.689 2.498-1.843 2.861l1.913 3.881h-1.35l-1.758-3.698h-2.855v3.698h-1.167v-9.772Zm1.167 5.068h2.714c1.209 0 1.983-.601 1.983-2.038 0-1.425-.787-2.025-1.983-2.025h-2.714v4.063ZM64.82 118.644l-1.87-.349c-1.534-.293-2.448-1.132-2.448-2.597 0-1.801 1.266-2.751 3.488-2.751s3.488.977 3.488 2.946v.126h-1.153v-.126c0-1.285-.816-1.941-2.334-1.941-1.52 0-2.293.572-2.293 1.676 0 .907.591 1.423 1.533 1.605l1.857.349c1.575.293 2.461 1.117 2.461 2.582 0 1.885-1.336 2.835-3.573 2.835-2.222 0-3.558-.991-3.558-2.946v-.125h1.167v.125c0 1.285.872 1.941 2.391 1.941 1.534 0 2.377-.573 2.377-1.759 0-.907-.59-1.409-1.533-1.591ZM77.07 119.719v.042c0 2.066-1.42 3.238-3.7 3.238-2.334 0-3.782-1.256-3.782-3.503v-3.043c0-2.262 1.448-3.505 3.797-3.505 2.264 0 3.685 1.159 3.685 3.225v.056h-1.167v-.056c0-1.396-.957-2.219-2.518-2.219-1.646 0-2.63.908-2.63 2.499v3.044c0 1.591.985 2.498 2.616 2.498 1.575 0 2.532-.824 2.532-2.234v-.042h1.167ZM85.508 118.462H80.5v4.398h-1.168v-9.772h1.168v4.369h5.007v-4.369h1.167v9.772h-1.167v-4.398ZM89.149 113.088h6.358v1.005h-5.19v3.364h4.487v1.006h-4.487v3.392h5.19v1.006h-6.358v-9.773ZM109.915 119.719v.042c0 2.066-1.42 3.238-3.698 3.238-2.335 0-3.784-1.256-3.784-3.503v-3.043c0-2.262 1.449-3.505 3.797-3.505 2.265 0 3.685 1.159 3.685 3.225v.056h-1.167v-.056c0-1.396-.957-2.219-2.518-2.219-1.646 0-2.63.908-2.63 2.499v3.044c0 1.591.985 2.498 2.617 2.498 1.575 0 2.531-.824 2.531-2.234v-.042h1.167ZM119.368 119.496c0 2.247-1.448 3.503-3.825 3.503-2.35 0-3.797-1.256-3.797-3.503v-3.043c0-2.262 1.448-3.505 3.825-3.505 2.35 0 3.797 1.243 3.797 3.505v3.043Zm-1.167-3.043c0-1.592-.985-2.5-2.63-2.5-1.673 0-2.658.908-2.658 2.5v3.043c0 1.591.985 2.498 2.63 2.498 1.673 0 2.658-.907 2.658-2.498v-3.043ZM129.016 115.363l-3.081 5.71-3.066-5.71v7.497h-1.167v-9.772h1.125l3.108 5.78 3.109-5.78h1.125v9.772h-1.153v-7.497ZM132.643 113.088h3.699c1.912 0 3.151.934 3.151 3.03 0 2.107-1.239 3.043-3.151 3.043h-2.532v3.699h-1.167v-9.772Zm1.167 5.068h2.503c1.209 0 1.984-.601 1.984-2.038 0-1.425-.788-2.025-1.984-2.025h-2.503v4.063ZM148.071 122.86h-1.251l-.929-2.513h-4.43l-.929 2.513h-1.153l3.643-9.773h1.42l3.629 9.773Zm-6.301-3.518h3.797l-1.898-5.026-1.899 5.026ZM150.798 115.196v7.664h-1.168v-9.772h1.098l5.077 7.65v-7.65h1.167v9.772h-1.096l-5.078-7.664ZM163.344 122.86h-1.154v-3.742l-3.672-6.031h1.393l2.869 4.873 2.898-4.873h1.321l-3.656 6.031v3.742h.001ZM112.269 84.992V99.83h-6.137V64h6.137v15.72h15.571V64h6.137v35.83h-6.137V84.993h-15.571ZM140.84 64h14.231c7.219 0 11.912 2.818 11.912 10.557 0 7.16-4.641 10.448-11.912 10.448h-8.094V99.83h-6.137V64Zm6.136 15.733h7.889c4.203 0 5.826-1.678 5.826-5.176 0-3.786-1.697-5.179-5.826-5.179l-7.889-.01v10.365Zm-53.8-4.453L83.33 90.853 73.478 75.28v24.55h-6.137V64h5.652l10.334 16.327L93.628 64h5.683v35.83h-6.136V75.28Z" fill="#575756"/></svg>