<svg xmlns="http://www.w3.org/2000/svg" viewBox="0 0 233 233">
  <path fill="#AA0B34" d="M40 120.95a8 8 0 1 1 16 .02 8 8 0 0 1-16-.02"/>
  <path fill="#9C9A9B" d="M61.15 91.97v36.74h6.7V97.56h15.36v31.15h6.73V97.56h10.22c3.45 0 5.88 2.07 5.88 6.56v24.6h6.72v-26.46c0-5-2.58-10.3-9.23-10.3H61.15ZM126.18 91.97c-7.24 0-9.43 4.8-9.43 10.2 0 5.75 2.38 10.6 8.97 10.6h15.96c4.9 0 4.9 3.75 4.9 5.47 0 1.59 0 4.87-4.77 4.87h-24.44v5.6h27.25c6.78 0 8.73-3.99 8.73-10.43 0-7.66-2.51-11.1-8.3-11.1H127.8c-4.34 0-4.34-2.94-4.34-4.9 0-1.53.44-4.72 5.1-4.72h23.54v-5.6h-25.92Z"/>
  <path fill="#9C9A9B" fill-rule="evenodd" d="M193.57 91.97v40.01c0 5.25-2.01 8.02-8.25 8.02H162.2v-5.88h20.97c3.18 0 3.71-1.22 3.72-3.98v-1.43H170.8c-6.36 0-8.41-1.02-9.67-1.9-1.85-1.56-3.66-3.39-3.66-9.92v-13.26c.03-6.17 1.67-7.97 3.46-9.4 1.64-1.3 3.87-2.26 9.84-2.26h22.8Zm-6.69 5.59v25.55h-14.06c-4.16.03-8.38.31-8.49-5.07 0-.23-.02-2.21 0-7.97.02-4.89-.03-6.05 0-6.55.22-4.52 1.9-6.13 8.78-5.96h13.77" clip-rule="evenodd"/>
</svg>
