<svg xmlns="http://www.w3.org/2000/svg" width="795" height="795" fill="none">
  <path fill="#3947A4" d="m127 478.4-17.3-17.6 11-9.8 18 18.4a33.8 33.8 0 0 0 7.5-21.7 33 33 0 0 0-33.4-33.7 33 33 0 0 0-33.3 33.7 33 33 0 0 0 33.3 33.8c5.2 0 9.9-1 14.2-3.1Zm22.3 1.9 10 10.2-11 9.8-10.3-10.6a48.7 48.7 0 0 1-74-42c0-27.3 22-48.8 48.8-48.8 27 0 48.9 21.5 48.9 48.8 0 12.7-4.7 24.1-12.4 32.6ZM235.2 427.5v67.3h-14.5v-8.6c-4.5 7-11.8 10.4-20.9 10.4-15 0-25.8-10.3-25.8-27.7v-41.4h14.5v39.9c0 10.2 6 15.6 15 15.6 9.6 0 17.2-5.7 17.2-19.4v-36h14.5ZM303.6 461.2c0-12.5-9.1-21.5-21.2-21.5s-21.3 9-21.3 21.5 9.2 21.5 21.3 21.5c12 0 21.2-9 21.2-21.5Zm14.5-33.7v67.3h-14.5v-9.7a27.6 27.6 0 0 1-23.5 11.5 34.4 34.4 0 0 1-33.5-35.4c0-20 15.2-35.4 33.5-35.4 10.5 0 18.4 4.3 23.5 11.3v-9.6h14.5ZM368.7 426.3v15.8c-9.6-.7-20.7 3.7-20.7 18.8v34h-14.6v-67.4H348v11.3c4-9.1 12.2-12.5 20.7-12.5ZM391.3 441.5v32.3c0 8.6 5.6 8.5 16.7 8v13c-22.4 2.7-31.2-3.5-31.2-21V413l14.5-4.3v18.8H408v14h-16.7ZM418.3 427.5H433v67.3h-14.6v-67.3Zm-2-19.3a9.3 9.3 0 0 1 18.6 0c0 5-4.2 9.3-9.3 9.3a9.4 9.4 0 0 1-9.3-9.3ZM443.7 461.2c0-20 15.2-35.4 35.6-35.4 13.2 0 24.6 6.9 30 17.4l-12.5 7.2c-3-6.3-9.6-10.3-17.7-10.3-11.8 0-20.8 9-20.8 21 0 12.2 9 21.2 20.8 21.2 8.1 0 14.7-4.2 18-10.4l12.4 7.2a33.8 33.8 0 0 1-30.2 17.5 34.8 34.8 0 0 1-35.6-35.4ZM519 396.6h14.5v98.2H519v-98.2ZM599.5 455.5a18.7 18.7 0 0 0-19.3-16.5 19.6 19.6 0 0 0-20.3 16.5h39.6Zm-18 27.7c8.2 0 14.2-3.6 17.4-8.3l12 7a34 34 0 0 1-29.5 14.7c-22.2 0-36.5-15.2-36.5-35.4 0-20 14.3-35.4 35.5-35.4 20 0 33.7 16.1 33.7 35.5 0 2-.2 4.2-.5 6h-53.5c2.2 10.6 10.7 16 21.5 16Z"/>
  <path fill="url(#a)" d="M673 427.5a5 5 0 0 1-2.4-.6l-11-6.4a5 5 0 1 1 5-8.7l8.5 4.9 43.8-25.3-16.9-9.8-51.4 29.7a5 5 0 0 1-5 0l-27-15.5a5 5 0 0 1 0-8.8l11-6.3a5 5 0 1 1 5 8.7l-3.3 2L646 401l51.4-29.6a5 5 0 0 1 5 0l27 15.5a5 5 0 0 1 0 8.8l-53.9 31a5 5 0 0 1-2.5.7Z"/>
  <path fill="url(#b)" d="M646.1 380.9a5 5 0 0 1-2.5-.7l-27-15.6a5 5 0 0 1 0-8.7l11-6.3a5 5 0 0 1 5 8.7l-3.3 2L646 370l51.4-29.6a5 5 0 0 1 5 0l27 15.5a5 5 0 0 1 0 8.7l-11 6.4a5 5 0 1 1-5-8.7l3.4-2-16.9-9.8-51.4 29.7a5 5 0 0 1-2.5.7Z"/>
  <path fill="url(#c)" d="M646.1 349.7a5 5 0 0 1-2.5-.6l-27-15.6a5 5 0 0 1 0-8.7l54-31.1a5 5 0 0 1 5 0l11 6.3a5 5 0 1 1-5 8.7L673 304l-43.8 25.3 16.8 9.7 51.4-29.7a5 5 0 0 1 5 0l27 15.6a5 5 0 0 1 0 8.7l-11 6.4a5 5 0 1 1-5-8.8l3.4-2-16.9-9.7-51.4 29.7a5 5 0 0 1-2.5.6Z"/>
  <defs>
    <linearGradient id="a" x1="644.6" x2="706.8" y1="374.8" y2="411.1" gradientUnits="userSpaceOnUse">
      <stop stop-color="#445DB4"/>
      <stop offset="1" stop-color="#3947A4"/>
      <stop offset="1" stop-color="#3947A4"/>
    </linearGradient>
    <linearGradient id="b" x1="645.6" x2="696" y1="340.5" y2="376.8" gradientUnits="userSpaceOnUse">
      <stop stop-color="#4995D7"/>
      <stop offset="1" stop-color="#445DB4"/>
    </linearGradient>
    <linearGradient id="c" x1="646.6" x2="706.3" y1="312" y2="350.7" gradientUnits="userSpaceOnUse">
      <stop stop-color="#56C6B8"/>
      <stop offset="1" stop-color="#4995D7"/>
    </linearGradient>
  </defs>
</svg>
