<svg xmlns="http://www.w3.org/2000/svg" xml:space="preserve" id="Layer_1" x="0" y="0" version="1.1" viewBox="0 0 680.3 680.3">
  <style>
    .st0,.st1{fill:#43474b}.st1{fill-rule:evenodd;clip-rule:evenodd}
  </style>
  <path d="M384.3 333.7v-21.3a26 26 0 0 0-25.6-26.1 25.9 25.9 0 0 0-25.6 26.1v31.3a25.9 25.9 0 0 0 25.6 26.1 25.8 25.8 0 0 0 25.5-24H371c-1 6.1-6.1 10.9-12.3 10.9-6.8 0-12.4-5.8-12.4-12.9v-9.9h38zm-38-21.3c0-7.1 5.6-12.9 12.4-12.9 6.8 0 12.4 5.8 12.4 12.9v10.1h-24.9v-10.1z" class="st0"/>
  <path d="M301.8 280.5c0-9.6 7.9-17.5 17.5-17.5h9v12.2H320c-3.3 0-5.1 2.3-5.1 5.3v5.8h13.3v11.2h-13.3v71h-13.2v-71h-11.3v-11.2h11.3v-5.8h.1z" class="st1"/>
  <path d="M258.7 286.3a26 26 0 0 0-25.6 24.8h13.2c.6-6.5 5.9-11.7 12.4-11.7 6.8 0 12.4 5.8 12.4 12.9v10.4h-16.9c-11.5 0-20.9 10.5-20.9 23.5s9.3 23.5 20.9 23.5a20 20 0 0 0 16.9-9.8v8.5h13.2v-56.1c0-14.3-11.5-26-25.6-26zm12.3 59.9c0 6.5-5.2 11.7-11.7 11.7-6.5 0-11.7-5.2-11.7-11.7 0-6.5 5.2-11.7 11.7-11.7H271v11.7z" class="st0"/>
  <path d="M448.5 263.1h13.2v105.4h-13.2V263.1zM393.2 263.1h48v11.2h-34.9v37h23.6v11.2h-23.6v46h-13.1V263.1zM624.4 355.3h-.7c-6.7 0-12.2-5.5-12.2-12.2v-46.3h12.9v-11.2h-12.9V263h-13.2v22.6h-11.7v11.2h11.7v46.3a25.4 25.4 0 0 0 25.3 25.3h.7v-13.1h.1z" class="st1"/>
  <path d="M633.1 247.6h4.8c2.8 0 4.7 1.8 4.7 4.6 0 2.3-1.3 4-3.4 4.5l4.5 5.7h-2l-4.4-5.6h-2.8v5.6H633v-14.8zm4.9 7.8c1.9 0 3.1-1.3 3.1-3.1 0-1.9-1.2-3.1-3.1-3.1h-3.3v6.3h3.3z" class="st0"/>
  <path d="M637.5 242a13.3 13.3 0 1 0 0 26.6 13.3 13.3 0 0 0 0-26.6zm0 25.3a12 12 0 0 1-12-12 12 12 0 0 1 12-12 12 12 0 1 1 0 24zM140.5 311.1c-2.5-2-6.4-1.9-10.5-.1v10.3h12.7c1-4.4.3-8.1-2.2-10.2zM110.7 344.4c-3.7-3-3.7-9.5-.7-16.6h-2.6c-3.6 8.1-3.7 15.6.3 18.9 3.6 2.9 9.5 2.1 15.9-1.6V344c-5.2 2.6-9.9 2.9-12.9.4z" class="st0"/>
  <path d="M114.5 342.8c2.2 1.8 5.4 1.9 9 .7v-15.7H114c-2.8 6.3-2.8 12.3.5 15zM189.8 395.8l-7.9-16.2h2.5l6.7 13.7 6.7-13.7h2.5l-11.3 23h-2.5l3.3-6.8zM198.5 395.5c0-4 3.3-7.3 7.3-7.3a7.3 7.3 0 0 1 0 14.7c-4 0-7.3-3.5-7.3-7.4zm2.3 0c0 2.8 2.2 5.3 5.1 5.3 2.9 0 5.1-2.5 5.1-5.3a5 5 0 0 0-5.1-5.2 5 5 0 0 0-5.1 5.2zM228.8 402.5h-2.2v-1.7a6 6 0 0 1-4.6 1.9c-4.1 0-5.8-1.8-5.8-6.3v-8.1h2.2v8.1c0 2.8 1.3 4.2 3.6 4.2 2.9 0 4.6-1.6 4.6-4.7v-7.5h2.2v14.1zM241.9 395.5c0-4 3.3-7.3 7.3-7.3 2.2 0 4.1 1 5.3 2.5v-2.3h2.2v14.2h-2.2v-2.3a6.8 6.8 0 0 1-5.3 2.6c-4 0-7.3-3.5-7.3-7.4zm12.5 0c0-2.9-2.5-5.2-5.3-5.2-2.9 0-5 2.3-5 5.2 0 2.8 2.2 5.3 5 5.3 2.8-.1 5.3-2.5 5.3-5.3zM263.4 390.3a6.4 6.4 0 0 1 4.8-2.2v2.1c-2.5 0-4.8 1.5-4.8 4.4v7.8h-2.2v-14.2h2.2v2.1zM284.6 396.5h-12.3c.5 2.3 2.5 4.3 5 4.3 1.6 0 3-.8 3.9-2h2.7a7.4 7.4 0 0 1-6.6 4.1 7.3 7.3 0 0 1 0-14.7c4 0 7.3 3.3 7.3 7.3v1zm-12.3-2.1h10a5.2 5.2 0 0 0-5-4.2 5.3 5.3 0 0 0-5 4.2zM296.5 395.5c0-4 3.3-7.3 7.3-7.3a7.3 7.3 0 0 1 0 14.7c-4 0-7.3-3.5-7.3-7.4zm2.2 0c0 2.8 2.2 5.3 5.1 5.3s5.1-2.5 5.1-5.3c0-2.9-2.2-5.2-5.1-5.2s-5.1 2.3-5.1 5.2zM314.5 388.4h2.2v1.7a6 6 0 0 1 4.6-1.9c4.1 0 5.8 1.8 5.8 6.3v8.1H325v-8.1c0-2.8-1.3-4.2-3.6-4.2-2.9-.1-4.6 1.5-4.6 4.7v7.5h-2.2v-14.1zM344 390.3v12.2h-2.2v-12.2h-2.1v-2h2.1v-5.6h2.2v5.6h3.2v2H344zM350 378.3h2.2v11.8a6 6 0 0 1 4.6-1.9c4.1 0 5.8 1.8 5.8 6.3v8.1h-2.2v-8.1c0-2.8-1.3-4.2-3.6-4.2-2.9 0-4.6 1.6-4.6 4.7v7.5H350v-24.2zM380.3 396.5H368c.5 2.3 2.5 4.3 5 4.3 1.6 0 3-.8 3.9-2h2.7a7.4 7.4 0 0 1-6.6 4.1 7.3 7.3 0 0 1 0-14.7c4 0 7.3 3.3 7.3 7.3v1zm-12.3-2.1h10a5.2 5.2 0 0 0-5-4.2 5.3 5.3 0 0 0-5 4.2zM400.8 391.8c-.2-1-1.3-1.7-2.9-1.7-1.7 0-2.9.8-2.9 1.9 0 1.1.9 1.7 3.2 2.1 3.6.7 5.1 2 5.1 4.3 0 2.5-1.9 4.2-5.4 4.2-3.2 0-5.3-1.8-5.4-4.2h2c.2 1.2 1.6 2.2 3.5 2.2 2.1 0 3.5-.9 3.5-2.2 0-1.4-.9-1.8-3.5-2.3-3.4-.7-4.9-1.9-4.9-4.2 0-2.2 1.7-3.9 4.9-3.9 2.8 0 4.7 1.5 4.9 3.7h-2.1zM405.7 395.5c0-4 3.3-7.3 7.3-7.3 2.2 0 4.1 1 5.3 2.5v-2.3h2.2v14.2h-2.2v-2.3a6.8 6.8 0 0 1-5.3 2.6c-4 0-7.3-3.5-7.3-7.4zm12.5 0c0-2.9-2.5-5.2-5.3-5.2-2.9 0-5 2.3-5 5.2 0 2.8 2.2 5.3 5 5.3a5.5 5.5 0 0 0 5.3-5.3zM426 402.5v-12.2h-1.9v-2h1.9v-1.9c0-3.5.1-7.6 5.2-6.9v2c-3.3-.4-3 2.8-3 4.9v1.9h2.9v2h-2.9v12.2H426zM447.9 396.5h-12.3c.5 2.3 2.5 4.3 5 4.3 1.6 0 3-.8 3.9-2h2.7a7.4 7.4 0 0 1-6.6 4.1 7.3 7.3 0 0 1 0-14.7c4 0 7.3 3.3 7.3 7.3v1zm-12.3-2.1h10a5.2 5.2 0 0 0-5-4.2 5.3 5.3 0 0 0-5 4.2zM468.3 391.8c-.2-1-1.3-1.7-2.9-1.7-1.7 0-2.9.8-2.9 1.9 0 1.1.9 1.7 3.2 2.1 3.6.7 5.1 2 5.1 4.3 0 2.5-1.9 4.2-5.4 4.2-3.2 0-5.3-1.8-5.4-4.2h2c.2 1.2 1.6 2.2 3.5 2.2 2.1 0 3.5-.9 3.5-2.2 0-1.4-.9-1.8-3.5-2.3-3.4-.7-4.9-1.9-4.9-4.2 0-2.2 1.7-3.9 4.9-3.9 2.8 0 4.7 1.5 4.9 3.7h-2.1zM474.1 383.9c0-.8.7-1.5 1.5-1.5s1.5.7 1.5 1.5c0 .9-.7 1.5-1.5 1.5-.9.1-1.5-.6-1.5-1.5zm.4 4.5h2.3v14.2h-2.3v-14.2zM493 400.3a6.8 6.8 0 0 1-5.3 2.6 7.3 7.3 0 0 1 0-14.7c2.2 0 4.1 1 5.3 2.5v-11.1h2.2v23H493v-2.3zm-.1-4.8c0-2.9-2.5-5.2-5.3-5.2-2.9 0-5 2.3-5 5.2 0 2.8 2.2 5.3 5 5.3 2.8-.1 5.3-2.5 5.3-5.3zM513.1 396.5h-12.3c.5 2.3 2.5 4.3 5 4.3 1.6 0 3-.8 3.9-2h2.7a7.4 7.4 0 0 1-6.6 4.1 7.3 7.3 0 0 1 0-14.7c4 0 7.3 3.3 7.3 7.3v1zm-12.4-2.1h10a5.2 5.2 0 0 0-5-4.2 5.3 5.3 0 0 0-5 4.2zM541.8 402.5h-2.3l-4.1-11.1-4.1 11.1H529l-5.2-14.2h2.3l4.1 11.1 4.1-11.1h2.3l4.1 11.1 4.1-11.1h2.3l-5.3 14.2zM549 383.9c0-.8.7-1.5 1.5-1.5s1.5.7 1.5 1.5c0 .9-.7 1.5-1.5 1.5-.8.1-1.5-.6-1.5-1.5zm.4 4.5h2.3v14.2h-2.3v-14.2zM559.2 390.3v12.2H557v-12.2h-2.1v-2h2.1v-5.6h2.2v5.6h3.2v2h-3.2zM565.3 378.3h2.2v11.8a6 6 0 0 1 4.6-1.9c4.1 0 5.8 1.8 5.8 6.3v8.1h-2.2v-8.1c0-2.8-1.3-4.2-3.6-4.2-2.9 0-4.6 1.6-4.6 4.7v7.5h-2.2v-24.2zM604 402.5h-2.2v-1.7a6 6 0 0 1-4.6 1.9c-4.1 0-5.8-1.8-5.8-6.3v-8.1h2.2v8.1c0 2.8 1.3 4.2 3.6 4.2 2.9 0 4.6-1.6 4.6-4.7v-7.5h2.2v14.1zM615.9 391.8c-.2-1-1.3-1.7-2.9-1.7-1.7 0-2.9.8-2.9 1.9 0 1.1.9 1.7 3.2 2.1 3.6.7 5.1 2 5.1 4.3 0 2.5-1.9 4.2-5.4 4.2-3.2 0-5.3-1.8-5.4-4.2h2c.2 1.2 1.6 2.2 3.5 2.2 2.1 0 3.5-.9 3.5-2.2 0-1.4-.9-1.8-3.5-2.3-3.4-.7-4.9-1.9-4.9-4.2 0-2.2 1.7-3.9 4.9-3.9 2.8 0 4.7 1.5 4.9 3.7h-2.1zM621.3 400.9c0-1 .8-1.8 1.8-1.8s1.8.8 1.8 1.8-.8 1.8-1.8 1.8-1.8-.8-1.8-1.8zm.7-21.4h2.2v17.1H622v-17.1z" class="st0"/>
  <path fill="none" d="M-29.8 198.4h739.9v283.5H-29.8z"/>
  <path d="M198.3 321.2c18.8 15.3 16 25 16 25 0 3.2-3.3 10.3-11.4 10.3a11 11 0 0 1-11.4-10.3h-13.2a22.3 22.3 0 0 0 7.3 16.7 25.7 25.7 0 0 0 34.6.1l2.1-2.2c5.6-6.6 5.3-14.6 5.3-14.6.8-16.1-9.9-25.3-20.4-34.8-18.8-15.3-16-25-16-25 0-3.2 3.3-10.3 11.4-10.3a11 11 0 0 1 11.4 10.3h13.2a22.3 22.3 0 0 0-7.3-16.7 25.7 25.7 0 0 0-34.6-.1l-2.1 2.2c-5.6 6.6-5.3 14.6-5.3 14.6-.7 16 9.9 25.3 20.4 34.8z" class="st1"/>
  <g>
    <path fill="#da2128" d="m60.2 308.4 2.9 2.7a96.3 96.3 0 0 0-3 6.6 9.3 9.3 0 0 0 4.6 2.9l2.9-6.4c1 .6 2.1 1.2 3.3 1.7l-2.3 5.1h5.3l1.6-3.3 3.5 1.1-1 2.2h5l.5-1.1 3.6.7-.2.4h36.6v-6.1l-.6.5-.6-4.2 1.2-.9v-3l-1.7 1.3-.8-3.8 2.4-1.8v-3.7l-3.2 2.3-1-3.6 4.2-3v-4.2a57.7 57.7 0 0 0-5.4 3.7l-1.3-3.4c2.2-1.7 4.4-3.2 6.6-4.5v-5a66 66 0 0 0-8.4 5.4l-1.6-3.2c3.4-2.5 6.7-4.7 10-6.4v-5.1c-4 1.9-8.1 4.4-12.3 7.4l-2-3a76 76 0 0 1 14.3-8.7v-3.2l-.2-2a83.2 83.2 0 0 0-17.1 10l-2.5-2.8a88 88 0 0 1 18-11 10.5 10.5 0 0 0-4.6-3.7 99.7 99.7 0 0 0-17.5 10.9l-3.1-2.3a101 101 0 0 1 13.4-9.3H67.3c-5.5 0-10.1 4.5-10.1 10.1v46l.3 2.4c1-1.5 1.8-3.1 2.7-4.7z"/>
    <path d="M103.9 348.1c-4.4-3.6-4.3-11.6-.4-20.6h-3.3c-4.2 9.9-4.4 18.7.4 22.6 4.7 3.8 12.9 2.2 21.4-3.4-10 7.1-19.8 9.5-25.1 5.1-5.2-4.2-5-13.7-.5-24.3h-3.8c-4.7 11.5-4.8 21.6.9 26.2 5.1 4.2 13.9 2.9 23.2-2.6-10.9 7-21.2 9-27 4.2-5.9-4.9-5.9-15.6-.9-27.9h-4.7c-4.9 12.9-4.7 24.3 1.8 29.5 5.7 4.7 15 3.7 25.2-1.6-11.7 6.8-22.6 8.5-29 3.2-6.8-5.5-7-17.5-1.8-31.1h-4.8c-5 14.3-4.4 26.8 2.9 32.8 5.6 4.6 14.2 4.6 23.7.9-11.2 5.2-21.4 5.8-27.8.5-7.6-6.2-8.1-19.3-2.8-34.3h-3.8l-1.3.1c-5 15.6-3.9 29.2 4.3 35.9 5.7 4.7 13.9 5.3 23.2 2.6-11.1 4.1-20.9 4-27.5-1.4-8.1-6.6-9.3-19.8-4.7-35.2-2.4 1.8-4 4.8-4 8v23a22 22 0 0 0 4.8 5.7c6.6 5.4 16 6.2 26.7 3.1-2.5.9-4.9 1.6-7.2 2.1h31.7c5.5 0 10.1-4.5 10.1-10.1v-16.5c-8.1 5.5-15.6 7-19.9 3.5zM126.8 320.8a3.4 3.4 0 0 0-3.4 3.4c0 1.9 1.5 3.4 3.4 3.4s3.4-1.5 3.4-3.4c0-1.8-1.6-3.4-3.4-3.4zM175.9 286.5c0-.2-.3-8.5 5.7-15.4l1.6-1.7V265c0-5.5-4.5-10.1-10.1-10.1h-15c4.3 6.3 5.5 15.3 3.9 25.6.9-11-1.7-20.2-8.3-25.6l-.1-.1h-12.7a20 20 0 0 1 12 4.2c6.5 5.3 8.6 15 6.7 26.7.8-9.6-1.4-17.6-7.1-22.2-5.3-4.3-12.8-5.2-21.4-3.1a10 10 0 0 0-1.1 4.6v.6c8.7-2.7 16.3-2.3 21.5 1.9 6.4 5.2 7.8 15.3 4.9 27.4 1.8-10.1.1-18.5-5.5-23.1-5-4.1-12.5-4.6-20.9-1.9v4.8c8.1-2.9 15.2-2.8 19.9 1.1 6.4 5.3 6.9 16.3 2.5 29.1 3.2-11 2.4-20.3-3.3-25-4.5-3.7-11.4-3.8-19.1-1v4.7c7.4-3 14-3.1 18.2.4 5.9 4.8 5.9 15.3 1.1 27.3 3.6-10.2 3.2-19.1-2-23.3-4-3.3-10.3-3.2-17.4-.3v4c6.6-2.8 12.4-3 16.2.1 5.4 4.4 5 14.5-.1 25.6 3.8-9.5 3.8-17.8-.9-21.6-3.5-2.9-9.1-2.7-15.2 0v3.6c5.6-2.5 10.7-2.6 13.9 0 4.6 3.7 4.3 12.2 0 21.4 3-7.6 2.9-14.3-.9-17.4-3-2.5-7.8-2.2-13 .1v3c4.5-1.9 8.7-1.9 11.3.3 3.3 2.7 3.7 8.1 1.6 14.3h30c5.4 0 9.9-4.3 10.1-9.7v-2.7a33.7 33.7 0 0 1-7-22.2zM176.2 348.3v-3.8h7v-6.9c0-5.5-4.5-10.1-10.1-10.1h-43v33.9c0 5.5 4.5 10.1 10.1 10.1h32.9c5.1 0 9.3-2.9 10-7.8l-1.6-1.9c-3.3-3.9-5-8.6-5.3-13.5z" class="st0"/>
  </g>
  <path d="M520.9 333.7v-21.3a26 26 0 0 0-25.6-26.1 25.9 25.9 0 0 0-25.6 26.1v31.3a25.9 25.9 0 0 0 25.6 26.1 25.8 25.8 0 0 0 25.5-24h-13.2c-1 6.1-6.1 10.9-12.3 10.9-6.8 0-12.4-5.8-12.4-12.9v-9.9h38zm-38-21.3c0-7.1 5.6-12.9 12.4-12.9 6.8 0 12.4 5.8 12.4 12.9v10.1h-24.9v-10.1zM582.4 333.7v-21.3a26 26 0 0 0-25.6-26.1 25.9 25.9 0 0 0-25.6 26.1v31.3a25.9 25.9 0 0 0 25.6 26.1 25.8 25.8 0 0 0 25.5-24h-13.2c-1 6.1-6.1 10.9-12.3 10.9-6.8 0-12.4-5.8-12.4-12.9v-9.9h38zm-38-21.3c0-7.1 5.6-12.9 12.4-12.9 6.8 0 12.4 5.8 12.4 12.9v10.1h-24.9v-10.1z" class="st0"/>
</svg>
