<svg xmlns="http://www.w3.org/2000/svg" xmlns:xlink="http://www.w3.org/1999/xlink" width="233" height="233">
  <defs>
    <path id="a" d="M0 39.62h189.65V0H0z"/>
  </defs>
  <g fill="none" fill-rule="evenodd" transform="translate(20.69 101.26)">
    <path fill="#372B85"
          d="M74.25 11.28c-1.77 0-3.09.76-3.9 1.94V11.6h-3.88v13.31h3.87V16.5a2.74 2.74 0 0 1 2.5-1.78c1.37 0 2.3.76 2.3 2.6v7.6H79v-8.36c0-3.6-2-5.28-4.75-5.28"/>
    <mask id="b" fill="#fff">
      <use xlink:href="#a"/>
    </mask>
    <path fill="#372B85"
          d="M82.38 24.92h3.87V11.61h-3.87zM99.4 24.92h3.87V11.61H99.4zM119.04 17.8c-.13-4-2.72-6.52-6.4-6.52-3.57 0-6.68 2.56-6.68 6.92 0 4.62 3.28 7.05 6.95 7.05 2.92 0 4.92-1.15 6-3.05l-2.62-1.77a3.58 3.58 0 0 1-3.18 1.8c-1.77 0-3.18-1.14-3.31-3.05h9.28c-.04-.22-.04-.59-.04-1.37Zm-9.18-1.1c.13-1.68 1.38-2.47 2.69-2.47s2.56.79 2.62 2.46h-5.3ZM130.26 12.43a5.3 5.3 0 0 0-3.38-1.12c-3.11 0-6 2.33-6 6.92 0 4.6 2.92 6.92 6.03 6.92 1.51 0 2.76-.65 3.61-1.5v1.27h3.58V5.71h-3.87l.03 6.72Zm0 6.6c-.03 1.7-1.21 2.68-2.66 2.68-1.5 0-2.82-1.08-2.82-3.5 0-2.4 1.31-3.49 2.82-3.49 1.51 0 2.63 1.05 2.66 2.66v1.64ZM150.95 18.23c0-4.59-2.85-6.92-6.03-6.92-1.58 0-2.82.63-3.64 1.58V11.6h-3.58V30h3.87v-6.14c.86.76 2 1.25 3.38 1.25 3.05.03 6-2.3 6-6.89m-6.72 3.48a2.6 2.6 0 0 1-2.69-2.69v-1.67a2.6 2.6 0 0 1 2.69-2.66c1.47 0 2.82 1.08 2.82 3.51-.03 2.46-1.35 3.51-2.82 3.51M159.64 11.25c-3.44 0-6.85 2.43-6.85 6.92 0 4.59 3.28 7.05 6.85 7.05 3.48 0 6.86-2.5 6.86-7.05.03-4.5-3.25-6.92-6.86-6.92m0 10.6c-1.54 0-2.95-1.26-2.95-3.65 0-2.36 1.38-3.54 2.95-3.54 1.54 0 2.95 1.21 2.95 3.54 0 2.4-1.34 3.64-2.95 3.64M179.55 20.92c0-2.75-2.13-3.83-4.76-4.23-1.67-.23-2.69-.46-2.69-1.34 0-.79.73-1.28 1.87-1.28 1.18 0 1.94.5 2.23 1.6l3.28-.81c-.59-2.07-2.26-3.58-5.47-3.58-3.25 0-5.61 1.67-5.61 4.26 0 2.56 1.87 3.61 4.59 4.1 1.64.27 2.75.63 2.75 1.51 0 .85-.88 1.25-1.96 1.25-1.38 0-2.23-.69-2.66-2l-3.28.95c.66 2.56 2.69 3.9 5.9 3.9 3.45-.03 5.8-1.74 5.8-4.33M149.34 32.6h.86c-.1.36-.46.59-.92.59-.56 0-1.02-.43-1.02-1.22 0-.75.46-1.18 1.02-1.18.5 0 .82.3.92.63l.75-.23c-.23-.72-.85-1.15-1.7-1.15-.99 0-1.84.72-1.84 1.93 0 1.25.85 1.94 1.84 1.94.88 0 1.77-.56 1.77-1.8v-.2h-1.68v.69ZM158.56 31.94c.2-.2.3-.46.3-.75 0-.66-.53-1.09-1.19-1.09h-1.63v3.78h.78V32.3h.46l.85 1.58h.92l-.95-1.68c.2-.06.33-.16.46-.26m-.98-.33h-.73v-.78h.73c.26 0 .46.16.46.39-.04.23-.2.4-.46.4M165.61 30.04c-.98 0-1.87.72-1.87 1.93 0 1.25.85 1.94 1.87 1.94.98 0 1.84-.69 1.84-1.94 0-1.24-.86-1.93-1.84-1.93m0 3.11c-.56 0-1.02-.42-1.02-1.18 0-.75.46-1.18 1.02-1.18s1.02.46 1.02 1.18c0 .76-.46 1.18-1.02 1.18M174.66 32.4c0 .5-.26.79-.72.79-.43 0-.72-.3-.72-.79v-2.3h-.79v2.33c0 1.02.6 1.51 1.51 1.51.92 0 1.54-.49 1.54-1.5V30.1h-.82v2.3ZM182.14 30.1h-1.51v3.78h.79V32.4h.69c.65 0 1.21-.4 1.21-1.15 0-.75-.5-1.14-1.18-1.14m-.1 1.54h-.62v-.86h.62c.26 0 .46.17.46.43s-.16.43-.46.43M59.1 19.58c0 1.47-.86 2.4-2.3 2.4-1.41 0-2.33-1.06-2.33-2.66v-7.74H50.6v7.97c0 1.83.5 3.18 1.48 4.1 1.08 1.01 2.75 1.54 4.72 1.54 1.84 0 3.44-.53 4.56-1.45 1.15-.98 1.57-2.13 1.57-4.2v-7.96h-3.87l.04 8ZM90.58 10.89v.72H88.6v3.18h1.97v10.13h3.83V14.8h2.9v-3.18h-2.9v-.72c0-1.18.53-1.84 1.84-1.84h1.05V5.51h-1.05c-3.84 0-5.67 1.64-5.67 5.38M99.4 9.05h3.93V5.51H99.4zM82.28 9.05h3.94V5.51h-3.94zM189.16 24.56v-3.08h-1.05c-1.31 0-1.8-.66-1.8-1.8v-4.89h3.34v-3.18h-3.31V8.03h-3.74v3.58h-1.94v3.18h1.9v4.89c0 3.08 1.28 4.69 3.94 5.11a5.74 5.74 0 0 0 2.66-.23M7.6 39.62 0 26.43V6.03L14.36 0l12 4.23 5.48 9.51-6.52 18.43L7.6 39.62ZM1.98 25.9l6.5 11.21 15.3-6.42 5.94-16.76-4.66-8.07-10.59-3.74L2 7.35 1.97 25.9Z"
          mask="url(#b)"/>
  </g>
</svg>
