<svg xmlns="http://www.w3.org/2000/svg" width="310" height="310">
  <g fill="none" fill-rule="evenodd">
    <path fill="#D91C52" d="M88.211 154.275c-8.608-9.793-23.71-16.688-37.398-17.846l23.603 35.99L30.732 140.4c-7.616 5.29-7.86 14.885.577 24.481 11.03 12.54 32.708 20.33 48.42 17.396 15.717-2.929 19.513-15.466 8.482-28.002"/>
    <path fill="#323232" d="M275.66 139.677a4.472 4.472 0 0 1-4.482-4.462c0-2.45 1.995-4.43 4.482-4.43 2.439 0 4.453 1.98 4.453 4.43 0 2.452-2.014 4.462-4.453 4.462Zm0-9.922c-3.068 0-5.519 2.425-5.519 5.46a5.489 5.489 0 0 0 5.519 5.492 5.475 5.475 0 0 0 5.485-5.492c0-3.035-2.44-5.46-5.485-5.46Zm-.05 5.094h-.649v-1.775h.648c.46 0 .759.236.759.836 0 .412-.176.94-.759.94Zm.918.425v-.026c.95-.15 1.29-.75 1.29-1.56 0-1.085-.635-1.671-1.626-1.671h-2.677v6.357h1.446v-2.63h.373c1.121 0 1.007.649 1.007 1.395 0 .425 0 .855.187 1.235h1.427c-.137-.266-.163-1.453-.163-1.865 0-1.145-.956-1.216-1.264-1.235Zm-93.955 20.152c-2.246-3.849-4.794-8.216-2.418-13.899.809-1.942 2.007-3.836 3.568-4.925h-10.864s-.785 1.468-1.145 2.325c-3.784 9.078-.215 15.701 3.233 22.106 2.87 5.323 5.837 10.824 3.32 16.843-.738 1.771-2.1 3.328-3.34 4.303h10.945s.604-1.172.865-1.793c3.662-8.757 1.717-14.903-3.182-23.245-.314-.572-.657-1.149-.982-1.715Zm38.194-18.824-3.65 26.91h-.122l-4.448-26.91h-11.95l-4.023 45.6h9.756l1.338-32.838h.116v.844l1.528 10.159 4.45 21.835h7.005l3.903-21.592 1.465-11.246h.12l2.199 32.838h9.325l-4.818-45.6h-12.194Zm-68.647 45.6h9.085v-45.6h-9.085v45.6Zm-21.874-23.83c-.73 2.66-.92 5.264-1.403 7.925h-.12c-.552-2.604-.854-5.203-1.646-7.802l-5.488-21.893h-9.748l13.283 45.6h7.44l12.733-45.6h-9.509l-5.542 21.77Zm125.445-21.77-12.737 45.6h9.505l5.549-21.774c.73-2.66.914-5.26 1.397-7.92h.122c.554 2.599.857 5.201 1.65 7.8l5.481 21.894h9.756l-13.29-45.6h-7.433Z"/>
  </g>
</svg>
