<svg width="186" height="186" fill="none" xmlns="http://www.w3.org/2000/svg"><mask id="a" style="mask-type:alpha" maskUnits="userSpaceOnUse" x="102" y="77" width="10" height="10"><path d="M102.592 77.33h9.09v8.838h-9.09V77.33Z" fill="#fff"/></mask><g mask="url(#a)"><path fill-rule="evenodd" clip-rule="evenodd" d="M111.336 80.014c-.228-.534-.544-1-.944-1.396a4.48 4.48 0 0 0-1.435-.941 4.66 4.66 0 0 0-1.809-.347c-.65 0-1.255.116-1.808.347a4.508 4.508 0 0 0-1.445.946c-.41.4-.729.872-.961 1.41a4.399 4.399 0 0 0-.342 1.718v.023c0 .607.116 1.179.342 1.713.232.534.546.999.949 1.395.4.398.879.711 1.432.942.557.23 1.159.344 1.808.344.653 0 1.256-.114 1.809-.344a4.468 4.468 0 0 0 1.446-.947c.411-.4.73-.87.958-1.408a4.344 4.344 0 0 0 .346-1.718v-.024c0-.607-.117-1.179-.346-1.713Z" fill="#0089CC"/></g><path fill-rule="evenodd" clip-rule="evenodd" d="M109.521 88.323h-9.22a.342.342 0 0 0-.325.23l-4.417 12.396-4.414-12.396a.35.35 0 0 0-.327-.23h-5.39a.35.35 0 0 0-.289.153.36.36 0 0 0-.034.324l7.762 19.498c.054.132.179.22.32.22h4.63c.14 0 .268-.088.322-.22l6.104-15.335.103.02v15.187c0 .192.154.348.346.348h4.829a.347.347 0 0 0 .346-.348V88.671a.346.346 0 0 0-.346-.348Z" fill="#0089CC"/><mask id="b" style="mask-type:alpha" maskUnits="userSpaceOnUse" x="111" y="88" width="56" height="21"><path d="M166.819 108.719V88.056h-54.822v20.663h54.822Z" fill="#fff"/></mask><g mask="url(#b)"><path fill-rule="evenodd" clip-rule="evenodd" d="M161.24 98.439a5.73 5.73 0 0 1-.366 2.042 5.39 5.39 0 0 1-1.017 1.686 4.78 4.78 0 0 1-1.579 1.149 4.95 4.95 0 0 1-2.06.424c-.749 0-1.443-.146-2.06-.44a4.96 4.96 0 0 1-1.593-1.175 5.375 5.375 0 0 1-1.033-1.703 5.702 5.702 0 0 1-.366-2.038v-.057c0-.719.118-1.405.352-2.043a4.996 4.996 0 0 1 1.016-1.686c.44-.478.972-.865 1.58-1.149.609-.282 1.297-.425 2.047-.425a4.82 4.82 0 0 1 2.06.437c.617.293 1.161.69 1.608 1.18.45.487.801 1.062 1.045 1.7.243.638.366 1.326.366 2.043v.055Zm-35.88.005c0 1.625-.512 2.895-1.522 3.774-1.009.88-2.363 1.326-4.019 1.326h-2.267V93.286h2.267c1.656 0 3.008.451 4.019 1.34 1.01.891 1.522 2.156 1.522 3.76v.058Zm10.703-4.303c.578-.64 1.333-.966 2.245-.966.936 0 1.717.325 2.319.966.599.642.963 1.52 1.083 2.606h-6.803c.19-1.085.578-1.962 1.156-2.606Zm29.954.185a10.186 10.186 0 0 0-2.211-3.263c-.934-.924-2.061-1.663-3.35-2.2-1.289-.537-2.711-.808-4.224-.808-1.515 0-2.935.271-4.225.807a10.672 10.672 0 0 0-3.377 2.214 9.933 9.933 0 0 0-1.661 2.147c-.44-.826-.544-1.114-1.215-1.932-.804-.979-1.839-1.771-3.08-2.355-1.241-.581-2.723-.875-4.402-.875-1.444 0-2.784.27-3.984.803a9.627 9.627 0 0 0-3.135 2.208 9.762 9.762 0 0 0-1.469 2.054 8.762 8.762 0 0 0-1.616-2.007c-.962-.88-2.155-1.574-3.55-2.062-1.396-.487-3.007-.734-4.792-.734h-7.383a.346.346 0 0 0-.346.349v19.487c0 .192.154.347.346.347h7.268c1.786 0 3.41-.257 4.822-.763 1.416-.507 2.624-1.221 3.591-2.12.618-.572 1.617-1.966 1.636-1.992.701 1.143 1.256 1.818 1.256 1.818l.093.099c.105.116.211.233.325.342.923.885 2.039 1.585 3.317 2.081 1.271.498 2.697.748 4.237.748 2.708 0 5.562-1.594 5.676-1.659l.883-.486c.156-.085.223-.273.156-.436l-1.521-3.798a.353.353 0 0 0-.203-.198.348.348 0 0 0-.282.021l-.766.41c-.083.04-2.082.961-3.58.961-1.082 0-2.002-.271-2.734-.802-.732-.533-1.238-1.355-1.502-2.442h10.748a10.2 10.2 0 0 0 .625 2.15 10.235 10.235 0 0 0 2.212 3.262 10.481 10.481 0 0 0 3.351 2.199c1.29.536 2.712.808 4.223.808 1.512 0 2.933-.272 4.225-.808a10.675 10.675 0 0 0 3.38-2.213 10.16 10.16 0 0 0 3.04-7.304v-.057c0-1.414-.27-2.76-.802-4.001Z" fill="#0089CC"/></g><mask id="c" style="mask-type:alpha" maskUnits="userSpaceOnUse" x="49" y="88" width="41" height="21"><path d="M49.856 108.719h39.728V88.062H49.856v20.657Z" fill="#fff"/></mask><g mask="url(#c)"><path fill-rule="evenodd" clip-rule="evenodd" d="M80.02 94.14c.575-.64 1.33-.965 2.243-.965.936 0 1.717.325 2.317.966.459.49.78 1.118.96 1.871a.593.593 0 0 1-.572.735H79.6a.59.59 0 0 1-.566-.748c.216-.746.547-1.37.986-1.858Zm8.017 8.2a.346.346 0 0 0-.485-.177l-.765.41c-.084.04-2.083.96-3.58.96-1.083 0-2.003-.27-2.734-.801-.537-.391-.952-.936-1.24-1.627a.591.591 0 0 1 .545-.815h8.79a.59.59 0 0 0 .545-.812l-4.346-10.884a.581.581 0 0 0-.437-.36 12.345 12.345 0 0 0-2.103-.172c-1.443 0-2.782.27-3.985.802a9.652 9.652 0 0 0-3.135 2.209 9.997 9.997 0 0 0-2.402 4.416l-.816 2.65a.586.586 0 0 1-1.118.013l-3.184-9.598a.35.35 0 0 0-.331-.239h-4.227a.347.347 0 0 0-.33.24l-3.134 9.556a.586.586 0 0 1-1.12-.016l-2.84-9.536a.348.348 0 0 0-.333-.248h-5.069a.349.349 0 0 0-.33.458l6.391 19.51c.047.142.18.239.33.239h4.289a.35.35 0 0 0 .327-.234l3.33-9.701a.586.586 0 0 1 1.11-.001l3.346 9.702a.35.35 0 0 0 .328.234h4.29a.35.35 0 0 0 .33-.239l.927-2.831.093.1c.105.116.21.233.324.343.925.884 2.041 1.584 3.318 2.08 1.271.498 2.696.748 4.239.748 2.706 0 5.56-1.594 5.675-1.659l.882-.486a.348.348 0 0 0 .156-.436l-1.521-3.798Z" fill="#555"/></g><mask id="d" style="mask-type:alpha" maskUnits="userSpaceOnUse" x="18" y="85" width="22" height="24"><path d="M18 108.618V85.926h21.737v22.692H18Z" fill="#fff"/></mask><g mask="url(#d)"><path fill-rule="evenodd" clip-rule="evenodd" d="M38.88 92.837c-1.439-.515-18.302-6.528-19.145-6.825-1.052-.37-1.885.508-1.712 1.446.133.722 3.497 19.126 3.723 20.168.147.683.408.95.798.992l.091-.001c2.042 0 5.759-13.923 7.907-13.923 1.486 0 2.759 3.904 3.31 5.203 2.765-2.466 5.1-4.583 5.432-4.875.747-.656.542-1.847-.404-2.185Z" fill="#0089CC"/></g><path fill-rule="evenodd" clip-rule="evenodd" d="M30.591 95.99c-.678 0-3.638 8.562-5.58 11.781 1.626-1.488 4.954-4.417 7.9-7.035-.308-1.303-1.66-4.746-2.32-4.746Z" fill="#444"/></svg>