<?xml version="1.0" encoding="UTF-8"?>
<svg width="200px" height="200px" viewBox="0 0 200 200" version="1.1" xmlns="http://www.w3.org/2000/svg" xmlns:xlink="http://www.w3.org/1999/xlink">
    <!-- Generator: Sketch 63.1 (92452) - https://sketch.com -->
    <title>syneto_logo</title>
    <desc>Created with Sketch.</desc>
    <g id="Exports" stroke="none" stroke-width="1" fill="none" fill-rule="evenodd">
        <g id="Artboard" transform="translate(-409.000000, -3312.000000)">
            <g id="Group-18" transform="translate(409.000000, 3312.000000)">
                <g id="Group-43" transform="translate(32.710280, 78.504673)">
                    <path d="M41.6879172,43.2942256 C41.6879172,44.0151869 41.0971295,44.6059746 40.3761682,44.6059746 C39.6552069,44.6059746 39.0644192,44.0151869 39.0644192,43.2942256 C39.0644192,42.5732644 39.6552069,41.9824766 40.3761682,41.9824766 C41.0971295,41.9824766 41.6879172,42.5732644 41.6879172,43.2942256" id="Fill-1" fill="#AB206D"></path>
                    <path d="M94.6194927,43.2942256 C94.6194927,44.0151869 94.0287049,44.6059746 93.3077437,44.6059746 C92.5867824,44.6059746 91.9959947,44.0151869 91.9959947,43.2942256 C91.9959947,42.5732644 92.5867824,41.9824766 93.3077437,41.9824766 C94.0287049,41.9824766 94.6194927,42.5732644 94.6194927,43.2942256" id="Fill-4" fill="#AB206D"></path>
                    <path d="M6.95360481,43.0208611 C6.56308411,42.7004339 5.98230975,42.4300734 5.24132176,42.2498331 C4.53037383,42.0695928 4.02970628,41.8593124 3.73931909,41.618992 C3.43891856,41.3886849 3.29873164,41.1083111 3.29873164,40.7478304 C3.29873164,40.3773364 3.44893191,40.0669226 3.76935915,39.8266021 C4.08978638,39.566255 4.52036048,39.4460948 5.08110814,39.4460948 C5.64185581,39.4460948 6.09245661,39.5962951 6.4228972,39.8966956 C6.75333778,40.1970961 6.9135514,40.5776035 6.9135514,41.048231 L7.44425901,41.048231 L7.46428571,41.0181909 C7.47429907,40.4374166 7.25400534,39.9467623 6.81341789,39.5562417 C6.37283044,39.1557076 5.80206943,38.9554406 5.08110814,38.9554406 C4.39018692,38.9554406 3.82943925,39.1256676 3.3888518,39.4661215 C2.94826435,39.7965621 2.72797063,40.2371495 2.72797063,40.7578438 C2.72797063,41.2785381 2.92823765,41.6990988 3.31875834,41.9994993 C3.70927904,42.3099132 4.28004005,42.560247 5.05106809,42.7505007 C5.76201602,42.930741 6.25267023,43.1510347 6.53304406,43.3913551 C6.81341789,43.6316756 6.96361816,43.9420895 6.96361816,44.3225968 C6.96361816,44.7131175 6.79339119,45.0335447 6.45293725,45.2838785 C6.11248331,45.5241989 5.66188251,45.6443591 5.1111482,45.6443591 C4.57042724,45.6443591 4.08978638,45.5141856 3.67923899,45.2538385 C3.27870494,44.983478 3.06842457,44.5829439 3.06842457,44.0522363 L2.54773031,44.0522363 L2.53771696,44.072263 C2.5277036,44.7531709 2.76802403,45.2638518 3.28871829,45.6043057 C3.8194259,45.954773 4.42022697,46.1350134 5.1111482,46.1350134 C5.82209613,46.1350134 6.39285714,45.9647864 6.8534713,45.6443591 C7.3040721,45.3139186 7.54439252,44.8733311 7.54439252,44.3125834 C7.54439252,43.7718625 7.3441255,43.3513017 6.95360481,43.0208611" id="Fill-7" fill="#231F20"></path>
                    <polygon id="Fill-10" fill="#231F20" points="8.78504673 39.3619826 9.35580774 39.3619826 9.35580774 38.5609146 8.78504673 38.5609146"></polygon>
                    <polygon id="Fill-12" fill="#231F20" points="8.78504673 46.0308745 9.35580774 46.0308745 9.35580774 40.8439586 8.78504673 40.8439586"></polygon>
                    <path d="M16.4192256,40.7518358 C15.9986649,40.7518358 15.6481976,40.8619826 15.3678238,41.0622497 C15.0674232,41.27253 14.8471295,41.5529039 14.6869159,41.9133845 C14.576769,41.5228638 14.3865154,41.2324766 14.1261682,41.0322096 C13.8558077,40.8519693 13.5253672,40.7518358 13.1248331,40.7518358 C12.7443258,40.7518358 12.4138852,40.8419559 12.1335113,41.0021696 C11.8631509,41.1723965 11.6328438,41.4027036 11.4726302,41.7131175 L11.4225634,40.8519693 L10.9018692,40.8519693 L10.9018692,46.0288718 L11.4926569,46.0288718 L11.4926569,42.384012 C11.5927904,42.0335447 11.753004,41.7631842 11.9933244,41.5529039 C12.2236315,41.3526368 12.5440587,41.24249 12.9546061,41.24249 C13.3451268,41.24249 13.6755674,41.3726636 13.8958611,41.6530374 C14.1261682,41.9133845 14.2363151,42.3639853 14.2363151,42.9948264 L14.2363151,46.0288718 L14.8170895,46.0288718 L14.8170895,42.9147196 L14.8170895,42.8245995 L14.8170895,42.724466 C14.8771696,42.2938919 15.0173565,41.9334112 15.2676903,41.6630507 C15.4979973,41.3726636 15.8484646,41.24249 16.2890521,41.24249 C16.6895861,41.24249 17.0100134,41.3726636 17.2303071,41.643024 C17.4606142,41.9033712 17.570761,42.353972 17.570761,42.9948264 L17.570761,46.0288718 L18.1515354,46.0288718 L18.1515354,43.0148531 C18.1515354,42.2338117 17.9913218,41.6730641 17.6909212,41.3025701 C17.400534,40.9420895 16.9699599,40.7518358 16.4192256,40.7518358" id="Fill-13" fill="#231F20"></path>
                    <path d="M23.2253004,43.5786048 C23.2253004,44.1994326 23.0951268,44.7001001 22.8347797,45.0705941 C22.5844459,45.4511015 22.1939252,45.6413551 21.6932577,45.6413551 C21.332777,45.6413551 21.0123498,45.5612483 20.7720294,45.4010347 C20.5116822,45.2308077 20.3314419,45.0205274 20.2012684,44.7201268 L20.2012684,42.2368158 C20.3214286,41.9364152 20.5116822,41.7061081 20.7419893,41.5158545 C20.9823097,41.3256008 21.302737,41.245494 21.6832443,41.245494 C22.1839119,41.245494 22.5744326,41.445761 22.8347797,41.8663218 C23.0951268,42.2768692 23.2253004,42.8175901 23.2253004,43.4784713 L23.2253004,43.5786048 Z M21.8134179,40.7548398 C21.4429239,40.7548398 21.1224967,40.8349466 20.8521362,40.9851469 C20.5717623,41.1453605 20.3514686,41.3656542 20.1812417,41.6560414 L20.1011348,40.8549733 L19.6305073,40.8549733 L19.6305073,48.0245327 L20.2012684,48.0245327 L20.2012684,45.3409546 C20.3714953,45.5912884 20.5917891,45.7915554 20.8721629,45.921729 C21.1425234,46.0619159 21.4529372,46.1320093 21.8234312,46.1320093 C22.444259,46.1320093 22.9248999,45.9017023 23.2753672,45.4410881 C23.6258344,44.980474 23.8060748,44.3596462 23.8060748,43.5886182 L23.8060748,43.4784713 C23.8060748,42.6573765 23.6258344,41.9964953 23.2753672,41.4958278 C22.9248999,40.9951602 22.4342457,40.7548398 21.8134179,40.7548398 L21.8134179,40.7548398 Z" id="Fill-14" fill="#231F20"></path>
                    <polygon id="Fill-15" fill="#231F20" points="25.1568758 46.0308745 25.7276368 46.0308745 25.7276368 38.5609146 25.1568758 38.5609146"></polygon>
                    <polygon id="Fill-16" fill="#231F20" points="27.3898531 39.3619826 27.9606142 39.3619826 27.9606142 38.5609146 27.3898531 38.5609146"></polygon>
                    <polygon id="Fill-17" fill="#231F20" points="27.3898531 46.0308745 27.9606142 46.0308745 27.9606142 40.8439586 27.3898531 40.8439586"></polygon>
                    <path d="M31.4492657,38.4537717 C30.9786382,38.4537717 30.6081442,38.603972 30.3578104,38.8843458 C30.0874499,39.1647196 29.9672897,39.5652537 29.9672897,40.0859479 L29.9672897,40.8469626 L29.1061415,40.8469626 L29.1061415,41.3175901 L29.9672897,41.3175901 L29.9672897,46.0338785 L30.5380507,46.0338785 L30.5380507,41.3175901 L31.7696929,41.3175901 L31.7696929,40.8469626 L30.5380507,40.8469626 L30.5380507,40.0859479 C30.5380507,39.7354806 30.6181575,39.4651202 30.7883845,39.2548398 C30.9485981,39.0645861 31.1989319,38.9644526 31.5093458,38.9644526 C31.6194927,38.9644526 31.6995995,38.9644526 31.7897196,38.9844793 C31.8698264,38.9944927 31.9499332,39.004506 32.0300401,39.0245327 L32.0901202,38.5539052 C31.9899866,38.5238652 31.8798398,38.5038385 31.7596796,38.4838117 C31.6595461,38.463785 31.5493992,38.4537717 31.4492657,38.4537717" id="Fill-18" fill="#231F20"></path>
                    <path d="M34.4512684,45.2408211 L34.4212283,45.2408211 L34.240988,44.6199933 L32.8190921,40.8549733 L32.1782377,40.8549733 L34.1809079,45.9617824 L33.900534,46.662717 C33.8104139,46.9430908 33.6802403,47.1633845 33.5200267,47.3436248 C33.3798398,47.5238652 33.1695594,47.603972 32.929239,47.603972 C32.8891856,47.603972 32.8291055,47.603972 32.7389853,47.5939586 C32.6488652,47.5839453 32.588785,47.5839453 32.558745,47.5739319 L32.4886515,48.0545728 C32.5387183,48.0745995 32.5987984,48.0846128 32.6989319,48.1046395 C32.7990654,48.1146529 32.8791722,48.1246662 32.9492657,48.1246662 C33.3598131,48.1246662 33.670227,47.9944927 33.8805073,47.7541722 C34.1008011,47.5138518 34.271028,47.2034379 34.4012016,46.862984 L36.6542056,40.8549733 L36.0133511,40.8549733 L34.4512684,45.2408211 Z" id="Fill-19" fill="#231F20"></path>
                    <path d="M45.6191589,43.5786048 L47.021028,39.8035714 L47.0510681,39.8035714 L48.4329105,43.5786048 L45.6191589,43.5786048 Z M46.7606809,39.0625834 L44.1271696,46.0318758 L44.7079439,46.0318758 L45.4289052,44.0892857 L48.6231642,44.0892857 L49.3441255,46.0318758 L49.9449266,46.0318758 L47.3114152,39.0625834 L46.7606809,39.0625834 Z" id="Fill-20" fill="#231F20"></path>
                    <path d="M51.5250334,41.837283 C51.7953939,41.436749 52.2059413,41.236482 52.7666889,41.236482 C53.167223,41.236482 53.5076769,41.3666555 53.7980641,41.6169893 C54.0684246,41.8573097 54.2186248,42.1877503 54.2186248,42.6083111 L54.7192924,42.6083111 L54.7293057,42.578271 C54.7393191,42.0375501 54.5690921,41.5969626 54.1885848,41.2565087 C53.8080774,40.9160547 53.3374499,40.7558411 52.7666889,40.7558411 C52.0657543,40.7558411 51.5250334,40.9961615 51.1345127,41.4868158 C50.7540053,41.9674566 50.5537383,42.5882844 50.5537383,43.3392857 L50.5537383,43.5395527 C50.5537383,44.3005674 50.743992,44.9213952 51.1345127,45.402036 C51.51502,45.8826769 52.0657543,46.1330107 52.7666889,46.1330107 C53.2973965,46.1330107 53.7580107,45.9727971 54.1585447,45.6523698 C54.5490654,45.3319426 54.7393191,44.9314085 54.7192924,44.4507677 L54.709279,44.4207276 L54.2186248,44.4207276 C54.2186248,44.801235 54.0684246,45.1016355 53.7780374,45.3219292 C53.4776368,45.5322096 53.1471963,45.6423565 52.7666889,45.6423565 C52.2059413,45.6423565 51.7853805,45.4420895 51.5250334,45.0415554 C51.2646862,44.6510347 51.1345127,44.1503672 51.1345127,43.5395527 L51.1345127,43.3292724 C51.1345127,42.7384846 51.2646862,42.2378171 51.5250334,41.837283" id="Fill-21" fill="#231F20"></path>
                    <path d="M56.6098131,41.837283 C56.8701602,41.436749 57.2807076,41.236482 57.8414553,41.236482 C58.2520027,41.236482 58.5924566,41.3666555 58.8728304,41.6169893 C59.1532043,41.8573097 59.2933912,42.1877503 59.2933912,42.6083111 L59.8040721,42.6083111 L59.8140854,42.578271 C59.8240988,42.0375501 59.6438585,41.5969626 59.2633511,41.2565087 C58.8928571,40.9160547 58.4122163,40.7558411 57.8414553,40.7558411 C57.150534,40.7558411 56.5997997,40.9961615 56.2192924,41.4868158 C55.8287717,41.9674566 55.6285047,42.5882844 55.6285047,43.3392857 L55.6285047,43.5395527 C55.6285047,44.3005674 55.8287717,44.9213952 56.209279,45.402036 C56.5997997,45.8826769 57.150534,46.1330107 57.8514686,46.1330107 C58.3721629,46.1330107 58.832777,45.9727971 59.2333111,45.6523698 C59.6338451,45.3319426 59.8240988,44.9314085 59.8040721,44.4507677 L59.7940587,44.4207276 L59.2933912,44.4207276 C59.2933912,44.801235 59.1431909,45.1016355 58.8628171,45.3219292 C58.5624166,45.5322096 58.231976,45.6423565 57.8514686,45.6423565 C57.2807076,45.6423565 56.8701602,45.4420895 56.6098131,45.0415554 C56.349466,44.6510347 56.209279,44.1503672 56.209279,43.5395527 L56.209279,43.3292724 C56.209279,42.7384846 56.349466,42.2378171 56.6098131,41.837283" id="Fill-22" fill="#231F20"></path>
                    <path d="M64.3551402,42.9617824 L61.3210948,42.9617824 L61.3110814,42.9417557 C61.3611482,42.4511015 61.5313752,42.0505674 61.811749,41.7301402 C62.1021362,41.409713 62.4626168,41.239486 62.8931909,41.239486 C63.3337784,41.239486 63.7042724,41.3996996 63.9646195,41.6900868 C64.2249666,41.9904873 64.3551402,42.3709947 64.3551402,42.8215955 L64.3551402,42.9617824 Z M62.8931909,40.7488318 C62.2723632,40.7488318 61.7616822,40.9991656 61.3311081,41.4898198 C60.900534,41.9704606 60.700267,42.5912884 60.700267,43.3322764 L60.700267,43.5926235 C60.700267,44.3336115 60.9105474,44.9344126 61.3411215,45.4150534 C61.7616822,45.8956943 62.3124166,46.1260013 62.953271,46.1260013 C63.3638184,46.1260013 63.7242991,46.0759346 64.0246996,45.9557744 C64.3150868,45.8256008 64.5654206,45.6754005 64.7556742,45.4651202 L64.5253672,45.0645861 C64.3351135,45.2548398 64.1248331,45.3950267 63.864486,45.4951602 C63.6241656,45.5952937 63.3137517,45.6453605 62.953271,45.6453605 C62.4526035,45.6453605 62.0520694,45.4450935 61.7316422,45.0545728 C61.4212283,44.6640521 61.2610147,44.1733979 61.2610147,43.5826101 L61.2610147,43.4524366 L64.9359146,43.4524366 L64.9359146,42.9617824 C64.9359146,42.3009012 64.7456609,41.7601802 64.3851802,41.3596462 C64.0246996,40.9591121 63.5140187,40.7488318 62.8931909,40.7488318 L62.8931909,40.7488318 Z" id="Fill-23" fill="#231F20"></path>
                    <polygon id="Fill-24" fill="#231F20" points="66.1315087 46.0308745 66.7022697 46.0308745 66.7022697 38.5609146 66.1315087 38.5609146"></polygon>
                    <path d="M71.6398531,42.9617824 L68.5957944,42.9617824 L68.585781,42.9417557 C68.6358478,42.4511015 68.8060748,42.0505674 69.0964619,41.7301402 C69.3768358,41.409713 69.7473298,41.239486 70.1678905,41.239486 C70.608478,41.239486 70.978972,41.3996996 71.2393191,41.6900868 C71.4996662,41.9904873 71.6398531,42.3709947 71.6398531,42.8215955 L71.6398531,42.9617824 Z M70.1678905,40.7488318 C69.5570761,40.7488318 69.0363818,40.9991656 68.6158211,41.4898198 C68.185247,41.9704606 67.9749666,42.5912884 67.9749666,43.3322764 L67.9749666,43.5926235 C67.9749666,44.3336115 68.185247,44.9344126 68.6158211,45.4150534 C69.0463952,45.8956943 69.5871162,46.1260013 70.2279706,46.1260013 C70.638518,46.1260013 71.009012,46.0759346 71.2993992,45.9557744 C71.5997997,45.8256008 71.8501335,45.6754005 72.0403872,45.4651202 L71.8000668,45.0645861 C71.6198264,45.2548398 71.4095461,45.3950267 71.1491989,45.4951602 C70.8988652,45.5952937 70.5984646,45.6453605 70.2279706,45.6453605 C69.7373164,45.6453605 69.326769,45.4450935 69.0063418,45.0545728 C68.7059413,44.6640521 68.5457276,44.1733979 68.5457276,43.5826101 L68.5457276,43.4524366 L72.2106142,43.4524366 L72.2106142,42.9617824 C72.2106142,42.3009012 72.0203605,41.7601802 71.6598798,41.3596462 C71.2993992,40.9591121 70.7987316,40.7488318 70.1678905,40.7488318 L70.1678905,40.7488318 Z" id="Fill-25" fill="#231F20"></path>
                    <path d="M75.4238985,40.7518358 C75.0734312,40.7518358 74.7730307,40.8419559 74.5226969,41.0221963 C74.2723632,41.2024366 74.0620828,41.442757 73.9218959,41.7731976 L73.9218959,41.7131175 L73.8518024,40.8519693 L73.3411215,40.8519693 L73.3411215,46.0288718 L73.9218959,46.0288718 L73.9218959,42.4541055 C74.012016,42.1036382 74.182243,41.813251 74.4125501,41.612984 C74.6428571,41.412717 74.9432577,41.3125834 75.293725,41.3125834 L75.7242991,41.3426235 L75.8044059,40.8019025 C75.7543391,40.7918892 75.7042724,40.7818758 75.6341789,40.7718625 C75.5640854,40.7618491 75.493992,40.7518358 75.4238985,40.7518358" id="Fill-26" fill="#231F20"></path>
                    <path d="M79.8538051,44.5949599 C79.7136182,44.8953605 79.4933244,45.1456943 79.1728972,45.3359479 C78.85247,45.5262016 78.4919893,45.6263351 78.0814419,45.6263351 C77.740988,45.6263351 77.4706275,45.536215 77.2803738,45.3559746 C77.0901202,45.1857477 76.9899866,44.9454272 76.9899866,44.6750668 C76.9899866,44.3446262 77.1401869,44.0642523 77.4606142,43.8439586 C77.7610147,43.6236649 78.1815754,43.513518 78.7022697,43.513518 L79.8538051,43.513518 L79.8538051,44.5949599 Z M80.4345794,44.9854806 L80.4345794,42.4320761 C80.4345794,41.8913551 80.2543391,41.4707944 79.9038718,41.1904206 C79.5634179,40.9000334 79.1028037,40.7498331 78.5220294,40.7498331 C77.9512684,40.7498331 77.4806409,40.9100467 77.1101469,41.2104473 C76.7296395,41.5108478 76.5594126,41.8613151 76.5794393,42.2518358 L76.5894526,42.2818758 L77.1201602,42.2818758 C77.1201602,41.9914887 77.2403204,41.7411549 77.5106809,41.5408879 C77.771028,41.3406208 78.1014686,41.2404873 78.5020027,41.2404873 C78.9225634,41.2404873 79.253004,41.3506342 79.5033378,41.5509012 C79.7336449,41.7711949 79.8538051,42.0615821 79.8538051,42.4320761 L79.8538051,43.0729306 L78.712283,43.0729306 C78.0013351,43.0729306 77.4506008,43.2131175 77.0400534,43.5035047 C76.629506,43.7938919 76.4192256,44.1743992 76.4192256,44.6550401 C76.4192256,45.1056409 76.5594126,45.4661215 76.829773,45.7264686 C77.1201602,45.9968291 77.5106809,46.1270027 78.0113485,46.1270027 C78.4118825,46.1270027 78.7723632,46.0468959 79.0927904,45.8666555 C79.4132176,45.6764019 79.6635514,45.4561081 79.8538051,45.195761 C79.8538051,45.3159212 79.8638184,45.4460948 79.8838451,45.5762684 C79.8938585,45.6964286 79.9238985,45.8566422 79.9639519,46.0368825 L80.5547397,46.0368825 C80.5046729,45.8666555 80.4746328,45.6864152 80.4646195,45.5161883 C80.4445928,45.3459613 80.4345794,45.1757343 80.4345794,44.9854806 L80.4345794,44.9854806 Z" id="Fill-27" fill="#231F20"></path>
                    <path d="M83.8040721,45.6123164 C83.7139519,45.6223298 83.6138184,45.6323431 83.5337116,45.6323431 C83.3234312,45.6323431 83.1632176,45.5522363 83.0430574,45.4120494 C82.9128838,45.2718625 82.8528037,45.0315421 82.8528037,44.6910881 L82.8528037,41.3165888 L83.9943258,41.3165888 L83.9943258,40.8459613 L82.8528037,40.8459613 L82.8528037,39.5241989 L82.2820427,39.5241989 L82.2820427,40.8459613 L81.3808411,40.8459613 L81.3808411,41.3165888 L82.2820427,41.3165888 L82.2820427,44.6910881 C82.2820427,45.1917557 82.3721629,45.5522363 82.5824433,45.7925567 C82.7726969,46.0128505 83.0630841,46.1330107 83.4335781,46.1330107 C83.573765,46.1330107 83.7039386,46.1229973 83.8441255,46.1029706 C83.9843124,46.0729306 84.0944593,46.0428905 84.1945928,46.0028371 L84.1044726,45.572263 C83.9943258,45.5922897 83.8941923,45.6123164 83.8040721,45.6123164" id="Fill-28" fill="#231F20"></path>
                    <path d="M88.5564085,42.9617824 L85.5223632,42.9617824 L85.5123498,42.9417557 C85.5624166,42.4511015 85.7326435,42.0505674 86.0130174,41.7301402 C86.2933912,41.409713 86.6638852,41.239486 87.0844459,41.239486 C87.5350467,41.239486 87.8955274,41.3996996 88.1658879,41.6900868 C88.426235,41.9904873 88.5564085,42.3709947 88.5564085,42.8215955 L88.5564085,42.9617824 Z M87.0844459,40.7488318 C86.4736315,40.7488318 85.9529372,40.9991656 85.5323765,41.4898198 C85.1018024,41.9704606 84.891522,42.5912884 84.891522,43.3322764 L84.891522,43.5926235 C84.891522,44.3336115 85.1018024,44.9344126 85.5323765,45.4150534 C85.9629506,45.8956943 86.5036716,46.1260013 87.1545394,46.1260013 C87.5650868,46.1260013 87.9255674,46.0759346 88.225968,45.9557744 C88.5163551,45.8256008 88.7666889,45.6754005 88.9569426,45.4651202 L88.7166222,45.0645861 C88.5363818,45.2548398 88.3261015,45.3950267 88.0657543,45.4951602 C87.8154206,45.5952937 87.51502,45.6453605 87.1545394,45.6453605 C86.6538718,45.6453605 86.2433244,45.4450935 85.9329105,45.0545728 C85.6224967,44.6640521 85.462283,44.1733979 85.462283,43.5826101 L85.462283,43.4524366 L89.1271696,43.4524366 L89.1271696,42.9617824 C89.1271696,42.3009012 88.9469292,41.7601802 88.5864486,41.3596462 C88.2159546,40.9591121 87.715287,40.7488318 87.0844459,40.7488318 L87.0844459,40.7488318 Z" id="Fill-29" fill="#231F20"></path>
                    <path d="M101.269359,42.2087784 C100.988985,42.4991656 100.558411,42.6493658 99.9776368,42.6493658 L98.1451936,42.6493658 L98.1451936,39.545227 L99.9776368,39.545227 C100.558411,39.545227 100.988985,39.6954272 101.279372,39.9858144 C101.559746,40.286215 101.709947,40.6567089 101.709947,41.1073097 C101.709947,41.5478972 101.559746,41.9183912 101.269359,42.2087784 M99.9776368,39.0645861 L97.5744326,39.0645861 L97.5744326,46.0338785 L98.1451936,46.0338785 L98.1451936,43.14002 L99.9776368,43.14002 C100.708611,43.14002 101.269359,42.9497664 101.669893,42.5792724 C102.070427,42.2087784 102.280708,41.7081108 102.280708,41.0972964 C102.280708,40.4764686 102.070427,39.9858144 101.669893,39.6153204 C101.269359,39.2448264 100.708611,39.0645861 99.9776368,39.0645861" id="Fill-30" fill="#231F20"></path>
                    <path d="M105.562083,40.7518358 C105.221629,40.7518358 104.921228,40.8419559 104.660881,41.0221963 C104.410547,41.2024366 104.21028,41.442757 104.070093,41.7731976 L104.070093,41.7131175 L103.989987,40.8519693 L103.489319,40.8519693 L103.489319,46.0288718 L104.070093,46.0288718 L104.070093,42.4541055 C104.160214,42.1036382 104.330441,41.813251 104.550734,41.612984 C104.791055,41.412717 105.081442,41.3125834 105.441923,41.3125834 L105.872497,41.3426235 L105.952603,40.8019025 C105.902537,40.7918892 105.842457,40.7818758 105.772363,40.7718625 C105.712283,40.7618491 105.64219,40.7518358 105.562083,40.7518358" id="Fill-31" fill="#231F20"></path>
                    <path d="M110.421562,43.519526 C110.421562,44.1203271 110.261348,44.6209947 109.960948,45.0315421 C109.660547,45.4320761 109.239987,45.6423565 108.709279,45.6423565 C108.158545,45.6423565 107.737984,45.4320761 107.437583,45.0315421 C107.137183,44.6209947 106.976969,44.1203271 106.976969,43.519526 L106.976969,43.3593124 C106.976969,42.7685247 107.137183,42.2678571 107.437583,41.8573097 C107.737984,41.4467623 108.158545,41.236482 108.699266,41.236482 C109.239987,41.236482 109.660547,41.4467623 109.960948,41.8573097 C110.261348,42.2678571 110.421562,42.7685247 110.421562,43.3593124 L110.421562,43.519526 Z M108.699266,40.7558411 C108.008344,40.7558411 107.447597,40.9961615 107.037049,41.4868158 C106.616489,41.97747 106.416222,42.5982977 106.416222,43.3593124 L106.416222,43.519526 C106.416222,44.2905541 106.616489,44.9213952 107.037049,45.3920227 C107.447597,45.8826769 108.008344,46.1330107 108.709279,46.1330107 C109.390187,46.1330107 109.950935,45.8826769 110.361482,45.3920227 C110.782043,44.9213952 110.992323,44.2905541 110.992323,43.519526 L110.992323,43.3593124 C110.992323,42.5982977 110.782043,41.97747 110.361482,41.4868158 C109.940921,40.9961615 109.390187,40.7558411 108.699266,40.7558411 L108.699266,40.7558411 Z" id="Fill-32" fill="#231F20"></path>
                    <path d="M114.040387,45.6123164 C113.950267,45.6223298 113.850134,45.6323431 113.770027,45.6323431 C113.559746,45.6323431 113.399533,45.5522363 113.279372,45.4120494 C113.149199,45.2718625 113.089119,45.0315421 113.089119,44.6910881 L113.089119,41.3165888 L114.230641,41.3165888 L114.230641,40.8459613 L113.089119,40.8459613 L113.089119,39.5241989 L112.518358,39.5241989 L112.518358,40.8459613 L111.617156,40.8459613 L111.617156,41.3165888 L112.518358,41.3165888 L112.518358,44.6910881 C112.518358,45.1917557 112.608478,45.5522363 112.818758,45.7925567 C113.009012,46.0128505 113.299399,46.1330107 113.669893,46.1330107 C113.81008,46.1330107 113.940254,46.1229973 114.080441,46.1029706 C114.220628,46.0729306 114.330774,46.0428905 114.420895,46.0028371 L114.340788,45.572263 C114.230641,45.5922897 114.130507,45.6123164 114.040387,45.6123164" id="Fill-33" fill="#231F20"></path>
                    <path d="M118.792724,42.9617824 L115.758678,42.9617824 L115.748665,42.9417557 C115.798732,42.4511015 115.968959,42.0505674 116.249332,41.7301402 C116.529706,41.409713 116.9002,41.239486 117.320761,41.239486 C117.771362,41.239486 118.131842,41.3996996 118.39219,41.6900868 C118.66255,41.9904873 118.792724,42.3709947 118.792724,42.8215955 L118.792724,42.9617824 Z M117.320761,40.7488318 C116.709947,40.7488318 116.189252,40.9991656 115.768692,41.4898198 C115.338117,41.9704606 115.127837,42.5912884 115.127837,43.3322764 L115.127837,43.5926235 C115.127837,44.3336115 115.338117,44.9344126 115.768692,45.4150534 C116.199266,45.8956943 116.739987,46.1260013 117.390854,46.1260013 C117.801402,46.1260013 118.161883,46.0759346 118.462283,45.9557744 C118.75267,45.8256008 119.003004,45.6754005 119.193258,45.4651202 L118.952937,45.0645861 C118.772697,45.2548398 118.562417,45.3950267 118.302069,45.4951602 C118.051736,45.5952937 117.751335,45.6453605 117.390854,45.6453605 C116.890187,45.6453605 116.47964,45.4450935 116.169226,45.0545728 C115.858812,44.6640521 115.698598,44.1733979 115.698598,43.5826101 L115.698598,43.4524366 L119.363485,43.4524366 L119.363485,42.9617824 C119.363485,42.3009012 119.183244,41.7601802 118.822764,41.3596462 C118.45227,40.9591121 117.951602,40.7488318 117.320761,40.7488318 L117.320761,40.7488318 Z" id="Fill-34" fill="#231F20"></path>
                    <path d="M121.178905,41.837283 C121.449266,41.436749 121.859813,41.236482 122.410547,41.236482 C122.821095,41.236482 123.161549,41.3666555 123.441923,41.6169893 C123.722296,41.8573097 123.862483,42.1877503 123.862483,42.6083111 L124.373164,42.6083111 L124.383178,42.578271 C124.393191,42.0375501 124.212951,41.5969626 123.842457,41.2565087 C123.461949,40.9160547 122.991322,40.7558411 122.410547,40.7558411 C121.719626,40.7558411 121.168892,40.9961615 120.788385,41.4868158 C120.397864,41.9674566 120.20761,42.5882844 120.20761,43.3392857 L120.20761,43.5395527 C120.20761,44.3005674 120.397864,44.9213952 120.788385,45.402036 C121.168892,45.8826769 121.719626,46.1330107 122.420561,46.1330107 C122.941255,46.1330107 123.411883,45.9727971 123.802403,45.6523698 C124.202937,45.3319426 124.393191,44.9314085 124.373164,44.4507677 L124.363151,44.4207276 L123.862483,44.4207276 C123.862483,44.801235 123.712283,45.1016355 123.431909,45.3219292 C123.131509,45.5322096 122.801068,45.6423565 122.420561,45.6423565 C121.8498,45.6423565 121.439252,45.4420895 121.178905,45.0415554 C120.918558,44.6510347 120.778371,44.1503672 120.778371,43.5395527 L120.778371,43.3292724 C120.778371,42.7384846 120.918558,42.2378171 121.178905,41.837283" id="Fill-35" fill="#231F20"></path>
                    <path d="M127.730641,45.5732644 C127.610481,45.5932911 127.52036,45.6133178 127.43024,45.6133178 C127.34012,45.6233311 127.25,45.6333445 127.149866,45.6333445 C126.949599,45.6333445 126.789386,45.5532377 126.669226,45.4130507 C126.539052,45.2728638 126.478972,45.0325434 126.478972,44.6920895 L126.478972,41.3175901 L127.620494,41.3175901 L127.620494,40.8469626 L126.478972,40.8469626 L126.478972,39.5252003 L125.898198,39.5252003 L125.898198,40.8469626 L125.007009,40.8469626 L125.007009,41.3175901 L125.898198,41.3175901 L125.898198,44.6920895 C125.898198,45.192757 125.998331,45.5532377 126.208611,45.7835447 C126.408879,46.0138518 126.689252,46.134012 127.059746,46.134012 C127.18992,46.134012 127.330107,46.1239987 127.470294,46.103972 C127.600467,46.0739319 127.720628,46.0438919 127.820761,46.0038385 L127.730641,45.5732644 Z" id="Fill-36" fill="#231F20"></path>
                    <path d="M12.4589453,14.6330107 L10.8167557,13.701769 C9.57510013,13.0108478 8.70393858,12.4200601 8.20327103,11.9294059 C7.70260347,11.4587784 7.46228304,10.9380841 7.46228304,10.3973632 C7.46228304,9.77653538 7.73264352,9.27586782 8.28337784,8.89536048 C8.83411215,8.51485314 9.54506008,8.32459947 10.4362483,8.32459947 C12.1785714,8.32459947 14.4015354,9.14569426 17.1251669,10.7978972 L17.1251669,6.25183578 C14.7419893,4.98014019 12.4088785,4.33928571 10.1358478,4.33928571 C7.95293725,4.33928571 6.1605474,4.90003338 4.76869159,6.03154206 C3.38684913,7.15303738 2.6959279,8.6049733 2.6959279,10.3873498 C2.6959279,11.7792056 3.15654206,13.0509012 4.06775701,14.2124499 C4.98898531,15.384012 6.92156208,16.7958945 9.88551402,18.4480975 C11.36749,19.289219 12.3287717,19.9200601 12.7693591,20.3706609 C13.2199599,20.8112483 13.450267,21.3820093 13.4402537,22.0529039 C13.4402537,22.7037717 13.0897864,23.2645194 12.4088785,23.7351469 C11.7179573,24.2057744 10.8968625,24.4360814 9.93558077,24.4360814 C9.00433912,24.4360814 7.87283044,24.165721 6.51101469,23.6049733 C5.15921228,23.0442256 3.83744993,22.3032377 2.54572764,21.3920227 L2.54572764,26.3386182 C4.17790387,27.1296729 5.52970628,27.6703939 6.60113485,27.9707944 C7.67256342,28.2611816 8.91421896,28.4113818 10.2860481,28.4113818 C12.6291722,28.4113818 14.5417223,27.7905541 16.0236983,26.5789386 C17.5156876,25.3573097 18.2566756,23.8052403 18.2566756,21.9027036 C18.2566756,19.2391522 16.3240988,16.8259346 12.4589453,14.6330107" id="Fill-37" fill="#AB206D"></path>
                    <path d="M57.6952603,5.46078104 C56.4536048,4.71979306 55.1018024,4.33928571 53.6598798,4.33928571 C51.0564085,4.33928571 48.7232977,5.47079439 46.6705607,7.75383845 L46.6705607,4.79989987 L41.9843124,4.79989987 L41.9843124,28.0008344 L46.6705607,28.0008344 L46.6705607,11.4287383 C48.1925901,9.26585447 50.0250334,8.1743992 52.1979306,8.1743992 C53.9002003,8.1743992 55.1018024,8.67506676 55.8227637,9.70644192 C56.5537383,10.7177904 56.9242323,12.4100467 56.9242323,14.7932243 L56.914219,28.0008344 L61.5103471,28.0008344 L61.5103471,14.7331442 C61.5103471,11.9093792 61.1899199,9.83661549 60.5290387,8.54489319 C59.8881842,7.23314419 58.9469292,6.21178238 57.6952603,5.46078104" id="Fill-38" fill="#AB206D"></path>
                    <path d="M67.8257677,14.0562417 C68.1361816,12.213785 68.8271028,10.8119159 69.8785047,9.81058077 C70.9299065,8.82927236 72.2817089,8.32860481 73.9238985,8.32860481 C75.5660881,8.32860481 76.8878505,8.82927236 77.8591455,9.81058077 C78.8404539,10.8119159 79.3811749,12.213785 79.5013351,14.0562417 L67.8257677,14.0562417 Z M73.9238985,4.3332777 C70.7296395,4.3332777 68.1261682,5.45477303 66.1335113,7.64769693 C64.1308411,9.87066088 63.129506,12.7444927 63.129506,16.2792056 C63.129506,18.6323431 63.6001335,20.6950935 64.5514019,22.4974967 C65.5126836,24.2798732 66.7743658,25.7117824 68.3564753,26.7731976 C69.9285714,27.8245995 72.0013351,28.3653204 74.5547397,28.3653204 C76.417223,28.3653204 78.0493992,28.1550401 79.441255,27.754506 C80.8331108,27.3439586 82.2249666,26.6830774 83.6368491,25.7318091 L83.6368491,21.2458278 C81.0834446,23.1283378 78.2897196,24.0695928 75.2656876,24.0695928 C73.0927904,24.0695928 71.3304406,23.418725 69.9586115,22.106976 C68.576769,20.795227 67.835781,19.0228638 67.7156208,16.7998999 L84.0473965,16.7998999 L84.0473965,16.2191255 C84.0473965,12.6043057 83.1261682,9.72046061 81.293725,7.56759012 C79.4612817,5.41471963 77.0080107,4.3332777 73.9238985,4.3332777 L73.9238985,4.3332777 Z" id="Fill-39" fill="#AB206D"></path>
                    <path d="M95.8711615,24.2748665 C93.6582109,24.2748665 92.5667557,22.9430908 92.5667557,20.2995661 L92.5667557,4.75884513 L92.5567423,0.00250333778 L87.7303071,4.75884513 L83.935247,8.48381175 L83.935247,8.93441255 L87.9706275,8.93441255 L87.9706275,19.2281375 C87.9706275,21.3309413 88.070761,22.7528371 88.2610147,23.5038385 C88.4512684,24.2548398 88.6915888,24.8556409 88.981976,25.316255 C89.2623498,25.7768692 89.6228304,26.1874166 90.0634179,26.5679239 C91.465287,27.7995661 93.2076101,28.4103805 95.3104139,28.4103805 C97.3931909,28.4103805 99.3257677,27.909713 101.088117,26.9183912 L101.088117,22.6326769 C99.2556742,23.7141188 97.5133511,24.2748665 95.8711615,24.2748665" id="Fill-40" fill="#AB206D"></path>
                    <path d="M120.982644,21.9868158 C119.540721,23.4087116 117.698264,24.1196595 115.44526,24.1196595 C113.182243,24.1196595 111.309746,23.418725 109.877837,22.0168558 C108.425901,20.6049733 107.70494,18.8025701 107.70494,16.5695928 C107.70494,14.3366155 108.405874,12.5041722 109.817757,11.0522363 C111.22964,9.61031375 113.032043,8.87933912 115.23498,8.87933912 L115.255007,8.87933912 C117.518024,8.87933912 119.400534,9.61031375 120.892523,11.0522363 C122.394526,12.5041722 123.135514,14.3165888 123.145527,16.519526 C123.145527,18.74249 122.424566,20.5649199 120.982644,21.9868158 M124.297063,8.15837784 C122.024032,5.93541389 119.18024,4.81391856 115.775701,4.75383845 L115.775701,4.7438251 L95.4886515,4.7438251 L95.4886515,8.87933912 L105.892523,8.87933912 C104.010013,11.0121829 103.058745,13.5856142 103.058745,16.6296729 C103.058745,19.9941589 104.220294,22.7978972 106.563418,25.0408879 C108.906542,27.2838785 111.810414,28.4153872 115.29506,28.4153872 C118.889853,28.4153872 121.883845,27.2938919 124.246996,25.0909546 C126.62016,22.878004 127.811749,20.1043057 127.811749,16.7598465 C127.811749,13.3052403 126.630174,10.4414219 124.297063,8.15837784" id="Fill-41" fill="#AB206D"></path>
                    <polygon id="Fill-42" fill="#AB206D" points="35.5267023 4.75684246 29.4385848 14.0492323 23.2903872 4.75684246 18.493992 4.75684246 27.1255007 17.5038385 27.1255007 32.6239987 31.7216288 27.8776702 31.7216288 17.4938251 40.3230975 4.75684246"></polygon>
                </g>
            </g>
        </g>
    </g>
</svg>