<?xml version="1.0" encoding="UTF-8"?>
<svg width="200px" height="200px" viewBox="0 0 200 200" version="1.1" xmlns="http://www.w3.org/2000/svg" xmlns:xlink="http://www.w3.org/1999/xlink">
    <!-- Generator: Sketch 63.1 (92452) - https://sketch.com -->
    <title>themesberg_logo</title>
    <desc>Created with Sketch.</desc>
    <g id="Exports" stroke="none" stroke-width="1" fill="none" fill-rule="evenodd">
        <g id="Artboard" transform="translate(-609.000000, -3312.000000)" fill-rule="nonzero">
            <g id="Group-2" transform="translate(609.000000, 3312.000000)">
                <g id="themesberg-footer" transform="translate(12.000000, 81.000000)">
                    <path d="M57.3913043,8.8 L57.3913043,11.2596273 C57.3913043,11.3142857 57.336646,11.3142857 57.336646,11.3142857 L57.336646,11.3142857 L51.7068323,11.3142857 L51.7068323,26.5639752 C51.7068323,26.6186335 51.6521739,26.6186335 51.6521739,26.6186335 L51.6521739,26.6186335 L48.973913,26.6186335 C48.9192547,26.6186335 48.9192547,26.5639752 48.9192547,26.5639752 L48.9192547,26.5639752 L48.9192547,11.3142857 L43.289441,11.3142857 C43.2347826,11.3142857 43.2347826,11.2596273 43.2347826,11.2596273 L43.2347826,11.2596273 L43.2347826,8.8 C43.2347826,8.74534161 43.289441,8.74534161 43.289441,8.74534161 L57.336646,8.74534161 C57.336646,8.74534161 57.3913043,8.8 57.3913043,8.8 Z M64.8795031,14.2111801 C63.4583851,14.2111801 62.0919255,14.8670807 61.2173913,16.0149068 L61.2173913,10.5490683 C61.2173913,10.4397516 61.1627329,10.3304348 61.0534161,10.2757764 L58.5937888,8.85465839 C58.5391304,8.85465839 58.484472,8.85465839 58.484472,8.90931677 C58.484472,8.90931677 58.484472,8.90931677 58.484472,8.96397516 L58.484472,26.6732919 C58.484472,26.7279503 58.5391304,26.7279503 58.5391304,26.7279503 L58.5391304,26.7279503 L61.1080745,26.7279503 C61.1627329,26.7279503 61.1627329,26.6732919 61.1627329,26.6732919 L61.1627329,26.6732919 L61.1627329,19.9503106 C61.1627329,18.0919255 62.2559006,16.889441 64.0049689,16.889441 C65.863354,16.889441 66.6832298,18.2012422 66.6832298,19.9503106 L66.6832298,19.9503106 L66.6832298,26.7279503 C66.6832298,26.7826087 66.7378882,26.7826087 66.7378882,26.7826087 L66.7378882,26.7826087 L69.3068323,26.7826087 C69.3614907,26.7826087 69.3614907,26.7279503 69.3614907,26.7279503 L69.3614907,19.1304348 C69.4708075,16.3975155 67.9950311,14.2111801 64.8795031,14.2111801 L64.8795031,14.2111801 Z M83.1354037,20.4968944 C83.1354037,20.7701863 83.1354037,21.0434783 83.0807453,21.3167702 L73.7888199,21.3167702 C73.8434783,23.1751553 75.5925466,24.4869565 77.3962733,24.4869565 C78.8720497,24.4869565 80.0745342,23.9403727 80.621118,22.5192547 C80.621118,22.4645963 80.6757764,22.4645963 80.7304348,22.4645963 L82.8621118,23.1204969 C82.9167702,23.1204969 82.9167702,23.1751553 82.9167702,23.2298137 C82.2062112,25.5254658 79.8559006,26.8372671 77.4509317,26.8372671 C77.3962733,26.8372671 77.2869565,26.8372671 77.2322981,26.8372671 C73.7888199,26.7826087 71.0012422,23.9403727 71.0559006,20.4968944 C70.9465839,17.1080745 73.6248447,14.2658385 77.068323,14.1565217 C77.1229814,14.1565217 77.1776398,14.1565217 77.2322981,14.1565217 C80.9490683,14.2111801 83.1354037,16.8347826 83.1354037,20.4968944 L83.1354037,20.4968944 Z M80.3478261,19.2944099 C80.2385093,17.5453416 78.8720497,16.5068323 77.1776398,16.5068323 C75.5378882,16.4521739 74.1167702,17.6546584 73.952795,19.2944099 L80.3478261,19.2944099 Z M98.7677019,14.1565217 C97.1279503,14.1018634 95.5428571,14.8670807 94.5043478,16.178882 C93.7937888,14.9763975 92.5913043,14.1565217 90.7329193,14.1565217 C89.2571429,14.1565217 87.9453416,14.8670807 87.0708075,16.0695652 L87.0708075,14.484472 C87.0708075,14.4298137 87.0161491,14.4298137 87.0161491,14.4298137 L84.5018634,14.4298137 C84.447205,14.4298137 84.447205,14.484472 84.447205,14.484472 L84.447205,26.5639752 C84.447205,26.6186335 84.5018634,26.6186335 84.5018634,26.6186335 L84.5018634,26.6186335 L87.0708075,26.6186335 C87.1254658,26.6186335 87.1254658,26.5639752 87.1254658,26.5639752 L87.1254658,26.5639752 L87.1254658,19.8409938 C87.1254658,17.9826087 88.1093168,16.7254658 89.8037267,16.7254658 C91.6621118,16.7254658 92.4273292,18.0372671 92.4273292,19.7863354 L92.4273292,26.5639752 C92.4273292,26.6186335 92.4819876,26.6186335 92.4819876,26.6186335 L92.4819876,26.6186335 L95.0509317,26.6186335 C95.1055901,26.6186335 95.1055901,26.5639752 95.1055901,26.5639752 L95.1055901,26.5639752 L95.1055901,19.7863354 C95.1055901,17.9279503 96.089441,16.7254658 97.7838509,16.7254658 C99.642236,16.7254658 100.407453,18.0372671 100.407453,19.731677 L100.407453,26.5639752 C100.407453,26.6186335 100.462112,26.6186335 100.462112,26.6186335 L100.462112,26.6186335 L103.031056,26.6186335 C103.085714,26.6186335 103.085714,26.5639752 103.085714,26.5639752 L103.085714,26.5639752 L103.085714,19.1304348 C103.195031,16.3428571 101.828571,14.1565217 98.7677019,14.1565217 L98.7677019,14.1565217 Z M116.859627,20.4968944 C116.859627,20.7701863 116.859627,21.0434783 116.804969,21.3167702 L107.513043,21.3167702 C107.567702,23.1751553 109.31677,24.4869565 111.120497,24.4869565 C112.596273,24.4869565 113.798758,23.9403727 114.345342,22.5192547 C114.345342,22.4645963 114.4,22.4645963 114.454658,22.4645963 L116.586335,23.1204969 C116.640994,23.1204969 116.640994,23.1751553 116.640994,23.2298137 C115.930435,25.5254658 113.580124,26.8372671 111.175155,26.8372671 C111.120497,26.8372671 111.01118,26.8372671 110.956522,26.8372671 C107.513043,26.7826087 104.725466,23.9403727 104.780124,20.4968944 C104.670807,17.1080745 107.349068,14.2658385 110.792547,14.1565217 C110.847205,14.1565217 110.901863,14.1565217 110.956522,14.1565217 C114.72795,14.2111801 116.859627,16.8347826 116.859627,20.4968944 L116.859627,20.4968944 Z M114.07205,19.2944099 C113.962733,17.5453416 112.596273,16.5068323 110.901863,16.5068323 L110.901863,16.5068323 C109.262112,16.4521739 107.840994,17.6546584 107.677019,19.2944099 L114.07205,19.2944099 Z M123.801242,19.4037267 L122.106832,19.021118 C121.450932,18.8571429 120.904348,18.4745342 120.904348,17.7639752 C121.013665,16.9440994 121.724224,16.2881988 122.598758,16.3975155 C123.637267,16.3428571 124.56646,16.9987578 124.785093,18.0372671 C124.785093,18.0919255 124.839752,18.0919255 124.89441,18.0919255 L124.89441,18.0919255 L127.026087,17.4906832 C127.080745,17.4906832 127.080745,17.4360248 127.080745,17.3813665 C126.862112,16.178882 125.714286,14.2111801 122.598758,14.2111801 C120.084472,14.2111801 118.280745,16.0149068 118.280745,18.0372671 C118.280745,19.6223602 119.264596,21.0434783 121.50559,21.5354037 L123.090683,21.9180124 C124.129193,22.136646 124.56646,22.573913 124.56646,23.284472 C124.56646,24.1590062 123.965217,24.7055901 122.817391,24.7055901 C121.669565,24.7602484 120.631056,23.9403727 120.412422,22.847205 C120.412422,22.7925466 120.357764,22.7925466 120.303106,22.7925466 L120.303106,22.7925466 L118.11677,23.3937888 C118.062112,23.3937888 118.062112,23.4484472 118.062112,23.5031056 C118.280745,24.8695652 119.592547,27.0012422 122.87205,27.0012422 L122.87205,27.0012422 C125.932919,27.0012422 127.354037,25.0881988 127.354037,23.1751553 C127.24472,21.3167702 126.042236,19.8956522 123.801242,19.4037267 L123.801242,19.4037267 Z M141.455901,20.4968944 C141.455901,23.8310559 138.996273,26.8372671 135.38882,26.8372671 C134.240994,26.8372671 132.218634,26.1813665 131.344099,24.7602484 L131.344099,26.5639752 C131.344099,26.6186335 131.289441,26.6186335 131.289441,26.6186335 L128.775155,26.6186335 C128.720497,26.6186335 128.720497,26.5639752 128.720497,26.5639752 L128.720497,10.4944099 C128.720497,10.3850932 128.775155,10.2757764 128.884472,10.221118 L131.344099,8.8 C131.398758,8.8 131.453416,8.8 131.453416,8.85465839 C131.453416,8.85465839 131.453416,8.85465839 131.453416,8.90931677 L131.453416,16.2881988 C132.273292,14.9217391 134.186335,14.2658385 135.498137,14.2658385 C139.160248,14.2111801 141.455901,17.4360248 141.455901,20.4968944 L141.455901,20.4968944 Z M138.668323,20.5515528 C138.668323,18.4198758 137.192547,16.6708075 135.006211,16.6708075 C132.819876,16.6708075 131.344099,18.4198758 131.344099,20.5515528 C131.344099,22.6285714 132.819876,24.3776398 135.006211,24.3776398 C137.247205,24.3776398 138.668323,22.6285714 138.668323,20.5515528 L138.668323,20.5515528 Z M154.409938,20.4968944 C154.409938,20.7701863 154.409938,21.0434783 154.35528,21.3167702 L145.063354,21.3167702 C145.118012,23.1751553 146.867081,24.4869565 148.670807,24.4869565 C150.146584,24.4869565 151.349068,23.9403727 151.895652,22.5192547 C151.895652,22.4645963 151.950311,22.4645963 152.004969,22.4645963 L154.136646,23.1204969 C154.191304,23.1204969 154.191304,23.1751553 154.191304,23.2298137 C153.480745,25.5254658 151.130435,26.8372671 148.725466,26.8372671 C148.670807,26.8372671 148.561491,26.8372671 148.506832,26.8372671 C145.063354,26.7826087 142.275776,23.9403727 142.330435,20.4968944 C142.221118,17.1080745 144.899379,14.2658385 148.342857,14.1565217 C148.397516,14.1565217 148.452174,14.1565217 148.506832,14.1565217 C152.223602,14.2111801 154.409938,16.8347826 154.409938,20.4968944 L154.409938,20.4968944 Z M151.62236,19.2944099 C151.513043,17.5453416 150.146584,16.5068323 148.452174,16.5068323 L148.452174,16.5068323 C146.812422,16.4521739 145.391304,17.6546584 145.227329,19.2944099 L151.62236,19.2944099 Z M175.453416,14.5391304 L175.453416,26.6186335 C175.453416,30.4993789 172.556522,32.7950311 168.839752,32.7950311 C166.270807,32.7950311 163.537888,31.5925466 162.881988,28.9689441 C162.827329,28.8049689 162.936646,28.6409938 163.100621,28.5863354 L164.795031,28.0944099 C165.122981,27.9850932 165.396273,28.1490683 165.560248,28.4223602 C166.161491,29.6248447 167.418634,30.3354037 168.730435,30.3354037 C170.752795,30.3354037 172.720497,29.242236 172.720497,26.7279503 L172.720497,24.7055901 C171.736646,26.2906832 169.714286,26.7826087 168.730435,26.7826087 C165.232298,26.7826087 162.772671,23.8310559 162.772671,20.5515528 C162.772671,17.6 164.959006,14.2658385 168.785093,14.2658385 C170.370186,14.2658385 171.845963,15.0310559 172.775155,16.3428571 L172.775155,14.5937888 C172.775155,14.5391304 172.829814,14.5391304 172.829814,14.5391304 L172.829814,14.5391304 L175.344099,14.5391304 C175.398758,14.484472 175.453416,14.484472 175.453416,14.5391304 L175.453416,14.5391304 Z M172.775155,20.4968944 C172.775155,18.3652174 171.354037,16.6708075 169.113043,16.6708075 C166.87205,16.6708075 165.450932,18.3652174 165.450932,20.4968944 C165.450932,22.573913 166.87205,24.3229814 169.113043,24.3229814 C171.354037,24.3229814 172.775155,22.573913 172.775155,20.4968944 L172.775155,20.4968944 Z M163.920497,14.9217391 C164.029814,14.8124224 164.029814,14.5937888 163.920497,14.484472 C163.865839,14.4298137 163.756522,14.3751553 163.701863,14.3751553 C162.936646,14.3751553 162.335404,14.3751553 162.11677,14.3751553 C160.695652,14.3751553 159.438509,15.1403727 158.782609,16.3428571 L158.782609,14.5391304 C158.782609,14.484472 158.72795,14.484472 158.72795,14.484472 L156.213665,14.484472 C156.159006,14.484472 156.159006,14.5391304 156.159006,14.5391304 L156.159006,26.6186335 C156.159006,26.6732919 156.213665,26.6732919 156.213665,26.6732919 L156.213665,26.6732919 L158.782609,26.6732919 C158.837267,26.6732919 158.837267,26.6186335 158.837267,26.6186335 L158.837267,20.4968944 C158.837267,18.4198758 159.930435,17.1627329 162.007453,17.1627329 C162.11677,17.1627329 162.226087,17.1627329 162.335404,17.1627329 C162.608696,16.5614907 162.991304,15.9602484 163.48323,15.4136646 C163.537888,15.2496894 163.701863,15.0857143 163.920497,14.9217391 L163.920497,14.9217391 Z" id="Path_42" fill="#253858"></path>
                    <g id="Group_15" transform="translate(0.496845, 0.264547)">
                        <g id="Group_12" transform="translate(0.049739, 0.282037)" fill="#FF7F66">
                            <path d="M29.242236,1.03850932 L17.2173913,3.99006211 C16.9987578,4.0447205 16.7254658,3.99006211 16.5614907,3.88074534 L10.8770186,0.163975155 C10.6583851,8.67361738e-19 10.3850932,-0.0546583851 10.1664596,0.0546583851 L0.327950311,2.9515528 C0.10931677,3.00621118 0,3.17018634 0,3.33416149 L0,9.23726708 L10.1664596,6.2310559 C10.3850932,6.17639752 10.6583851,6.17639752 10.8770186,6.34037267 L16.5614907,10.0571429 C16.7801242,10.1664596 16.9987578,10.221118 17.2173913,10.1664596 L29.515528,7.16024845 L29.515528,1.20248447 C29.515528,1.0931677 29.4062112,0.983850932 29.242236,1.03850932 C29.2968944,1.03850932 29.242236,1.03850932 29.242236,1.03850932 Z" id="Path_35"></path>
                            <path d="M21.9726708,15.1950311 L17.2173913,16.3428571 C16.9987578,16.3975155 16.7254658,16.3428571 16.5614907,16.2335404 L10.8770186,12.5167702 C10.7677019,12.4621118 10.6583851,12.4621118 10.6037267,12.5714286 C10.6037267,12.626087 10.5490683,12.626087 10.5490683,12.6807453 L10.5490683,18.2559006 C10.5490683,18.4198758 10.6037267,18.5291925 10.7130435,18.5838509 L16.5614907,22.4099379 C16.7801242,22.5192547 16.9987578,22.573913 17.2173913,22.5192547 L22.2459627,21.3167702 C23.9403727,20.9341615 25.0881988,19.4037267 25.1428571,17.7093168 L25.1428571,17.6 C25.1428571,16.2335404 23.9950311,15.0857143 22.573913,15.1403727 C22.4099379,15.1403727 22.1913043,15.1403727 21.9726708,15.1950311 Z" id="Path_36"></path>
                            <path d="M21.9726708,27.6024845 L17.2173913,28.7503106 C16.9987578,28.8049689 16.7254658,28.7503106 16.5614907,28.6409938 L10.8770186,24.9242236 C10.7677019,24.8695652 10.6583851,24.8695652 10.6037267,24.978882 C10.6037267,25.0335404 10.5490683,25.0335404 10.5490683,25.0881988 L10.5490683,30.663354 C10.5490683,30.8273292 10.6037267,30.936646 10.7130435,30.9913043 L16.5614907,34.8173913 C16.7801242,34.9267081 16.9987578,34.9813665 17.2173913,34.9267081 L22.2459627,33.7242236 C23.9403727,33.3416149 25.0881988,31.8111801 25.1428571,30.1167702 L25.1428571,30.0074534 C25.1428571,28.6409938 23.9950311,27.4931677 22.573913,27.5478261 C22.4099379,27.5478261 22.1913043,27.5478261 21.9726708,27.6024845 Z" id="Path_37"></path>
                        </g>
                        <path d="M16.889441,22.847205 L16.889441,16.6708075 C16.9987578,16.6708075 17.1080745,16.6708075 17.2720497,16.6708075 L19.3490683,16.178882 L20.5515528,22.0819876 L17.2720497,22.9018634 C17.1627329,22.847205 17.0534161,22.847205 16.889441,22.847205 Z M21.7540373,27.9304348 L17.2720497,29.0236025 C17.1627329,29.0782609 17.0534161,29.0782609 16.889441,29.0236025 L16.889441,35.2 C16.9987578,35.2 17.1080745,35.2 17.2720497,35.2 L22.9565217,33.8335404 L21.7540373,27.9304348 Z M16.889441,10.4397516 C16.9987578,10.4397516 17.1080745,10.4397516 17.2720497,10.4397516 L18.1465839,10.221118 L16.9440994,4.26335404 L16.889441,10.4397516 Z" id="Path_38" fill="#2A344F" opacity="0.32"></path>
                        <g id="Group_13" opacity="0.16" transform="translate(10.591155, 0.294062)" fill="#2A344F">
                            <path d="M0,6.17639752 C0.10931677,6.17639752 0.21863354,6.2310559 0.327950311,6.28571429 L6.01242236,10.0571429 C6.12173913,10.1118012 6.2310559,10.1664596 6.34037267,10.1664596 L6.34037267,3.99006211 C6.2310559,3.99006211 6.12173913,3.93540373 6.01242236,3.88074534 L0.327950311,0.10931677 C0.21863354,0.0546583851 0.10931677,0 0,0 L0,6.17639752 Z" id="Path_39"></path>
                            <path d="M6.34037267,28.7503106 C6.2310559,28.7503106 6.12173913,28.6956522 6.01242236,28.6409938 L0.327950311,24.9242236 C0.21863354,24.8695652 0.10931677,24.8695652 0.0546583851,24.978882 C0,25.0335404 0,25.0335404 0,25.0881988 L0,30.663354 C0,30.8273292 0.0546583851,30.936646 0.163975155,30.9913043 L6.01242236,34.8173913 C6.12173913,34.8720497 6.2310559,34.9267081 6.34037267,34.9267081 L6.34037267,28.7503106 Z" id="Path_40"></path>
                            <path d="M0.327950311,12.5167702 C0.21863354,12.4621118 0.10931677,12.4621118 0.0546583851,12.5714286 C0,12.626087 0,12.626087 0,12.6807453 L0,18.2559006 C0,18.4198758 0.0546583851,18.5291925 0.163975155,18.5838509 L6.01242236,22.4099379 C6.12173913,22.4645963 6.2310559,22.5192547 6.34037267,22.5192547 L6.34037267,16.3428571 C6.2310559,16.3428571 6.12173913,16.2881988 6.01242236,16.2335404 L0.327950311,12.5167702 Z" id="Path_41"></path>
                        </g>
                    </g>
                </g>
            </g>
        </g>
    </g>
</svg>