<svg xmlns="http://www.w3.org/2000/svg" width="24" height="24" fill="none"><path fill="#fff" d="M19.383 20.713H4.617V22h14.766zM4.617 3.287V2h14.766v1.287zM4.617 3.287v1.33h-1.33v-1.33zM20.713 19.383v1.33h-1.33v-1.33zM20.713 4.617h-1.33v-1.33h1.33zM3.287 4.617v14.766H2V4.617zM22 4.617h-1.287v14.766H22zM3.287 19.383h1.33v1.33h-1.33zM18.524 5.477h-1.758v1.757h1.758zM8.093 9.383v5.234c-.361-.002-.851.042-1.193.002-.057-.007-.1-.005-.134-.06V9.44c.034-.056.077-.054.134-.06.342-.04.832.003 1.193.001M15.906 14.617V9.383c.361.002.851-.042 1.193-.002.057.007.1.005.134.06v5.118c-.034.056-.077.054-.134.06-.341.04-.832-.003-1.193-.001M8.094 14.617c.43.002.86-.001 1.29 0 0 .43-.003.86 0 1.29h-1.29zM9.384 8.093c-.002.43.001.861 0 1.29-.43.001-.86-.002-1.29 0v-1.29zM14.617 15.907c-.002.361.042.851.002 1.193-.007.057-.005.1-.06.134H9.44c-.056-.034-.054-.077-.06-.134-.04-.342.003-.832.001-1.193z"/><path fill="#fff" d="M15.907 14.618v1.29h-1.29q.002-.646 0-1.29c.43-.002.86.002 1.29 0M14.618 8.093h1.29v1.29c-.43-.002-.862.001-1.29 0-.002-.43.002-.86 0-1.29M14.617 8.093H9.381c.002-.361-.042-.851-.002-1.193.007-.057.005-.1.06-.134h5.118c.056.034.054.077.061.134.04.342-.004.832-.002 1.193"/></svg>