<svg width="59" height="24" viewBox="0 0 59 24" fill="none" xmlns="http://www.w3.org/2000/svg">
<path d="M13.1668 18.3182C12.7247 18.7285 12.0276 18.9255 11.1093 18.9255H5.85514V14.3464H11.1093C12.8607 14.3464 13.779 15.1342 13.779 16.6277C13.779 17.3663 13.5749 17.9407 13.1668 18.3182ZM16.2275 11.8845C18.0639 10.834 19.1012 9.02871 19.1012 6.81295C19.1012 4.89267 18.404 3.2514 17.0777 2.08611C16.3806 1.46242 15.4964 0.986464 14.4761 0.658204C13.4049 0.313544 12.1806 0.149414 10.8203 0.149414H5.85514V5.07321H10.7863C11.7045 5.07321 12.4016 5.28657 12.8607 5.7133C13.3539 6.17286 13.4559 6.79654 13.4559 7.22327C13.4559 9.01221 12.0105 9.37331 10.7863 9.37331H5.85514V5.07321H0.379883V23.8657H11.2454C13.864 23.8657 15.9044 23.242 17.3328 21.9946C18.6931 20.8129 19.4243 19.0732 19.4243 16.9888C19.4243 14.7567 18.251 12.8856 16.2275 11.8845Z" fill="#FAFCFF"/>
<path d="M20.292 5.61562H26.4474V0.133789H20.292V5.61562Z" fill="#FAFCFF"/>
<path d="M32.6027 0.149414V5.61483H26.4473V23.8329H32.6197V5.63124H40.1014V23.8657H46.2568V5.63124H53.7555V0.149414H32.6027Z" fill="#FAFCFF"/>
<path d="M52.123 23.8667H58.2785V18.3848H52.123V23.8667Z" fill="#00FF00"/>
</svg>
