<svg xmlns="http://www.w3.org/2000/svg" width="400" height="400" viewBox="0 0 400 400">
  <g fill="none">
    <path d="M0 0h400v400H0z"/>
    <path fill="#FEB600"
          d="M50 133.2v16.4l31 16.8 21.6-3 8 4.4-.2 104.1-15.2 2.1v32.8l15.1 8.2v6l31 16.9 6.4-1 24 13 30.3-4.2v-16.3l36.7-5.2 23.9 13 30.3-4.3v-16.3l15.2-2.1v-32.8L278 265.3v-12l15.2-2.2v-16.3l15.1-2.1v-16.4l.2-65.4-31-17-15.2 2.2-112.5 15.8-8-4.3v-6l-31-17-60.7 8.6Zm106.8 55.3L262 173.7v27.8l-15.2 2.2V220l-15.2 2.2v16.3l-75 10.6v-60.6Zm-15.4 100.3 15.2-2.1 105.3-14.8v11.4l-120.5 17v-11.5ZM220.2 38l-30.3 4.3v10.3l-15.2-8.2-30.3 4.3V65l-.1 16.4 15.2 8.2v6l15.1 8.2v6l31.1 16.9 15.1-2.1v-16.4l15.2-2.1V89.7l15.2-2.1V54.9z"/>
    <path fill="#00C052"
          d="M293.1 283.9v16.3l-151.6 21.3v16.4l30.3-4.3-.1 16.4 30.4-4.3v-16.3l60.6-8.6v16.4l30.3-4.3v-16.3l15.2-2.1v-16.4l.1-16.4zM141.6 288.8l-.1 32.7-15.2 2.2.1-32.8zM81.2 150v16.4l45.4-6.3v16.3l15.2-2.1-.2 114.5 15.1-2.1 121.3-17v-16.4l15.2-2.2v-16.3l15.2-2.1v-16.4l.1-65.4-15.2 2L157 172.3v-16.4l-15.1 2.1v-16.3L81.2 150Zm75.7 38.5 136.4-19.2v49.1l-15.2 2.2v16.3l-15.2 2.1v16.4l-106.2 15 .2-81.9Z"/>
    <path fill="#F65800"
          d="M251.2 54.9v32.7L236 89.7v16.4l-15.2 2.1v16.4l-15.1 2.1v-16.3l-15.2 2.1.1-16.4-15.2 2.2V81.9l.1-16.4 30.3-4.2-.1 16.3 15.2-2.1V59.2z"/>
  </g>
</svg>
