<svg viewBox="0 0 280 240" xmlns="http://www.w3.org/2000/svg">
  <g>
    <path
      d="M81 53h13V40H81zM188 53h13V40h-13zM94 67h14V53H94zM108 53h13V40h-13zM161 53h13V40h-13zM121 40h13V27h-13zM108 27h13V13h-13zM148 40h13V27h-13zM148 27h13V13h-13zM108 13h13V0h-13zM121 13h13V0h-13zM134 13h14V0h-14zM174 67h14V53h-14zM108 80h13V67h-13zM121 80h13V67h-13zM134 80h14V67h-14zM148 80h13V67h-13zM161 80h13V67h-13zM68 67h13V53H68zM68 80h13V67H68zM68 93h13V80H68zM201 67h13V53h-13zM201 80h13V67h-13zM201 93h13V80h-13zM54 107h14V93H54zM54 120h14v-13H54zM54 133h14v-13H54zM41 133h13v-13H41zM94 120h14v-13H94zM94 187h14v-14H94zM94 200h14v-13H94z"/>
    <path d="M94 200h14v-13H94zM94 213h14v-13H94zM94 227h14v-14H94zM174 187h14v-14h-14zM174 200h14v-13h-14z"/>
    <path
      d="M174 200h14v-13h-14zM174 213h14v-13h-14zM174 227h14v-14h-14zM108 240h13v-13h-13zM161 240h13v-13h-13zM121 240h13v-13h-13zM121 227h13v-14h-13zM121 213h13v-13h-13zM148 240h13v-13h-13zM148 227h13v-14h-13zM148 213h13v-13h-13zM134 200h14v-13h-14zM174 120h14v-13h-14zM134 133h14v-13h-14zM148 147h13v-14h-13zM121 147h13v-14h-13zM134 147h14v-14h-14zM41 160h13v-13H41zM54 147h14v-14H54zM214 107h14V93h-14zM214 120h14v-13h-14zM214 133h14v-13h-14zM214 147h14v-14h-14zM68 160h13v-13H68zM201 160h13v-13h-13zM81 173h13v-13H81zM94 173h14v-13H94zM108 173h13v-13h-13zM121 173h13v-13h-13zM134 173h14v-13h-14zM148 173h13v-13h-13zM161 173h13v-13h-13zM174 173h14v-13h-14zM228 133h13v-13h-13zM228 160h13v-13h-13zM188 173h13v-13h-13z"/>
  </g>
</svg>
