<svg width="1229" height="125" xmlns="http://www.w3.org/2000/svg">
  <g fill="#2F2D5A" class="level-1">
    <path d="M89 36H71v53h36V36zM143 36h-18v53h36V36zM196 36h-18v53h36V36z"/>
  </g>
  <g fill="#2F2D5A" class="level-2">
    <path d="M285 36h-18v53h36V36zM339 36h-18v53h36V36zM392 36h-18v53h36V36z"/>
  </g>
  <g fill="#2F2D5A" class="level-3">
    <path
      d="M481 36h-18v53h36V36zM535 36h-18v53h36V36zM588 36h-18v53h36V36zM642 36h-18v53h36V36zM695 36h-18v53h36V36zM749 36h-18v53h36V36z"/>
  </g>
  <g fill="#2F2D5A" class="level-4">
    <path d="M838 36h-18v53h36V36zM891 36h-18v53h36V36zM945 36h-18v53h36V36z"/>
  </g>
  <g fill="#2F2D5A" class="level-5">
    <path d="M1034 36h-18v53h36V36zM1087 36h-18v53h36V36zM1141 36h-18v53h36V36z"/>
  </g>
  <path fill="#6C6AA3"
        d="M1176 18v89h17.7V89.2h17.6V71.4h17.7V53.6h-17.7V35.8h-17.6V18zM53 0v17.9h178.3V107H53V125H1176v-17.9H997.7V18H1176V0H53Zm748.7 89.3V17.9H979.9V107H801.7V89.3Zm-356.5 0V17.9H783.8V107H445.2V89.3Zm-196.1 0V17.9H427.3V107H249.1V89.3ZM35.3 18v17.8H17.7v17.8H0v17.8h17.7v17.8h17.6V107H53V18z"/>
</svg>
