<svg xmlns="http://www.w3.org/2000/svg" viewBox="0 0 210 62" width="210" height="62">
  <g fill="none" fill-rule="evenodd">
    <path fill="#141228" d="M15.5 15.5V7.7h178.8v7.8h7.8v30.9h-7.8v7.7H15.5v-7.7H7.8V15.5z"/>
    <path fill="#F65800"
          d="M7.8 15.5h7.7V7.7H7.8zm0 38.6h7.7v-7.7H7.8zm186.5 0h7.8v-7.7h-7.8zM0 15.5v30.9h7.8V15.5zm202.1 0v30.9h7.8V15.5zM15.5 0v7.7h178.8V0zm171.1 54.1H15.5v7.7h178.8v-7.7zm7.7-38.6h7.8V7.7h-7.8z"/>
    <path fill="#DBDAE8" fill-rule="nonzero"
          d="M46.8 38.3c1 0 1.6-.2 2.1-.6.5-.3.8-.8 1-1.3h.3V38h2.6v-7.4h-6.3v2.6H50c0 .8-.2 1.3-.7 1.8-.4.4-1 .6-1.8.6-1.9 0-2.8-1-2.8-3.4v-3c0-1.3.2-2.2.8-2.8.5-.5 1.1-.7 1.9-.7.8 0 1.5.2 2 .6.4.5.6 1.2.6 2v.3h2.8v-.3a6 6 0 0 0-.4-2 4.8 4.8 0 0 0-2.7-2.9c-.7-.3-1.4-.4-2.3-.4a5.4 5.4 0 0 0-3.9 1.5c-.5.5-.9 1.2-1.2 1.9-.2.7-.4 1.6-.4 2.5v3.5c0 1 .1 1.8.4 2.5.3.8.6 1.4 1 1.9a4.7 4.7 0 0 0 3.4 1.5Zm13.6 0c.7 0 1.3 0 1.8-.2l1.3-.6.9-.8.5-.8-2.3-1.3a2 2 0 0 1-.7.8c-.4.3-.9.4-1.6.4a2.9 2.9 0 0 1-1.7-.6 2.1 2.1 0 0 1-.8-1.5h7.7v-1.5a5.3 5.3 0 0 0-1.3-3.2 5 5 0 0 0-3.9-1.7 5.4 5.4 0 0 0-3.7 1.5 5 5 0 0 0-1.1 1.6c-.3.7-.4 1.4-.4 2.2v.1c0 1 .1 1.7.4 2.4a4.7 4.7 0 0 0 2.8 2.8c.6.3 1.3.4 2 .4Zm2.4-7h-5c.2-.4.5-.8.9-1.1.4-.3 1-.5 1.6-.5.7 0 1.2.1 1.7.5.4.3.7.7.8 1.2ZM77.2 38v-2.5h-2.9c-.3 0-.5-.2-.5-.6V30h3.7v-2.5h-3.7v-4.3H71v4.3h-3V30h3v6.3c0 .4.2.8.5 1.1.3.3.7.5 1.2.5h4.4Zm25.7 0v-2.5H100c-.4 0-.6-.2-.6-.6V30h3.7v-2.5h-3.7v-4.3h-2.7v4.3h-3V30h3v6.3c0 .4.2.8.5 1.1.3.3.7.5 1.2.5h4.4Zm9-11.5c.3 0 .5 0 .8-.2.2 0 .4-.2.6-.4l.5-.6.1-.8a2 2 0 0 0-2-2c-.3 0-.5 0-.8.2-.2 0-.4.2-.6.4l-.4.6a2 2 0 0 0-.2.8 2 2 0 0 0 2 2Zm4.4 11.5v-2.5h-3v-8h-6v2.6h3.3v5.4h-3.5V38h9.2Zm8.4.3c1.4 0 2.6-.4 3.5-1.1a5 5 0 0 0 1.7-3l-2.6-.7a3 3 0 0 1-.8 1.7c-.4.4-1 .6-1.9.6-.4 0-.7 0-1-.2a2.5 2.5 0 0 1-1.5-1.4 3.4 3.4 0 0 1 0-2.6c.1-.4.3-.7.6-1a2.6 2.6 0 0 1 2-.8c.7 0 1.4.2 1.8.7.5.4.7 1 .8 1.6l2.6-.7a5 5 0 0 0-1.7-3c-.9-.7-2-1.1-3.5-1.1a6 6 0 0 0-2.2.4 5.1 5.1 0 0 0-3.3 5v.3c0 .8.1 1.6.4 2.2a4.7 4.7 0 0 0 3 2.7c.6.3 1.3.4 2 .4ZM136 38v-4h.5l3 4h3v-.1l-3.7-5v-.4l3.4-4.8v-.1h-3l-2.7 3.8h-.5v-8.1h-2.7V38h2.7Zm14.2.3c.7 0 1.3 0 1.8-.2l1.3-.6 1-.8.4-.8-2.2-1.3a2 2 0 0 1-.8.8c-.3.3-.8.4-1.5.4a2.9 2.9 0 0 1-1.7-.6 2.1 2.1 0 0 1-.8-1.5h7.6v-1.5a5.3 5.3 0 0 0-1.2-3.2 5 5 0 0 0-3.9-1.7 5.4 5.4 0 0 0-3.7 1.5 5 5 0 0 0-1.1 1.6c-.3.7-.4 1.4-.4 2.2v.1c0 1 0 1.7.3 2.4a4.7 4.7 0 0 0 2.8 2.8 5 5 0 0 0 2.1.4Zm2.4-7h-4.9c.2-.4.4-.8.8-1.1.5-.3 1-.5 1.7-.5s1.2.1 1.7.5c.4.3.7.7.7 1.2ZM167 38v-2.5h-2.8c-.4 0-.6-.2-.6-.6V30h3.8v-2.5h-3.8v-4.3H161v4.3h-3V30h3v6.3c0 .4.1.8.5 1.1.3.3.6.5 1.1.5h4.4Z"/>
  </g>
</svg>
