<svg width="85" height="150" xmlns="http://www.w3.org/2000/svg">
  <g fill="none" fill-rule="evenodd">
    <path fill="#2562E7" d="M71.8 53.1v13.1h13.1v-6.5h-6.5v-6.6zM13.1 46.6h6.5V40h-6.5zM13.1 53.1H0v6.6h13.1v6.5H6.5v13.1h6.6v-6.6h6.5V53.1zM13.1 79.3v6.5h13v-6.5h-6.5zM32.7 59.7h-6.6v13h6.6v-6.5h6.5v-6.5h-6.5zM32.7 46.6V33.5h-6.6v19.6h13.1v-6.5zM58.8 53.1h6.5v-6.5h6.5V40h-13v-6.5h-6.6v6.6h6.6v6.5H45.7v6.5h6.5zM58.8 59.7h-6.6v6.5h13.1v-6.5zM65.3 72.7h6.5v-6.5h-6.5zM32.7 85.8h6.5v-6.5h-6.5zM45.7 72.7v6.6h6.5v6.5h6.6V72.7h-6.6zM65.3 79.3v6.5h13.1V72.7h-6.6v6.6z"/>
    <path d="M19.6 27v6.5H13V40H6.5v6.6H0V53h19.6v19.6H13v6.6H6.5V66.2h6.6v-6.5H0v32.7h13.1v6.5h26.1V85.8h-6.5v-6.5h6.5V66.2h-6.5v6.5H26v-13h13.1V53H26V33.5h6.6v13.1h6.5V27H19.6ZM13 46.6h6.5V40H13v6.5Zm6.5 32.7H26v6.5h-13v-6.5h6.5ZM78.4 66.2h-6.6v6.5h6.6v13.1H65.3v-6.5h6.5v-6.6h-6.5v-6.5H45.7v6.5h13.1v13.1h-6.6v-6.5h-6.5v19.6h32.7v-6.5h6.5V66.2zM45.7 27v19.6h13.1V40h13v6.5h-6.5V53H45.7v6.6h19.6v6.5h6.5V53.1h6.6v6.6h6.5V46.6h-6.5V40h-6.6v-6.5h-6.5V27H45.7Zm6.5 13h6.6v-6.5h-6.6V40Z" fill="#00C052"/>
    <path fill="#463CA3" d="M78.4 98.9h6.5v-6.5h-6.5zM6.5 92.4H0v6.5h13.1v-6.5zM39.2 40V98.9H13.1v6.6h26.1v6.5h19.6v-6.5h19.6v-6.6H45.7V66.2h6.5v-6.5h-6.5V40z"/>
  </g>
</svg>
