<svg xmlns="http://www.w3.org/2000/svg" viewBox="0 0 324.1 401.3">
  <defs>
    <style>
      .d,.e{fill:#e93b1a}.g{fill:#fdb52b}.h{fill:#fde376}.i{fill:#cc361d}.j{fill:#ad8562}.k{fill:#7a3a3a}.l{fill:#4c2c2a}.e{opacity:.4}
    </style>
  </defs>
  <g id="b">
    <g id="c">
      <path d="M47.3 138.2h228.6v107H47.3z" class="l"/>
      <path d="M47.3 173.7h228.6v12.1H47.3z" class="k"/>
      <path d="M23.8 245.2h275.6v12.2H23.8z" class="g"/>
      <path d="M59.8 269.4h204.4v96.5H59.8z" class="k"/>
      <path d="M59.8 269.4h12.4v35.8H59.8z" class="l"/>
      <path d="M156.4 172.8h11.2v204.4h-11.2z" class="l" transform="rotate(-90 162 275)"/>
      <path d="M59.8 330.1h12.4v35.8H59.8zM107.7 342.2h12.4v23.7h-12.4zM251.8 342.2h12.4v23.7h-12.4zM203.6 269.4H216v34.5h-12.4zM107.8 269.4h12.4v59h-12.4zM203.7 318.3h12.4v47.6h-12.4zM251.8 269.4h12.4V317h-12.4z" class="l"/>
      <path d="M47.3 113.9h228.6v11.8H47.3z" class="k"/>
      <path d="M47.3 125.6h228.6v12.6H47.3z" class="d"/>
      <path d="M47.3 210.1h228.6v12.1H47.3z" class="k"/>
      <path d="M47.3 197.9h228.6V210H47.3z" class="i"/>
      <path d="M47.3 149.1h228.6v24.6H47.3z" class="d"/>
      <path d="M23.8 149.1h23.5v108.3H23.8zM275.9 149.1h23.5v108.3h-23.5z" class="g"/>
      <path d="M23.8 257.4h275.6v12.1H23.8z" class="d"/>
      <path d="M72.3 102.4h35.4v142.5H72.3zM215.6 102.4H251v142.5h-35.4zM36.6 269.4h23.3v119.5H36.6zM264.2 269.4h23.3v119.5h-23.3z" class="g"/>
      <path d="M36.6 365.9h250.9v23H36.6z" class="g"/>
      <path d="M36.6 388.9h250.9v12.4H36.6zM36.6 269.4h23.3v11.2H36.6zM264.2 269.4h23.3v11.2h-23.3z" class="i"/>
      <path d="M155.7 293.6h12.2v12.2h-12.2zM227.3 136.8h12.2V149h-12.2zM83.9 136.8h12.2V149H83.9zM23.8 245.2H36v12.2H23.8z" class="h"/>
      <path d="M287.2 245.2h12.2v12.2h-12.2z" class="h" transform="rotate(-180 293.3 251.3)"/>
      <path d="M275.1 245.2h12.2v12.2h-12.2z" class="h" transform="rotate(-180 281.1 251.3)"/>
      <path d="M262.9 245.2h12.2v12.2h-12.2z" class="h" transform="rotate(-180 269 251.3)"/>
      <path d="M287.2 233.1h12.2v12.2h-12.2z" class="h" transform="rotate(-180 293.3 239.1)"/>
      <path d="M287.2 220.9h12.2v12.2h-12.2z" class="h" transform="rotate(-180 293.3 227)"/>
      <path d="M287.2 208.8h12.2V221h-12.2z" class="h" transform="rotate(-180 293.3 214.8)"/>
      <path d="M167.9 293.6h11.9v12.2h-11.9zM143.8 293.6h11.9v12.2h-11.9z" class="j"/>
      <path d="M143.8 269.4h36v24.1h-36zM0 220.2h11.9v60.3H0z" class="g"/>
      <path d="M11.9 220.2h11.9v11.9H11.9z" class="d"/>
      <path d="M0 268.6h11.9v11.9H0z" class="e"/>
      <path d="M0 280.5h36.6v11.9H0z" class="d"/>
      <path d="M12.3 292.9h36.6v11.9H12.3z" class="d" transform="rotate(-90 30.6 298.8)"/>
      <path d="M312.1 220.2H324v60.3h-11.9z" class="g" transform="rotate(-180 318.1 250.4)"/>
      <path d="M312.1 268.6H324v11.9h-11.9z" class="e"/>
      <path d="M299.4 220.2h12.8v11.9h-12.8z" class="d" transform="rotate(-180 305.8 226.1)"/>
      <path d="M287.5 280.5h36.6v11.9h-36.6z" class="d" transform="rotate(-180 305.8 286.5)"/>
      <path d="M275.1 292.9h36.6v11.9h-36.6z" class="d" transform="rotate(-90 293.4 298.8)"/>
      <path d="M72.3 222.1h35.4v23.1H72.3zM215.6 222.1H251v23.1h-35.4z" class="d"/>
      <path fill="#e3b996" d="M132.5 317.9h59v22.9h-59z"/>
      <path d="M72.3 149.1h35.4v24.6H72.3zM215.6 149.1H251v24.6h-35.4z" class="h"/>
      <path d="M132.4 340.7h59v35.5h-59z" class="j"/>
      <path d="M156 352.5h11.9v11.9H156z" class="l"/>
      <path d="M155.7 305.7h12.2v12.2h-12.2z" class="d"/>
      <path d="M143.8 305.7h11.9v23.2h-11.9zM167.9 305.7h11.9v23.2h-11.9z" class="l"/>
      <g>
        <path d="M145.1 0h8.4v8.4h-8.4zM145.1 41.9h8.4v8.4h-8.4zM136.7 8.4h8.4v33.4h-8.4zM153.6 8.4h8.4v8.4h-8.4zM162 8.4h8.4v8.4H162zM170.5 8.4h8.4v33.4h-8.4z" class="d"/>
        <path d="M178.9 8.4h8.4v33.4h-8.4zM145.1 8.4h8.4v33.4h-8.4z" class="h"/>
        <path d="M162 33.4h8.4v25.3H162z" class="h" transform="rotate(-90 166.2 46)"/>
        <path d="M162-8.4h8.4v25.3H162z" class="h" transform="rotate(-90 166.2 4.2)"/>
        <path d="M153.6 16.9h16.9v25h-16.9z" class="g"/>
      </g>
    </g>
  </g>
</svg>
