<svg viewBox="0 0 280 240" xmlns="http://www.w3.org/2000/svg">
  <g>
    <path
      d="M136 0v27h13V0zM149 53h13V27h-13v13zM136 40V27h-14v26h14zM162 80h14V53h-14v14zM122 67V53h-13v27h13zM136 120v-13h-14v26h14zM162 120v-13h-13v26h13zM242 80h-66v13h66v14h14V80zM229 120h13v-13h-13zM216 133h13v-13h-13zM202 147v26h14v-40h-14zM56 133h13v-13H56zM42 120h14v-13H42zM96 80H29v27h13V93h67V80zM82 160v-27H69v40h13zM216 187h13v-14h-13zM229 213h13v-26h-13v13zM56 187h13v-14H56zM56 200v-13H42v26h14zM242 213v14h-26v13h40v-27zM202 213h-26v14h40v-14zM162 200h-13v13h27v-13zM136 200h13v-13h-13zM109 160h13v-13h-13zM136 160h-14v13h40v-13h-13zM162 160h14v-13h-14zM109 200v13h27v-13h-14zM82 213H69v14h40v-14H96zM29 213v27h40v-13H42v-14z"/>
  </g>
</svg>
