<svg xmlns="http://www.w3.org/2000/svg" viewBox="0 0 177 279">
  <g>
    <path fill="#F9CB70" d="M26.3 145.6v48.5h12.1v-60.7H26.3z"/>
    <path fill="#FDB50F"
          d="M38.4 157.7v36.4h36.4v-24.3H62.7v-12.1h12.1v-12.1H62.7v-12.2H38.4v12.2zm-24.3-12.1v48.5h12.2v-60.7H14.1z"/>
    <path fill="#69A6FF" d="M26.3 121.3v12.1h12.1v-24.2H26.3z"/>
    <path fill="#8FBAF9" d="M26.3 48.5v60.7h12.1V36.4H26.3z"/>
    <path fill="#4080F2"
          d="M38.4 242.6v12.1h12.1v-36.3H38.4v12.1zM26.3 109.2H14.1v24.2h12.2v-12.1zm12.1-60.7v84.9h36.4v-12.1H62.7v-12.1H50.5V36.4H38.4z"/>
    <path fill="#5592FF"
          d="M38.4 254.7V279h12.1v-24.3zm12.1-194v48.5h24.3V97H62.7V84.9h12.1V72.8H62.7V60.7h12.1V36.4H50.5v12.1zM14.1 48.5v60.7h12.2V36.4H14.1z"/>
    <path fill="#2A66E3"
          d="M26.3 218.4h36.4v-24.3H26.3v12.1zm36.4-48.6h12.1v-12.1H62.7zm0-24.2h12.1v-12.2H62.7zm0-24.3h12.1v-12.1H62.7zm0-24.3h12.1V84.9H62.7zm0-24.2h12.1V60.7H62.7zM14.1 0v12.1h24.3v24.3h12.1V12.1h24.3V0z"/>
    <path fill="#F9CB70" d="M151.7 133.4V84.9h-12.1v60.7h12.1z"/>
    <path fill="#FDB50F"
          d="M139.6 121.3V84.9h-36.4v24.3h12.1v12.1h-12.1v12.1h12.1v12.2h24.3v-12.2zm24.3 12.1V84.9h-12.2v60.7h12.2z"/>
    <path fill="#69A6FF" d="M151.7 157.7v-12.1h-12.1v24.2h12.1z"/>
    <path fill="#8FBAF9" d="M151.7 230.5v-60.7h-12.1v72.8h12.1z"/>
    <path fill="#4080F2"
          d="M139.6 36.4V24.3h-12.1v36.4h12.1V48.5zm12.1 133.4h12.2v-24.2h-12.2v12.1zm-12.1 60.7v-84.9h-36.4v12.1h12.1v12.1h12.2v72.8h12.1z"/>
    <path fill="#5592FF"
          d="M127.5 0v24.3h12.1V0zm0 218.4v-48.6h-24.3V182h12.1v12.1h-12.1v12.1h12.1v12.2h-12.1v24.2h24.3v-12.1zm36.4 12.1v-60.7h-12.2v72.8h12.2z"/>
    <path fill="#2A66E3"
          d="M151.7 60.7h-36.4v24.2h36.4V72.8zm-48.5 60.6h12.1v-12.1h-12.1zm0 24.3h12.1v-12.2h-12.1zm0 24.2h12.1v-12.1h-12.1zm0 24.3h12.1V182h-12.1zm0 24.3h12.1v-12.2h-12.1zm24.3 24.2v24.3h-24.3V279h60.7v-12.1h-24.3v-24.3z"/>
    <path fill="#FFF" d="M14.1 109.2h12.2V97H14.1z"/>
    <path fill="#141227" d="M26.3 109.2h12.1V97H26.3zm0 12.1h12.1v-12.1H26.3zm-12.2 0h12.2v-12.1H14.1z"/>
    <path fill="#F35916" d="M14.1 133.4h12.2v-12.1H14.1z"/>
    <path fill="#141227"
          d="M38.4 145.6h12.1v-12.2H38.4zm12.1-36.4h12.2V97H50.5zm0 12.1h12.2v-12.1H50.5zm12.2 0h12.1v-12.1H62.7z"/>
    <path fill="#F35916" d="M62.7 133.4h12.1v-12.1H62.7zm12.1 0h12.1v-12.1H74.8z"/>
    <path fill="#FFF" d="M62.7 109.2h12.1V97H62.7z"/>
    <path fill="#F35916" d="M2 133.4h12.1v-12.1H2z"/>
    <path fill="#FFF" d="M151.7 182h12.2v-12.2h-12.2z"/>
    <path fill="#141227" d="M139.6 182h12.1v-12.2h-12.1zm0-12.2h12.1v-12.1h-12.1zm12.1 0h12.2v-12.1h-12.2z"/>
    <path fill="#F35916" d="M151.7 157.7h12.2v-12.1h-12.2z"/>
    <path fill="#141227"
          d="M127.5 145.6h12.1v-12.2h-12.1zM115.3 182h12.2v-12.2h-12.2zm0-12.2h12.2v-12.1h-12.2zm-12.1 0h12.1v-12.1h-12.1z"/>
    <path fill="#F35916" d="M103.2 157.7h12.1v-12.1h-12.1zm-12.1 0h12.1v-12.1H91.1z"/>
    <path fill="#FFF" d="M103.2 182h12.1v-12.2h-12.1z"/>
    <path fill="#F35916" d="M163.9 157.7H176v-12.1h-12.1z"/>
  </g>
</svg>
