<svg width="186" height="186" viewBox="0 0 186 186" fill="none" xmlns="http://www.w3.org/2000/svg">
<g clip-path="url(#clip0_906_47)">
<path fill-rule="evenodd" clip-rule="evenodd" d="M83.8639 96.6353L84.6201 98.9291C84.007 99.4162 82.842 100.066 81.2886 100.066C77.9574 100.066 75.5864 97.7517 75.5864 94.524C75.5864 91.2963 78.0188 88.921 81.2682 88.921C82.842 88.921 83.9456 89.53 84.6404 90.058L83.8432 92.4127C83.3735 91.9865 82.5559 91.3976 81.3499 91.3976C79.5312 91.3976 78.4068 92.7985 78.4068 94.5038C78.4068 96.3104 79.6742 97.5894 81.4523 97.5894C82.5352 97.5895 83.3938 97.0208 83.8639 96.6353ZM85.5596 85.1246H88.3799V99.8021H85.5596V85.1246ZM95.1243 88.921C98.3941 88.921 100.888 91.3165 100.888 94.524C100.888 97.7315 98.4762 100.066 95.1243 100.066C91.7928 100.066 89.3812 97.7315 89.3812 94.524C89.3812 91.2963 91.8749 88.921 95.1243 88.921ZM95.1243 97.5895C96.8204 97.5895 98.0674 96.3306 98.0674 94.524C98.0674 92.717 96.8204 91.3976 95.1243 91.3976C93.4279 91.3976 92.2015 92.6968 92.2015 94.524C92.2015 96.3306 93.4482 97.5895 95.1243 97.5895ZM101.786 95.3155V89.185H104.607V95.6404C104.607 96.8177 105.424 97.5487 106.385 97.5487C107.55 97.5487 108.285 96.6963 108.285 95.5593V89.185H111.106V99.8021H108.347V98.5638C107.897 99.2947 106.875 100.066 105.486 100.066C102.44 100.066 101.786 97.5689 101.786 95.3155ZM123.062 99.8021H120.405V98.7059C120.119 99.0509 119.056 100.066 117.237 100.066C114.171 100.066 112.005 97.7719 112.005 94.5038C112.005 91.2147 114.008 88.921 117.073 88.921C118.913 88.921 119.976 89.9361 120.241 90.3014V82.4745H123.062L123.062 99.8021ZM117.584 91.3976C115.95 91.3976 114.846 92.6766 114.846 94.524C114.846 96.4117 115.99 97.5895 117.584 97.5895C119.301 97.5895 120.323 96.2087 120.323 94.524C120.323 92.5346 119.138 91.3976 117.584 91.3976ZM124.635 82.4745H127.455V90.3014C127.721 89.9361 128.783 88.921 130.623 88.921C133.689 88.921 135.691 91.2147 135.691 94.5038C135.691 97.7719 133.525 100.066 130.459 100.066C128.64 100.066 127.578 99.0509 127.292 98.7058V99.8021H124.635L124.635 82.4745ZM130.112 97.5895C131.706 97.5895 132.85 96.4117 132.85 94.524C132.85 92.6766 131.747 91.3976 130.112 91.3976C128.559 91.3976 127.373 92.5346 127.373 94.524C127.373 96.2087 128.395 97.5895 130.112 97.5895ZM140.207 93.0016C141.291 93.0016 142.129 93.3261 142.517 93.59V92.8998C142.517 91.9659 141.822 91.3366 140.576 91.3366C139.513 91.3366 138.532 91.6817 137.734 92.0878L136.672 90.1795C137.632 89.53 139.247 88.921 140.882 88.921C144.315 88.921 145.337 90.7074 145.337 93.0827V99.8021H142.844L142.66 99.1119C142.108 99.7008 141.291 100.066 140.064 100.066C137.898 100.066 136.059 98.7466 136.059 96.5134C136.059 94.4223 137.714 93.0016 140.207 93.0016ZM140.739 97.8938C141.802 97.8938 142.578 97.3255 142.578 96.4323C142.578 95.4983 141.802 94.9502 140.719 94.9502C139.635 94.9502 138.879 95.5593 138.879 96.4323C138.879 97.3049 139.676 97.8938 140.739 97.8938ZM146.073 98.0968L147.728 96.6353C148.259 97.2444 148.975 97.7925 150.181 97.7925C150.978 97.7925 151.489 97.4474 151.489 96.8383C151.489 95.2142 146.441 95.8434 146.441 92.0676C146.441 90.0983 148.137 88.921 150.324 88.921C152.347 88.921 153.471 89.9764 153.982 90.8087L152.122 92.1895C151.795 91.7834 151.202 91.1744 150.201 91.1744C149.547 91.1744 149.098 91.4993 149.098 92.0268C149.098 93.7119 154.166 92.8998 154.166 96.6962C154.166 98.7668 152.367 100.066 150.058 100.066C147.953 100.066 146.645 99.0102 146.073 98.0968ZM159.704 88.921C163.015 88.921 164.895 91.1134 164.895 94.5849C164.895 94.788 164.895 94.991 164.875 95.194H157.354C157.415 96.6147 158.56 97.6298 160.133 97.6298C161.584 97.6298 162.422 96.7774 162.729 96.3306L164.589 97.7315C164.18 98.4827 162.749 100.066 160.092 100.066C156.659 100.066 154.472 97.7109 154.472 94.524C154.472 91.3165 156.659 88.921 159.704 88.921ZM162.034 93.3668C161.973 92.0676 161.033 91.2147 159.745 91.2147C158.417 91.2147 157.558 92.1487 157.436 93.3668H162.034ZM129.513 86.4226L130.244 85.7773C130.478 86.0462 130.794 86.2879 131.326 86.2879C131.678 86.2879 131.904 86.1356 131.904 85.8666C131.904 85.1497 129.675 85.4277 129.675 83.7603C129.675 82.891 130.424 82.3713 131.39 82.3713C132.283 82.3713 132.779 82.837 133.005 83.2047L132.184 83.8142C132.039 83.6351 131.778 83.3662 131.335 83.3662C131.047 83.3662 130.848 83.5095 130.848 83.7426C130.848 84.4863 133.086 84.128 133.086 85.804C133.086 86.7183 132.292 87.2919 131.272 87.2919C130.343 87.2919 129.765 86.8257 129.513 86.4226ZM135.847 82.3713C137.291 82.3713 138.392 83.4288 138.392 84.845C138.392 86.2612 137.327 87.2919 135.847 87.2919C134.376 87.2919 133.311 86.2612 133.311 84.845C133.311 83.4197 134.412 82.3713 135.847 82.3713ZM135.847 86.1986C136.596 86.1986 137.147 85.6426 137.147 84.845C137.147 84.0473 136.596 83.4646 135.847 83.4646C135.098 83.4646 134.557 84.0382 134.557 84.845C134.557 85.6426 135.107 86.1986 135.847 86.1986ZM138.923 80.6948H140.169V87.1754H138.923V80.6948ZM140.935 85.1946V82.4878H142.181V85.3379C142.181 85.8576 142.542 86.1804 142.966 86.1804C143.48 86.1804 143.805 85.804 143.805 85.3021V82.4878H145.05V87.1754H143.832V86.6285C143.634 86.9513 143.182 87.2919 142.569 87.2919C141.224 87.2919 140.935 86.1895 140.935 85.1946ZM145.925 81.5015H147.152V82.4878H148.037V83.4914H147.152V85.3021C147.152 86.0013 147.369 86.1446 147.847 86.1446C147.929 86.1446 147.974 86.1446 148.073 86.1356V87.1935C148.073 87.1935 147.883 87.238 147.541 87.238C146.413 87.238 145.917 86.6108 145.917 85.3379V83.4914H145.42V82.4878H145.925V81.5015ZM149.246 80.6503C149.661 80.6503 149.977 80.9551 149.977 81.3582C149.977 81.7618 149.661 82.0665 149.246 82.0665C148.84 82.0665 148.524 81.7618 148.524 81.3582C148.524 80.9551 148.84 80.6503 149.246 80.6503ZM148.632 82.4878H149.877V87.1754H148.632V82.4878ZM152.954 82.3713C154.398 82.3713 155.499 83.4288 155.499 84.845C155.499 86.2612 154.434 87.2919 152.954 87.2919C151.483 87.2919 150.419 86.2612 150.419 84.845C150.419 83.4197 151.52 82.3713 152.954 82.3713ZM152.954 86.1986C153.703 86.1986 154.254 85.6426 154.254 84.845C154.254 84.0473 153.703 83.4646 152.954 83.4646C152.205 83.4646 151.664 84.0382 151.664 84.845C151.664 85.6426 152.214 86.1986 152.954 86.1986ZM160.145 84.4686V87.1754H158.9V84.3253C158.9 83.8052 158.539 83.4827 158.115 83.4827C157.601 83.4827 157.276 83.8591 157.276 84.3611V87.1754H156.031V82.4878H157.249V83.0343C157.448 82.7118 157.899 82.3713 158.512 82.3713C159.857 82.3713 160.145 83.4737 160.145 84.4686ZM160.588 86.4226L161.319 85.7773C161.553 86.0462 161.869 86.2879 162.401 86.2879C162.753 86.2879 162.979 86.1356 162.979 85.8666C162.979 85.1497 160.75 85.4277 160.75 83.7603C160.75 82.891 161.499 82.3713 162.465 82.3713C163.358 82.3713 163.854 82.837 164.08 83.2047L163.258 83.8142C163.114 83.6351 162.853 83.3662 162.41 83.3662C162.122 83.3662 161.923 83.5095 161.923 83.7426C161.923 84.4863 164.161 84.128 164.161 85.804C164.161 86.7183 163.367 87.2919 162.347 87.2919C161.418 87.2919 160.84 86.8257 160.588 86.4226Z" fill="#171725"/>
<path fill-rule="evenodd" clip-rule="evenodd" d="M68.0764 93.3056C68.0114 90.6283 65.7501 88.3821 63.0547 88.3176C62.2027 88.2971 61.3509 88.2971 60.4988 88.3176C60.4953 88.3177 60.4917 88.318 60.4881 88.3181C60.5465 85.8685 60.5024 83.4205 60.3506 80.9681C60.1962 78.4733 58.025 76.3167 55.5134 76.1633C51.9471 75.9455 48.3903 75.9456 44.824 76.1633C42.3124 76.3167 40.1412 78.4733 39.9868 80.9681C39.9491 81.5776 39.9203 82.1868 39.8956 82.7958C39.5459 82.7058 39.184 82.6515 38.8136 82.6407C37.7789 82.6103 36.7447 82.609 35.71 82.6366C33.5786 82.6935 31.7075 84.1421 31.0092 86.0749C29.3411 86.0161 27.6745 86.0174 26.0059 86.0858C23.3971 86.1926 21.1773 88.3917 21.0628 90.9827C20.9816 92.822 20.9791 94.659 21.0555 96.4985C21.163 99.0899 23.3769 101.295 25.9854 101.408C26.635 101.437 27.2842 101.452 27.9333 101.461C27.9548 102.948 28.0123 104.435 28.1081 105.924C28.2667 108.39 30.4319 110.541 32.915 110.699C36.7797 110.944 40.633 110.944 44.4976 110.699C46.9807 110.541 49.1459 108.39 49.3045 105.924C49.3166 105.736 49.3254 105.548 49.3362 105.36C49.9098 105.62 50.5338 105.777 51.1822 105.805C53.0653 105.885 54.946 105.885 56.8292 105.805C59.4378 105.693 61.6535 103.493 61.7657 100.901C61.7664 100.883 61.7666 100.866 61.7674 100.848C62.1965 100.848 62.6255 100.843 63.0547 100.832C65.7501 100.768 68.0114 98.5217 68.0764 95.8444C68.0969 94.998 68.097 94.152 68.0764 93.3056Z" fill="#5FA3E0"/>
<path fill-rule="evenodd" clip-rule="evenodd" d="M36.1798 89.4973C37.4149 89.4631 38.6496 89.4535 39.8845 89.4694C39.8015 87.2443 39.8053 85.0212 39.8956 82.7958C39.546 82.7057 39.184 82.6515 38.8137 82.6406C37.779 82.6103 36.7448 82.609 35.7101 82.6366C33.5787 82.6935 31.7076 84.1421 31.0093 86.0749C31.1925 86.0813 31.3757 86.085 31.559 86.093C33.6416 86.1838 35.4714 87.6081 36.1798 89.4973Z" fill="#007AFF"/>
<path fill-rule="evenodd" clip-rule="evenodd" d="M28.1081 94.4188C28.2167 92.7313 29.2647 91.1921 30.7109 90.3374C30.6915 89.4184 30.6919 88.4998 30.7192 87.5808C30.7347 87.0582 30.8368 86.552 31.0092 86.0749C29.3411 86.0161 27.6745 86.0174 26.0059 86.0857C23.3971 86.1926 21.1773 88.3917 21.0628 90.9827C20.9816 92.822 20.9791 94.659 21.0555 96.4985C21.163 99.0899 23.3769 101.295 25.9854 101.408C26.635 101.437 27.2842 101.452 27.9333 101.461C27.8994 99.1144 27.957 96.7687 28.1081 94.4188Z" fill="#444E6E"/>
<path fill-rule="evenodd" clip-rule="evenodd" d="M30.7108 90.3374C31.3784 89.9429 32.1306 89.6939 32.9149 89.6441C34.0039 89.575 35.0919 89.5275 36.1796 89.4973C35.4712 87.6081 33.6414 86.1838 31.5587 86.093C31.3755 86.0851 31.1923 86.0813 31.0091 86.0749C30.8367 86.552 30.7346 87.0582 30.7191 87.5808C30.6918 88.4998 30.6914 89.4185 30.7108 90.3374Z" fill="#243053"/>
<path fill-rule="evenodd" clip-rule="evenodd" d="M68.0765 93.3056C68.0115 90.6283 65.7502 88.3821 63.0548 88.3176C62.2027 88.2971 61.351 88.2971 60.4989 88.3176C60.4953 88.3177 60.4918 88.318 60.4882 88.3181C60.4623 89.4069 60.4181 90.4959 60.3507 91.5859C60.3423 91.7207 60.327 91.8543 60.3071 91.9868C61.1589 92.8667 61.7112 94.0329 61.7657 95.2922C61.8459 97.1448 61.8461 98.9951 61.7675 100.848C62.1966 100.848 62.6256 100.843 63.0548 100.832C65.7502 100.768 68.0115 98.5217 68.0765 95.8444C68.097 94.998 68.0971 94.152 68.0765 93.3056Z" fill="#53A2F7"/>
<path fill-rule="evenodd" clip-rule="evenodd" d="M61.7658 95.2922C61.7113 94.0329 61.159 92.8667 60.3072 91.9868C59.96 94.3048 57.8946 96.2406 55.5223 96.3899C55.5194 96.3901 55.5165 96.3905 55.5135 96.3907C53.4783 96.5149 51.4461 96.5658 49.4135 96.5482C49.5327 99.4863 49.5071 102.42 49.3364 105.36C49.91 105.62 50.534 105.777 51.1824 105.805C53.0655 105.885 54.9462 105.885 56.8293 105.805C59.438 105.693 61.6536 103.493 61.7658 100.901C61.7666 100.883 61.7668 100.866 61.7676 100.848C61.8462 98.995 61.8461 97.1448 61.7658 95.2922Z" fill="#007AFF"/>
<path fill-rule="evenodd" clip-rule="evenodd" d="M43.7912 87.598C43.8092 88.2673 43.8104 88.9364 43.8037 89.6055C44.035 89.6184 44.2662 89.6294 44.4976 89.6441C45.9267 89.7348 47.2495 90.4863 48.1461 91.5775C48.9906 90.8801 50.0491 90.4372 51.1821 90.3888C52.9628 90.3128 54.7413 90.3112 56.5216 90.379C57.4449 89.1685 58.8896 88.3599 60.4881 88.3181C60.5464 85.8685 60.5023 83.4205 60.3505 80.9681C60.1961 78.4733 58.025 76.3167 55.5133 76.1633C51.947 75.9455 48.3903 75.9456 44.824 76.1633C42.3123 76.3167 40.1412 78.4733 39.9868 80.9682C39.9491 81.5776 39.9202 82.1868 39.8955 82.7958C42.055 83.352 43.7297 85.3262 43.7912 87.598Z" fill="#444E6E"/>
<path fill-rule="evenodd" clip-rule="evenodd" d="M39.8842 89.4695C41.1901 89.4864 42.4964 89.5325 43.8036 89.6055C43.8103 88.9364 43.8091 88.2673 43.7911 87.598C43.7296 85.3262 42.0549 83.352 39.8954 82.7958C39.805 85.0212 39.8013 87.2443 39.8842 89.4695Z" fill="#243053"/>
<path fill-rule="evenodd" clip-rule="evenodd" d="M56.5215 90.379C56.624 90.3829 56.7265 90.3845 56.829 90.3888C58.1698 90.4461 59.4059 91.0563 60.3069 91.9868C60.3267 91.8543 60.342 91.7207 60.3504 91.5859C60.4178 90.4959 60.462 89.4069 60.4879 88.3181C58.8895 88.3599 57.4447 89.1686 56.5215 90.379Z" fill="#2E3859"/>
<path fill-rule="evenodd" clip-rule="evenodd" d="M56.8291 90.3888C56.7265 90.3845 56.6241 90.3829 56.5216 90.379C54.7412 90.3112 52.9627 90.3128 51.182 90.3888C50.0491 90.4372 48.9906 90.8801 48.146 91.5776C48.8073 92.3824 49.2371 93.3718 49.3044 94.4188C49.3501 95.129 49.3845 95.8387 49.4132 96.5482C51.4458 96.5658 53.478 96.515 55.5132 96.3907C55.5162 96.3905 55.5191 96.3901 55.522 96.3899C57.8943 96.2406 59.9598 94.3048 60.307 91.9868C59.406 91.0563 58.1699 90.4461 56.8291 90.3888Z" fill="#243053"/>
<path fill-rule="evenodd" clip-rule="evenodd" d="M46.2455 100.901C46.1815 99.4215 46.1702 97.9432 46.2075 96.4639C45.7464 96.4431 45.2852 96.4189 44.8238 96.3907C43.5275 96.3116 42.3227 95.6979 41.4383 94.7805C40.6661 95.2894 39.7579 95.5994 38.7961 95.6251C38.0342 95.6454 37.2726 95.6446 36.5109 95.6336C36.5019 95.9286 36.4943 96.2236 36.4813 96.5188C36.3668 99.1099 34.147 101.309 31.5382 101.416C30.3359 101.465 29.1346 101.478 27.9331 101.461C27.9546 102.948 28.0121 104.435 28.1079 105.924C28.2665 108.39 30.4317 110.541 32.9148 110.699C36.7795 110.944 40.6328 110.944 44.4974 110.699C46.9805 110.541 49.1457 108.39 49.3043 105.924C49.3164 105.736 49.3251 105.548 49.336 105.36C47.602 104.575 46.3298 102.849 46.2455 100.901Z" fill="#53A2F7"/>
<path fill-rule="evenodd" clip-rule="evenodd" d="M39.8843 89.4694C38.6494 89.4535 37.4148 89.463 36.1797 89.4973C36.3586 89.9743 36.4671 90.4805 36.4888 91.0029C36.5529 92.5473 36.5581 94.0899 36.5111 95.6335C37.2727 95.6446 38.0343 95.6454 38.7962 95.6251C39.758 95.5994 40.6663 95.2893 41.4385 94.7804C40.6092 93.9202 40.0614 92.793 39.9868 91.5859C39.9431 90.88 39.9105 90.1747 39.8843 89.4694Z" fill="#A8D2FF"/>
<path fill-rule="evenodd" clip-rule="evenodd" d="M31.5384 101.416C34.1472 101.309 36.367 99.1099 36.4814 96.5188C36.4944 96.2236 36.5021 95.9286 36.5111 95.6336C36.2383 95.6296 35.9654 95.629 35.6926 95.621C33.0353 95.5431 30.7864 93.3034 30.715 90.6637C30.712 90.5549 30.7131 90.4462 30.7108 90.3374C29.2646 91.1921 28.2166 92.7314 28.1081 94.4188C27.9569 96.7687 27.8993 99.1144 27.9332 101.461C29.1348 101.478 30.3361 101.465 31.5384 101.416Z" fill="#A8D2FF"/>
<path fill-rule="evenodd" clip-rule="evenodd" d="M36.4889 91.0029C36.4673 90.4805 36.3587 89.9743 36.1798 89.4973C35.0921 89.5275 34.0041 89.5749 32.9151 89.6441C32.1308 89.6938 31.3786 89.9428 30.7109 90.3374C30.7132 90.4461 30.7122 90.5549 30.7151 90.6636C30.7865 93.3033 33.0354 95.5431 35.6927 95.621C35.9656 95.629 36.2384 95.6296 36.5112 95.6335C36.5582 94.0899 36.553 92.5473 36.4889 91.0029Z" fill="#79B9FF"/>
<path fill-rule="evenodd" clip-rule="evenodd" d="M49.4134 96.5482C48.3452 96.539 47.2768 96.5123 46.2078 96.4639C46.1705 97.9432 46.1817 99.4215 46.2458 100.901C46.3301 102.849 47.6023 104.575 49.3363 105.36C49.507 102.42 49.5327 99.4863 49.4134 96.5482Z" fill="#A8D2FF"/>
<path fill-rule="evenodd" clip-rule="evenodd" d="M49.3045 94.4188C49.2371 93.3718 48.8073 92.3824 48.146 91.5776C47.2494 90.4863 45.9266 89.7348 44.4975 89.6441C44.2662 89.6294 44.035 89.6185 43.8037 89.6055C42.4964 89.5325 41.1902 89.4864 39.8843 89.4695C39.9105 90.1747 39.9431 90.8801 39.9867 91.5859C40.0614 92.7931 40.6092 93.9203 41.4384 94.7805C42.3229 95.698 43.5276 96.3116 44.8239 96.3907C45.2853 96.4189 45.7465 96.4431 46.2076 96.464C47.2766 96.5124 48.345 96.539 49.4133 96.5483C49.3845 95.8387 49.3501 95.129 49.3045 94.4188Z" fill="#79B9FF"/>
</g>
<defs>
<clipPath id="clip0_906_47">
<rect width="144" height="35" fill="white" transform="translate(21 76)"/>
</clipPath>
</defs>
</svg>
