<svg fill="none" height="186" width="186" xmlns="http://www.w3.org/2000/svg">
  <path
    d="M46.864 90.51c-.767.597-.937 1.794-.256 2.563.596.769 1.788.854 2.554.256l.086-.085c.085-.086 1.702-1.368 1.958-4.017-2.554-.256-4.087 1.026-4.342 1.197v.085Zm1.106 4.87c-1.021 0-2.043-.427-2.724-1.282-1.192-1.453-.937-3.674.51-4.956.512-.427 2.81-2.136 6.557-1.453l.68.171v.684c-.084 4.016-2.639 5.981-2.724 6.067h-.085c-.596.513-1.362.769-2.214.769ZM40.733 97.944l-1.703-.428c1.107-4.529.426-11.194-1.532-15.467l1.532-.769c2.129 4.614 2.895 11.793 1.703 16.664Z"
    fill="#000" />
  <path
    d="M34.603 72.136c-2.129 3.76-2.044 9.999.255 14.1.852 1.624 2.555 3.59 5.364 3.59h.085c2.64-1.111 3.15-3.419 3.15-5.128 0-4.187-3.575-10.083-8.854-12.562Zm5.62 19.398c-2.81 0-5.28-1.623-6.897-4.529-2.725-4.87-2.555-12.22.255-16.407l.426-.598.596.256c5.79 2.393 10.472 8.888 10.558 14.442 0 3.162-1.533 5.555-4.343 6.751l-.17.085H40.222ZM62.7 117h-9.28v-1.709h7.577V76.324H53.42v-1.71H62.7V117ZM27.28 117H18V74.615h9.28v1.709h-7.577v38.967h7.578V117ZM29.58 98.884h23.67v-1.71H29.58v1.71Z"
    fill="#000" />
  <path d="M29.58 103.413h17.284v-1.624H29.58v1.624Z" fill="#30C45D" />
  <path
    d="M31.197 108.027H41.84v-1.709H31.197v1.709ZM31.197 112.642h15.667v-1.709H31.197v1.709ZM81.176 96.406c.596 0 1.022-.086 1.533-.257.51-.17.936-.513 1.277-.854.425-.428.68-.94.936-1.539.256-.598.34-1.367.34-2.221 0-.855-.084-1.624-.255-2.222-.17-.684-.425-1.282-.766-1.71-.34-.512-.851-.854-1.447-1.11-.596-.257-1.363-.342-2.214-.342h-2.554v10.255h3.15Zm.255-13.331c1.107 0 2.044.17 2.98.512.852.342 1.703.855 2.3 1.538.68.684 1.191 1.453 1.617 2.479.34 1.025.51 2.222.51 3.589 0 1.11-.17 2.222-.425 3.247-.34 1.026-.766 1.88-1.362 2.564-.681.769-1.448 1.367-2.299 1.709-.937.427-2.043.683-3.32.683H74.45V83.075h6.981ZM97.609 90.338c-.426-.427-.937-.598-1.788-.598-.511 0-.937.085-1.278.256-.34.171-.596.342-.766.599a2.278 2.278 0 0 0-.51.854c0 .256-.086.513-.086.77h5.28c-.171-.855-.427-1.454-.852-1.88Zm-3.661 6.238c.51.428 1.192.684 2.128.684.596 0 1.192-.17 1.703-.513.426-.342.681-.683.851-1.025h2.81c-.426 1.453-1.107 2.393-2.129 3.076-.936.598-2.043.855-3.405.855-.852 0-1.703-.086-2.47-.428-.766-.256-1.362-.683-1.873-1.281a5.075 5.075 0 0 1-1.192-1.966c-.34-.769-.425-1.538-.425-2.478 0-.855.085-1.71.425-2.478.256-.77.682-1.368 1.193-1.966.596-.512 1.192-.94 1.958-1.281.68-.342 1.532-.513 2.384-.513 1.021 0 1.873.17 2.64.598a6.7 6.7 0 0 1 1.872 1.538 10.47 10.47 0 0 1 1.022 2.222c.17.855.256 1.71.17 2.65h-8.429c0 1.025.256 1.794.767 2.306ZM105.697 99.396l-4.087-11.792h3.406l2.469 8.032h.085l2.47-8.032h3.235l-4.002 11.792h-3.576ZM121.278 90.766c.426 0 .767 0 1.192-.086.341-.085.681-.17 1.022-.342.255-.17.511-.427.681-.769.17-.342.256-.769.256-1.282 0-.512-.086-.854-.256-1.196a2.016 2.016 0 0 0-.681-.77c-.341-.17-.681-.255-1.022-.341-.425-.085-.766-.085-1.192-.085h-2.809v4.87h2.809Zm1.022-7.691c.937 0 1.873.17 2.554.512a4.921 4.921 0 0 1 1.703 1.111c.511.513.852 1.026 1.022 1.71.17.597.34 1.281.34 1.88 0 .683-.17 1.367-.34 1.965a3.985 3.985 0 0 1-1.022 1.709 4.921 4.921 0 0 1-1.703 1.11c-.681.343-1.617.513-2.554.513h-3.831v5.811h-3.576V83.075h7.407ZM129.367 99.396h3.235V83.075h-3.235v16.321ZM142.138 93.585c-.085.171-.255.257-.511.342-.17 0-.425.086-.596.171-.255 0-.51.086-.766.086-.255 0-.511.085-.766.085-.256.085-.511.171-.766.171-.171.085-.426.256-.596.342-.171.17-.341.256-.426.513-.085.17-.17.427-.17.769 0 .256.085.512.17.683.085.171.255.342.426.513.17.085.425.17.681.17.255.086.511.086.766.086.596 0 1.107-.085 1.447-.342.341-.17.596-.427.767-.683a4.18 4.18 0 0 0 .34-.94v-1.966Zm-7.407-2.392c0-.77.17-1.368.511-1.88.34-.513.766-.855 1.277-1.197.511-.341 1.107-.512 1.788-.683.596-.086 1.277-.171 1.958-.171.596 0 1.192.085 1.788.17.596.086 1.107.257 1.618.428.511.256.936.598 1.277 1.025.255.428.426 1.026.426 1.71v6.152c0 .513.085 1.026.085 1.538.085.513.17.855.34 1.111h-3.235c-.085-.17-.17-.427-.17-.598-.085-.17-.085-.342-.085-.598-.511.598-1.107.94-1.788 1.196a9.792 9.792 0 0 1-2.214.257c-.511 0-1.022-.086-1.533-.171-.511-.171-.936-.342-1.277-.684-.34-.256-.681-.598-.851-1.025-.171-.513-.341-1.026-.341-1.624 0-.684.17-1.196.341-1.624a3.64 3.64 0 0 1 .936-1.025c.426-.256.852-.513 1.277-.598.511-.171.937-.257 1.448-.342.511-.085.936-.085 1.447-.17.426 0 .852-.086 1.277-.172.341-.085.596-.256.852-.427.17-.171.255-.427.255-.77 0-.341 0-.597-.17-.854a1.023 1.023 0 0 0-.426-.427 5.79 5.79 0 0 0-.681-.256h-.766c-.681 0-1.192.085-1.533.341-.34.342-.596.77-.596 1.368h-3.235ZM150.482 87.604v1.623h.085c.426-.683.937-1.196 1.618-1.453a3.943 3.943 0 0 1 1.958-.512c.852 0 1.618.17 2.129.342.596.256 1.022.598 1.277 1.025.341.427.596.94.681 1.538.17.598.256 1.197.256 1.966v7.263h-3.236v-6.665c0-.94-.17-1.71-.511-2.222-.255-.427-.851-.684-1.617-.684-.852 0-1.533.257-1.874.77-.425.512-.596 1.367-.596 2.649v6.152h-3.235V87.604h3.065ZM166.915 87.604v2.136h-2.384v5.896c0 .513.085.855.255 1.026.17.17.596.342 1.107.342.17 0 .34-.086.511-.086.17 0 .34 0 .511-.085v2.563c-.341 0-.596.086-.937.086h-1.022c-.425 0-.936 0-1.362-.086-.426-.085-.851-.17-1.192-.427-.341-.17-.596-.427-.851-.854-.171-.342-.256-.77-.256-1.368V89.74h-1.958v-2.136h1.958V84.1h3.236v3.504h2.384ZM76.153 109.651c-.341 0-.682-.086-.937-.342s-.51-.513-.596-.854a5.067 5.067 0 0 1-.17-1.197c0-.342.085-.769.17-1.111.17-.342.34-.598.596-.854.255-.257.596-.342.937-.342.34 0 .596.085.851.256.17.086.34.342.51.598l-.595.342c-.17-.427-.426-.598-.766-.598a.774.774 0 0 0-.596.256c-.17.257-.256.428-.341.684 0 .256-.085.513-.085.769 0 .513.085.94.255 1.282.17.342.426.513.767.513a.772.772 0 0 0 .596-.257c.17-.171.17-.427.17-.683v-.171h-.766v-.598H77.6v.512c0 .599-.085 1.026-.34 1.368-.341.256-.682.427-1.107.427ZM80.92 106.147c.341 0 .597.086.767.171v1.197h-.681v-.684h-.085c-.34 0-.596.085-.852.171-.17.171-.34.427-.34.769v1.196h1.022v.598h-2.3v-.598h.682v-2.136h-.681v-.598h1.277v.598c.085-.256.255-.342.51-.513.17-.085.426-.171.682-.171ZM83.39 108.711c.17.256.425.342.68.342.341 0 .512-.086.682-.342.17-.171.255-.427.255-.769s-.085-.684-.255-.855c-.17-.171-.34-.342-.681-.342-.256 0-.511.171-.681.342-.17.171-.256.428-.256.855 0 .342.085.598.255.769Zm1.873.513c-.34.256-.681.427-1.192.427-.426 0-.852-.171-1.107-.427-.34-.342-.426-.769-.426-1.282 0-.598.085-1.026.426-1.282.255-.342.68-.513 1.107-.513.51 0 .851.171 1.192.513.255.256.425.684.425 1.282 0 .513-.17.94-.425 1.282ZM87.05 109.565l-.85-3.332h.595l.511 1.965v.257c.085-.171.085-.257.085-.257l.426-1.965h.51l.427 1.965s.085.086.085.342c0-.171 0-.256.085-.342l.425-1.965h.596l-.85 3.332h-.512l-.425-1.88c0-.256-.086-.341-.086-.341v.171c-.085.085-.085.17-.085.17l-.425 1.88h-.511ZM94.544 110.847l.425-1.367-1.192-3.247h.681l.767 2.136c0 .086.085.256.085.342 0-.086.085-.171.085-.342l.852-2.136h.68l-1.787 4.614h-.596ZM98.63 108.711c.17.256.426.342.681.342.341 0 .511-.086.681-.342.171-.171.256-.427.256-.769s-.085-.684-.255-.855c-.17-.171-.341-.342-.682-.342-.255 0-.51.171-.68.342-.086.171-.171.428-.171.855 0 .342.085.598.17.769Zm1.873.513c-.34.256-.68.427-1.192.427-.425 0-.851-.171-1.107-.427a2.105 2.105 0 0 1-.425-1.282c0-.598.17-1.026.425-1.282.256-.342.682-.513 1.107-.513.511 0 .852.171 1.192.513.256.256.426.684.426 1.282 0 .513-.17.94-.426 1.282ZM103.143 109.651c-.767 0-1.192-.513-1.192-1.453v-1.965h.681v1.88c0 .342 0 .598.17.683.085.171.256.257.511.257.511 0 .766-.342.766-.855v-1.965h.681v3.332h-.681v-.341c-.17.256-.511.427-.936.427ZM108.166 106.147c.341 0 .596.086.767.171v1.197h-.596v-.684h-.171c-.34 0-.596.085-.851.171-.17.171-.255.427-.255.769v1.196h.936v.598h-2.299v-.598h.681v-2.136h-.681v-.598h1.277v.598c.086-.256.256-.342.511-.513.256-.085.426-.171.681-.171ZM114.637 109.651c-.425 0-.766-.171-1.021-.427a2.1 2.1 0 0 1-.426-1.282c0-.598.17-1.026.426-1.282.255-.342.596-.513 1.107-.513.596 0 1.021.342 1.277.855l-.681.256c-.086-.342-.341-.513-.596-.513-.341 0-.511.171-.682.342-.085.171-.17.513-.17.855 0 .342.085.598.17.769.171.256.341.342.596.342.426 0 .596-.171.767-.513l.596.171c-.171.598-.681.94-1.363.94ZM117.958 108.711c.085.256.34.342.596.342.34 0 .596-.086.681-.342.17-.171.255-.427.255-.769s-.085-.684-.255-.855c-.085-.171-.341-.342-.681-.342-.256 0-.511.171-.596.342-.171.171-.256.428-.256.855 0 .342.085.598.256.769Zm1.788.513c-.256.256-.682.427-1.192.427-.426 0-.852-.171-1.107-.427a2.1 2.1 0 0 1-.426-1.282c0-.598.17-1.026.426-1.282.255-.342.681-.513 1.107-.513.51 0 .936.171 1.192.513.255.256.425.684.425 1.282 0 .513-.17.94-.425 1.282ZM122.556 109.053c.34 0 .596-.171.766-.428v-1.452c-.17-.257-.426-.428-.766-.428-.256 0-.511.171-.596.342-.171.171-.256.428-.256.855 0 .342.085.598.256.769.17.256.34.342.596.342Zm-.086.598c-.425 0-.766-.171-1.021-.427a2.1 2.1 0 0 1-.426-1.282c0-.598.17-1.026.426-1.282a1.211 1.211 0 0 1 1.021-.513c.341 0 .682.171.852.342v-1.282l.681-.342v4.7h-.681v-.256c-.17.256-.511.342-.852.342ZM126.898 105.635s-.171.085-.256.085c-.085 0-.17-.085-.255-.085-.085-.086-.171-.171-.171-.342 0-.086.086-.171.171-.257.085-.085.17-.085.255-.085.085 0 .256 0 .256.085.085.086.17.171.17.257 0 .171-.085.256-.17.342Zm.085 3.332h.936v.598h-2.469v-.598h.852v-2.136h-.852v-.598h1.533v2.734ZM130.814 106.147c.767 0 1.192.513 1.192 1.453v1.965h-.681v-1.88c0-.598-.255-.94-.681-.94-.511 0-.766.342-.766.855v1.965h-.681v-3.332h.596v.427c.085-.171.255-.256.425-.342.171-.085.341-.171.596-.171ZM134.561 109.053c.34 0 .596-.171.766-.428v-1.452c-.17-.257-.426-.428-.766-.428-.256 0-.426.171-.596.342-.171.171-.256.428-.256.855 0 .342.085.598.256.769.17.256.34.342.596.342Zm-.171 1.88-.34-.513c.511-.085.766-.171.936-.256.256-.171.341-.342.341-.599v-.256c-.255.256-.511.342-.851.342-.426 0-.767-.171-1.022-.427-.256-.342-.341-.769-.341-1.282 0-.598.085-1.026.341-1.282a1.212 1.212 0 0 1 1.022-.513c.34 0 .596.171.851.342v-.256h.596v3.076c0 .598-.085.94-.341 1.196-.255.257-.681.342-1.192.428ZM141.883 109.651c-.256 0-.511-.086-.766-.171-.256-.085-.426-.256-.596-.427l.51-.342c.256.256.511.342.852.342.17 0 .34 0 .426-.086.085 0 .17-.171.17-.256 0-.171-.256-.342-.766-.598h-.086c-.17-.086-.255-.171-.425-.171l-.256-.257c-.17-.085-.255-.17-.255-.256-.085-.085-.085-.256-.085-.342 0-.256.085-.512.34-.683.256-.171.511-.257.852-.257.511 0 .936.171 1.192.513l-.426.427c-.17-.256-.511-.342-.766-.342-.171 0-.341 0-.426.086-.085.085-.17.171-.17.256 0 .171.255.342.766.513.17.085.255.085.341.171.085 0 .17.085.255.085.17.086.255.171.341.257 0 0 .085.085.085.256.085.086.085.171.085.342 0 .256-.085.513-.341.684-.17.17-.511.256-.851.256ZM146.651 109.565l-1.022-1.88-.511.513v1.367h-.681v-4.358l.681-.342v2.564l1.192-1.196h.766l-.936.94 1.192 2.392h-.681ZM150.227 105.635c-.085 0-.17.085-.341.085-.085 0-.17-.085-.255-.085-.085-.086-.085-.171-.085-.342 0-.086 0-.171.085-.257.085-.085.17-.085.255-.085.171 0 .256 0 .341.085 0 .086.085.171.085.257 0 .171-.085.256-.085.342Zm0 3.332h.936v.598h-2.469v-.598h.852v-2.136h-.852v-.598h1.533v2.734ZM154.143 108.967h1.022v.598h-2.554v-.598h.936v-3.503h-.766l-.341-.599h1.703v4.102ZM158.145 108.967h1.022v.598h-2.554v-.598h.936v-3.503h-.766l-.341-.599h1.703v4.102ZM161.892 109.651c-.256 0-.511-.086-.767-.171-.255-.085-.425-.256-.596-.427l.511-.342c.256.256.511.342.852.342.17 0 .34 0 .425-.086.085 0 .171-.171.171-.256 0-.171-.256-.342-.682-.598h-.085c-.255-.086-.34-.171-.511-.171l-.255-.257c-.17-.085-.255-.17-.255-.256-.086-.085-.086-.256-.086-.342 0-.256.086-.512.341-.683.255-.171.511-.257.851-.257.511 0 .937.171 1.192.513l-.425.427c-.171-.256-.426-.342-.767-.342-.17 0-.34 0-.425.086-.085.085-.171.171-.171.256 0 .171.256.342.767.513.17.085.255.085.34.171.085 0 .171.085.256.085.17.086.255.171.34.257 0 0 .085.085.085.256.086.086.086.171.086.342 0 .256-.086.513-.341.684-.17.17-.511.256-.851.256Z"
    fill="#000" />
</svg>
