<svg width="255" height="255" viewBox="0 0 255 255" fill="none" xmlns="http://www.w3.org/2000/svg">
<g clip-path="url(#clip0_208_82)">
<path d="M45.2163 136.976L52.6698 119.069H58.2274V142.416H54.5636V122.641L46.3287 142.541H43.6934L35.5402 122.765V142.416H32V119.069H37.8047L45.2163 136.976Z" fill="black"/>
<path d="M78.2857 138.637C77.5023 140.299 75.2402 142.875 71.4923 142.875C66.4269 142.875 62.9683 139.011 62.9683 133.693V121.895H66.7557V132.987C66.7557 136.851 68.9386 139.386 72.3972 139.386C75.8558 139.386 78.2857 136.769 78.2857 132.987V121.895H82.0337V142.419H78.2857V138.637Z" fill="black"/>
<path d="M109.371 142.416H104.553C99.8162 142.416 97.4305 140.131 97.4305 135.562V125.3H92.96V121.892H97.4305V116.718H101.179V121.892H109.371V125.3H101.179V134.688C101.179 137.679 102.125 138.926 105.379 138.926H109.374V142.416H109.371Z" fill="black"/>
<path d="M131.079 142.791H128.073L118.479 121.895H122.679L129.677 137.722L136.637 121.895H140.506L131.077 142.791H131.079Z" fill="black"/>
<path d="M161.22 132.613H144.298C144.503 136.435 147.222 139.428 151.215 139.428C155.207 139.428 156.938 137.225 157.267 136.562H160.972C160.644 138.348 158.048 142.918 151.215 142.918C144.916 142.918 140.508 138.181 140.508 132.157C140.508 126.133 144.913 121.396 150.842 121.396C156.77 121.396 161.217 125.883 161.217 132.613H161.22ZM144.545 129.455H157.061C156.115 126.34 153.932 124.636 150.844 124.636C147.551 124.636 145.326 126.465 144.545 129.455Z" fill="black"/>
<path d="M168.6 142.416H164.853V121.895H168.6V125.676C169.176 124.179 170.907 121.73 175.683 121.73H177.88V125.511H175.601C170.372 125.511 168.602 127.173 168.602 130.829V142.421L168.6 142.416Z" fill="black"/>
<path d="M186.123 133.401C182.212 132.945 179.453 131.074 179.453 127.295C179.453 123.516 182.83 121.313 187.812 121.313C194.689 121.313 196.912 124.885 197.569 126.963H193.575C193.122 126.422 191.599 124.554 187.809 124.554C184.722 124.554 183.157 125.676 183.157 127.17C183.157 128.665 184.188 129.538 186.615 129.829C188.22 130.036 189.209 130.121 190.979 130.328C195.797 130.952 197.854 133.027 197.854 136.809C197.854 140.258 194.724 143 188.961 143C181.797 143 179.285 138.555 178.833 136.686H182.828C183.033 137.35 184.68 139.677 188.964 139.677C192.422 139.677 194.111 138.43 194.111 136.811C194.111 135.192 193.246 134.234 190.487 133.903L186.123 133.404V133.401Z" fill="black"/>
<path d="M112.174 112H116.085V117.942H112.174V112ZM112.256 121.888H116.003V142.412H112.256V121.888Z" fill="black"/>
<path d="M86.7754 115.584H90.5234V142.412H86.7754V115.584Z" fill="black"/>
<path d="M212.9 124.512L222 119.641L220.47 116.694L212.138 120.071C211.923 120.158 211.685 120.158 211.47 120.071L203.138 116.694L201.608 119.641L210.708 124.512L201.608 129.383L203.138 132.329L211.47 128.952C211.685 128.865 211.923 128.865 212.138 128.952L220.47 132.329L222 129.383L212.9 124.512Z" fill="#23F7DD"/>
</g>
<defs>
<clipPath id="clip0_208_82">
<rect width="190" height="31" fill="white" transform="translate(32 112)"/>
</clipPath>
</defs>
</svg>
