<svg fill="none" height="96" viewBox="0 0 101 96" width="101" xmlns="http://www.w3.org/2000/svg">
<path d="M78.7499 92.1433C78.4093 92.739 78.4128 92.3164 78.2881 92.2587C78.3689 92.3083 78.609 92.1017 78.7499 92.1433Z" fill="currentColor"/>
<path d="M23.45 89.488C23.5712 89.5077 23.8506 89.3218 23.9106 89.3726C23.9383 89.3957 23.8899 89.5504 23.9106 89.6035C23.8321 89.5319 23.4939 89.7328 23.4615 89.7028C23.4188 89.6635 23.4696 89.5077 23.4488 89.488H23.45Z" fill="currentColor"/>
<path d="M24.0264 89.9499C23.5796 90.0203 23.9536 89.6428 23.9109 89.6035C23.9652 89.7421 23.994 89.7605 24.0264 89.9499Z" fill="currentColor"/>
<path d="M21.6024 17.6784C21.5874 17.7292 21.1556 17.7431 21.1406 17.7939C21.1613 17.7719 21.0828 17.5849 21.2029 17.5572C21.323 17.5295 21.6428 17.5433 21.6024 17.6784Z" fill="currentColor"/>
<path d="M9.24921 89.719C9.41661 89.9199 9.61056 89.3057 9.58632 89.2699C9.56323 89.2364 9.0033 88.9847 8.86707 88.8889C5.89309 86.7889 3.99625 83.2065 4.17058 79.5028C4.19136 79.0688 4.71435 76.7909 4.61968 76.6836C4.58389 76.642 3.86348 76.4469 3.5991 76.2622C1.87659 75.0603 1.77962 73.1162 0.921825 71.4352C0.755578 71.1108 0.321487 70.6733 0.244136 70.4955C0.154085 70.2877 0.316869 70.3477 0.418465 70.3281C1.23238 70.1711 2.07286 70.1237 2.87408 69.8951L6.47611 69.5164C0.161012 68.8134 -1.91824 59.9999 3.95007 57.0017C5.31815 56.3032 8.44337 55.9061 9.14068 57.6725C10.0354 59.9399 7.36045 59.3476 6.65621 60.4005C6.07203 61.2733 6.3976 62.3101 7.46897 62.4625C10.0943 62.8342 12.8605 61.2641 14.8439 59.6986C15.5447 59.1468 16.3586 58.4621 16.8677 57.7406C11.355 58.917 7.18381 54.5461 7.51169 49.1338C7.53247 48.784 7.93308 46.9865 7.85342 46.8953C7.80609 46.841 6.7324 46.587 6.47842 46.4808C2.14905 44.6775 -0.721023 39.7582 0.158703 35.0848C0.312251 34.2662 1.39979 31.395 2.08556 31.0082C2.37187 30.8466 2.64895 31.5485 2.83829 31.7644C4.14864 33.2583 5.55828 33.3126 7.3997 33.7259V27.203C7.3997 26.2956 8.37756 24.0674 8.84051 23.2177C10.5249 20.1306 13.2345 17.5687 16.6345 16.5228L15.1337 15.4283C14.2366 14.6167 12.8258 12.4843 12.8258 11.271V9.42377C12.8258 8.98622 13.8776 9.53114 14.0669 9.56808C15.9776 9.94445 17.7821 9.57039 19.6789 10.4213C19.9468 10.5413 21.0874 11.398 21.1371 11.3287C21.1786 11.271 21.2121 10.2458 21.2883 9.9202C21.8632 7.43919 24.2669 5.5793 26.487 4.61298C26.8922 4.43635 29.6434 3.44002 29.7969 3.59356C29.8847 3.68131 29.7727 5.68551 29.7981 6.07458C29.9782 8.78764 30.6686 10.3023 28.9207 12.8191C28.3203 13.685 27.6611 13.9032 27.1393 14.5012C26.8253 14.8603 27.182 14.7587 27.4106 14.9249C28.7313 15.8774 29.9424 15.9651 31.4155 16.6959C31.6441 16.8091 32.5135 17.4602 32.6832 17.3321C32.7282 17.2986 32.4638 16.5066 32.4477 16.2411C32.3726 14.985 32.7317 12.9011 33.5525 11.9117C34.2325 11.092 35.3651 12.7683 35.7033 13.3306C36.0416 13.8928 36.7089 15.2794 36.7678 15.7504C36.7793 15.8474 36.9156 16.8518 37.0679 16.6405C37.1164 16.5736 37.0229 16.1164 37.0703 16.0633C37.1118 16.0148 37.3681 16.203 37.4097 16.1695C37.4593 16.1291 37.3266 15.9028 37.5309 15.949L37.5898 16.6405C37.7814 16.5089 37.756 16.3253 37.7699 16.1279C37.898 14.3165 37.4743 12.4959 37.4189 10.6949C37.36 8.76224 37.7283 8.41012 39.4993 7.68625L37.7641 1.11832C37.9327 0.192418 40.8408 -0.607648 41.2345 0.644981C41.6455 1.38501 42.6072 6.72225 42.8543 6.93352C43.0101 7.06629 46.4286 6.56177 46.9377 6.59295C50.198 6.58486 53.4837 6.55946 56.7002 7.11478C57.9793 7.33529 61.5964 7.97257 61.8654 9.45379C62.1459 10.9973 61.6518 13.7716 61.5479 15.4306C61.6783 15.8866 61.2697 18.2984 61.4324 18.4889C61.459 18.5189 62.1933 18.3838 62.2244 18.3584C62.2948 18.3018 62.61 16.9199 62.7289 16.6105C62.9171 16.1175 63.4078 14.8268 63.8904 14.6467C64.0555 14.5855 64.291 14.7021 64.3141 14.6779C64.351 14.6409 64.5426 13.8882 64.6454 13.6769C64.8128 13.3306 65.644 11.8228 65.8692 11.667C66.0516 11.54 66.3056 11.5977 66.3748 11.54C66.5041 11.4337 67.4958 9.2506 68.0662 8.67104C68.5257 8.20462 68.6792 8.48055 68.9413 8.3778C69.1837 8.28313 69.4851 7.72204 69.6698 7.56157C70.1281 7.16211 71.6855 6.08035 72.2374 6.02147C72.8504 5.95682 72.8389 6.64028 72.9416 7.15288C73.7013 10.95 71.7963 14.7079 70.2078 18.0259C71.3288 17.8551 72.481 17.6426 73.6135 17.5653C74.3409 17.5156 75.7378 17.7096 76.3324 17.5133C76.6221 17.4175 77.6335 15.6765 77.9983 15.254C83.1208 9.3164 93.5829 12.0456 94.219 20.0486C94.2779 20.7909 94.0666 22.0043 94.152 22.592C94.1728 22.7316 94.9059 23.3597 95.0768 23.5779C97.9261 27.2284 95.6148 32.5449 91.5948 34.1623C91.2115 34.317 90.4946 34.3909 90.2475 34.5468C90.1251 34.6241 89.4336 35.8617 89.4867 35.9206C89.7014 36.1584 91.6306 35.9576 92.0324 35.8698C93.7329 35.4981 94.2328 34.4613 95.4831 33.779C97.5266 32.6649 98.5622 35.1956 96.9863 36.5521L95.4889 37.8821C96.1412 38.068 99.577 38.0507 99.8183 38.4594C100.43 39.4961 98.1674 42.4493 97.3384 43.1397C97.1641 43.2851 96.4206 43.6546 96.4044 43.7354C96.3502 43.9986 96.8085 44.9961 96.8593 45.4602C97.0336 47.0684 96.6838 48.5312 95.699 49.8127C94.2017 51.7638 91.9746 52.3087 89.6056 51.975L88.6762 55.6625C91.9146 55.5805 94.8112 57.2453 96.3687 60.06C96.9713 59.9676 97.6074 59.784 98.172 59.5612C98.8312 59.3003 99.5147 58.7161 100.025 58.5199C100.139 58.476 100.279 58.461 100.375 58.5395C100.524 58.6596 100.775 60.0646 100.795 60.3417C100.949 62.4948 99.9326 65.194 98.2586 66.576C98.0069 66.7838 96.9228 67.3645 96.8789 67.5145C96.842 67.6392 97.8141 69.4622 97.9434 69.8905C99.2041 74.0363 97.2611 78.9868 94.2917 81.9469C94.1024 82.1362 93.6775 82.3417 93.5194 82.5126C93.4085 82.6327 93.5321 82.7816 93.5205 82.7885C93.3346 82.9017 92.6973 82.6569 93.0599 83.3173C93.636 84.3702 94.9752 85.5801 94.8343 86.9343C94.7143 88.0842 93.0472 89.0759 92.0543 89.4627C91.7772 89.5712 90.4669 89.8748 90.408 89.9533C90.3491 90.0318 90.8571 90.3736 90.8698 90.5283C90.475 90.5964 90.4207 90.2258 90.2383 90.0688C89.5721 89.4915 89.9808 90.2627 89.945 90.2974C89.6991 90.5398 89.7488 89.8287 89.4821 90.1265C89.6114 90.4659 89.9762 90.3701 89.8284 90.8758C89.5213 90.7095 89.3158 90.0711 88.9071 90.2408L89.2523 90.6437C89.0041 90.7211 88.8552 90.4382 88.6381 90.444C88.6174 90.444 88.2341 90.5271 88.2237 90.5456C88.1763 90.631 88.2421 90.8458 88.2133 90.8769C88.099 90.9993 87.7042 90.5525 87.576 90.5294C87.5241 90.5202 87.531 90.6807 87.4733 90.713C87.0761 90.9439 86.7736 91.251 87.4525 90.9889L87.8658 91.4519C87.613 91.4958 87.5229 91.1586 87.2551 91.2337C87.15 91.2625 86.4111 91.6978 86.5958 91.9148C86.2564 92.0857 86.3407 91.3699 86.3661 91.3376C86.3834 91.3168 87.1304 91.5823 86.7113 91.2221C86.6928 91.206 86.515 91.2614 86.3996 91.1875C86.3268 91.1413 86.4111 91.0005 86.3072 90.9901C86.1721 90.9762 86.3141 91.3526 86.2391 91.4426C86.2033 91.4854 85.4217 91.677 85.1851 91.8086C85.0546 91.8813 85.1019 92.0222 85.0927 92.0291C85.0384 92.0661 84.7706 91.6909 84.5189 91.8005C84.3492 91.8744 84.9888 91.9241 84.6344 92.0892C84.475 92.163 84.3215 91.7844 84.1726 91.916C84.1321 91.9518 84.3365 92.2035 84.288 92.26C84.086 92.4955 83.9278 91.55 83.9417 92.3778C83.4856 92.4632 83.8828 92.0695 83.8262 92.0314C83.5849 91.8686 83.5918 92.2185 83.5734 92.2289C83.5307 92.2519 83.4221 92.1596 83.3933 92.1838C83.242 92.3108 83.1139 92.7449 82.9049 92.6052C82.8818 92.5891 82.9592 92.2843 82.5193 92.2981C82.1199 92.3108 82.0979 92.5764 82.016 92.5994C81.7874 92.6629 81.366 92.3004 81.2863 92.3755C81.2286 92.4309 81.426 92.7946 81.1143 92.7218C81.0485 92.3524 80.1965 92.1273 80.3639 92.6064C80.3696 92.6237 80.8557 92.4205 80.6525 92.8373C80.2934 92.5902 80.0175 92.6976 80.1307 92.1457C79.9356 92.0926 80.0718 92.3651 79.9575 92.3824C79.7104 92.4182 79.4749 92.1042 79.4403 92.1457C79.3929 92.2023 79.7647 92.6572 79.2648 92.4944C79.2244 92.4805 79.2151 92.2981 79.1897 92.2877C79.0316 92.2242 79.1828 92.4586 78.7464 92.1446C78.6598 92.0822 78.5756 91.9483 78.4555 91.9148C78.2731 91.8652 78.2627 92.2462 78.2846 92.26C78.1692 92.2058 77.9163 92.2219 77.8448 92.1157C77.7836 92.0257 77.8471 91.8444 77.8228 91.7971C77.8044 91.7624 77.6219 91.9125 77.5469 91.9125C77.4719 91.9125 77.5042 91.7509 77.3841 91.6909C77.3172 91.6574 77.1728 91.7024 77.0505 91.6447C76.9985 91.6204 77.0008 91.3353 76.6695 91.453C76.6037 91.6066 77.1497 91.5708 76.8992 91.7982C76.8149 91.8756 76.1615 91.5165 75.9768 91.6828C75.8867 91.3653 76.2689 91.3965 76.3208 91.3341C76.5679 91.0443 75.9987 91.2787 76.0264 90.9832C74.6514 91.49 73.2695 91.9887 71.8437 92.342C67.0999 93.515 62.1875 93.6327 57.3351 93.5254C55.1093 93.4757 52.8765 93.5392 50.6922 93.0682V94.8576C50.6922 95.4684 50.0445 96.1945 49.3668 95.9521C41.2819 93.986 33.2096 91.9044 25.2067 89.6185C25.0854 89.6024 24.5567 90.2581 24.4874 90.1808C24.3489 90.0272 24.9053 89.6555 24.8326 89.6047C24.8072 89.5874 24.4389 89.5827 24.3858 89.6197C24.2784 89.6924 24.3061 90.2916 24.081 90.4117C23.954 90.3401 24.0464 90.085 24.0233 89.9499L24.4839 89.3738C24.2426 89.4569 23.3883 88.9662 23.446 89.4881C23.423 89.4661 23.0143 89.3495 22.9842 89.3738C22.9438 89.4061 23.5661 90.0318 23.446 90.2951C23.0824 90.3355 23.2475 89.9279 22.9335 89.7109C22.4035 89.3449 22.4497 89.9453 22.5802 89.951C22.7106 89.9568 22.5178 89.6532 22.8099 89.7178C22.9115 89.7398 22.8873 89.9291 22.87 90.0064C22.8434 90.1277 22.6206 90.0064 22.5409 90.0838C22.4682 90.1542 22.5444 90.3828 22.5225 90.4105C22.3816 90.5848 22.2742 90.3158 22.2361 90.1773C21.9533 90.2154 21.9048 90.5167 22.0607 90.6414C22.041 90.6253 21.9048 90.6864 21.8505 90.616C21.7674 90.5087 21.9614 90.0572 21.3656 90.3505C20.8265 90.616 21.6924 90.3828 21.7131 90.4105C21.7247 90.4267 21.7258 90.743 21.7131 90.7557C21.5862 90.8931 21.2283 90.5225 21.0805 90.5202C21.0193 90.5202 21.032 90.6876 20.9824 90.7153C20.8623 90.7834 20.6937 90.7407 20.6741 90.7569C20.6256 90.7973 21.1394 91.1321 20.7307 91.3318C20.3416 91.3803 20.7087 90.8954 20.6741 90.8723C20.6395 90.8492 20.0507 90.9035 19.8671 90.7569C19.9295 91.0086 20.2262 90.8365 20.2123 91.2175C20.2735 91.2394 20.4236 91.1944 20.442 91.2175C20.6014 91.4172 20.2527 91.5419 20.0969 91.4461C20.0472 91.4161 20.21 91.2672 20.2123 91.2164C19.9687 91.1298 19.9791 91.1933 19.8071 90.8712C19.5 90.795 19.6905 91.1529 19.6339 91.2175C19.5773 91.2822 19.2079 90.7303 19.0578 90.8712C19.0336 90.8943 19.3788 91.4276 19.4065 91.4473C19.4815 91.4992 19.8105 91.0305 19.8648 91.1009C20.0611 91.3526 19.5358 91.7197 19.2483 91.6828C19.194 91.6758 19.1686 91.5281 19.0774 91.4611C19.0047 91.4068 18.8292 91.4219 18.7599 91.3399C18.6907 91.2579 18.8696 91.0328 18.8258 90.9866C18.7865 90.9439 18.633 91.1067 18.5464 91.109C18.4679 91.1113 18.484 90.8769 18.4309 90.8769C18.1319 90.8758 17.8895 91.1021 17.9807 91.4195C18.0245 91.5719 18.4979 91.587 18.0753 91.7936C17.8456 91.9056 17.8998 91.5639 17.9033 91.4484C17.5304 91.2475 17.8271 91.7047 17.729 91.6805C17.5581 91.6377 17.3503 91.4207 17.3272 91.4484C17.2591 91.5327 17.4888 91.8536 17.4415 91.9091C17.2452 92.1365 17.1979 91.6724 17.1529 91.6747C16.9439 91.6839 16.8539 91.9033 16.8077 91.9079C16.6103 91.9252 16.765 91.5731 16.75 91.565C16.5664 91.4634 16.3286 91.7509 16.2304 91.7509C16.1323 91.7509 15.9026 91.5027 15.7098 91.5627L16.1716 91.3318C15.8702 90.7834 15.8033 91.3376 15.7617 91.3399C15.6624 91.3457 15.4246 91.169 15.3634 91.2175C15.2006 91.3491 16.0446 91.8236 15.5354 91.7924C15.3576 91.7821 15.151 91.2441 15.1198 91.2268C15.0771 91.2025 14.9316 91.3353 14.8543 91.3318C14.7769 91.3283 14.8462 90.9139 14.2309 91.1806C14.0923 91.2406 14.0785 91.4392 14.0346 91.4496C13.5693 91.5627 13.8095 91.1656 13.7448 91.1009C13.6374 90.9924 13.4262 91.2902 13.3442 91.2914C13.0683 91.2972 12.2809 90.5906 12.3017 91.3318C12.1147 91.2591 12.1528 90.8943 12.1262 90.87C11.99 90.7453 11.5374 91.2856 11.6644 90.6403C11.4635 90.5802 11.6067 90.9208 11.4924 90.87C11.2915 90.78 10.9902 90.3274 10.9544 90.3147C10.8747 90.2858 10.6104 90.4821 10.5111 90.4071C10.4487 90.3609 10.8032 90.1104 10.742 90.063C10.6346 89.9799 10.2721 90.2327 10.1647 90.1762C10.1497 90.1681 10.309 89.846 10.1082 89.8379C10.0504 89.8356 9.87033 90.0041 9.81953 89.9476C9.61172 89.7144 10.0262 89.6162 10.0493 89.4869C9.61634 89.3449 9.6706 89.831 9.41314 89.9464C9.16955 90.0549 9.25382 89.7247 9.24113 89.7167C9.1834 89.6763 8.92248 89.794 8.89478 89.6589C9.32425 89.2052 9.19264 89.6589 9.24113 89.7167L9.24921 89.719ZM40.3052 0.939377C40.0893 0.739649 38.8286 0.984402 38.8297 1.4335L41.4712 10.8553L42.0369 10.8657L39.6979 2.29591C39.7083 2.04769 39.1391 1.6644 39.2661 1.51663C39.3065 1.46929 40.5857 1.20029 40.3052 0.939377ZM28.4127 5.32646C28.3099 5.21679 26.9315 5.74093 26.6856 5.84945C23.8801 7.08361 20.7434 10.6418 23.1609 13.6377C23.1216 13.3514 23.2267 12.9023 23.2175 12.6667C23.214 12.5848 23.0073 12.6552 22.9773 12.4347C22.6148 9.75511 24.4516 7.98296 26.4835 6.79614C26.7929 6.61603 28.2026 5.95797 28.2995 5.84599C28.4069 5.72361 28.4773 5.39458 28.4138 5.32646H28.4127ZM60.6197 9.82207C61.1092 9.12937 58.0959 8.43783 57.76 8.36279C54.3438 7.59736 49.9856 7.47267 46.4771 7.62968C46.0649 7.64815 43.196 7.86058 43.0759 7.9818C42.9674 8.09148 43.891 10.5344 43.7698 10.9835C44.4706 10.8138 45.1829 10.696 45.9056 10.6371C48.935 10.3935 51.9991 10.5529 55.0238 10.7526C56.6551 10.8611 56.953 11.0816 58.6616 10.5771C58.9168 10.5021 60.5596 9.9075 60.6197 9.82092V9.82207ZM71.0136 8.2127C70.8347 8.02106 69.7494 9.36143 69.6813 9.59233C69.5716 9.96061 69.5324 10.7861 69.8025 11.0978C69.6917 10.6279 71.1418 8.35124 71.0136 8.2127ZM39.8422 8.67335C39.751 8.59022 38.7304 9.1363 38.6819 9.42723C38.5503 10.2134 39.8099 10.2377 40.304 10.5205C40.1458 10.2608 39.9126 8.738 39.8422 8.67335ZM68.7046 10.1753C68.4345 9.85093 67.5259 11.8193 67.4855 12.0156C67.2915 12.9681 67.8999 13.7127 68.1689 12.6009C68.2093 12.4335 68.1204 12.2454 68.1735 12.0202C68.2624 11.6392 69.0117 10.5436 68.7058 10.1753H68.7046ZM21.256 13.1747C19.6097 10.9177 16.6241 10.9789 14.0981 10.868C14.4202 12.661 15.5435 14.4227 17.2753 15.1374C17.3284 15.1593 17.4646 15.1674 17.4461 15.082C17.0282 14.6525 16.3794 14.1814 16.0226 13.722C15.8841 13.543 14.8139 11.7466 14.9074 11.6762C15.0529 11.5688 17.9633 11.8748 18.3778 11.9567C19.4469 12.1692 20.2966 12.721 21.2571 13.1747H21.256ZM60.6231 10.9835C59.733 11.2479 58.9156 11.585 57.9955 11.7605C53.9132 12.5374 48.1996 12.5605 44.0573 12.1368C42.2609 11.9533 40.3513 11.6727 38.6889 10.9835L40.9955 36.2139C41.6871 35.9806 42.3059 36.3154 42.2747 35.3988C42.1893 32.8716 41.6859 30.0962 41.4597 27.5482C41.1837 24.438 41.0533 21.2978 40.7635 18.2002C40.7092 17.623 40.1528 14.2011 40.3052 13.984C41.47 14.5116 42.7538 14.6248 43.9834 14.9238C44.3193 17.182 44.5618 19.4598 45.0016 21.6984L45.2672 22.0667C45.281 19.9043 45.0432 17.7004 44.6645 15.5703C44.638 15.4191 44.3967 14.9665 44.4602 14.9099C44.6103 14.776 45.6285 15.112 45.9045 15.1385C49.3449 15.471 52.8615 15.2378 56.2626 14.6467C56.714 14.6548 59.3532 13.6342 59.4686 13.7543C59.4987 13.7855 59.5737 14.5012 59.5714 14.6086C59.561 15.0727 59.24 15.5946 59.225 15.8947C59.2135 16.1106 59.449 15.9975 59.4779 16.2295C59.6072 17.2547 59.1465 18.236 59.1119 19.2393C59.09 19.8835 59.4213 20.1825 58.8891 20.8533L59.2412 20.8567L58.9988 25.2334L59.531 25.3847L60.622 10.9846L60.6231 10.9835ZM26.3358 11.7893C26.3623 11.7743 26.2815 11.2767 26.0494 11.3298C25.755 11.3968 25.9859 11.9902 26.3358 11.7893ZM65.7029 17.2166C65.6902 16.5782 65.7976 15.8485 65.9685 15.2297C66.0493 14.9365 67.0618 13.0662 66.4545 13.0627C65.9927 13.0604 65.0195 15.8093 65.367 16.3415L65.7029 17.2166ZM92.2563 23.6829C95.4832 15.9178 85.8593 10.016 79.7347 15.2574C78.6887 16.1522 77.6404 17.7754 77.2144 19.0869C77.1428 19.3063 76.83 20.7228 76.9027 20.7956C76.9431 20.8371 78.0168 20.836 78.056 20.7956C78.0999 20.7494 78.1622 19.7669 78.2269 19.5233C78.4578 18.6517 79.6839 16.0206 80.7645 16.1753C81.0877 16.2214 81.7966 17.1589 82.031 17.4591C82.7883 18.4288 83.5006 19.5706 84.1656 20.6108C84.3677 20.8487 84.8387 20.4838 84.7071 20.2195L82.2261 15.994C81.9929 15.5668 82.0448 15.2355 82.4547 14.9769C83.3217 14.4297 84.8387 14.253 85.8547 14.3269C86.5485 14.3777 88.5862 14.8591 88.4523 15.7677C88.1371 16.3138 85.5914 20.1086 85.7288 20.3361C85.7496 20.3695 86.3419 20.8244 86.3696 20.7956C86.3846 20.7794 86.4007 20.5058 86.4619 20.3684C86.8348 19.5372 88.7409 16.6174 89.4936 16.3519C90.2464 16.0864 91.0903 17.683 91.3547 18.2926C91.7726 19.2578 92.3418 21.688 90.7809 21.8104L86.5485 21.255L86.3707 21.8334L91.4447 22.4742C91.9285 23.1888 91.9492 24.1794 91.9135 25.066C92.1155 25.0926 92.022 24.804 92.0277 24.6643C92.0428 24.2879 91.8754 23.3227 92.2575 23.6829H92.2563ZM35.1977 15.4606C34.924 15.0138 34.7162 13.8974 34.4172 13.58C34.3399 13.4968 34.1713 13.3167 34.072 13.4079C34.0166 13.4587 33.7592 14.6825 33.7395 14.8649C33.616 16.0217 33.7557 17.2305 34.3041 18.2557C34.774 17.9705 34.311 17.892 34.3122 17.862C34.3145 17.795 34.4195 17.6553 34.4195 17.5099C34.4195 16.9892 34.4149 16.4673 34.4195 15.9478C34.6366 15.919 34.9079 16.8911 35.1099 16.6394C35.2739 16.4362 34.6966 15.5253 35.1977 15.4606ZM27.4891 17.563C27.2882 16.629 26.1626 15.725 25.2263 15.613C24.3188 15.5057 23.6816 15.5322 23.9125 16.5793C24.1191 17.5145 24.1353 16.5262 24.4493 16.4269C24.5624 16.3912 25.4987 16.3404 25.6592 16.3565C26.4916 16.442 26.8945 17.0954 27.4891 17.563ZM21.6023 17.6784C22.0618 16.9453 22.6702 17.3032 22.7568 17.2166C22.803 17.1704 22.728 16.5828 22.6529 16.4789C22.4497 16.1937 21.4615 16.3507 21.1428 16.4697C20.0149 16.8911 19.1063 18.6713 19.433 19.79C19.4873 19.9747 20.4709 21.1431 20.621 21.1396C21.0054 21.1304 20.4928 19.947 20.4905 19.82C20.4778 19.065 20.6348 18.3457 21.1394 17.7939C21.0978 17.9313 21.4245 17.9416 21.5411 17.9151C21.6647 17.8862 21.5758 17.72 21.6012 17.6784H21.6023ZM63.6248 20.3338C63.6595 20.2922 63.7022 19.5418 63.7749 19.2716C64.022 18.3411 64.8197 17.2605 64.1444 16.4096C63.6976 17.4637 62.9483 18.9795 63.3004 20.141C63.3466 20.291 63.5648 20.4065 63.6248 20.3338ZM31.0692 18.2545C31.1708 18.116 30.298 17.5884 30.1248 17.5272C29.8766 17.4394 28.7902 17.3101 28.6447 17.4475C28.5605 17.5272 28.7475 18.0502 28.9541 18.1194C29.0477 18.1506 30.3095 18.37 30.4411 18.3757C30.5566 18.3803 31.0461 18.2857 31.0692 18.2534V18.2545ZM18.6006 17.6796C18.4355 17.5226 16.9347 17.6449 16.6345 17.7338C16.4417 17.7904 16.0538 18.0132 15.8876 18.1414C15.6497 18.3249 14.9051 19.0696 15.5724 18.9853C16.1115 18.916 16.7592 18.5662 17.281 18.3815C17.4611 18.318 19.0162 18.0744 18.5995 17.6796H18.6006ZM45.154 35.4577C44.9659 34.6103 44.9913 33.7317 44.9081 32.875C44.5271 28.9105 44.2247 24.4415 43.5054 20.5393C43.3646 19.7773 43.2376 18.6263 42.6142 18.1414L44.2293 35.5743L45.1529 35.4577H45.154ZM75.9791 18.9495C75.7678 18.7486 71.8437 19.1158 71.2214 19.2139C69.4908 19.4864 67.1126 20.1017 65.5979 20.9791C64.9444 21.3578 63.7126 22.0967 64.4884 22.8783C64.9202 23.3135 64.8486 22.9718 65.203 22.7778C68.3109 21.0796 72.1323 20.7124 75.6327 20.6824C75.4515 20.3649 76.0611 19.0292 75.9779 18.9507L75.9791 18.9495ZM34.5327 20.4481C34.1725 19.917 33.3643 19.3905 32.7328 19.3051C32.2352 19.237 29.9193 19.2381 29.6849 19.7011C29.5118 20.0417 30.537 19.7577 30.6605 19.7519C32.0517 19.6965 33.2431 19.9736 34.5327 20.4481ZM18.2531 20.4492C18.678 19.999 16.9035 19.5649 16.6807 19.5406C15.2307 19.3836 12.7519 19.4413 11.9623 20.9122C11.669 21.4582 12.259 21.1592 12.5961 21.3151C12.1135 21.7942 11.4023 22.0401 10.9348 22.54C10.6866 22.8055 10.0204 23.6183 10.5192 23.8573C11.0179 24.0963 11.2211 23.534 11.5663 23.2881C12.5638 22.5769 13.3684 22.241 14.5287 21.8623C14.815 21.7688 15.1775 21.9189 15.3646 21.4906C14.9305 21.4478 14.553 21.113 14.6661 20.642C14.7388 20.3395 16.4925 20.119 16.8077 20.1283C17.1229 20.1375 18.2 20.5035 18.2508 20.4504L18.2531 20.4492ZM61.6622 23.5663C61.5387 23.1288 62.7255 20.1086 61.952 20.1063C61.5363 20.1052 61.3101 22.2583 61.3493 22.6693C61.3701 22.8817 61.4463 23.4821 61.6622 23.5663ZM67.7822 23.22C67.1403 23.3251 67.0722 23.4832 66.6519 23.6726C66.4152 23.7799 65.9407 23.7672 65.8195 24.027C66.4037 24.3098 66.9602 24.6654 67.5882 24.8559C68.7046 25.1953 68.4899 24.924 69.4516 24.6019C70.9351 24.1055 72.6749 23.5398 74.1965 23.2281C75.3753 22.9868 76.8704 22.9568 78.0041 22.6485C78.1622 22.6047 78.3631 22.6335 78.4024 22.413C75.2171 21.9639 71.9534 22.4384 68.8547 23.2015L68.5892 22.9903L69.1653 22.9879C69.1953 22.7882 68.8951 22.8679 68.7739 22.8852C68.5926 22.9117 67.826 23.0572 67.7799 23.22C67.8711 23.205 68.8593 23.0226 68.4737 23.3343C68.4483 23.3551 67.9149 23.4474 67.8399 23.4521C67.7475 23.4578 67.7591 23.295 67.781 23.22H67.7822ZM46.5383 22.5273C46.3951 22.3357 46.3282 22.54 46.3074 22.6993C46.2081 23.4775 46.3986 24.2683 46.4275 25.006C46.5521 28.1532 46.5256 31.3373 46.7703 34.4763C46.8258 35.1898 46.8211 35.3295 47.5773 35.2279L46.5383 22.5296V22.5273ZM18.5995 23.2212C17.0905 23.2385 15.637 23.6645 14.269 24.2579L14.157 23.7984C13.8245 24.0062 13.5081 24.2059 13.2276 24.4853C12.9193 24.7924 11.5363 26.4618 12.6515 26.4607C13.0879 26.4607 14.2078 25.3454 14.6846 25.0199C15.5758 24.4114 16.7534 23.8065 17.789 23.5063C18.11 23.4128 18.6884 23.5987 18.5983 23.22L18.5995 23.2212ZM88.3311 25.9908C88.3045 25.9642 87.8127 26.2309 87.6407 26.2806C82.6579 27.7133 75.4988 27.7098 70.4144 26.7655C68.2128 26.3568 65.8796 25.6906 64.2055 24.1436C64.1224 26.4595 64.5807 28.8574 65.3289 31.0429C65.5055 31.5612 65.8161 32.4848 66.1151 32.912C66.3252 33.2122 66.9936 33.749 67.3215 33.6682C66.8239 33.1995 65.4512 29.5743 65.8207 29.2222C65.8415 29.2026 66.3033 29.198 66.3783 29.243C66.5249 29.3296 67.1322 31.8441 67.4958 32.4583C67.5836 32.6072 67.4751 32.7492 67.7822 32.6857C67.2372 31.4065 67.4681 29.7233 67.0975 28.4695C66.9833 28.0827 66.3956 27.9488 66.1081 27.7214C65.7745 27.457 64.7851 26.3625 65.5505 26.1178C65.8034 26.037 68.3052 27.1014 68.887 27.2515C73.2568 28.3771 84.2868 28.7616 88.1152 26.2898C88.1925 26.2402 88.5158 26.1697 88.3311 25.9908ZM11.9045 24.8374C11.6863 24.7993 11.5201 24.9725 11.5594 25.1826L11.9045 24.8374ZM36.956 24.8374C36.9433 24.8259 36.6235 24.8259 36.6108 24.8374C36.2679 25.1376 37.2988 25.1376 36.956 24.8374ZM20.5633 28.9925C20.5182 28.9578 20.337 29.0929 20.2123 29.0467C20.1211 29.0121 19.9295 28.6981 19.8717 28.7627C19.8463 28.7916 19.859 29.2465 19.4665 29.3388L19.3522 28.9936C19.0543 29.5986 18.4898 28.9221 18.6006 29.5709L18.1977 29.2234C18.2139 29.5143 17.9102 29.639 17.6124 29.6886C17.3976 29.7244 17.4773 29.4774 17.3688 29.4554C17.1564 29.4127 16.6853 29.5997 16.4833 29.5743C16.3898 29.5628 16.4036 29.3781 16.3274 29.3411C16.018 29.1864 15.6832 29.0964 15.3957 28.8597C15.3761 28.5688 15.3172 27.9361 15.2399 27.6844C15.2099 27.5875 15.0205 27.6117 15.0171 27.5436C15.0125 27.4478 15.1891 27.1949 15.136 27.1487C14.9166 26.9559 14.4814 27.1834 14.7896 27.6094C14.3405 27.6867 14.7735 27.0968 14.269 27.2607C14.1962 27.2838 14.2459 27.532 14.1558 27.4951C14.0334 27.4443 13.9053 27.1649 13.6363 27.2654C13.5647 27.4039 14.1362 27.4085 13.866 27.6094C13.7968 27.6613 12.2532 27.5967 12.1285 27.5574C11.1818 27.2677 11.422 25.9492 11.213 25.7091C11.004 25.469 10.5953 25.4782 10.4106 25.3512C10.2767 25.26 10.2421 25.0049 10.1012 24.9598C9.40622 24.737 8.49763 27.5655 9.19841 27.7214C9.50435 27.7895 9.85647 26.9698 10.1716 27.2619C10.3379 27.4166 9.59209 30.0604 10.8609 30.4471C11.4474 30.6261 11.6344 30.1481 12.0546 29.8953C13.1191 29.2545 14.1881 29.6182 14.329 30.8986C14.4999 32.449 14.2332 34.5052 14.471 35.9518C14.6719 37.1755 16.0446 37.6893 16.8677 36.671L16.4071 36.6122C16.3713 36.4297 16.6172 36.5048 16.698 36.3836C16.7823 36.2554 16.7523 36.0695 16.7534 35.9195L17.0975 36.3813C17.1021 36.1307 17.2372 35.8767 17.2268 35.6274C17.2187 35.4184 17.0097 35.4761 16.9855 35.3803C16.8781 34.9404 17.139 34.0457 17.2118 33.5527C17.3111 32.8843 17.1021 32.1258 17.886 31.6859C19.6362 30.7023 19.9179 33.3784 21.4268 33.3819C22.6494 33.3842 22.7776 31.6444 23.7624 31.4446C25.4179 31.1075 25.5334 33.2052 26.8737 33.2272C27.9082 33.2445 28.0606 31.9157 28.7521 31.6998C29.1239 31.5832 29.6503 31.5993 29.9447 31.8729C30.612 32.4929 29.9886 35.4877 30.4319 36.6122C30.9653 37.9618 32.6439 37.5034 32.9095 36.3166C32.9325 36.2127 32.9926 35.8848 32.8009 35.9195C32.809 36.0592 32.6058 36.6814 32.5573 36.7149C32.5238 36.738 32.0274 36.4736 31.9905 37.0728C31.8542 37.1074 31.845 37.0081 31.8727 36.8985C31.9674 36.5256 32.6797 36.2785 32.8841 35.5997C33.0711 34.9797 32.9071 34.6587 32.9095 34.1346C32.9152 33.0794 32.7963 31.7748 32.8575 30.7785C32.891 30.2289 33.459 29.5339 34.0212 29.46C35.148 29.3123 34.9795 30.2139 35.626 30.2728C36.0428 30.3109 36.6085 30.095 36.6085 29.6275V27.5494C36.6085 27.0137 37.6198 27.5586 37.9107 27.472C38.7235 27.2319 37.4997 24.9483 37.3589 24.9541C37.2988 24.9564 37.1603 25.2946 36.9906 25.3916C36.7378 25.5371 36.1767 25.499 36.1467 25.529C36.1097 25.5659 36.1824 25.9816 36.1444 26.1432C36.1236 26.2309 35.9365 26.2148 35.9169 26.3002C35.8707 26.5068 35.9619 26.7574 35.9181 26.9502C35.8881 27.0818 35.6329 27.0818 35.5694 27.2042C35.4112 27.5101 36.0451 27.1741 35.9158 27.6637C35.8892 27.7652 35.387 27.5113 35.5602 28.3506C35.5844 28.4695 35.8223 28.3691 35.8892 28.4395C35.9446 28.4972 35.8846 28.6727 35.9377 28.7373C36.0197 28.8389 36.3579 28.6207 36.2598 28.9913C35.7068 28.9659 35.0129 28.8412 34.4738 28.877C34.341 28.8851 33.0526 29.2996 32.9868 29.3446C32.9579 29.3642 32.4823 29.7902 32.465 29.8214C32.4096 29.9253 32.622 30.1146 32.51 30.379C32.3507 30.7565 32.338 30.0442 32.1059 30.2624C31.9639 30.3963 31.5945 31.4943 31.5252 31.7621C31.3082 31.7887 31.4456 31.5335 31.464 31.4123C31.5379 30.9216 31.6926 30.6145 31.8288 30.1805C31.8589 30.0869 31.7573 29.9345 31.8127 29.7995C31.8993 29.5928 32.1394 29.6632 32.2814 29.5732C32.3738 29.5143 32.4049 29.3735 32.45 29.3377C32.2849 29.527 32.0794 29.0098 32.1036 28.9925C32.3449 28.8239 32.607 29.1564 32.45 29.3377C32.4788 29.3157 32.6497 29.3723 32.6797 29.3331C32.7294 29.2684 32.5458 29.0652 32.585 29.0052C32.6139 28.9602 32.9037 29.0721 32.7952 28.7616C31.9039 29.0583 32.3703 28.6704 32.3345 28.6461C31.9859 28.4071 31.9812 28.9174 31.8785 29.0525C31.4721 29.5894 30.9895 29.3019 30.9549 29.3411C30.9122 29.3885 30.9653 29.7187 30.7748 29.7995C30.5624 29.2014 30.47 29.8018 30.4204 29.8087C30.1733 29.8422 29.8523 29.5443 29.8015 29.5743C29.7819 29.5859 29.8223 29.8006 29.5037 29.9138C29.185 30.0269 29.5834 29.4704 29.2763 29.6852C29.1169 29.7972 29.1735 30.0431 28.9876 30.0304C29.0407 29.325 28.7475 29.8884 28.475 29.9068C28.1726 29.9265 27.8089 29.6251 27.6553 29.6182C27.5895 29.6159 27.4868 29.7591 27.4314 29.7498C26.4951 29.5997 26.3392 28.615 25.8105 28.4164C25.6708 28.3644 25.5807 28.4452 25.6407 28.5861C25.7516 28.8447 26.1799 28.7674 26.1002 29.1068C25.8081 29.1714 25.5726 28.7431 25.3521 28.7593C25.2321 28.7685 25.3429 28.9856 25.269 29.0779C25.2101 29.153 25.0947 29.0906 25.0623 29.1068C25.0404 28.481 24.4204 28.0874 24.1399 28.8205C24.0464 29.0664 24.4458 29.0225 24.4851 28.9902C24.5243 28.9578 24.3177 28.6877 24.3696 28.6461C24.7449 28.3471 24.6848 29.1864 25.0623 29.1068C24.7298 29.2742 24.7668 29.1045 24.4482 29.1287C24.1572 29.1518 24.148 29.4335 24.0591 29.4508C23.8178 29.4993 23.5292 29.4058 23.2775 29.4577C23.0408 29.5074 22.8319 29.7625 22.5225 29.684C22.4763 29.8941 22.7164 29.7568 22.7534 29.7995C22.7903 29.8422 22.6033 30.0281 22.5802 30.0269C22.5525 30.0258 22.452 29.8491 22.3331 29.8283C22.2142 29.8076 21.9983 29.9576 21.9452 29.9126C21.8655 29.8433 22.5213 29.6067 22.2904 29.3365C22.0791 29.0883 22.0295 29.736 21.7732 29.6817C21.6035 29.6459 21.5007 29.2465 21.4695 29.2257C21.4003 29.1784 21.1613 29.355 21.1371 29.3377C21.1197 29.3261 21.107 29.0652 21.0089 28.9463C20.9235 28.8435 20.2423 28.2282 20.2123 28.7004C20.5656 28.6692 20.5206 28.9544 20.5598 28.9902C20.5875 29.0156 20.7653 28.9613 20.7896 28.9902C20.9558 29.1876 20.5887 29.3169 20.4432 29.2199C20.4328 29.213 20.5771 29.004 20.5598 28.9902L20.5633 28.9925ZM17.5616 26.2228C17.3388 26.0185 15.6578 27.6082 16.466 27.9534C16.5606 27.9938 17.6378 26.2921 17.5616 26.2228ZM58.5462 26.8012C58.5093 26.7666 57.7196 26.6292 57.5649 26.568C57.125 26.7354 54.3865 26.3348 54.2734 26.4537C54.2572 26.4699 54.2642 26.8901 54.2803 26.9075C54.3473 26.9802 55.9474 27.2388 56.1945 27.3727C56.8791 27.1995 57.6295 27.4339 57.5626 28.1901L58.4885 28.7616L58.1952 27.0899C58.2668 26.6142 58.3372 27.3 58.4284 27.1453C58.4377 27.1291 58.5589 26.8139 58.545 26.8012H58.5462ZM22.0722 27.1522C21.9856 27.2076 21.7755 27.8172 21.9394 28.0192C22.6367 28.8816 22.7637 26.7054 22.0722 27.1522ZM61.4798 28.2559C61.3493 28.1301 60.4938 27.0495 60.2791 27.2619C60.2237 27.3173 60.8356 28.197 60.9198 28.294C61.0803 28.4799 61.2697 28.548 61.4382 28.7039C61.5929 28.847 61.5998 29.3608 61.8365 28.7616L62.4149 29.3377C62.4807 28.9798 61.7915 28.5561 61.4798 28.2548V28.2559ZM24.8338 27.7225C24.641 27.5644 24.4643 28.0504 24.4886 28.0677C24.507 28.0816 24.9319 28.0816 24.9504 28.0677C24.9654 28.0573 24.8476 27.7341 24.8338 27.7225ZM35.2242 28.07C34.924 27.7271 34.924 28.7581 35.2242 28.4152C35.2358 28.4025 35.2358 28.0827 35.2242 28.07ZM34.4161 28.1855C34.3768 28.167 33.8619 28.1659 33.84 28.1855C33.4174 28.5584 34.6527 28.294 34.4161 28.1855ZM33.84 28.645C33.7118 28.2986 32.9187 28.309 33.2038 28.645H33.84ZM9.1326 28.9925C8.82435 28.9625 8.94673 28.9902 8.90401 29.1657C8.84975 29.3908 8.79664 29.736 8.78164 29.9692C8.63963 32.1038 8.5288 38.0922 9.10028 39.9348C9.33464 40.6898 10.7639 42.8418 10.9856 41.1782C11.243 39.2502 10.7362 36.6676 10.8597 34.5872C10.8817 34.2177 10.9452 33.5897 11.0098 33.2364C11.0479 33.0263 11.3631 32.2655 11.3273 32.2262C11.31 32.2066 11.0006 32.1974 10.8239 32.0935C9.70985 31.4377 9.14646 30.267 9.1326 28.9913V28.9925ZM73.438 35.2268L73.079 31.4885C72.9024 31.0533 73.0213 30.3329 72.6322 30.0315C72.5606 31.3246 72.7142 32.5934 72.8908 33.8702L73.438 35.2268ZM68.0131 36.3801C68.065 36.3385 67.4762 35.4507 67.3792 35.3411C66.8574 34.7453 65.9581 34.287 65.1719 34.1993C64.9363 34.1727 64.3499 34.2708 64.3129 34.2489C64.2125 34.19 63.3362 32.613 63.0464 32.2863C62.3041 31.4492 61.0549 30.6988 59.9824 30.386C59.7988 30.3328 58.6582 29.9726 58.664 30.3213C58.6663 30.4425 60.6116 31.0128 60.9337 31.1664C62.5569 31.9434 63.7068 33.3576 64.4561 34.967C65.4686 35.236 66.0458 34.7904 66.9775 35.5142C67.1968 35.6851 67.7614 36.5821 68.0142 36.3813L68.0131 36.3801ZM2.59354 33.4546C2.48617 33.3622 2.33031 32.8751 2.14905 33.1487C1.81887 33.6439 1.14464 35.9887 1.51524 36.439C1.65378 36.6075 2.15136 36.7784 2.3788 36.8454C2.62817 36.5948 2.23218 36.6422 2.16984 36.4748C1.89045 35.7232 2.28875 34.9335 2.32338 34.19C2.59007 34.0503 3.88773 34.9543 3.93852 34.8816C3.96277 34.8469 3.96161 34.4094 3.91543 34.3274C3.87618 34.2581 2.82328 33.652 2.59469 33.4558L2.59354 33.4546ZM63.2785 35.2268C63.5036 35.0074 62.7301 34.3366 62.4034 34.3043C60.6843 34.1334 59.0449 36.8569 59.494 38.3785C59.5275 38.494 60.286 39.7247 60.413 39.8828C60.5239 40.0214 60.921 40.5478 61.0861 40.4208C61.1473 40.3747 60.846 40.2096 60.8517 40.0179C60.854 39.9302 61.0515 39.9787 61.0722 39.951C61.2477 39.7224 60.8667 39.7304 60.7594 39.5411C60.6174 39.2894 60.6358 38.8103 60.5077 38.5182C61.0849 38.5748 60.4788 38.3774 60.5019 38.0507C60.5135 37.8856 61.115 37.6454 60.5077 37.7089C60.6001 37.0509 60.9337 36.0661 61.556 35.7578C61.9312 35.572 62.0547 35.4138 62.2671 35.311C62.5558 35.1713 63.2427 35.2626 63.2785 35.2268ZM5.51441 35.0374C5.41512 34.9381 4.95102 34.5537 4.97526 34.9381C5.00297 35.3826 5.20039 35.9102 5.29275 36.3535L5.78341 37.5346C5.53519 36.8685 5.99006 35.5154 5.51326 35.0363L5.51441 35.0374ZM91.103 37.65C92.7689 37.5173 94.0204 36.9169 95.3134 35.916C95.4866 35.7821 96.4368 35.0478 96.4125 34.9393C96.3802 34.7881 96.2151 34.7684 96.0592 34.8123C95.4277 34.9901 94.1993 36.4367 93.397 36.6549L91.103 37.65ZM57.8581 35.5777C57.8223 35.6089 57.6595 36.4609 57.6803 36.5036C57.7265 36.6006 58.2045 36.8442 58.2599 36.8396C58.3153 36.835 58.6513 35.9125 58.6478 35.8594C58.6362 35.6909 57.969 35.4819 57.8581 35.5766V35.5777ZM5.09187 39.4984C5.23733 39.3668 4.90484 39.1878 4.82979 39.1266C4.08053 38.5286 3.10267 38.2943 2.24488 37.9017C2.07632 37.8244 1.42865 37.3811 1.39979 37.4203C1.25894 37.6177 1.61799 38.9281 1.71496 39.2398C1.8004 39.5146 2.43652 41.0108 2.5716 41.0962C2.65011 41.1459 3.41785 41.2348 3.36358 40.9404C3.32087 40.7048 1.89276 39.1024 2.20793 38.8069C2.29914 38.7214 3.81499 39.0181 4.05859 39.0909C4.28603 39.159 4.95794 39.6208 5.09302 39.4984H5.09187ZM45.6158 42.8464H48.098C48.2065 42.8464 48.561 42.0221 48.5009 41.9228C48.4513 41.8409 46.8373 42.3512 46.671 41.8489C46.5695 41.5442 46.678 40.766 46.6537 40.3654C46.6076 39.6162 46.4009 38.8969 46.6537 38.1142L45.6158 37.9987V42.8476V42.8464ZM51.954 38.1257H50.7072L49.0805 42.731C49.3633 42.6906 49.7951 42.8037 50.0468 42.7171C50.2846 42.634 50.2073 42.1641 50.5455 42.0614C50.7857 41.9886 52.118 41.9863 52.2565 42.1526C52.6444 42.6144 52.0014 43.0381 53.4664 42.8464L51.9552 38.1257H51.954ZM41.0729 39.54C38.6323 37.0994 34.3618 39.4072 33.9681 42.5717C33.8284 43.6973 34.2625 45.683 35.7726 45.0677C36.7724 44.6613 35.8061 43.934 35.8015 43.2528C35.7876 41.102 39.25 39.6162 39.5986 42.5717C39.8953 45.0827 38.0308 46.7937 35.8638 47.5856C35.4644 47.7311 33.3574 48.283 33.0815 48.2368C32.9545 48.216 32.3207 46.8214 32.1556 46.5524C28.3988 40.4347 19.754 37.4376 13.5982 41.9436C9.83454 44.6982 7.77261 52.6123 12.9447 54.68C14.1108 55.1464 15.9845 54.792 17.0663 54.1847C18.3339 53.4724 16.2939 53.6179 15.9003 53.5717C12.2428 53.1365 12.3756 48.2102 14.3313 45.9093C14.6476 45.5376 15.0702 45.3898 15.2191 45.2385C15.2907 45.1658 15.2734 44.9569 15.4188 44.8056C15.8772 44.3288 16.1646 44.5378 16.5168 44.4108C17.2095 44.1614 17.9772 43.7458 18.7034 43.6107C23.4495 42.7298 29.6318 46.393 30.5728 51.2512C31.2181 54.5819 29.715 57.4081 27.3736 59.6444C27.1751 59.7344 27.3794 59.9341 27.4314 59.9307C27.496 59.926 28.1333 59.171 28.3815 59.0359C29.0084 58.6977 29.5603 58.9009 30.0636 58.7554C30.2518 58.7 30.7344 58.1181 31.1061 57.9507C31.6661 57.6979 32.2295 57.8468 32.622 57.3885C33.4047 56.4753 34.0051 54.142 34.0755 52.9529C34.0986 52.5627 33.9243 50.7998 34.0051 50.6889C34.0859 50.5781 36.1801 50.1532 36.6408 49.9778C39.2569 48.9814 42.0415 46.759 42.3705 43.8162C42.5368 42.3246 42.1593 40.6263 41.0717 39.54H41.0729ZM73.6701 39.7304C73.6308 39.7004 72.81 39.6092 72.6934 39.6104C71.4719 39.6277 70.2586 40.3343 69.4539 41.2301C69.3488 41.3467 68.6411 42.3142 68.7058 42.3858C68.7704 42.4574 70.0484 41.2925 70.2135 41.1817C70.7157 40.8422 72.3978 39.8782 72.9231 39.8401C73.0016 39.8344 74.095 40.0549 73.6689 39.7316L73.6701 39.7304ZM86.5243 41.5499C86.4435 41.4449 86.5947 41.1967 86.0255 41.0535C83.0631 40.3077 81.6396 44.8125 84.7117 45.0319C86.2229 45.1404 87.2493 43.4041 86.9226 42.0048C86.8371 41.6411 86.6293 41.6873 86.5243 41.5488V41.5499ZM73.2083 41.2313C71.4027 41.5453 69.6594 42.4297 68.3052 43.658C68.1828 43.7689 67.4185 44.4477 67.5524 44.5782C67.7891 44.8079 72.6945 41.6642 73.2083 41.2324V41.2313ZM78.975 42.1618C78.9531 42.1295 78.3216 41.9413 78.2177 41.9309C76.2054 41.7116 74.7576 44.4616 76.4467 45.6703C77.6346 46.5212 79.0928 45.9336 79.5246 44.6047C79.7959 43.7723 79.5419 43.6881 79.4818 43.0023C79.4714 42.8845 79.588 42.6421 79.558 42.6167C79.5165 42.5821 79.1505 42.6733 78.975 42.5624C78.7845 42.4435 78.99 42.1814 78.975 42.1607V42.1618ZM4.5735 42.731C5.09533 42.6502 5.96236 42.731 6.53614 42.731C6.60195 42.731 7.03257 43.0369 7.05451 42.7321C6.8086 42.5486 3.18464 41.9101 3.24583 42.0949C3.41207 42.5936 3.83346 42.7956 4.20059 43.0785C4.21907 43.0935 4.52385 43.5726 4.51693 43.2482C4.51115 43.0115 4.0228 42.8153 4.5735 42.7298V42.731ZM93.4916 48.007C94.5399 46.8341 94.5064 45.0065 93.1742 44.0667C91.0406 42.5624 88.1521 44.1914 88.4615 46.8179C88.5689 47.7288 89.4359 48.7979 90.3595 48.9595C91.4817 49.1558 92.7101 48.881 93.4916 48.007ZM57.08 46.9691C57.2866 47.2266 58.1548 47.6434 58.4989 47.6861C59.4825 47.8073 60.4811 46.9818 60.6139 46.0121C60.8506 44.2803 59.9154 43.0392 58.1202 43.8635C57.1516 44.308 56.348 46.0617 57.08 46.9703V46.9691ZM71.8229 44.6948L68.7058 45.6161C69.3465 45.6034 69.9711 45.4244 70.5772 45.2374C70.9455 45.1243 71.5481 44.9545 71.8229 44.6948ZM65.0506 50.9706C65.5147 50.7593 67.0698 50.301 67.3816 50.8113C67.6298 51.2177 66.6739 51.9138 67.7233 52.6597C68.7104 53.3616 69.5185 52.3941 69.7783 51.4821C70.2424 49.8508 69.6074 48.836 68.0142 48.3291C63.8476 47.0026 59.733 50.7236 59.1742 54.7331C59.0853 55.3739 59.2227 56.0931 59.0334 56.6704C58.8325 57.2846 57.4771 59.0775 56.7671 59.0117C55.1404 58.8605 56.3203 55.8391 56.6413 54.9721C56.9934 54.0243 58.6143 50.9914 58.5543 50.2929C58.4746 49.3624 56.9368 49.4548 56.273 49.7549C55.1393 50.2675 54.4778 52.5026 54.039 53.6398C53.74 54.4133 53.4791 55.6937 53.1697 56.3494C53.0519 56.5999 51.3317 58.7323 51.0974 58.8951C50.6575 59.1987 50.1461 59.2726 49.7859 58.8212C49.1959 58.0823 49.7743 56.8008 50.0595 56.0112C51.0916 53.1549 52.5497 50.4188 53.6327 47.5776C53.7654 47.2301 54.2411 46.0398 54.2457 45.7708C54.2561 45.2559 53.4122 44.8264 52.9457 44.8022C50.99 44.6994 50.8688 46.4808 50.3169 47.8419C48.576 51.0584 47.8671 56.0019 45.0732 58.4148C43.36 59.8949 38.7685 61.8887 37.7075 58.7773C37.0345 56.802 38.1451 57.4104 39.4208 57.2649C41.6721 57.0086 44.7696 55.7953 45.5512 53.4666C46.1111 51.7996 44.7442 50.4038 43.1291 50.2387C38.3864 49.7538 32.3091 56.294 35.9123 60.5402C38.8378 63.9876 43.5193 60.8058 45.9657 58.4956C46.0499 58.416 46.7253 57.4612 46.7669 57.7995C46.8812 58.7161 46.6099 59.6016 47.5358 60.262C49.5873 61.7248 51.8259 58.7935 53.1143 57.5108C53.1882 60.8277 55.4729 61.0632 57.7346 59.186C58.0082 58.9597 59.2885 57.5132 59.4075 57.5132C59.4929 57.5132 60.017 58.7369 60.226 59.0013C61.5768 60.7134 64.0451 60.7688 65.9604 60.1385C68.2197 59.3938 69.6617 57.9576 71.2445 56.2963C71.2722 56.2675 71.5401 55.6752 71.5885 56.0689C71.7317 57.2372 71.6059 58.805 73.1737 59.1006C75.4446 59.5289 77.1971 56.8886 78.6287 55.5494C78.5825 57.1333 78.9138 58.5014 80.6779 58.7542C82.8253 59.0613 85.2185 56.4198 86.1375 54.6869C86.283 54.4122 86.8221 53.3627 86.6894 53.1468C86.6767 53.1261 86.3084 52.9044 86.2483 52.9483C86.1364 53.0291 85.5037 54.3545 85.3051 54.6627C84.9472 55.218 83.7235 56.8932 83.2432 57.2176C81.6869 58.2705 81.2009 55.9927 81.6892 54.8555L84.4058 47.977C83.9878 46.6794 82.106 46.8641 81.3036 47.7738C80.6236 48.5462 79.7404 51.2754 79.3214 52.3722C79.1055 52.9344 78.9231 53.9331 78.6806 54.3868C78.4728 54.777 76.3797 57.2846 76.0334 57.512C74.8084 58.3178 74.3697 57.0317 74.4863 55.965C74.6618 54.3521 75.7216 52.5142 76.3093 51.0688C76.8715 49.6845 78.0595 47.6688 75.4549 47.9297C74.6041 48.0151 74.0499 48.6743 73.6805 49.3867C72.287 52.0697 72.3551 54.5092 69.9168 56.7062C67.6055 58.7889 61.9543 60.7042 61.8065 55.9211C61.7465 53.9769 63.3766 51.7337 65.0472 50.9729L65.0506 50.9706ZM22.4105 60.6245C22.2581 60.4202 24.1999 58.237 24.4458 57.871C26.2157 55.2342 28.3757 49.5148 24.7564 47.4852C24.3466 47.2555 22.4797 46.7013 22.4312 47.4067C22.4255 47.4852 23.0016 48.3361 23.072 48.8233C24.1572 56.3771 13.0983 65.986 5.77879 64.5002C4.70165 64.282 3.05533 63.5904 2.80827 62.3897C2.74477 62.0803 2.78287 61.547 3.18926 61.5804C3.27815 61.5874 4.15903 62.5329 4.55156 62.7257C5.09879 62.9947 5.87 63.1736 6.47726 63.1656C4.68202 62.048 4.65662 59.6963 6.56847 58.6977C6.99794 58.4725 8.64656 58.1666 7.40317 57.6806C4.6139 56.593 1.49676 60.1939 1.86967 62.9832C2.39265 66.89 7.06952 67.5342 10.2294 67.2063C14.4444 66.7688 18.4494 64.1769 21.5446 61.435C21.6877 61.7375 20.7399 62.362 20.9096 62.5872C20.9685 62.6645 22.4994 63.1921 22.7326 63.2475C24.2126 63.6031 23.5222 63.1725 23.9344 62.093C24.0164 61.8795 24.656 61.0124 24.604 60.9743C24.514 60.9085 22.6414 60.9362 22.4105 60.6257V60.6245ZM19.7228 48.5346C19.6674 48.4654 18.4182 47.5614 18.2808 47.4956C17.8837 47.3074 17.3838 47.1377 16.9832 47.4055C16.6253 47.6445 17.617 47.6607 17.9102 47.7507C18.3778 47.8939 20.0888 48.8059 19.4954 49.3982C19.2899 49.6037 18.6618 49.3959 18.3132 49.4248C17.9645 49.4536 16.8585 49.9166 16.8723 50.2929C16.8885 50.7259 17.714 50.0078 17.9068 49.9443C18.4055 49.7792 19.4815 49.8565 19.7955 49.6672C20.0414 49.5194 19.874 48.7205 19.7228 48.5346ZM91.2173 57.5097C88.301 56.6069 85.2624 58.065 83.8089 60.6638C83.5734 61.0852 82.7179 63.2118 83.0204 63.5131C83.0954 63.587 83.907 63.5027 84.0606 63.341C84.3619 63.0247 84.1148 61.9811 84.983 62.3574C84.1298 61.637 85.0246 62.0757 85.0985 62.0111C85.3386 61.7986 84.6343 61.7663 84.8687 61.5504C85.0015 61.4292 85.3051 61.8956 85.4448 61.7802C85.4852 61.7467 85.1123 61.3288 85.2151 61.2041C85.2312 61.1845 85.5995 61.3957 85.6757 61.3184C85.7346 61.2583 85.461 60.8427 85.7346 60.7423C85.8593 60.6961 85.6526 61.2249 86.0209 61.0875C86.0001 60.8219 86.2426 60.5899 86.2968 60.3959C86.3338 60.2632 86.2252 60.0819 86.2541 60.0496C86.283 60.0173 86.4896 60.1985 86.6397 60.1558C86.8233 60.1038 86.8891 59.7194 87.0565 59.6455C87.1581 59.6005 87.3694 59.739 87.404 59.7009C87.4213 59.6825 87.3867 59.5081 87.4513 59.4031C87.6868 59.0232 88.054 59.1618 88.1025 59.1248C88.1556 59.0844 87.9639 58.5684 87.9858 58.5487C88.3391 58.2428 88.0586 59.2091 88.4465 59.0105L88.7928 58.5464L88.3322 58.431C88.3645 57.998 88.9937 58.4702 89.0238 58.4333C89.0503 58.401 88.9626 58.1735 89.093 58.0754C89.3193 57.9057 89.6033 58.0835 89.6957 58.0546C90.0305 57.9461 89.8619 57.8941 90.468 57.7995C90.6066 57.7775 91.1769 57.6667 91.2184 57.5108L91.2173 57.5097ZM33.9312 62.2085C34.9922 61.4361 34.2025 59.0048 32.7351 58.7854C32.3553 58.7288 31.0646 59.0082 31.0715 59.4146C31.0726 59.4885 32.0748 60.0611 32.286 60.2759C32.4673 60.4594 32.951 61.1233 33.0572 61.3519C33.1438 61.5377 33.1311 61.876 33.1484 61.8979C33.1565 61.9083 33.3632 61.7605 33.3782 61.7802C33.4013 61.8137 33.2373 62.4151 33.3805 62.5883C33.6068 62.6195 33.4047 62.3413 33.5617 62.2281C33.653 62.1623 33.885 62.2431 33.9323 62.2085H33.9312ZM32.9152 62.1265C32.7167 60.8219 30.806 59.619 29.5626 59.8683C28.3723 60.1062 27.8551 61.4408 28.4716 62.474C28.8629 62.8192 28.2961 61.7536 28.7025 61.7836C28.8237 61.7929 29.6953 62.5941 29.6861 62.8839C29.6769 63.1736 29.2162 63.1633 29.3374 63.281C29.3986 63.3399 29.9147 63.5431 30.074 63.647C30.2079 63.7347 30.2391 63.9495 30.343 63.9772C31.4779 64.2762 32.2144 63.1136 32.099 62.0815C32.0517 61.6636 31.4733 60.7885 31.531 60.7446C31.7561 60.5703 32.3795 61.2791 32.5042 61.4431C32.6693 61.6601 32.6936 62.0215 32.9141 62.1277L32.9152 62.1265ZM99.6451 60.3959C98.0484 60.9374 96.379 61.3091 94.9221 62.1946C94.0331 62.7349 92.8336 63.6274 92.6038 64.6664C92.8798 64.4471 93.1314 64.133 93.4178 63.9229C93.9338 63.5442 95.1114 62.7153 95.6413 62.4521C96.7843 61.8852 98.3117 61.6786 99.4996 61.1741L99.644 60.3948L99.6451 60.3959ZM69.9746 62.1265C70.0785 62.0215 69.7286 61.7028 69.6802 61.5562C69.6236 61.3865 69.6559 60.7411 69.4562 60.7434C69.2565 60.7457 69.3003 61.2884 69.2772 61.3114C69.2288 61.3576 68.5949 61.2468 68.476 61.607C68.7577 61.7525 69.1375 61.7017 69.4273 61.809C69.5797 61.8656 69.8626 62.2397 69.9757 62.1254L69.9746 62.1265ZM28.0282 64.3974C28.729 63.7267 28.2037 63.6216 27.9486 63.1113C27.7535 62.7222 27.5549 62.2431 27.5191 61.8079C27.4845 61.3946 27.8828 61.0413 27.2039 60.9651C25.5772 60.7827 24.3558 62.9289 25.1974 64.2519C25.217 64.2831 25.6788 64.7495 25.71 64.7692C26.181 65.0543 27.6299 64.7796 28.0282 64.3986V64.3974ZM77.899 62.4371C78.2996 61.8321 77.4465 61.5955 76.9408 61.592C76.3878 61.5874 75.605 62.0815 75.1352 62.3805C72.8631 63.8259 69.5993 66.4755 67.4958 68.2488C67.3065 68.4093 66.0296 69.4495 66.1659 69.6307C66.4303 69.9817 66.8147 69.3825 66.8643 69.3548C69.3015 68.056 71.9176 66.046 74.3316 64.5544C75.2321 63.998 76.1892 63.5154 77.077 62.9347C77.0516 63.3307 77.4984 62.9716 77.6716 62.7938C77.6889 62.7765 77.8401 62.5248 77.8979 62.4371H77.899ZM67.7822 62.3586C67.8006 62.3424 68.244 62.3459 68.2417 62.1842C68.2359 61.6636 67.2488 62.2443 67.3204 62.5294C67.3423 62.6172 67.6713 62.7546 67.7822 62.8769C67.9727 63.0894 68.1181 63.5719 68.4772 63.468C68.6296 63.4242 69.3246 62.9601 68.9932 62.9335C68.7081 62.9104 67.5132 63.5327 68.588 62.646C68.6446 62.3655 67.3689 62.7257 67.7822 62.3586ZM98.0288 61.8968C98.0115 61.8818 97.6074 61.8795 97.5682 61.8968C97.3477 61.9972 98.4283 62.2477 98.0288 61.8968ZM61.0388 63.3514C61.1992 63.1044 61.4832 62.5849 61.0111 62.4913C60.9002 62.4694 59.6672 63.2902 59.1535 63.3699C55.1878 63.9853 45.7221 60.6799 42.897 63.7382C42.7435 63.9044 42.5333 64.2439 42.531 64.4725C42.5253 65.1363 43.4038 64.3905 43.771 64.2646C44.7811 63.9206 45.998 63.9091 47.0636 63.9691C50.5063 64.1619 58.8094 66.7953 61.0388 63.3503V63.3514ZM66.974 62.8204C65.6937 62.9208 66.0285 64.3258 67.1391 64.3154C67.4208 64.3131 67.8157 63.9322 67.6656 63.7428C67.624 63.6897 66.9717 64.4736 66.4614 63.8513C66.0066 63.2972 66.7627 63.2268 66.974 62.8204ZM46.5394 73.2108L50.1634 73.9913C50.6391 73.9001 50.7718 72.5054 50.355 72.2214C45.2002 69.4333 40.3202 66.1753 35.1642 63.3976L34.9933 63.453C35.5763 64.282 34.8698 63.5131 34.8201 63.5131C34.7705 63.5131 34.5119 63.8502 34.4161 63.916L34.9922 64.0303C34.5985 64.1238 34.3514 65.1963 34.296 65.2413C34.0466 65.4434 33.9231 65.0162 33.8965 65.0093C33.4982 64.9089 33.7141 65.3083 33.4347 65.2448C33.3308 65.2217 33.4359 64.9239 33.205 65.0128C33.063 65.4757 31.8046 65.3637 31.6453 65.4746C31.606 65.5023 31.8127 65.7632 31.7596 65.8198C31.7446 65.8359 31.4917 65.687 31.359 65.6997C31.1304 65.7205 31.0669 65.9433 30.9572 65.9872C30.806 66.0472 30.1825 65.8856 29.9101 66.1061C29.7635 66.2238 29.8189 66.4894 29.7969 66.5136C29.7484 66.5656 29.6168 66.3381 29.5129 66.3254C29.3097 66.3 29.0892 66.5586 28.9114 66.5898C28.3088 66.6949 27.2605 66.7399 26.6521 66.6002C26.405 66.5436 25.2136 66.113 25.0647 65.9941C24.7044 65.7043 25.0196 65.2714 24.402 65.5623C23.8259 65.8336 23.6088 66.6798 23.5592 67.2594C23.0731 72.9372 23.9356 79.2973 23.5592 85.0467C23.468 85.8699 24.477 87.3107 25.0612 86.1943C25.0381 81.23 25.1016 76.2645 25.0693 71.3001C25.0658 70.7021 24.7114 68.8526 25.4133 68.5374L48.7907 74.8248L48.8357 73.9139L46.5383 73.2108H46.5394ZM66.1647 64.8973C66.2652 64.8061 65.4408 63.7036 65.2423 63.6285C65.3242 63.9957 65.584 64.439 65.7884 64.7518C65.8934 64.9123 66.0504 65.0012 66.1636 64.8973H66.1647ZM64.6627 64.0903C64.149 63.5858 64.8174 65.1871 64.7782 65.2413C64.7597 65.2656 64.4203 65.3603 64.3198 65.3095C64.067 65.1825 63.9342 64.5625 63.626 64.4367C63.4066 65.3083 64.8567 66.2989 65.0137 65.1802C65.0368 65.0185 64.7251 64.1527 64.6627 64.0903ZM94.8459 68.198C91.0857 63.7209 80.7437 63.0524 77.0863 67.7939C76.995 67.9128 76.442 68.7072 76.4432 68.766C76.4444 68.8769 77.0493 69.1412 77.2052 69.1655C77.6947 69.2417 77.5677 68.9634 77.6739 68.938C78.0549 68.848 79.4645 69.5869 79.9413 69.7681C81.4179 70.3281 82.9211 70.8245 84.4023 71.3706L84.4081 71.7088L80.4828 72.7502C80.417 73.0896 80.6306 72.9822 80.8707 72.9649C81.919 72.891 83.1312 72.3796 84.176 72.1718L81.6373 74.9414C81.9398 74.8144 82.3611 74.5604 82.6186 74.3653C83.4787 73.7142 84.2915 72.7594 85.1608 72.0586C85.2382 71.9963 85.6261 71.6246 85.7369 71.8231L85.9193 77.2042C85.6792 77.5079 84.4358 77.2851 84.0329 77.2216C83.1116 77.0772 82.0425 76.7505 81.232 76.328C81.1374 76.4434 81.1466 77.0761 81.1882 77.1223C81.2644 77.2089 83.1012 77.8196 83.3679 77.8854C84.7648 78.2283 86.6062 78.2721 88.0482 78.1786C93.285 77.8381 99.4338 73.6611 94.8459 68.1969V68.198ZM62.5881 66.397C63.8788 66.7179 63.2819 65.5311 62.8744 64.8985C62.632 64.8604 62.6805 64.9539 62.752 65.1363C62.8571 65.4041 63.1192 65.7897 63.058 66.0934C63.0222 66.2712 62.5742 66.1649 62.5881 66.3958V66.397ZM48.965 66.1673C48.9096 66.2088 48.4744 67.3598 48.5102 67.4799C48.576 67.6993 49.2617 67.8413 49.4672 67.772C49.6531 67.7097 49.8078 66.7422 49.7616 66.591C49.7108 66.4293 49.0447 66.1084 48.9662 66.1673H48.965ZM51.6181 68.3608C51.6319 67.8043 51.4149 67.2571 51.2151 66.7457C51.0524 66.8761 50.1184 68.0168 50.2338 68.1299C50.3135 68.2084 50.8319 67.6704 51.3202 68.0041C51.4807 68.1137 51.2429 68.4543 51.6181 68.3608ZM52.5428 66.7445V68.3608C53.0115 68.4705 52.5578 67.839 52.948 67.8979C53.2678 67.9452 53.4237 68.6044 53.6973 68.3608C53.8624 68.2142 53.2321 67.8551 53.2321 67.6115C53.2321 67.3298 53.6892 67.2063 53.6985 66.92C53.441 66.711 53.067 67.4326 52.9469 67.4361C52.6536 67.4464 52.9584 66.5933 52.5428 66.7457V66.7445ZM57.506 66.7457C57.2855 66.5159 57.0708 67.1867 57.043 67.2063C56.8756 67.3252 56.4577 66.6625 56.2372 66.8611C56.101 66.9835 56.759 67.5238 56.8422 67.6993C56.9253 67.8748 56.9126 68.2246 56.9299 68.2465C57.2024 68.5986 57.1596 67.6219 57.1862 67.5215C57.2335 67.3425 57.5891 66.8334 57.506 66.7457ZM55.5434 67.2063C55.8089 66.8796 54.7214 66.7584 54.6209 66.86C54.4939 66.987 54.8356 68.1922 54.7375 68.4762C54.9176 68.2985 55.5757 68.4728 55.6588 68.3596C55.9878 67.9152 54.9984 68.1622 54.9673 68.1287C54.9523 68.1126 54.9511 67.7143 54.9823 67.6785C55.0042 67.6531 55.5918 67.7097 55.3125 67.3206C55.2986 67.3021 54.8564 67.5273 54.853 67.264C54.8495 66.9096 55.5203 67.2329 55.5422 67.2063H55.5434ZM65.2977 70.1526C63.5659 68.2615 59.9905 67.5088 58.1999 69.6896C58.7344 69.9956 59.5448 69.3756 59.9812 69.3952C60.0621 69.3987 59.9928 69.6573 60.211 69.6365C60.4881 69.61 60.7628 69.289 60.7975 69.2867C60.9741 69.2786 60.8333 69.6019 60.9187 69.6319C61.0676 69.6839 61.6841 69.6965 61.8204 69.6365C61.9901 69.5615 61.8192 69.2925 61.9531 69.2832C62.2175 69.2648 62.1644 69.5984 62.3214 69.633C63.4863 69.8905 64.0127 70.1457 64.9629 70.9526C65.7087 71.5853 66.2374 72.5216 66.8008 73.3251C66.8805 72.2168 66.0262 70.9492 65.2977 70.1526ZM76.2666 71.3071C75.6339 70.6825 74.8361 70.0441 73.931 69.8905C73.415 69.8028 72.75 69.7254 73.3341 70.2565C73.6943 70.5832 74.1065 70.8637 74.4217 71.2482C74.7853 71.314 74.4055 70.9584 74.4782 70.9042C74.6376 70.7841 75.8371 71.5541 76.0368 71.7111C76.3866 71.9871 77.1521 72.9742 77.4234 73.0954C77.4846 73.1231 77.6196 73.1173 77.5942 73.0388C77.5423 72.8783 77.0447 72.181 76.9027 71.9975C76.8046 71.8705 76.4063 71.4456 76.2666 71.3071ZM77.6704 70.8256C77.4499 70.5878 76.8865 70.1907 76.5563 70.0948C76.8496 70.3708 77.5919 71.3463 77.8852 71.4779C77.9348 71.4999 78.0745 71.508 78.056 71.4214C77.8921 71.2528 77.8274 70.9942 77.6704 70.8256ZM25.9894 70.5543V77.3081C25.9894 77.3693 26.4893 77.6822 26.5655 77.5968C26.711 77.434 26.2572 75.7796 26.9684 75.8558L33.377 77.3659L26.6971 75.043C26.6532 74.9714 26.6174 73.7396 26.6821 73.6726C26.7976 73.5526 29.4644 74.5131 29.9135 74.4808L27.3228 73.2051C27.1959 73.1 26.7294 73.1289 26.6913 73.0873C26.5586 72.943 26.719 71.8451 26.6833 71.5957L36.7274 74.4242C33.833 73.1381 30.7956 72.2007 27.8378 71.075C27.4937 70.9446 26.2492 70.1526 25.9894 70.5566V70.5543ZM12.5961 70.5555C9.62211 71.0485 6.78089 73.6034 6.13322 76.5577C6.86171 75.5937 7.34429 74.4658 8.15128 73.5549C8.79433 72.8299 9.58978 72.2953 10.3656 71.7285L12.5961 70.5555ZM74.6641 72.9072C73.9807 72.1845 72.8204 71.1177 71.9026 70.7633C71.779 70.716 71.1648 70.5186 71.1314 70.5543C70.9466 70.7506 71.9268 72.5701 72.2281 72.7467C72.5606 72.9418 72.1115 72.2445 72.4567 72.4015C72.6992 72.5124 73.0155 73.0954 73.3226 73.2085C73.3538 73.0434 72.5907 72.2007 73.034 72.4015C73.2418 72.495 73.4288 73.0261 73.6135 73.0931C73.7278 73.1346 73.6135 72.8206 73.7278 72.8633C73.8641 72.9141 74.0696 73.2917 74.2531 73.3771C74.5568 73.5191 74.9897 73.4106 75.2298 73.7858C75.3014 73.5549 74.8304 73.0815 74.6641 72.9072ZM64.7793 75.865C65.1765 75.5175 63.6976 73.5918 63.3985 73.2651C61.6818 71.3856 57.984 69.6238 55.892 71.8832C55.6773 72.1152 54.9765 73.3274 55.1982 73.556C55.2755 73.6357 57.2739 73.6749 57.3929 73.5549C57.4032 73.5445 57.2705 73.3794 57.2947 73.3424C57.3317 73.2859 57.6134 73.2455 57.6214 73.152C57.6249 73.1104 57.3305 72.9211 57.3929 72.8645C57.5095 72.7571 58.1329 72.8206 58.3153 72.8622C58.4123 72.465 58.0936 72.7652 58.0856 72.7479C57.999 72.5551 58.4723 72.2665 58.6582 72.2168C58.8302 72.1706 59.0773 72.3219 59.1223 72.2838C59.1615 72.2514 58.9549 71.9928 59.008 71.9386C59.0449 71.9005 59.9766 71.9155 60.0748 71.9467C60.1821 71.9801 60.5873 72.3392 60.6405 72.375C60.6855 72.4062 61.3308 72.502 61.6518 72.6982C62.8848 73.4533 63.4366 74.7151 64.3579 75.5914C64.4214 75.6514 64.7585 75.8789 64.7782 75.8627L64.7793 75.865ZM21.5561 83.4397C21.7547 83.0679 22.2315 82.0612 22.2881 81.6883C22.4047 80.9194 22.407 77.4986 22.2685 76.7586C21.8967 74.7729 19.5404 72.2595 17.6747 71.5391C11.5062 69.1586 5.85499 74.4935 6.24405 80.6608C6.78089 89.159 17.4831 91.0813 21.5573 83.4397H21.5561ZM59.5841 72.1718C59.4756 72.0483 59.1154 72.4062 59.2389 72.517C59.434 72.6902 59.7584 72.3692 59.5841 72.1718ZM59.9304 72.2872C59.6199 71.934 59.6199 73.1012 59.9304 72.7479C59.9454 72.7306 59.9454 72.3046 59.9304 72.2872ZM75.2864 76.672C74.8512 76.2749 74.2854 76.0336 73.7982 75.6792C73.1032 75.1735 72.1427 74.3757 71.5955 73.7257C71.2122 73.2709 70.9593 72.7179 70.5541 72.2861C70.4029 72.8056 70.1396 73.1173 70.2355 73.6969C70.3209 74.2152 70.4664 73.877 70.5345 73.9209C70.6499 73.9936 71.0251 74.8294 71.3045 74.9414L71.4188 74.5962C71.6578 74.7452 72.1531 75.4494 72.3436 75.5187C72.444 75.5556 72.369 75.2705 72.4567 75.2866C72.6888 75.3293 72.7627 75.6283 72.8596 75.6815C72.9462 75.7288 73.0917 75.6434 73.2002 75.6976C73.8698 76.0347 74.5464 76.4504 75.2875 76.672H75.2864ZM59.0068 72.4027C58.9226 72.3242 58.3315 72.3842 58.5462 72.6324C58.7413 72.8564 59.1777 72.562 59.0068 72.4027ZM60.9706 79.7892C61.0249 79.7314 60.5273 78.4742 60.4477 78.2929C59.6995 76.5924 57.5349 74.393 55.5145 74.7382C54.2018 74.9622 53.6661 76.6016 53.8105 77.7722C53.8312 77.942 54.2434 78.8159 54.293 78.8471C54.36 78.8886 54.8299 78.884 54.8518 78.8656C54.9015 78.8217 54.6856 77.9096 54.7444 77.5448C54.8033 77.18 55.1612 76.8787 55.0839 76.4423L55.2547 76.9029C55.5087 76.8256 55.5214 76.3522 55.5457 76.3245C55.5791 76.2864 56.3273 76.8002 56.1229 75.9793C56.5247 76.0232 56.0525 76.8267 56.4658 76.5543C56.5131 76.5231 56.7925 75.9793 57.1042 75.8639C57.2116 75.8235 57.1008 76.0601 57.2197 76.0959C57.4933 76.179 57.3432 75.8004 57.4494 75.865C57.5556 75.9297 57.5683 76.1271 57.6526 76.1802C57.775 76.2587 58.0174 76.2068 58.1687 76.298C59.2077 76.9283 60.0828 78.5215 60.6843 79.5629C60.7259 79.6356 60.7836 79.9923 60.9718 79.7892H60.9706ZM74.4771 78.637L72.6276 77.8877C72.3563 77.8334 70.9778 76.7182 70.8982 76.7898C70.5714 77.0819 73.7613 78.6139 74.0118 78.697C74.1215 78.7339 74.4944 78.8633 74.4771 78.637ZM58.1987 80.2521C58.2287 80.1217 58.1641 79.9635 58.0313 79.9427C57.7912 79.9058 57.0569 80.0547 56.6424 80.0201C55.9428 79.9612 53.1201 79.6125 52.9123 78.9014C52.8361 78.6416 52.9088 78.3299 52.8869 78.0597C51.468 79.0572 52.9053 79.6864 53.9259 79.9658C55.3182 80.3456 56.7775 80.3225 58.1975 80.2533L58.1987 80.2521ZM26.6752 78.6427C26.6509 78.6185 26.0194 78.5007 25.9906 78.5204C25.9594 78.5423 25.8636 79.0445 25.8624 79.1565C25.8509 80.3906 25.9686 81.7183 25.9929 82.9617C26.009 83.7606 25.8289 86.3109 26.1672 86.8281C26.2757 86.9932 26.853 87.4042 26.7779 87.0278C26.726 86.7658 26.5886 85.4219 26.6809 85.3319C26.696 85.318 26.9938 85.3215 27.0862 85.3296C30.0983 86.1227 33.0734 87.1214 36.097 87.866C36.3245 87.9226 38.9186 88.5841 38.9209 88.2759L26.7537 84.4198C26.644 84.3333 26.644 83.2977 26.6833 83.2538C26.7225 83.2099 27.7246 83.4247 27.608 83.7144C27.817 83.7606 27.6807 83.5193 27.7223 83.4859C27.9451 83.3023 27.9578 83.6706 27.9751 83.6821C28.0848 83.7502 28.4843 83.7098 28.5097 83.7318C28.5304 83.7491 28.5339 84.1508 28.7602 83.9465C28.7729 83.935 28.7625 83.5597 28.8745 83.7179C28.8918 83.7421 28.8237 83.9026 28.9565 83.9453C29.319 84.0631 30.5116 84.339 30.9029 84.4025C31.0161 84.421 32.0736 84.4914 31.7619 84.1797L26.6936 82.4353C26.7017 82.2402 26.6371 81.2196 26.6821 81.1757C26.8356 81.0279 29.6676 82.1409 30.1271 82.2909C33.0884 83.2584 36.0658 84.0596 39.0618 84.9013C41.1595 85.4901 43.2133 86.2763 45.3849 86.6007C45.2291 86.3663 44.8031 86.2289 44.541 86.1181C41.0152 84.6357 37.2296 83.6902 33.6102 82.5022C31.3139 81.7483 29.0419 80.9159 26.7502 80.1494C26.5528 80.0131 26.7779 78.7443 26.6752 78.6416V78.6427ZM51.1574 78.5215C50.2038 78.5134 50.7106 79.6622 51.042 79.3297C51.0708 79.3008 50.9912 78.6878 51.1574 78.5215ZM50.6956 81.2912C50.9069 81.2115 50.9381 80.4899 50.9311 80.3156C50.9254 80.1782 50.863 79.6056 50.6956 79.5594V81.2912ZM76.6683 82.7978L73.7844 81.4666C73.0929 81.0626 67.8156 79.5155 67.5513 79.7915C67.5397 79.8042 67.5386 80.1251 67.5513 80.1367C67.5686 80.154 67.8988 80.1217 68.0408 80.1644C70.6107 80.9483 72.8793 81.5763 75.3649 82.6558C75.5704 82.7447 76.4363 83.2526 76.4998 83.2503C76.6164 83.2457 76.7399 82.9005 76.6683 82.7966V82.7978ZM88.562 80.1367C89.1588 79.6229 86.3061 79.8538 86.2541 80.3676C86.5797 80.2233 88.4742 80.2129 88.562 80.1367ZM62.4703 80.7151C59.9293 81.1642 57.2924 81.5855 54.7098 81.1434C54.4108 81.0926 53.1824 80.6631 53.1189 80.7151C52.9769 80.8305 54.5239 83.7075 55.1381 83.7168L54.3889 81.7541C56.6932 81.5278 58.9699 81.8338 61.2235 81.1422L62.4692 80.7151H62.4703ZM82.3762 82.4965C82.4524 82.4318 82.6706 82.3083 82.6729 82.2725C82.6809 82.1582 81.9005 81.7287 81.755 81.6918C80.2092 81.2992 78.5328 82.1489 77.7813 83.4974C77.5111 83.9811 76.8507 85.8272 77.1347 86.2555C77.1451 86.2717 77.3529 86.1308 77.3633 86.1389C77.4719 86.2197 77.6208 87.8048 78.1738 87.5231C78.2234 87.4977 78.0549 86.5522 78.0549 86.4206C78.0526 85.437 78.2534 84.2524 78.9808 83.539C79.1759 83.3485 79.0096 83.7791 79.2117 83.7133C79.2786 82.8197 80.7125 82.4133 81.4606 82.4387C81.762 82.4491 82.0818 82.6846 82.263 82.68C82.3334 82.6777 82.3311 82.5345 82.3785 82.4953L82.3762 82.4965ZM93.4108 86.7173C93.644 86.4252 92.4976 84.7616 92.254 84.4695C90.7185 82.6304 88.316 81.5682 85.9078 81.7541C85.7923 81.9931 86.4596 82.1697 86.5693 82.1882C88.9221 82.5784 90.4969 83.1811 92.0855 85.0998C92.1824 85.2164 93.2307 86.9424 93.4108 86.7173ZM52.4274 82.5611C52.4585 82.321 52.4228 82.1224 52.1503 82.1051C51.9379 82.0912 50.3019 82.3937 50.6956 82.792C50.7972 82.8936 52.1353 82.4433 52.4274 82.5611ZM72.8111 86.2093C74.0592 84.6069 72.2905 82.8647 70.6684 82.6789C71.5851 83.5032 73.2637 84.3425 72.3828 85.8353C71.6417 87.089 67.8399 88.0611 66.4222 88.3036L63.7414 88.6811C66.5295 88.7734 69.6732 88.4837 72.0215 86.8616C72.2605 86.6965 72.6368 86.4344 72.8111 86.2116V86.2093ZM82.9061 85.3307C82.9569 85.2857 82.1753 84.5826 82.0714 84.2617C81.9351 83.8437 82.0633 83.4016 81.8105 83.0229C81.553 83.2723 81.568 84.1231 81.6962 84.406C81.7735 84.5769 82.7698 85.452 82.9061 85.3307ZM41.4585 84.062C41.6929 83.8438 40.8466 83.487 40.9979 83.8876C41.0544 84.0365 41.3811 84.1335 41.4585 84.062ZM54.7248 86.6145C54.6174 86.5153 54.1025 86.6168 54.1603 86.8893C54.1857 87.0094 54.8253 87.0867 54.8518 87.0636C54.8691 87.0486 54.7421 86.6307 54.7248 86.6157V86.6145ZM76.0934 87.1802C76.0183 87.1017 74.3351 87.8879 74.0649 87.9792C68.2775 89.9372 59.9431 90.3944 53.8716 89.8333C53.0554 89.7582 51.4403 89.3057 50.7545 89.3715C50.646 89.3819 50.6079 89.9383 50.8907 90.0434C51.1286 90.1323 51.8547 90.2385 52.1526 90.2824C57.7311 91.0882 70.4987 90.7765 75.4042 87.9318C75.5612 87.8406 76.3451 87.4435 76.0945 87.1802H76.0934ZM46.4228 90.4117C46.7138 90.1508 45.4785 89.8102 45.3838 89.7779C43.7213 89.2237 41.8083 88.785 40.0743 88.5668L40.4206 88.8543C41.1376 89.0332 46.1931 90.6195 46.424 90.4117H46.4228ZM73.901 89.7201C67.0895 91.5073 59.9708 91.9633 52.948 91.3341C52.245 91.2706 51.5373 91.1298 50.8411 91.0143C50.6102 90.9762 50.6321 91.154 50.6968 91.2175C50.7568 91.2787 52.1445 91.5362 52.372 91.5639C58.1768 92.2796 66.8205 92.0291 72.4256 90.3782C72.8666 90.2477 73.5754 90.0191 73.9022 89.7201H73.901Z" fill="currentColor"/>
<path d="M22.5258 90.4111C22.6366 90.336 22.8744 90.067 22.9887 90.2391C23.0972 90.6801 22.6377 90.5681 22.5431 90.6616C22.475 90.7286 22.5465 90.9041 22.5258 90.9895C22.5893 90.9895 22.7059 90.7678 22.8179 90.9895C22.8398 91.0322 22.7243 91.1973 22.7567 91.2204C23.0049 91.397 23.1446 90.5381 23.3328 91.0495C23.402 91.2365 22.8317 91.4928 22.7647 91.4409C22.7266 91.4109 22.7774 91.2516 22.7567 91.2215C22.7428 91.2031 22.4369 91.3358 22.296 91.2204C22.1702 91.1176 22.4877 91.1488 22.5258 90.9906C22.2521 90.986 22.2879 90.829 22.064 90.6443C22.2775 90.814 22.4715 90.4503 22.5258 90.4134V90.4111Z" fill="currentColor"/>
<path d="M97.9872 51.9003C98.2378 52.0631 98.6003 52.7188 98.6661 53.0063C99.1718 55.1952 97.2322 56.434 95.2557 55.9549C94.66 55.8106 92.7066 54.5903 93.1961 53.8318C93.2261 53.7856 93.9777 53.5408 94.2097 53.4034C95.3712 52.7119 96.5291 50.9605 97.9861 51.9015L97.9872 51.9003ZM97.3257 51.9788C97.0625 51.5343 95.3169 53.0178 95.3746 53.2938C95.4081 53.4542 95.5847 53.4623 95.729 53.4219C95.7891 53.4046 96.6769 52.8539 96.79 52.7742C96.8651 52.7211 96.8801 52.6092 96.9574 52.5434C97.0798 52.4406 97.5936 52.4337 97.3246 51.9788H97.3257Z" fill="currentColor"/>
<path d="M1.09448 53.046C1.2665 52.7378 1.83798 52.3256 2.20049 52.2494C4.53719 51.7576 5.22758 54.8851 3.32728 55.6829C1.60823 56.4045 0.220526 54.6104 1.09448 53.0449V53.046ZM3.01441 52.7759C2.99016 52.7539 2.45563 52.6801 2.55376 52.9467C2.70038 53.345 3.1668 52.9179 3.01441 52.7759ZM1.97536 53.2377C1.78371 53.0218 1.17299 53.9327 1.53203 54.144C1.59669 54.1821 1.9592 54.1763 1.97536 54.1613C2.00884 54.1301 2.00538 53.2723 1.97536 53.2377Z" fill="currentColor"/>
<path d="M35.2786 6.77566C35.6215 7.29056 35.745 8.06061 35.6734 8.71983C35.3178 11.9824 30.8846 7.91284 32.9199 6.31271C33.8135 5.61077 34.6875 5.89016 35.2774 6.77681L35.2786 6.77566ZM34.056 6.81491C34.0941 6.76989 34.0871 6.61287 34.0733 6.53899C33.9486 5.84513 32.6613 6.71447 33.1485 7.05736C33.2409 7.12201 34.0259 6.85186 34.056 6.81607V6.81491Z" fill="currentColor"/>
<path d="M64.4006 6.15918C65.3623 5.93867 66.2421 6.73296 66.174 7.6912C66.1151 8.51897 64.9259 10.0002 64.037 9.94131C62.5869 9.84433 63.2369 6.42587 64.4006 6.15918ZM65.0102 6.48128C64.9629 6.43626 64.157 6.46628 64.3187 6.88305C64.5173 7.39334 65.2342 6.69487 65.0102 6.48128Z" fill="currentColor"/>
<path d="M2.17574 46.7985C2.79917 46.6704 3.39835 46.9636 3.7574 47.4728C4.88419 49.0729 3.0116 50.8555 1.51191 49.6028C0.485558 48.745 0.919649 47.056 2.17574 46.7985ZM2.43781 47.2349C2.28195 47.0237 1.53153 47.2061 1.63313 47.6298C1.76243 48.1655 2.64677 47.5178 2.43781 47.2349Z" fill="currentColor"/>
<path d="M4.85974 24.6064C4.90707 24.6376 5.07909 25.5069 5.21879 25.6916C5.44738 25.9964 5.91957 25.851 5.90918 26.1638C5.88955 26.7515 5.37118 26.5402 5.15183 26.8011C4.99482 26.9893 4.98212 27.9533 4.69003 27.8367C4.38178 27.7132 4.40949 27.174 4.22592 26.9154C4.02735 26.636 3.46973 26.5875 3.46973 26.2793C3.46973 25.971 3.96616 25.9572 4.15665 25.6882C4.33214 25.44 4.39563 24.2982 4.86089 24.6053L4.85974 24.6064Z" fill="currentColor"/>
<path d="M96.4463 87.8385C95.6 87.1411 96.3851 85.3736 97.6793 86.2025C99.0127 87.0569 97.3733 88.6027 96.4463 87.8385Z" fill="currentColor"/>
<path d="M46.9136 2.0075C47.1445 1.78237 47.6513 1.85972 47.7841 2.17721C47.8591 2.35385 48.1847 4.27147 48.1662 4.46311C48.1293 4.86257 47.7159 5.13387 47.3961 4.87642C47.126 4.65822 46.6907 2.22454 46.9124 2.00865L46.9136 2.0075Z" fill="currentColor"/>
<path d="M75.2619 12.3491C75.1107 12.4403 74.1721 12.2186 74.1525 11.9646C74.1363 11.7545 75.5563 9.96041 75.905 10.0655C76.0239 10.1013 76.4488 10.7709 76.4222 10.9071C76.3968 11.0364 75.8923 11.452 75.7503 11.6206C75.6348 11.758 75.2989 12.326 75.2608 12.3491H75.2619Z" fill="currentColor"/>
<path d="M52.0468 1.99328C53.057 1.7012 52.3666 4.21338 52.168 4.66017C51.9902 5.05847 51.5169 5.05732 51.3299 4.74907C51.1567 4.46391 51.6266 2.11566 52.0468 1.99328Z" fill="currentColor"/>
<path d="M2.69091 87.5057C2.17138 87.1836 3.20119 86.7472 3.25661 86.6687C3.40554 86.4575 3.31549 85.9841 3.536 85.9102C3.99433 85.7567 3.91236 86.4298 4.06245 86.6514C4.22177 86.8869 4.75399 86.8662 4.75284 87.2356C4.75168 87.605 4.2945 87.4584 4.10863 87.6374C3.9343 87.8048 3.97009 88.4005 3.76343 88.4478C3.44941 88.5194 3.34089 87.7078 3.12615 87.5819C2.98992 87.5023 2.77865 87.56 2.68975 87.5046L2.69091 87.5057Z" fill="currentColor"/>
<path d="M4.94318 30.0467C5.39228 29.9151 6.62644 31.2474 5.78135 31.596C5.50773 31.7092 4.68227 30.953 4.56682 30.7221C4.46291 30.5143 4.74345 30.1056 4.94203 30.0479L4.94318 30.0467Z" fill="currentColor"/>
<path d="M96.3562 83.5366C97.3098 83.5366 97.0939 84.8643 96.3562 84.862C95.548 84.8597 95.4326 83.5366 96.3562 83.5366Z" fill="currentColor"/>
<path d="M74.3548 15.7061C74.326 15.7454 73.5294 16.1483 73.4797 16.1529C72.4153 16.2626 73.37 14.3069 74.1378 15.0746C74.2486 15.1854 74.4426 15.5861 74.3548 15.7061Z" fill="currentColor"/>
<path d="M30.0626 14.2959C29.5004 13.6274 30.7923 13.1194 31.2402 14.1019C31.6882 15.0844 30.5187 14.8373 30.0626 14.2959Z" fill="currentColor"/>
<path d="M99.0406 48.5902C98.6631 49.0231 97.7626 48.5763 98.0835 47.9275C98.4714 47.1424 99.559 47.9945 99.0406 48.5902Z" fill="currentColor"/>
<path d="M44.1968 2.92112C44.9738 2.69022 45.3305 3.79854 44.5801 4.00981C43.959 4.18529 43.5572 3.11046 44.1968 2.92112Z" fill="currentColor"/>
<path d="M55.4001 3.0447C55.8619 3.50419 55.2316 4.40931 54.6682 3.95098C54.1048 3.49264 54.8183 2.46399 55.4001 3.0447Z" fill="currentColor"/>
<path d="M57.8202 4.76313C58.5083 4.55878 58.9747 5.85182 57.9114 5.79871C57.2649 5.76639 57.3584 4.89936 57.8202 4.76313Z" fill="currentColor"/>
<path d="M98.1277 57.839C97.301 58.3436 96.9639 56.7896 97.8587 56.8208C98.3701 56.8392 98.3182 57.7224 98.1277 57.839Z" fill="currentColor"/>
<path d="M12.2175 15.7366C13.0591 15.4838 13.223 16.7699 12.3156 16.6429C11.8053 16.5713 11.7557 15.8752 12.2175 15.7366Z" fill="currentColor"/>
<path d="M11.8655 59.0258C12.602 58.7775 12.8791 59.8374 12.146 59.9967C11.6623 60.1018 11.3459 59.2012 11.8655 59.0258Z" fill="currentColor"/>
<path d="M91.3001 53.4842C92.0424 53.2775 92.2329 54.6491 91.3001 54.3708C90.8729 54.2439 90.8868 53.5996 91.3001 53.4842Z" fill="currentColor"/>
<path d="M6.11525 50.9459C6.40849 51.4054 5.7816 52.1362 5.35328 51.7067C4.89033 51.2438 5.82316 50.4876 6.11525 50.9459Z" fill="currentColor"/>
<path d="M0.32624 43.6712C0.963522 43.4934 1.16787 44.4101 0.622946 44.5625C-0.0143363 44.7403 -0.218682 43.8236 0.32624 43.6712Z" fill="currentColor"/>
<path d="M6.44491 53.7148C7.08912 53.5336 7.34195 54.5057 6.62386 54.6061C6.06624 54.6835 5.94732 53.8557 6.44491 53.7148Z" fill="currentColor"/>
<path d="M5.46947 49.0521C5.0146 48.596 5.74539 47.9414 6.14254 48.4367C6.53969 48.932 5.87123 49.455 5.46947 49.0521Z" fill="currentColor"/>
<path d="M6.33437 22.1525C5.88527 22.6166 5.34035 21.7092 5.90143 21.4298C6.47753 21.1423 6.65647 21.8189 6.33437 22.1525Z" fill="currentColor"/>
<path d="M31.3166 10.8832C31.7622 10.598 32.3879 11.2699 31.8834 11.6255C31.3893 11.9742 30.9621 11.1095 31.3166 10.8832Z" fill="currentColor"/>
<path d="M99.8616 44.1001C99.6527 44.4279 98.7868 44.0816 99.1239 43.5367C99.4299 43.0414 100.153 43.644 99.8616 44.1001Z" fill="currentColor"/>
<path d="M17.8652 6.02608C18.4655 5.84713 18.6191 7.16557 17.7925 6.76957C17.4519 6.60679 17.6077 6.10227 17.8652 6.02608Z" fill="currentColor"/>
<path d="M78.4727 7.87574C79.0776 7.67602 79.1376 8.54997 78.7948 8.66311C78.1898 8.86284 78.1298 7.98888 78.4727 7.87574Z" fill="currentColor"/>
<path d="M61.5478 3.70932C61.527 3.7301 60.9902 3.7301 60.9694 3.70932C60.9221 3.66198 60.9463 3.08012 61.1438 3.01777C61.5859 2.88039 61.6275 3.6285 61.5478 3.70932Z" fill="currentColor"/>
<path d="M37.5345 15.8303C37.4156 15.8106 37.1258 15.8672 37.0727 15.8303C37.0531 15.8164 37.2482 15.5082 37.1893 15.3696L37.5345 15.8303Z" fill="currentColor"/>
<path d="M77.2491 92.0277L76.5564 92.7193C76.494 92.4722 76.8034 92.4168 76.7884 92.2021C76.7838 92.1305 76.1534 92.1455 76.5564 91.9688C76.7388 91.8892 76.9628 92.2009 77.017 92.1443C77.0782 92.0797 76.8623 91.6964 77.2479 91.7991C77.2687 91.8696 77.2306 91.9758 77.2491 92.0277L77.5954 92.0855C77.2121 92.4711 77.3276 92.2448 77.2491 92.0277Z" fill="currentColor"/>
<path d="M22.4099 91.3364L22.0578 91.6054L21.835 91.5073L22.4099 91.3364Z" fill="currentColor"/>
<path d="M21.2561 91.2201C21.2781 91.2027 21.2331 91.0908 21.2608 91.0723C21.651 90.7987 21.636 91.1046 21.6013 91.451L21.2561 91.2212C21.464 92.0305 20.8879 91.436 20.9098 91.3944C20.9883 91.2489 21.1984 91.2662 21.2561 91.2212V91.2201Z" fill="currentColor"/>
<path d="M86.485 92.1447C86.3291 92.5523 86.0416 92.3237 85.9077 92.0293L86.485 92.1447Z" fill="currentColor"/>
<path d="M76.2103 92.1455C76.5174 92.5218 75.4876 92.2967 75.7497 92.0289C75.7763 92.0012 76.1953 92.127 76.2103 92.1455Z" fill="currentColor"/>
<path d="M89.6019 90.9876C89.4888 90.9703 89.1759 91.0188 89.1413 90.9876C88.9069 90.781 89.5003 90.5766 89.6019 90.9876Z" fill="currentColor"/>
<path d="M21.7171 91.9122C21.6744 91.9515 21.2853 91.9849 21.3719 91.7413C21.5001 91.3846 21.8372 91.8002 21.7171 91.9122Z" fill="currentColor"/>
<path d="M22.18 90.9905C22.2458 91.0459 21.9225 91.316 21.8348 91.219C21.8232 91.2063 21.8221 90.8923 21.8348 90.8739C21.8452 90.8588 22.1661 90.9789 22.18 90.9905Z" fill="currentColor"/>
<path d="M24.1414 91.9126C24.1287 91.9241 23.8147 91.9253 23.7962 91.9126C23.7812 91.9022 23.9013 91.5812 23.9128 91.5674C23.9682 91.5016 24.2384 91.8248 24.1414 91.9126Z" fill="currentColor"/>
<path d="M89.024 90.9901C89.3669 91.2903 88.3359 91.2903 88.6788 90.9901C88.6915 90.9786 89.0113 90.9786 89.024 90.9901Z" fill="currentColor"/>
<path d="M21.0239 91.5677C21.4499 91.9417 20.307 91.6843 20.5633 91.5677C20.6025 91.5492 21.0066 91.5515 21.0239 91.5677Z" fill="currentColor"/>
<path d="M23.3337 91.6824C23.3499 91.694 23.1836 92.0368 23.1617 92.0276C22.7796 91.8567 23.0717 91.5 23.3337 91.6824Z" fill="currentColor"/>
<path d="M22.4096 91.7983C22.5874 91.9749 22.084 92.1665 22.0655 92.1435C21.9501 92.0014 22.2999 91.6886 22.4096 91.7983Z" fill="currentColor"/>
<path d="M88.2158 91.4517C88.2274 91.4644 88.2274 91.7842 88.2158 91.7969C87.9157 92.1398 87.9157 91.1089 88.2158 91.4517Z" fill="currentColor"/>
<path d="M18.3698 91.335C18.3559 91.3235 18.1666 91.4932 18.14 91.4505C18.0442 91.2935 18.1712 90.9437 18.3698 91.1041C18.3975 91.1261 18.3455 91.312 18.3698 91.335C18.3848 91.3489 18.7138 91.3489 18.7138 91.5082C18.7138 92.0774 18.394 91.3547 18.3698 91.335Z" fill="currentColor"/>
<path d="M15.0205 91.4515C15.1983 91.6085 14.8669 91.8475 14.6753 91.5081C14.6799 91.4053 15.0078 91.44 15.0205 91.4515Z" fill="currentColor"/>
<path d="M87.2925 91.5676C87.4795 91.7442 87.1297 91.8723 86.9473 91.7961C86.9507 91.6472 87.2163 91.4948 87.2925 91.5676Z" fill="currentColor"/>
<path d="M91.3331 90.2972C91.4047 90.3733 91.2534 90.6389 91.1045 90.6423C91.0283 90.4588 91.1564 90.109 91.3331 90.2972Z" fill="currentColor"/>
<path d="M85.4454 92.2588C85.2687 92.4458 85.1406 92.096 85.2168 91.9136C85.3657 91.917 85.5181 92.1826 85.4454 92.2588Z" fill="currentColor"/>
<path d="M85.0986 92.1449C85.2764 92.3019 84.9451 92.5409 84.7534 92.2014C84.758 92.0987 85.0859 92.1333 85.0986 92.1449Z" fill="currentColor"/>
<path d="M77.3638 92.3752C77.5508 92.5518 77.201 92.68 77.0186 92.6038C77.022 92.4548 77.2876 92.3024 77.3638 92.3752Z" fill="currentColor"/>
<path d="M37.9964 56.0077C37.6454 55.6533 39.3379 53.8615 39.6727 53.5868C40.295 53.0765 42.6097 51.623 43.1316 52.7775C43.7538 54.1559 41.0858 55.4386 40.0756 55.7203C39.7835 55.8022 38.1095 56.122 37.9964 56.0077Z" fill="currentColor"/>
<path d="M31.793 66.1982C32.3033 65.7883 33.3054 66.0608 33.2707 66.9151C33.2222 68.0939 31.4374 67.7775 31.5309 66.8147C31.5413 66.7062 31.7225 66.2548 31.793 66.1982Z" fill="currentColor"/>
<path d="M36.8695 67.6389C36.2599 66.9312 37.2932 65.7317 38.0517 66.5144C38.8102 67.2972 37.4283 68.2854 36.8695 67.6389Z" fill="currentColor"/>
<path d="M34.9949 64.5522C35.0179 64.5695 34.7928 65.0152 34.6497 65.0129C34.5492 64.7866 34.8286 64.4206 34.9949 64.5522Z" fill="currentColor"/>
<path d="M31.5309 29.5707C31.532 29.6469 31.405 29.7831 31.3565 29.7993C31.0829 29.8905 31.0645 29.4356 31.5309 29.5707Z" fill="currentColor"/>
<path d="M47.8097 14.0996C47.7485 14.0696 47.5627 14.1204 47.4634 14.0996C47.4795 13.9183 47.7312 13.8479 47.8097 13.7544C47.7982 13.7671 47.7982 14.088 47.8097 14.1007V14.0996Z" fill="currentColor"/>
<path d="M47.8098 13.7535C47.819 13.7419 47.7948 13.6461 47.8536 13.5618C47.8894 13.511 48.0453 13.5422 48.0441 13.4637C48.0441 13.2778 47.7544 13.1035 47.8098 13.0619C47.8571 13.0261 48.0742 13.1393 48.1919 13.1324C51.0412 12.9465 53.9148 12.5274 56.7583 12.3715C57.2489 12.345 58.3342 12.5424 58.7498 12.7964C59.4113 13.2028 58.2026 13.6172 57.8793 13.7211C55.5703 14.4681 51.9163 14.6898 49.4849 14.5605C49.1721 14.5443 48.2058 14.4981 48.0037 14.4508C47.8536 14.4162 47.8594 14.1252 47.8098 14.0998C47.8964 14.198 48.1215 13.9347 48.2335 13.9047C48.5048 13.8331 48.5129 14.1841 48.6191 13.3506C48.3397 13.1231 48.3789 13.5572 48.1492 13.6934C48.0338 13.7627 47.8202 13.7408 47.8086 13.7535H47.8098Z" fill="currentColor"/>
<path d="M40.5366 13.5209C40.42 13.1422 40.8506 13.3881 40.891 13.2288C41.0803 12.4749 40.2341 11.8041 41.5791 12.1932C41.7303 12.2371 41.8469 12.4137 41.9762 12.431C42.4565 12.4968 43.4574 12.1655 43.9331 12.4922C44.1952 12.6723 44.5138 13.9711 44.2379 14.1639C43.8638 14.4271 41.115 13.7379 40.5354 13.5209H40.5366ZM42.4992 13.0591C42.438 12.8293 42.2533 12.7993 42.0374 12.8305C42.0986 13.0602 42.2833 13.0902 42.4992 13.0591Z" fill="currentColor"/>
<path d="M21.7174 80.3105C21.5765 81.174 21.1782 82.5802 20.7014 83.3352C20.4959 83.6596 19.7224 84.6375 19.3483 84.641C19.0355 84.6444 18.7088 83.819 18.4813 83.5453C17.9456 82.9023 15.3619 80.3347 15.4727 79.6328C15.4819 79.5773 15.953 79.3199 16.0603 79.2702C17.3245 78.6849 19.5065 77.8756 20.8469 77.4762C21.0074 77.4288 21.7174 77.1564 21.7174 77.4231C21.7174 78.2381 21.8363 79.5762 21.7174 80.3093V80.3105Z" fill="currentColor"/>
<path d="M9.78632 74.9851C10.8935 75.6963 12.0953 77.6797 13.296 78.4567C13.4288 78.6125 13.4726 78.9392 13.3549 79.1055C13.1852 79.3445 10.0934 79.5049 9.53926 79.5603C9.01742 79.6135 7.4831 80.0383 7.16099 79.6285C6.82042 79.1955 7.28337 77.57 7.48541 77.0447C7.77288 76.3 8.83039 74.3709 9.78632 74.9851Z" fill="currentColor"/>
<path d="M13.5181 79.5591C13.7882 79.76 13.4142 80.4584 13.2525 80.6755C12.4559 81.7388 10.9978 83.2604 10.0511 84.3168C9.37921 85.066 9.14254 85.3558 8.39212 84.401C7.89453 83.7695 6.8601 81.479 7.09331 80.7459C7.09908 80.7274 7.33691 80.5577 7.37155 80.4896L13.5181 79.5602V79.5591Z" fill="currentColor"/>
<path d="M10.0958 86.215C9.86839 86.0418 9.42853 85.6158 9.65366 85.333C10.4041 84.9289 13.7117 80.3375 14.0407 80.3698C14.1446 80.3802 14.2462 80.6434 14.2197 80.7646L14.2728 87.0636C13.7163 87.9814 10.7781 86.7334 10.0958 86.2139V86.215Z" fill="currentColor"/>
<path d="M17.728 83.4374C18.0698 83.8126 19.1492 84.675 19.1619 85.0687C19.1665 85.2199 18.3549 85.878 18.1771 86.0049C17.5537 86.4529 15.4537 87.6801 14.7875 87.0082C14.5347 86.7519 14.6698 81.1665 14.7921 80.3664C15.0138 80.3271 15.105 80.4022 15.2609 80.5315C15.9178 81.0799 17.0376 82.68 17.728 83.4362V83.4374Z" fill="currentColor"/>
<path d="M14.097 78.289C13.9954 78.3756 13.7899 78.2232 13.6895 78.1735C13.4124 78.0384 11.0607 75.5909 10.6901 75.173C10.5516 75.016 9.82422 74.172 9.82422 74.0762C9.82768 73.2323 12.6042 71.9739 13.3524 71.9358C13.8534 71.9104 14.1213 72.0616 14.2067 72.58C14.3729 73.6017 14.2956 76.4233 14.2182 77.542C14.2101 77.6644 14.1259 78.2636 14.097 78.2878V78.289Z" fill="currentColor"/>
<path d="M19.7068 73.8392C20.1674 74.1555 21.6659 76.4564 21.3231 76.9124C20.5934 76.9898 15.8092 79.0829 15.5991 78.8658C15.5517 78.8173 15.621 78.5114 15.6533 78.4017C15.7988 77.903 17.7326 74.8609 18.1424 74.3356C18.6481 73.6879 18.924 73.3023 19.7068 73.838V73.8392Z" fill="currentColor"/>
<path d="M15.1223 78.3958L14.6709 78.2122L14.6778 72.4628C14.9191 71.2114 18.3549 72.5517 18.3676 73.1498C18.3768 73.5689 15.3151 77.5322 15.1212 78.3958H15.1223Z" fill="currentColor"/>
<path d="M92.1054 75.553C92.1816 75.6431 92.2601 75.7885 92.2358 75.904C92.0811 76.6486 88.4226 77.3252 87.6964 77.3633C86.1701 77.4429 86.6065 77.0365 86.371 75.8059C86.4588 75.2713 86.0593 72.0006 86.1886 71.8182C86.3803 71.5481 86.8813 71.8148 87.0995 71.9602L92.1054 75.553Z" fill="currentColor"/>
<path d="M83.4291 65.8831C83.5064 65.8081 83.4972 65.7434 83.6427 65.6869C84.4831 65.3636 87.2262 65.3463 88.0459 65.703C88.5493 65.9224 88.8702 66.1175 88.5885 66.7132C88.1695 67.2593 86.8683 70.5461 86.4839 70.7332C86.2922 70.8267 85.5453 70.6985 85.3871 70.5565L83.1624 66.5446C83.047 66.0955 83.1855 66.121 83.4291 65.8843V65.8831Z" fill="currentColor"/>
<path d="M94.5341 68.9732C95.1391 69.4847 95.6494 71.2072 95.6113 72.0015C95.6032 72.1642 95.4196 73.0636 95.3735 73.0948C95.1518 73.2483 94.7685 72.7253 94.4845 72.6572C92.8486 72.2658 90.8074 72.2335 89.1115 71.9114C88.8471 71.8618 87.6349 71.654 87.6406 71.4208C87.643 71.3307 88.1521 71.0756 88.2722 71.0155C89.5363 70.3829 92.03 69.4627 93.4143 68.9998C93.7572 68.8843 94.2236 68.7111 94.533 68.9732H94.5341Z" fill="currentColor"/>
<path d="M78.452 67.5965C78.7544 67.1509 80.5046 66.3208 81.0542 66.2204C81.3878 66.1592 82.2907 66.0876 82.562 66.2238L84.9783 70.9503C84.8479 71.1847 84.6262 71.1616 84.4011 71.0831C82.7063 70.1584 80.4412 69.7543 78.8029 68.8284C78.1483 68.4589 78.0132 68.2431 78.452 67.5965Z" fill="currentColor"/>
<path d="M93.6223 68.4563C92.8545 68.7311 87.201 71.2675 86.9481 71.0158C86.8073 70.875 87.6108 69.7828 87.7344 69.5519C88.053 68.9562 88.367 68.3201 88.666 67.7128C89.1648 66.6945 88.8912 65.9407 90.4636 66.1762C91.1078 66.272 92.5613 67.0571 93.0693 67.4946C93.2979 67.6909 93.8139 68.1296 93.6234 68.4575L93.6223 68.4563Z" fill="currentColor"/>
<path d="M92.2044 75.2237C90.916 74.1546 89.4209 73.3199 88.2168 72.1724C89.9497 72.4321 91.8488 72.5533 93.5552 72.8939C93.8023 72.9436 94.6681 73.1352 94.7997 73.2645C95.422 73.8718 93.5529 75.5943 92.8833 75.6324C92.4492 75.6578 92.4307 75.4119 92.2033 75.2237H92.2044Z" fill="currentColor"/>
<path d="M91.1584 44.8655C92.4607 44.8193 92.3856 46.8778 91.1584 46.8328C90.0432 46.7912 89.9716 44.9082 91.1584 44.8655Z" fill="currentColor"/>
<path d="M10.4036 40.8835C9.68664 40.6595 9.63354 39.4057 9.59082 38.7523C9.51231 37.5446 9.47306 35.4158 9.58851 34.2382C9.67741 33.3377 10.4036 33.587 10.4036 33.7833V40.8835Z" fill="currentColor"/>
<path d="M67.4364 23.5674C67.3371 23.826 67 23.9264 66.7437 23.9114C66.8429 23.6528 67.1801 23.5524 67.4364 23.5674Z" fill="currentColor"/>
<path d="M31.9919 62.5884C31.8349 62.7661 31.5959 62.4348 31.9354 62.2432C32.0381 62.2478 32.0035 62.5757 31.9919 62.5884Z" fill="currentColor"/>
<path d="M50.6962 41.1131C50.6292 41.0635 51.2838 39.5326 51.3877 39.6134C51.4432 39.6562 51.8519 40.8718 51.8461 40.9423C51.8276 41.1651 50.7609 41.1593 50.6962 41.1131Z" fill="currentColor"/>
<path d="M49.3093 67.5531C49.2851 67.5854 48.582 67.3614 48.8498 67.0925C49.0138 66.9274 49.4894 67.3083 49.3093 67.5531Z" fill="currentColor"/>
<path d="M49.4249 66.5149C49.5992 66.7123 49.2748 67.0332 49.0797 66.86C48.9561 66.7492 49.3163 66.3913 49.4249 66.5149Z" fill="currentColor"/>
<path d="M51.1567 67.3228C51.3184 67.5087 51.0471 67.8331 50.8115 67.6669C50.7873 67.6495 50.9916 67.1323 51.1567 67.3228Z" fill="currentColor"/>
</svg>
