<svg fill="none" height="56" viewBox="0 0 94 56" width="94" xmlns="http://www.w3.org/2000/svg">
<path d="M0.53418 0.00364995C3.1383 0.00364995 5.74141 0.00364995 8.34554 0.00364995C10.1425 0.0168328 11.9546 -0.0795036 13.7323 0.246012C15.7533 0.580654 17.8078 1.3554 19.2052 2.91098C20.5285 4.36718 21.0538 6.3872 21.0193 8.319C21.0498 10.1261 20.5742 11.995 19.4313 13.4238C18.3503 14.81 16.7511 15.7014 15.0891 16.2044C13.7566 16.606 12.3653 16.7936 10.976 16.8372C9.66686 16.8382 8.3577 16.8361 7.04956 16.8372C7.05057 20.2181 7.04956 23.5979 7.04956 26.9778C4.87743 26.9778 2.70631 26.9778 0.53418 26.9778C0.53418 17.9861 0.53418 8.99538 0.53418 0.00364995ZM7.04956 5.25246C7.04956 7.39011 7.04956 9.52777 7.04956 11.6654C7.99163 11.6603 8.93471 11.6756 9.87779 11.6573C11.045 11.6279 12.2821 11.4981 13.2749 10.8298C13.9625 10.3877 14.3884 9.60889 14.4695 8.80372C14.579 7.8941 14.3731 6.8699 13.6562 6.24422C12.85 5.52829 11.7274 5.35386 10.688 5.28491C9.47622 5.22406 8.26238 5.26159 7.04956 5.25246Z" fill="currentColor"/>
<path d="M23.502 0.00529935C25.6822 0.00225715 27.8635 0.00529991 30.0437 0.00428585C30.0437 7.10275 30.0437 14.2012 30.0437 21.2997C33.7369 21.3017 37.4302 21.2966 41.1234 21.3017C44.1037 14.2053 47.0729 7.10377 50.0451 0.00428585C52.1615 0.00428585 54.2789 0.00428585 56.3952 0.00428585C60.124 8.995 63.8507 17.9867 67.5784 26.9785C65.1547 26.9704 62.7301 26.9937 60.3065 26.9673C59.622 25.2089 58.9182 23.4597 58.2256 21.7053C54.7595 21.7114 51.2935 21.6931 47.8284 21.7144C47.1804 23.4728 46.5162 25.2251 45.8581 26.9785C43.8634 26.9896 41.8677 26.9521 39.873 27.0048C34.4164 27.0028 28.9597 27.0048 23.503 27.0038C23.5009 18.005 23.504 9.00514 23.502 0.00529935ZM49.7146 16.4859C51.9546 16.4768 54.1937 16.4859 56.4328 16.4819C55.3295 13.4082 54.213 10.3397 53.1107 7.26602C51.9759 10.3386 50.825 13.4052 49.7146 16.4859Z" fill="currentColor"/>
<path d="M68.3237 0.00603072C70.8021 0.000960388 73.2805 0.00501622 75.7589 0.00400216C78.9877 5.26599 82.2175 10.528 85.4483 15.789C85.8509 16.4055 86.1794 17.0738 86.6388 17.6498C86.6276 14.709 86.58 11.7682 86.5739 8.8274C86.5171 7.64398 86.5871 6.45854 86.5262 5.27512C86.5435 3.51774 86.4826 1.76138 86.5019 0.00400216C88.6061 0.00400216 90.7103 0.00400216 92.8145 0.00400216C92.8145 8.99573 92.8145 17.9864 92.8145 26.9782C90.3493 26.9782 87.8841 26.9782 85.4179 26.9782C81.8402 21.1544 78.2596 15.3316 74.6819 9.50885C74.6272 9.43584 74.5663 9.36992 74.4994 9.31111C74.5126 12.2245 74.5592 15.1379 74.5633 18.0513C74.6231 19.2337 74.5501 20.4192 74.612 21.6026C74.5967 23.3945 74.6546 25.1853 74.6383 26.9782C72.5331 26.9782 70.4279 26.9792 68.3237 26.9772C68.3247 17.9864 68.3258 8.99573 68.3237 0.00603072Z" fill="currentColor"/>
<path d="M69.4908 30.223C72.3332 28.2242 75.8926 27.4373 79.3292 27.5884C81.9668 27.6848 84.6166 28.3672 86.8698 29.7687C87.2643 29.3063 87.6791 28.8621 88.0766 28.4007C89.6159 28.3926 91.1553 28.4007 92.6956 28.3966C91.6076 29.5466 90.557 30.732 89.4851 31.8962C91.3591 33.8047 92.5871 36.3104 93.01 38.947C93.4126 41.4953 93.2797 44.1532 92.4695 46.6113C91.8266 48.5117 90.7862 50.2934 89.3614 51.7131C87.6993 53.4431 85.5404 54.6529 83.2486 55.3272C80.7662 56.0482 78.1215 56.175 75.5711 55.7775C73.5065 55.4337 71.4773 54.6762 69.8163 53.3832C69.2129 54.0018 68.6349 54.6447 68.0386 55.2704C64.4448 55.2643 60.8509 55.2826 57.2571 55.2613C55.3202 51.6928 53.357 48.1385 51.413 44.574C50.6788 44.57 49.9436 44.573 49.2094 44.572C49.2094 48.1385 49.2094 51.7039 49.2094 55.2704C47.0799 55.2704 44.9503 55.2704 42.8208 55.2704C42.8208 46.2787 42.8208 37.288 42.8208 28.2962C45.6937 28.2962 48.5655 28.2962 51.4383 28.2962C52.7607 28.3104 54.0901 28.2374 55.4044 28.421C57.3777 28.6664 59.3785 29.2698 60.9341 30.5536C62.2321 31.6001 63.0707 33.1577 63.3313 34.7964C63.6345 36.6694 63.4581 38.6904 62.4714 40.3454C61.4847 42.0541 59.7486 43.2203 57.8868 43.7881C60.0204 47.3019 62.152 50.8176 64.2896 54.3294C65.2824 53.2666 66.2336 52.1653 67.2405 51.1148C66.0348 49.8229 65.1637 48.2379 64.6293 46.5576C63.9803 44.5619 63.8079 42.4364 63.954 40.3505C64.103 38.3832 64.6151 36.4311 65.543 34.6849C66.479 32.9113 67.849 31.3719 69.4908 30.223ZM73.4203 34.9637C71.74 36.3723 70.7989 38.515 70.5951 40.6719C70.4582 42.2184 70.5677 43.8236 71.164 45.2717C71.3039 45.6317 71.5199 45.9552 71.6629 46.3152C71.9803 46.0495 72.2287 45.7149 72.5147 45.4178C75.8997 41.6961 79.309 37.9958 82.702 34.2813C81.3422 33.4264 79.6933 33.1323 78.1073 33.2003C76.4118 33.2723 74.7203 33.8564 73.4203 34.9637ZM49.1851 33.5451C49.1841 35.6482 49.1841 37.7524 49.1841 39.8566C50.6261 39.8343 52.0721 39.9175 53.5101 39.7755C54.3538 39.666 55.2168 39.4489 55.9073 38.9287C57.0999 38.0658 57.3402 36.2374 56.5868 35.0155C55.9307 34.0369 54.6996 33.7053 53.5902 33.5988C52.1249 33.4943 50.6535 33.5643 49.1851 33.5451ZM74.0084 48.897C75.5032 50.0591 77.4836 50.4313 79.3373 50.2599C81.113 50.1149 82.844 49.3544 84.0994 48.0807C85.8598 46.3111 86.6143 43.7354 86.5058 41.2804C86.4561 39.6893 86.0566 38.0597 85.0901 36.7678C81.3908 40.8058 77.7006 44.8519 74.0084 48.897Z" fill="currentColor"/>
<path d="M0.306248 28.2714C7.19379 28.2704 14.0803 28.2714 20.9679 28.2714C20.9689 30.0217 20.9668 31.772 20.9689 33.5233C16.5942 38.8928 12.2307 44.2724 7.858 49.6439C12.3118 49.6399 16.7656 49.6459 21.2193 49.6409C21.2244 51.5179 21.2204 53.3939 21.2214 55.271C14.1483 55.271 7.07514 55.271 0.00202818 55.271C0.00101411 53.3868 0.00405627 51.5027 0 49.6186C4.26111 44.3535 8.52627 39.0915 12.7823 33.8224C8.62362 33.8245 4.46494 33.8235 0.306248 33.8235C0.306248 31.9728 0.306248 30.1221 0.306248 28.2714Z" fill="currentColor"/>
<path d="M22.5396 28.2714C28.5824 28.2714 34.6242 28.2704 40.667 28.2714C40.666 30.1221 40.667 31.9728 40.666 33.8235C36.7192 33.8235 32.7735 33.8235 28.8268 33.8235C28.8268 35.5139 28.8268 37.2033 28.8268 38.8938C32.5535 38.8938 36.2802 38.8928 40.0068 38.8938C40.0068 40.6349 40.0068 42.3751 40.0068 44.1162C36.2802 44.1162 32.5535 44.1162 28.8268 44.1162C28.8268 45.9842 28.8268 47.851 28.8268 49.719C33.0017 49.72 37.1766 49.7169 41.3515 49.72C41.3495 51.5706 41.3515 53.4203 41.3505 55.271C35.0805 55.271 28.8095 55.271 22.5396 55.271C22.5396 46.2711 22.5396 37.2713 22.5396 28.2714Z" fill="currentColor"/>
</svg>
