<svg width="186" height="186" viewBox="0 0 186 186" fill="none" xmlns="http://www.w3.org/2000/svg">
<g clip-path="url(#clip0_906_47)">
<path d="M38.5947 117C51.6257 117 62.1894 106.479 62.1894 93.5C62.1894 80.5213 51.6257 70 38.5947 70C25.5637 70 15 80.5213 15 93.5C15 106.479 25.5637 117 38.5947 117Z" fill="#E60000"/>
<path d="M38.783 106.604C32.3004 106.625 25.5548 101.114 25.5265 92.2647C25.5065 86.4134 28.6762 80.7792 32.7282 77.4382C36.6804 74.1784 42.0942 72.0875 47.0052 72.071C47.6379 72.0693 48.2988 72.1207 48.7033 72.2583C44.4099 73.1454 40.9921 77.1248 41.0071 81.6398C41.0071 81.789 41.0204 81.9482 41.0354 82.0228C48.2205 83.7654 51.4818 88.0831 51.5018 94.0571C51.5217 100.031 46.7855 106.577 38.783 106.604Z" fill="white"/>
<path d="M73.3184 102.515L67.853 89.5239H71.4256L74.835 98.1476L78.1363 89.5239H81.5457L76.2418 102.515H73.3184Z" fill="#E60000"/>
<path d="M94.3593 95.9656C94.3593 96.8112 94.2278 97.6419 93.9664 98.4593C93.7051 99.2768 93.3172 100.01 92.8028 100.656C92.2883 101.303 91.6391 101.824 90.855 102.22C90.0692 102.615 89.1553 102.812 88.1081 102.812C87.061 102.812 86.147 102.615 85.3613 102.22C84.5755 101.825 83.9279 101.303 83.4135 100.656C82.8991 100.01 82.5112 99.2768 82.2498 98.4593C81.9884 97.6419 81.8569 96.8112 81.8569 95.9656C81.8569 95.12 81.9868 94.2942 82.2498 93.4868C82.5112 92.6776 82.8991 91.9547 83.4135 91.3163C83.9279 90.678 84.5772 90.1673 85.3613 89.7809C86.1454 89.3946 87.061 89.2023 88.1081 89.2023C89.1553 89.2023 90.0659 89.3963 90.8417 89.7809C91.6174 90.1673 92.2667 90.6796 92.7894 91.3163C93.3122 91.9547 93.7051 92.6776 93.9664 93.4868C94.2278 94.2959 94.3593 95.1216 94.3593 95.9656ZM91.0581 95.9523C91.0581 95.4118 90.9948 94.8978 90.8683 94.4103C90.7418 93.9228 90.552 93.505 90.3006 93.1535C90.0476 92.802 89.7413 92.5218 89.38 92.3145C89.0187 92.1072 88.5959 92.0028 88.1081 92.0028C87.6203 92.0028 87.1975 92.1072 86.8362 92.3145C86.475 92.5218 86.1687 92.8003 85.9173 93.1535C85.6642 93.505 85.4745 93.9245 85.3496 94.4103C85.2231 94.8978 85.1598 95.4101 85.1598 95.9523C85.1598 96.4945 85.2231 97.0301 85.3496 97.5076C85.4761 97.9851 85.6609 98.4046 85.904 98.7644C86.147 99.1242 86.4533 99.4094 86.8246 99.6167C87.1942 99.8239 87.6237 99.9267 88.1098 99.9267C88.5959 99.9267 89.0204 99.8223 89.3817 99.6167C89.7429 99.4094 90.0492 99.1259 90.3023 98.7644C90.5553 98.4046 90.7451 97.9851 90.87 97.5076C90.9965 97.0301 91.0597 96.5111 91.0597 95.9523H91.0581Z" fill="#E60000"/>
<path d="M104.709 102.515L104.573 101.518C104.267 101.86 103.862 102.16 103.359 102.42C102.855 102.681 102.262 102.812 101.58 102.812C100.681 102.812 99.8883 102.623 99.2057 102.246C98.5232 101.87 97.9471 101.366 97.4793 100.738C97.0115 100.109 96.657 99.3812 96.4139 98.5538C96.1708 97.7281 96.0493 96.8659 96.0493 95.9672C96.0493 95.1233 96.1742 94.2959 96.4272 93.4884C96.6786 92.6793 97.0615 91.9563 97.5742 91.318C98.087 90.6796 98.7296 90.1689 99.5037 89.7826C100.276 89.3962 101.185 89.2039 102.227 89.2039C102.91 89.2039 103.647 89.3283 104.438 89.577V84.5414H107.794V102.518H104.711L104.709 102.515ZM104.438 92.3825C103.792 92.1304 103.191 92.0044 102.635 92.0044C102.079 92.0044 101.568 92.1122 101.155 92.3294C100.742 92.5449 100.401 92.8384 100.133 93.2082C99.8633 93.5779 99.6619 93.9925 99.527 94.4517C99.3922 94.911 99.3256 95.3836 99.3256 95.8711C99.3256 96.4116 99.3838 96.9306 99.5004 97.4263C99.6169 97.9221 99.7967 98.3549 100.038 98.7246C100.281 99.0944 100.586 99.3912 100.954 99.6167C101.322 99.8422 101.756 99.9549 102.259 99.9549C102.672 99.9549 103.093 99.8422 103.524 99.6167C103.955 99.3912 104.26 99.1259 104.44 98.8191V92.3825H104.438Z" fill="#E60000"/>
<path d="M117.508 102.503L117.373 101.533C117.01 101.933 116.549 102.246 115.988 102.472C115.427 102.697 114.811 102.812 114.142 102.812C113.581 102.812 113.041 102.717 112.525 102.528C112.009 102.339 111.553 102.071 111.153 101.719C110.756 101.369 110.434 100.938 110.189 100.426C109.945 99.9135 109.823 99.3348 109.823 98.6865C109.823 98.0382 109.95 97.4695 110.203 96.9754C110.456 96.4813 110.8 96.0634 111.235 95.7219C111.669 95.3803 112.167 95.1017 112.728 94.8862C113.289 94.6706 113.879 94.5081 114.493 94.4004C114.927 94.3108 115.404 94.2429 115.92 94.1981C116.436 94.1533 116.865 94.1135 117.21 94.077V93.888C117.21 93.1701 117.023 92.6577 116.652 92.351C116.281 92.0459 115.768 91.8933 115.116 91.8933C114.734 91.8933 114.371 91.9381 114.028 92.0293C113.684 92.1188 113.376 92.2316 113.103 92.3659C112.83 92.5002 112.59 92.6345 112.382 92.7705C112.174 92.9048 112.006 93.0258 111.879 93.1353L110.77 90.7907C110.915 90.6647 111.135 90.5122 111.433 90.3331C111.731 90.154 112.091 89.9783 112.515 89.8075C112.94 89.6367 113.417 89.4941 113.95 89.3764C114.481 89.2603 115.056 89.2006 115.668 89.2006C116.389 89.2006 117.048 89.2951 117.644 89.4842C118.239 89.6732 118.753 89.9683 119.186 90.3729C119.619 90.7758 119.957 91.2881 120.201 91.9066C120.444 92.5251 120.568 93.2745 120.568 94.155V102.502H117.509L117.508 102.503ZM117.238 96.4249C116.875 96.4431 116.502 96.4746 116.121 96.5194C115.74 96.5642 115.377 96.6222 115.031 96.6952C114.305 96.8394 113.8 97.0865 113.519 97.4363C113.238 97.7862 113.096 98.1692 113.096 98.5821C113.096 98.9949 113.254 99.3597 113.572 99.62C113.89 99.8803 114.34 100.011 114.921 100.011C115.357 100.011 115.778 99.9218 116.188 99.7427C116.595 99.5636 116.945 99.3381 117.236 99.0695V96.4282L117.238 96.4249Z" fill="#E60000"/>
<path d="M130.934 87.5044C130.826 87.4497 130.614 87.3734 130.298 87.2756C129.982 87.1761 129.562 87.128 129.04 87.128C128.57 87.128 128.179 87.2673 127.863 87.5458C127.546 87.8244 127.388 88.2787 127.388 88.9071V89.5273H130.203V92.2216H127.416V102.517H124.062V92.2216H122.331V89.5273H124.062V88.8259C124.062 87.9819 124.17 87.2673 124.387 86.6836C124.603 86.1 124.904 85.6241 125.294 85.2544C125.682 84.8863 126.136 84.616 126.661 84.4452C127.183 84.2745 127.753 84.1882 128.365 84.1882C129.178 84.1882 129.849 84.2645 130.381 84.417C130.912 84.5696 131.224 84.6741 131.315 84.7271L130.936 87.5027L130.934 87.5044Z" fill="#E60000"/>
<path d="M143.382 95.9656C143.382 96.8112 143.25 97.6419 142.989 98.4593C142.728 99.2768 142.34 100.01 141.825 100.656C141.311 101.303 140.662 101.824 139.877 102.22C139.092 102.615 138.178 102.812 137.131 102.812C136.083 102.812 135.169 102.615 134.384 102.22C133.6 101.825 132.95 101.303 132.436 100.656C131.922 100.01 131.534 99.2768 131.272 98.4593C131.011 97.6419 130.879 96.8112 130.879 95.9656C130.879 95.12 131.009 94.2942 131.272 93.4868C131.534 92.6776 131.922 91.9547 132.436 91.3163C132.95 90.678 133.6 90.1673 134.384 89.7809C135.168 89.3946 136.083 89.2023 137.131 89.2023C138.178 89.2023 139.088 89.3963 139.864 89.7809C140.64 90.1673 141.289 90.6796 141.812 91.3163C142.335 91.9547 142.728 92.6776 142.989 93.4868C143.25 94.2959 143.382 95.1216 143.382 95.9656ZM140.081 95.9523C140.081 95.4118 140.017 94.8978 139.891 94.4103C139.764 93.9228 139.574 93.505 139.323 93.1535C139.07 92.802 138.764 92.5218 138.402 92.3145C138.041 92.1072 137.618 92.0028 137.131 92.0028C136.643 92.0028 136.22 92.1072 135.859 92.3145C135.497 92.5218 135.191 92.8003 134.94 93.1535C134.687 93.505 134.497 93.9245 134.372 94.4103C134.246 94.8978 134.182 95.4101 134.182 95.9523C134.182 96.4945 134.246 97.0301 134.372 97.5076C134.499 97.9851 134.683 98.4046 134.926 98.7644C135.169 99.1242 135.476 99.4094 135.847 99.6167C136.217 99.8239 136.646 99.9267 137.132 99.9267C137.618 99.9267 138.043 99.8223 138.404 99.6167C138.765 99.4094 139.072 99.1259 139.325 98.7644C139.578 98.4046 139.768 97.9851 139.892 97.5076C140.019 97.0301 140.082 96.5111 140.082 95.9523H140.081Z" fill="#E60000"/>
<path d="M153.796 102.515V95.1034C153.796 94.1152 153.588 93.3525 153.174 92.8119C152.759 92.273 152.182 92.0028 151.442 92.0028C150.92 92.0028 150.437 92.1371 149.994 92.4073C149.551 92.6776 149.168 92.9727 148.844 93.2977V102.515H145.489V89.5239H148.547L148.711 90.5486C149.233 90.1175 149.824 89.7843 150.484 89.5521C151.141 89.3183 151.805 89.2023 152.473 89.2023C153.141 89.2023 153.79 89.3067 154.367 89.5123C154.943 89.7196 155.441 90.0462 155.856 90.4956C156.27 90.9449 156.59 91.5286 156.816 92.2482C157.041 92.9678 157.154 93.83 157.154 94.8348V102.515H153.8H153.796Z" fill="#E60000"/>
<path d="M162.53 96.856C162.603 97.952 162.946 98.7429 163.562 99.227C164.178 99.7112 164.974 99.9549 165.952 99.9549C166.405 99.9549 166.831 99.9151 167.229 99.8339C167.627 99.7526 167.98 99.6498 168.288 99.5238C168.596 99.3978 168.859 99.2718 169.076 99.1458C169.294 99.0198 169.455 98.9037 169.565 98.7959L170.457 101.519C170.331 101.608 170.128 101.729 169.848 101.882C169.568 102.034 169.22 102.178 168.806 102.313C168.39 102.447 167.904 102.563 167.344 102.663C166.785 102.76 166.171 102.81 165.505 102.81C164.657 102.81 163.85 102.676 163.082 102.406C162.315 102.137 161.644 101.717 161.066 101.152C160.489 100.587 160.029 99.882 159.686 99.0364C159.343 98.1924 159.172 97.1859 159.172 96.0186C159.172 94.9227 159.33 93.9527 159.645 93.1087C159.961 92.2647 160.394 91.5551 160.943 90.9797C161.493 90.4044 162.133 89.965 162.864 89.6599C163.595 89.3548 164.374 89.2023 165.205 89.2023C166.036 89.2023 166.801 89.3366 167.506 89.6068C168.21 89.8755 168.818 90.2949 169.332 90.8604C169.846 91.4258 170.253 92.1586 170.549 93.0573C170.847 93.956 170.995 95.0255 170.995 96.264V96.8576H162.526L162.53 96.856ZM167.589 94.4567C167.552 94.0074 167.457 93.6161 167.303 93.2845C167.148 92.9529 166.958 92.6826 166.732 92.4753C166.505 92.2697 166.259 92.1155 165.996 92.0177C165.733 91.9199 165.465 91.8701 165.193 91.8701C164.612 91.8701 164.06 92.0857 163.534 92.5168C163.007 92.9479 162.7 93.5945 162.608 94.4567H167.587H167.589Z" fill="#E60000"/>
</g>
<defs>
<clipPath id="clip0_906_47">
<rect width="156" height="47" fill="white" transform="translate(15 70)"/>
</clipPath>
</defs>
</svg>
