<?xml version="1.0" encoding="UTF-8"?>
<svg width="233px" height="233px" viewBox="0 0 233 233" version="1.1" xmlns="http://www.w3.org/2000/svg" xmlns:xlink="http://www.w3.org/1999/xlink">
    <!-- Generator: Sketch 63.1 (92452) - https://sketch.com -->
    <title>amdaris</title>
    <desc>Created with Sketch.</desc>
    <g id="Exports" stroke="none" stroke-width="1" fill="none" fill-rule="evenodd">
        <g id="Artboard" transform="translate(-1437.000000, -2719.000000)" fill="#0066AF">
            <path d="M1628.16188,2824.92062 L1621.68913,2825.54112 C1621.68913,2822.55762 1621.25563,2819.07262 1619.07538,2819.07262 C1617.36263,2819.13212 1616.80588,2820.96812 1616.80588,2823.52237 C1616.80588,2826.56962 1619.41963,2829.99087 1621.99938,2833.72662 L1622.80634,2834.93533 C1625.57565,2839.09349 1628.16188,2843.20862 1628.16188,2847.60287 C1628.16188,2853.57837 1626.20263,2858.89937 1618.98188,2858.89937 C1610.48613,2858.89937 1609.39813,2852.49037 1609.39813,2845.83062 L1615.87088,2845.21012 C1615.87088,2848.94162 1616.24488,2852.83037 1618.98188,2852.83037 C1620.94113,2852.83037 1621.65938,2850.68412 1621.65938,2847.88337 C1621.65938,2844.89562 1618.85863,2841.28737 1616.33838,2837.49212 C1613.22738,2832.91912 1610.29913,2828.31212 1610.29913,2823.48837 C1610.33313,2818.63487 1612.69613,2813.12687 1618.95213,2813.00362 C1626.88688,2812.81662 1628.16188,2819.90987 1628.16188,2824.92062 Z M1510.13683,2813.50087 L1514.05957,2834.03687 L1514.36982,2836.43387 L1514.49733,2836.43387 L1514.80333,2834.03687 L1518.72608,2813.50087 L1526.78408,2813.50087 L1526.78408,2858.40212 L1520.68532,2858.40212 L1520.68532,2828.28237 L1520.31558,2828.28237 L1520.06482,2830.17787 L1515.86158,2858.40212 L1513.00132,2858.40212 L1508.80233,2830.17787 L1508.55157,2828.28237 L1508.17757,2828.28237 L1508.17757,2858.40212 L1502.07883,2858.40212 L1502.07883,2813.50087 L1510.13683,2813.50087 Z M1605.8804,2813.5013 L1605.8804,2858.40255 L1599.2844,2858.40255 L1599.2844,2813.5013 L1605.8804,2813.5013 Z M1536.83703,2813.50002 C1549.06427,2813.56377 1549.96528,2818.38752 1549.96528,2835.99952 C1549.96528,2853.51802 1549.03453,2858.34177 1536.83703,2858.40127 L1531.63927,2858.40127 L1531.63927,2813.50002 L1536.83703,2813.50002 Z M1567.35883,2813.50045 L1574.14608,2858.4017 L1567.73283,2858.4017 L1566.52157,2849.2217 L1560.17207,2849.2217 L1558.96083,2858.4017 L1552.51782,2858.4017 L1559.30083,2813.50045 L1567.35883,2813.50045 Z M1583.8212,2813.503 C1591.6327,2813.503 1595.05395,2818.01225 1595.05395,2826.44425 C1595.05395,2830.894 1593.9022,2834.94 1591.38195,2836.65275 L1595.5852,2858.4 L1589.01895,2858.4 L1585.59345,2839.4535 L1583.8212,2839.4535 L1583.8212,2858.4 L1577.2252,2858.4 L1577.2252,2813.503 L1583.8212,2813.503 Z M1491.841,2813.28242 L1498.624,2858.18367 L1492.215,2858.18367 L1491.00375,2849.00367 L1483.409,2858.18367 L1477,2858.18367 L1483.783,2813.28242 L1491.841,2813.28242 Z M1538.23528,2820.06627 L1538.23528,2851.80527 C1542.87203,2851.80527 1543.18228,2850.65352 1543.11853,2835.90602 C1543.18228,2821.24777 1542.87203,2820.06627 1538.23528,2820.06627 Z M1487.982,2826.72517 L1487.61225,2826.72517 L1487.42525,2827.87692 L1484.65425,2849.03767 L1490.03475,2842.06767 L1488.169,2827.87692 L1487.982,2826.72517 Z M1563.53382,2826.9432 L1563.15982,2826.9432 L1562.97283,2828.09495 L1561.07308,2842.2857 L1565.58658,2842.2857 L1563.72083,2828.09495 L1563.53382,2826.9432 Z M1583.8212,2820.03525 L1583.8212,2833.35475 C1585.6572,2833.35475 1588.70445,2833.104 1588.70445,2826.695 C1588.70445,2820.286 1585.6572,2820.03525 1583.8212,2820.03525 Z" id="Combined-Shape"></path>
        </g>
    </g>
</svg>