<?xml version="1.0" encoding="UTF-8"?>
<svg width="233px" height="233px" viewBox="0 0 233 233" version="1.1" xmlns="http://www.w3.org/2000/svg" xmlns:xlink="http://www.w3.org/1999/xlink">
    <!-- Generator: Sketch 63.1 (92452) - https://sketch.com -->
    <title>here_logo</title>
    <desc>Created with Sketch.</desc>
    <defs>
        <polygon id="path-1" points="0.0336020284 0.0142109533 119.109472 0.0142109533 119.109472 95.7662852 0.0336020284 95.7662852"></polygon>
    </defs>
    <g id="Exports" stroke="none" stroke-width="1" fill="none" fill-rule="evenodd">
        <g id="Artboard" transform="translate(-410.000000, -2719.000000)">
            <g id="Group-4" transform="translate(642.000000, 2719.000000)"></g>
            <g id="Group-18" transform="translate(410.000000, 2719.000000)">
                <g id="Group-5" transform="translate(55.000000, 60.000000)">
                    <polygon id="Fill-1" fill="#47C0BD" points="17.0171124 112.985789 34.0562746 95.9702353 -4.5841785e-05 95.9475436"></polygon>
                    <g id="Group-4" transform="translate(4.354970, 0.214998)">
                        <mask id="mask-2" fill="white">
                            <use xlink:href="#path-1"></use>
                        </mask>
                        <g id="Clip-3"></g>
                        <path d="M113.091821,18.248056 C109.772876,23.2024069 104.031422,31.216697 97.9963505,25.1745205 L113.287566,9.90393428 C111.917125,8.43585112 110.8756,7.20591602 110.080245,6.40712292 C101.847519,-1.85975538 92.5659327,-1.97275538 85.2851112,5.27781055 C80.4201517,10.1223704 79.1425412,15.6694556 80.5537805,20.9435529 L75.7690442,15.4876929 C74.3816426,16.2530215 68.5106852,21.4111391 72.9043911,29.2315185 L67.4285899,24.6716361 L60.1482268,31.9217436 L69.9693708,41.756411 C62.3816385,35.7261533 54.1984215,36.3136158 47.6279185,42.8563846 C40.5925797,49.8623846 41.0807947,58.3577842 46.3432024,65.3509485 L45.2799022,64.2963582 C38.3408312,57.3476604 30.7913769,59.7928613 27.0552714,63.5243826 C24.1688434,66.4071432 22.3982045,70.3768126 23.1211294,73.1360296 L8.05224706,58.0474353 L0.0336020284,66.0516402 L29.70103,95.7555124 L45.6347176,95.7662852 L34.9457886,85.0610824 C29.3310868,79.3450702 29.2350483,76.3206584 31.9695108,73.6079708 C34.6047258,70.9943014 37.662602,72.6239769 43.0487826,78.0032811 L53.6116467,88.5769181 L61.5837623,80.6158045 L51.5577055,70.5801209 C58.7871842,76.0515671 67.4503647,76.349768 75.1847907,68.6481189 C75.2315493,68.6002142 75.275099,68.5516219 75.3218576,68.5039465 L75.3250665,68.507843 C80.0637318,64.1320154 81.4522795,59.8751473 81.4522795,59.8751473 L75.4346284,55.8268592 C72.1156832,60.7807517 66.3852308,68.8124617 60.3501598,62.7702852 L75.6730057,47.4676097 L85.2117643,57.0192041 L93.5425919,48.6996077 L81.6069955,36.7477375 C76.0317176,31.1646665 79.3421822,25.9279302 81.6626933,23.9567335 C82.7473099,26.2591371 84.335957,28.469628 86.3559753,30.498127 C94.0745858,38.2483684 104.057551,39.816845 112.841525,31.069774 C112.8892,31.0220986 112.932292,30.9730479 112.97905,30.9253724 L112.982947,30.9294982 C117.720695,26.5534414 119.109472,22.2970316 119.109472,22.2970316 L113.091821,18.248056 Z M91.0879935,10.8214576 C93.7649245,8.15529939 96.4799043,9.28507018 99.5208191,12.244845 L92.2505412,19.5052669 C88.698032,15.279342 88.8797947,13.0198004 91.0879935,10.8214576 L91.0879935,10.8214576 Z M54.6043505,57.1008024 C51.0518414,52.8753359 51.2230604,50.5988329 53.4303424,48.4000316 C56.1081903,45.7341026 58.8224824,46.8638734 61.8638556,49.8236483 L54.6043505,57.1008024 Z" id="Fill-2" fill="#313842" mask="url(#mask-2)"></path>
                    </g>
                </g>
            </g>
        </g>
    </g>
</svg>