<?xml version="1.0" encoding="UTF-8"?>
<svg width="233px" height="233px" viewBox="0 0 233 233" version="1.1" xmlns="http://www.w3.org/2000/svg" xmlns:xlink="http://www.w3.org/1999/xlink">
    <!-- Generator: Sketch 63.1 (92452) - https://sketch.com -->
    <title>irian_logo</title>
    <desc>Created with Sketch.</desc>
    <defs>
        <polygon id="path-1" points="0 0.000359504497 151.915024 0.000359504497 151.915024 67.3226095 0 67.3226095"></polygon>
    </defs>
    <g id="Exports" stroke="none" stroke-width="1" fill="none" fill-rule="evenodd">
        <g id="Artboard" transform="translate(-1157.000000, -2719.000000)">
            <g id="Group-57" transform="translate(1157.000000, 2719.000000)">
                <g id="Group-3" transform="translate(41.373832, 82.747664)">
                    <mask id="mask-2" fill="white">
                        <use xlink:href="#path-1"></use>
                    </mask>
                    <g id="Clip-2"></g>
                    <path d="M143.83527,50.6883117 C143.188653,50.3192071 142.719754,49.8038278 142.429938,49.1435407 C142.059467,48.3260424 141.875598,46.7689679 141.875598,44.4716336 L141.875598,28.9924812 C141.875598,25.7204375 141.584416,23.290499 141.004785,21.7074504 C140.159262,19.4374573 139.024607,17.8072454 137.599453,16.8181818 C136.174299,15.8284347 134.471634,15.3328776 132.491456,15.3328776 C128.638414,15.3328776 124.58715,17.8933698 120.337662,23.0136705 L120.337662,15.3328776 L118.63568,15.3328776 L107.708134,19.7669173 L108.302802,21.1927546 C109.331511,20.7969925 110.215995,20.5987697 110.954887,20.5987697 C111.641148,20.5987697 112.18797,20.7710185 112.598086,21.112782 C113.006835,21.456596 113.310321,22.1032126 113.507861,23.0526316 C113.706767,24.0041012 113.805195,26.6561859 113.805195,31.0109364 L113.805195,44.4716336 C113.805195,47.1114149 113.48257,48.9002051 112.83527,49.8373206 C112.18797,50.7744361 110.941217,51.2426521 109.094327,51.2426521 L108.302802,51.2426521 L108.302802,52.6671224 L126.237184,52.6671224 L126.237184,51.2426521 C124.25769,51.2426521 122.944634,51.0642515 122.297334,50.7074504 C121.650718,50.3526999 121.143541,49.7915243 120.773753,49.0252905 C120.48257,48.4449761 120.337662,46.9268626 120.337662,44.4716336 L120.337662,25.3499658 C123.451811,21.9193438 126.579631,20.2030075 129.721121,20.2030075 C131.75393,20.2030075 133.198223,20.9487355 134.056049,22.4395079 C134.913876,23.9309638 135.342447,26.3260424 135.342447,29.6254272 L135.342447,44.4716336 C135.342447,46.5570745 135.289132,47.797676 135.184552,48.1941217 C134.920711,49.1968558 134.451811,49.9548872 133.778537,50.4702666 C133.10663,50.9849624 131.924129,51.2426521 130.235817,51.2426521 L129.483937,51.2426521 L129.483937,52.6671224 L147.418319,52.6671224 L147.418319,51.2426521 C145.676008,51.2426521 144.481887,51.0580998 143.83527,50.6883117 L143.83527,50.6883117 Z M94.5946685,44.8687628 C91.3219412,47.5085441 88.6821599,48.8263841 86.6760082,48.8263841 C85.1975393,48.8263841 83.8920027,48.2002734 82.7573479,46.9466849 C81.6220096,45.6937799 81.0546822,44.1161996 81.0546822,42.215311 C81.0546822,40.7108681 81.5037594,39.3253589 82.3998633,38.0580998 C83.2973342,36.7908407 84.7894737,35.5775803 86.874231,34.4155844 C88.0355434,33.7566644 90.6097061,32.6336295 94.5946685,31.0512645 L94.5946685,44.8687628 Z M103.028025,48.3923445 C102.631579,48.3923445 102.281613,48.2597403 101.978811,47.9958988 C101.675325,47.7327409 101.45728,47.2105263 101.324675,46.4319891 C101.192755,45.6541353 101.12782,43.5358852 101.12782,40.0779221 L101.12782,27.7648667 C101.12782,24.2549556 100.889952,21.9323308 100.414901,20.7969925 C99.6760082,19.0546822 98.5276828,17.7744361 96.9706083,16.9562543 C94.9111415,15.8735475 92.2720437,15.3328776 89.0519481,15.3328776 C84.8550923,15.3328776 81.5946685,16.2836637 79.2727273,18.1838688 C76.949419,20.0847573 75.7881066,22.1688312 75.7881066,24.4388243 C75.7881066,25.6267943 76.0984279,26.5632262 76.7190704,27.2501709 C77.3390294,27.936432 78.1380725,28.278879 79.1134655,28.278879 C80.1168831,28.278879 80.9289132,27.9501025 81.5488722,27.2898154 C82.1688312,26.6302119 82.4791524,25.6924129 82.4791524,24.4784689 L82.3998633,22.1825017 C82.3998633,21.0205058 82.9015721,19.9917977 83.9043062,19.0943267 C84.8810663,18.1968558 86.2016405,17.7484621 87.8639781,17.7484621 C90.0546822,17.7484621 91.7245386,18.4217362 92.8721805,19.7669173 C94.0198223,21.112782 94.5946685,23.5946685 94.5946685,27.2112098 L94.5946685,28.6356801 C88.3650034,30.9056733 83.910458,32.8325359 81.2317157,34.4162679 C78.5529733,36 76.6725906,37.6883117 75.5898838,39.4832536 C74.7990431,40.7771702 74.4025974,42.3082707 74.4025974,44.0772386 C74.4025974,46.874231 75.2146275,49.1312372 76.8373206,50.84689 C78.4606972,52.5625427 80.5256323,53.4196856 83.0341763,53.4196856 C84.6438824,53.4196856 86.1619959,53.089542 87.5871497,52.429255 C88.5372522,51.9815448 90.872864,50.3192071 94.5946685,47.4415584 C94.6206425,49.6056049 95.0157211,51.1373889 95.7826384,52.0348599 C96.5475051,52.9309638 97.5768968,53.380041 98.8708134,53.380041 C101.561859,53.380041 104.386193,51.4005468 107.343131,47.4415584 L107.343131,45.2241969 C105.759398,46.8079289 104.689679,47.771702 104.136022,48.114149 C103.819549,48.3000684 103.449077,48.3923445 103.028025,48.3923445 L103.028025,48.3923445 Z M68.2973342,47.4019139 C67.6110731,47.4019139 67.0704033,47.2371839 66.6739576,46.9063568 C66.278879,46.5768968 65.9876965,45.9897471 65.8031442,45.1455913 C65.5652768,43.9829118 65.4470267,41.4367738 65.4470267,37.5037594 L65.4470267,23.5283664 C65.4470267,21.2850308 65.6254272,19.7669173 65.9822283,18.975393 C66.3376623,18.1838688 66.8188653,17.6158578 67.4272044,17.2727273 C68.0348599,16.9302802 69.2221463,16.7580314 70.9904306,16.7580314 L70.9904306,15.3328776 L53.3718387,15.3328776 L53.3718387,16.7580314 C55.088175,16.7580314 56.2686261,16.9425837 56.9152427,17.3130554 C57.5625427,17.6828435 58.0498975,18.2426521 58.380041,18.9952153 C58.7108681,19.747095 58.8755981,21.2576897 58.8755981,23.5283664 L58.8755981,52.6671224 L60.6165414,52.6671224 L71.5440875,48.2330827 L70.9904306,46.8079289 C69.9350649,47.203691 69.0362269,47.4019139 68.2973342,47.4019139 L68.2973342,47.4019139 Z M62.1613124,57.9644566 C61.0533151,57.9644566 60.1093643,58.3602187 59.3308271,59.151743 C58.5516063,59.9432673 58.1619959,60.8940533 58.1619959,62.0020506 C58.1619959,63.1114149 58.5516063,64.0539986 59.3308271,64.8325359 C60.1093643,65.6103896 61.0533151,66 62.1613124,66 C63.2959672,66 64.2535885,65.6103896 65.0314422,64.8325359 C65.810663,64.0539986 66.1995899,63.1114149 66.1995899,62.0020506 C66.1995899,60.8940533 65.8031442,59.9432673 65.01162,59.151743 C64.2194122,58.3602187 63.2699932,57.9644566 62.1613124,57.9644566 L62.1613124,57.9644566 Z M45.7785373,15.3328776 C42.5837321,15.3328776 39.469583,18.0512645 36.4340396,23.4894053 L36.4340396,15.3328776 L34.7710185,15.3328776 L23.8045113,19.7669173 L24.2009569,21.1927546 C25.2303486,20.7969925 26.1544771,20.5987697 26.9719754,20.5987697 C27.6582365,20.5987697 28.2323992,20.7840055 28.6944634,21.15311 C29.1558442,21.5235817 29.4730007,22.1093643 29.644566,22.9152427 C29.8161312,23.7204375 29.9008886,26.2344498 29.9008886,30.456596 L29.9008886,44.5119617 C29.9008886,46.6247437 29.8359535,47.9029392 29.7040328,48.3520164 C29.4408749,49.2761449 28.9781271,49.9501025 28.3185236,50.3711552 C27.4210526,50.9514696 26.0478469,51.2426521 24.2009569,51.2426521 L24.2009569,52.6671224 L42.7689679,52.6671224 L42.7689679,51.2426521 C41.1319207,51.2426521 39.8790157,51.0047847 39.0082023,50.5297334 C38.1367054,50.0546822 37.5297334,49.4606972 37.1866029,48.7484621 C36.6848941,47.7183869 36.4340396,46.2016405 36.4340396,44.1948052 L36.4340396,26.8147642 C37.7019822,24.3342447 38.9282297,22.5529733 40.1168831,21.4702666 C40.67054,20.9419002 41.1852358,20.6780588 41.6602871,20.6780588 C42.2146275,20.6780588 43.0656186,21.1326042 44.2146275,22.0437457 C45.3629528,22.9542037 46.3971292,23.4101162 47.3219412,23.4101162 C48.2720437,23.4101162 49.0902256,23.0526316 49.7771702,22.34108 C50.4627478,21.6274778 50.8058783,20.7566644 50.8058783,19.7272727 C50.8058783,18.5659604 50.3308271,17.5440875 49.3807245,16.65892 C48.430622,15.7751196 47.2289815,15.3328776 45.7785373,15.3328776 L45.7785373,15.3328776 Z M16.1640465,49.0054682 C15.8339029,48.252905 15.6698565,46.7423103 15.6698565,44.4716336 L15.6698565,15.3328776 L13.9275461,15.3328776 L3,19.7669173 L3.5543404,21.1927546 C4.60970608,20.7969925 5.50786056,20.5987697 6.24675325,20.5987697 C6.93301435,20.5987697 7.47436774,20.7634997 7.87012987,21.0936432 C8.26520848,21.4244703 8.55639098,22.0109364 8.74094327,22.8557758 C8.97881066,24.0170882 9.09774436,26.5632262 9.09774436,30.4962406 L9.09774436,44.4716336 C9.09774436,46.7156528 8.91934381,48.2330827 8.56254272,49.0252905 C8.20642515,49.8174983 7.72522215,50.3848257 7.11688312,50.7279563 C6.51059467,51.0717703 5.32194122,51.2426521 3.5543404,51.2426521 L3.5543404,52.6671224 L21.1722488,52.6671224 L21.1722488,51.2426521 C19.456596,51.2426521 18.2761449,51.0580998 17.6295284,50.6876282 C16.9822283,50.3192071 16.49419,49.7580314 16.1640465,49.0054682 L16.1640465,49.0054682 Z M12.3841422,10.0362269 C13.492823,10.0362269 14.4354067,9.64114833 15.213944,8.84962406 C15.9924812,8.05741627 16.3820916,7.10731374 16.3820916,5.99863295 C16.3820916,4.89063568 15.9924812,3.94668489 15.213944,3.16746411 C14.4354067,2.38961039 13.492823,2 12.3841422,2 C11.2481203,2 10.290499,2.38961039 9.51264525,3.16746411 C8.73479152,3.94668489 8.34518113,4.89063568 8.34518113,5.99863295 C8.34518113,7.10731374 8.74025974,8.05741627 9.53315106,8.84962406 C10.3246753,9.64114833 11.2740943,10.0362269 12.3841422,10.0362269 L12.3841422,10.0362269 Z" id="Fill-1" fill="#2A90CE" mask="url(#mask-2)"></path>
                </g>
            </g>
        </g>
    </g>
</svg>