<?xml version="1.0" encoding="UTF-8"?>
<svg width="233px" height="233px" viewBox="0 0 233 233" version="1.1" xmlns="http://www.w3.org/2000/svg" xmlns:xlink="http://www.w3.org/1999/xlink">
    <!-- Generator: Sketch 63.1 (92452) - https://sketch.com -->
    <title>unifiedpost_logo</title>
    <desc>Created with Sketch.</desc>
    <defs>
        <polygon id="path-1" points="0 39.6154275 189.649021 39.6154275 189.649021 -1.58725701e-14 0 -1.58725701e-14"></polygon>
    </defs>
    <g id="Exports" stroke="none" stroke-width="1" fill="none" fill-rule="evenodd">
        <g id="Artboard" transform="translate(-2017.000000, -2719.000000)">
            <g id="Group-37" transform="translate(2017.000000, 2719.000000)">
                <g id="Group-22" transform="translate(20.686916, 101.257009)">
                    <path d="M74.2461652,11.2812473 C72.4752769,11.2812473 71.1635078,12.0355145 70.3436521,13.2161067 L70.3436521,11.6091895 L66.4739332,11.6091895 L66.4739332,24.9236461 L70.3436521,24.9236461 L70.3436521,16.4955295 C70.8355655,15.3477315 71.8193923,14.7246412 72.8360134,14.7246412 C74.213371,14.7246412 75.1316094,15.4789085 75.1316094,17.3153852 L75.1316094,24.9236461 L79.0013283,24.9236461 L79.0013283,16.561118 C79.0013283,12.9537529 77.0008804,11.2812473 74.2461652,11.2812473" id="Fill-1" fill="#372B85"></path>
                    <mask id="mask-2" fill="white">
                        <use xlink:href="#path-1"></use>
                    </mask>
                    <g id="Clip-4"></g>
                    <polygon id="Fill-3" fill="#372B85" mask="url(#mask-2)" points="82.379101 24.9236134 86.2488199 24.9236134 86.2488199 11.6091567 82.379101 11.6091567"></polygon>
                    <polygon id="Fill-5" fill="#372B85" mask="url(#mask-2)" points="99.3993054 24.9236134 103.269024 24.9236134 103.269024 11.6091567 99.3993054 11.6091567"></polygon>
                    <path d="M119.043114,17.8072659 C118.911937,13.80637 116.321193,11.2812145 112.648239,11.2812145 C109.073668,11.2812145 105.958217,13.8391643 105.958217,18.2007966 C105.958217,22.8247828 109.237639,25.2515556 112.910593,25.2515556 C115.829279,25.2515556 117.829727,24.1037577 118.911937,22.2016924 L116.288398,20.4308041 C115.59972,21.5786021 114.484716,22.2344867 113.10703,22.2344867 C111.33647,22.2344867 109.926318,21.0866887 109.795141,19.1846234 L119.075908,19.1846234 C119.043114,18.9550638 119.043114,18.5943273 119.043114,17.8072659 L119.043114,17.8072659 Z M109.86073,16.6922621 C109.991579,15.0197565 111.238087,14.232695 112.549856,14.232695 C113.861626,14.232695 115.107806,15.0197565 115.173395,16.6922621 L109.86073,16.6922621 Z" id="Fill-6" fill="#372B85" mask="url(#mask-2)"></path>
                    <path d="M130.258805,12.4290452 C129.405827,11.7403665 128.258029,11.3140415 126.880672,11.3140415 C123.76522,11.3140415 120.879328,13.6424317 120.879328,18.2336236 C120.879328,22.8248156 123.798342,25.1532057 126.913794,25.1532057 C128.422,25.1532057 129.668181,24.4973212 130.521159,23.6446713 L130.521159,24.9236461 L134.095402,24.9236461 L134.095402,5.70622848 L130.225683,5.70622848 L130.258805,12.4290452 Z M130.258805,19.0206851 C130.225683,20.725985 129.045419,21.7098118 127.602145,21.7098118 C126.093938,21.7098118 124.782169,20.6276023 124.782169,18.2008294 C124.782169,15.8068507 126.093938,14.7246412 127.602145,14.7246412 C129.111007,14.7246412 130.225683,15.7740565 130.258805,17.3809737 L130.258805,19.0206851 Z" id="Fill-7" fill="#372B85" mask="url(#mask-2)"></path>
                    <path d="M150.951832,18.2335252 C150.951832,13.6423333 148.098734,11.3139431 144.917694,11.3139431 C143.343571,11.3139431 142.09739,11.9370334 141.277535,12.8880661 L141.277535,11.6090912 L137.702964,11.6090912 L137.702964,30.0066531 L141.572683,30.0066531 L141.572683,23.8741325 C142.425333,24.6283997 143.573131,25.1203131 144.950488,25.1203131 C148.000351,25.1534353 150.951832,22.8247172 150.951832,18.2335252 M144.229015,21.7100414 C142.753275,21.7100414 141.572683,20.6930923 141.539888,19.0205867 L141.539888,17.3480811 C141.572683,15.7083697 142.753275,14.6917486 144.229015,14.6917486 C145.704755,14.6917486 147.049319,15.7739581 147.049319,18.200731 C147.016525,20.6602981 145.704755,21.7100414 144.229015,21.7100414" id="Fill-8" fill="#372B85" mask="url(#mask-2)"></path>
                    <path d="M159.642302,11.2484202 C156.198908,11.2484202 152.788309,13.6751931 152.788309,18.1680024 C152.788309,22.7591943 156.067732,25.2187614 159.642302,25.2187614 C163.118491,25.2187614 166.496296,22.7264001 166.496296,18.1680024 C166.52909,13.6751931 163.249667,11.2484202 159.642302,11.2484202 M159.642302,21.8409559 C158.100974,21.8409559 156.690822,20.5947752 156.690822,18.2007966 C156.690822,15.8396122 158.068179,14.65902 159.642302,14.65902 C161.183631,14.65902 162.593783,15.8724064 162.593783,18.2007966 C162.593783,20.5947752 161.24922,21.8409559 159.642302,21.8409559" id="Fill-9" fill="#372B85" mask="url(#mask-2)"></path>
                    <path d="M179.548464,20.9227175 C179.548464,18.1680024 177.41684,17.0857928 174.793301,16.6922621 C173.120468,16.4627025 172.104175,16.2331429 172.104175,15.3476988 C172.104175,14.5606373 172.825648,14.0687239 173.973446,14.0687239 C175.154038,14.0687239 175.907977,14.5606373 176.203453,15.675641 L179.482876,14.8557853 C178.89258,12.789749 177.219746,11.2812145 174.00624,11.2812145 C170.759611,11.2812145 168.398427,12.9537201 168.398427,15.5444641 C168.398427,18.1024139 170.267698,19.1518292 172.989619,19.6437426 C174.62933,19.9060965 175.744006,20.266833 175.744006,21.1522771 C175.744006,22.0049271 174.85889,22.3984578 173.776352,22.3984578 C172.399323,22.3984578 171.546673,21.709779 171.120348,20.3980099 L167.840925,21.3490425 C168.49681,23.9069923 170.530052,25.2515556 173.743886,25.2515556 C177.18728,25.2187614 179.548464,23.5134615 179.548464,20.9227175" id="Fill-10" fill="#372B85" mask="url(#mask-2)"></path>
                    <path d="M149.344784,32.5973316 L150.197761,32.5973316 C150.099379,32.958396 149.738314,33.1879556 149.279523,33.1879556 C148.722021,33.1879556 148.262574,32.7613027 148.262574,31.9745692 C148.262574,31.2203019 148.722021,30.793649 149.279523,30.793649 C149.771436,30.793649 150.099379,31.0887971 150.197761,31.4167393 L150.951701,31.1871797 C150.722141,30.4657067 150.099379,30.0393818 149.246401,30.0393818 C148.262574,30.0393818 147.410252,30.7608548 147.410252,31.9745692 C147.410252,33.2204219 148.262574,33.9091007 149.246401,33.9091007 C150.131845,33.9091007 151.017617,33.3519267 151.017617,32.1054181 L151.017617,31.9086528 L149.344784,31.9086528 L149.344784,32.5973316 Z" id="Fill-11" fill="#372B85" mask="url(#mask-2)"></path>
                    <path d="M158.560158,31.941447 C158.756924,31.7446816 158.854979,31.4826557 158.854979,31.1871797 C158.854979,30.5312952 158.330599,30.1049702 157.674714,30.1049702 L156.035003,30.1049702 L156.035003,33.8763064 L156.822064,33.8763064 L156.822064,32.3025114 L157.281184,32.3025114 L158.133833,33.8763064 L159.052072,33.8763064 L158.101039,32.2041288 C158.297805,32.1385403 158.428982,32.0401576 158.560158,31.941447 M157.576332,31.6135047 L156.854859,31.6135047 L156.854859,30.8267712 L157.576332,30.8267712 C157.838685,30.8267712 158.035123,30.9907423 158.035123,31.2203019 C158.002657,31.4495336 157.838685,31.6135047 157.576332,31.6135047" id="Fill-12" fill="#372B85" mask="url(#mask-2)"></path>
                    <path d="M165.610917,30.0394474 C164.627091,30.0394474 163.741646,30.7609204 163.741646,31.9743068 C163.741646,33.2204875 164.593968,33.9091663 165.610917,33.9091663 C166.594744,33.9091663 167.447394,33.2204875 167.447394,31.9743068 C167.447394,30.7284541 166.594744,30.0394474 165.610917,30.0394474 M165.610917,33.154899 C165.053416,33.154899 164.593968,32.7285741 164.593968,31.9743068 C164.593968,31.2203675 165.053416,30.7937146 165.610917,30.7937146 C166.168419,30.7937146 166.627539,31.2528338 166.627539,31.9743068 C166.627539,32.7285741 166.168419,33.154899 165.610917,33.154899" id="Fill-13" fill="#372B85" mask="url(#mask-2)"></path>
                    <path d="M174.661993,32.4006974 C174.661993,32.8926108 174.399639,33.1877588 173.94052,33.1877588 C173.514195,33.1877588 173.219375,32.8926108 173.219375,32.4006974 L173.219375,30.1051014 L172.431986,30.1051014 L172.431986,32.4334916 C172.431986,33.4501127 173.022282,33.9420261 173.94052,33.9420261 C174.859087,33.9420261 175.481849,33.4501127 175.481849,32.4334916 L175.481849,30.1051014 L174.661993,30.1051014 L174.661993,32.4006974 Z" id="Fill-14" fill="#372B85" mask="url(#mask-2)"></path>
                    <path d="M182.139012,30.1051014 L180.630477,30.1051014 L180.630477,33.8764376 L181.417867,33.8764376 L181.417867,32.4006974 L182.106217,32.4006974 C182.762102,32.4006974 183.319932,32.0071666 183.319932,31.2528994 C183.319932,30.4986321 182.828018,30.1051014 182.139012,30.1051014 M182.040629,31.6464301 L181.417867,31.6464301 L181.417867,30.7937802 L182.040629,30.7937802 C182.302983,30.7937802 182.500076,30.9577513 182.500076,31.2201052 C182.500076,31.482459 182.336105,31.6464301 182.040629,31.6464301" id="Fill-15" fill="#372B85" mask="url(#mask-2)"></path>
                    <path d="M59.0951662,19.5781214 C59.0951662,21.0538616 58.2425163,21.9721 56.7995703,21.9721 C55.3894185,21.9721 54.4711801,20.9226847 54.4711801,19.3157676 L54.4711801,11.5763297 L50.6014612,11.5763297 L50.6014612,19.5453272 C50.6014612,21.3818039 51.0933746,22.7263673 52.0772014,23.6446057 C53.159411,24.6612267 54.8319166,25.1859344 56.7995703,25.1859344 C58.636047,25.1859344 60.2429642,24.6612267 61.357968,23.7429883 C62.505766,22.7591615 62.9320909,21.6113635 62.9320909,19.5453272 L62.9320909,11.5763297 L59.062372,11.5763297 L59.0951662,19.5781214 Z" id="Fill-16" fill="#372B85" mask="url(#mask-2)"></path>
                    <path d="M90.5777892,10.8876509 L90.5777892,11.609124 L88.6101355,11.609124 L88.6101355,14.7901641 L90.5777892,14.7901641 L90.5777892,24.9235806 L94.4143859,24.9235806 L94.4143859,14.7901641 L97.3006059,14.7901641 L97.3006059,11.609124 L94.4143859,11.609124 L94.4143859,10.8876509 C94.4143859,9.70705872 94.9394215,9.05117416 96.2511906,9.05117416 L97.3006059,9.05117416 L97.3006059,5.50939753 L96.2511906,5.50939753 C92.414266,5.50939753 90.5777892,7.14910893 90.5777892,10.8876509" id="Fill-17" fill="#372B85" mask="url(#mask-2)"></path>
                    <polygon id="Fill-18" fill="#372B85" mask="url(#mask-2)" points="99.3993054 9.05120696 103.334613 9.05120696 103.334613 5.50943032 99.3993054 5.50943032"></polygon>
                    <polygon id="Fill-19" fill="#372B85" mask="url(#mask-2)" points="82.2807183 9.05120696 86.2156977 9.05120696 86.2156977 5.50943032 82.2807183 5.50943032"></polygon>
                    <path d="M189.157108,24.5627457 L189.157108,21.4804162 L188.107692,21.4804162 C186.795923,21.4804162 186.30401,20.8245316 186.30401,19.6767336 L186.30401,14.7900657 L189.649021,14.7900657 L189.649021,11.6090256 L186.336804,11.6090256 L186.336804,8.03478265 L182.598262,8.03478265 L182.598262,11.6090256 L180.663403,11.6090256 L180.663403,14.7900657 L182.565468,14.7900657 L182.565468,19.6767336 C182.565468,22.7590631 183.844443,24.3659803 186.500775,24.7923053 C187.943721,25.0218649 189.157108,24.5627457 189.157108,24.5627457" id="Fill-20" fill="#372B85" mask="url(#mask-2)"></path>
                    <path d="M7.60822812,39.6154275 L-3.27942281e-05,26.4321478 L-3.27942281e-05,6.03413797 L14.3638391,-1.58725701e-14 L26.3665266,4.23045542 L31.8431627,13.7407816 L25.3171113,32.1711378 L7.60822812,39.6154275 Z M1.96762089,25.9074402 L8.46087806,37.1230662 L23.7757826,30.6953975 L29.7115379,13.9375469 L25.0547575,5.87016683 L14.4622218,2.13162483 L2.00041512,7.34590709 L1.96762089,25.9074402 Z" id="Fill-21" fill="#372B85" mask="url(#mask-2)"></path>
                </g>
            </g>
        </g>
    </g>
</svg>