<svg width="186" height="186" viewBox="0 0 186 186" fill="none" xmlns="http://www.w3.org/2000/svg">
<g clip-path="url(#clip0_906_47)">
<path d="M159.426 97.5266C160.898 95.6512 162.158 94.0258 163.202 92.6505L166.509 88.2063H163.689C162.821 88.2063 162.264 88.2744 162.024 88.4222C161.783 88.5643 161.607 88.928 161.496 89.5134L161.355 90.292H160.37C160.429 89.627 160.458 89.0417 160.482 88.5643C160.511 88.0755 160.517 87.4902 160.523 86.8252C160.775 86.8139 161.426 86.8252 162.463 86.8423C163.501 86.865 164.644 86.8878 165.887 86.9332C166.667 86.956 167.523 86.9616 168.479 86.9332C169.429 86.9162 170.197 86.8707 170.812 86.8196V87.6891C169.341 89.5645 168.08 91.1899 167.037 92.5652C166.104 93.7985 165.014 95.2647 163.788 96.9583H167.582C168.444 96.9583 169.001 96.856 169.253 96.6628C169.505 96.4696 169.716 95.9524 169.892 95.1113L170.027 94.4236H171.018C170.93 95.1909 170.877 95.8444 170.842 96.4014C170.807 96.9526 170.777 97.6119 170.742 98.3905L164.369 98.3109L159.444 98.3905V97.9529V97.5153L159.426 97.5266ZM155.873 98.7542C154.771 98.7542 153.95 98.4985 153.428 97.9927C152.901 97.4869 152.643 96.7026 152.643 95.6341V89.0928H152.602L150.972 89.1951V88.6211C150.972 88.6211 151.089 88.5416 151.4 88.3711L152.637 87.655V86.9901C152.637 86.2683 152.625 85.5977 152.607 84.9896C152.584 84.3758 152.555 83.9837 152.525 83.8132L155.686 82.5174L156.043 82.7618C155.973 82.9834 155.914 83.4835 155.867 84.2394C155.809 84.9953 155.785 85.8023 155.791 86.6775V87.5982L158.711 87.4674L158.541 89.1042H155.791V95.1113C155.791 95.708 155.897 96.1172 156.114 96.3332C156.33 96.5605 156.741 96.6742 157.339 96.6742C157.562 96.6742 157.743 96.6514 157.896 96.606C158.042 96.5776 158.265 96.4866 158.553 96.3616L158.781 96.8333L157.351 98.4871C157.134 98.5723 156.905 98.6462 156.647 98.6917C156.389 98.7428 156.137 98.7656 155.867 98.7656L155.873 98.7542ZM145.202 95.4523V92.4573L143.361 92.9687C142.769 93.1336 142.347 93.3836 142.071 93.7189C141.802 94.0485 141.673 94.4975 141.673 95.0658C141.673 95.5375 141.796 95.9069 142.054 96.1797C142.306 96.4582 142.652 96.5946 143.086 96.5946C143.537 96.5946 144 96.4412 144.464 96.1172C144.745 95.924 144.991 95.7023 145.208 95.458L145.202 95.4523ZM141.174 98.7542C140.383 98.7542 139.732 98.4757 139.239 97.9245C138.759 97.3675 138.512 96.6344 138.512 95.7364C138.512 94.651 138.811 93.8269 139.415 93.2586C140.013 92.6903 141.051 92.264 142.517 91.9685L145.196 91.4343C145.173 90.4454 144.968 89.718 144.581 89.2406C144.176 88.7462 143.514 88.4961 142.617 88.4961C142.323 88.4961 142.019 88.5245 141.702 88.5813C141.385 88.6495 141.192 88.7121 141.11 88.7859L140.535 90.0874L139.732 89.8998V88.2006C140.611 87.6209 141.391 87.2003 142.06 86.9446C142.734 86.6832 143.379 86.5468 144.006 86.5468C145.466 86.5468 146.557 86.8707 147.254 87.5015C147.946 88.1267 148.298 89.1099 148.298 90.4397V95.2193C148.298 96.2422 148.339 96.8503 148.409 97.0606C148.486 97.2709 148.726 97.3902 149.131 97.4187L149.834 97.4982V98.4132C148.931 98.3564 148.14 98.3336 147.471 98.3336C146.803 98.3336 146.035 98.3564 145.132 98.4132C145.161 97.8676 145.185 97.3959 145.185 96.9811L145.202 96.623L142.669 98.5553C142.13 98.6974 141.632 98.7656 141.174 98.7656V98.7542ZM116.203 95.1227C116.203 96.1399 116.256 96.748 116.367 96.964C116.479 97.1686 116.819 97.2936 117.393 97.322L118.402 97.3959V98.4018C117.259 98.345 116.274 98.3166 115.453 98.3223C114.614 98.3223 113.629 98.345 112.474 98.4018V97.3959L113.483 97.3277C114.057 97.2993 114.392 97.1743 114.509 96.9697C114.609 96.7651 114.673 96.1513 114.673 95.1283V84.5463C114.673 83.5233 114.609 82.9039 114.509 82.7049C114.397 82.5004 114.057 82.3753 113.483 82.3526L112.468 82.2844V81.2728C113.682 81.3239 114.726 81.3467 115.605 81.3467C116.485 81.3467 117.552 81.3183 118.771 81.2728C118.935 81.7047 119.082 82.0912 119.229 82.3867C119.364 82.6936 119.715 83.4153 120.296 84.5463L124.717 93.4518H124.728L129.178 84.5463C129.794 83.3471 130.169 82.5856 130.31 82.2844C130.451 81.9718 130.586 81.6365 130.715 81.2728C131.852 81.3296 132.843 81.3524 133.67 81.3524C134.496 81.3524 135.493 81.3296 136.648 81.2728V82.2787L135.64 82.3526C135.065 82.381 134.725 82.5004 134.613 82.7163C134.508 82.9209 134.449 83.5347 134.449 84.552V95.1227C134.449 96.1399 134.508 96.7537 134.613 96.964C134.731 97.1686 135.071 97.2936 135.64 97.322L136.648 97.3959V98.4018C135.1 98.345 133.757 98.3223 132.632 98.3223C131.506 98.3223 130.181 98.345 128.633 98.4018V97.3959L129.642 97.322C130.216 97.2936 130.556 97.1686 130.668 96.964C130.773 96.7537 130.832 96.1399 130.832 95.1227V84.7679H130.826L125.215 95.9865C124.898 96.6117 124.617 97.18 124.382 97.6801C124.136 98.1859 124.001 98.4871 123.966 98.578H123.526H123.081C123.04 98.4473 122.899 98.1291 122.659 97.6289C122.418 97.1288 122.148 96.5719 121.844 95.9751L116.215 84.5974H116.203V95.1227ZM101.85 89.1326C101.85 89.6668 101.991 90.2579 102.273 90.8944L102.419 91.2013C102.753 90.9967 103.041 90.775 103.281 90.5477C103.768 90.076 104.014 89.5816 104.014 89.0587C104.014 88.7234 103.914 88.4563 103.709 88.2347C103.51 88.0244 103.246 87.9221 102.935 87.9221C102.624 87.9221 102.372 88.0414 102.155 88.2744C101.956 88.5075 101.845 88.7916 101.845 89.1326H101.85ZM103.31 97.4641C103.621 97.4641 103.996 97.3789 104.436 97.2141L104.934 96.9924C104.512 96.6798 104.143 96.373 103.82 96.0774C103.293 95.583 102.718 94.9238 102.108 94.1167C101.727 93.6166 101.393 93.1449 101.135 92.7016C100.93 92.8551 100.76 93.0313 100.631 93.2245C100.367 93.5768 100.244 93.9519 100.238 94.3498C100.238 95.1624 100.549 95.8899 101.176 96.515C101.792 97.1459 102.507 97.4641 103.31 97.4641ZM100.267 89.8487C100.267 89.269 100.637 88.6382 101.381 87.9391C102.12 87.2401 102.8 86.8934 103.41 86.8934C104.078 86.8934 104.6 87.0583 104.964 87.3708C105.333 87.6948 105.515 88.1494 105.515 88.7234C105.515 89.3656 105.216 89.9737 104.624 90.5534C104.196 90.9683 103.574 91.4059 102.759 91.8435C102.958 92.1617 103.187 92.4857 103.451 92.8153C104.078 93.6109 104.665 94.2531 105.21 94.7362C105.538 95.0204 105.919 95.3216 106.365 95.6455C106.664 95.2022 106.834 94.7533 106.869 94.2986C106.91 93.8496 106.816 93.3779 106.594 92.8835L104.975 92.8551L105.521 91.7184C106.728 91.781 107.772 91.8207 108.646 91.8207C109.232 91.8207 109.93 91.781 110.739 91.7184L110.821 91.8833L110.504 93.054C109.654 92.9858 108.915 92.9233 108.294 92.8835H108.03C108.183 93.395 108.183 93.8951 108.042 94.3952C107.895 94.9408 107.567 95.5148 107.057 96.1115L107.35 96.282C107.672 96.4866 108.036 96.6401 108.435 96.7424C108.833 96.8503 109.244 96.9015 109.66 96.9015C109.848 96.9015 110.024 96.8617 110.194 96.7935C110.364 96.7196 110.645 96.5435 111.044 96.282L111.278 96.8162C110.926 97.0947 110.645 97.3505 110.416 97.5778C110.199 97.8051 109.947 98.1006 109.672 98.4473C109.543 98.4644 109.379 98.4757 109.173 98.4928C108.968 98.4928 108.751 98.5041 108.523 98.5041C108.118 98.5041 107.69 98.4303 107.239 98.2825C106.781 98.1347 106.347 97.9301 105.925 97.6574L105.62 97.4584C105.204 97.7653 104.741 98.0154 104.26 98.2029C103.592 98.4644 102.912 98.5951 102.237 98.5951C100.953 98.5951 99.9449 98.2882 99.2413 97.6915C98.5318 97.0834 98.1683 96.2422 98.1683 95.1454C98.1683 94.5487 98.438 93.9576 98.995 93.3836C99.4523 92.9005 100.056 92.4686 100.807 92.0935L100.701 91.8435C100.408 91.1672 100.261 90.4966 100.261 89.8373L100.267 89.8487ZM89.8134 95.2079V90.7466C89.8134 89.7123 89.7724 89.0928 89.702 88.8882C89.6258 88.6836 89.3854 88.57 88.9926 88.5472L87.9958 88.479V87.5982C88.9398 87.5186 89.7372 87.3936 90.3997 87.2458C91.0681 87.0924 91.8479 86.8366 92.7332 86.4956L92.9619 86.632V89.1269C93.7124 88.3029 94.2576 87.7175 94.6036 87.3765C95.2016 86.8252 95.7234 86.5468 96.1749 86.5468C96.3801 86.5468 96.5794 86.5638 96.7729 86.5865C96.9664 86.6206 97.1306 86.6604 97.2771 86.7173L97.1188 89.9453L96.5091 90.184C96.3625 89.8942 96.1631 89.6668 95.8993 89.4963C95.6413 89.3315 95.3423 89.252 95.014 89.252C94.4863 89.2463 94.0055 89.4281 93.5892 89.8032C93.3606 89.9908 93.2081 90.2124 93.1085 90.4682C93.0088 90.7182 92.9619 91.0308 92.9619 91.4116V95.2079C92.9619 96.2309 93.0146 96.8447 93.1319 97.0549C93.2433 97.2652 93.5892 97.3846 94.1814 97.4073L95.2309 97.4869V98.4018C93.8296 98.345 92.6335 98.3223 91.6192 98.3223C90.6049 98.3223 89.3912 98.345 87.99 98.4018V97.4925L88.8167 97.4187C89.2916 97.3846 89.573 97.2652 89.6668 97.0606C89.7548 96.8503 89.8017 96.2366 89.8017 95.2193L89.8134 95.2079ZM82.9184 91.44V91.2979C82.9184 90.0987 82.7659 89.2292 82.4434 88.7064C82.1327 88.1778 81.6167 87.9164 80.8956 87.9164H80.919C80.1158 87.9164 79.5295 88.2176 79.166 88.82C78.8435 89.3656 78.6735 90.2408 78.65 91.457L80.7842 91.4968L82.9184 91.44ZM81.3705 98.7485C79.4767 98.7485 78.0051 98.2314 76.9614 97.2084C75.9119 96.1797 75.3843 94.7419 75.3901 92.8892C75.3901 91.7469 75.5367 90.8148 75.8299 90.076C76.123 89.3315 76.5686 88.7234 77.196 88.246C77.4305 88.0699 77.7119 87.8766 78.0637 87.672C78.4096 87.4618 78.8025 87.2401 79.2246 87.0128C79.5588 86.8423 79.8637 86.7229 80.1686 86.6434C80.4617 86.5752 80.8018 86.5354 81.2005 86.5354H81.2826C82.7835 86.5354 83.9796 86.9389 84.8825 87.7516C85.2812 88.1096 85.5861 88.5188 85.8147 88.9848C85.9496 89.2406 86.0493 89.5816 86.1255 90.0021C86.1958 90.417 86.2252 90.8603 86.2193 91.332V92.2356C85.5861 92.4061 84.9177 92.5311 84.1907 92.6107C83.4754 92.6903 82.6956 92.7414 81.8747 92.7414H78.6911C78.8025 93.9349 79.1425 94.901 79.7171 95.6398C80.4265 96.5378 81.4526 96.9811 82.7835 96.9811C83.2995 96.9811 83.8096 96.9015 84.3021 96.748C84.7946 96.5889 85.2753 96.3616 85.7327 96.0547L85.9965 96.3786L85.416 97.7028C84.8942 98.004 84.2493 98.2541 83.4754 98.453C82.7132 98.6519 81.9979 98.7485 81.3646 98.7485H81.3705ZM63.0307 101.232C63.0307 101.931 63.3883 102.528 64.1095 103.017C64.8306 103.5 65.7042 103.738 66.742 103.738C67.9146 103.738 68.9055 103.443 69.7146 102.846C70.5296 102.244 70.9341 101.505 70.9283 100.635C70.9283 99.9988 70.7114 99.5214 70.2892 99.2032C69.8612 98.8849 69.2163 98.7315 68.3544 98.7258H65.9564C65.5518 98.7258 65.2235 98.7542 64.9655 98.8054C64.7017 98.8622 64.4671 98.9417 64.2443 99.0668C63.9394 99.243 63.6932 99.4248 63.5232 99.6465C63.1948 100.039 63.0307 100.573 63.0307 101.238V101.232ZM66.4547 87.78C65.7218 87.78 65.1883 87.9846 64.8482 88.4222C64.4964 88.8484 64.3323 89.502 64.3264 90.3943C64.3264 91.4513 64.4964 92.2356 64.8482 92.7471C65.1942 93.2586 65.7277 93.5086 66.4547 93.5086C67.1818 93.5086 67.7094 93.304 68.0554 92.8778C68.4013 92.4573 68.5713 91.798 68.5713 90.9114C68.5713 89.843 68.4013 89.053 68.0554 88.5416C67.7036 88.0358 67.1759 87.7857 66.4547 87.7857V87.78ZM64.3088 95.6285C64.3088 95.8217 64.4085 95.9922 64.6196 96.1229C64.8248 96.2536 65.0769 96.3218 65.3818 96.3218H69.9902C71.2918 96.3218 72.2416 96.5832 72.8455 97.1004C73.4612 97.6119 73.7602 98.4246 73.7602 99.5328C73.7602 101.067 73.0449 102.363 71.6201 103.414C70.1954 104.471 68.4482 104.994 66.3961 105C64.5434 105 63.1186 104.699 62.1043 104.085C61.1076 103.483 60.5975 102.619 60.6033 101.493C60.6033 100.885 60.7734 100.414 61.1134 100.084C61.4476 99.7488 62.245 99.2657 63.4997 98.6178C63.0776 98.561 62.7316 98.4814 62.4737 98.3905C61.9049 98.1575 61.6177 97.7312 61.6177 97.0947C61.6177 96.5776 61.7291 96.2138 61.946 95.9581C62.1629 95.7137 62.8196 95.1965 63.9336 94.4179C63.3649 94.2645 62.8899 94.0315 62.4854 93.7303C61.6294 93.0938 61.1896 92.1901 61.1896 91.0308C61.1896 89.6725 61.6997 88.5813 62.7199 87.7686C63.7342 86.956 65.0886 86.5411 66.7889 86.5411C68.3544 86.5411 69.5739 86.865 70.4416 87.5129L70.6117 87.6436L73.7719 87.4902L73.637 89.0985L71.5146 88.9905C71.6729 89.3656 71.7491 89.7748 71.7374 90.2238C71.7374 91.5764 71.2273 92.6562 70.2071 93.4689C69.1869 94.2816 67.8267 94.6851 66.1323 94.6907L65.0652 94.6339C64.8424 94.7703 64.6723 94.9294 64.5258 95.1283C64.385 95.3159 64.3147 95.4807 64.3147 95.6285H64.3088ZM54.7813 81C55.2562 81 55.6607 81.1591 55.9891 81.4888C56.3233 81.8127 56.4933 82.2162 56.4933 82.6879C56.4933 83.1653 56.3233 83.5574 55.9891 83.887C55.6607 84.2053 55.2562 84.3701 54.7813 84.3701C54.3063 84.3701 53.8959 84.2053 53.5617 83.887C53.2334 83.5631 53.0692 83.1653 53.0692 82.6879C53.0692 82.2162 53.2334 81.8184 53.5676 81.4888C53.8901 81.1591 54.2946 81 54.7813 81ZM49.2289 81C49.7097 81 50.1083 81.1591 50.4425 81.4888C50.7709 81.8127 50.9409 82.2162 50.9409 82.6879C50.9409 83.1653 50.7767 83.5574 50.4425 83.887C50.1083 84.211 49.7097 84.3701 49.2289 84.3758C48.7422 84.3758 48.3377 84.211 48.0035 83.887C47.6752 83.5631 47.511 83.1653 47.511 82.6879C47.511 82.2162 47.6752 81.8184 48.0035 81.4888C48.3377 81.1648 48.7364 81 49.2289 81ZM49.7683 86.6263V93.6962C49.7683 94.7248 49.9383 95.4523 50.2725 95.8672C50.6008 96.282 51.1754 96.498 51.9963 96.498C52.5591 96.498 53.0516 96.2877 53.4855 95.8615L53.7083 95.6C53.9018 95.3841 54.0484 95.1454 54.1304 94.884C54.2125 94.6225 54.2594 94.2986 54.2653 93.9178L54.2829 92.4004V90.7523C54.2829 89.7123 54.2419 89.0928 54.1656 88.8939C54.0894 88.695 53.849 88.5757 53.4386 88.5529L52.4419 88.479V87.5982C53.3858 87.5129 54.1832 87.3936 54.8575 87.2458C55.52 87.098 56.2939 86.848 57.1851 86.4956L57.4079 86.632L57.3786 92.4175L57.3962 95.2136C57.4138 96.2366 57.4724 96.8503 57.5604 97.0606C57.6542 97.2709 57.9298 97.3846 58.3929 97.4187L59.2255 97.4925V98.4018C58.2522 98.345 57.4079 98.3223 56.6985 98.3223C55.9891 98.3223 55.1565 98.345 54.1832 98.4018C54.2301 97.754 54.2536 97.2766 54.2653 96.9697V96.3559L52.4243 98.1291C51.8204 98.5553 51.2165 98.7599 50.6067 98.7542C49.2465 98.7542 48.2439 98.4075 47.5931 97.7085C46.9423 97.0208 46.6198 95.9467 46.6257 94.4861V90.7523C46.6257 89.718 46.5787 89.0985 46.5143 88.8939C46.4322 88.6893 46.2035 88.5757 45.8048 88.5529L44.8081 88.4847V87.6038C45.7462 87.5243 46.5494 87.3992 47.2237 87.2515C47.8862 87.1037 48.6602 86.8537 49.5514 86.5013L49.78 86.6377L49.7683 86.6263ZM36.6877 95.2136V90.7523C36.6877 89.7123 36.6466 89.0928 36.5763 88.8939C36.5 88.6893 36.2655 88.57 35.8668 88.5472L34.8701 88.479V87.5925C35.8141 87.5129 36.6173 87.3879 37.2798 87.2401C37.9482 87.0867 38.7222 86.8309 39.6134 86.4899L39.8362 86.6263V89.1212C40.5866 88.2972 41.1378 87.7118 41.4778 87.3765C42.0759 86.8196 42.5977 86.5411 43.055 86.5411C43.2485 86.5411 43.4478 86.5581 43.6472 86.5865C43.8407 86.6206 44.0107 86.6604 44.1514 86.7173L43.999 89.951L43.3834 90.1897C43.2368 89.8998 43.0374 89.6668 42.7736 89.502C42.5215 89.3429 42.2225 89.2633 41.8941 89.2633C41.3606 89.252 40.8857 89.4395 40.4635 89.8146C40.2407 90.0021 40.0824 90.2238 39.9886 90.4795C39.8889 90.7296 39.8362 91.0421 39.8362 91.4229V95.2193C39.8362 96.2422 39.8948 96.856 40.0121 97.0663C40.1176 97.2766 40.4694 97.3902 41.0557 97.4243L42.0993 97.4982V98.4132C40.7039 98.3564 39.502 98.3336 38.4935 98.3336C37.4851 98.3336 36.2597 98.3564 34.8642 98.4132V97.4982L35.6968 97.4243C36.1717 97.3902 36.4473 97.2709 36.547 97.0663C36.6349 96.8617 36.6818 96.2479 36.6818 95.225L36.6877 95.2136ZM20.8279 95.1227C20.8279 96.1399 20.8807 96.748 20.9921 96.964C21.1094 97.1686 21.4436 97.2936 22.0181 97.322L23.0266 97.3959V98.4018C21.4787 98.345 20.1419 98.3223 19.0104 98.3223C17.8788 98.3223 16.5654 98.345 15.0117 98.4018V97.3959L16.0202 97.322C16.5948 97.2936 16.9348 97.1686 17.0462 96.964C17.1518 96.7537 17.2045 96.1343 17.2104 95.1227V84.5463C17.2104 83.529 17.1576 82.9152 17.0462 82.7106C16.9348 82.5004 16.5948 82.3753 16.0202 82.3469L15.0117 82.2787V81.2728C16.5654 81.3239 17.9022 81.3467 19.028 81.3467C20.1478 81.3467 21.4787 81.3183 23.0266 81.2671V82.273L22.0181 82.3412C21.4436 82.3696 21.1094 82.489 20.998 82.7049C20.8924 82.9095 20.8338 83.5233 20.8338 84.5406V89.0928C20.8338 89.2747 20.8807 89.3713 20.9862 89.4054C21.0918 89.4395 21.2149 89.3827 21.3673 89.252C22.5458 88.1778 23.5836 87.2003 24.4631 86.3251C26.3803 84.4667 27.5002 83.3415 27.8402 82.9607C28.1803 82.5799 28.3445 82.2162 28.3445 81.8866V81.2671C29.2532 81.3183 30.033 81.3467 30.6897 81.3467C31.3464 81.3467 32.1262 81.3183 33.0349 81.2671V82.273L32.0734 82.3412C31.5633 82.3696 31.1529 82.489 30.8245 82.6936C30.4904 82.8982 29.7516 83.512 28.5848 84.5349L24.4396 88.2858L30.4962 95.1113C31.4285 96.1229 32.0206 96.7367 32.2669 96.9526C32.5073 97.1629 32.8004 97.2823 33.1288 97.3107L33.7444 97.3846V98.3905C32.7125 98.3336 31.8154 98.3109 31.0649 98.3109C30.3145 98.3109 29.4291 98.3336 28.3972 98.3905C27.805 97.6176 27.377 97.0834 27.1249 96.7765C26.8787 96.4696 26.3862 95.9126 25.6767 95.1113L24.6917 93.9747C23.7536 92.9119 22.6455 91.6957 21.3497 90.3147C21.2032 90.1726 21.0859 90.1044 20.9804 90.1215C20.8807 90.1385 20.8279 90.2351 20.8279 90.417V95.1113V95.1227Z" fill="#231F20"/>
</g>
<defs>
<clipPath id="clip0_906_47">
<rect width="156" height="24" fill="white" transform="translate(15 81)"/>
</clipPath>
</defs>
</svg>
