<svg width="400" height="416" fill="none" xmlns="http://www.w3.org/2000/svg">
  <circle cx="198" cy="208" r="116" fill="#fff"/>
  <path fill-rule="evenodd" clip-rule="evenodd" d="M184.2 92.1A116.3 116.3 0 0 0 85.7 238c.3.4 7.5-7.9 28.7-32.8l28.4-33.3h1.8c1.7 0 1.9.1 2 1l3.2 22.4 3.2 21.2a218.5 218.5 0 0 1 33-30.3A218.2 218.2 0 0 1 293.7 151c6.5-.3 6.2 0 3.8-4a116.8 116.8 0 0 0-81.8-54.3c-6.7-1-24.7-1.3-31.4-.5Zm107.9 60.6c-61.1 15.5-105.7 48.2-118.6 87l-1.6 5-19.1-.2h-19.1l-2.9-22.9a484 484 0 0 0-3.2-22.8c-.4 0-39.3 45.7-39.4 46.3-.2 1 2.5 7.9 5.5 14a116.5 116.5 0 0 0 186.7 31A116.8 116.8 0 0 0 302 155.2c-2.6-5-1.5-4.8-10-2.6Zm-64.4 59.8v1.7h-11.2v12H224.2v3.4H216.5v11.6h11.2v3.4h-18.5v-33.8h18.5v1.7Zm29.9-1.3c3.7 1.4 5.8 6.9 2.6 6.9-1.5 0-1.7-.1-1.7-.8 0-3.2-6.3-4.3-7.7-1.3-1.2 2.7-.9 3.4 5.5 10.5 6 6.8 7.1 10.2 4.7 14.7-3.1 6-15.5 5.6-17.5-.4-.9-2.6-.6-3.1 1.3-3.1 1.6 0 1.7 0 1.7.9 0 3 5.4 4.4 7.4 1.9 2-2.6 1.3-4-5.6-11.7-5.5-6.1-6.5-9.3-4.5-13.6 1.8-3.9 8.8-5.9 13.8-4Zm35.1.4c1.7 1 3 2.8 3.6 5.4.4 1.8-3.2 1.5-3.7-.3-1-3.6-7-3.3-7.8.4-.3 2 .5 3.4 5.5 9 6.1 6.8 7 9 5.9 13.5-2.4 8.7-18.9 7.5-18.9-1.4 0-1.3 3.4-.6 3.6.8.7 3.5 6.8 3.8 7.9.4.8-2.5.3-3.3-5-9.3-7-7.8-8-11-5.1-15.7 2.2-3.6 9.4-5 14-2.8Z" fill="#0828CC"/>
</svg>
