<svg width="522" height="166" viewBox="0 0 522 166" fill="none" xmlns="http://www.w3.org/2000/svg">
<path fill-rule="evenodd" clip-rule="evenodd" d="M125.562 39.5631H165.475V0.757935H125.562V39.5631Z" fill="white"/>
<path fill-rule="evenodd" clip-rule="evenodd" d="M206.446 0.895828V39.5646H165.481V165.298H206.503V39.6986H249.851V165.435H290.872V39.6986H334.276V0.895828H206.446Z" fill="white"/>
<mask id="mask0_427_2986" style="mask-type:luminance" maskUnits="userSpaceOnUse" x="0" y="1" width="124" height="164">
<path d="M0.594971 1.03482H123.495V164.899H0.594971V1.03482Z" fill="white"/>
</mask>
<g mask="url(#mask0_427_2986)">
<path fill-rule="evenodd" clip-rule="evenodd" d="M35.542 126.314V105.162V101.523H40.3953H41.5669H64.9794H67.3178H74.3401C82.1788 101.523 88.5566 107.901 88.5566 115.739C88.5566 123.578 82.1788 129.956 74.3354 129.956H67.3178H41.5669H40.3953H35.542V126.314ZM105.631 77.8235C110.993 69.9472 114.136 60.4406 114.136 50.1929C114.136 23.0446 92.1277 1.03421 64.977 1.03421H41.5669H35.5444V33.8051V35.9765H39.2261H41.5669H50.93H64.977C72.8157 35.9765 79.1934 42.3566 79.1934 50.1953C79.1934 58.0339 72.8157 64.4117 64.977 64.4117H50.93H41.5669H39.2261H35.542V35.9789H33.373H0.599731V66.5784V99.3516V132.125V164.898H33.373H74.3354H74.3401C101.491 164.898 123.501 142.89 123.501 115.739C123.501 100.478 116.545 86.8408 105.631 77.8235Z" fill="white"/>
</g>
<path fill-rule="evenodd" clip-rule="evenodd" d="M347.721 112.676L349.946 102.894L352.188 112.676H347.721ZM347.067 98.5705L340.614 122.477H345.333L346.777 116.567H353.101L354.574 122.477H359.298L352.847 98.5705H347.067Z" fill="white"/>
<path fill-rule="evenodd" clip-rule="evenodd" d="M368.401 114.967L369.699 115.254C371.2 115.617 372.158 115.96 372.558 116.28C372.958 116.6 373.158 117.061 373.158 117.659C373.158 118.266 372.873 118.731 372.308 119.049C371.744 119.371 370.911 119.529 369.812 119.529C368.808 119.529 367.768 119.376 366.695 119.066C365.622 118.755 364.571 118.308 363.533 117.722V121.82C364.696 122.194 365.844 122.472 366.975 122.663C368.107 122.848 369.212 122.943 370.292 122.943C372.725 122.943 374.548 122.479 375.76 121.557C376.973 120.632 377.573 119.247 377.573 117.4C377.573 115.866 377.178 114.643 376.383 113.742C375.59 112.841 374.334 112.184 372.628 111.782L371.285 111.46L371.109 111.413C368.827 110.879 367.681 110.187 367.681 109.331C367.681 108.736 367.949 108.281 368.483 107.978C369.015 107.672 369.805 107.522 370.852 107.522C371.791 107.522 372.727 107.665 373.663 107.947C374.597 108.23 375.494 108.646 376.362 109.204V105.106C375.409 104.774 374.43 104.527 373.424 104.36C372.414 104.195 371.4 104.113 370.386 104.113C368.123 104.113 366.368 104.59 365.119 105.55C363.87 106.512 363.249 107.858 363.249 109.587C363.249 111.041 363.656 112.198 364.479 113.062C365.303 113.928 366.608 114.56 368.401 114.967Z" fill="white"/>
<path fill-rule="evenodd" clip-rule="evenodd" d="M393.42 117.648C392.778 118.636 391.893 119.13 390.759 119.13C389.64 119.13 388.76 118.636 388.118 117.648C387.478 116.662 387.158 115.286 387.158 113.526C387.158 111.764 387.478 110.39 388.118 109.4C388.76 108.417 389.64 107.92 390.759 107.92C391.893 107.92 392.778 108.417 393.42 109.4C394.058 110.39 394.38 111.764 394.38 113.526C394.38 115.286 394.058 116.662 393.42 117.648ZM390.759 104.111C388.228 104.111 386.214 104.956 384.716 106.648C383.215 108.339 382.467 110.633 382.467 113.526C382.467 116.418 383.215 118.709 384.716 120.403C386.214 122.097 388.228 122.941 390.759 122.941C393.3 122.941 395.321 122.097 396.82 120.403C398.318 118.709 399.069 116.418 399.069 113.526C399.069 110.633 398.318 108.339 396.82 106.648C395.321 104.956 393.3 104.111 390.759 104.111Z" fill="white"/>
<path fill-rule="evenodd" clip-rule="evenodd" d="M412.801 122.942C413.848 122.942 414.822 122.826 415.73 122.598C416.638 122.368 417.485 122.022 418.278 121.563V117.258C417.57 117.877 416.824 118.338 416.036 118.641C415.246 118.947 414.396 119.098 413.488 119.098C411.961 119.098 410.79 118.618 409.966 117.658C409.143 116.698 408.734 115.319 408.734 113.527C408.734 111.732 409.143 110.351 409.966 109.377C410.79 108.408 411.961 107.921 413.488 107.921C414.363 107.921 415.21 108.081 416.027 108.394C416.845 108.709 417.593 109.16 418.278 109.749V105.455C417.391 104.985 416.502 104.641 415.608 104.415C414.716 104.19 413.794 104.079 412.834 104.079C410.068 104.079 407.901 104.914 406.332 106.584C404.763 108.257 403.979 110.567 403.979 113.527C403.979 116.472 404.756 118.778 406.318 120.443C407.873 122.109 410.035 122.942 412.801 122.942Z" fill="white"/>
<path fill-rule="evenodd" clip-rule="evenodd" d="M434.513 104.544H425.23V108.145H429.825V118.873H423.979V122.477H440.345V118.873H434.513V104.544Z" fill="white"/>
<mask id="mask1_427_2986" style="mask-type:luminance" maskUnits="userSpaceOnUse" x="0" y="0" width="522" height="166">
<path d="M0.60022 165.435H521.013V0.757034H0.60022V165.435Z" fill="white"/>
</mask>
<g mask="url(#mask1_427_2986)">
<path fill-rule="evenodd" clip-rule="evenodd" d="M429.816 101.29H434.505V95.8185H429.816V101.29Z" fill="white"/>
</g>
<mask id="mask2_427_2986" style="mask-type:luminance" maskUnits="userSpaceOnUse" x="0" y="0" width="522" height="166">
<path d="M0.60022 165.435H521.013V0.757034H0.60022V165.435Z" fill="white"/>
</mask>
<g mask="url(#mask2_427_2986)">
<path fill-rule="evenodd" clip-rule="evenodd" d="M451.253 119.69C450.429 119.69 449.78 119.447 449.3 118.967C448.82 118.488 448.578 117.843 448.578 117.031C448.578 115.942 448.926 115.175 449.617 114.726C450.316 114.279 451.537 114.053 453.285 114.053H455.158V114.373C455.158 116.048 454.819 117.354 454.134 118.288C453.455 119.224 452.492 119.69 451.253 119.69ZM455.158 120.473V122.477H459.82V112.244C459.82 109.19 459.23 107.073 458.051 105.887C456.87 104.704 454.824 104.111 451.909 104.111C450.714 104.111 449.58 104.212 448.514 104.415C447.448 104.617 446.397 104.932 445.359 105.358V109.362C446.5 108.743 447.599 108.292 448.653 108.009C449.705 107.727 450.789 107.583 451.909 107.583C452.975 107.583 453.786 107.779 454.337 108.169C454.885 108.56 455.158 109.134 455.158 109.891V110.675H451.909C449.069 110.675 446.973 111.173 445.616 112.171C444.258 113.171 443.583 114.716 443.583 116.805C443.583 118.742 444.15 120.243 445.289 121.322C446.425 122.402 448.013 122.941 450.05 122.941C451.118 122.941 452.095 122.727 452.979 122.299C453.866 121.875 454.593 121.264 455.158 120.473Z" fill="white"/>
</g>
<mask id="mask3_427_2986" style="mask-type:luminance" maskUnits="userSpaceOnUse" x="0" y="0" width="522" height="166">
<path d="M0.60022 165.435H521.013V0.757034H0.60022V165.435Z" fill="white"/>
</mask>
<g mask="url(#mask3_427_2986)">
<path fill-rule="evenodd" clip-rule="evenodd" d="M476.019 125.648H471.502L470.077 130.546H473.182L476.019 125.648Z" fill="white"/>
</g>
<mask id="mask4_427_2986" style="mask-type:luminance" maskUnits="userSpaceOnUse" x="0" y="0" width="522" height="166">
<path d="M0.60022 165.435H521.013V0.757034H0.60022V165.435Z" fill="white"/>
</mask>
<g mask="url(#mask4_427_2986)">
<path fill-rule="evenodd" clip-rule="evenodd" d="M470.26 121.187C471.211 122.048 473.032 122.479 475.721 122.479H479.659V118.875H476.059C475.149 118.875 474.502 118.7 474.112 118.355C473.721 118.006 473.528 117.432 473.528 116.633V108.147H479.659V104.545H473.528V99.452H468.837V104.545H464.254V108.147H468.837V116.409C468.837 118.736 469.31 120.328 470.26 121.187Z" fill="white"/>
</g>
<mask id="mask5_427_2986" style="mask-type:luminance" maskUnits="userSpaceOnUse" x="0" y="0" width="522" height="166">
<path d="M0.60022 165.435H521.013V0.757034H0.60022V165.435Z" fill="white"/>
</mask>
<g mask="url(#mask5_427_2986)">
<path fill-rule="evenodd" clip-rule="evenodd" d="M495.7 104.543H486.417V108.145H491.012V118.873H485.166V122.477H501.532V118.873H495.7V104.543Z" fill="white"/>
</g>
<mask id="mask6_427_2986" style="mask-type:luminance" maskUnits="userSpaceOnUse" x="0" y="0" width="522" height="166">
<path d="M0.60022 165.435H521.013V0.757034H0.60022V165.435Z" fill="white"/>
</mask>
<g mask="url(#mask6_427_2986)">
<path fill-rule="evenodd" clip-rule="evenodd" d="M491.008 101.29H495.696V95.8185H491.008V101.29Z" fill="white"/>
</g>
<mask id="mask7_427_2986" style="mask-type:luminance" maskUnits="userSpaceOnUse" x="0" y="0" width="522" height="166">
<path d="M0.60022 165.435H521.013V0.757034H0.60022V165.435Z" fill="white"/>
</mask>
<g mask="url(#mask7_427_2986)">
<path fill-rule="evenodd" clip-rule="evenodd" d="M516.352 114.374C516.352 116.049 516.008 117.355 515.326 118.289C514.644 119.225 513.684 119.691 512.444 119.691C511.621 119.691 510.971 119.449 510.491 118.969C510.011 118.489 509.771 117.844 509.771 117.033C509.771 115.943 510.12 115.176 510.811 114.725C511.505 114.28 512.729 114.054 514.479 114.054H516.352V114.374ZM519.243 105.889C518.064 104.705 516.013 104.112 513.1 104.112C511.905 104.112 510.774 104.214 509.708 104.416C508.64 104.618 507.586 104.931 506.553 105.359V109.363C507.694 108.742 508.79 108.293 509.842 108.011C510.896 107.728 511.983 107.585 513.1 107.585C514.168 107.585 514.978 107.778 515.526 108.168C516.079 108.559 516.352 109.133 516.352 109.893V110.676H513.1C510.261 110.676 508.167 111.175 506.81 112.17C505.452 113.172 504.775 114.718 504.775 116.807C504.775 118.741 505.344 120.244 506.48 121.324C507.619 122.403 509.204 122.942 511.244 122.942C512.31 122.942 513.288 122.728 514.173 122.3C515.06 121.874 515.785 121.265 516.352 120.474V122.476H521.012V112.245C521.012 109.192 520.419 107.072 519.243 105.889Z" fill="white"/>
</g>
<mask id="mask8_427_2986" style="mask-type:luminance" maskUnits="userSpaceOnUse" x="0" y="0" width="522" height="166">
<path d="M0.60022 165.435H521.013V0.757034H0.60022V165.435Z" fill="white"/>
</mask>
<g mask="url(#mask8_427_2986)">
<path fill-rule="evenodd" clip-rule="evenodd" d="M352.958 160.289C352.351 160.799 351.299 161.056 349.791 161.056H346.653V153.979H349.791C351.243 153.979 352.287 154.259 352.913 154.826C353.546 155.396 353.859 156.32 353.859 157.614C353.859 158.882 353.558 159.774 352.958 160.289ZM346.653 144.661H349.791C350.965 144.661 351.815 144.882 352.33 145.324C352.847 145.769 353.106 146.482 353.106 147.463C353.106 148.444 352.854 149.15 352.346 149.575C351.841 150.001 350.989 150.218 349.791 150.218H346.653V144.661ZM353.139 152.041C354.668 151.904 355.826 151.401 356.616 150.535C357.404 149.672 357.802 148.472 357.802 146.933C357.802 144.927 357.129 143.419 355.79 142.41C354.449 141.4 352.452 140.899 349.791 140.899H342.092V164.836H349.791C352.92 164.836 355.176 164.319 356.567 163.281C357.952 162.246 358.649 160.576 358.649 158.273C358.649 156.393 358.188 154.932 357.263 153.883C356.339 152.836 354.967 152.224 353.139 152.041Z" fill="white"/>
</g>
<mask id="mask9_427_2986" style="mask-type:luminance" maskUnits="userSpaceOnUse" x="0" y="0" width="522" height="166">
<path d="M0.60022 165.435H521.013V0.757034H0.60022V165.435Z" fill="white"/>
</mask>
<g mask="url(#mask9_427_2986)">
<path fill-rule="evenodd" clip-rule="evenodd" d="M373.566 156.731C373.566 158.408 373.225 159.714 372.54 160.645C371.86 161.582 370.901 162.048 369.661 162.048C368.837 162.048 368.186 161.808 367.708 161.325C367.228 160.848 366.986 160.201 366.986 159.389C366.986 158.3 367.334 157.531 368.026 157.084C368.722 156.634 369.945 156.411 371.693 156.411H373.566V156.731ZM370.317 146.469C369.12 146.469 367.988 146.57 366.922 146.775C365.857 146.977 364.803 147.288 363.768 147.716V151.718C364.909 151.101 366.007 150.649 367.059 150.367C368.113 150.083 369.197 149.941 370.317 149.941C371.383 149.941 372.192 150.137 372.743 150.527C373.293 150.915 373.566 151.489 373.566 152.247V153.033H370.317C367.478 153.033 365.381 153.534 364.024 154.529C362.667 155.526 361.991 157.074 361.991 159.166C361.991 161.097 362.558 162.603 363.697 163.68C364.833 164.758 366.421 165.299 368.459 165.299C369.527 165.299 370.503 165.085 371.388 164.656C372.274 164.231 373.001 163.624 373.566 162.833V164.833H378.226V154.602C378.226 151.548 377.636 149.428 376.457 148.245C375.279 147.062 373.23 146.469 370.317 146.469Z" fill="white"/>
</g>
<mask id="mask10_427_2986" style="mask-type:luminance" maskUnits="userSpaceOnUse" x="0" y="0" width="522" height="166">
<path d="M0.60022 165.435H521.013V0.757034H0.60022V165.435Z" fill="white"/>
</mask>
<g mask="url(#mask10_427_2986)">
<path fill-rule="evenodd" clip-rule="evenodd" d="M392.889 146.469C391.758 146.469 390.791 146.742 389.991 147.285C389.191 147.831 388.626 148.598 388.295 149.591V146.902H383.634V164.835H388.295V154.569C388.295 153.226 388.537 152.174 389.022 151.416C389.509 150.657 390.174 150.28 391.017 150.28C391.849 150.28 392.449 150.56 392.816 151.122C393.186 151.682 393.371 152.611 393.371 153.915V164.835H398.029V153.193C398.029 150.962 397.599 149.283 396.731 148.158C395.867 147.031 394.585 146.469 392.889 146.469Z" fill="white"/>
</g>
<mask id="mask11_427_2986" style="mask-type:luminance" maskUnits="userSpaceOnUse" x="0" y="0" width="522" height="166">
<path d="M0.60022 165.435H521.013V0.757034H0.60022V165.435Z" fill="white"/>
</mask>
<g mask="url(#mask11_427_2986)">
<path fill-rule="evenodd" clip-rule="evenodd" d="M414.367 156.731C414.367 158.408 414.026 159.714 413.342 160.645C412.662 161.582 411.702 162.048 410.462 162.048C409.639 162.048 408.987 161.808 408.509 161.325C408.029 160.848 407.787 160.201 407.787 159.389C407.787 158.3 408.135 157.531 408.827 157.084C409.523 156.634 410.747 156.411 412.495 156.411H414.367V156.731ZM411.118 146.469C409.921 146.469 408.789 146.57 407.724 146.775C406.658 146.977 405.604 147.288 404.569 147.716V151.718C405.71 151.101 406.808 150.649 407.86 150.367C408.914 150.083 409.999 149.941 411.118 149.941C412.184 149.941 412.996 150.137 413.544 150.527C414.094 150.915 414.367 151.489 414.367 152.247V153.033H411.118C408.279 153.033 406.183 153.534 404.825 154.529C403.468 155.526 402.793 157.074 402.793 159.166C402.793 161.097 403.36 162.603 404.498 163.68C405.635 164.758 407.223 165.299 409.26 165.299C410.328 165.299 411.304 165.085 412.189 164.656C413.076 164.231 413.803 163.624 414.367 162.833V164.833H419.028V154.602C419.028 151.548 418.437 149.428 417.259 148.245C416.08 147.062 414.031 146.469 411.118 146.469Z" fill="white"/>
</g>
<mask id="mask12_427_2986" style="mask-type:luminance" maskUnits="userSpaceOnUse" x="0" y="0" width="522" height="166">
<path d="M0.60022 165.435H521.013V0.757034H0.60022V165.435Z" fill="white"/>
</mask>
<g mask="url(#mask12_427_2986)">
<path fill-rule="evenodd" clip-rule="evenodd" d="M432.735 141.809H428.044V146.902H423.463V150.504H428.044V158.768C428.044 161.092 428.517 162.687 429.467 163.546C430.42 164.405 432.238 164.835 434.93 164.835H438.865V161.231H435.266C434.356 161.231 433.709 161.059 433.318 160.711C432.928 160.368 432.735 159.794 432.735 158.992V150.504H438.865V146.902H432.735V141.809Z" fill="white"/>
</g>
<mask id="mask13_427_2986" style="mask-type:luminance" maskUnits="userSpaceOnUse" x="0" y="0" width="522" height="166">
<path d="M0.60022 165.435H521.013V0.757034H0.60022V165.435Z" fill="white"/>
</mask>
<g mask="url(#mask13_427_2986)">
<path fill-rule="evenodd" clip-rule="evenodd" d="M454.084 145.093H458.838V160.672H454.084V164.836H468.319V160.672H463.56V145.093H468.319V140.929H454.084V145.093Z" fill="white"/>
</g>
<mask id="mask14_427_2986" style="mask-type:luminance" maskUnits="userSpaceOnUse" x="0" y="0" width="522" height="166">
<path d="M0.60022 165.435H260.807H521.013V0.757034H0.60022V165.435Z" fill="white"/>
</mask>
<g mask="url(#mask14_427_2986)">
<path fill-rule="evenodd" clip-rule="evenodd" d="M473.162 145.062H479.23V164.835H483.953V145.062H490.021V140.931H473.162V145.062Z" fill="white"/>
</g>
</svg>
