<svg width="180" height="213" viewBox="0 0 180 213" fill="none" xmlns="http://www.w3.org/2000/svg">
<path d="M16.9419 98.6709V169.086L33.5716 178.688V108.273L16.9419 98.6709Z" fill="url(#paint0_linear_526_480)"/>
<path d="M33.5715 108.273V178.688L44.6586 172.286V101.871L33.5715 108.273Z" fill="url(#paint1_linear_526_480)"/>
<path d="M0.312134 89.0686L50.2013 117.876V111.474L44.6587 108.273V101.871L39.1141 98.671V92.2687L33.5716 89.0686V82.6683L28.029 79.4662V73.0659L22.4844 69.8657V76.266L16.9418 73.0659V79.4662L11.3993 76.266V82.6683L5.85471 79.4662V85.8684L0.312134 82.6683V89.0686Z" fill="#675EF1"/>
<path d="M50.2013 117.875L61.2884 111.473V105.072L50.2013 111.473V117.875Z" fill="#F45916"/>
<path d="M44.6587 108.274L55.7439 101.871V95.4712L44.6587 101.871V108.274Z" fill="#F45916"/>
<path d="M39.1142 98.6707L50.2014 92.2685V85.8682L39.1142 92.2685V98.6707Z" fill="#F45916"/>
<path d="M33.5715 89.0682L44.6586 82.6679V76.2656L33.5715 82.6679V89.0682Z" fill="#F45916"/>
<path d="M28.0292 79.4666L39.1143 73.0663V66.6641L28.0292 73.0663V79.4666Z" fill="#F45916"/>
<path d="M22.4845 69.8656L33.5716 63.4634L39.1142 66.6635L28.029 73.0658L22.4845 69.8656Z" fill="#FDB50F"/>
<path d="M28.0292 79.4662L39.1143 73.0659L44.6589 76.2661L33.5718 82.6683L28.0292 79.4662Z" fill="#FDB50F"/>
<path d="M33.5715 89.0683L44.6586 82.668L50.2012 85.8681L39.1141 92.2704L33.5715 89.0683Z" fill="#FDB50F"/>
<path d="M39.1142 98.6708L50.2014 92.2686L55.7439 95.4707L44.6588 101.871L39.1142 98.6708Z" fill="#FDB50F"/>
<path d="M44.6587 108.273L55.7439 101.871L61.2884 105.073L50.2013 111.474L44.6587 108.273Z" fill="#FDB50F"/>
<path d="M0.312134 82.6684L5.85471 79.4663V85.8686L0.312134 82.6684Z" fill="#FDB50F"/>
<path d="M5.85489 79.4658L11.3994 76.2656V82.6679L5.85489 79.4658Z" fill="#FDB50F"/>
<path d="M11.3994 76.2661L16.9419 73.0659V79.4662L11.3994 76.2661Z" fill="#FDB50F"/>
<path d="M16.9419 73.0659L22.4845 69.8657V76.266L16.9419 73.0659Z" fill="#FDB50F"/>
<path d="M77.4808 51.7773V154.618L101.768 168.642V65.8016L77.4808 51.7773Z" fill="url(#paint2_linear_526_480)"/>
<path d="M101.768 65.8016V168.642L117.961 159.292V56.4512L101.768 65.8016Z" fill="url(#paint3_linear_526_480)"/>
<path d="M53.1933 37.7526L126.056 79.8253V70.4749L117.961 65.8011V56.4506L109.863 51.7768V42.4264L101.768 37.7526V28.405L93.6735 23.7284V14.3808L85.5758 9.70703V19.0546L77.4809 14.3808V23.7284L69.386 19.0546V28.405L61.2882 23.7284V33.0788L53.1933 28.405V37.7526Z" fill="#675EF1"/>
<path d="M126.056 79.8255L142.248 70.475V61.1274L126.056 70.475V79.8255Z" fill="#F45916"/>
<path d="M117.961 65.801L134.151 56.4506V47.103L117.961 56.4506V65.801Z" fill="#F45916"/>
<path d="M109.863 51.7771L126.056 42.4267V33.0791L109.863 42.4267V51.7771Z" fill="#F45916"/>
<path d="M101.768 37.7532L117.961 28.4056V19.0552L101.768 28.4056V37.7532Z" fill="#F45916"/>
<path d="M93.6736 23.7288L109.863 14.3812V5.03076L93.6736 14.3812V23.7288Z" fill="#F45916"/>
<path d="M85.5758 9.70738L101.768 0.356934L109.863 5.03072L93.6736 14.3812L85.5758 9.70738Z" fill="#FDB50F"/>
<path d="M93.6736 23.7284L109.863 14.3809L117.961 19.0546L101.768 28.4051L93.6736 23.7284Z" fill="#FDB50F"/>
<path d="M101.768 37.7528L117.961 28.4053L126.056 33.0791L109.863 42.4295L101.768 37.7528Z" fill="#FDB50F"/>
<path d="M109.863 51.7767L126.056 42.4263L134.151 47.1029L117.961 56.4505L109.863 51.7767Z" fill="#FDB50F"/>
<path d="M117.961 65.8016L134.151 56.4512L142.249 61.1278L126.056 70.4754L117.961 65.8016Z" fill="#FDB50F"/>
<path d="M53.1933 28.4057L61.2882 23.729V33.0794L53.1933 28.4057Z" fill="#FDB50F"/>
<path d="M61.2883 23.729L69.3861 19.0552V28.4056L61.2883 23.729Z" fill="#FDB50F"/>
<path d="M69.3861 19.0546L77.481 14.3809V23.7284L69.3861 19.0546Z" fill="#FDB50F"/>
<path d="M77.4808 14.3808L85.5757 9.70703V19.0546L77.4808 14.3808Z" fill="#FDB50F"/>
<path d="M146.571 152.547V205.131L158.99 212.302V159.718L146.571 152.547Z" fill="url(#paint4_linear_526_480)"/>
<path d="M158.989 159.718V212.302L167.269 207.521V154.937L158.989 159.718Z" fill="url(#paint5_linear_526_480)"/>
<path d="M134.152 145.376L171.408 166.888V162.107L167.269 159.718V154.937L163.129 152.547V147.766L158.99 145.376V140.596L154.85 138.205V133.425L150.71 131.036V135.815L146.571 133.425V138.205L142.432 135.815V140.596L138.291 138.205V142.986L134.152 140.596V145.376Z" fill="#675EF1"/>
<path d="M171.408 166.888L179.688 162.107V157.328L171.408 162.107V166.888Z" fill="#F45916"/>
<path d="M167.269 159.718L175.547 154.937V150.157L167.269 154.937V159.718Z" fill="#F45916"/>
<path d="M163.129 152.547L171.408 147.766V142.986L163.129 147.766V152.547Z" fill="#F45916"/>
<path d="M158.989 145.376L167.269 140.596V135.815L158.989 140.596V145.376Z" fill="#F45916"/>
<path d="M154.851 138.206L163.129 133.426V128.645L154.851 133.426V138.206Z" fill="#F45916"/>
<path d="M150.71 131.036L158.99 126.255L163.129 128.645L154.85 133.426L150.71 131.036Z" fill="#FDB50F"/>
<path d="M154.851 138.205L163.129 133.426L167.269 135.816L158.99 140.597L154.851 138.205Z" fill="#FDB50F"/>
<path d="M158.989 145.376L167.269 140.596L171.408 142.986L163.129 147.767L158.989 145.376Z" fill="#FDB50F"/>
<path d="M163.129 152.547L171.408 147.766L175.547 150.157L167.269 154.937L163.129 152.547Z" fill="#FDB50F"/>
<path d="M167.269 159.718L175.547 154.937L179.688 157.328L171.408 162.108L167.269 159.718Z" fill="#FDB50F"/>
<path d="M134.152 140.597L138.291 138.206V142.987L134.152 140.597Z" fill="#FDB50F"/>
<path d="M138.291 138.205L142.432 135.815V140.596L138.291 138.205Z" fill="#FDB50F"/>
<path d="M142.432 135.816L146.571 133.426V138.205L142.432 135.816Z" fill="#FDB50F"/>
<path d="M146.571 133.425L150.71 131.036V135.815L146.571 133.425Z" fill="#FDB50F"/>
<defs>
<linearGradient id="paint0_linear_526_480" x1="33.5716" y1="108.429" x2="20.4898" y2="171.546" gradientUnits="userSpaceOnUse">
<stop stop-color="#675EF1"/>
<stop offset="1" stop-color="#675EF1" stop-opacity="0"/>
</linearGradient>
<linearGradient id="paint1_linear_526_480" x1="35.1891" y1="109.947" x2="44.6586" y2="173.549" gradientUnits="userSpaceOnUse">
<stop stop-color="#F65800"/>
<stop offset="1" stop-color="#F65800" stop-opacity="0"/>
</linearGradient>
<linearGradient id="paint2_linear_526_480" x1="101.768" y1="66.0291" x2="82.6626" y2="158.211" gradientUnits="userSpaceOnUse">
<stop stop-color="#675EF1"/>
<stop offset="1" stop-color="#675EF1" stop-opacity="0"/>
</linearGradient>
<linearGradient id="paint3_linear_526_480" x1="104.131" y1="68.2459" x2="117.961" y2="161.136" gradientUnits="userSpaceOnUse">
<stop stop-color="#F65800"/>
<stop offset="1" stop-color="#F65800" stop-opacity="0"/>
</linearGradient>
<linearGradient id="paint4_linear_526_480" x1="158.99" y1="159.834" x2="149.22" y2="206.969" gradientUnits="userSpaceOnUse">
<stop stop-color="#675EF1"/>
<stop offset="1" stop-color="#675EF1" stop-opacity="0"/>
</linearGradient>
<linearGradient id="paint5_linear_526_480" x1="160.198" y1="160.968" x2="167.269" y2="208.464" gradientUnits="userSpaceOnUse">
<stop stop-color="#F65800"/>
<stop offset="1" stop-color="#F65800" stop-opacity="0"/>
</linearGradient>
</defs>
</svg>
