<svg width="210" height="214" viewBox="0 0 210 214" fill="none" xmlns="http://www.w3.org/2000/svg">
<path d="M144.507 64.0813L131.012 57.4619L119.62 63.0471L133.116 69.6937L144.507 64.0813Z" fill="#FDB50F"/>
<path d="M144.429 105.631L144.507 64.082L133.115 69.6944L133.109 111.297L144.429 105.631Z" fill="#F45916"/>
<path d="M133.109 111.298L133.115 69.6949L119.62 63.0483L119.635 71.3974L126.366 74.7237L126.396 107.938L133.109 111.298Z" fill="#675EF1"/>
<path d="M144.507 132.314L131.012 125.694L119.62 131.28L133.115 137.926L144.507 132.314Z" fill="#FDB50F"/>
<path d="M144.429 173.862L144.507 132.313L133.115 137.926L133.109 179.529L144.429 173.862Z" fill="#F45916"/>
<path d="M133.109 179.529L133.115 137.926L119.62 131.28L119.635 139.629L126.366 142.955L126.396 176.17L133.109 179.529Z" fill="#675EF1"/>
<path d="M88.2766 37.0403L74.7812 30.4209L63.3892 36.0061L76.8846 42.6526L88.2766 37.0403Z" fill="#FDB50F"/>
<path d="M88.1979 78.5886L88.2766 37.04L76.8847 42.6524L76.8786 84.2555L88.1979 78.5886Z" fill="#F45916"/>
<path d="M76.8786 84.2555L76.8847 42.6524L63.3893 36.0059L63.4044 44.3549L70.1354 47.6812L70.1657 80.8959L76.8786 84.2555Z" fill="#675EF1"/>
<path d="M202.841 166.027L189.346 159.407L177.954 164.992L191.449 171.639L202.841 166.027Z" fill="#FDB50F"/>
<path d="M202.763 207.574L202.841 166.026L191.449 171.638L191.443 213.241L202.763 207.574Z" fill="#F45916"/>
<path d="M191.443 213.241L191.449 171.638L177.954 164.992L177.969 173.341L184.7 176.667L184.73 209.882L191.443 213.241Z" fill="#675EF1"/>
<path d="M18.5384 8.53663L11.889 5.18311L0.627197 10.8469L7.27352 14.2155L18.5384 8.53663Z" fill="#FDB50F"/>
<path d="M18.5415 32.9336L18.5384 8.53662L7.27359 14.2155L7.32202 38.6427L18.5415 32.9336Z" fill="#F45916"/>
<path d="M7.32194 38.642L7.27352 14.2148L0.627197 10.8462L0.699835 35.2552L7.32194 38.642Z" fill="#675EF1"/>
<path d="M31.8824 15.2678L31.8976 7.08203L20.6206 12.7791L20.6176 20.9739L31.8824 15.2678Z" fill="#F45916"/>
<path d="M31.8976 7.08242L18.5354 0.363281L7.25842 6.03312L20.6207 12.7795L31.8976 7.08242Z" fill="#FDB50F"/>
<path d="M7.25842 6.0332L7.27356 14.2159L20.6176 20.9744L20.6207 12.7796L7.25842 6.0332Z" fill="#675EF1"/>
<path d="M31.834 39.6976L18.5413 32.9331L7.32187 38.6423L20.6145 45.437L31.834 39.6976Z" fill="#FDB50F"/>
<path d="M31.8189 47.8014L31.834 39.6973L20.6146 45.4367V53.5498L31.8189 47.8014Z" fill="#F45916"/>
<path d="M20.6145 53.5505V45.4373L7.32187 38.6426L7.337 46.7437L20.6145 53.5505Z" fill="#675EF1"/>
<path d="M38.5772 18.6453L31.8824 15.2676L20.6176 20.9737L27.3154 24.3665L38.5772 18.6453Z" fill="#FDB50F"/>
<path d="M38.5075 43.0939L38.5771 18.6455L27.3153 24.3668L27.285 48.8454L38.5075 43.0939Z" fill="#F45916"/>
<path d="M27.2851 48.8451L27.3154 24.3665L20.6176 20.9736L20.6146 45.4371L27.2851 48.8451Z" fill="#675EF1"/>
<path d="M18.5384 76.2202L11.889 72.8667L0.627197 78.5305L7.27352 81.8991L18.5384 76.2202Z" fill="#FDB50F"/>
<path d="M18.5415 100.617L18.5384 76.2202L7.27359 81.8991L7.32202 106.326L18.5415 100.617Z" fill="#F45916"/>
<path d="M7.32194 106.327L7.27352 81.8994L0.627197 78.5308L0.699835 102.94L7.32194 106.327Z" fill="#675EF1"/>
<path d="M31.8824 82.9519L31.8976 74.7661L20.6206 80.4632L20.6176 88.658L31.8824 82.9519Z" fill="#F45916"/>
<path d="M31.8976 74.7665L18.5354 68.0474L7.25842 73.7172L20.6207 80.4636L31.8976 74.7665Z" fill="#FDB50F"/>
<path d="M7.25842 73.7173L7.27356 81.9L20.6176 88.6585L20.6207 80.4636L7.25842 73.7173Z" fill="#675EF1"/>
<path d="M31.834 107.382L18.5413 100.617L7.32187 106.326L20.6145 113.121L31.834 107.382Z" fill="#FDB50F"/>
<path d="M31.8189 115.486L31.834 107.382L20.6146 113.121V121.234L31.8189 115.486Z" fill="#F45916"/>
<path d="M20.6145 121.236V113.122L7.32187 106.328L7.337 114.429L20.6145 121.236Z" fill="#675EF1"/>
<path d="M38.5772 86.3299L31.8824 82.9521L20.6176 88.6583L27.3154 92.0511L38.5772 86.3299Z" fill="#FDB50F"/>
<path d="M38.5075 110.777L38.5771 86.3291L27.3153 92.0504L27.285 116.529L38.5075 110.777Z" fill="#F45916"/>
<path d="M27.2851 116.53L27.3154 92.051L20.6176 88.6582L20.6146 113.122L27.2851 116.53Z" fill="#675EF1"/>
<path d="M74.7693 106.826L68.1199 103.473L56.8581 109.136L63.5044 112.505L74.7693 106.826Z" fill="#FDB50F"/>
<path d="M74.7723 131.224L74.7693 106.827L63.5045 112.506L63.5529 136.933L74.7723 131.224Z" fill="#F45916"/>
<path d="M63.5529 136.933L63.5044 112.506L56.8581 109.137L56.9308 133.546L63.5529 136.933Z" fill="#675EF1"/>
<path d="M88.1133 113.558L88.1284 105.373L76.8514 111.07L76.8484 119.264L88.1133 113.558Z" fill="#F45916"/>
<path d="M88.1284 105.372L74.7662 98.6528L63.4892 104.323L76.8515 111.069L88.1284 105.372Z" fill="#FDB50F"/>
<path d="M63.4892 104.324L63.5044 112.506L76.8485 119.265L76.8515 111.07L63.4892 104.324Z" fill="#675EF1"/>
<path d="M88.065 137.988L74.7724 131.224L63.5529 136.933L76.8456 143.728L88.065 137.988Z" fill="#FDB50F"/>
<path d="M88.0498 146.092L88.0649 137.988L76.8455 143.728V151.841L88.0498 146.092Z" fill="#F45916"/>
<path d="M76.8456 151.84V143.727L63.5529 136.932L63.5681 145.033L76.8456 151.84Z" fill="#675EF1"/>
<path d="M94.808 116.935L88.1133 113.558L76.8484 119.264L83.5462 122.657L94.808 116.935Z" fill="#FDB50F"/>
<path d="M94.7385 141.383L94.8081 116.935L83.5463 122.656L83.516 147.135L94.7385 141.383Z" fill="#F45916"/>
<path d="M83.516 147.136L83.5463 122.657L76.8485 119.264L76.8455 143.728L83.516 147.136Z" fill="#675EF1"/>
<path d="M189.334 99.3481L182.685 95.9946L171.423 101.658L178.069 105.027L189.334 99.3481Z" fill="#FDB50F"/>
<path d="M189.337 123.745L189.334 99.3477L178.069 105.027L178.118 129.454L189.337 123.745Z" fill="#F45916"/>
<path d="M178.118 129.454L178.069 105.027L171.423 101.658L171.495 126.067L178.118 129.454Z" fill="#675EF1"/>
<path d="M202.678 106.079L202.693 97.8931L191.416 103.59L191.413 111.785L202.678 106.079Z" fill="#F45916"/>
<path d="M202.693 97.8939L189.331 91.1748L178.054 96.8446L191.416 103.591L202.693 97.8939Z" fill="#FDB50F"/>
<path d="M178.054 96.8438L178.069 105.026L191.413 111.785L191.416 103.59L178.054 96.8438Z" fill="#675EF1"/>
<path d="M202.63 130.509L189.337 123.745L178.118 129.454L191.41 136.249L202.63 130.509Z" fill="#FDB50F"/>
<path d="M202.614 138.613L202.63 130.509L191.41 136.249V144.362L202.614 138.613Z" fill="#F45916"/>
<path d="M191.41 144.362V136.248L178.118 129.454L178.133 137.555L191.41 144.362Z" fill="#675EF1"/>
<path d="M209.373 109.457L202.678 106.08L191.413 111.786L198.111 115.179L209.373 109.457Z" fill="#FDB50F"/>
<path d="M209.303 133.905L209.373 109.457L198.111 115.178L198.081 139.657L209.303 133.905Z" fill="#F45916"/>
<path d="M198.081 139.657L198.111 115.178L191.413 111.786L191.41 136.249L198.081 139.657Z" fill="#675EF1"/>
</svg>
