<svg width="760" height="349" viewBox="0 0 760 349" fill="none" xmlns="http://www.w3.org/2000/svg">
<path d="M6.54627 86.9466C6.54627 74.6455 9.20757 63.7046 14.5302 54.1239C19.8528 44.4249 27.2453 36.9142 36.7077 31.5916C46.2883 26.1507 57.111 23.4302 69.1755 23.4302C83.9605 23.4302 96.6165 27.3335 107.143 35.1399C117.67 42.9464 124.708 53.5916 128.256 67.0756H94.9014C92.4176 61.8712 88.8692 57.9089 84.2562 55.1884C79.7616 52.468 74.6164 51.1078 68.8207 51.1078C59.4766 51.1078 51.9066 54.3605 46.1109 60.8659C40.3152 67.3713 37.4173 76.0648 37.4173 86.9466C37.4173 97.8284 40.3152 106.522 46.1109 113.027C51.9066 119.533 59.4766 122.785 68.8207 122.785C74.6164 122.785 79.7616 121.425 84.2562 118.705C88.8692 115.984 92.4176 112.022 94.9014 106.818H128.256C124.708 120.302 117.67 130.947 107.143 138.753C96.6165 146.441 83.9605 150.286 69.1755 150.286C57.111 150.286 46.2883 147.624 36.7077 142.302C27.2453 136.861 19.8528 129.35 14.5302 119.769C9.20757 110.189 6.54627 99.2477 6.54627 86.9466ZM205.739 150.64C194.029 150.64 183.266 147.92 173.449 142.479C163.75 137.038 156.002 129.468 150.207 119.769C144.529 109.952 141.69 98.952 141.69 86.7692C141.69 74.5863 144.529 63.6454 150.207 53.9465C156.002 44.2475 163.75 36.6776 173.449 31.2367C183.266 25.7958 194.029 23.0754 205.739 23.0754C217.449 23.0754 228.153 25.7958 237.852 31.2367C247.669 36.6776 255.357 44.2475 260.917 53.9465C266.594 63.6454 269.433 74.5863 269.433 86.7692C269.433 98.952 266.594 109.952 260.917 119.769C255.239 129.468 247.551 137.038 237.852 142.479C228.153 147.92 217.449 150.64 205.739 150.64ZM205.739 122.963C215.675 122.963 223.599 119.651 229.513 113.027C235.546 106.404 238.562 97.6509 238.562 86.7692C238.562 75.7691 235.546 67.0164 229.513 60.511C223.599 53.8873 215.675 50.5755 205.739 50.5755C195.685 50.5755 187.642 53.8282 181.61 60.3336C175.696 66.839 172.739 75.6509 172.739 86.7692C172.739 97.7692 175.696 106.581 181.61 113.205C187.642 119.71 195.685 122.963 205.739 122.963ZM427.36 24.8496V149.398H397.021V74.7046L369.166 149.398H344.682L316.65 74.5272V149.398H286.311V24.8496H322.15L357.102 111.076L391.699 24.8496H427.36ZM479.516 24.8496V149.398H449.177V24.8496H479.516ZM612.922 149.398H582.583L531.841 72.5756V149.398H501.502V24.8496H531.841L582.583 102.027V24.8496H612.922V149.398ZM717.592 64.2368C715.344 60.097 712.092 56.9626 707.833 54.8336C703.694 52.5863 698.785 51.4626 693.108 51.4626C683.29 51.4626 675.425 54.7153 669.511 61.2207C663.597 67.6078 660.64 76.1831 660.64 86.9466C660.64 98.4198 663.715 107.409 669.866 113.914C676.134 120.302 684.71 123.495 695.592 123.495C703.043 123.495 709.312 121.603 714.398 117.818C719.602 114.033 723.387 108.592 725.753 101.495H687.253V79.1401H753.253V107.35C751.006 114.92 747.162 121.957 741.721 128.463C736.398 134.968 729.597 140.232 721.317 144.253C713.038 148.275 703.694 150.286 693.285 150.286C680.984 150.286 669.984 147.624 660.285 142.302C650.704 136.861 643.193 129.35 637.753 119.769C632.43 110.189 629.769 99.2477 629.769 86.9466C629.769 74.6455 632.43 63.7046 637.753 54.1239C643.193 44.4249 650.704 36.9142 660.285 31.5916C669.866 26.1507 680.807 23.4302 693.108 23.4302C708.011 23.4302 720.549 27.0378 730.721 34.2529C741.011 41.4679 747.812 51.4626 751.124 64.2368H717.592Z" fill="white"/>
<path d="M56.7557 324.64C47.6481 324.64 39.4868 323.162 32.2717 320.205C25.0566 317.248 19.2609 312.871 14.8845 307.076C10.6265 301.28 8.37914 294.302 8.14258 286.14H40.433C40.9061 290.753 42.5029 294.302 45.2234 296.785C47.9438 299.151 51.4922 300.334 55.8686 300.334C60.3632 300.334 63.9116 299.328 66.5138 297.318C69.1159 295.189 70.417 292.291 70.417 288.624C70.417 285.549 69.3525 283.006 67.2234 280.995C65.2127 278.984 62.6697 277.328 59.5944 276.027C56.6374 274.726 52.3793 273.248 46.8201 271.592C38.7771 269.108 32.2126 266.624 27.1265 264.14C22.0405 261.656 17.6641 257.99 13.9974 253.14C10.3308 248.291 8.49742 241.963 8.49742 234.156C8.49742 222.565 12.6964 213.516 21.0942 207.011C29.4921 200.387 40.433 197.075 53.9169 197.075C67.6374 197.075 78.6966 200.387 87.0945 207.011C95.4924 213.516 99.987 222.624 100.578 234.334H67.7557C67.5191 230.312 66.0406 227.178 63.3202 224.93C60.5998 222.565 57.1105 221.382 52.8524 221.382C49.1857 221.382 46.2287 222.387 43.9814 224.398C41.7341 226.291 40.6104 229.07 40.6104 232.737C40.6104 236.758 42.5029 239.893 46.2879 242.14C50.0728 244.387 55.9868 246.812 64.0299 249.414C72.0729 252.135 78.5783 254.737 83.5461 257.221C88.6321 259.705 93.0085 263.312 96.6752 268.043C100.342 272.775 102.175 278.866 102.175 286.318C102.175 293.414 100.342 299.861 96.6752 305.656C93.1268 311.452 87.9224 316.065 81.0622 319.495C74.202 322.925 66.0998 324.64 56.7557 324.64Z" stroke="white" stroke-width="5"/>
<path d="M179.749 324.64C168.04 324.64 157.276 321.92 147.459 316.479C137.76 311.038 130.013 303.468 124.217 293.769C118.539 283.952 115.701 272.952 115.701 260.769C115.701 248.586 118.539 237.645 124.217 227.946C130.013 218.247 137.76 210.678 147.459 205.237C157.276 199.796 168.04 197.075 179.749 197.075C191.459 197.075 202.163 199.796 211.862 205.237C221.68 210.678 229.368 218.247 234.927 227.946C240.604 237.645 243.443 248.586 243.443 260.769C243.443 272.952 240.604 283.952 234.927 293.769C229.249 303.468 221.561 311.038 211.862 316.479C202.163 321.92 191.459 324.64 179.749 324.64ZM179.749 296.963C189.685 296.963 197.61 293.651 203.524 287.027C209.556 280.404 212.572 271.651 212.572 260.769C212.572 249.769 209.556 241.016 203.524 234.511C197.61 227.887 189.685 224.575 179.749 224.575C169.695 224.575 161.652 227.828 155.62 234.334C149.706 240.839 146.749 249.651 146.749 260.769C146.749 271.769 149.706 280.581 155.62 287.205C161.652 293.71 169.695 296.963 179.749 296.963Z" stroke="white" stroke-width="5"/>
<path d="M319.225 324.64C307.515 324.64 296.752 321.92 286.935 316.479C277.236 311.038 269.488 303.468 263.693 293.769C258.015 283.952 255.176 272.952 255.176 260.769C255.176 248.586 258.015 237.645 263.693 227.946C269.488 218.247 277.236 210.678 286.935 205.237C296.752 199.796 307.515 197.075 319.225 197.075C330.935 197.075 341.639 199.796 351.338 205.237C361.155 210.678 368.843 218.247 374.403 227.946C380.08 237.645 382.919 248.586 382.919 260.769C382.919 272.952 380.08 283.952 374.403 293.769C368.725 303.468 361.037 311.038 351.338 316.479C341.639 321.92 330.935 324.64 319.225 324.64ZM319.225 296.963C329.16 296.963 337.085 293.651 342.999 287.027C349.032 280.404 352.048 271.651 352.048 260.769C352.048 249.769 349.032 241.016 342.999 234.511C337.085 227.887 329.16 224.575 319.225 224.575C309.171 224.575 301.128 227.828 295.096 234.334C289.182 240.839 286.225 249.651 286.225 260.769C286.225 271.769 289.182 280.581 295.096 287.205C301.128 293.71 309.171 296.963 319.225 296.963Z" stroke="white" stroke-width="5"/>
<path d="M511.217 323.398H480.878L430.136 246.576V323.398H399.797V198.85H430.136L480.878 276.027V198.85H511.217V323.398Z" stroke="white" stroke-width="5"/>
</svg>
