<svg width="212" height="238" viewBox="0 0 212 238" fill="none" xmlns="http://www.w3.org/2000/svg">
<path d="M106.147 91.9793V107.254L132.595 91.9793V76.709L106.147 91.9793Z" fill="#FDB50F"/>
<path d="M79.6943 76.709V91.9793L106.147 107.254V91.9793L79.6943 76.709Z" fill="#F45916"/>
<path d="M79.6943 76.7096L106.147 61.4346L132.595 76.7096L106.147 91.98L79.6943 76.7096Z" fill="#FFECC1"/>
<path d="M66.4707 84.3442L79.6947 76.709V91.9793L66.4707 84.3442Z" fill="#FFECC1"/>
<path d="M53.2422 91.9794L66.4709 84.3442V99.6193L53.2422 91.9794Z" fill="#FFECC1"/>
<path d="M53.2422 107.255L66.4709 99.6199V114.89L53.2422 107.255Z" fill="#FFECC1"/>
<path d="M79.6947 91.9797L66.4707 99.6196L92.9186 114.89L106.147 107.255L79.6947 91.9797Z" fill="#FFECC1"/>
<path d="M132.595 91.9797L106.147 107.255L119.371 114.89L145.824 99.6196L132.595 91.9797Z" fill="#FFECC1"/>
<path d="M92.9185 130.165L106.147 122.525L119.371 130.165L106.147 137.8L92.9185 130.165Z" fill="#FFECC1"/>
<path d="M145.824 99.6199V114.89L159.048 107.255L145.824 99.6199Z" fill="#FFECC1"/>
<path d="M132.595 76.709V91.9793L145.823 84.3442L132.595 76.709Z" fill="#FFECC1"/>
<path d="M145.824 99.6193V84.3442L159.048 91.9794L145.824 99.6193Z" fill="#FFECC1"/>
<path d="M119.371 114.89V130.165L106.147 137.8V183.621L119.371 175.981V191.256L145.824 175.981V160.711L159.048 153.071V107.255L145.824 114.89V99.6199L119.371 114.89Z" fill="#FDB50F"/>
<path d="M53.2422 107.255V153.071L66.4709 160.711V175.981L92.9188 191.256V175.981L106.147 183.621V137.8L92.9188 130.165V114.89L66.4709 99.6199V114.89L53.2422 107.255Z" fill="#F45916"/>
<path d="M106.147 107.254V122.525L119.371 130.164V114.889L106.147 107.254Z" fill="#F45916"/>
<path d="M66.4707 84.3442V99.6193L79.6947 91.9794L66.4707 84.3442Z" fill="#F45916"/>
<path d="M53.2422 91.9797V107.255L66.4709 99.6196L53.2422 91.9797Z" fill="#F45916"/>
<path d="M106.147 183.62L119.371 175.98V191.255L106.147 183.62Z" fill="#F45916"/>
<path d="M79.6943 183.62V198.89L106.147 214.166V183.62L92.9183 191.255L79.6943 183.62Z" fill="#F45916"/>
<path d="M92.9185 114.889V130.164L106.147 122.525V107.254L92.9185 114.889Z" fill="#FDB50F"/>
<path d="M132.595 91.9794L145.823 84.3442V99.6193L132.595 91.9794Z" fill="#FDB50F"/>
<path d="M159.048 91.9797L145.824 99.6196L159.048 107.255V91.9797Z" fill="#FDB50F"/>
<path d="M92.9185 175.98V191.255L106.147 183.62L92.9185 175.98Z" fill="#FDB50F"/>
<path d="M106.147 214.166V183.62L119.371 191.255L132.595 183.62V198.89L106.147 214.166Z" fill="#FDB50F"/>
<path d="M86.6997 218.207V202.937L106.148 214.166V229.436L86.6997 218.207Z" fill="#675EF1"/>
<path d="M106.147 214.166L125.595 202.937V218.207L106.147 229.436V214.166Z" fill="#F45916"/>
<path d="M99.5093 225.607V233.27L106.147 237.071V229.436L99.5093 225.607Z" fill="#675EF1"/>
<path d="M112.785 225.607V233.27L106.147 237.071V229.436L112.785 225.607Z" fill="#F45916"/>
<path d="M159.048 168.345L172.277 160.71L172.272 145.435L211.953 168.345V183.62L198.724 191.255L159.048 168.345Z" fill="#FDB50F"/>
<path d="M159.048 76.7093L198.724 53.7991L211.953 61.4343V76.7093L172.277 99.6196L172.272 84.3445L159.048 76.7093Z" fill="#FDB50F"/>
<path d="M92.9185 53.7987V7.9782L106.147 0.343018L119.371 7.9782V53.7987L106.147 46.1635L92.9185 53.7987Z" fill="#FDB50F"/>
<path d="M0.341309 61.4343V76.7093L40.0179 99.6196V84.3445L53.2419 76.7093L13.5653 53.7991L0.341309 61.4343Z" fill="#FDB50F"/>
<path d="M0.341309 183.62V168.345L40.0179 145.435V160.71L53.2419 168.345L13.5653 191.255L0.341309 183.62Z" fill="#FDB50F"/>
</svg>
