<svg width="179" height="202" viewBox="0 0 179 202" fill="none" xmlns="http://www.w3.org/2000/svg">
<path d="M39.8645 101.075V181.303L5.12744 161.249V81.0171L39.8645 101.075Z" fill="#675EF1"/>
<path d="M39.8647 101.075L51.4424 94.3906V81.0171L144.076 27.5317V134.507L120.917 147.876V161.249L51.8172 201.58L51.4424 174.619L39.8647 181.303V101.075Z" fill="#F45916"/>
<path d="M5.12744 81.0172L16.7051 74.3325L51.4422 94.3906L39.8645 101.075L5.12744 81.0172Z" fill="#FDB50F"/>
<path d="M16.7051 60.959V74.3324L51.4422 94.3905V81.017L16.7051 60.959Z" fill="#675EF1"/>
<path d="M16.7051 60.9591L109.339 7.47363L144.076 27.5317L51.4422 81.0171L16.7051 60.9591Z" fill="#FDB50F"/>
<path d="M16.7051 167.934V181.303L51.817 201.58L51.4422 174.619L39.8645 181.303L16.7051 167.934Z" fill="#675EF1"/>
<path d="M51.4424 107.76V134.507L63.0242 141.192L63.02 114.449L51.4424 107.76Z" fill="#9B9B9B"/>
<path d="M74.6018 94.3906L51.4424 107.76L63.02 114.449L86.1795 101.075L74.6018 94.3906Z" fill="white"/>
<path d="M86.1795 127.818V101.076L63.02 114.449L63.0241 141.192L86.1795 127.818Z" fill="#D8D8D8"/>
<path d="M72.1592 133.094V119.725L83.8769 113.119V126.719L72.1592 133.094Z" fill="#232323"/>
<path d="M68.7529 117.756L72.1591 119.725L83.8768 113.118L80.4706 111.149L68.7529 117.756Z" fill="#232323"/>
<path d="M68.7529 131.125L72.1591 133.094V119.725L68.7529 117.756V131.125Z" fill="#232323"/>
<path d="M0.230469 131.677V158.42L22.179 171.093L22.4962 144.532L0.230469 131.677Z" fill="#E08122"/>
<path d="M0.230469 131.677L11.3715 124.75L33.6331 137.604L22.4962 144.532L0.230469 131.677Z" fill="#FFE1BD"/>
<path d="M22.1792 171.093L33.3162 164.165L33.6333 137.604L22.4963 144.532L22.1792 171.093Z" fill="#EAA65C"/>
<path d="M4.9917 155.413L17.735 147.464L4.9917 140.108V155.413Z" fill="#EAA65C"/>
<path d="M4.9917 155.413L17.735 147.464L17.5496 162.662L4.9917 155.413Z" fill="#FFE1BD"/>
<path d="M51.4424 40.9053V54.2746L63.0242 60.9592V47.5899L51.4424 40.9053Z" fill="#675EF1"/>
<path d="M63.0239 47.5898L74.6016 40.9051V27.5317L109.339 7.47363V34.2163L63.0239 60.9591V47.5898Z" fill="url(#paint0_linear_579_540)"/>
<path d="M51.4424 40.9051L63.0242 34.2163L74.6018 40.9051L63.0242 47.5897L51.4424 40.9051Z" fill="#FDB50F"/>
<path d="M63.0239 20.8472V34.2165L74.6016 40.9052V27.5318L63.0239 20.8472Z" fill="#675EF1"/>
<path d="M97.761 0.789062L63.0239 20.8471L74.6016 27.5318L109.339 7.47371L97.761 0.789062Z" fill="#FDB50F"/>
<path d="M63.0239 194.677L74.6016 187.992V201.361L63.0239 194.677Z" fill="#675EF1"/>
<path d="M74.6021 187.992L109.339 167.934V181.303L74.6021 201.361V187.992Z" fill="url(#paint1_linear_579_540)"/>
<path d="M144.076 40.9051L155.654 34.2163V20.847L178.813 7.47363V87.7059L155.654 101.075V87.7059L144.076 94.3905V40.9051Z" fill="#F45916"/>
<path d="M144.076 14.1625L167.236 0.789062L178.813 7.47371L155.654 20.8471L144.076 14.1625Z" fill="#FDB50F"/>
<path d="M144.076 27.5317V40.9052L155.654 34.2164L144.076 27.5317Z" fill="#FDB50F"/>
<path d="M144.076 14.1626V27.5319L155.654 34.2165V20.8472L144.076 14.1626Z" fill="#675EF1"/>
<path d="M144.076 94.3907L155.654 87.7061V101.075" fill="#675EF1"/>
<path d="M86.1792 60.9595V181.304L97.7569 174.619L97.761 54.2749L86.1792 60.9595Z" fill="#675EF1"/>
<path d="M109.339 47.5899V167.934L120.917 161.25V40.9053L109.339 47.5899Z" fill="#675EF1"/>
<path d="M86.1799 141.192V161.25L80.4385 157.876V137.876L86.1799 141.192Z" fill="#675EF1"/>
<path d="M109.339 147.876L86.1797 161.25V141.192L109.339 127.818V147.876Z" fill="#F45916"/>
<path d="M80.4385 137.876L103.548 124.478L109.339 127.818L86.1799 141.192L80.4385 137.876Z" fill="#FDB50F"/>
<path d="M86.1797 60.9591L74.6021 54.2745L86.1797 47.5898L97.7615 54.2745L86.1797 60.9591Z" fill="#675EF1"/>
<path d="M97.7612 40.9051L109.339 34.2163L120.917 40.9051L109.339 47.5897L97.7612 40.9051Z" fill="#675EF1"/>
<path d="M144.076 60.9593L173.022 44.2456V17.5029L161.445 24.1917V37.561L144.076 47.59V60.9593Z" fill="#675EF1"/>
<path d="M144.076 87.7057L161.445 77.6767V91.046L173.022 84.3614V57.6187L144.076 74.3323V87.7057Z" fill="#675EF1"/>
<defs>
<linearGradient id="paint0_linear_579_540" x1="86.1813" y1="19.8927" x2="104.147" y2="50.121" gradientUnits="userSpaceOnUse">
<stop stop-color="#F45916"/>
<stop offset="1" stop-color="#CE193C"/>
</linearGradient>
<linearGradient id="paint1_linear_579_540" x1="100.206" y1="190.629" x2="93.6483" y2="160.79" gradientUnits="userSpaceOnUse">
<stop stop-color="#F45916"/>
<stop offset="1" stop-color="#CE193C"/>
</linearGradient>
</defs>
</svg>
