<svg width="237" height="182" viewBox="0 0 237 182" fill="none" xmlns="http://www.w3.org/2000/svg">
<path d="M0.858887 156.464L22.2415 168.809L214.708 57.6832L193.325 45.3384L0.858887 156.464Z" fill="#F45916"/>
<path d="M0.858887 131.767V156.464L193.325 45.3385V20.6489L0.858887 131.767Z" fill="#FDB50F"/>
<path d="M0.858887 156.464V131.767L22.2415 119.422V144.112L0.858887 156.464Z" fill="#675EF1"/>
<path d="M0.858887 156.464L22.2415 144.111L43.6317 156.464L22.2415 168.808L0.858887 156.464Z" fill="#37379B"/>
<path d="M22.2412 119.422L32.9363 113.246V137.943L22.2412 144.112V119.422Z" fill="white"/>
<path d="M54.319 150.288L32.9363 137.943L22.2412 144.112L43.6314 156.464L54.319 150.288Z" fill="#B5B5B5"/>
<path d="M193.325 20.6489H236.098L193.325 45.3385V20.6489Z" fill="#F9C4AA"/>
<path d="M214.708 57.6832L236.098 20.6489L193.325 45.3385L214.708 57.6832Z" fill="#BC7D64"/>
<path d="M214.708 20.6489V32.9937L225.403 39.1623L236.098 20.6489H214.708Z" fill="#211E1D"/>
<g filter="url(#filter0_f_579_358)">
<ellipse cx="115.641" cy="96.3412" rx="39.9391" ry="39.1297" fill="#192044" fill-opacity="0.64"/>
</g>
<path d="M56.25 12.8979V37.5951L61.164 40.4322V65.1217L69.7381 69.5688V94.2659L77.6326 99.3266V124.024L88.7461 130.436V155.133L110.965 143.267V159.742L121.443 164.174V174.694L133.885 181.191L155.579 169.022L143.644 162.13V147.816L132.675 141.632V131.143L154.141 118.806V104.423L132.774 92.1844V81.9009L108.912 67.9969V56.3823L87.5443 44.2201V36.226L67.3102 24.5962V19.3175L56.25 12.8979Z" fill="#675EF1"/>
<path d="M56.25 12.898L77.6326 0.553223L88.6929 6.97281L67.3102 19.3176L56.25 12.898Z" fill="#FDB50F"/>
<path d="M67.311 24.5966V19.3179L88.6937 6.97314V12.2518L67.311 24.5966Z" fill="#F45916"/>
<path d="M67.311 24.5957L88.6937 12.251L108.935 23.8808L87.545 36.2255L67.311 24.5957Z" fill="#FDB50F"/>
<path d="M87.5454 44.2198L108.936 31.875L130.295 44.0372L108.913 56.382L87.5454 44.2198Z" fill="#FDB50F"/>
<path d="M108.913 67.9966L130.295 55.6519L154.158 69.5483L132.775 81.9007L108.913 67.9966Z" fill="#FDB50F"/>
<path d="M132.775 92.1846L154.158 79.8398L175.525 92.0781L154.142 104.423L132.775 92.1846Z" fill="#FDB50F"/>
<path d="M132.676 141.632L154.066 129.287L165.028 135.471L143.645 147.816L132.676 141.632Z" fill="#FDB50F"/>
<path d="M143.645 162.13L165.028 149.785L176.97 156.676L155.58 169.021L143.645 162.13Z" fill="#FDB50F"/>
<path d="M87.5454 36.2261L108.936 23.8813V31.8754L87.5454 44.2202V36.2261Z" fill="#F45916"/>
<path d="M108.913 56.3819L130.295 44.0371V55.6517L108.913 67.9965V56.3819Z" fill="#F45916"/>
<path d="M132.775 81.9007L154.158 69.5483V79.8395L132.775 92.1842V81.9007Z" fill="#F45916"/>
<path d="M154.143 104.423L175.525 92.0781V106.461L154.143 118.806V104.423Z" fill="#F45916"/>
<path d="M132.676 131.143L154.143 118.806L154.067 129.287L132.676 141.632V131.143Z" fill="#F45916"/>
<path d="M143.645 147.815L165.028 135.47V149.785L143.645 162.13V147.815Z" fill="#F45916"/>
<defs>
<filter id="filter0_f_579_358" x="33.3859" y="14.8957" width="164.51" height="162.891" filterUnits="userSpaceOnUse" color-interpolation-filters="sRGB">
<feFlood flood-opacity="0" result="BackgroundImageFix"/>
<feBlend mode="normal" in="SourceGraphic" in2="BackgroundImageFix" result="shape"/>
<feGaussianBlur stdDeviation="21.1579" result="effect1_foregroundBlur_579_358"/>
</filter>
</defs>
</svg>
