<svg width="204" height="309" viewBox="0 0 204 309" fill="none" xmlns="http://www.w3.org/2000/svg">
<rect width="117.363" height="117.363" transform="matrix(0.866025 0.5 -0.866025 0.5 102.261 143.419)" fill="#FDB50F"/>
<rect width="117.363" height="47.8214" transform="matrix(0.866025 -0.5 2.20305e-08 1 102.261 260.783)" fill="#F45916"/>
<rect width="117.363" height="47.8217" transform="matrix(0.866025 0.5 -2.20305e-08 1 0.621582 202.101)" fill="#675EF1"/>
<path d="M169.324 39.4251L119.027 10.3882L102.263 20.0672L85.4935 10.3882L35.1963 39.4251L51.966 49.11L35.1963 58.789L85.4935 87.8319L102.263 78.147L119.027 87.8319L169.324 58.789L152.561 49.11L169.324 39.4251ZM135.791 58.789L119.027 68.468L102.263 58.789L85.4935 68.468L68.7298 58.789L85.4935 49.11L68.7298 39.4251L85.4935 29.7461L102.263 39.4251L119.027 29.7461L135.791 39.4251L119.027 49.11L135.791 58.789Z" fill="#FDB50F"/>
<path d="M102.265 78.1455V136.231L119.035 145.91L119.029 87.8304L102.265 78.1455Z" fill="#675EF1"/>
<path d="M35.1963 58.7891V116.875L85.4995 145.912L85.4935 87.8319L35.1963 58.7891Z" fill="#675EF1"/>
<path d="M35.1963 39.4243V58.7882L51.966 49.1093L35.1963 39.4243Z" fill="#675EF1"/>
<path d="M68.738 136.231L68.732 155.595L51.9683 145.91V126.552L68.738 136.231Z" fill="#675EF1"/>
<path d="M135.796 136.232V155.596L119.032 145.911L135.796 136.232Z" fill="#675EF1"/>
<path d="M169.325 58.7891L119.028 87.8319L119.034 145.912L135.798 136.233V155.597L152.561 145.912V126.554L169.331 116.875L169.325 58.7891Z" fill="#F45916"/>
<path d="M102.262 78.1455L85.4922 87.8304L85.4982 145.91L102.262 136.231V78.1455Z" fill="#F45916"/>
<path d="M68.73 155.596L85.4997 145.911L68.7359 136.232L68.73 155.596Z" fill="#F45916"/>
<path d="M169.321 39.4243L152.563 49.1093L169.321 58.7882V39.4243Z" fill="#F45916"/>
<path d="M102.265 39.4261V58.79L119.029 68.4689V29.7471L102.265 39.4261Z" fill="#F45916"/>
<path d="M85.4937 29.7471V49.111L68.73 39.4261L85.4937 29.7471Z" fill="#F45916"/>
<path d="M85.4937 68.4673L68.73 58.7884L85.4937 49.1094V68.4673Z" fill="#F45916"/>
<path d="M85.4922 29.7471L102.262 39.4261V58.79L85.4922 68.4689V29.7471Z" fill="#675EF1"/>
<path d="M119.028 29.7471V49.111L135.792 39.4261L119.028 29.7471Z" fill="#675EF1"/>
<path d="M119.028 68.4673V49.1094L135.792 58.7884L119.028 68.4673Z" fill="#675EF1"/>
<path d="M85.5005 145.911V184.638L102.264 194.317V136.232L85.5005 145.911Z" fill="#675EF1"/>
<path d="M119.029 184.638L119.035 145.911L102.265 136.232V194.317L119.029 184.638Z" fill="#F45916"/>
<path d="M119.029 184.639L102.266 194.318L85.5018 184.639L85.4958 165.275L51.9683 184.639L102.266 213.676L152.563 184.639L119.035 165.275L119.029 184.639Z" fill="#FDB50F"/>
<path d="M51.9683 184.64V203.998L102.266 233.04V213.677L51.9683 184.64Z" fill="#675EF1"/>
<path d="M152.562 203.998V184.64L102.265 213.677V233.04L152.562 203.998Z" fill="#F45916"/>
<path d="M51.9661 68.4734L18.4326 87.8313L35.2023 97.5163L68.7239 78.1464L51.9661 68.4734Z" fill="#FDB50F"/>
<path d="M18.4326 87.8303V145.916L35.1964 155.595L35.2023 97.5153L18.4326 87.8303Z" fill="#675EF1"/>
<path d="M51.966 107.188L68.7238 97.5154V78.1455L35.2022 97.5154L35.1963 155.595L68.7358 136.231V116.867L51.966 126.552V107.188Z" fill="#F45916"/>
<path d="M68.7356 116.869L51.9658 107.19V126.554L68.7356 116.869Z" fill="#FDB50F"/>
<path d="M135.797 20.0665L169.33 0.708496L186.094 10.3875L152.567 29.7454L135.797 20.0665Z" fill="#FDB50F"/>
<path d="M152.569 29.7454L186.096 10.3875V68.4673L169.333 78.1522L169.327 39.4244L152.569 29.7454Z" fill="#F45916"/>
</svg>
