<svg width="285" height="196" viewBox="0 0 285 196" fill="none" xmlns="http://www.w3.org/2000/svg">
<path d="M0.0683594 61.8477V102.832L159.778 195.047V154.062L0.0683594 61.8477Z" fill="#675EF1"/>
<path d="M159.778 154.061L266.251 92.5874V133.572L159.778 195.046V154.061Z" fill="#F45916"/>
<path d="M0.0683594 61.8475L106.542 0.367188L266.252 92.5876L159.778 154.062L0.0683594 61.8475Z" fill="#FDB50F"/>
<path d="M53.3047 72.0922V51.5967L88.7979 72.0922V92.5878L53.3047 72.0922Z" fill="#675EF1"/>
<path d="M53.3047 31.1074V51.5966L71.0481 41.352L53.3047 31.1074Z" fill="#675EF1"/>
<path d="M106.542 61.8477V82.3369L124.285 92.5878V72.0923L106.542 61.8477Z" fill="#675EF1"/>
<path d="M124.292 92.5874L124.286 113.077L142.035 123.321V102.832L124.292 92.5874Z" fill="#675EF1"/>
<path d="M195.271 72.092V92.5813L213.015 102.832V82.3367L195.271 72.092Z" fill="#675EF1"/>
<path d="M88.7983 72.0923L106.542 61.8477V82.3369L88.7983 92.5878V72.0923Z" fill="#675EF1"/>
<path d="M124.286 72.0922L159.779 51.5967V72.0922L124.292 92.5878L124.286 72.0922Z" fill="#F45916"/>
<path d="M142.035 103.369L177.528 82.8733V103.369L142.035 123.858V103.369Z" fill="#F45916"/>
<path d="M213.016 82.3367L230.759 72.092L230.765 92.5876L213.016 102.832V82.3367Z" fill="#F45916"/>
<path d="M142.035 41.352L159.779 31.1074V51.5966L142.035 41.352Z" fill="#F45916"/>
<path d="M88.7983 41.352L106.542 31.1074L124.285 41.352L106.542 51.5966L88.7983 41.352Z" fill="#F45916"/>
<path d="M195.271 51.5968L266.252 10.6121L284.001 20.863L213.015 61.8477L195.271 51.5968Z" fill="url(#paint0_linear_579_963)"/>
<path d="M284.002 41.3518V20.8625L213.016 61.8473L230.759 72.0919L284.002 41.3518Z" fill="url(#paint1_linear_579_963)"/>
<defs>
<linearGradient id="paint0_linear_579_963" x1="212.178" y1="61.8477" x2="255.215" y2="16.1497" gradientUnits="userSpaceOnUse">
<stop stop-color="#675EF1"/>
<stop offset="1" stop-color="#675EF1" stop-opacity="0"/>
</linearGradient>
<linearGradient id="paint1_linear_579_963" x1="218.772" y1="76.5401" x2="274.998" y2="41.833" gradientUnits="userSpaceOnUse">
<stop offset="0.07445" stop-color="#675EF1"/>
<stop offset="1" stop-color="#675EF1" stop-opacity="0"/>
</linearGradient>
</defs>
</svg>
