<svg width="478" height="334" viewBox="0 0 478 334" fill="none" xmlns="http://www.w3.org/2000/svg">
<rect width="120.196" height="120.196" transform="matrix(0.866025 0.5 -2.20305e-08 1 138.958 88.2393)" fill="#2A66DF"/>
<rect width="98.757" height="10.7195" transform="matrix(0.866025 0.5 -2.20305e-08 1 148.243 192.356)" fill="#FEB600"/>
<path d="M148.243 104.319V203.076L157.526 197.717V109.679L148.243 104.319Z" fill="#F65800"/>
<rect width="120.196" height="120.196" transform="matrix(0.866025 -0.5 2.20305e-08 1 243.051 148.338)" fill="#F65800"/>
<rect width="120.196" height="120.196" transform="matrix(0.866025 -0.5 0.866025 0.5 138.958 88.2393)" fill="#FEB600"/>
<path fill-rule="evenodd" clip-rule="evenodd" d="M252.335 241.734L252.335 252.454L337.861 203.075V192.356L252.335 241.734Z" fill="#FEB600"/>
<path fill-rule="evenodd" clip-rule="evenodd" d="M252.335 44.2201L243.052 38.8604L157.525 88.2393L166.808 93.599L252.335 44.2201Z" fill="#F65800"/>
<path fill-rule="evenodd" clip-rule="evenodd" d="M319.294 93.5986L243.052 49.5803L243.052 38.8608L328.577 88.2389L319.294 93.5986Z" fill="#2A66DF"/>
<path d="M328.578 197.716V109.678L337.861 104.318V203.075L328.578 197.716Z" fill="#2A66DF"/>
<path d="M200.041 90.8202L209.691 96.3913L238.639 79.6779L228.99 74.1067L200.041 90.8202ZM248.289 85.249L257.938 79.6779L248.289 74.1067L238.639 79.6779L248.289 85.249ZM228.99 96.3913L238.639 101.962L257.938 90.8202L248.289 85.249L228.99 96.3913ZM257.938 113.105L267.588 107.534L257.938 101.962L248.289 107.534L257.938 113.105Z" fill="#F65800"/>
<path d="M270.995 160.783L270.995 171.925L299.944 155.212L299.944 144.069L270.995 160.783ZM299.944 166.354L309.593 160.783L309.593 149.641L299.944 155.212L299.944 166.354ZM280.645 177.496L280.645 188.639L299.944 177.496L299.944 166.354L280.645 177.496ZM280.645 210.923L290.294 205.352L290.294 194.21L280.645 199.781L280.645 210.923Z" fill="#675EF1"/>
<path d="M179.29 139.238L179.29 150.38L208.239 167.094L208.239 155.952L179.29 139.238ZM208.239 178.236L217.889 183.807L217.889 172.665L208.239 167.094L208.239 178.236ZM188.94 167.094L188.94 178.236L208.239 189.378L208.239 178.236L188.94 167.094ZM188.94 200.521L198.589 206.092L198.589 194.95L188.94 189.378L188.94 200.521Z" fill="#FEB600"/>
<rect width="42.8607" height="42.8607" transform="matrix(0.866025 0.5 -2.20305e-08 1 403.753 219.392)" fill="#2A66DF"/>
<rect width="35.2159" height="3.82246" transform="matrix(0.866025 0.5 -2.20305e-08 1 407.064 256.52)" fill="#FEB600"/>
<path d="M407.064 225.126V260.342L410.375 258.431V227.038L407.064 225.126Z" fill="#F65800"/>
<rect width="42.8607" height="42.8607" transform="matrix(0.866025 -0.5 2.20305e-08 1 440.872 240.823)" fill="#F65800"/>
<rect width="42.8607" height="42.8607" transform="matrix(0.866025 -0.5 0.866025 0.5 403.753 219.392)" fill="#FEB600"/>
<path fill-rule="evenodd" clip-rule="evenodd" d="M444.183 274.128L444.183 277.951L474.68 260.343V256.52L444.183 274.128Z" fill="#FEB600"/>
<path fill-rule="evenodd" clip-rule="evenodd" d="M444.182 203.695L440.871 201.784L410.374 219.392L413.685 221.303L444.182 203.695Z" fill="#F65800"/>
<path fill-rule="evenodd" clip-rule="evenodd" d="M468.058 221.303L440.872 205.607V201.784L471.369 219.392L468.058 221.303Z" fill="#2A66DF"/>
<path d="M471.37 258.431V227.038L474.68 225.126V260.342L471.37 258.431Z" fill="#2A66DF"/>
<path d="M425.085 220.038L428.526 222.024L438.849 216.065L435.408 214.078L425.085 220.038ZM442.289 218.051L445.73 216.065L442.289 214.078L438.849 216.065L442.289 218.051ZM435.408 222.024L438.849 224.011L445.73 220.038L442.289 218.051L435.408 222.024ZM445.73 227.984L449.171 225.998L445.73 224.011L442.289 225.998L445.73 227.984Z" fill="#F65800"/>
<path d="M450.85 244.718L450.85 248.691L461.173 242.731L461.173 238.758L450.85 244.718ZM461.173 246.704L464.614 244.718L464.614 240.744L461.173 242.731L461.173 246.704ZM454.291 250.677L454.291 254.651L461.173 250.677L461.173 246.704L454.291 250.677ZM454.291 262.597L457.732 260.61L457.732 256.637L454.291 258.624L454.291 262.597Z" fill="#675EF1"/>
<path d="M418.149 237.051L418.149 241.024L428.472 246.984L428.472 243.011L418.149 237.051ZM428.472 250.957L431.912 252.944L431.912 248.971L428.472 246.984L428.472 250.957ZM421.59 246.984L421.59 250.957L428.472 254.931L428.472 250.957L421.59 246.984ZM421.59 258.904L425.031 260.89L425.031 256.917L421.59 254.931L421.59 258.904Z" fill="#FEB600"/>
<rect width="27.5869" height="27.5869" transform="matrix(0.866025 0.5 -2.20305e-08 1 374.531 46.8589)" fill="#2A66DF"/>
<rect width="22.6663" height="2.46029" transform="matrix(0.866025 0.5 -2.20305e-08 1 376.663 70.7554)" fill="#FEB600"/>
<path d="M376.663 50.5493V73.2157L378.793 71.9856V51.7794L376.663 50.5493Z" fill="#F65800"/>
<rect width="27.5869" height="27.5869" transform="matrix(0.866025 -0.5 2.20305e-08 1 398.422 60.6528)" fill="#F65800"/>
<rect width="27.5869" height="27.5869" transform="matrix(0.866025 -0.5 0.866025 0.5 374.531 46.8589)" fill="#FEB600"/>
<path fill-rule="evenodd" clip-rule="evenodd" d="M400.553 82.0881V84.5484L420.183 73.2152V70.7549L400.553 82.0881Z" fill="#FEB600"/>
<path fill-rule="evenodd" clip-rule="evenodd" d="M400.553 36.7553L398.422 35.5251L378.793 46.8583L380.923 48.0884L400.553 36.7553Z" fill="#F65800"/>
<path fill-rule="evenodd" clip-rule="evenodd" d="M398.422 35.5254V37.9857L415.921 48.0887L418.052 46.8586L398.422 35.5254Z" fill="#2A66DF"/>
<path d="M418.052 71.9856V51.7795L420.183 50.5493V73.2156L418.052 71.9856Z" fill="#2A66DF"/>
<path d="M388.486 47.3404L390.701 48.6191L397.345 44.7831L395.13 43.5044L388.486 47.3404ZM399.56 46.0618L401.775 44.7831L399.56 43.5044L397.345 44.7831L399.56 46.0618ZM395.13 48.6191L397.345 49.8978L401.775 47.3404L399.56 46.0618L395.13 48.6191ZM401.775 52.4551L403.989 51.1764L401.775 49.8978L399.56 51.1764L401.775 52.4551Z" fill="#F65800"/>
<path d="M404.9 63.324L404.9 65.8814L411.544 62.0454L411.544 59.488L404.9 63.324ZM411.544 64.6027L413.759 63.324L413.759 60.7667L411.544 62.0454L411.544 64.6027ZM407.115 67.1601L407.115 69.7174L411.544 67.1601L411.544 64.6027L407.115 67.1601ZM407.115 74.8321L409.329 73.5534L409.329 70.9961L407.115 72.2747L407.115 74.8321Z" fill="#675EF1"/>
<path d="M383.852 58.4522L383.852 61.0095L390.496 64.8455L390.496 62.2882L383.852 58.4522ZM390.496 67.4029L392.711 68.6815L392.711 66.1242L390.496 64.8455L390.496 67.4029ZM386.067 64.8455L386.067 67.4029L390.496 69.9602L390.496 67.4029L386.067 64.8455ZM386.067 72.5175L388.282 73.7962L388.282 71.2389L386.067 69.9602L386.067 72.5175Z" fill="#FEB600"/>
<rect width="37.9992" height="37.9992" transform="matrix(0.866025 0.5 -2.20305e-08 1 49.4634 19.8608)" fill="#2A66DF"/>
<rect width="31.2215" height="3.3889" transform="matrix(0.866025 0.5 -2.20305e-08 1 52.3984 52.7769)" fill="#FEB600"/>
<path d="M52.3984 24.9443V56.1659L55.3333 54.4716V26.6388L52.3984 24.9443Z" fill="#F65800"/>
<rect width="37.9992" height="37.9992" transform="matrix(0.866025 -0.5 2.20305e-08 1 82.3711 38.8604)" fill="#F65800"/>
<rect width="37.9992" height="37.9992" transform="matrix(0.866025 -0.5 0.866025 0.5 49.4634 19.8608)" fill="#FEB600"/>
<path fill-rule="evenodd" clip-rule="evenodd" d="M85.3056 68.388L85.3056 71.7769L112.344 56.1661V52.7772L85.3056 68.388Z" fill="#FEB600"/>
<path fill-rule="evenodd" clip-rule="evenodd" d="M85.3063 5.94405L82.3715 4.2496L55.3328 19.8604L58.2677 21.5548L85.3063 5.94405Z" fill="#F65800"/>
<path fill-rule="evenodd" clip-rule="evenodd" d="M106.475 21.5553L82.3711 7.6389V4.25L109.41 19.8608L106.475 21.5553Z" fill="#2A66DF"/>
<path d="M109.411 54.4714V26.6388L112.345 24.9443V56.1658L109.411 54.4714Z" fill="#2A66DF"/>
<path d="M69.0184 20.67L72.0691 22.4313L81.221 17.1474L78.1704 15.3862L69.0184 20.67ZM84.2716 18.9087L87.3223 17.1474L84.2716 15.3862L81.221 17.1474L84.2716 18.9087ZM78.1704 22.4313L81.221 24.1926L87.3223 20.67L84.2716 18.9087L78.1704 22.4313ZM87.3223 27.7152L90.3729 25.9539L87.3223 24.1926L84.2716 25.9539L87.3223 27.7152Z" fill="#F65800"/>
<path d="M91.3341 42.8558L91.3341 46.3783L100.486 41.0945L100.486 37.5719L91.3341 42.8558ZM100.486 44.6171L103.537 42.8558L103.537 39.3332L100.486 41.0945L100.486 44.6171ZM94.3848 48.1396L94.3848 51.6622L100.486 48.1396L100.486 44.6171L94.3848 48.1396ZM94.3848 58.7074L97.4354 56.9461L97.4354 53.4235L94.3848 55.1848L94.3848 58.7074Z" fill="#675EF1"/>
<path d="M62.3419 36.1924L62.3419 39.715L71.4939 44.9988L71.4939 41.4763L62.3419 36.1924ZM71.4939 48.5214L74.5445 50.2827L74.5445 46.7601L71.4939 44.9988L71.4939 48.5214ZM65.3926 44.9988L65.3926 48.5214L71.4939 52.044L71.4939 48.5214L65.3926 44.9988ZM65.3926 55.5666L68.4432 57.3279L68.4432 53.8053L65.3926 52.044L65.3926 55.5666Z" fill="#FEB600"/>
<rect width="70.6484" height="70.6484" transform="matrix(0.866025 0.5 -2.20305e-08 1 0.991211 227.682)" fill="#2A66DF"/>
<rect width="58.0472" height="6.30066" transform="matrix(0.866025 0.5 -2.20305e-08 1 6.44873 288.879)" fill="#FEB600"/>
<path d="M6.44873 237.133V295.18L11.9052 292.03V240.283L6.44873 237.133Z" fill="#F65800"/>
<rect width="70.6484" height="70.6484" transform="matrix(0.866025 -0.5 2.20305e-08 1 62.1748 263.008)" fill="#F65800"/>
<rect width="70.6484" height="70.6484" transform="matrix(0.866025 -0.5 0.866025 0.5 0.991211 227.682)" fill="#FEB600"/>
<path fill-rule="evenodd" clip-rule="evenodd" d="M67.6307 317.902L67.6307 324.202L117.901 295.179V288.878L67.6307 317.902Z" fill="#FEB600"/>
<path fill-rule="evenodd" clip-rule="evenodd" d="M67.6315 201.807L62.175 198.657L11.9053 227.68L17.3618 230.83L67.6315 201.807Z" fill="#F65800"/>
<path fill-rule="evenodd" clip-rule="evenodd" d="M106.989 230.831L62.1748 204.957L62.1748 198.656L112.446 227.68L106.989 230.831Z" fill="#2A66DF"/>
<path d="M112.445 292.03V240.283L117.902 237.133V295.18L112.445 292.03Z" fill="#2A66DF"/>
<path d="M37.1106 229.281L42.7824 232.555L59.7977 222.732L54.1259 219.457L37.1106 229.281ZM65.4695 226.006L71.1412 222.732L65.4695 219.457L59.7977 222.732L65.4695 226.006ZM54.1259 232.555L59.7977 235.83L71.1412 229.281L65.4695 226.006L54.1259 232.555ZM71.1412 242.379L76.813 239.105L71.1412 235.83L65.4695 239.105L71.1412 242.379Z" fill="#F65800"/>
<path d="M78.6359 270.507L78.6359 277.057L95.6512 267.233L95.6512 260.684L78.6359 270.507ZM95.6512 273.782L101.323 270.507L101.323 263.958L95.6512 267.233L95.6512 273.782ZM84.3076 280.331L84.3076 286.88L95.6512 280.331L95.6512 273.782L84.3076 280.331ZM84.3076 299.979L89.9794 296.704L89.9794 290.155L84.3076 293.43L84.3076 299.979Z" fill="#675EF1"/>
<path d="M24.734 257.886L24.734 264.436L41.7493 274.259L41.7493 267.71L24.734 257.886ZM41.7493 280.809L47.4211 284.083L47.4211 277.534L41.7493 274.259L41.7493 280.809ZM30.4058 274.259L30.4058 280.809L41.7493 287.358L41.7493 280.809L30.4058 274.259ZM30.4058 293.907L36.0776 297.182L36.0776 290.632L30.4058 287.358L30.4058 293.907Z" fill="#FEB600"/>
</svg>
