<svg width="446" height="280" viewBox="0 0 446 280" fill="none" xmlns="http://www.w3.org/2000/svg">
<path d="M320.8 0.203125L20.1735 173.789L124.74 234.167L425.371 60.5811L320.8 0.203125Z" fill="#FEB600"/>
<path d="M124.762 264.352L124.758 234.163L425.396 60.5752V90.7641L124.762 264.352Z" fill="#F65800"/>
<path d="M20.1735 203.977V173.788L124.74 234.165L124.745 264.354L20.1735 203.977Z" fill="#675EF1"/>
<path d="M46.3278 173.786L59.4022 181.332L320.827 30.3827V15.2905L46.3278 173.786Z" fill="#F65800"/>
<path d="M399.268 60.5717L386.194 68.1224L320.841 30.3827V15.2905L399.268 60.5717Z" fill="#675EF1"/>
<path d="M137.842 241.71L150.912 234.164L177.056 249.256L163.986 256.806L137.842 241.71Z" fill="#675EF1"/>
<path d="M163.964 271.902V256.81L177.034 249.259V264.356L163.964 271.902Z" fill="#675EF1"/>
<path d="M163.964 226.62L177.039 219.069L203.183 234.166L190.108 241.712L163.964 226.62Z" fill="#675EF1"/>
<path d="M190.119 256.806V241.71L203.193 234.164V249.256L190.119 256.806Z" fill="#675EF1"/>
<path d="M190.119 211.52L203.193 203.974L229.332 219.066L216.263 226.617L190.119 211.52Z" fill="#675EF1"/>
<path d="M216.256 241.712V226.62L229.326 219.069V234.166L216.256 241.712Z" fill="#675EF1"/>
<path d="M216.256 196.424L229.326 188.878L255.47 203.975L242.4 211.521L216.256 196.424Z" fill="#675EF1"/>
<path d="M242.411 226.617V211.52L255.481 203.974V219.066L242.411 226.617Z" fill="#675EF1"/>
<path d="M242.411 181.334L255.481 173.788L281.624 188.88L268.55 196.426L242.411 181.334Z" fill="#675EF1"/>
<path d="M268.549 211.521V196.424L281.623 188.878V203.975L268.549 211.521Z" fill="#675EF1"/>
<path d="M268.549 166.235L281.623 158.689L307.762 173.786L294.692 181.332L268.549 166.235Z" fill="#675EF1"/>
<path d="M294.686 196.426V181.334L307.756 173.788V188.88L294.686 196.426Z" fill="#675EF1"/>
<path d="M294.686 151.144L307.756 143.598L333.9 158.69L320.83 166.236L294.686 151.144Z" fill="#675EF1"/>
<path d="M320.841 181.332V166.235L333.91 158.689V173.786L320.841 181.332Z" fill="#675EF1"/>
<path d="M320.841 136.049L333.91 128.503L360.054 143.595L346.98 151.146L320.841 136.049Z" fill="#675EF1"/>
<path d="M346.978 166.237V151.144L360.053 143.594V158.691L346.978 166.237Z" fill="#675EF1"/>
<path d="M346.978 120.955L360.053 113.404L386.192 128.501L373.122 136.047L346.978 120.955Z" fill="#675EF1"/>
<path d="M373.133 151.146V136.049L386.203 128.503V143.595L373.133 151.146Z" fill="#675EF1"/>
<path d="M373.133 105.855L386.203 98.3086L412.347 113.401L399.277 120.951L373.133 105.855Z" fill="#675EF1"/>
<path d="M399.255 136.047V120.955L412.324 113.404V128.501L399.255 136.047Z" fill="#675EF1"/>
<path d="M399.255 90.7685L412.324 83.2178L438.468 98.3146L425.394 105.861L399.255 90.7685Z" fill="#675EF1"/>
<path d="M425.409 120.951V105.855L438.483 98.3086V113.401L425.409 120.951Z" fill="#675EF1"/>
<path d="M33.2644 166.235L20.1948 158.689L7.12048 166.235L20.1948 173.786L33.2644 166.235Z" fill="#675EF1"/>
<path d="M7.12048 166.234V151.137L20.1948 158.688L7.12048 166.234Z" fill="#675EF1"/>
<path d="M438.445 113.41L438.445 128.506L425.371 120.956L438.445 113.41Z" fill="#675EF1"/>
<path d="M59.4187 151.144L46.3444 143.598L33.2748 151.144L46.3444 158.69L59.4187 151.144Z" fill="#675EF1"/>
<path d="M85.552 136.049L72.4822 128.503L59.4126 136.049L72.4822 143.6L85.552 136.049Z" fill="#675EF1"/>
<path d="M59.4126 136.048V120.951L72.4822 128.502L59.4126 136.048Z" fill="#675EF1"/>
<path d="M386.153 143.6L386.153 158.697L373.084 151.146L386.153 143.6Z" fill="#675EF1"/>
<path d="M111.69 120.955L98.6199 113.404L85.5504 120.955L98.6199 128.501L111.69 120.955Z" fill="#675EF1"/>
<path d="M137.849 105.855L124.779 98.3086L111.705 105.855L124.779 113.401L137.849 105.855Z" fill="#675EF1"/>
<path d="M111.705 105.854V90.7573L124.779 98.3034L111.705 105.854Z" fill="#675EF1"/>
<path d="M333.861 173.79L333.861 188.887L320.787 181.341L333.861 173.79Z" fill="#675EF1"/>
<path d="M163.986 90.7685L150.912 83.2178L137.842 90.7685L150.912 98.3146L163.986 90.7685Z" fill="#675EF1"/>
<path d="M190.104 75.6686L177.034 68.1226L163.964 75.6686L177.034 83.2147L190.104 75.6686Z" fill="#675EF1"/>
<path d="M163.964 75.672L163.969 60.5752L177.039 68.1213L163.964 75.672Z" fill="#675EF1"/>
<path d="M281.602 203.976L281.597 219.073L268.527 211.527L281.602 203.976Z" fill="#675EF1"/>
<path d="M216.263 60.5781L203.193 53.0273L190.119 60.5781L203.193 68.1241L216.263 60.5781Z" fill="#675EF1"/>
<path d="M242.4 45.4793L229.326 37.9331L216.256 45.4793L229.326 53.0254L242.4 45.4793Z" fill="#675EF1"/>
<path d="M216.256 45.4769V30.3848L229.326 37.9308L216.256 45.4769Z" fill="#675EF1"/>
<path d="M229.31 234.171L229.31 249.263L216.24 241.717L229.31 234.171Z" fill="#675EF1"/>
<path d="M268.55 30.384L255.481 22.8379L242.411 30.384L255.481 37.9347L268.55 30.384Z" fill="#675EF1"/>
<path d="M294.692 15.2927L281.623 7.74658L268.549 15.2927L281.623 22.8387L294.692 15.2927Z" fill="#675EF1"/>
<path d="M268.549 15.2953V0.203125L281.623 7.74919L268.549 15.2953Z" fill="#675EF1"/>
<path d="M177.017 264.349L177.017 279.441L163.943 271.895L177.017 264.349Z" fill="#675EF1"/>
<rect x="0.00952148" y="151.137" width="7.11107" height="15.097" fill="#675EF1"/>
<rect x="445.605" y="128.491" width="7.11107" height="15.097" transform="rotate(-180 445.605 128.491)" fill="#675EF1"/>
<rect x="0.00952148" y="120.947" width="59.4031" height="15.097" fill="#675EF1"/>
<rect x="445.605" y="158.689" width="59.4031" height="15.097" transform="rotate(-180 445.605 158.689)" fill="#675EF1"/>
<rect x="0.00952148" y="90.7651" width="111.679" height="15.097" fill="#675EF1"/>
<rect x="445.605" y="188.863" width="111.679" height="15.097" transform="rotate(-180 445.605 188.863)" fill="#675EF1"/>
<rect x="0.00952148" y="60.5752" width="163.939" height="15.097" fill="#675EF1"/>
<rect x="445.605" y="219.053" width="163.939" height="15.097" transform="rotate(-180 445.605 219.053)" fill="#675EF1"/>
<rect x="0.00952148" y="30.3848" width="216.247" height="15.097" fill="#675EF1"/>
<rect x="445.605" y="249.243" width="216.247" height="15.097" transform="rotate(-180 445.605 249.243)" fill="#675EF1"/>
<rect x="0.00927734" y="0.203125" width="268.539" height="15.097" fill="#675EF1"/>
<rect x="445.605" y="279.429" width="268.539" height="15.097" transform="rotate(-180 445.605 279.429)" fill="#675EF1"/>
<path d="M133.311 177.594L117.115 186.945L100.919 177.594L92.8213 182.27L133.311 205.646L141.409 200.971L125.213 191.62L141.409 182.27L157.605 191.62L165.703 186.945L125.213 163.568L117.115 168.243L133.311 177.594Z" fill="#675EF1"/>
<path d="M173.736 172.881L189.932 163.531L173.866 154.255L157.67 163.605L173.736 172.881ZM157.605 163.568L149.507 158.893L173.801 144.867L206.193 163.568L181.899 177.594L173.801 172.919L165.703 177.594L149.507 168.243L157.605 163.568Z" fill="#675EF1"/>
<path d="M214.291 130.84L206.193 126.165L189.997 135.516L198.095 140.191L214.291 130.84ZM198.095 140.191L189.997 144.867L206.193 154.217L214.291 149.542L198.095 140.191ZM238.585 144.867L230.487 140.191L214.291 149.542L222.389 154.217L238.585 144.867Z" fill="#675EF1"/>
<path d="M246.683 112.139L238.585 116.814L246.683 121.49L238.585 126.165L214.291 112.139L206.193 116.814L246.683 140.191L254.781 135.516L246.683 130.84L262.879 121.49L246.683 112.139ZM246.683 102.788L238.585 107.464L246.683 112.139L254.781 107.464L246.683 102.788ZM279.075 121.49L270.977 116.814L262.879 121.49L270.977 126.165L279.075 121.49Z" fill="#675EF1"/>
<path d="M295.271 112.139L303.369 107.464L270.977 88.7621L279.075 84.0867L270.977 79.4114L246.683 93.4375L254.781 98.1129L262.879 93.4375L295.271 112.139Z" fill="#675EF1"/>
<path d="M295.271 74.736L287.173 70.0606L279.075 74.736L319.565 98.1129L327.663 93.4375L303.369 79.4114L311.467 74.736L303.369 70.0606L295.271 74.736ZM319.565 79.4114L327.663 74.736L319.565 70.0606L311.467 74.736L319.565 79.4114ZM319.565 60.7099L311.467 65.3853L319.565 70.0606L327.663 65.3853L351.957 79.4114L360.055 74.736L319.565 51.3592L311.467 56.0345L319.565 60.7099Z" fill="#675EF1"/>
</svg>
