<svg xmlns="http://www.w3.org/2000/svg" width="721" height="268" fill="none"><path fill="#F9F9F9" d="M76.66 16.192V95.78H57.274V63.015H27.115V95.78H7.73V16.192h19.387V47.37h30.157V16.192H76.66Zm63.54 65.53h-29.704l-4.762 14.058H85.441l28.796-79.588h22.448l28.797 79.588h-20.521L140.2 81.722Zm-4.989-14.965-9.863-29.137-9.75 29.137h19.613Zm35.747-10.884c0-7.86 1.701-14.852 5.102-20.974 3.401-6.198 8.125-10.997 14.172-14.399 6.122-3.476 13.038-5.215 20.747-5.215 9.448 0 17.535 2.494 24.262 7.483 6.727 4.988 11.224 11.79 13.491 20.407h-21.314c-1.587-3.326-3.854-5.858-6.802-7.596-2.872-1.738-6.16-2.608-9.864-2.608-5.971 0-10.808 2.079-14.511 6.236-3.704 4.157-5.556 9.712-5.556 16.666 0 6.953 1.852 12.509 5.556 16.666 3.703 4.157 8.54 6.235 14.511 6.235 3.704 0 6.992-.869 9.864-2.607 2.948-1.739 5.215-4.27 6.802-7.596h21.314c-2.267 8.616-6.764 15.418-13.491 20.407-6.727 4.913-14.814 7.37-24.262 7.37-7.709 0-14.625-1.701-20.747-5.103-6.047-3.477-10.771-8.276-14.172-14.398s-5.102-13.114-5.102-20.974Zm135.79 39.907-26.756-35.145V95.78h-19.387V16.192h19.387v34.92l26.529-34.92h22.788l-30.838 39 31.972 40.588h-23.695Z"/><path stroke="#fff" stroke-width="3.992" d="M70.572 127.18v15.532H49.484v64.056H30.097v-64.056H9.01V127.18h61.562ZM149.232 127.18v79.588h-19.387v-32.765H99.688v32.765H80.301V127.18h19.387v31.178h30.157V127.18h19.387ZM182.614 142.712v16.099h25.963v14.965h-25.963v17.46h29.364v15.532h-48.75V127.18h48.75v15.532h-29.364ZM245.302 166.861c0-7.861 1.7-14.852 5.102-20.974 3.401-6.198 8.125-10.998 14.171-14.399 6.122-3.476 13.038-5.215 20.748-5.215 9.447 0 17.535 2.494 24.261 7.483 6.727 4.988 11.224 11.791 13.492 20.407h-21.314c-1.588-3.326-3.855-5.858-6.803-7.596-2.872-1.738-6.16-2.608-9.863-2.608-5.971 0-10.808 2.079-14.512 6.236-3.703 4.157-5.555 9.712-5.555 16.666 0 6.953 1.852 12.509 5.555 16.666 3.704 4.157 8.541 6.235 14.512 6.235 3.703 0 6.991-.869 9.863-2.607 2.948-1.739 5.215-4.271 6.803-7.596h21.314c-2.268 8.616-6.765 15.418-13.492 20.407-6.726 4.913-14.814 7.369-24.261 7.369-7.71 0-14.626-1.701-20.748-5.102-6.046-3.477-10.77-8.276-14.171-14.398-3.402-6.122-5.102-13.114-5.102-20.974ZM384.492 192.71h-29.704l-4.761 14.058h-20.294l28.797-79.588h22.448l28.796 79.588h-20.52l-4.762-14.058Zm-4.988-14.965-9.864-29.137-9.75 29.137h19.614ZM479.193 152.802c0 4.611-1.058 8.844-3.174 12.698-2.116 3.779-5.366 6.84-9.75 9.183-4.384 2.344-9.826 3.515-16.326 3.515h-12.017v28.57h-19.387V127.18h31.404c6.349 0 11.715 1.096 16.099 3.288 4.384 2.192 7.672 5.215 9.864 9.07 2.191 3.854 3.287 8.276 3.287 13.264Zm-30.724 9.977c3.704 0 6.463-.869 8.276-2.607 1.814-1.739 2.721-4.195 2.721-7.37 0-3.174-.907-5.63-2.721-7.369-1.813-1.738-4.572-2.607-8.276-2.607h-10.543v19.953h10.543ZM508.673 127.18v79.588h-19.387V127.18h19.387ZM579.976 127.18v15.532h-21.087v64.056h-19.387v-64.056h-21.088V127.18h61.562ZM639.25 192.71h-29.704l-4.762 14.058h-20.293l28.796-79.588h22.448l28.797 79.588h-20.521l-4.761-14.058Zm-4.989-14.965-9.863-29.137-9.75 29.137h19.613ZM692.683 191.803h25.396v14.965h-44.783V127.18h19.387v64.623Z"/><path fill="#fff" d="m20.709 237.763 1.575 2.835-4.096 1.481 4.096 1.48-1.638 2.93-3.403-2.804.725 4.348H14.69l.694-4.348-3.371 2.867-1.733-3.024 4.095-1.481-4.063-1.417 1.606-2.899 3.497 2.773-.725-4.379H18l-.756 4.379 3.466-2.741Zm29.883-.378v21.989h-4.41v-14.302l-5.892 14.302h-3.339l-5.922-14.302v14.302h-4.411v-21.989h5.009l6.994 16.35 6.993-16.35h4.978Zm12.11 22.273c-1.68 0-3.192-.368-4.536-1.103a8.272 8.272 0 0 1-3.182-3.182c-.756-1.365-1.134-2.94-1.134-4.725 0-1.786.388-3.361 1.166-4.726a8.207 8.207 0 0 1 3.244-3.15c1.366-.756 2.888-1.134 4.568-1.134 1.68 0 3.203.378 4.568 1.134a7.995 7.995 0 0 1 3.214 3.15c.798 1.365 1.197 2.94 1.197 4.726 0 1.785-.41 3.36-1.229 4.725a8.372 8.372 0 0 1-3.276 3.182c-1.365.735-2.899 1.103-4.6 1.103Zm0-3.844c.798 0 1.544-.189 2.237-.567.714-.399 1.281-.987 1.701-1.764.42-.777.63-1.722.63-2.835 0-1.66-.44-2.93-1.323-3.812-.86-.903-1.922-1.355-3.182-1.355s-2.32.452-3.181 1.355c-.84.882-1.26 2.152-1.26 3.812 0 1.659.409 2.94 1.228 3.843.84.882 1.89 1.323 3.15 1.323Zm16.75-11.184a6.24 6.24 0 0 1 2.206-2.173c.924-.525 1.974-.788 3.15-.788v4.631h-1.166c-1.386 0-2.436.326-3.15.977-.693.651-1.04 1.785-1.04 3.402v8.695h-4.41v-17.453h4.41v2.709Zm24.551 5.64c0 .63-.042 1.197-.126 1.701H91.118c.105 1.26.546 2.247 1.323 2.961.777.714 1.733 1.071 2.867 1.071 1.638 0 2.804-.703 3.497-2.111h4.757c-.504 1.681-1.47 3.067-2.898 4.159-1.429 1.071-3.182 1.607-5.261 1.607-1.68 0-3.193-.368-4.537-1.103-1.323-.756-2.363-1.817-3.119-3.182-.735-1.365-1.102-2.94-1.102-4.725 0-1.807.367-3.392 1.102-4.757.735-1.366 1.764-2.416 3.088-3.151 1.323-.735 2.845-1.102 4.568-1.102 1.659 0 3.14.357 4.441 1.071a7.38 7.38 0 0 1 3.056 3.056c.735 1.302 1.103 2.803 1.103 4.505Zm-4.568-1.261c-.021-1.134-.43-2.037-1.229-2.709-.798-.693-1.774-1.039-2.93-1.039-1.092 0-2.016.336-2.772 1.008-.735.651-1.186 1.564-1.354 2.74h8.285Zm14.16 1.576c0-1.765.346-3.329 1.039-4.694.714-1.366 1.68-2.416 2.899-3.151 1.218-.735 2.572-1.102 4.064-1.102 1.134 0 2.215.252 3.244.756 1.029.483 1.849 1.134 2.458 1.953v-8.285h4.473v23.312h-4.473v-2.583c-.546.861-1.313 1.554-2.3 2.079-.987.525-2.132.788-3.434.788-1.47 0-2.814-.378-4.032-1.135-1.219-.756-2.185-1.816-2.899-3.181-.693-1.387-1.039-2.972-1.039-4.757Zm13.735.063c0-1.072-.21-1.985-.63-2.741-.42-.777-.987-1.365-1.701-1.764a4.46 4.46 0 0 0-2.3-.63c-.819 0-1.575.199-2.268.598-.693.399-1.26.987-1.701 1.764-.42.756-.63 1.659-.63 2.71 0 1.05.21 1.974.63 2.772.441.777 1.008 1.376 1.701 1.796.714.42 1.47.63 2.268.63.819 0 1.586-.2 2.3-.599a4.582 4.582 0 0 0 1.701-1.764c.42-.777.63-1.701.63-2.772Zm24.974-.378c0 .63-.042 1.197-.126 1.701h-12.759c.105 1.26.546 2.247 1.323 2.961.777.714 1.733 1.071 2.867 1.071 1.638 0 2.804-.703 3.497-2.111h4.757c-.504 1.681-1.47 3.067-2.898 4.159-1.429 1.071-3.182 1.607-5.262 1.607-1.68 0-3.192-.368-4.536-1.103-1.323-.756-2.363-1.817-3.119-3.182-.735-1.365-1.102-2.94-1.102-4.725 0-1.807.367-3.392 1.102-4.757.735-1.366 1.764-2.416 3.088-3.151 1.323-.735 2.845-1.102 4.567-1.102 1.66 0 3.14.357 4.442 1.071a7.379 7.379 0 0 1 3.056 3.056c.735 1.302 1.103 2.803 1.103 4.505Zm-4.568-1.261c-.021-1.134-.431-2.037-1.229-2.709-.798-.693-1.774-1.039-2.93-1.039-1.092 0-2.016.336-2.772 1.008-.735.651-1.186 1.564-1.354 2.74h8.285Zm12.922-3.465v8.443c0 .588.137 1.019.41 1.292.294.252.777.378 1.449.378h2.048v3.717h-2.773c-3.717 0-5.576-1.806-5.576-5.419v-8.411h-2.079v-3.623h2.079v-4.316h4.442v4.316h3.907v3.623h-3.907Zm5.945 5.041c0-1.765.346-3.329 1.039-4.694.714-1.366 1.67-2.416 2.867-3.151 1.218-.735 2.573-1.102 4.064-1.102 1.302 0 2.436.262 3.402.787.988.525 1.775 1.187 2.363 1.985v-2.489h4.442v17.453h-4.442v-2.552c-.567.819-1.354 1.502-2.363 2.048-.987.525-2.131.788-3.433.788-1.471 0-2.815-.378-4.033-1.135-1.197-.756-2.153-1.816-2.867-3.181-.693-1.387-1.039-2.972-1.039-4.757Zm13.735.063c0-1.072-.21-1.985-.63-2.741-.42-.777-.987-1.365-1.701-1.764a4.46 4.46 0 0 0-2.3-.63c-.819 0-1.575.199-2.268.598-.693.399-1.26.987-1.701 1.764-.42.756-.63 1.659-.63 2.71 0 1.05.21 1.974.63 2.772.441.777 1.008 1.376 1.701 1.796.714.42 1.47.63 2.268.63.819 0 1.586-.2 2.3-.599a4.582 4.582 0 0 0 1.701-1.764c.42-.777.63-1.701.63-2.772Zm10.986-10.806c-.777 0-1.428-.242-1.953-.725-.504-.504-.756-1.123-.756-1.858 0-.735.252-1.344.756-1.827.525-.505 1.176-.757 1.953-.757.778 0 1.418.252 1.922.757.525.483.788 1.092.788 1.827 0 .735-.263 1.354-.788 1.858-.504.483-1.144.725-1.922.725Zm2.174 2.079v17.453h-4.41v-17.453h4.41Zm8.768-5.859v23.312h-4.41v-23.312h4.41Zm11.036 23.596c-1.428 0-2.709-.252-3.843-.757-1.134-.525-2.037-1.228-2.709-2.11a5.372 5.372 0 0 1-1.071-2.93h4.442c.084.672.409 1.229.976 1.67.588.441 1.313.661 2.174.661.84 0 1.491-.168 1.953-.504.483-.336.725-.766.725-1.291 0-.568-.294-.988-.882-1.261-.567-.294-1.481-.609-2.741-.945-1.302-.315-2.373-.64-3.214-.976a5.712 5.712 0 0 1-2.142-1.544c-.588-.693-.882-1.628-.882-2.804 0-.966.273-1.848.819-2.646.567-.798 1.365-1.428 2.395-1.89 1.05-.462 2.278-.693 3.685-.693 2.08 0 3.739.525 4.978 1.575 1.239 1.029 1.922 2.426 2.048 4.19h-4.222c-.063-.693-.357-1.239-.882-1.638-.504-.42-1.187-.63-2.048-.63-.798 0-1.417.147-1.858.441-.42.294-.63.703-.63 1.228 0 .588.294 1.04.882 1.355.588.294 1.501.598 2.74.913 1.261.315 2.3.641 3.119.977a5.324 5.324 0 0 1 2.111 1.575c.609.693.924 1.617.945 2.773a4.563 4.563 0 0 1-.85 2.709c-.546.798-1.345 1.428-2.395 1.89-1.029.441-2.236.662-3.623.662Zm16.861-9.01c0-1.807.368-3.382 1.103-4.726.735-1.365 1.753-2.415 3.056-3.15 1.302-.756 2.793-1.134 4.473-1.134 2.163 0 3.948.546 5.356 1.638 1.428 1.071 2.383 2.583 2.866 4.536h-4.757c-.252-.756-.682-1.344-1.291-1.764-.588-.441-1.323-.661-2.206-.661-1.26 0-2.257.462-2.992 1.386-.735.903-1.103 2.194-1.103 3.875 0 1.659.368 2.95 1.103 3.875.735.903 1.732 1.354 2.992 1.354 1.786 0 2.951-.798 3.497-2.394h4.757c-.483 1.89-1.438 3.392-2.866 4.505-1.429 1.113-3.214 1.67-5.356 1.67-1.68 0-3.171-.368-4.473-1.103a8.01 8.01 0 0 1-3.056-3.15c-.735-1.366-1.103-2.951-1.103-4.757Zm27.835 9.01c-1.68 0-3.192-.368-4.536-1.103a8.273 8.273 0 0 1-3.182-3.182c-.756-1.365-1.134-2.94-1.134-4.725 0-1.786.388-3.361 1.165-4.726a8.214 8.214 0 0 1 3.245-3.15c1.365-.756 2.888-1.134 4.568-1.134 1.68 0 3.203.378 4.568 1.134a8.004 8.004 0 0 1 3.214 3.15c.798 1.365 1.197 2.94 1.197 4.726 0 1.785-.41 3.36-1.229 4.725a8.372 8.372 0 0 1-3.276 3.182c-1.365.735-2.899 1.103-4.6 1.103Zm0-3.844a4.6 4.6 0 0 0 2.237-.567c.714-.399 1.281-.987 1.701-1.764.42-.777.63-1.722.63-2.835 0-1.66-.441-2.93-1.323-3.812-.861-.903-1.922-1.355-3.182-1.355s-2.321.452-3.182 1.355c-.84.882-1.26 2.152-1.26 3.812 0 1.659.41 2.94 1.229 3.843.84.882 1.89 1.323 3.15 1.323Zm34.014-14.145c2.142 0 3.865.662 5.167 1.985 1.323 1.302 1.984 3.129 1.984 5.481v10.239h-4.41v-9.64c0-1.365-.347-2.405-1.04-3.119-.693-.735-1.638-1.102-2.835-1.102s-2.153.367-2.867 1.102c-.693.714-1.039 1.754-1.039 3.119v9.64h-4.411v-9.64c0-1.365-.346-2.405-1.039-3.119-.693-.735-1.639-1.102-2.836-1.102-1.218 0-2.184.367-2.898 1.102-.693.714-1.04 1.754-1.04 3.119v9.64h-4.41v-17.453h4.41v2.111a5.902 5.902 0 0 1 2.174-1.733c.903-.42 1.89-.63 2.961-.63 1.366 0 2.584.294 3.655.882a5.975 5.975 0 0 1 2.489 2.458c.567-1.009 1.386-1.817 2.457-2.426a7.127 7.127 0 0 1 3.528-.914Zm13.573-1.827c-.777 0-1.428-.242-1.953-.725-.504-.504-.756-1.123-.756-1.858 0-.735.252-1.344.756-1.827.525-.505 1.176-.757 1.953-.757.778 0 1.418.252 1.922.757.525.483.788 1.092.788 1.827 0 .735-.263 1.354-.788 1.858-.504.483-1.144.725-1.922.725Zm2.174 2.079v17.453h-4.41v-17.453h4.41Zm14.029-.252c2.079 0 3.76.662 5.041 1.985 1.281 1.302 1.921 3.129 1.921 5.481v10.239h-4.41v-9.64c0-1.386-.347-2.447-1.04-3.182-.693-.756-1.638-1.134-2.835-1.134-1.218 0-2.184.378-2.898 1.134-.693.735-1.04 1.796-1.04 3.182v9.64h-4.41v-17.453h4.41v2.174a5.98 5.98 0 0 1 2.237-1.764c.924-.441 1.932-.662 3.024-.662Zm17.993-.031c1.302 0 2.447.262 3.434.787.987.504 1.764 1.166 2.331 1.985v-2.489h4.442V259.5c0 1.617-.326 3.056-.977 4.316-.651 1.281-1.627 2.289-2.93 3.024-1.302.756-2.877 1.134-4.725 1.134-2.478 0-4.515-.577-6.112-1.732-1.575-1.155-2.467-2.731-2.677-4.726h4.379c.231.798.724 1.428 1.48 1.89.777.483 1.712.725 2.804.725 1.281 0 2.321-.389 3.119-1.166.798-.756 1.197-1.911 1.197-3.465v-2.709c-.567.819-1.355 1.501-2.363 2.047-.987.547-2.121.82-3.402.82-1.47 0-2.814-.378-4.033-1.135-1.218-.756-2.184-1.816-2.898-3.181-.693-1.387-1.04-2.972-1.04-4.757 0-1.765.347-3.329 1.04-4.694.714-1.366 1.67-2.416 2.867-3.151 1.218-.735 2.573-1.102 4.064-1.102Zm5.765 9.01c0-1.072-.21-1.985-.63-2.741-.42-.777-.987-1.365-1.701-1.764a4.46 4.46 0 0 0-2.3-.63c-.819 0-1.575.199-2.268.598-.693.399-1.26.987-1.701 1.764-.421.756-.631 1.659-.631 2.71 0 1.05.21 1.974.631 2.772.441.777 1.008 1.376 1.701 1.796.714.42 1.47.63 2.268.63.819 0 1.586-.2 2.3-.599a4.582 4.582 0 0 0 1.701-1.764c.42-.777.63-1.701.63-2.772Zm22.935 9.01c-1.428 0-2.709-.252-3.844-.757-1.134-.525-2.037-1.228-2.709-2.11a5.372 5.372 0 0 1-1.071-2.93h4.442c.084.672.41 1.229.977 1.67.588.441 1.312.661 2.173.661.84 0 1.491-.168 1.954-.504.483-.336.724-.766.724-1.291 0-.568-.294-.988-.882-1.261-.567-.294-1.481-.609-2.741-.945-1.302-.315-2.373-.64-3.213-.976a5.712 5.712 0 0 1-2.142-1.544c-.588-.693-.882-1.628-.882-2.804 0-.966.273-1.848.819-2.646.567-.798 1.365-1.428 2.394-1.89 1.05-.462 2.279-.693 3.686-.693 2.079 0 3.738.525 4.977 1.575 1.239 1.029 1.922 2.426 2.048 4.19h-4.221c-.063-.693-.357-1.239-.883-1.638-.504-.42-1.186-.63-2.047-.63-.798 0-1.418.147-1.859.441-.42.294-.63.703-.63 1.228 0 .588.294 1.04.882 1.355.588.294 1.502.598 2.741.913 1.26.315 2.3.641 3.119.977a5.321 5.321 0 0 1 2.11 1.575c.61.693.925 1.617.946 2.773a4.564 4.564 0 0 1-.851 2.709c-.546.798-1.344 1.428-2.394 1.89-1.029.441-2.237.662-3.623.662Zm18.238 0c-1.68 0-3.193-.368-4.537-1.103a8.28 8.28 0 0 1-3.182-3.182c-.756-1.365-1.134-2.94-1.134-4.725 0-1.786.389-3.361 1.166-4.726a8.208 8.208 0 0 1 3.245-3.15c1.365-.756 2.888-1.134 4.568-1.134 1.68 0 3.203.378 4.568 1.134a7.995 7.995 0 0 1 3.213 3.15c.798 1.365 1.197 2.94 1.197 4.726 0 1.785-.409 3.36-1.228 4.725a8.374 8.374 0 0 1-3.277 3.182c-1.365.735-2.898 1.103-4.599 1.103Zm0-3.844c.798 0 1.543-.189 2.237-.567.714-.399 1.281-.987 1.701-1.764.42-.777.63-1.722.63-2.835 0-1.66-.441-2.93-1.323-3.812-.861-.903-1.922-1.355-3.182-1.355s-2.321.452-3.182 1.355c-.84.882-1.26 2.152-1.26 3.812 0 1.659.409 2.94 1.228 3.843.841.882 1.891 1.323 3.151 1.323Zm20.089 3.844c-1.68 0-3.192-.368-4.536-1.103a8.273 8.273 0 0 1-3.182-3.182c-.756-1.365-1.134-2.94-1.134-4.725 0-1.786.388-3.361 1.165-4.726a8.214 8.214 0 0 1 3.245-3.15c1.365-.756 2.888-1.134 4.568-1.134 1.68 0 3.203.378 4.568 1.134a7.997 7.997 0 0 1 3.214 3.15c.798 1.365 1.197 2.94 1.197 4.726 0 1.785-.41 3.36-1.229 4.725a8.372 8.372 0 0 1-3.276 3.182c-1.365.735-2.899 1.103-4.6 1.103Zm0-3.844a4.6 4.6 0 0 0 2.237-.567c.714-.399 1.281-.987 1.701-1.764.42-.777.63-1.722.63-2.835 0-1.66-.441-2.93-1.323-3.812-.861-.903-1.922-1.355-3.182-1.355s-2.32.452-3.182 1.355c-.84.882-1.26 2.152-1.26 3.812 0 1.659.41 2.94 1.229 3.843.84.882 1.89 1.323 3.15 1.323Zm22.011-14.145c2.08 0 3.76.662 5.041 1.985 1.281 1.302 1.922 3.129 1.922 5.481v10.239h-4.411v-9.64c0-1.386-.346-2.447-1.039-3.182-.693-.756-1.639-1.134-2.836-1.134-1.218 0-2.184.378-2.898 1.134-.693.735-1.04 1.796-1.04 3.182v9.64h-4.41v-17.453h4.41v2.174a5.98 5.98 0 0 1 2.237-1.764c.924-.441 1.932-.662 3.024-.662Z"/></svg>