<svg width="284" height="313" viewBox="0 0 284 313" fill="none" xmlns="http://www.w3.org/2000/svg">
<path d="M0.263672 119.206V59.6955L26.0595 74.5731V44.8179L51.7953 59.6955V29.9403L77.5911 44.8179V74.5731L103.387 89.4506V119.206L129.123 134.083V104.328L154.918 119.206V89.4506L180.654 104.328V134.083L206.45 148.961V178.776L232.246 193.654V253.164L206.45 238.286V268.042L180.654 253.164V282.919L154.918 268.042V297.797L129.123 282.919V312.674L103.387 297.797V268.042L77.5911 253.164V223.409L51.7953 208.531V178.776L26.0595 163.899V134.083" fill="#CE193C"/>
<path d="M77.5929 44.8175L129.125 15.0623L103.389 0.184753L51.7971 29.9399L77.5929 44.8175Z" fill="#FDB50F"/>
<path d="M154.919 89.4502L206.451 59.695L232.247 74.5726L180.655 104.328L154.919 89.4502Z" fill="#FDB50F"/>
<path d="M180.654 134.083L232.246 104.328L257.981 119.206L206.45 148.961L180.654 134.083Z" fill="#FDB50F"/>
<path d="M206.449 178.776L257.981 148.961L283.777 163.899L232.245 193.654L206.449 178.776Z" fill="#FDB50F"/>
<path d="M77.5923 74.5729L129.124 44.8177L154.92 59.6953L103.388 89.4504L77.5923 74.5729Z" fill="#FDB50F"/>
<path d="M103.387 119.206L129.123 104.328V134.083L103.387 119.206Z" fill="#FDB50F"/>
<path d="M154.918 89.4497L129.122 104.327L154.918 119.205V89.4497Z" fill="#FDB50F"/>
<path d="M26.0588 44.8179L51.7946 29.9403V59.6955L26.0588 44.8179Z" fill="#FDB50F"/>
<path d="M0.263672 59.6953L26.0595 44.8177V74.5729L0.263672 59.6953Z" fill="#FDB50F"/>
<path d="M77.5923 44.8173V74.5724L129.124 44.8173V15.0621L77.5923 44.8173Z" fill="#F45916"/>
<path d="M103.387 89.4502V119.205L154.919 89.4502V59.695L103.387 89.4502Z" fill="#F45916"/>
<path d="M180.654 104.328V134.083L232.246 104.328V74.5724L180.654 104.328Z" fill="#F45916"/>
<path d="M206.449 148.96V178.776L257.981 148.96V119.205L206.449 148.96Z" fill="#F45916"/>
<path d="M232.245 253.164V193.654L283.776 163.899V223.409L232.245 253.164Z" fill="#F45916"/>
<path d="M206.449 268.041L232.245 253.164L206.449 238.286V268.041Z" fill="#F45916"/>
<path d="M180.654 282.919L206.45 268.041L180.654 253.164V282.919Z" fill="#F45916"/>
<path d="M154.919 297.796L180.655 282.919L154.919 268.041V297.796Z" fill="#F45916"/>
<path d="M129.122 312.674L154.918 297.796L129.122 282.918V312.674Z" fill="#F45916"/>
</svg>
