<svg width="355" height="355" viewBox="0 0 355 355" fill="none" xmlns="http://www.w3.org/2000/svg">
<rect x="0.991211" y="0.210938" width="354" height="354" fill="#F65800"/>
<path d="M35.7592 298.659V334.222H27.0965V298.659H35.7592ZM50.6998 296.734V334.222H42.037V296.734H50.6998ZM65.6404 296.734V334.222H56.9776V296.734H65.6404ZM99.8315 305.954V334.222H91.1688V330.372C90.2907 331.621 89.0917 332.634 87.572 333.411C86.0859 334.154 84.4311 334.526 82.6073 334.526C80.4459 334.526 78.5377 334.053 76.8828 333.107C75.2279 332.128 73.9446 330.726 73.0327 328.902C72.1208 327.079 71.6649 324.934 71.6649 322.469V305.954H80.277V321.304C80.277 323.195 80.7667 324.664 81.7461 325.711C82.7255 326.758 84.0427 327.281 85.6976 327.281C87.3862 327.281 88.7202 326.758 89.6996 325.711C90.6791 324.664 91.1688 323.195 91.1688 321.304V305.954H99.8315ZM117.554 334.627C115.088 334.627 112.893 334.205 110.968 333.36C109.043 332.516 107.523 331.368 106.409 329.916C105.294 328.43 104.669 326.775 104.534 324.951H113.096C113.197 325.93 113.653 326.724 114.463 327.332C115.274 327.94 116.27 328.244 117.452 328.244C118.533 328.244 119.36 328.041 119.935 327.636C120.543 327.197 120.846 326.64 120.846 325.964C120.846 325.154 120.424 324.563 119.58 324.191C118.736 323.786 117.368 323.347 115.477 322.874C113.45 322.401 111.762 321.911 110.411 321.405C109.06 320.864 107.895 320.037 106.915 318.923C105.936 317.774 105.446 316.238 105.446 314.313C105.446 312.691 105.885 311.222 106.763 309.905C107.675 308.554 108.992 307.49 110.715 306.714C112.471 305.937 114.548 305.548 116.946 305.548C120.492 305.548 123.278 306.427 125.305 308.183C127.365 309.939 128.547 312.269 128.851 315.174H120.846C120.711 314.194 120.272 313.418 119.529 312.843C118.82 312.269 117.874 311.982 116.692 311.982C115.679 311.982 114.902 312.185 114.362 312.59C113.822 312.962 113.552 313.485 113.552 314.161C113.552 314.971 113.974 315.579 114.818 315.984C115.696 316.39 117.047 316.795 118.871 317.2C120.965 317.74 122.67 318.281 123.987 318.821C125.305 319.328 126.453 320.172 127.432 321.354C128.445 322.502 128.969 324.056 129.003 326.015C129.003 327.67 128.53 329.156 127.584 330.473C126.672 331.756 125.338 332.769 123.582 333.512C121.86 334.255 119.85 334.627 117.554 334.627ZM150.058 326.876V334.222H145.65C142.509 334.222 140.061 333.462 138.305 331.942C136.548 330.388 135.67 327.872 135.67 324.394V313.147H132.225V305.954H135.67V299.064H144.333V305.954H150.007V313.147H144.333V324.495C144.333 325.339 144.536 325.947 144.941 326.319C145.346 326.69 146.022 326.876 146.967 326.876H150.058ZM163.546 310.665C164.559 309.111 165.825 307.896 167.345 307.018C168.865 306.106 170.554 305.65 172.411 305.65V314.819H170.03C167.869 314.819 166.248 315.292 165.167 316.238C164.086 317.149 163.546 318.771 163.546 321.101V334.222H154.883V305.954H163.546V310.665ZM174.829 320.037C174.829 317.133 175.37 314.583 176.45 312.387C177.565 310.192 179.068 308.504 180.959 307.322C182.85 306.139 184.961 305.548 187.292 305.548C189.284 305.548 191.023 305.954 192.509 306.764C194.029 307.575 195.194 308.639 196.005 309.956V305.954H204.668V334.222H196.005V330.22C195.161 331.537 193.979 332.601 192.459 333.411C190.973 334.222 189.233 334.627 187.241 334.627C184.944 334.627 182.85 334.036 180.959 332.854C179.068 331.638 177.565 329.933 176.45 327.737C175.37 325.508 174.829 322.942 174.829 320.037ZM196.005 320.088C196.005 317.926 195.397 316.221 194.181 314.971C192.999 313.721 191.547 313.097 189.824 313.097C188.102 313.097 186.633 313.721 185.417 314.971C184.235 316.187 183.644 317.876 183.644 320.037C183.644 322.199 184.235 323.921 185.417 325.204C186.633 326.454 188.102 327.079 189.824 327.079C191.547 327.079 192.999 326.454 194.181 325.204C195.397 323.955 196.005 322.249 196.005 320.088ZM226.69 326.876V334.222H222.283C219.142 334.222 216.693 333.462 214.937 331.942C213.181 330.388 212.303 327.872 212.303 324.394V313.147H208.858V305.954H212.303V299.064H220.965V305.954H226.639V313.147H220.965V324.495C220.965 325.339 221.168 325.947 221.573 326.319C221.979 326.69 222.654 326.876 223.6 326.876H226.69ZM235.872 303.015C234.352 303.015 233.103 302.576 232.123 301.698C231.177 300.786 230.705 299.672 230.705 298.355C230.705 297.004 231.177 295.889 232.123 295.011C233.103 294.099 234.352 293.643 235.872 293.643C237.358 293.643 238.574 294.099 239.519 295.011C240.499 295.889 240.989 297.004 240.989 298.355C240.989 299.672 240.499 300.786 239.519 301.698C238.574 302.576 237.358 303.015 235.872 303.015ZM240.178 305.954V334.222H231.515V305.954H240.178ZM259.323 334.627C256.554 334.627 254.055 334.036 251.826 332.854C249.63 331.672 247.891 329.983 246.608 327.788C245.358 325.593 244.733 323.026 244.733 320.088C244.733 317.183 245.375 314.633 246.658 312.438C247.942 310.209 249.698 308.504 251.927 307.322C254.156 306.139 256.655 305.548 259.425 305.548C262.194 305.548 264.693 306.139 266.922 307.322C269.151 308.504 270.907 310.209 272.191 312.438C273.474 314.633 274.116 317.183 274.116 320.088C274.116 322.992 273.457 325.559 272.14 327.788C270.857 329.983 269.084 331.672 266.821 332.854C264.592 334.036 262.093 334.627 259.323 334.627ZM259.323 327.129C260.978 327.129 262.38 326.521 263.528 325.306C264.71 324.09 265.301 322.35 265.301 320.088C265.301 317.825 264.727 316.086 263.579 314.87C262.464 313.654 261.079 313.046 259.425 313.046C257.736 313.046 256.334 313.654 255.22 314.87C254.105 316.052 253.548 317.791 253.548 320.088C253.548 322.35 254.088 324.09 255.169 325.306C256.284 326.521 257.668 327.129 259.323 327.129ZM295.936 305.65C299.246 305.65 301.88 306.73 303.839 308.892C305.831 311.02 306.828 313.958 306.828 317.707V334.222H298.215V318.872C298.215 316.981 297.726 315.511 296.746 314.464C295.767 313.418 294.45 312.894 292.795 312.894C291.14 312.894 289.823 313.418 288.843 314.464C287.864 315.511 287.374 316.981 287.374 318.872V334.222H278.712V305.954H287.374V309.703C288.252 308.453 289.435 307.473 290.921 306.764C292.407 306.021 294.078 305.65 295.936 305.65Z" fill="white"/>
</svg>
