<svg width="266" height="269" viewBox="0 0 266 269" fill="none" xmlns="http://www.w3.org/2000/svg">
<path d="M25.2936 123.285V178.549L0.0576172 163.935V108.671L25.2936 123.285Z" fill="#675EF1"/>
<path d="M49.2189 219.999L23.9829 205.385V150.121L49.2189 164.735V219.999Z" fill="#675EF1"/>
<path d="M25.2935 123.285L121.003 68.0215V123.285L97.0777 137.099V192.363L49.2187 219.999V164.735L25.2935 178.549V123.285Z" fill="#F45916"/>
<path d="M25.2936 123.285L0.0576172 108.671L95.7671 53.4072L121.003 68.0211L25.2936 123.285Z" fill="#FDB50F"/>
<path d="M109.105 33.5166V88.7889L61.2456 116.417V61.1528L109.105 33.5166Z" fill="#F4A37E"/>
<path d="M61.2452 5.88867L109.104 33.5163L61.2452 61.1525L13.3862 33.5163L61.2452 5.88867Z" fill="#EDC6B0"/>
<path d="M13.3862 88.7889V33.5166L61.2452 61.1528V116.417L13.3862 88.7889Z" fill="#E7865A"/>
<path d="M80.9487 63.7314V91.3676L67.5435 99.1044V71.4767L80.9487 63.7314Z" fill="#353535"/>
<path d="M103.027 50.8877V78.5153L89.6221 86.2606V58.6245L103.027 50.8877Z" fill="#353535"/>
<path d="M83.919 65.7148V93.3425L70.5137 101.088V73.4516L83.919 65.7148Z" fill="#353535"/>
<path d="M105.998 52.8633V80.4994L92.5928 88.2362V60.6086L105.998 52.8633Z" fill="#353535"/>
<path d="M105.998 52.8623L103.027 50.8877L89.6221 58.6245L92.5925 60.6076L105.998 52.8623Z" fill="#353535"/>
<path d="M92.5925 88.2358L89.6221 86.2612V58.625L92.5925 60.6081V88.2358Z" fill="#353535"/>
<path d="M83.9192 65.7146L80.9487 63.7314L67.5435 71.4767L70.5139 73.4513L83.9192 65.7146Z" fill="#353535"/>
<path d="M70.5139 101.087L67.5435 99.1042V71.4766L70.5139 73.4512V101.087Z" fill="#353535"/>
<path d="M240.706 122.791V178.054L265.942 163.441V108.177L240.706 122.791Z" fill="#F45916"/>
<path d="M216.78 219.505L242.016 204.891V149.627L216.78 164.241V219.505Z" fill="#F45916"/>
<path d="M240.706 122.79L144.997 67.5264V122.79L168.922 136.604V191.868L216.781 219.504V164.24L240.706 178.054V122.79Z" fill="#675EF1"/>
<path d="M240.706 122.791L265.942 108.177L170.233 52.9131L144.997 67.527L240.706 122.791Z" fill="#FDB50F"/>
<path d="M156.904 33.0215V88.2938L204.754 115.921V60.6576L156.904 33.0215Z" fill="#E2AA91"/>
<path d="M204.754 5.39453L156.904 33.0222L204.754 60.6583L252.613 33.0222L204.754 5.39453Z" fill="#EDC6B0"/>
<path d="M252.613 88.2938V33.0215L204.754 60.6576V115.921L252.613 88.2938Z" fill="#EDC6B0"/>
<path d="M185.051 63.2373V90.8735L198.456 98.6102V70.9826L185.051 63.2373Z" fill="#353535"/>
<path d="M162.972 50.3936V78.0212L176.377 85.7665V58.1303L162.972 50.3936Z" fill="#353535"/>
<path d="M182.089 65.2207V92.8484L195.494 100.594V72.9575L182.089 65.2207Z" fill="#353535"/>
<path d="M160.01 52.3682V79.9958L173.416 87.7411V60.1049L160.01 52.3682Z" fill="#353535"/>
<path d="M160.01 52.3682L162.972 50.3936L176.377 58.1303L173.416 60.1049L160.01 52.3682Z" fill="#353535"/>
<path d="M173.416 87.7407L176.377 85.766V58.1299L173.416 60.1045V87.7407Z" fill="#353535"/>
<path d="M182.089 65.2204L185.051 63.2373L198.456 70.9826L195.494 72.9572L182.089 65.2204Z" fill="#353535"/>
<path d="M195.494 100.593L198.456 98.6101V70.9824L195.494 72.957V100.593Z" fill="#353535"/>
<path d="M204.754 88.2853V60.6576L252.613 33.0215V88.2938L228.688 102.108V74.4715L204.754 88.2853Z" fill="#353535"/>
<path d="M207.325 89.7414V62.1137L255.175 34.4775V89.7414L231.25 103.564V75.9275L207.325 89.7414Z" fill="#353535"/>
<path d="M207.324 89.7413L204.754 88.2859V60.6582L207.324 62.1136V89.7413Z" fill="#353535"/>
<path d="M156.895 60.6583L154.333 59.2028V31.5752L156.895 33.0306V60.6583Z" fill="#353535"/>
<path d="M231.25 103.563L228.688 102.108V74.4717L231.25 75.9271V103.563Z" fill="#353535"/>
<path d="M255.175 34.4769L252.613 33.0215L204.754 60.6576L207.324 62.1131L255.175 34.4769Z" fill="#353535"/>
<path d="M154.333 31.5755V27.873L207.325 58.1307V62.114L154.333 31.5755Z" fill="#353535"/>
<path d="M207.325 62.1132L255.175 34.477L202.031 3.81934L154.333 31.5747L207.325 62.1132Z" fill="#353535"/>
<path d="M207.325 58.411L255.175 30.7749L202.031 0.117188L154.333 27.8725L207.325 58.411Z" fill="#353535"/>
<path d="M255.175 34.4768V30.7744L207.325 58.4106V62.113L255.175 34.4768Z" fill="#353535"/>
<path d="M133.115 102.5L13.48 171.586L133.115 240.664L252.758 171.586L133.115 102.5Z" fill="#FDB50F"/>
<path d="M13.48 171.586V199.214L133.115 268.291V240.664L13.48 171.586Z" fill="#675EF1"/>
<path d="M252.758 171.586L133.115 240.664V268.291L252.758 199.214V171.586Z" fill="#F45916"/>
<path d="M61.3306 171.585L61.4327 144.009L133.115 185.399V213.027L61.3306 171.585Z" fill="#675EF1"/>
<path d="M133.115 213.027V185.399L205.001 144.009V171.585L133.115 213.027Z" fill="#F45916"/>
<path d="M133.115 130.136L109.189 144.009L133.115 157.763V130.136Z" fill="#F45916"/>
<path d="M157.048 143.95L133.115 130.136V157.763L157.048 143.95Z" fill="#675EF1"/>
</svg>
