<svg width="851" height="876" viewBox="0 0 851 876" fill="none" xmlns="http://www.w3.org/2000/svg">
<path d="M615.2 439.501L824.961 318.396L824.961 646.574L615.2 634.541L615.2 439.501Z" fill="url(#paint0_linear_427_2295)"/>
<path d="M730.2 263.528L850.117 194.294L850.117 522.472L730.2 458.568L730.2 263.528Z" fill="url(#paint1_linear_427_2295)"/>
<path d="M285.479 520.259L520.326 384.67L520.326 715.59L285.479 716.928L285.479 520.259Z" fill="url(#paint2_linear_427_2295)"/>
<path d="M0.683609 355.796L285.485 520.226L285.485 732.919L0.68361 711.454L0.683609 355.796Z" fill="url(#paint3_linear_427_2295)"/>
<path d="M520.267 384.7L615.202 439.511L615.202 652.111L520.267 740.202L520.267 384.7Z" fill="url(#paint4_linear_427_2295)"/>
<path d="M50.6428 298.129L565.29 0.97168L635.241 41.3623L120.595 338.519L50.6428 298.129Z" fill="#FDB50F"/>
<path d="M0.683609 355.825L565.308 29.8442L850.113 194.291L730.196 263.531L825.062 318.348L615.207 439.518L520.327 384.676L285.501 520.299L0.683609 355.825Z" fill="#FDB50F"/>
<path d="M735.178 231.775L710.195 107.718L715.187 104.85L740.171 228.906L735.178 231.775Z" fill="#675EF1"/>
<path d="M730.177 228.897L705.209 104.85L710.193 107.718L735.176 231.775L730.177 228.897Z" fill="#23237C"/>
<path d="M120.608 401.988V338.518L230.531 275.047V338.518L120.608 401.988Z" fill="#F45916"/>
<path d="M315.469 436.606L320.467 433.72V416.414L315.469 419.3V436.606Z" fill="#675EF1"/>
<path d="M310.475 433.72L310.483 416.414L315.471 419.3V436.606L310.475 433.72Z" fill="#23237C"/>
<path d="M280.484 416.414L285.48 413.527V396.224L280.484 399.108V416.414Z" fill="#675EF1"/>
<path d="M275.49 413.527L275.499 396.224L280.487 399.108V416.414L275.49 413.527Z" fill="#23237C"/>
<path d="M240.492 393.378L245.488 390.492V373.188L240.492 376.073V393.378Z" fill="#675EF1"/>
<path d="M235.493 390.492L235.5 373.188L240.489 376.073V393.378L235.493 390.492Z" fill="#23237C"/>
<path d="M205.543 373.135L210.541 370.249V352.943L205.543 355.83V373.135Z" fill="#675EF1"/>
<path d="M200.54 370.249L200.548 352.943L205.535 355.83V373.135L200.54 370.249Z" fill="#23237C"/>
<path d="M350.449 407.75V311.106L700.209 109.153V205.802L350.449 407.75Z" fill="#F45916"/>
<path d="M350.44 407.76L230.521 338.524V276.493L350.44 311.117V407.76Z" fill="url(#paint5_linear_427_2295)"/>
<path d="M315.467 422.194L400.409 373.143V326.983L305.475 381.799L315.467 422.194Z" fill="#F45916"/>
<path d="M317.964 166.86V161.089L342.948 175.515V181.284L317.964 166.86Z" fill="#675EF1"/>
<path d="M445.379 116.369L342.951 175.512V181.281L445.379 122.138V116.369Z" fill="#F45916"/>
<path d="M327.967 161.092L420.401 107.72V113.491L332.963 163.978L327.967 161.092Z" fill="#F45916"/>
<path d="M420.387 107.72L435.377 116.366L430.381 119.248L420.387 113.485V107.72Z" fill="#675EF1"/>
<path d="M442.88 120.702L437.884 123.583L442.88 126.465L447.876 123.583L442.88 120.702Z" fill="#675EF1"/>
<path d="M433.012 126.476L428.014 129.357L433.012 132.24L438.008 129.357L433.012 126.476Z" fill="#675EF1"/>
<path d="M422.893 132.239L417.897 135.12L422.893 138.002L427.889 135.12L422.893 132.239Z" fill="#675EF1"/>
<path d="M412.903 138.013L407.908 140.894L412.903 143.777L417.901 140.894L412.903 138.013Z" fill="#675EF1"/>
<path d="M402.902 143.78L397.905 146.662L402.902 149.543L407.898 146.662L402.902 143.78Z" fill="#675EF1"/>
<path d="M392.916 149.552L387.92 152.435L392.916 155.316L397.912 152.435L392.916 149.552Z" fill="#675EF1"/>
<path d="M382.918 155.317L377.922 158.199L382.918 161.08L387.916 158.199L382.918 155.317Z" fill="#675EF1"/>
<path d="M372.93 161.089L367.933 163.972L372.93 166.854L377.926 163.972L372.93 161.089Z" fill="#675EF1"/>
<path d="M362.935 166.861L357.939 169.743L362.935 172.624L367.931 169.743L362.935 166.861Z" fill="#675EF1"/>
<path d="M352.832 172.575L347.835 175.459L352.832 178.34L357.828 175.459L352.832 172.575Z" fill="#675EF1"/>
<path d="M420.387 139.452V142.334L425.383 139.452V136.571L420.387 139.452Z" fill="#675EF1"/>
<path d="M430.389 133.68V136.561L435.385 133.68V130.797L430.389 133.68Z" fill="#675EF1"/>
<path d="M440.383 127.913L440.385 130.795L445.381 127.913V125.032L440.383 127.913Z" fill="#675EF1"/>
<path d="M390.417 119.253L395.415 116.371L392.916 114.93L387.92 117.811L390.417 119.253Z" fill="#675EF1"/>
<path d="M387.92 117.815V120.694L390.417 119.254L387.92 117.815Z" fill="#23237C"/>
<path d="M380.423 125.021L385.419 122.14L382.92 120.7L377.924 123.581L380.423 125.021Z" fill="#675EF1"/>
<path d="M377.924 123.585V126.462L380.423 125.023L377.924 123.585Z" fill="#23237C"/>
<path d="M370.426 130.793L375.422 127.911L372.925 126.47L367.927 129.351L370.426 130.793Z" fill="#675EF1"/>
<path d="M367.927 129.354V132.234L370.426 130.794L367.927 129.354Z" fill="#23237C"/>
<path d="M360.44 136.567L365.438 133.684L362.939 132.244L357.943 135.125L360.44 136.567Z" fill="#675EF1"/>
<path d="M357.943 135.129V138.006L360.44 136.569L357.943 135.129Z" fill="#23237C"/>
<path d="M350.45 142.333L355.445 139.451L352.947 138.01L347.951 140.891L350.45 142.333Z" fill="#675EF1"/>
<path d="M347.951 140.895V143.774L350.45 142.334L347.951 140.895Z" fill="#23237C"/>
<path d="M340.448 148.105L345.444 145.222L342.947 143.782L337.949 146.664L340.448 148.105Z" fill="#675EF1"/>
<path d="M337.949 146.667V149.545L340.448 148.107L337.949 146.667Z" fill="#23237C"/>
<path d="M330.46 153.878L335.456 150.996L332.959 149.554L327.961 152.438L330.46 153.878Z" fill="#675EF1"/>
<path d="M327.961 152.439V155.317L330.46 153.877L327.961 152.439Z" fill="#23237C"/>
<path d="M320.466 159.633L325.464 156.749L322.965 155.31L317.969 158.191L320.466 159.633Z" fill="#675EF1"/>
<path d="M317.97 158.194V161.072L320.467 159.634L317.97 158.194Z" fill="#23237C"/>
<path d="M400.399 113.483L405.395 110.601L402.896 109.159L397.9 112.043L400.399 113.483Z" fill="#675EF1"/>
<path d="M397.9 112.044V114.922L400.399 113.482L397.9 112.044Z" fill="#23237C"/>
<path d="M410.391 107.712L415.387 104.831L412.888 103.389L407.892 106.271L410.391 107.712Z" fill="#675EF1"/>
<path d="M407.892 106.274V109.152L410.391 107.714L407.892 106.274Z" fill="#23237C"/>
<path d="M565.298 52.9009V70.2099L765.161 127.911V110.6L565.298 52.9009Z" fill="#AA0937"/>
<path d="M635.249 41.3616V87.5212L590.28 113.486V67.3259L635.249 41.3616Z" fill="#F45916"/>
<path d="M120.595 401.985L50.6428 361.594V298.124L120.595 338.515V401.985Z" fill="#675EF1"/>
<path d="M240.514 280.815L185.552 312.55L305.47 381.792L360.431 350.056L240.514 280.815Z" fill="#FDB50F"/>
<path d="M315.462 422.193L195.545 352.952L185.552 312.556L305.47 381.797L315.462 422.193Z" fill="#675EF1"/>
<path d="M530.315 350.059L505.332 226.002L685.209 122.141L710.193 246.197L530.315 350.059Z" fill="#F45916"/>
<path d="M519.087 265.671L533.305 336.81L699.108 241.096L684.968 169.126L519.087 265.671Z" fill="url(#paint6_linear_427_2295)"/>
<path d="M390.42 321.207L350.445 344.344L360.44 350.058L400.413 326.978L390.42 321.207Z" fill="#FDB50F"/>
<path d="M490.343 326.981L530.32 350.061L512.831 263.222L490.347 251.196L490.343 326.981Z" fill="#675EF1"/>
<path d="M510.326 361.6L485.344 237.544L490.336 234.677L515.318 358.732L510.326 361.6Z" fill="#675EF1"/>
<path d="M505.327 358.723L480.358 234.677L485.344 237.544L510.325 361.6L505.327 358.723Z" fill="#23237C"/>
<path d="M499.919 309.904L494.924 307.018L459.823 327.286L464.943 330.1L499.919 309.904Z" fill="#FDB50F"/>
<path d="M465.988 335.273L464.946 330.103L499.921 309.908L500.963 315.076L465.988 335.273Z" fill="#675EF1"/>
<path d="M470.362 384.679L445.378 260.623L450.371 257.756L475.354 381.811L470.362 384.679Z" fill="#675EF1"/>
<path d="M465.364 381.804L440.397 257.756L445.38 260.623L470.363 384.679L465.364 381.804Z" fill="#23237C"/>
<path d="M459.95 332.989L454.954 330.103L419.853 350.371L424.973 353.185L459.95 332.989Z" fill="#FDB50F"/>
<path d="M426.013 358.357L424.971 353.187L459.948 332.991L460.99 338.16L426.013 358.357Z" fill="#675EF1"/>
<path d="M430.382 407.756L405.399 283.699L410.391 280.833L435.374 404.887L430.382 407.756Z" fill="#675EF1"/>
<path d="M425.385 404.878L400.418 280.833L405.401 283.699L430.385 407.756L425.385 404.878Z" fill="#23237C"/>
<path d="M419.98 356.07L414.984 353.184L379.883 373.45L385.003 376.265L419.98 356.07Z" fill="#FDB50F"/>
<path d="M386.047 381.433L385.005 376.265L419.982 356.07L421.022 361.238L386.047 381.433Z" fill="#675EF1"/>
<path d="M390.417 430.834L365.433 306.777L370.426 303.909L395.409 427.965L390.417 430.834Z" fill="#675EF1"/>
<path d="M385.415 427.956L360.447 303.909L365.431 306.777L390.414 430.834L385.415 427.956Z" fill="#23237C"/>
<path d="M210.538 257.736V275.047L215.533 277.931L220.531 275.047L225.527 277.931V279.374L230.534 280.819L410.401 332.746V315.437L210.538 257.736Z" fill="#675EF1"/>
<path d="M210.538 257.739L570.291 50.0171L770.154 107.718L410.401 315.439L210.538 257.739Z" fill="#FDB50F"/>
<path d="M155.579 416.412L195.547 393.329L265.504 433.721L225.531 456.803L155.579 416.412Z" fill="#FDB50F"/>
<path d="M155.579 416.414L155.588 422.188L225.531 462.572V456.805L155.579 416.414Z" fill="#675EF1"/>
<path d="M265.503 433.723V439.494L225.53 462.572V456.805L265.503 433.723Z" fill="#F45916"/>
<path d="M60.6458 298.127L565.301 6.73901V12.5099L65.6436 301.012L60.6458 298.127Z" fill="#F45916"/>
<path d="M565.298 6.73901V12.5099L620.259 44.2451L625.256 41.3606L565.298 6.73901Z" fill="#675EF1"/>
<path d="M573.049 59.963L442.062 135.608L435.384 133.68L571.741 54.9475L573.049 59.963Z" fill="#F45916"/>
<path d="M305.466 214.458V220.219L310.462 217.34V211.575L305.466 214.458Z" fill="#23237C"/>
<path d="M465.356 260.616V266.379L470.352 263.497V257.732L465.356 260.616Z" fill="#675EF1"/>
<path d="M470.354 257.735L465.357 260.619L305.466 214.461L310.462 211.575L470.354 257.735Z" fill="#675EF1"/>
<path d="M295.482 220.237V226L300.478 223.118V217.354L295.482 220.237Z" fill="#23237C"/>
<path d="M455.372 266.401V272.162L460.368 269.282V263.517L455.372 266.401Z" fill="#675EF1"/>
<path d="M460.368 263.515L455.372 266.4L295.482 220.24L300.478 217.354L460.368 263.515Z" fill="#675EF1"/>
<path d="M571.737 54.9475L758.268 108.805L753.279 111.686L573.045 59.963L571.737 54.9475Z" fill="#675EF1"/>
<path d="M285.241 225.998V231.761L290.237 228.88V223.115L285.241 225.998Z" fill="#23237C"/>
<path d="M445.13 272.156V277.919L450.126 275.037V269.272L445.13 272.156Z" fill="#675EF1"/>
<path d="M450.128 269.275L445.131 272.161L285.241 226.001L290.237 223.115L450.128 269.275Z" fill="#675EF1"/>
<path d="M275.493 231.768V237.531L280.489 234.65V228.885L275.493 231.768Z" fill="#23237C"/>
<path d="M435.383 277.932V283.695L440.379 280.814V275.049L435.383 277.932Z" fill="#675EF1"/>
<path d="M440.381 275.046L435.385 277.931L275.493 231.771L280.489 228.885L440.381 275.046Z" fill="#675EF1"/>
<path d="M265.501 237.542V243.305L270.497 240.424V234.659L265.501 237.542Z" fill="#23237C"/>
<path d="M425.391 283.7V289.463L430.387 286.581V280.817L425.391 283.7Z" fill="#675EF1"/>
<path d="M430.389 280.819L425.393 283.705L265.501 237.545L270.497 234.659L430.389 280.819Z" fill="#675EF1"/>
<path d="M255.496 243.311V249.074L260.492 246.192V240.428L255.496 243.311Z" fill="#23237C"/>
<path d="M415.386 289.475V295.238L420.383 292.356L420.381 286.592L415.386 289.475Z" fill="#675EF1"/>
<path d="M420.383 286.589L415.386 289.474L255.496 243.314L260.492 240.428L420.383 286.589Z" fill="#675EF1"/>
<path d="M245.516 249.077V254.84L250.512 251.958V246.193L245.516 249.077Z" fill="#23237C"/>
<path d="M405.406 295.234V300.997L410.402 298.115V292.351L405.406 295.234Z" fill="#675EF1"/>
<path d="M410.404 292.353L405.406 295.239L245.516 249.08L250.512 246.193L410.404 292.353Z" fill="#675EF1"/>
<path d="M410.395 153.873V159.636L415.391 156.755V150.99L410.395 153.873Z" fill="#23237C"/>
<path d="M570.285 200.031V205.794L575.281 202.912V197.147L570.285 200.031Z" fill="#675EF1"/>
<path d="M575.281 197.15L570.285 200.036L410.395 153.876L415.391 150.99L575.281 197.15Z" fill="#675EF1"/>
<path d="M555.254 87.5556V93.3168L560.25 90.4371V84.6724L555.254 87.5556Z" fill="#23237C"/>
<path d="M635.265 110.652V116.415L640.261 113.534V107.769L635.265 110.652Z" fill="#675EF1"/>
<path d="M640.258 107.77L635.263 110.655L555.254 87.5569L560.252 84.6724L640.258 107.77Z" fill="#675EF1"/>
<path d="M559.948 78.893V84.6542L564.944 81.7727V76.0098L559.948 78.893Z" fill="#23237C"/>
<path d="M639.958 101.987V107.75L644.955 104.868V99.1038L639.958 101.987Z" fill="#675EF1"/>
<path d="M644.952 99.1074L639.956 101.992L559.948 78.8943L564.946 76.0098L644.952 99.1074Z" fill="#675EF1"/>
<path d="M565.297 70.1662V75.9292L570.293 73.0477V67.283L565.297 70.1662Z" fill="#23237C"/>
<path d="M645.308 93.2624V99.0236L650.304 96.1421V90.3792L645.308 93.2624Z" fill="#675EF1"/>
<path d="M650.301 90.3806L645.305 93.2651L565.297 70.1675L570.295 67.283L650.301 90.3806Z" fill="#675EF1"/>
<path d="M635.247 127.914L630.251 130.799L563.629 111.565L561.964 106.758L635.247 127.914Z" fill="#675EF1"/>
<path d="M430.536 171.106L425.54 173.991L398.895 166.299L397.229 161.491L430.536 171.106Z" fill="#675EF1"/>
<path d="M581.084 170.727L494.283 145.471L493.677 140.415L580.284 165.418V165.42L581.084 170.727Z" fill="#675EF1"/>
<path d="M376.053 219.069L330.464 205.805L329.278 195.888L374.853 209.045L376.053 219.069Z" fill="#675EF1"/>
<path d="M505.181 139.545L561.966 106.758L563.629 111.567L511.844 141.468L505.181 139.545Z" fill="#F45916"/>
<path d="M203.869 346.217L198.583 325.837L302.143 385.637L307.139 405.833L203.869 346.217Z" fill="url(#paint7_linear_427_2295)"/>
<path d="M340.455 194.277L397.238 161.491L398.903 166.3L347.117 196.201L340.455 194.277Z" fill="#F45916"/>
<path d="M645.241 127.911L646.024 133.229L581.086 170.724L580.286 165.415L645.241 127.911Z" fill="#F45916"/>
<path d="M374.857 209.043L440.384 171.187L441.583 181.21L376.056 219.067L374.857 209.043Z" fill="#F45916"/>
<path d="M439.702 213.388V219.151L444.697 216.269V210.504L439.702 213.388Z" fill="#23237C"/>
<path d="M458.022 214.346L453.026 217.227L439.702 213.385L444.696 210.502L458.022 214.346Z" fill="#675EF1"/>
<path d="M419.717 224.93V230.693L424.713 227.812V222.047L419.717 224.93Z" fill="#23237C"/>
<path d="M429.715 219.167V224.93L434.711 222.049V216.284L429.715 219.167Z" fill="#23237C"/>
<path d="M473.752 235.493L475.572 246.57L507.412 228.335L505.594 217.258L473.752 235.493Z" fill="#F45916"/>
<path d="M438.037 225.891L433.041 228.772L419.717 224.93L424.711 222.047L438.037 225.891Z" fill="#675EF1"/>
<path d="M448.035 220.125L443.039 223.007L429.715 219.165L434.709 216.282L448.035 220.125Z" fill="#675EF1"/>
<path d="M473.751 235.491L429.322 222.981L431.14 234.059L475.571 246.569L473.751 235.491Z" fill="#675EF1"/>
<path d="M429.269 222.964L461.109 204.729L505.539 217.239L473.699 235.474L429.269 222.964Z" fill="#FDB50F"/>
<path d="M491.028 243.001V248.764L496.024 245.882V240.118L491.028 243.001Z" fill="#675EF1"/>
<path d="M496.025 240.111L491.029 242.992L477.704 239.15L482.698 236.267L496.025 240.111Z" fill="#675EF1"/>
<path d="M501.026 237.231V242.993L506.022 240.111V234.348L501.026 237.231Z" fill="#675EF1"/>
<path d="M506.023 234.345L501.027 237.227L487.702 233.385L492.697 230.502L506.023 234.345Z" fill="#675EF1"/>
<path d="M511.024 231.462V237.225L516.02 234.343V228.578L511.024 231.462Z" fill="#675EF1"/>
<path d="M516.012 228.573L511.016 231.455L497.692 227.613L502.686 224.73L516.012 228.573Z" fill="#675EF1"/>
<path d="M615.264 416.417V404.877L540.318 361.604L540.316 373.143L615.264 416.417Z" fill="#675EF1"/>
<path d="M615.262 404.872L785.146 306.782V318.322L615.262 416.412V404.872Z" fill="#F45916"/>
<path d="M765.259 306.841L710.195 275.047V280.816L760.16 309.667L765.259 306.841Z" fill="#675EF1"/>
<path d="M560.296 367.366L555.282 364.482L710.194 275.047V280.816L560.296 367.366Z" fill="#F45916"/>
<path d="M701.684 307.399L692.979 302.377L701.684 297.356L710.389 302.377L701.684 307.399Z" fill="#675EF1"/>
<path d="M727.805 322.479L719.1 317.458L727.805 312.438L736.51 317.458L727.805 322.479Z" fill="#675EF1"/>
<path d="M697.331 314.951L692.979 312.438V302.384L706.036 309.925L697.331 314.951Z" fill="#675EF1"/>
<path d="M706.032 319.973L714.737 314.952L727.795 322.483L714.737 324.994L706.032 319.973Z" fill="#675EF1"/>
<path d="M701.687 297.357L719.085 297.352L723.45 299.87V304.897H732.155L736.508 307.404V317.464L727.802 312.438L723.45 309.925H714.745V304.897L710.392 302.384" fill="#675EF1"/>
<path d="M632.04 357.661L623.335 352.64L632.04 347.618L640.745 352.64L632.04 357.661Z" fill="#675EF1"/>
<path d="M632.04 347.606L623.335 342.585L632.04 337.564L640.745 342.585L632.04 347.606Z" fill="#675EF1"/>
<path d="M649.449 347.606L640.744 342.585L649.449 337.564L658.154 342.585L649.449 347.606Z" fill="#675EF1"/>
<path d="M658.161 352.634L649.456 347.611L658.161 342.59L666.866 347.611L658.161 352.634Z" fill="#675EF1"/>
<path d="M658.161 362.687L649.456 357.666L658.161 352.646L666.866 357.666L658.161 362.687Z" fill="#675EF1"/>
<path d="M640.749 362.687L632.044 357.666L640.749 352.646L649.454 357.666L640.749 362.687Z" fill="#675EF1"/>
<path d="M623.335 352.634V342.59L632.04 347.611L623.335 352.634Z" fill="#675EF1"/>
<path d="M632.044 337.564H649.454L640.749 342.585L632.044 337.564Z" fill="#675EF1"/>
<path d="M640.744 362.69L649.449 357.669L658.154 362.69H640.744Z" fill="#675EF1"/>
<path d="M658.152 352.64L666.857 347.618V357.661L658.152 352.64Z" fill="#675EF1"/>
<path d="M597.22 367.713L588.515 362.692L597.22 357.671L605.924 362.692L597.22 367.713Z" fill="#675EF1"/>
<path d="M597.22 377.766L588.515 372.745L597.22 367.724L605.924 372.745L597.22 377.766Z" fill="#675EF1"/>
<path d="M614.629 367.713L605.924 362.692L614.629 357.671L623.334 362.692L614.629 367.713Z" fill="#675EF1"/>
<path d="M632.037 377.766L623.332 372.745L632.037 367.724L640.742 372.745L632.037 377.766Z" fill="#675EF1"/>
<path d="M623.337 382.789L614.632 377.768L623.337 372.748L632.043 377.768L623.337 382.789Z" fill="#675EF1"/>
<path d="M588.515 372.738V362.697L597.22 367.718L588.515 372.738Z" fill="#675EF1"/>
<path d="M597.224 357.671H614.633L605.927 362.692L597.224 357.671Z" fill="#675EF1"/>
<path d="M623.337 362.697V372.749V382.801L614.632 387.828V367.723L623.337 362.697Z" fill="#675EF1"/>
<path d="M666.859 327.494L658.154 322.473L666.859 317.453L675.564 322.473L666.859 327.494Z" fill="#675EF1"/>
<path d="M666.859 337.548L658.154 332.527L666.859 327.506L675.564 332.527L666.859 337.548Z" fill="#675EF1"/>
<path d="M684.267 327.494L675.562 322.473L684.267 317.453L692.973 322.473L684.267 327.494Z" fill="#675EF1"/>
<path d="M701.685 337.548L692.98 332.527L701.685 327.506L710.39 332.527L701.685 337.548Z" fill="#675EF1"/>
<path d="M692.98 342.571L684.275 337.55L692.98 332.529L701.685 337.55L692.98 342.571Z" fill="#675EF1"/>
<path d="M658.154 332.52V322.479L666.859 327.499L658.154 332.52Z" fill="#675EF1"/>
<path d="M666.862 317.453H684.273L675.567 322.473L666.862 317.453Z" fill="#675EF1"/>
<path d="M692.98 322.479V332.531V342.583L684.275 347.609V327.505L692.98 322.479Z" fill="#675EF1"/>
<path d="M198.866 349.084L203.881 346.21L307.143 405.835L308.814 412.569L198.866 349.084Z" fill="#FDB50F"/>
<path d="M203.869 346.211L198.853 349.085L192.215 322.198L198.594 325.856L203.869 346.211Z" fill="#F45916"/>
<path d="M165.564 416.415L195.547 399.103V404.873L170.564 419.298L165.564 416.415Z" fill="#F45916"/>
<path d="M255.51 433.724L250.512 436.609L195.55 404.873V399.103L255.51 433.724Z" fill="#675EF1"/>
<path d="M303.97 393.01L200.53 333.284L200.208 332.042L303.664 391.777L303.97 393.01Z" fill="#FDB50F"/>
<path d="M305.701 399.782L202.261 340.056L201.939 338.814L305.395 398.549L305.701 399.782Z" fill="#FDB50F"/>
<path d="M203.869 346.211L198.853 349.085L192.215 322.198L198.594 325.856L203.869 346.211Z" fill="#F45916"/>
<path d="M273.001 368.817L225.528 399.106L185.552 376.024L233.019 345.732L273.001 368.817Z" fill="#675EF1"/>
<path d="M273.004 368.812L273.622 371.334L225.53 399.101L273.004 368.812Z" fill="#23237C"/>
<path d="M302.318 386.316L198.786 326.538L198.61 325.859L302.151 385.644L302.318 386.316Z" fill="#FDB50F"/>
<path d="M295.491 364.487V358.718L330.466 338.522L330.459 344.297L295.491 364.487Z" fill="#F45916"/>
<path d="M295.48 364.486L265.5 347.177V341.406L295.48 358.717V364.486Z" fill="#675EF1"/>
<path d="M275.49 341.408L300.473 326.983V332.752L280.487 344.292L275.49 341.408Z" fill="#675EF1"/>
<path d="M320.471 338.523L315.475 341.408L300.485 332.752V326.983L320.471 338.523Z" fill="#F45916"/>
<path d="M300.485 358.716L305.481 356.09L310.479 358.716L305.483 361.597L300.485 358.716Z" fill="#675EF1"/>
<path d="M305.475 364.48V361.599L310.471 358.717V361.599L305.475 364.48Z" fill="#675EF1"/>
<path d="M310.475 352.941L315.471 350.315L320.466 352.941L315.471 355.823L310.475 352.941Z" fill="#675EF1"/>
<path d="M315.469 358.708V355.825L320.465 352.943V355.825L315.469 358.708Z" fill="#675EF1"/>
<path d="M320.459 347.168L325.455 344.544L330.451 347.168L325.455 350.051L320.459 347.168Z" fill="#675EF1"/>
<path d="M325.467 352.938V350.057L330.463 347.173V350.057L325.467 352.938Z" fill="#675EF1"/>
<path d="M625.255 404.876L635.247 399.105L645.248 404.87V410.641L635.251 416.418V410.647L625.255 404.876Z" fill="#675EF1"/>
<path d="M645.234 393.334L655.228 387.563L665.227 393.331V399.1L655.231 404.876V399.107L645.234 393.334Z" fill="#675EF1"/>
<path d="M665.279 381.703L675.272 375.934L685.273 381.699V387.47L675.276 393.246V387.475L665.279 381.703Z" fill="#675EF1"/>
<path d="M685.213 370.256L695.207 364.485L705.206 370.25V376.021L695.209 381.797V376.027L685.213 370.256Z" fill="#675EF1"/>
<path d="M705.191 358.714L715.185 352.943L725.186 358.709V364.48L715.189 370.256V364.485L705.191 358.714Z" fill="#675EF1"/>
<path d="M725.179 347.177L735.171 341.406L745.172 347.172V352.943L735.174 358.719V352.948L725.179 347.177Z" fill="#675EF1"/>
<path d="M745.166 335.636L755.16 329.867L765.159 335.633V341.404L755.164 347.18V341.409L745.166 335.636Z" fill="#675EF1"/>
<path d="M765.159 324.094L775.151 318.325L785.151 324.091V329.862L775.154 335.638V329.867L765.159 324.094Z" fill="#675EF1"/>
<path d="M704.156 243.911L534.272 342.003L533.232 336.834L699.039 241.094L704.156 243.911Z" fill="#675EF1"/>
<path d="M704.153 243.918L699.173 241.176L676.244 127.323L680.211 125.032L704.153 243.918Z" fill="#FDB50F"/>
<path d="M410.402 315.442V332.751L770.155 125.029V107.72L410.402 315.442Z" fill="#F45916"/>
<path d="M697.702 229.612V231.055L531.318 327.124L531.06 325.831L697.702 229.612Z" fill="#FDB50F"/>
<path d="M695.877 219.154V220.597L529.259 316.802L529.002 315.51L695.877 219.154Z" fill="#FDB50F"/>
<path d="M693.788 208.821V210.262L527.197 306.453L526.939 305.159L693.788 208.821Z" fill="#FDB50F"/>
<path d="M691.998 198.246V199.688L525.121 296.042L524.864 294.749L691.998 198.246Z" fill="#FDB50F"/>
<path d="M690.038 187.82V189.263L523.064 285.674L522.806 284.38L690.038 187.82Z" fill="#FDB50F"/>
<path d="M687.713 177.672V179.115L521.01 275.367L520.753 274.075L687.713 177.672Z" fill="#FDB50F"/>
<path d="M267.997 339.959L265.5 338.519L270.496 335.636L272.995 337.078L267.997 339.959Z" fill="#675EF1"/>
<path d="M265.5 338.522V341.4L267.997 339.96L265.5 338.522Z" fill="#23237C"/>
<path d="M277.989 334.19L275.49 332.749L280.487 329.867L282.984 331.309L277.989 334.19Z" fill="#675EF1"/>
<path d="M275.49 332.748V335.626L277.989 334.188L275.49 332.748Z" fill="#23237C"/>
<path d="M287.766 328.564L285.267 327.122L290.263 324.241L292.762 325.682L287.766 328.564Z" fill="#675EF1"/>
<path d="M285.267 327.126V330.004L287.766 328.566L285.267 327.126Z" fill="#23237C"/>
<path d="M830.119 188.494L780.154 217.345L775.157 214.46L820.126 188.494L775.157 162.53L780.154 159.645L830.119 188.494Z" fill="#675EF1"/>
<path d="M785.147 202.925L810.13 188.501L785.147 174.075L780.151 176.961L800.136 188.499L780.151 200.041L785.147 202.925Z" fill="#675EF1"/>
<path d="M775.157 214.464V220.227L780.154 223.111V217.346L775.157 214.464Z" fill="#675EF1"/>
<path d="M780.151 200.042V205.804L785.147 208.686V202.923L780.151 200.042Z" fill="#675EF1"/>
<path d="M775.157 162.535L775.173 168.307L780.161 165.422L775.157 162.535Z" fill="#23237C"/>
<path d="M780.147 176.952L780.163 182.724L785.151 179.839L780.147 176.952Z" fill="#23237C"/>
<path d="M285.48 502.962L245.509 479.882L250.45 476.966L285.48 497.193L320.51 476.966L325.453 479.882L285.48 502.962Z" fill="#675EF1"/>
<path d="M260.502 477.001L265.499 474.115L285.485 485.656L305.472 474.115L310.468 477.001L285.485 491.426L260.502 477.001Z" fill="#675EF1"/>
<path d="M245.511 479.882L245.509 485.647L250.478 482.748L245.511 479.882Z" fill="#23237C"/>
<path d="M325.462 479.882V485.647L320.438 482.748L325.462 479.882Z" fill="#23237C"/>
<path d="M310.468 476.997L310.494 482.744L305.457 479.871L310.468 476.997Z" fill="#23237C"/>
<path d="M260.502 476.997V482.76L265.499 479.878L260.502 476.997Z" fill="#23237C"/>
<path d="M80.6439 303.898V298.129L105.627 312.554V318.325L80.6439 303.898Z" fill="#675EF1"/>
<path d="M135.605 295.242L105.626 312.551V318.322L135.605 301.011V295.242Z" fill="#F45916"/>
<path d="M90.6378 298.126L110.625 286.586V292.355L95.6355 301.01L90.6378 298.126Z" fill="#F45916"/>
<path d="M110.621 286.586L125.61 295.232L120.614 298.114L110.621 292.349V286.586Z" fill="#675EF1"/>
<path d="M133.1 299.567L128.104 302.448L133.1 305.33L138.095 302.448L133.1 299.567Z" fill="#675EF1"/>
<path d="M123.111 305.337L118.115 308.218L123.111 311.102L128.108 308.218L123.111 305.337Z" fill="#675EF1"/>
<path d="M113.117 311.109L108.121 313.99L113.117 316.872L118.115 313.99L113.117 311.109Z" fill="#675EF1"/>
<path d="M113.111 316.878L113.113 319.76L118.109 316.878V313.997L113.111 316.878Z" fill="#675EF1"/>
<path d="M123.105 311.104V313.985L128.103 311.104V308.221L123.105 311.104Z" fill="#675EF1"/>
<path d="M133.103 305.337V308.218L138.099 305.337V302.455L133.103 305.337Z" fill="#675EF1"/>
<path d="M80.6432 298.125L85.6392 295.244L83.1403 293.802L78.1444 296.683L80.6432 298.125Z" fill="#675EF1"/>
<path d="M78.1444 296.668V299.547L80.6432 298.108L78.1444 296.668Z" fill="#23237C"/>
<path d="M90.6395 292.349L95.6372 289.467L93.1383 288.026L88.1424 290.909L90.6395 292.349Z" fill="#675EF1"/>
<path d="M88.1424 290.905V293.782L90.6395 292.343L88.1424 290.905Z" fill="#23237C"/>
<path d="M100.626 286.581L105.622 283.7L103.125 282.258L98.1272 285.14L100.626 286.581Z" fill="#675EF1"/>
<path d="M98.1272 285.144V288.021L100.626 286.583L98.1272 285.144Z" fill="#23237C"/>
<path d="M130.597 269.276V275.04L135.595 277.922V272.157L130.597 269.276Z" fill="#675EF1"/>
<path d="M130.597 280.815V286.58L135.595 289.461V283.698L130.597 280.815Z" fill="#675EF1"/>
<path d="M560.3 26.9341V32.6988L555.304 29.8156L560.3 26.9341Z" fill="#23237C"/>
<path d="M250.507 217.351V223.115L245.509 220.232L250.507 217.351Z" fill="#23237C"/>
<path d="M130.597 280.819L245.519 214.464L250.516 217.349L135.595 283.706L130.597 280.819Z" fill="#675EF1"/>
<path d="M265.5 202.925V208.688L270.496 211.572V205.807L265.5 202.925Z" fill="#675EF1"/>
<path d="M290.48 194.265V200.03L285.484 197.147L290.48 194.265Z" fill="#23237C"/>
<path d="M305.481 174.075V179.839L300.485 176.956L305.481 174.075Z" fill="#23237C"/>
<path d="M130.597 269.277L300.481 171.187L305.477 174.071L135.595 272.161L130.597 269.277Z" fill="#675EF1"/>
<path d="M265.5 202.923L285.486 191.384L290.482 194.268L270.496 205.808L265.5 202.923Z" fill="#675EF1"/>
<path d="M510.335 61.5564V67.3211L515.331 70.2026V64.4396L510.335 61.5564Z" fill="#675EF1"/>
<path d="M435.384 93.2908V99.0555L440.382 101.937V96.174L435.384 93.2908Z" fill="#675EF1"/>
<path d="M580.285 26.9341V32.6988L575.287 29.8156L580.285 26.9341Z" fill="#23237C"/>
<path d="M510.335 61.5546L575.289 24.0503L580.287 26.9348L515.331 64.4409L510.335 61.5546Z" fill="#675EF1"/>
<path d="M480.354 90.4114V96.1761L485.35 99.0576V93.2946L480.354 90.4114Z" fill="#675EF1"/>
<path d="M590.277 32.7083V38.4712L585.281 35.5897L590.277 32.7083Z" fill="#23237C"/>
<path d="M480.354 90.406L585.281 29.8201L590.277 32.7064L485.35 93.2923L480.354 90.406Z" fill="#675EF1"/>
<path d="M555.303 24.0503L435.384 93.2898L440.382 96.1761L560.299 26.9348L555.303 24.0503Z" fill="#675EF1"/>
<path d="M130.597 344.292L135.595 347.178L135.597 387.567L130.597 384.683V344.292Z" fill="#675EF1"/>
<path d="M130.597 344.286L165.589 324.099L170.57 326.977L135.595 347.172L130.597 344.286Z" fill="#FDB50F"/>
<path d="M55.6379 370.253V358.713L45.6442 352.942V347.173L60.6339 355.827V373.138L55.6379 370.253Z" fill="#F45916"/>
<path d="M45.6442 341.407V335.636L70.6276 350.062V378.913L65.6316 376.027V352.947L45.6442 341.407Z" fill="#F45916"/>
<path d="M45.6442 329.863V324.092L80.6212 344.288V384.678L75.6235 381.794V347.174L45.6442 329.863Z" fill="#F45916"/>
<path d="M85.6318 387.566V341.406L90.6278 344.291V390.452L85.6318 387.566Z" fill="#F45916"/>
<path d="M95.6125 393.335V358.717L100.607 361.602V396.222L95.6125 393.335Z" fill="#F45916"/>
<path d="M105.615 399.106V376.026L110.613 378.913V401.993L105.615 399.106Z" fill="#F45916"/>
<path d="M90.6278 338.522L85.6318 341.404L90.6278 344.285L95.6273 341.406L90.6278 338.522Z" fill="#F45916"/>
<path d="M95.6125 358.712L100.607 355.829L105.601 358.712L100.607 361.594L95.6125 358.712Z" fill="#F45916"/>
<path d="M105.615 376.02L110.613 373.138L115.609 376.02L110.613 378.903L105.615 376.02Z" fill="#F45916"/>
<path d="M45.6442 347.175L50.642 344.292V350.057L45.6442 347.175Z" fill="#F45916"/>
<path d="M45.6442 335.63L50.642 332.748V338.513L45.6442 335.63Z" fill="#F45916"/>
<path d="M50.642 321.207L45.6442 324.089L50.642 326.972V321.207Z" fill="#F45916"/>
<defs>
<linearGradient id="paint0_linear_427_2295" x1="720.081" y1="378.949" x2="798.872" y2="515.418" gradientUnits="userSpaceOnUse">
<stop stop-color="#F65800"/>
<stop offset="1" stop-color="#F65800" stop-opacity="0"/>
</linearGradient>
<linearGradient id="paint1_linear_427_2295" x1="790.159" y1="228.911" x2="868.949" y2="365.38" gradientUnits="userSpaceOnUse">
<stop stop-color="#F65800"/>
<stop offset="1" stop-color="#F65800" stop-opacity="0"/>
</linearGradient>
<linearGradient id="paint2_linear_427_2295" x1="402.902" y1="452.464" x2="482.351" y2="590.074" gradientUnits="userSpaceOnUse">
<stop stop-color="#F65800"/>
<stop offset="1" stop-color="#F65800" stop-opacity="0"/>
</linearGradient>
<linearGradient id="paint3_linear_427_2295" x1="143.084" y1="438.011" x2="66.0819" y2="571.383" gradientUnits="userSpaceOnUse">
<stop stop-color="#00C052"/>
<stop offset="1" stop-color="#00C052" stop-opacity="0"/>
</linearGradient>
<linearGradient id="paint4_linear_427_2295" x1="567.734" y1="412.105" x2="490.766" y2="545.419" gradientUnits="userSpaceOnUse">
<stop stop-color="#00C052"/>
<stop offset="1" stop-color="#00C052" stop-opacity="0"/>
</linearGradient>
<linearGradient id="paint5_linear_427_2295" x1="298.891" y1="367.413" x2="349.265" y2="287.98" gradientUnits="userSpaceOnUse">
<stop stop-color="#675EF1"/>
<stop offset="1" stop-color="#23237C"/>
</linearGradient>
<linearGradient id="paint6_linear_427_2295" x1="630.81" y1="277.654" x2="595.046" y2="209.708" gradientUnits="userSpaceOnUse">
<stop stop-color="#F45916"/>
<stop offset="1" stop-color="#CE193C"/>
</linearGradient>
<linearGradient id="paint7_linear_427_2295" x1="260.474" y1="381.245" x2="273.718" y2="357.065" gradientUnits="userSpaceOnUse">
<stop stop-color="#675EF1"/>
<stop offset="1" stop-color="#23237C"/>
</linearGradient>
</defs>
</svg>
