<svg width="952" height="1019" viewBox="0 0 952 1019" fill="none" xmlns="http://www.w3.org/2000/svg">
<rect width="541.622" height="557.028" transform="matrix(0.866025 0.5 -0.866025 0.5 482.942 137.045)" fill="#FEB600"/>
<path d="M469.597 686.37L950.398 408.78L950.398 1093.02L469.597 1093.02L469.597 686.37Z" fill="url(#paint0_linear_129_121)"/>
<path d="M0.443848 415.504L469.598 686.37L469.598 1089.35L0.443848 1089.35L0.443848 415.504Z" fill="url(#paint1_linear_129_121)"/>
<path d="M431.483 65.3839L508.591 109.905L508.593 103.057" fill="#675EF1"/>
<path d="M134.647 380.62L135.335 414.47L206.09 455.812L206.166 421.521L134.647 380.62Z" fill="#675EF1"/>
<path d="M164.569 362.807L134.647 380.62L206.166 421.521L188.296 431.838L378.102 541.433L395.896 531.158L467.072 572.255L828.889 363.343L496.73 171.552L164.569 362.807Z" fill="#FEB600"/>
<path d="M158.638 195.526L496.73 0.312958L805.164 178.403L467.072 373.616L395.895 332.519L461.142 294.846L295.061 198.952L229.815 236.625L158.638 195.526Z" fill="#FEB600"/>
<path d="M229.815 421.564L158.638 380.466V195.526L229.815 236.625V421.564Z" fill="#675EF1"/>
<path d="M170.502 257.173V222.924L188.296 233.199V267.447L170.502 257.173Z" fill="#FEB600"/>
<path d="M170.502 257.173L176.433 253.748V226.35L170.502 222.924V257.173Z" fill="#F65800"/>
<path d="M188.295 260.597L176.432 253.748V226.35L188.295 233.199V260.597Z" fill="#192044"/>
<path d="M200.16 274.431V240.182L217.954 250.457V284.706L200.16 274.431Z" fill="#FEB600"/>
<path d="M200.233 274.431L206.166 271.007V243.609L200.236 240.182L200.233 274.431Z" fill="#F65800"/>
<path d="M218.03 277.855L206.167 271.007V243.609L218.03 250.457V277.855Z" fill="#192044"/>
<path d="M170.502 298.27V270.872L188.296 281.146V308.545L170.502 298.27Z" fill="#FEB600"/>
<path d="M170.502 270.872V298.27L176.433 294.845V274.296L170.502 270.872Z" fill="#F65800"/>
<path d="M188.295 301.696L176.432 294.845V274.296L188.295 281.146V301.696Z" fill="#192044"/>
<path d="M200.16 315.395V287.997L217.954 298.27V325.67L200.16 315.395Z" fill="#FEB600"/>
<path d="M200.16 287.997V315.395L206.091 311.971V291.421L200.16 287.997Z" fill="#F65800"/>
<path d="M217.955 318.819L206.092 311.971V291.421L217.955 298.27V318.819Z" fill="#192044"/>
<path d="M170.502 339.369V311.969L188.296 322.244V349.642L170.502 339.369Z" fill="#FEB600"/>
<path d="M170.502 311.969V339.369L176.433 335.945V315.395L170.502 311.969Z" fill="#F65800"/>
<path d="M188.295 342.793L176.432 335.945V315.395L188.295 322.244V342.793Z" fill="#192044"/>
<path d="M200.16 356.492V329.094L217.954 339.369V366.767L200.16 356.492Z" fill="#FEB600"/>
<path d="M200.16 329.094V356.492L206.091 353.068V332.518L200.16 329.094Z" fill="#F65800"/>
<path d="M217.955 359.916L206.092 353.068V332.518L217.955 339.369V359.916Z" fill="#192044"/>
<path d="M188.296 373.658V397.589L170.502 387.317V363.301C170.502 359.851 173.331 357.385 176.418 357.385C176.599 357.385 176.783 357.393 176.964 357.412C177.772 357.486 178.587 357.735 179.363 358.184C184.891 361.377 188.296 367.273 188.296 373.658Z" fill="#F65800"/>
<path d="M188.295 373.658V390.741L176.432 383.89V359.876C176.432 358.98 176.624 358.148 176.964 357.412C177.772 357.486 178.586 357.735 179.362 358.184C184.89 361.377 188.295 367.273 188.295 373.658Z" fill="#192044"/>
<path d="M176.433 383.89L170.502 387.317L188.296 397.589V390.741L176.433 383.89Z" fill="#FEB600"/>
<path d="M217.954 390.781V414.715L200.16 404.44V380.424C200.16 376.976 202.992 374.508 206.078 374.508C206.26 374.508 206.441 374.516 206.623 374.535C207.431 374.611 208.245 374.86 209.021 375.307C214.549 378.499 217.954 384.399 217.954 390.781Z" fill="#F65800"/>
<path d="M217.955 390.781V407.864L206.092 401.015V376.999C206.092 376.103 206.284 375.271 206.623 374.535C207.432 374.611 208.246 374.86 209.022 375.307C214.55 378.499 217.955 384.398 217.955 390.781Z" fill="#192044"/>
<path d="M206.091 401.015L200.158 404.44L217.953 414.714V407.864L206.091 401.015Z" fill="#FEB600"/>
<path d="M258.279 336.744L293.868 357.296C293.868 344.58 287.085 332.831 276.071 326.472C268.164 321.906 258.279 327.613 258.279 336.744Z" fill="#675EF1"/>
<path d="M212.021 431.838V171.552L378.101 267.448V527.734L212.021 431.838Z" fill="#675EF1"/>
<path d="M342.516 507.186L247.615 452.39L247.61 294.981C247.655 270.576 274.078 255.352 295.21 267.555C309.848 276.007 321.673 288.043 329.841 302.19C331.406 304.903 332.838 307.694 334.13 310.553C338.657 320.573 341.455 331.421 342.265 342.648C342.436 344.971 342.518 347.308 342.514 349.659V507.186H342.516Z" fill="#F65800"/>
<path d="M342.515 472.937L277.267 435.264V277.855C277.275 272.49 278.558 267.57 280.782 263.287C285.622 263.504 290.544 264.861 295.209 267.555C309.846 276.007 321.672 288.043 329.839 302.19C331.405 304.903 332.837 307.694 334.128 310.553C338.656 320.573 341.454 331.421 342.264 342.648C342.435 344.971 342.517 347.308 342.513 349.659V472.937H342.515Z" fill="#F65800"/>
<path d="M342.517 472.933L277.268 435.26V277.851C277.277 272.486 278.56 267.566 280.783 263.283C285.623 263.5 290.545 264.857 295.21 267.551C309.848 276.003 321.674 288.039 329.841 302.186C331.406 304.899 332.839 307.69 334.13 310.549C338.658 320.568 341.455 331.417 342.266 342.643C342.436 344.966 342.519 347.304 342.514 349.654V472.933H342.517Z" fill="#192044"/>
<path d="M253.542 448.959V291.417L348.444 346.213V503.756L253.542 448.959Z" fill="#675EF1"/>
<path d="M342.264 342.648L253.542 291.421L277.267 277.722L334.129 310.553C338.656 320.573 341.454 331.421 342.264 342.648Z" fill="#FEB600"/>
<path d="M265.404 462.66V428.414L336.58 469.511V503.76L265.404 462.66Z" fill="#FEB600"/>
<path d="M247.61 452.388L253.541 448.961L342.514 500.333V507.184L247.61 452.388Z" fill="#FEB600"/>
<path d="M271.336 452.388L271.334 431.838L265.404 428.414V455.812L271.336 452.388Z" fill="#F65800"/>
<path d="M336.581 490.061L271.337 452.388L271.335 431.838L336.581 469.511V490.061Z" fill="#192044"/>
<path d="M253.542 401.016L271.334 390.741L342.513 431.838V452.388L300.992 428.414L253.542 401.016Z" fill="#FEB600"/>
<path d="M247.61 404.44L265.405 394.165V332.519L247.61 342.793V404.44Z" fill="#F65800"/>
<path d="M300.993 401.016V428.414L297.771 400.529L300.993 401.016Z" fill="#FEB600"/>
<path d="M295.061 356.492V418.139L289.128 414.715V353.068L295.061 356.492Z" fill="#675EF1"/>
<path d="M265.404 339.369V401.016L259.474 397.589V335.943L265.404 339.369Z" fill="#675EF1"/>
<path d="M324.719 373.616V435.262L318.786 431.838V370.191L324.719 373.616Z" fill="#675EF1"/>
<path d="M253.542 339.369L271.334 329.094L348.444 373.615V394.165L253.542 339.369Z" fill="#F65800"/>
<path d="M306.925 411.289V383.89L312.856 387.315V407.864L306.925 411.289Z" fill="#F65800"/>
<path d="M259.473 329.094L253.542 332.518V339.369L259.475 342.793L265.403 346.217L265.405 339.369L271.336 335.945L271.338 349.644L289.13 359.914L306.925 349.642L272.07 327.951L259.473 329.094Z" fill="#675EF1"/>
<path d="M318.786 411.288L312.856 407.864L306.925 411.288L318.786 418.139V411.288Z" fill="#FEB600"/>
<path d="M289.13 359.914L312.855 373.616C312.855 365.138 308.331 357.305 300.991 353.066C295.719 350.022 289.13 353.828 289.13 359.914Z" fill="#F65800"/>
<path d="M318.786 377.04L342.511 390.741C342.511 382.264 337.988 374.43 330.647 370.191C325.375 367.147 318.786 370.953 318.786 377.04Z" fill="#F65800"/>
<path d="M289.13 366.759L295.06 363.334L295.2 356.404L300.993 352.823V366.759L312.857 380.458L324.72 387.308V373.609L330.651 370.183V383.882L349.169 398.014C349.169 398.014 352.544 391.425 352.272 388.486C352 385.545 350.747 369.647 350.203 368.885C349.658 368.124 334.586 358.115 331.558 355.959C328.531 353.802 311.327 346.779 311.327 346.779L300.025 345.338C300.025 345.338 290.529 347.104 287.37 347.758C284.212 348.412 283.613 350.1 283.613 353.638C283.613 357.176 289.13 366.757 289.13 366.757V366.759Z" fill="#675EF1"/>
<path d="M259.474 301.694V329.092L275.202 341.586L284.023 349.836L292.785 351.633L308.28 361.63C308.28 361.63 312.438 365.655 312.858 366.09C313.278 366.524 321.825 370.191 321.825 370.191L338.417 375.563L342.516 377.04V349.642L259.476 301.694H259.474Z" fill="#F65800"/>
<path d="M265.404 321.978V305.12L342.511 349.658L342.515 377.042L324.717 366.499L316.716 368.839L309.889 360.454C309.889 360.454 302.015 352.397 301.581 352.287C301.146 352.178 290.799 349.783 290.799 349.783C290.799 349.783 287.371 352.021 287.314 351.855C287.257 351.688 283.831 351.853 283.613 350.218C283.396 348.582 282.305 346.298 280.89 344.772C279.474 343.247 271.524 336.487 270.328 335.675C269.129 334.862 265.404 332.518 265.404 332.518V321.976V321.978Z" fill="#192044"/>
<path d="M289.128 353.064L324.717 373.615C324.717 360.9 317.934 349.15 306.92 342.791C299.013 338.225 289.128 343.932 289.128 353.064Z" fill="#FEB600"/>
<path d="M318.786 370.189L354.374 390.741C354.374 378.025 347.591 366.275 336.578 359.916C328.671 355.351 318.786 361.058 318.786 370.189Z" fill="#FEB600"/>
<path d="M259.474 335.941L295.062 356.492C295.062 343.777 288.279 332.027 277.266 325.668C269.358 321.102 259.474 326.809 259.474 335.941Z" fill="#FEB600"/>
<path d="M283.198 356.49L318.787 377.042C318.787 364.326 312.004 352.577 300.99 346.218C293.083 341.652 283.198 347.359 283.198 356.49Z" fill="#675EF1"/>
<path d="M312.856 373.624L348.445 394.176C348.445 381.46 341.662 369.71 330.648 363.351C322.741 358.786 312.856 364.493 312.856 373.624Z" fill="#675EF1"/>
<path d="M265.404 325.67L259.474 329.094L264.033 329.428L265.176 327.896L265.404 325.67Z" fill="#FEB600"/>
<path d="M253.542 339.365L289.13 359.917C289.13 347.201 282.347 335.451 271.334 329.092C263.427 324.527 253.542 330.234 253.542 339.365Z" fill="#675EF1"/>
<path d="M318.788 377.042H318.786C318.786 372.653 322.208 369.455 326.092 369.147C325.234 370.392 324.717 371.917 324.717 373.618" fill="#F65800"/>
<path d="M296.436 352.02C295.577 353.264 295.063 354.788 295.063 356.488L289.132 359.914H289.13C289.13 355.526 292.552 352.328 296.436 352.02Z" fill="#F65800"/>
<path d="M342.513 360.292V397.587L360.874 401.699C360.874 401.699 360.957 389.758 360.874 387.317C360.792 384.876 359.077 366.826 358.425 365.193C357.771 363.56 342.515 360.292 342.515 360.292H342.513Z" fill="#675EF1"/>
<path d="M266.78 334.898C265.921 336.143 265.406 337.666 265.406 339.367L259.476 342.793H259.474C259.474 338.405 262.896 335.206 266.78 334.898Z" fill="#F65800"/>
<path d="M265.406 339.369L271.336 335.945L271.334 397.589L265.404 401.016L265.406 339.369Z" fill="#F65800"/>
<path d="M295.062 356.492L300.992 353.068V414.715L295.062 418.139V356.492Z" fill="#F65800"/>
<path d="M324.719 373.616L330.65 370.191V431.838L324.719 435.262V373.616Z" fill="#F65800"/>
<path d="M212.021 171.552L295.061 123.604L461.142 219.5L378.101 267.447L212.021 171.552Z" fill="#FEB600"/>
<path d="M241.679 174.978V154.429L372.169 229.775V250.324L241.679 174.978Z" fill="#675EF1"/>
<path d="M372.169 250.324L431.484 216.076V195.526L372.169 229.775V250.324Z" fill="#F65800"/>
<path d="M241.679 154.429L300.992 120.18L431.484 195.526L372.169 229.775L241.679 154.429Z" fill="#FEB600"/>
<path d="M461.143 219.5V479.786L378.102 527.734V267.447L461.143 219.5Z" fill="#F65800"/>
<path d="M467.072 558.556L395.896 517.459V332.519L467.072 373.616V558.556Z" fill="#675EF1"/>
<path d="M467.073 373.618L805.165 178.403V363.343L467.073 558.556V373.618Z" fill="#F65800"/>
<path d="M395.896 332.518L461.142 294.845L532.321 335.943L467.072 373.616L395.896 332.518Z" fill="#FEB600"/>
<path d="M437.415 517.417V541.433L455.209 551.708V527.774C455.209 521.392 451.804 515.492 446.276 512.3C442.337 510.026 437.415 512.868 437.415 517.417Z" fill="#FEB600"/>
<path d="M407.757 394.165L407.759 359.916L425.553 370.191V404.44L407.757 394.165Z" fill="#FEB600"/>
<path d="M407.757 394.165L413.69 390.741V363.343L407.759 359.916L407.757 394.165Z" fill="#F65800"/>
<path d="M425.554 397.589L413.69 390.741V363.343L425.554 370.191V397.589Z" fill="#192044"/>
<path d="M437.415 411.424L437.417 377.175L455.211 387.45V421.698L437.415 411.424Z" fill="#FEB600"/>
<path d="M437.492 411.424L443.422 407.997V380.601L437.492 377.175V411.424Z" fill="#F65800"/>
<path d="M455.285 414.848L443.422 407.997V380.601L455.285 387.45V414.848Z" fill="#192044"/>
<path d="M407.757 435.262L407.759 407.864L425.553 418.139V445.537L407.757 435.262Z" fill="#FEB600"/>
<path d="M407.759 407.864L407.757 435.262L413.69 431.838V411.288L407.759 407.864Z" fill="#F65800"/>
<path d="M425.554 438.689L413.69 431.838V411.288L425.554 418.139V438.689Z" fill="#192044"/>
<path d="M437.415 452.388L437.417 424.99L455.209 435.263L455.211 462.663L437.415 452.388Z" fill="#FEB600"/>
<path d="M437.417 424.99L437.415 452.388L443.348 448.964V428.414L437.417 424.99Z" fill="#F65800"/>
<path d="M455.212 455.812L443.348 448.964V428.414L455.212 435.262V455.812Z" fill="#192044"/>
<path d="M407.757 476.362L407.759 448.961L425.553 459.236V486.634L407.757 476.362Z" fill="#FEB600"/>
<path d="M407.759 448.961L407.757 476.362L413.69 472.937V452.388L407.759 448.961Z" fill="#F65800"/>
<path d="M425.554 479.786L413.69 472.938V452.388L425.554 459.236V479.786Z" fill="#192044"/>
<path d="M437.415 493.485L437.417 466.087L455.209 476.362L455.211 503.76L437.415 493.485Z" fill="#FEB600"/>
<path d="M437.417 466.087L437.415 493.485L443.348 490.061V469.511L437.417 466.087Z" fill="#F65800"/>
<path d="M455.212 496.909L443.348 490.061V469.511L455.212 476.361V496.909Z" fill="#192044"/>
<path d="M425.553 510.65V534.582L407.759 524.309V500.293C407.759 496.844 410.588 494.377 413.675 494.377C413.856 494.377 414.04 494.386 414.221 494.405C415.029 494.479 415.844 494.728 416.62 495.177C422.148 498.369 425.553 504.266 425.553 510.65Z" fill="#F65800"/>
<path d="M425.554 510.65V527.734L413.69 520.883V496.869C413.69 495.972 413.882 495.141 414.222 494.405C415.03 494.479 415.845 494.728 416.621 495.177C422.149 498.369 425.554 504.266 425.554 510.65Z" fill="#192044"/>
<path d="M413.69 520.883L407.757 524.307L425.553 534.582L425.551 527.734L413.69 520.883Z" fill="#FEB600"/>
<path d="M455.209 527.774V551.707L437.415 541.433V517.416C437.415 513.969 440.246 511.501 443.333 511.501C443.514 511.501 443.696 511.509 443.877 511.528C444.685 511.602 445.502 511.853 446.278 512.3C451.806 515.492 455.211 521.391 455.209 527.774Z" fill="#F65800"/>
<path d="M455.209 527.774V544.857L443.348 538.008V513.992C443.348 513.096 443.54 512.264 443.878 511.528C444.686 511.602 445.502 511.853 446.279 512.3C451.806 515.492 455.212 521.391 455.209 527.774Z" fill="#192044"/>
<path d="M443.348 538.008L437.415 541.433L455.209 551.707V544.857L443.348 538.008Z" fill="#FEB600"/>
<path d="M478.934 551.707V527.746C478.934 521.381 482.331 515.496 487.844 512.315C491.794 510.034 496.729 512.885 496.729 517.444V541.432L478.934 551.707Z" fill="#675EF1"/>
<path d="M473.004 548.281V524.32C473.004 517.955 476.401 512.07 481.914 508.889C485.864 506.608 490.799 509.458 490.799 514.018V538.006L473.004 548.281Z" fill="#F65800"/>
<path d="M496.729 541.433L490.798 538.008L478.934 544.857V551.707L496.729 541.433Z" fill="#FEB600"/>
<path d="M478.934 503.76L496.729 493.485V466.087L478.934 476.362V503.76Z" fill="#675EF1"/>
<path d="M473.004 500.336L490.799 490.061V462.661L473.004 472.935V500.336Z" fill="#F65800"/>
<path d="M496.729 493.485L490.798 490.061L478.934 496.909V503.76L496.729 493.485Z" fill="#FEB600"/>
<path d="M478.934 462.663L496.729 452.388V424.988L478.934 435.262V462.663Z" fill="#675EF1"/>
<path d="M473.004 459.236L490.799 448.961V421.563L473.004 431.838V459.236Z" fill="#F65800"/>
<path d="M496.729 452.388L490.798 448.961L478.934 455.812V462.662L496.729 452.388Z" fill="#FEB600"/>
<path d="M478.934 421.563L496.729 411.291V377.042L478.934 387.317V421.563Z" fill="#675EF1"/>
<path d="M473.004 418.139L490.799 407.864V373.616L473.004 383.89V418.139Z" fill="#F65800"/>
<path d="M496.729 411.442L490.798 408.018L478.934 414.867V421.717L496.729 411.442Z" fill="#FEB600"/>
<path d="M508.591 534.582V510.621C508.591 504.255 511.988 498.371 517.501 495.19C521.45 492.909 526.385 495.759 526.385 500.318V524.307L508.591 534.582Z" fill="#675EF1"/>
<path d="M502.661 531.158V507.196C502.661 500.831 506.058 494.947 511.571 491.765C515.52 489.485 520.455 492.335 520.455 496.894V520.883L502.661 531.158Z" fill="#F65800"/>
<path d="M526.385 524.309L520.454 520.883L508.591 527.734V534.582L526.385 524.309Z" fill="#FEB600"/>
<path d="M508.591 486.636L526.385 476.362L526.387 448.961L508.591 459.236V486.636Z" fill="#675EF1"/>
<path d="M502.661 483.21L520.455 472.935L520.457 445.537L502.661 455.812V483.21Z" fill="#F65800"/>
<path d="M526.385 476.362L520.454 472.935L508.593 479.786L508.591 486.636L526.385 476.362Z" fill="#FEB600"/>
<path d="M508.591 445.537L526.385 435.262L526.387 407.864L508.591 418.139V445.537Z" fill="#675EF1"/>
<path d="M502.661 442.113L520.455 431.838L520.457 404.44L502.661 414.715V442.113Z" fill="#F65800"/>
<path d="M526.385 435.262L520.454 431.838L508.593 438.689L508.591 445.537L526.385 435.262Z" fill="#FEB600"/>
<path d="M508.591 404.44L526.385 394.165L526.387 359.917L508.591 370.191V404.44Z" fill="#675EF1"/>
<path d="M502.661 401.016L520.455 390.741L520.457 356.492L502.661 366.767V401.016Z" fill="#F65800"/>
<path d="M526.385 394.319L520.454 390.893L508.593 397.743L508.591 404.594L526.385 394.319Z" fill="#FEB600"/>
<path d="M538.249 517.459V493.498C538.249 487.132 541.645 481.248 547.158 478.066C551.108 475.786 556.043 478.636 556.043 483.195V507.184L538.249 517.459Z" fill="#675EF1"/>
<path d="M532.319 514.035V490.073C532.319 483.708 535.715 477.824 541.228 474.642C545.178 472.362 550.113 475.212 550.113 479.771V503.76L532.319 514.035Z" fill="#F65800"/>
<path d="M556.043 507.184L550.112 503.76L538.249 510.61V517.459L556.043 507.184Z" fill="#FEB600"/>
<path d="M538.249 469.511L556.043 459.236V431.838L538.249 442.113V469.511Z" fill="#675EF1"/>
<path d="M532.319 466.087L550.113 455.812V428.414L532.319 438.689V466.087Z" fill="#F65800"/>
<path d="M556.043 459.236L550.112 455.812L538.249 462.663V469.511L556.043 459.236Z" fill="#FEB600"/>
<path d="M538.249 428.414L556.043 418.139V390.741L538.249 401.016V428.414Z" fill="#675EF1"/>
<path d="M532.319 424.99L550.113 414.715V387.315L532.319 397.59V424.99Z" fill="#F65800"/>
<path d="M556.043 418.139L550.112 414.715L538.249 421.563V428.414L556.043 418.139Z" fill="#FEB600"/>
<path d="M538.249 387.317L556.043 377.042V342.793L538.249 353.068V387.317Z" fill="#675EF1"/>
<path d="M532.319 383.89L550.113 373.617V339.369L532.319 349.644V383.89Z" fill="#F65800"/>
<path d="M556.043 377.194L550.112 373.77L538.249 380.62V387.469L556.043 377.194Z" fill="#FEB600"/>
<path d="M567.917 500.327V476.366C567.917 470 571.314 464.116 576.827 460.934C580.777 458.654 585.711 461.504 585.711 466.063V490.052L567.917 500.327Z" fill="#675EF1"/>
<path d="M561.986 496.903V472.942C561.986 466.576 565.382 460.692 570.895 457.51C574.845 455.23 579.78 458.08 579.78 462.639V486.628L561.986 496.903Z" fill="#F65800"/>
<path d="M585.711 490.052L579.781 486.628L567.917 493.477V500.327L585.711 490.052Z" fill="#FEB600"/>
<path d="M567.917 452.379L585.711 442.104V414.706L567.917 424.981V452.379Z" fill="#675EF1"/>
<path d="M561.986 448.955L579.78 438.68V411.282L561.986 421.557V448.955Z" fill="#F65800"/>
<path d="M585.711 442.105L579.781 438.68L567.917 445.529V452.379L585.711 442.105Z" fill="#FEB600"/>
<path d="M567.917 411.282L585.711 401.007V373.609L567.917 383.882V411.282Z" fill="#675EF1"/>
<path d="M561.986 407.856L579.78 397.583V370.183L561.986 380.458V407.856Z" fill="#F65800"/>
<path d="M585.711 401.007L579.781 397.583L567.917 404.431V411.282L585.711 401.007Z" fill="#FEB600"/>
<path d="M567.917 370.183L585.711 359.91V325.662L567.917 335.936V370.183Z" fill="#675EF1"/>
<path d="M561.986 366.758L579.78 356.484V322.237L561.986 332.51V366.758Z" fill="#F65800"/>
<path d="M585.711 360.062L579.781 356.638L567.917 363.486V370.337L585.711 360.062Z" fill="#FEB600"/>
<path d="M597.563 483.21V459.249C597.563 452.884 600.96 446.999 606.473 443.818C610.423 441.537 615.357 444.387 615.357 448.947V472.935L597.563 483.21Z" fill="#675EF1"/>
<path d="M591.632 479.786V455.825C591.632 449.459 595.029 443.575 600.542 440.393C604.491 438.113 609.426 440.963 609.426 445.522V469.511L591.632 479.786Z" fill="#F65800"/>
<path d="M615.357 472.935L609.425 469.511L597.563 476.362V483.21L615.357 472.935Z" fill="#FEB600"/>
<path d="M597.563 435.262L615.357 424.989V397.589L597.563 407.864V435.262Z" fill="#675EF1"/>
<path d="M591.633 431.838L609.427 421.563V394.165L591.633 404.44V431.838Z" fill="#F65800"/>
<path d="M615.357 424.99L609.426 421.563L597.563 428.414V435.262L615.357 424.99Z" fill="#FEB600"/>
<path d="M597.562 394.165L615.358 383.89V356.492L597.562 366.767V394.165Z" fill="#675EF1"/>
<path d="M591.632 390.741L609.428 380.466V353.068L591.632 363.343V390.741Z" fill="#F65800"/>
<path d="M615.357 383.89L609.427 380.466L597.563 387.317V394.165L615.357 383.89Z" fill="#FEB600"/>
<path d="M597.562 353.068L615.358 342.793V308.545L597.562 318.819V353.068Z" fill="#675EF1"/>
<path d="M591.632 349.644L609.428 339.369V305.12L591.632 315.395V349.644Z" fill="#F65800"/>
<path d="M615.357 342.947L609.427 339.521L597.563 346.371V353.22L615.357 342.947Z" fill="#FEB600"/>
<path d="M627.219 466.087V442.126C627.219 435.76 630.616 429.876 636.129 426.694C640.079 424.414 645.014 427.264 645.014 431.823V455.812L627.219 466.087Z" fill="#675EF1"/>
<path d="M621.29 462.662V438.701C621.29 432.336 624.686 426.452 630.199 423.27C634.149 420.989 639.084 423.84 639.084 428.399V452.388L621.29 462.662Z" fill="#F65800"/>
<path d="M645.014 455.812L639.083 452.388L627.219 459.236V466.087L645.014 455.812Z" fill="#FEB600"/>
<path d="M627.219 418.139L645.014 407.864L645.016 380.466L627.219 390.741V418.139Z" fill="#675EF1"/>
<path d="M621.29 414.715L639.084 404.44L639.086 377.042L621.29 387.317V414.715Z" fill="#F65800"/>
<path d="M645.014 407.864L639.083 404.44L627.222 411.288L627.219 418.139L645.014 407.864Z" fill="#FEB600"/>
<path d="M627.219 377.042L645.014 366.767V339.369L627.219 349.644V377.042Z" fill="#675EF1"/>
<path d="M621.29 373.615L639.084 363.343V335.943L621.29 346.217V373.615Z" fill="#F65800"/>
<path d="M645.014 366.767L639.083 363.343L627.222 370.191L627.219 377.042L645.014 366.767Z" fill="#FEB600"/>
<path d="M627.219 335.945L645.014 325.67V291.421L627.219 301.696V335.945Z" fill="#675EF1"/>
<path d="M621.29 332.518L639.084 322.244V287.997L621.29 298.27V332.518Z" fill="#F65800"/>
<path d="M645.014 325.822L639.083 322.398L627.222 329.246L627.219 336.097L645.014 325.822Z" fill="#FEB600"/>
<path d="M656.877 448.961V425C656.877 418.635 660.274 412.751 665.787 409.569C669.737 407.288 674.671 410.139 674.671 414.698V438.687L656.877 448.961Z" fill="#675EF1"/>
<path d="M650.947 445.537V421.576C650.947 415.211 654.344 409.326 659.857 406.145C663.807 403.864 668.741 406.714 668.741 411.274V435.262L650.947 445.537Z" fill="#F65800"/>
<path d="M674.671 438.689L668.741 435.263L656.877 442.113V448.961L674.671 438.689Z" fill="#FEB600"/>
<path d="M656.877 401.016L674.671 390.741V363.343L656.877 373.616V401.016Z" fill="#675EF1"/>
<path d="M650.947 397.589L668.741 387.317V359.916L650.947 370.191V397.589Z" fill="#F65800"/>
<path d="M674.671 390.741L668.741 387.317L656.877 394.165V401.016L674.671 390.741Z" fill="#FEB600"/>
<path d="M656.877 359.916L674.671 349.644V322.244L656.877 332.518V359.916Z" fill="#675EF1"/>
<path d="M650.947 356.492L668.741 346.218V318.819L650.947 329.094V356.492Z" fill="#F65800"/>
<path d="M674.671 349.644L668.741 346.217L656.877 353.068V359.916L674.671 349.644Z" fill="#FEB600"/>
<path d="M656.877 318.819L674.671 308.545V274.296L656.877 284.571V318.819Z" fill="#675EF1"/>
<path d="M650.947 315.395L668.741 305.121V270.872L650.947 281.147V315.395Z" fill="#F65800"/>
<path d="M674.671 308.698L668.741 305.274L656.877 312.123V318.973L674.671 308.698Z" fill="#FEB600"/>
<path d="M686.535 431.838V407.877C686.535 401.512 689.932 395.627 695.445 392.446C699.395 390.165 704.33 393.015 704.33 397.575V421.563L686.535 431.838Z" fill="#675EF1"/>
<path d="M680.605 428.414V404.453C680.605 398.087 684.002 392.203 689.515 389.022C693.465 386.741 698.4 389.591 698.4 394.151V418.139L680.605 428.414Z" fill="#F65800"/>
<path d="M704.33 421.563L698.399 418.139L686.535 424.99V431.838L704.33 421.563Z" fill="#FEB600"/>
<path d="M686.535 383.89L704.33 373.618V346.217L686.535 356.492V383.89Z" fill="#675EF1"/>
<path d="M680.605 380.466L698.4 370.191V342.793L680.605 353.068V380.466Z" fill="#F65800"/>
<path d="M704.33 373.618L698.399 370.191L686.535 377.042V383.89L704.33 373.618Z" fill="#FEB600"/>
<path d="M686.535 342.793L704.33 332.518V305.12L686.535 315.395V342.793Z" fill="#675EF1"/>
<path d="M680.605 339.369L698.4 329.094V301.696L680.605 311.971V339.369Z" fill="#F65800"/>
<path d="M704.33 332.518L698.399 329.094L686.535 335.943V342.793L704.33 332.518Z" fill="#FEB600"/>
<path d="M686.535 301.696L704.33 291.421V257.173L686.535 267.447V301.696Z" fill="#675EF1"/>
<path d="M680.605 298.272L698.4 287.997V253.748L680.605 264.023V298.272Z" fill="#F65800"/>
<path d="M704.33 291.575L698.399 288.149L686.535 295V301.848L704.33 291.575Z" fill="#FEB600"/>
<path d="M716.19 414.715V390.754C716.19 384.388 719.587 378.504 725.1 375.322C729.05 373.042 733.984 375.892 733.984 380.451V404.44L716.19 414.715Z" fill="#675EF1"/>
<path d="M710.26 411.291V387.329C710.26 380.964 713.657 375.08 719.17 371.898C723.12 369.618 728.055 372.468 728.055 377.027V401.016L710.26 411.291Z" fill="#F65800"/>
<path d="M733.984 404.44L728.054 401.016L716.19 407.864V414.715L733.984 404.44Z" fill="#FEB600"/>
<path d="M716.19 366.767L733.984 356.493L733.987 329.094L716.19 339.369V366.767Z" fill="#675EF1"/>
<path d="M710.26 363.343L728.055 353.068L728.057 325.67L710.26 335.943V363.343Z" fill="#F65800"/>
<path d="M733.984 356.493L728.054 353.068L716.192 359.917L716.19 366.767L733.984 356.493Z" fill="#FEB600"/>
<path d="M716.19 325.67L733.984 315.395V287.997L716.19 298.27V325.67Z" fill="#675EF1"/>
<path d="M710.26 322.244L728.055 311.971V284.571L710.26 294.846V322.244Z" fill="#F65800"/>
<path d="M733.984 315.395L728.054 311.971L716.192 318.819L716.19 325.67L733.984 315.395Z" fill="#FEB600"/>
<path d="M716.19 284.571L733.984 274.298V240.049L716.19 250.324V284.571Z" fill="#675EF1"/>
<path d="M710.26 281.147L728.055 270.872V236.623L710.26 246.898V281.147Z" fill="#F65800"/>
<path d="M733.984 274.45L728.054 271.026L716.192 277.874L716.19 284.725L733.984 274.45Z" fill="#FEB600"/>
<path d="M745.85 397.589V373.628C745.85 367.263 749.247 361.379 754.76 358.197C758.709 355.916 763.644 358.767 763.644 363.326V387.315L745.85 397.589Z" fill="#675EF1"/>
<path d="M739.918 394.165V370.204C739.918 363.839 743.315 357.955 748.828 354.773C752.778 352.492 757.713 355.343 757.713 359.902V383.891L739.918 394.165Z" fill="#F65800"/>
<path d="M763.644 387.317L757.713 383.891L745.85 390.741V397.59L763.644 387.317Z" fill="#FEB600"/>
<path d="M745.85 349.644L763.644 339.369L763.646 311.969L745.85 322.244V349.644Z" fill="#675EF1"/>
<path d="M739.918 346.218L757.713 335.945L757.715 308.545L739.918 318.819V346.218Z" fill="#F65800"/>
<path d="M763.644 339.369L757.713 335.945L745.852 342.793L745.85 349.644L763.644 339.369Z" fill="#FEB600"/>
<path d="M745.85 308.545L763.644 298.27V270.872L745.85 281.147V308.545Z" fill="#675EF1"/>
<path d="M739.918 305.121L757.713 294.846V267.448L739.918 277.722V305.121Z" fill="#F65800"/>
<path d="M763.644 298.27L757.713 294.845L745.852 301.696L745.85 308.545L763.644 298.27Z" fill="#FEB600"/>
<path d="M745.85 267.448L763.644 257.173V222.924L745.85 233.199V267.448Z" fill="#675EF1"/>
<path d="M739.918 264.023L757.713 253.748V219.5L739.918 229.775V264.023Z" fill="#F65800"/>
<path d="M763.644 257.327L757.713 253.903L745.852 260.751L745.85 267.602L763.644 257.327Z" fill="#FEB600"/>
<path d="M775.506 380.466V356.505C775.506 350.14 778.903 344.255 784.416 341.074C788.366 338.793 793.301 341.643 793.301 346.203V370.191L775.506 380.466Z" fill="#675EF1"/>
<path d="M769.575 377.042V353.081C769.575 346.716 772.972 340.831 778.485 337.65C782.434 335.369 787.369 338.219 787.369 342.779V366.767L769.575 377.042Z" fill="#F65800"/>
<path d="M793.301 370.191L787.37 366.767L775.506 373.618V380.466L793.301 370.191Z" fill="#FEB600"/>
<path d="M775.506 332.518L793.301 322.244V294.846L775.506 305.12V332.518Z" fill="#675EF1"/>
<path d="M769.575 329.094L787.369 318.819V291.421L769.575 301.696V329.094Z" fill="#F65800"/>
<path d="M793.301 322.244L787.37 318.819L775.506 325.67V332.518L793.301 322.244Z" fill="#FEB600"/>
<path d="M775.506 291.421L793.301 281.146V253.748L775.506 264.023V291.421Z" fill="#675EF1"/>
<path d="M769.575 287.997L787.369 277.722V250.324L769.575 260.597V287.997Z" fill="#F65800"/>
<path d="M793.301 281.146L787.37 277.722L775.506 284.571V291.421L793.301 281.146Z" fill="#FEB600"/>
<path d="M775.506 250.324L793.301 240.049V205.801L775.506 216.075V250.324Z" fill="#675EF1"/>
<path d="M769.575 246.898L787.369 236.625V202.376L769.575 212.651V246.898Z" fill="#F65800"/>
<path d="M793.301 240.201L787.37 236.777L775.506 243.628V250.476L793.301 240.201Z" fill="#FEB600"/>
<path d="M395.896 531.158V565.407L467.072 606.504V572.255L395.896 531.158Z" fill="#675EF1"/>
<path d="M395.896 531.158L378.102 541.433V575.681L395.896 565.407V531.158Z" fill="#F65800"/>
<path d="M828.89 363.343L467.073 572.255V606.504L828.89 397.589V363.343Z" fill="#F65800"/>
<path d="M188.296 431.838V466.087L378.102 575.681V541.433L188.296 431.838Z" fill="#675EF1"/>
<path d="M312.856 387.315L318.787 390.741V411.289L312.856 407.864V387.315Z" fill="#192044"/>
<path d="M461.142 41.4098L467.072 44.8341L496.73 27.7108V20.8602L461.142 41.4098Z" fill="#F65800"/>
<path d="M532.32 41.4098L526.389 44.8341L496.731 27.7108V20.8602L532.32 41.4098Z" fill="#675EF1"/>
<path d="M538.25 236.625V209.225L532.319 212.651V233.199L538.25 236.625Z" fill="#192044"/>
<path d="M526.386 229.774V202.376L520.456 205.801V226.35L526.386 229.774Z" fill="#192044"/>
<path d="M514.524 222.924V195.526L508.591 198.952V219.5L514.524 222.924Z" fill="#192044"/>
<path d="M502.662 216.076V188.677L496.731 192.102V212.651L502.662 216.076Z" fill="#192044"/>
<path d="M490.797 209.225V181.827L484.866 185.251V205.801L490.797 209.225Z" fill="#192044"/>
<path d="M478.936 202.377V174.978L473.003 178.403V198.952L478.936 202.377Z" fill="#192044"/>
<path d="M467.072 195.526V168.128L461.142 171.552V192.102L467.072 195.526Z" fill="#192044"/>
<path d="M455.209 188.677V161.277L449.278 164.704V185.251L455.209 188.677Z" fill="#192044"/>
<path d="M443.348 181.827V154.429L437.415 157.853V178.403L443.348 181.827Z" fill="#192044"/>
<path d="M431.484 174.978V147.578L425.553 151.004V171.552L431.484 174.978Z" fill="#192044"/>
<path d="M407.758 161.279V133.879L401.827 137.305V157.853L407.758 161.279Z" fill="#192044"/>
<path d="M419.621 168.128V140.73L413.69 144.154V164.704L419.621 168.128Z" fill="#192044"/>
<path d="M544.183 41.41L496.731 68.8081V82.5071L544.183 55.1091V41.41Z" fill="#F65800"/>
<path d="M449.278 41.41V55.1091L496.73 82.5071V68.8081L449.278 41.41Z" fill="#675EF1"/>
<path d="M520.455 82.507V75.6586L514.524 79.0828V85.9313L520.455 82.507Z" fill="#675EF1"/>
<path d="M502.661 72.2325L508.592 68.8083L520.455 75.6589L514.525 79.0831L502.661 72.2325Z" fill="#675EF1"/>
<path d="M550.113 65.3838V58.5333L544.182 61.9596V68.8081L550.113 65.3838Z" fill="#675EF1"/>
<path d="M532.319 55.1092L538.25 51.6849L550.113 58.5334L544.183 61.9598L532.319 55.1092Z" fill="#675EF1"/>
<path d="M535.285 73.9454V67.0948L529.353 70.5212V77.3697L535.285 73.9454Z" fill="#675EF1"/>
<path d="M517.489 63.6706L523.422 60.2464L535.286 67.0948L529.353 70.5212L517.489 63.6706Z" fill="#675EF1"/>
<path d="M722.124 130.455L579.77 212.652L627.22 240.05L769.576 157.853L722.124 130.455Z" fill="#FEB600"/>
<path d="M627.222 253.748L627.22 240.049L763.643 161.279V174.978L627.222 253.748Z" fill="#F65800"/>
<path d="M579.77 226.35V212.651L627.22 240.049L627.222 253.748L579.77 226.35Z" fill="#675EF1"/>
<path d="M591.632 212.651L597.565 216.075L716.193 147.578V140.73L591.632 212.651Z" fill="#F65800"/>
<path d="M751.782 161.277L745.849 164.704L716.194 147.578V140.73L751.782 161.277Z" fill="#675EF1"/>
<path d="M633.153 243.474L639.084 240.049L650.947 246.898L645.017 250.324L633.153 243.474Z" fill="#675EF1"/>
<path d="M645.016 257.173V250.324L650.947 246.898V253.748L645.016 257.173Z" fill="#675EF1"/>
<path d="M645.015 236.625L650.947 233.199L662.811 240.049L656.878 243.474L645.015 236.625Z" fill="#675EF1"/>
<path d="M656.878 250.324V243.474L662.811 240.049V246.898L656.878 250.324Z" fill="#675EF1"/>
<path d="M656.878 229.775L662.811 226.35L674.672 233.199L668.741 236.625L656.878 229.775Z" fill="#675EF1"/>
<path d="M668.741 243.474V236.625L674.672 233.199V240.049L668.741 243.474Z" fill="#675EF1"/>
<path d="M668.741 222.924L674.672 219.5L686.535 226.35L680.605 229.775L668.741 222.924Z" fill="#675EF1"/>
<path d="M680.606 236.625V229.775L686.537 226.35V233.199L680.606 236.625Z" fill="#675EF1"/>
<path d="M680.606 216.075L686.537 212.651L698.4 219.5L692.467 222.924L680.606 216.075Z" fill="#675EF1"/>
<path d="M692.466 229.775V222.924L698.399 219.5V226.35L692.466 229.775Z" fill="#675EF1"/>
<path d="M692.466 209.225L698.399 205.801L710.26 212.651L704.329 216.076L692.466 209.225Z" fill="#675EF1"/>
<path d="M704.331 222.924V216.075L710.261 212.651V219.5L704.331 222.924Z" fill="#675EF1"/>
<path d="M704.331 202.376L710.261 198.952L722.125 205.801L716.194 209.225L704.331 202.376Z" fill="#675EF1"/>
<path d="M716.194 216.076V209.225L722.125 205.801V212.651L716.194 216.076Z" fill="#675EF1"/>
<path d="M716.194 195.526L722.125 192.102L733.988 198.95L728.055 202.377L716.194 195.526Z" fill="#675EF1"/>
<path d="M728.056 209.225V202.376L733.988 198.95V205.801L728.056 209.225Z" fill="#675EF1"/>
<path d="M728.056 188.677L733.988 185.251L745.85 192.102L739.919 195.526L728.056 188.677Z" fill="#675EF1"/>
<path d="M739.919 202.377V195.526L745.849 192.102V198.95L739.919 202.377Z" fill="#675EF1"/>
<path d="M739.919 181.827L745.849 178.403L757.713 185.251L751.782 188.678L739.919 181.827Z" fill="#675EF1"/>
<path d="M751.782 195.526V188.677L757.713 185.251V192.102L751.782 195.526Z" fill="#675EF1"/>
<path d="M751.782 174.978L757.713 171.552L769.576 178.403L763.643 181.827L751.782 174.978Z" fill="#675EF1"/>
<path d="M763.644 188.678V181.827L769.576 178.403V185.251L763.644 188.678Z" fill="#675EF1"/>
<path d="M585.7 209.225L579.77 205.801L573.837 209.225L579.77 212.651L585.7 209.225Z" fill="#675EF1"/>
<path d="M573.837 216.076V209.225L579.77 212.651L573.837 216.076Z" fill="#192044"/>
<path d="M597.565 202.376L591.633 198.952L585.702 202.376L591.633 205.801L597.565 202.376Z" fill="#675EF1"/>
<path d="M585.702 209.225V202.376L591.633 205.801L585.702 209.225Z" fill="#192044"/>
<path d="M609.427 195.526L603.496 192.102L597.565 195.526L603.496 198.952L609.427 195.526Z" fill="#675EF1"/>
<path d="M597.565 202.377V195.526L603.496 198.952L597.565 202.377Z" fill="#192044"/>
<path d="M621.29 188.677L615.359 185.251L609.428 188.677L615.359 192.102L621.29 188.677Z" fill="#675EF1"/>
<path d="M609.427 195.526L609.429 188.677L615.359 192.102L609.427 195.526Z" fill="#192044"/>
<path d="M633.154 181.827L627.223 178.403L621.29 181.827L627.223 185.251L633.154 181.827Z" fill="#675EF1"/>
<path d="M621.29 188.678V181.827L627.223 185.251L621.29 188.678Z" fill="#192044"/>
<path d="M645.017 174.978L639.084 171.552L633.153 174.978L639.084 178.403L645.017 174.978Z" fill="#675EF1"/>
<path d="M633.153 181.827V174.978L639.084 178.403L633.153 181.827Z" fill="#192044"/>
<path d="M656.878 168.128L650.947 164.704L645.016 168.128L650.947 171.552L656.878 168.128Z" fill="#675EF1"/>
<path d="M645.015 174.978L645.017 168.128L650.947 171.552L645.015 174.978Z" fill="#192044"/>
<path d="M668.741 161.279L662.811 157.853L656.878 161.279L662.811 164.703L668.741 161.279Z" fill="#675EF1"/>
<path d="M656.878 168.128V161.279L662.811 164.704L656.878 168.128Z" fill="#192044"/>
<path d="M680.605 154.429L674.672 151.004L668.741 154.429L674.672 157.853L680.605 154.429Z" fill="#675EF1"/>
<path d="M668.741 161.277V154.429L674.672 157.853L668.741 161.277Z" fill="#192044"/>
<path d="M692.467 147.578L686.537 144.154L680.606 147.578L686.537 151.004L692.467 147.578Z" fill="#675EF1"/>
<path d="M680.606 154.429V147.578L686.537 151.004L680.606 154.429Z" fill="#192044"/>
<path d="M704.329 140.73L698.399 137.305L692.466 140.73L698.399 144.154L704.329 140.73Z" fill="#675EF1"/>
<path d="M692.466 147.578V140.73L698.399 144.154L692.466 147.578Z" fill="#192044"/>
<path d="M455.21 37.9856L449.279 34.5593L443.348 37.9856L449.279 41.4099L455.21 37.9856Z" fill="#675EF1"/>
<path d="M443.348 44.8343V37.9859L449.279 41.4101L443.348 44.8343Z" fill="#192044"/>
<path d="M470.038 29.4242L464.105 25.9978L458.175 29.4242L464.105 32.8485L470.038 29.4242Z" fill="#675EF1"/>
<path d="M458.175 36.2725V29.424L464.105 32.8482L458.175 36.2725Z" fill="#192044"/>
<path d="M484.866 20.8602L478.936 17.436L473.003 20.8602L478.936 24.2866L484.866 20.8602Z" fill="#675EF1"/>
<path d="M473.003 27.7108V20.8602L478.936 24.2866L473.003 27.7108Z" fill="#192044"/>
<path d="M271.335 157.853L306.923 137.305L306.925 144.154L277.268 161.277L271.335 157.853Z" fill="#F65800"/>
<path d="M395.896 195.526L401.827 192.102L306.923 137.303L306.925 144.154L395.896 195.526Z" fill="#675EF1"/>
<path d="M449.278 315.395V281.146L455.209 277.722V311.971L449.278 315.395Z" fill="#675EF1"/>
<path d="M461.142 267.448L478.936 277.722L473.003 281.147L461.142 274.296V267.448Z" fill="#192044"/>
<path d="M478.935 270.872V264.023L455.208 277.722V284.571L478.935 270.872Z" fill="#675EF1"/>
<path d="M461.142 308.544V287.997L478.936 277.722V284.571L467.072 291.421V305.12L461.142 308.544Z" fill="#675EF1"/>
<path d="M360.308 154.429L401.827 130.455L407.76 133.879L366.238 157.853L360.308 154.429Z" fill="#675EF1"/>
<path d="M372.171 161.277L413.69 137.305L419.62 140.73L378.101 164.703L372.171 161.277Z" fill="#675EF1"/>
<path d="M384.032 168.128L425.551 144.154L431.484 147.578L389.963 171.552L384.032 168.128Z" fill="#675EF1"/>
<path d="M395.896 174.978L437.415 151.004L443.347 154.429L401.826 178.402L395.896 174.978Z" fill="#675EF1"/>
<path d="M407.759 181.827L449.278 157.853L455.209 161.277L413.689 185.251L407.759 181.827Z" fill="#675EF1"/>
<path d="M419.62 188.677L461.141 164.704L467.072 168.128L425.551 192.102L419.62 188.677Z" fill="#675EF1"/>
<path d="M431.483 195.526L473.002 171.552L478.935 174.978L431.483 202.376V195.526Z" fill="#675EF1"/>
<path d="M437.415 205.801L484.867 178.403L490.798 181.827L443.348 209.225L437.415 205.801Z" fill="#675EF1"/>
<path d="M449.278 212.651L496.73 185.251L502.661 188.677L455.209 216.076L449.278 212.651Z" fill="#675EF1"/>
<path d="M413.69 246.898L508.592 192.102L514.525 195.526L419.621 250.324L413.69 246.898Z" fill="#675EF1"/>
<path d="M425.553 253.748L520.455 198.952L526.388 202.376L431.484 257.173L425.553 253.748Z" fill="#675EF1"/>
<path d="M437.415 260.597L532.319 205.801L538.25 209.225L443.346 264.023L437.415 260.597Z" fill="#675EF1"/>
<path d="M449.278 267.447L544.18 212.651L550.113 216.075L455.209 270.872L449.278 267.447Z" fill="#675EF1"/>
<path d="M550.113 243.474V216.076L544.182 219.5V240.049L550.113 243.474Z" fill="#192044"/>
<path d="M461.142 253.748L478.936 264.023L473.003 267.448L461.142 260.597V253.748Z" fill="#192044"/>
<path d="M484.866 48.2586V41.4101L490.799 37.9859L508.593 48.2586L514.524 44.8343L520.455 48.2586L502.66 58.5334L496.728 55.1092L502.66 51.6849L490.797 44.8343L484.866 48.2586Z" fill="#675EF1"/>
<path d="M508.593 103.057L431.483 58.5333V65.3838L508.591 109.905L508.593 103.057Z" fill="#675EF1"/>
<path d="M573.837 65.3839V72.2324L680.604 133.881L686.535 130.455L573.837 65.3839Z" fill="#675EF1"/>
<path d="M312.818 127.007L431.485 58.5333V65.3838L318.824 130.476L312.818 127.007Z" fill="#F65800"/>
<path d="M212.022 185.251L194.228 195.526L200.234 198.994L211.984 192.123L212.022 185.251Z" fill="#F65800"/>
<path d="M573.837 65.3839L508.593 103.057L508.591 109.905L573.837 72.2324V65.3839Z" fill="#F65800"/>
<path d="M550.114 195.526V174.978L496.731 144.154V164.704L550.114 195.526Z" fill="#675EF1"/>
<path d="M597.566 147.578L597.452 168.062L550.114 195.526V174.978L597.566 147.578Z" fill="#F65800"/>
<path d="M514.525 147.578L508.594 144.154L544.181 123.604L544.221 130.476L514.525 147.578Z" fill="#F65800"/>
<path d="M585.7 147.578L544.179 123.604L544.219 130.476L579.767 151.004L585.7 147.578Z" fill="#675EF1"/>
<path d="M668.742 188.675H656.879L650.948 192.102V198.95L662.809 205.801H674.673L680.604 202.376V195.526L668.742 188.675ZM668.742 202.376L656.879 195.526L662.809 192.102L674.673 198.95L668.742 202.376Z" fill="#675EF1"/>
<path d="M633.156 202.376H645.017L650.946 205.801L650.948 212.649L656.879 209.225L662.809 212.649L645.017 222.924V216.075V209.225L639.084 205.801L633.156 209.225L639.084 212.651L633.156 216.075L627.223 212.651V205.801L633.156 202.376Z" fill="#675EF1"/>
<path d="M680.608 174.978H692.469L698.398 178.403L698.4 185.251L704.331 181.827L710.261 185.251L692.469 195.526L692.467 188.677L692.469 181.827L686.536 178.403L680.608 181.827L686.536 185.253L680.608 188.677L674.673 185.253L674.675 178.403L680.608 174.978Z" fill="#675EF1"/>
<path d="M704.33 161.279H716.193L719.16 162.99L719.158 166.415H725.09L728.055 168.128V174.976L722.124 178.403H710.263L707.296 176.689L713.227 173.265L716.193 174.976L722.124 171.552L719.16 169.841H713.227V166.415L710.261 164.704L704.33 168.128L707.296 169.841L701.363 173.265L698.399 171.552V164.704L704.33 161.279Z" fill="#675EF1"/>
<path d="M401.827 253.748L461.143 219.5V274.296L401.827 308.545V253.748Z" fill="#F65800"/>
<defs>
<linearGradient id="paint0_linear_129_121" x1="709.997" y1="547.575" x2="874.274" y2="832.11" gradientUnits="userSpaceOnUse">
<stop stop-color="#F65800"/>
<stop offset="1" stop-color="#F65800" stop-opacity="0"/>
</linearGradient>
<linearGradient id="paint1_linear_129_121" x1="235.021" y1="550.937" x2="89.1294" y2="803.628" gradientUnits="userSpaceOnUse">
<stop stop-color="#00C052"/>
<stop offset="1" stop-color="#00C052" stop-opacity="0"/>
</linearGradient>
</defs>
</svg>
