<svg width="308" height="220" viewBox="0 0 308 220" fill="none" xmlns="http://www.w3.org/2000/svg">
<path d="M200.347 166.084V116.564L228.93 100.056V149.576L200.347 166.084Z" fill="#F45916"/>
<path d="M228.936 139.947V90.4268L257.519 73.9236V123.438L228.936 139.947Z" fill="#F45916"/>
<path d="M128.924 25.3137V74.8335L186.05 108.313V58.793L128.924 25.3137Z" fill="#675EF1"/>
<path d="M128.898 124.816V75.2962L157.466 58.793V108.313L128.898 124.816Z" fill="#F45916"/>
<path d="M142.865 149.332L142.86 99.817L257.483 34.033V83.5528L142.865 149.332Z" fill="#F45916"/>
<path d="M107.413 87.6608V38.1461L128.934 25.6492V75.169L107.413 87.6608Z" fill="#F45916"/>
<path d="M78.8403 38.1611V87.6809L107.424 104.184V54.6643L78.8403 38.1611Z" fill="#675EF1"/>
<path d="M57.4102 67.0444V116.564L71.7068 124.816V75.3011L57.4102 67.0444Z" fill="#675EF1"/>
<path d="M28.8276 165.937V116.422L86.0194 83.5527V133.067L28.8276 165.937Z" fill="#F45916"/>
<path d="M86.0186 83.5527V133.067L214.638 207.347V157.827L86.0186 83.5527Z" fill="#675EF1"/>
<path d="M121.73 145.448V194.967L143.17 207.347V157.827L121.73 145.448Z" fill="#675EF1"/>
<path d="M257.518 75.2961V124.816L278.958 137.196V87.6761L257.518 75.2961Z" fill="#675EF1"/>
<path d="M171.758 100.056V149.576L200.347 166.084V116.564L171.758 100.056Z" fill="#675EF1"/>
<path d="M100.291 58.793V108.313L128.879 124.816V75.2962L100.291 58.793Z" fill="#675EF1"/>
<path d="M57.4102 116.564V166.084L71.7068 174.336V124.816L57.4102 116.564Z" fill="#675EF1"/>
<path d="M71.7075 124.465V173.985L85.9991 182.236V132.722L71.7075 124.465Z" fill="#675EF1"/>
<path d="M14.5303 108.384L28.827 116.636L93.1569 79.4348L78.8653 71.1069L14.5303 108.384Z" fill="#FDB50F"/>
<path d="M78.8403 38.1511L93.1319 46.4028L157.467 9.20189L143.17 0.874023L78.8403 38.1511Z" fill="#FDB50F"/>
<path d="M57.4102 116.564L85.9984 100.056L114.587 116.564L85.9984 133.067L57.4102 116.564Z" fill="#FDB50F"/>
<path d="M200.347 91.8045L214.639 100.056L271.81 67.0446L257.519 58.793L200.347 91.8045Z" fill="#FDB50F"/>
<path d="M171.758 100.056L200.347 83.5527L228.93 100.056L200.347 116.564L171.758 100.056Z" fill="#FDB50F"/>
<path d="M100.291 58.793L128.879 42.2847L157.467 58.793L128.879 75.2962L100.291 58.793Z" fill="#FDB50F"/>
<path d="M50.2675 128.944L35.9708 137.196L0.239258 116.635L14.5309 108.384L50.2675 128.944Z" fill="#FDB50F"/>
<path d="M136.047 54.629L121.755 62.8857L86.0186 42.3253L100.315 34.0686L136.047 54.629Z" fill="#FDB50F"/>
<path d="M200.347 50.5413L186.05 58.7929L122.503 21.9835L136.795 13.7268L200.347 50.5413Z" fill="#FDB50F"/>
<path d="M300.399 83.553L286.107 91.8047L250.371 71.2443L264.667 62.9927L300.399 83.553Z" fill="#FDB50F"/>
<path d="M14.5303 149.576V199.095L28.827 207.347V157.827L14.5303 149.576Z" fill="#675EF1"/>
<path d="M93.1475 128.944V178.459L107.439 186.716V137.196L93.1475 128.944Z" fill="#675EF1"/>
<path d="M0.239258 116.635V166.155L35.9708 186.715V137.196L0.239258 116.635Z" fill="#675EF1"/>
<path d="M28.8276 207.347V157.827L78.8508 128.944V178.459L28.8276 207.347Z" fill="#F45916"/>
<path d="M78.8501 219.727V170.207L121.73 145.448V194.967L78.8501 219.727Z" fill="#F45916"/>
<path d="M85.9985 182.587V133.068L93.1469 128.944V178.459L85.9985 182.587Z" fill="#F45916"/>
<path d="M107.438 170.207V120.687L114.587 116.564V166.079L107.438 170.207Z" fill="#F45916"/>
<path d="M143.17 207.347V157.827L157.467 149.576V199.095L143.17 207.347Z" fill="#F45916"/>
<path d="M214.638 207.347V157.827L228.935 149.576V199.095L214.638 207.347Z" fill="#F45916"/>
<path d="M214.638 190.839V141.324L307.546 87.6606V137.18L214.638 190.839Z" fill="#F45916"/>
<path d="M64.5591 161.956L78.8507 170.207L136.027 137.196L121.731 128.944L64.5591 161.956Z" fill="#FDB50F"/>
<path d="M64.5591 161.956V211.475L78.8507 219.727V170.207L64.5591 161.956Z" fill="#675EF1"/>
<path d="M14.5303 149.576L28.827 157.827L85.9984 124.816L71.7068 116.564L14.5303 149.576Z" fill="#FDB50F"/>
<path d="M157.467 149.576L143.17 157.827L85.9985 124.816L100.29 116.564L157.467 149.576Z" fill="#FDB50F"/>
<path d="M121.557 95.577L135.849 103.829L257.518 34.0331L243.226 25.7815L121.557 95.577Z" fill="#FDB50F"/>
<path d="M228.935 149.576L214.638 157.827L57.4102 67.0446L71.7068 58.793L228.935 149.576Z" fill="#FDB50F"/>
<path d="M193.199 137.196L207.49 145.448L307.547 87.6762L293.255 79.4246L193.199 137.196Z" fill="#FDB50F"/>
</svg>
