<svg width="202" height="269" viewBox="0 0 202 269" fill="none" xmlns="http://www.w3.org/2000/svg">
<path d="M142.941 91.5565V134.64L162.615 123.247V80.1636L142.941 91.5565Z" fill="#F45916"/>
<path d="M124.289 166.954L143.962 155.561V112.478L124.289 123.87V166.954Z" fill="#F45916"/>
<path d="M142.941 91.5565L68.3262 48.4731V91.5565L86.9781 102.326V145.409L124.289 166.954V123.871L142.941 134.64V91.5565Z" fill="#675EF1"/>
<path d="M142.941 91.5563L162.615 80.1634L88 37.0801L68.3262 48.473L142.941 91.5563Z" fill="#FDB50F"/>
<path d="M77.6094 21.5732V64.6632L114.913 86.2016V43.1182L77.6094 21.5732Z" fill="#874631"/>
<path d="M114.913 0.0351562L77.6094 21.5735L114.913 43.1185L152.224 21.5735L114.913 0.0351562Z" fill="#F0AA94"/>
<path d="M152.224 64.6632V21.5732L114.913 43.1182V86.2016L152.224 64.6632Z" fill="#AA6050"/>
<path d="M99.5522 45.1289V66.6739L110.003 72.7054V51.1671L99.5522 45.1289Z" fill="#353535"/>
<path d="M82.3403 35.1162V56.6546L92.791 62.6927V41.1477L82.3403 35.1162Z" fill="#353535"/>
<path d="M97.2432 46.6753V68.2136L107.694 74.2518V52.7068L97.2432 46.6753Z" fill="#353535"/>
<path d="M80.0312 36.6558V58.1941L90.4819 64.2323V42.6873L80.0312 36.6558Z" fill="#353535"/>
<path d="M80.0312 36.6556L82.3403 35.1162L92.791 41.1477L90.4819 42.6871L80.0312 36.6556Z" fill="#353535"/>
<path d="M90.4819 64.2323L92.791 62.6929V41.1479L90.4819 42.6874V64.2323Z" fill="#353535"/>
<path d="M97.2432 46.6749L99.5523 45.1289L110.003 51.1671L107.694 52.7065L97.2432 46.6749Z" fill="#353535"/>
<path d="M107.694 74.2514L110.003 72.7053V51.167L107.694 52.7064V74.2514Z" fill="#353535"/>
<path d="M75.2007 161.446V204.53L94.8745 193.143V150.06L75.2007 161.446Z" fill="#F45916"/>
<path d="M56.5483 236.844L76.2222 225.458V182.368L56.5483 193.761V236.844Z" fill="#F45916"/>
<path d="M75.2005 161.446L0.585938 118.363V161.446L19.2379 172.215V215.305L56.5485 236.844V193.76L75.2005 204.529V161.446Z" fill="#675EF1"/>
<path d="M75.2005 161.446L94.8743 150.06L20.2598 106.977L0.585938 118.363L75.2005 161.446Z" fill="#FDB50F"/>
<path d="M9.86914 91.4702V134.554L47.1731 156.092V113.009L9.86914 91.4702Z" fill="#E7865A"/>
<path d="M47.1731 69.9248L9.86914 91.4698L47.1731 113.008L84.4837 91.4698L47.1731 69.9248Z" fill="#EDC6B0"/>
<path d="M84.4834 134.554V91.4702L47.1729 113.009V156.092L84.4834 134.554Z" fill="#F4A37E"/>
<path d="M31.812 115.025V136.564L42.2627 142.602V121.057L31.812 115.025Z" fill="#353535"/>
<path d="M14.6001 105.006V126.551L25.0508 132.582V111.044L14.6001 105.006Z" fill="#353535"/>
<path d="M29.5029 116.565V138.11L39.9536 144.141V122.603L29.5029 116.565Z" fill="#353535"/>
<path d="M12.291 106.545V128.09L22.7417 134.122V112.584L12.291 106.545Z" fill="#353535"/>
<path d="M12.291 106.545L14.6001 105.006L25.0508 111.044L22.7417 112.583L12.291 106.545Z" fill="#353535"/>
<path d="M22.7417 134.122L25.0508 132.583V111.044L22.7417 112.584V134.122Z" fill="#353535"/>
<path d="M29.5029 116.565L31.812 115.025L42.2627 121.057L39.9536 122.603L29.5029 116.565Z" fill="#353535"/>
<path d="M39.9536 144.142L42.2627 142.602V121.057L39.9536 122.603V144.142Z" fill="#353535"/>
<path d="M181.811 193.276V236.36L201.484 224.967V181.883L181.811 193.276Z" fill="#F45916"/>
<path d="M163.152 268.673L182.826 257.281V214.197L163.152 225.584V268.673Z" fill="#F45916"/>
<path d="M181.811 193.276L107.189 150.193V193.276L125.848 204.045V247.129L163.152 268.674V225.584L181.811 236.36V193.276Z" fill="#675EF1"/>
<path d="M181.811 193.276L201.484 181.883L126.863 138.8L107.189 150.193L181.811 193.276Z" fill="#FDB50F"/>
<path d="M116.473 123.293V166.376L153.783 187.921V144.838L116.473 123.293Z" fill="#E2AA91"/>
<path d="M153.783 101.755L116.473 123.293L153.783 144.838L191.087 123.293L153.783 101.755Z" fill="#EDC6B0"/>
<path d="M191.087 166.376V123.293L153.783 144.838V187.921L191.087 166.376Z" fill="#EDC6B0"/>
<path d="M138.416 146.849V168.394L148.873 174.425V152.887L138.416 146.849Z" fill="#353535"/>
<path d="M121.204 136.829V158.374L131.661 164.406V142.867L121.204 136.829Z" fill="#353535"/>
<path d="M136.106 148.388V169.933L146.557 175.964V154.426L136.106 148.388Z" fill="#353535"/>
<path d="M118.895 138.375V159.914L129.345 165.952V144.407L118.895 138.375Z" fill="#353535"/>
<path d="M118.895 138.375L121.204 136.829L131.661 142.867L129.345 144.407L118.895 138.375Z" fill="#353535"/>
<path d="M129.345 165.952L131.661 164.406V142.868L129.345 144.407V165.952Z" fill="#353535"/>
<path d="M136.106 148.388L138.416 146.849L148.873 152.887L146.557 154.426L136.106 148.388Z" fill="#353535"/>
<path d="M146.557 175.964L148.873 174.425V152.887L146.557 154.426V175.964Z" fill="#353535"/>
<path d="M153.783 166.376V144.838L191.087 123.293V166.376L172.435 177.152V155.607L153.783 166.376Z" fill="#353535"/>
<path d="M155.78 167.511V145.973L193.091 124.428V167.511L174.432 178.28V156.742L155.78 167.511Z" fill="#353535"/>
<path d="M155.78 167.511L153.783 166.376V144.838L155.78 145.973V167.511Z" fill="#353535"/>
<path d="M116.472 144.838L114.475 143.703V122.165L116.472 123.293V144.838Z" fill="#353535"/>
<path d="M174.432 178.28L172.435 177.152V155.607L174.432 156.742V178.28Z" fill="#353535"/>
<path d="M193.091 124.428L191.087 123.293L153.783 144.838L155.78 145.973L193.091 124.428Z" fill="#353535"/>
<path d="M114.475 122.165V119.279L155.78 142.867V145.973L114.475 122.165Z" fill="#353535"/>
<path d="M155.78 145.973L193.091 124.428L151.653 100.527L114.475 122.165L155.78 145.973Z" fill="#353535"/>
<path d="M155.78 143.086L193.091 121.541L151.653 97.6406L114.475 119.279L155.78 143.086Z" fill="#353535"/>
<path d="M193.091 124.428V121.542L155.78 143.086V145.973L193.091 124.428Z" fill="#353535"/>
</svg>
