<svg width="291" height="336" viewBox="0 0 291 336" fill="none" xmlns="http://www.w3.org/2000/svg">
<rect width="167.417" height="167.417" transform="matrix(0.866025 0.5 -2.20305e-08 1 0.117968 84.0898)" fill="#2A66DF"/>
<rect width="137.556" height="14.9308" transform="matrix(0.866025 0.5 -2.20305e-08 1 13.0505 229.112)" fill="#FEB600"/>
<path d="M13.0505 106.488V244.044L25.9808 236.579V113.954L13.0505 106.488Z" fill="#F65800"/>
<rect width="167.417" height="167.417" transform="matrix(0.866025 -0.5 2.20305e-08 1 145.106 167.8)" fill="#F65800"/>
<rect width="167.417" height="167.417" transform="matrix(0.866025 -0.5 0.866025 0.5 0.117968 84.0898)" fill="#FEB600"/>
<path fill-rule="evenodd" clip-rule="evenodd" d="M158.037 297.888L158.037 312.819L277.163 244.041V229.11L158.037 297.888Z" fill="#FEB600"/>
<path fill-rule="evenodd" clip-rule="evenodd" d="M158.037 22.7779L145.107 15.3125L25.9801 84.0904L38.9105 91.5558L158.037 22.7779Z" fill="#F65800"/>
<path fill-rule="evenodd" clip-rule="evenodd" d="M251.302 91.5554L145.106 30.2433L145.106 15.3125L264.232 84.09L251.302 91.5554Z" fill="#2A66DF"/>
<path d="M264.234 236.578V113.953L277.164 106.487V244.043L264.234 236.578Z" fill="#2A66DF"/>
<path d="M85.2591 87.7204L98.6996 95.4803L139.021 72.2006L125.581 64.4407L85.2591 87.7204ZM152.462 79.9605L165.902 72.2006L152.462 64.4407L139.021 72.2006L152.462 79.9605ZM125.581 95.4803L139.021 103.24L165.902 87.7204L152.462 79.9605L125.581 95.4803ZM165.902 118.76L179.343 111L165.902 103.24L152.462 111L165.902 118.76Z" fill="#F65800"/>
<path d="M184.028 185.206L184.028 200.726L224.35 177.446L224.35 161.926L184.028 185.206ZM224.35 192.966L237.79 185.206L237.79 169.686L224.35 177.446L224.35 192.966ZM197.469 208.486L197.469 224.006L224.35 208.486L224.35 192.966L197.469 208.486ZM197.469 255.045L210.909 247.285L210.909 231.765L197.469 239.525L197.469 255.045Z" fill="#675EF1"/>
<path d="M56.295 155.196L56.295 170.716L96.6165 193.995L96.6165 178.475L56.295 155.196ZM96.6165 209.515L110.057 217.275L110.057 201.755L96.6165 193.995L96.6165 209.515ZM69.7355 193.995L69.7355 209.515L96.6165 225.035L96.6165 209.515L69.7355 193.995ZM69.7355 240.555L83.176 248.314L83.176 232.795L69.7355 225.035L69.7355 240.555Z" fill="#FEB600"/>
</svg>
