<svg width="127" height="201" viewBox="0 0 127 201" fill="none" xmlns="http://www.w3.org/2000/svg">
<path d="M0.62207 109.816L63.5621 73.4736L126.508 109.816L63.5621 146.158L0.62207 109.816Z" fill="white"/>
<path d="M0.62207 55.3057L63.5621 18.9634L126.508 55.3057L63.5621 91.648L0.62207 55.3057Z" fill="#FDB50F"/>
<path d="M16.3555 37.1317L63.5619 9.87354L110.768 37.1317L63.5619 64.3898L16.3555 37.1317Z" fill="#FDB50F"/>
<path d="M0.62207 55.3057V73.474L63.5621 109.816V91.648L0.62207 55.3057Z" fill="#675EF1"/>
<path d="M126.508 55.3057L63.5625 91.648V109.816L126.508 73.474V55.3057Z" fill="#F45916"/>
<path d="M16.3555 37.1318V55.3058L63.5619 82.564V64.39L16.3555 37.1318Z" fill="#675EF1"/>
<path d="M110.769 37.1318L63.5625 64.39V82.564L110.769 55.3058V37.1318Z" fill="#F45916"/>
<path d="M32.0947 37.1317L63.5619 18.9634L95.0347 37.1317L63.5619 55.3057L32.0947 37.1317Z" fill="white"/>
<path d="M47.8286 9.87354V37.1317L63.5622 46.2159V18.9633L47.8286 9.87354Z" fill="#F9CF98"/>
<path d="M79.3017 37.1317V9.87354L63.5625 18.9633V46.2159L79.3017 37.1317Z" fill="#FFE4BD"/>
<path d="M63.5622 0.789062L47.8286 9.87325L63.5622 18.963L79.3014 9.87325L63.5622 0.789062Z" fill="white"/>
<path d="M0.62207 109.816V164.332L63.5621 200.675V146.158L0.62207 109.816Z" fill="#F9CF98"/>
<path d="M63.5625 146.158L126.508 109.816V164.332L63.5625 200.675V146.158Z" fill="#FFE4BD"/>
<path opacity="0.4" d="M0.62207 73.4736V109.816L63.5621 146.158V109.816L0.62207 73.4736Z" fill="white"/>
<path opacity="0.4" d="M126.508 73.4736V109.816L63.5625 146.158V109.816L126.508 73.4736Z" fill="white"/>
</svg>
