<svg width="307" height="178" viewBox="0 0 307 178" fill="none" xmlns="http://www.w3.org/2000/svg">
<path d="M0.414062 55.3444L95.4262 0.48584L105.982 6.58041L10.9697 61.4428L0.414062 55.3444Z" fill="#FDB50F"/>
<path d="M137.653 6.58041L127.097 12.6787L116.542 6.58041L127.097 0.48584L137.653 6.58041Z" fill="#FDB50F"/>
<path d="M116.541 0.48584L105.982 6.58041L116.541 12.6787L127.097 6.58041L116.541 0.48584Z" fill="#FDB50F"/>
<path d="M95.4263 6.58041L105.982 0.48584L116.541 6.58041L105.982 12.6787L95.4263 6.58041Z" fill="#FDB50F"/>
<path d="M137.652 0.48584L127.097 6.58041L137.656 12.6787L148.212 6.58041L137.652 0.48584Z" fill="#FDB50F"/>
<path d="M10.9697 61.4429V73.6321L105.982 18.7735V6.58057L10.9697 61.4429Z" fill="#F45916"/>
<path d="M105.982 24.868V12.6789L116.541 6.58057V18.7735L105.982 24.868Z" fill="#F45916"/>
<path d="M116.542 24.868V12.6789L127.097 6.58057V18.7735L116.542 24.868Z" fill="#F45916"/>
<path d="M127.097 24.868V12.6789L137.652 6.58057V18.7735L127.097 24.868Z" fill="#F45916"/>
<path d="M137.653 24.868L137.657 12.6789L148.212 6.58057V18.7735L137.653 24.868Z" fill="#F45916"/>
<path d="M0.414062 55.3444V67.5373L10.9697 73.6319V85.8247L21.5291 91.9193V104.112L63.7555 128.494V116.301L74.3111 122.396V110.207L95.4262 122.396V134.589L105.982 140.683V152.876L148.212 177.258V165.065L158.768 171.164V158.971L169.327 165.065V152.876L158.768 146.782V134.589L148.212 128.494V116.301L105.982 91.9193V104.112L95.4262 98.0139V110.207L74.3111 98.0139V85.8247L63.7555 79.7302V67.5373L21.5291 43.1553V55.3444L10.9697 49.2498V61.4427L0.414062 55.3444Z" fill="#675EF1"/>
<path d="M105.982 116.302V128.494L116.541 134.589V146.782L137.656 158.971V146.782L148.212 152.877V140.684L137.653 134.589V122.396L116.541 110.207V122.396L105.982 116.302Z" fill="white"/>
<path d="M21.5293 67.5374V79.7303L32.0849 85.8249V98.014L53.2 110.207V98.014L63.7557 104.112V91.9195L53.2 85.8249V73.632L32.0849 61.4429V73.632L21.5293 67.5374Z" fill="white"/>
<path d="M21.5293 43.1551L32.0849 37.0605L74.3113 61.4426L63.7557 67.5371L21.5293 43.1551Z" fill="#FDB50F"/>
<path d="M105.982 91.9193L116.541 85.8247L158.768 110.207L148.212 116.301L105.982 91.9193Z" fill="#FDB50F"/>
<path d="M0.414062 55.3446L10.9697 49.25V61.4429L0.414062 55.3446Z" fill="#FDB50F"/>
<path d="M21.5291 43.1553L10.9697 49.2498L21.5291 55.3444V43.1553Z" fill="#FDB50F"/>
<path d="M63.7554 79.7302L74.311 73.6318L84.8704 79.7302L74.311 85.8247L63.7554 79.7302Z" fill="#FDB50F"/>
<path d="M74.311 98.014L84.8704 91.9194L95.4261 98.014V110.207L74.311 98.014Z" fill="#FDB50F"/>
<path d="M127.097 152.876L137.656 146.782V158.971L127.097 152.876Z" fill="#FDB50F"/>
<path d="M137.653 146.782L148.212 140.684V152.876L137.653 146.782Z" fill="#FDB50F"/>
<path d="M148.212 128.494L158.768 122.396L169.327 128.494L158.768 134.589L148.212 128.494Z" fill="#FDB50F"/>
<path d="M105.982 128.494L116.541 122.396L127.097 128.494L116.541 134.589L105.982 128.494Z" fill="#FDB50F"/>
<path d="M116.542 146.782L127.097 140.684L137.657 146.782L127.097 152.876L116.542 146.782Z" fill="#FDB50F"/>
<path d="M158.768 146.782L253.78 91.9194L264.339 98.014L169.327 152.876L158.768 146.782Z" fill="#FDB50F"/>
<path d="M296.01 98.014L285.451 104.112L274.895 98.014L285.451 91.9194L296.01 98.014Z" fill="#FDB50F"/>
<path d="M274.895 91.9194L264.339 98.014L274.895 104.112L285.451 98.014L274.895 91.9194Z" fill="#FDB50F"/>
<path d="M253.78 98.014L264.339 91.9194L274.895 98.014L264.339 104.112L253.78 98.014Z" fill="#FDB50F"/>
<path d="M296.01 91.9194L285.451 98.014L296.01 104.112L306.566 98.014L296.01 91.9194Z" fill="#FDB50F"/>
<path d="M169.327 152.877V165.066L264.339 110.207V98.0142L169.327 152.877Z" fill="#F45916"/>
<path d="M264.339 116.302V104.112L274.895 98.0142V110.207L264.339 116.302Z" fill="#F45916"/>
<path d="M274.895 116.302V104.112L285.451 98.0142V110.207L274.895 116.302Z" fill="#F45916"/>
<path d="M285.451 116.302V104.112L296.01 98.0142V110.207L285.451 116.302Z" fill="#F45916"/>
<path d="M296.01 116.302V104.112L306.565 98.0142V110.207L296.01 116.302Z" fill="#F45916"/>
<path d="M63.7554 67.5374V79.7303L74.311 73.632V61.4429L63.7554 67.5374Z" fill="#F45916"/>
<path d="M74.311 85.8245V98.0137L84.8704 91.9191V79.73L74.311 85.8245Z" fill="#F45916"/>
<path d="M148.193 116.316V128.509L158.749 122.411V110.222L148.193 116.316Z" fill="#F45916"/>
<path d="M116.542 134.589V146.782L127.097 140.683V128.494L116.542 134.589Z" fill="#F45916"/>
<path d="M158.768 134.589V146.782L169.327 140.683V128.494L158.768 134.589Z" fill="#F45916"/>
<path d="M105.982 128.494V116.301L116.541 122.396L105.982 128.494Z" fill="#F45916"/>
<path d="M116.542 122.396V110.207L127.097 116.302L116.542 122.396Z" fill="#F45916"/>
<path d="M42.6406 104.112L53.2 98.0142V110.207L42.6406 104.112Z" fill="#FDB50F"/>
<path d="M53.1997 98.0178L63.7554 91.9194V104.112L53.1997 98.0178Z" fill="#FDB50F"/>
<path d="M21.5293 79.7302L32.0849 73.6318L42.6406 79.7302L32.0849 85.8247L21.5293 79.7302Z" fill="#FDB50F"/>
<path d="M32.085 98.014L42.6406 91.9194L53.2 98.014L42.6406 104.112L32.085 98.014Z" fill="#FDB50F"/>
<path d="M32.085 85.8245V98.0137L42.6406 91.9191V79.73L32.085 85.8245Z" fill="#F45916"/>
<path d="M21.5293 79.73V67.5371L32.0849 73.6317L21.5293 79.73Z" fill="#F45916"/>
<path d="M32.085 73.632V61.4429L42.6406 67.5374L32.085 73.632Z" fill="#F45916"/>
<path d="M158.768 158.971V171.164L169.327 165.065L158.768 158.971Z" fill="#F45916"/>
<path d="M148.193 165.065V177.258L158.749 171.164L148.193 165.065Z" fill="#F45916"/>
<path d="M74.311 110.207V122.396L84.8704 116.302L74.311 110.207Z" fill="#F45916"/>
<path d="M63.7554 116.301V128.494L74.311 122.396L63.7554 116.301Z" fill="#F45916"/>
<path d="M264.339 116.302V110.207L259.06 113.256L264.339 116.302Z" fill="#675EF1"/>
<path d="M274.895 116.302V110.207L269.615 113.256L274.895 116.302Z" fill="#675EF1"/>
<path d="M285.45 116.302V110.207L280.174 113.256L285.45 116.302Z" fill="#675EF1"/>
<path d="M296.01 116.302V110.207L290.73 113.256L296.01 116.302Z" fill="#675EF1"/>
<path d="M137.652 24.868V18.7734L132.376 21.8188L137.652 24.868Z" fill="#675EF1"/>
<path d="M127.097 24.868V18.7734L121.817 21.8188L127.097 24.868Z" fill="#675EF1"/>
<path d="M116.541 24.868V18.7734L111.262 21.8188L116.541 24.868Z" fill="#675EF1"/>
<path d="M105.982 24.868V18.7734L100.706 21.8188L105.982 24.868Z" fill="#675EF1"/>
</svg>
