<svg width="210" height="213" viewBox="0 0 210 213" fill="none" xmlns="http://www.w3.org/2000/svg">
<path d="M48.9019 9.28223V83.3156L80.9587 101.827V27.7934L48.9019 9.28223Z" fill="#675EF1"/>
<path d="M48.9019 9.28204L64.9274 0.0292969L96.9842 18.5405L80.9587 27.7932L48.9019 9.28204Z" fill="#FDB50F"/>
<path d="M80.9589 101.827L96.9844 92.5739V18.5405L80.9589 27.7933V101.827Z" fill="#F45916"/>
<path d="M113.01 46.2988V120.338L145.067 138.843V64.81L113.01 46.2988Z" fill="#675EF1"/>
<path d="M113.01 46.2986L129.041 37.0459L161.098 55.5571L145.067 64.8098L113.01 46.2986Z" fill="#FDB50F"/>
<path d="M145.066 138.843L161.098 129.59V55.5571L145.066 64.8099V138.843Z" fill="#F45916"/>
<path d="M0.81958 18.5405V74.0627L16.8451 83.3154V27.7933L0.81958 18.5405Z" fill="#675EF1"/>
<path d="M16.8453 83.3154V101.827L32.8766 111.079V92.5739L16.8453 83.3154Z" fill="#675EF1"/>
<path d="M32.8766 111.079V129.59L48.9022 138.843V120.338L32.8766 111.079Z" fill="#675EF1"/>
<path d="M48.9019 138.844V157.355L145.067 212.877V194.372L48.9019 138.844Z" fill="#675EF1"/>
<path d="M161.098 166.607V185.113L177.123 194.371V175.86L161.098 166.607Z" fill="#675EF1"/>
<path d="M177.123 120.337V175.86L193.149 185.118V129.59L177.123 120.337Z" fill="#675EF1"/>
<path d="M0.81958 18.5407L16.8451 9.28223L32.8764 18.5407L16.8451 27.7934L0.81958 18.5407Z" fill="#FDB50F"/>
<path d="M16.8453 83.3152L32.8766 74.0625L48.9021 83.3152L32.8766 92.5737L16.8453 83.3152Z" fill="#FDB50F"/>
<path d="M16.8453 27.7933L32.8766 18.5405V74.0627L16.8453 83.3154V27.7933Z" fill="#F45916"/>
<path d="M177.123 120.338L193.149 111.079L209.18 120.338L193.149 129.59L177.123 120.338Z" fill="#FDB50F"/>
<path d="M193.149 129.59L209.18 120.337V175.86L193.149 185.112V129.59Z" fill="#F45916"/>
<path d="M32.8766 92.5739L48.9022 83.3154V101.827L32.8766 111.079V92.5739Z" fill="#F45916"/>
<path d="M32.8766 111.079L48.9022 101.827L64.9277 111.079L48.9022 120.338L32.8766 111.079Z" fill="#FDB50F"/>
<path d="M48.9019 138.843L64.9274 129.59L161.092 185.112L145.067 194.37L48.9019 138.843Z" fill="#FDB50F"/>
<path d="M48.9019 120.338L64.9274 111.079V129.59L48.9019 138.843V120.338Z" fill="#F45916"/>
<path d="M145.066 175.86V194.372L161.098 203.624V185.113L145.066 175.86Z" fill="#675EF1"/>
<path d="M145.066 175.86L161.098 166.607V185.113L145.066 175.86Z" fill="#FDB50F"/>
<path d="M161.098 166.607L177.123 157.354V175.86L161.098 166.607Z" fill="#FDB50F"/>
<path d="M145.066 212.877V194.371L161.098 203.624L145.066 212.877Z" fill="#F45916"/>
<path d="M161.098 203.623V185.112L177.123 194.371L161.098 203.623Z" fill="#F45916"/>
<path d="M177.123 194.372V175.86L193.149 185.119L177.123 194.372Z" fill="#F45916"/>
</svg>
