<svg width="298" height="193" viewBox="0 0 298 193" fill="none" xmlns="http://www.w3.org/2000/svg">
<path d="M9.57227 67.855V78.2392L108.504 21.1166V31.504L117.499 26.3087V36.6961L126.492 31.504V21.1166V10.7324L117.499 15.9245V5.53711L9.57227 67.855Z" fill="#F45916"/>
<path d="M0.579102 62.6602V73.0475L9.57169 78.2396V88.627L18.5675 93.8191V104.207L27.5601 109.399V119.783L63.5336 140.554L63.5368 130.17L72.5294 135.362V124.978L81.522 130.17V119.783L99.5104 130.17V140.554L108.503 145.75V156.134L117.499 161.329V171.713L153.472 192.485V182.101L162.465 187.293V176.905L171.461 182.101V171.713L180.453 176.905V166.521L0.579102 62.6602Z" fill="#675EF1"/>
<path d="M0.579102 62.6599L9.57169 57.4678L189.446 161.326L180.453 166.521L0.579102 62.6599Z" fill="#FDB50F"/>
<path d="M63.5369 130.169L63.5337 140.554L72.5295 135.362L63.5369 130.169Z" fill="#F45916"/>
<path d="M72.5298 124.978V135.362L81.5224 130.17L72.5298 124.978Z" fill="#F45916"/>
<path d="M81.522 119.782V130.17L90.5146 124.978L81.522 119.782Z" fill="#F45916"/>
<path d="M153.473 182.1V192.484L162.465 187.292L153.473 182.1Z" fill="#F45916"/>
<path d="M162.465 176.905V187.293L171.461 182.101L162.465 176.905Z" fill="#F45916"/>
<path d="M171.461 171.713V182.101L180.454 176.905L171.461 171.713Z" fill="#F45916"/>
<path d="M180.454 166.521V176.905L279.385 119.782V130.17L288.378 124.977V135.362L297.374 130.17V119.782V109.398L288.378 114.59V104.203L180.454 166.521Z" fill="#F45916"/>
<path d="M288.378 104.203L279.385 99.0107L180.454 156.133L189.447 161.325L288.378 104.203Z" fill="#FDB50F"/>
<path d="M288.377 104.203L297.373 109.398L288.377 114.59V104.203Z" fill="#FDB50F"/>
<path d="M117.5 5.53711L126.495 10.7324L117.5 15.9245V5.53711Z" fill="#FDB50F"/>
<path d="M9.57227 57.4678L108.504 0.345215L117.499 5.53731L18.5681 62.6599L9.57227 57.4678Z" fill="#FDB50F"/>
<path d="M108.504 31.5036V21.1162L99.5112 26.3083L108.504 31.5036Z" fill="#675EF1"/>
<path d="M108.503 31.5039L117.499 26.3086V36.696L108.503 31.5039Z" fill="#675EF1"/>
<path d="M279.385 119.782L270.389 124.978L279.385 130.17V119.782Z" fill="#675EF1"/>
<path d="M288.377 124.978L279.384 130.17L288.377 135.362V124.978Z" fill="#675EF1"/>
<path d="M18.5679 78.2393V88.6266L27.5605 93.8187V83.4313L18.5679 78.2393Z" fill="white"/>
<path d="M27.5601 93.8188V104.206L36.5526 109.398V99.0109L27.5601 93.8188Z" fill="white"/>
<path d="M36.5532 109.398V119.782L45.549 124.977V114.59L36.5532 109.398Z" fill="white"/>
<path d="M108.503 130.169V140.554L117.499 145.749V135.362L108.503 130.169Z" fill="white"/>
<path d="M117.499 145.749V156.133L126.492 161.325V150.941L117.499 145.749Z" fill="white"/>
<path d="M126.492 161.326V171.713L135.484 176.905V166.521L126.492 161.326Z" fill="white"/>
</svg>
