<svg width="210" height="214" viewBox="0 0 210 214" fill="none" xmlns="http://www.w3.org/2000/svg">
<path d="M48.9014 9.65137V83.6847L80.9582 102.196V28.1626L48.9014 9.65137Z" fill="#675EF1"/>
<path d="M48.9014 9.65118L64.9269 0.398438L96.9837 18.9096L80.9582 28.1624L48.9014 9.65118Z" fill="#FDB50F"/>
<path d="M80.9585 102.196L96.984 92.943V18.9097L80.9585 28.1624V102.196Z" fill="#F45916"/>
<path d="M113.01 46.668V120.707L145.067 139.213V65.1792L113.01 46.668Z" fill="#675EF1"/>
<path d="M113.01 46.6678L129.041 37.415L161.098 55.9262L145.067 65.179L113.01 46.6678Z" fill="#FDB50F"/>
<path d="M145.066 139.212L161.097 129.96V55.9263L145.066 65.179V139.212Z" fill="#F45916"/>
<path d="M0.819336 18.9097V74.4318L16.8449 83.6846V28.1624L0.819336 18.9097Z" fill="#675EF1"/>
<path d="M16.8452 83.6846V102.196L32.8765 111.449V92.943L16.8452 83.6846Z" fill="#675EF1"/>
<path d="M32.8765 111.448V129.959L48.902 139.212V120.707L32.8765 111.448Z" fill="#675EF1"/>
<path d="M48.9014 139.212V157.724L145.066 213.246V194.74L48.9014 139.212Z" fill="#675EF1"/>
<path d="M161.098 166.977V185.482L177.123 194.741V176.229L161.098 166.977Z" fill="#675EF1"/>
<path d="M177.123 120.707V176.229L193.149 185.487V129.959L177.123 120.707Z" fill="#675EF1"/>
<path d="M0.819336 18.9098L16.8449 9.65137L32.8761 18.9098L16.8449 28.1626L0.819336 18.9098Z" fill="#FDB50F"/>
<path d="M16.8452 83.6844L32.8765 74.4316L48.902 83.6844L32.8765 92.9428L16.8452 83.6844Z" fill="#FDB50F"/>
<path d="M16.8452 28.1624L32.8765 18.9097V74.4318L16.8452 83.6846V28.1624Z" fill="#F45916"/>
<path d="M177.123 120.707L193.149 111.448L209.18 120.707L193.149 129.959L177.123 120.707Z" fill="#FDB50F"/>
<path d="M193.149 129.959L209.18 120.707V176.229L193.149 185.481V129.959Z" fill="#F45916"/>
<path d="M32.8765 92.943L48.902 83.6846V102.196L32.8765 111.449V92.943Z" fill="#F45916"/>
<path d="M32.8765 111.449L48.902 102.196L64.9276 111.449L48.902 120.707L32.8765 111.449Z" fill="#FDB50F"/>
<path d="M48.9014 139.212L64.9269 129.959L161.092 185.481L145.066 194.74L48.9014 139.212Z" fill="#FDB50F"/>
<path d="M48.9014 120.707L64.9269 111.448V129.959L48.9014 139.212V120.707Z" fill="#F45916"/>
<path d="M145.066 176.229V194.74L161.097 203.993V185.482L145.066 176.229Z" fill="#675EF1"/>
<path d="M145.066 176.229L161.097 166.977V185.482L145.066 176.229Z" fill="#FDB50F"/>
<path d="M161.098 166.976L177.123 157.723V176.229L161.098 166.976Z" fill="#FDB50F"/>
<path d="M145.066 213.245V194.74L161.097 203.992L145.066 213.245Z" fill="#F45916"/>
<path d="M161.098 203.993V185.481L177.123 194.74L161.098 203.993Z" fill="#F45916"/>
<path d="M177.123 194.74V176.229L193.149 185.487L177.123 194.74Z" fill="#F45916"/>
</svg>
