<svg width="361" height="111" viewBox="0 0 361 111" fill="none" xmlns="http://www.w3.org/2000/svg">
<path d="M0.406494 31.9109V110.337H329.239L360.28 79.2966V0.8703H31.4472L0.406494 31.9109Z" fill="#F65800"/>
<path d="M0.406494 31.9109V110.337H329.239L360.28 79.2966V0.8703H31.4472L0.406494 31.9109Z" fill="#F65800"/>
<path d="M0.406494 110.337V31.9109L0.409772 31.9077L78.8392 110.337H0.406494Z" fill="#675EF1"/>
<path d="M360.273 79.3041L281.839 0.8703H360.28V79.2966L360.273 79.3041Z" fill="#FEB600"/>
<path d="M116.487 38.0061V42.8726H106.806V74.3741H100.841V42.8726H91.1079V38.0061H116.487ZM125.563 41.7214C124.482 41.7214 123.575 41.3551 122.842 40.6225C122.11 39.8899 121.744 38.9828 121.744 37.9014C121.744 36.82 122.11 35.9129 122.842 35.1803C123.575 34.4477 124.482 34.0814 125.563 34.0814C126.61 34.0814 127.5 34.4477 128.232 35.1803C128.965 35.9129 129.331 36.82 129.331 37.9014C129.331 38.9828 128.965 39.8899 128.232 40.6225C127.5 41.3551 126.61 41.7214 125.563 41.7214ZM128.494 45.5413V74.3741H122.528V45.5413H128.494ZM134.337 59.9315C134.337 56.9663 134.93 54.3673 136.117 52.1346C137.338 49.8671 139.012 48.1228 141.14 46.9018C143.268 45.6808 145.71 45.0703 148.466 45.0703C151.955 45.0703 154.833 45.9076 157.1 47.5821C159.403 49.2217 160.955 51.5765 161.757 54.6464H155.321C154.798 53.2161 153.96 52.0998 152.809 51.2974C151.658 50.495 150.21 50.0938 148.466 50.0938C146.024 50.0938 144.07 50.966 142.605 52.7102C141.175 54.4196 140.46 56.8267 140.46 59.9315C140.46 63.0363 141.175 65.4609 142.605 67.2051C144.07 68.9494 146.024 69.8215 148.466 69.8215C151.92 69.8215 154.205 68.304 155.321 65.269H161.757C160.92 68.1994 159.35 70.5367 157.048 72.281C154.745 73.9903 151.885 74.845 148.466 74.845C145.71 74.845 143.268 74.2345 141.14 73.0136C139.012 71.7577 137.338 70.0134 136.117 67.7807C134.93 65.5132 134.337 62.8968 134.337 59.9315ZM179.11 59.9839L192.401 74.3741H184.343L173.668 61.9723V74.3741H167.702V35.6513H173.668V58.1524L184.133 45.5413H192.401L179.11 59.9839ZM223.103 59.2513C223.103 60.3327 223.033 61.3095 222.893 62.1816H200.863C201.038 64.4841 201.892 66.333 203.427 67.7284C204.962 69.1238 206.846 69.8215 209.079 69.8215C212.288 69.8215 214.556 68.4785 215.881 65.7923H222.318C221.446 68.4436 219.858 70.6239 217.556 72.3333C215.288 74.0078 212.463 74.845 209.079 74.845C206.323 74.845 203.846 74.2345 201.648 73.0136C199.485 71.7577 197.776 70.0134 196.52 67.7807C195.299 65.5132 194.688 62.8968 194.688 59.9315C194.688 56.9663 195.282 54.3673 196.468 52.1346C197.689 49.8671 199.381 48.1228 201.543 46.9018C203.741 45.6808 206.253 45.0703 209.079 45.0703C211.8 45.0703 214.224 45.6634 216.352 46.8495C218.48 48.0356 220.137 49.7101 221.323 51.873C222.51 54.001 223.103 56.4604 223.103 59.2513ZM216.876 57.3675C216.841 55.1697 216.056 53.408 214.521 52.0823C212.986 50.7567 211.085 50.0938 208.817 50.0938C206.759 50.0938 204.997 50.7567 203.532 52.0823C202.067 53.3731 201.195 55.1348 200.916 57.3675H216.876ZM235.933 50.4078V66.3679C235.933 67.4493 236.177 68.2343 236.665 68.7226C237.189 69.1762 238.061 69.4029 239.282 69.4029H242.945V74.3741H238.235C235.549 74.3741 233.491 73.7461 232.061 72.4903C230.63 71.2344 229.915 69.1936 229.915 66.3679V50.4078H226.514V45.5413H229.915V38.3724H235.933V45.5413H242.945V50.4078H235.933ZM258.909 74.845C256.641 74.845 254.6 74.4439 252.786 73.6415C251.007 72.8042 249.594 71.6879 248.548 70.2925C247.501 68.8622 246.943 67.2749 246.873 65.5306H253.048C253.152 66.7516 253.728 67.7807 254.775 68.618C255.856 69.4204 257.199 69.8215 258.804 69.8215C260.478 69.8215 261.769 69.5076 262.676 68.8796C263.618 68.2168 264.089 67.3796 264.089 66.3679C264.089 65.2864 263.566 64.4841 262.519 63.9608C261.508 63.4375 259.885 62.8619 257.653 62.234C255.49 61.6409 253.728 61.0653 252.368 60.5071C251.007 59.949 249.821 59.0943 248.809 57.9431C247.832 56.7918 247.344 55.2743 247.344 53.3905C247.344 51.8556 247.798 50.4601 248.705 49.2043C249.612 47.9135 250.902 46.9018 252.577 46.1692C254.286 45.4366 256.24 45.0703 258.438 45.0703C261.717 45.0703 264.351 45.9076 266.339 47.5821C268.363 49.2217 269.444 51.4718 269.584 54.3324H263.618C263.513 53.0417 262.99 52.0125 262.048 51.2451C261.106 50.4776 259.833 50.0938 258.228 50.0938C256.658 50.0938 255.455 50.3904 254.618 50.9834C253.78 51.5765 253.362 52.3614 253.362 53.3382C253.362 54.1057 253.641 54.751 254.199 55.2743C254.757 55.7976 255.437 56.2162 256.24 56.5302C257.042 56.8093 258.228 57.1756 259.798 57.6291C261.891 58.1873 263.601 58.7629 264.926 59.3559C266.287 59.9141 267.455 60.7513 268.432 61.8677C269.409 62.984 269.915 64.4666 269.95 66.3156C269.95 67.9552 269.496 69.4204 268.589 70.7111C267.682 72.0019 266.391 73.0136 264.717 73.7461C263.077 74.4787 261.141 74.845 258.909 74.845Z" fill="white"/>
</svg>
