<svg width="515" height="111" viewBox="0 0 515 111" fill="none" xmlns="http://www.w3.org/2000/svg">
<path d="M5.48804 31.9148V110.341H334.32L365.361 79.3005V0.874146H36.5288L5.48804 31.9148Z" fill="#F65800"/>
<path d="M0.169312 31.9148V110.341H483.717L514.757 79.3005V0.874146H31.21L0.169312 31.9148Z" fill="#F65800"/>
<path d="M0.169312 110.341V31.9147L0.172589 31.9115L78.6021 110.341H0.169312Z" fill="#675EF1"/>
<path d="M514.75 79.308L436.316 0.874146H514.757V79.3005L514.75 79.308Z" fill="#FEB600"/>
<path d="M96.3589 48.4756C95.417 46.6616 94.1088 45.3011 92.4343 44.3941C90.7598 43.4521 88.8236 42.9812 86.6258 42.9812C84.2187 42.9812 82.0733 43.5219 80.1895 44.6034C78.3057 45.6848 76.823 47.2198 75.7416 49.2082C74.695 51.1967 74.1717 53.4991 74.1717 56.1155C74.1717 58.7319 74.695 61.0518 75.7416 63.0752C76.823 65.0636 78.3057 66.5986 80.1895 67.6801C82.0733 68.7615 84.2187 69.3022 86.6258 69.3022C89.8702 69.3022 92.504 68.3952 94.5274 66.5812C96.5507 64.7671 97.7892 62.3077 98.2427 59.2029H84.585V54.441H104.627V59.0982C104.243 61.924 103.231 64.5229 101.592 66.8951C99.9869 69.2673 97.8764 71.1686 95.26 72.5989C92.6785 73.9943 89.8004 74.692 86.6258 74.692C83.2071 74.692 80.0848 73.9071 77.2591 72.3373C74.4334 70.7325 72.1833 68.5173 70.5088 65.6916C68.8692 62.8659 68.0494 59.6739 68.0494 56.1155C68.0494 52.5572 68.8692 49.3652 70.5088 46.5395C72.1833 43.7138 74.4334 41.516 77.2591 39.9462C80.1197 38.3414 83.242 37.5391 86.6258 37.5391C90.4981 37.5391 93.9343 38.4984 96.9345 40.4171C99.9695 42.3009 102.167 44.9871 103.528 48.4756H96.3589ZM136.936 59.2552C136.936 60.3367 136.866 61.3135 136.727 62.1856H114.697C114.871 64.488 115.726 66.337 117.261 67.7324C118.796 69.1278 120.679 69.8255 122.912 69.8255C126.122 69.8255 128.389 68.4824 129.715 65.7962H136.151C135.279 68.4475 133.692 70.6279 131.389 72.3373C129.122 74.0118 126.296 74.849 122.912 74.849C120.156 74.849 117.679 74.2385 115.482 73.0175C113.319 71.7616 111.609 70.0174 110.353 67.7847C109.132 65.5172 108.522 62.9008 108.522 59.9355C108.522 56.9702 109.115 54.3713 110.301 52.1386C111.522 49.8711 113.214 48.1268 115.377 46.9058C117.575 45.6848 120.086 45.0743 122.912 45.0743C125.633 45.0743 128.058 45.6674 130.186 46.8535C132.314 48.0396 133.971 49.7141 135.157 51.877C136.343 54.005 136.936 56.4644 136.936 59.2552ZM130.709 57.3714C130.674 55.1736 129.889 53.4119 128.354 52.0863C126.819 50.7606 124.918 50.0978 122.65 50.0978C120.592 50.0978 118.831 50.7606 117.365 52.0863C115.9 53.377 115.028 55.1388 114.749 57.3714H130.709ZM149.766 50.4118V66.3719C149.766 67.4533 150.01 68.2382 150.499 68.7266C151.022 69.1801 151.894 69.4069 153.115 69.4069H156.778V74.3781H152.069C149.382 74.3781 147.324 73.7501 145.894 72.4942C144.464 71.2384 143.749 69.1976 143.749 66.3719V50.4118H140.347V45.5453H143.749V38.3763H149.766V45.5453H156.778V50.4118H149.766ZM201.824 45.5453L184.137 87.931H177.962L183.823 73.9071L172.468 45.5453H179.114L187.225 67.5231L195.649 45.5453H201.824ZM218.832 74.849C216.111 74.849 213.652 74.2385 211.454 73.0175C209.256 71.7616 207.53 70.0174 206.274 67.7847C205.018 65.5172 204.39 62.9008 204.39 59.9355C204.39 57.0051 205.035 54.4062 206.326 52.1386C207.617 49.8711 209.378 48.1268 211.611 46.9058C213.844 45.6848 216.338 45.0743 219.094 45.0743C221.85 45.0743 224.344 45.6848 226.577 46.9058C228.81 48.1268 230.571 49.8711 231.862 52.1386C233.153 54.4062 233.798 57.0051 233.798 59.9355C233.798 62.8659 233.135 65.4648 231.81 67.7324C230.484 69.9999 228.67 71.7616 226.368 73.0175C224.1 74.2385 221.588 74.849 218.832 74.849ZM218.832 69.6685C220.367 69.6685 221.798 69.3022 223.123 68.5696C224.484 67.837 225.583 66.7381 226.42 65.273C227.257 63.8078 227.676 62.0286 227.676 59.9355C227.676 57.8424 227.275 56.0807 226.472 54.6504C225.67 53.1852 224.606 52.0863 223.28 51.3537C221.955 50.6211 220.524 50.2548 218.989 50.2548C217.454 50.2548 216.024 50.6211 214.698 51.3537C213.408 52.0863 212.379 53.1852 211.611 54.6504C210.844 56.0807 210.46 57.8424 210.46 59.9355C210.46 63.0403 211.245 65.4474 212.815 67.1568C214.419 68.8313 216.425 69.6685 218.832 69.6685ZM265.807 45.5453V74.3781H259.842V70.9767C258.9 72.1628 257.661 73.1047 256.126 73.8024C254.626 74.4653 253.022 74.7967 251.312 74.7967C249.045 74.7967 247.004 74.3257 245.19 73.3838C243.411 72.4419 241.998 71.0465 240.951 69.1976C239.94 67.3486 239.434 65.116 239.434 62.4996V45.5453H245.347V61.61C245.347 64.1915 245.992 66.18 247.283 67.5754C248.574 68.9359 250.335 69.6162 252.568 69.6162C254.801 69.6162 256.562 68.9359 257.853 67.5754C259.179 66.18 259.842 64.1915 259.842 61.61V45.5453H265.807ZM279.643 49.7315C280.515 48.2663 281.667 47.1326 283.097 46.3302C284.562 45.4929 286.289 45.0743 288.277 45.0743V51.249H286.76C284.423 51.249 282.643 51.8421 281.422 53.0282C280.236 54.2143 279.643 56.2725 279.643 59.2029V74.3781H273.678V45.5453H279.643V49.7315ZM314.314 50.4118V66.3719C314.314 67.4533 314.558 68.2382 315.046 68.7266C315.569 69.1801 316.442 69.4069 317.663 69.4069H321.326V74.3781H316.616C313.93 74.3781 311.872 73.7501 310.441 72.4942C309.011 71.2384 308.296 69.1976 308.296 66.3719V50.4118H304.895V45.5453H308.296V38.3763H314.314V45.5453H321.326V50.4118H314.314ZM329.859 41.7253C328.777 41.7253 327.87 41.359 327.138 40.6264C326.405 39.8938 326.039 38.9868 326.039 37.9054C326.039 36.8239 326.405 35.9169 327.138 35.1843C327.87 34.4517 328.777 34.0854 329.859 34.0854C330.905 34.0854 331.795 34.4517 332.527 35.1843C333.26 35.9169 333.626 36.8239 333.626 37.9054C333.626 38.9868 333.26 39.8938 332.527 40.6264C331.795 41.359 330.905 41.7253 329.859 41.7253ZM332.789 45.5453V74.3781H326.824V45.5453H332.789ZM338.633 59.9355C338.633 56.9702 339.226 54.3713 340.412 52.1386C341.633 49.8711 343.307 48.1268 345.435 46.9058C347.563 45.6848 350.005 45.0743 352.761 45.0743C356.25 45.0743 359.128 45.9116 361.395 47.5861C363.698 49.2257 365.25 51.5804 366.053 54.6504H359.616C359.093 53.2201 358.256 52.1037 357.104 51.3014C355.953 50.499 354.505 50.0978 352.761 50.0978C350.319 50.0978 348.366 50.9699 346.9 52.7142C345.47 54.4236 344.755 56.8307 344.755 59.9355C344.755 63.0403 345.47 65.4648 346.9 67.2091C348.366 68.9534 350.319 69.8255 352.761 69.8255C356.215 69.8255 358.5 68.308 359.616 65.273H366.053C365.215 68.2033 363.645 70.5407 361.343 72.2849C359.041 73.9943 356.18 74.849 352.761 74.849C350.005 74.849 347.563 74.2385 345.435 73.0175C343.307 71.7616 341.633 70.0174 340.412 67.7847C339.226 65.5172 338.633 62.9008 338.633 59.9355ZM383.405 59.9878L396.696 74.3781H388.638L377.963 61.9763V74.3781H371.998V35.6553H377.963V58.1563L388.429 45.5453H396.696L383.405 59.9878ZM427.398 59.2552C427.398 60.3367 427.328 61.3135 427.189 62.1856H405.158C405.333 64.488 406.188 66.337 407.723 67.7324C409.257 69.1278 411.141 69.8255 413.374 69.8255C416.583 69.8255 418.851 68.4824 420.177 65.7962H426.613C425.741 68.4475 424.154 70.6279 421.851 72.3373C419.584 74.0118 416.758 74.849 413.374 74.849C410.618 74.849 408.141 74.2385 405.943 73.0175C403.78 71.7616 402.071 70.0174 400.815 67.7847C399.594 65.5172 398.984 62.9008 398.984 59.9355C398.984 56.9702 399.577 54.3713 400.763 52.1386C401.984 49.8711 403.676 48.1268 405.839 46.9058C408.036 45.6848 410.548 45.0743 413.374 45.0743C416.095 45.0743 418.52 45.6674 420.648 46.8535C422.776 48.0396 424.433 49.7141 425.619 51.877C426.805 54.005 427.398 56.4644 427.398 59.2552ZM421.171 57.3714C421.136 55.1736 420.351 53.4119 418.816 52.0863C417.281 50.7606 415.38 50.0978 413.112 50.0978C411.054 50.0978 409.292 50.7606 407.827 52.0863C406.362 53.377 405.49 55.1388 405.211 57.3714H421.171ZM440.228 50.4118V66.3719C440.228 67.4533 440.472 68.2382 440.961 68.7266C441.484 69.1801 442.356 69.4069 443.577 69.4069H447.24V74.3781H442.53C439.844 74.3781 437.786 73.7501 436.356 72.4942C434.925 71.2384 434.21 69.1976 434.21 66.3719V50.4118H430.809V45.5453H434.21V38.3763H440.228V45.5453H447.24V50.4118H440.228Z" fill="white"/>
</svg>
