<svg width="251" height="300" viewBox="0 0 251 300" fill="none" xmlns="http://www.w3.org/2000/svg">
<path d="M90.1545 201.439L61.5806 184.878L29.8267 203.262L58.3978 219.875L90.1545 201.439Z" fill="#FDB50F"/>
<path d="M90.1322 234.36L90.1542 201.439L58.3975 219.875L58.4195 252.821L90.1322 234.36Z" fill="#F45916"/>
<path d="M58.4198 252.821L58.3978 219.875L29.8267 203.262L29.8872 236.186L58.4198 252.821Z" fill="#675EF1"/>
<path d="M118.927 139.388L61.5475 106.309L29.7026 124.646L87.0817 157.824L118.927 139.388Z" fill="#FDB50F"/>
<path d="M119.051 72.8591L32.8636 23.4536L0.930664 41.6861L87.1177 91.2457L119.051 72.8591Z" fill="#FDB50F"/>
<path d="M118.987 106.081L119.05 72.8591L87.1174 91.2458L87.0981 124.492L118.987 106.081Z" fill="#F45916"/>
<path d="M147.836 122.664L118.987 106.081L87.0981 124.492L115.947 141.128L147.836 122.664Z" fill="#FDB50F"/>
<path d="M147.732 155.993L147.837 122.664L115.948 141.128L115.89 174.481L147.732 155.993Z" fill="#F45916"/>
<path d="M118.863 172.287L118.927 139.387L87.0818 157.824L87.0625 190.748L118.863 172.287Z" fill="#F45916"/>
<path d="M87.0624 190.748L87.0817 157.823L29.7026 124.646L29.7632 157.523L87.0624 190.748Z" fill="#675EF1"/>
<path d="M115.89 174.481L115.948 141.128L87.0984 124.492L87.1177 91.2459L0.930664 41.6863L1.03254 74.9518L87.0984 124.58L87.0819 157.824L115.89 174.481Z" fill="#675EF1"/>
<path d="M219.596 272.62L204.397 263.811L187.507 273.59L202.704 282.427L219.596 272.62Z" fill="#FDB50F"/>
<path d="M219.584 290.131L219.596 272.62L202.704 282.427L202.716 299.951L219.584 290.131Z" fill="#F45916"/>
<path d="M202.716 299.951L202.704 282.426L187.507 273.589L187.539 291.102L202.716 299.951Z" fill="#675EF1"/>
<path d="M234.9 239.614L204.38 222.02L187.441 231.773L217.961 249.421L234.9 239.614Z" fill="#FDB50F"/>
<path d="M234.966 204.227L189.122 177.948L172.137 187.646L217.98 214.007L234.966 204.227Z" fill="#FDB50F"/>
<path d="M234.932 221.898L234.966 204.227L217.98 214.007L217.97 231.691L234.932 221.898Z" fill="#F45916"/>
<path d="M250.277 230.719L234.932 221.898L217.97 231.691L233.315 240.54L250.277 230.719Z" fill="#FDB50F"/>
<path d="M250.222 248.447L250.277 230.719L233.315 240.54L233.285 258.281L250.222 248.447Z" fill="#F45916"/>
<path d="M234.866 257.113L234.9 239.614L217.961 249.42L217.951 266.933L234.866 257.113Z" fill="#F45916"/>
<path d="M217.951 266.933L217.961 249.42L187.441 231.773L187.473 249.261L217.951 266.933Z" fill="#675EF1"/>
<path d="M233.285 258.281L233.315 240.54L217.97 231.691L217.98 214.007L172.137 187.646L172.191 205.34L217.97 231.738L217.961 249.421L233.285 258.281Z" fill="#675EF1"/>
<path d="M188.526 64.1952L178.352 58.2986L167.046 64.8442L177.219 70.7595L188.526 64.1952Z" fill="#FDB50F"/>
<path d="M188.518 75.9173L188.526 64.1956L177.219 70.7598L177.227 82.4904L188.518 75.9173Z" fill="#F45916"/>
<path d="M177.227 82.4904L177.219 70.7598L167.046 64.8445L167.068 76.5672L177.227 82.4904Z" fill="#675EF1"/>
<path d="M198.771 42.1019L178.341 30.3242L167.002 36.8532L187.432 48.6661L198.771 42.1019Z" fill="#FDB50F"/>
<path d="M198.815 18.4142L168.128 0.823242L156.758 7.31496L187.445 24.9608L198.815 18.4142Z" fill="#FDB50F"/>
<path d="M198.792 30.2429L198.815 18.4143L187.445 24.9609L187.438 36.7984L198.792 30.2429Z" fill="#F45916"/>
<path d="M209.064 36.1472L198.792 30.2427L187.438 36.7981L197.71 42.7212L209.064 36.1472Z" fill="#FDB50F"/>
<path d="M209.027 48.0143L209.064 36.1475L197.71 42.7215L197.689 54.5972L209.027 48.0143Z" fill="#F45916"/>
<path d="M198.748 53.8155L198.77 42.1016L187.432 48.6658L187.425 60.3886L198.748 53.8155Z" fill="#F45916"/>
<path d="M187.426 60.3887L187.432 48.666L167.002 36.853L167.024 48.5591L187.426 60.3887Z" fill="#675EF1"/>
<path d="M197.689 54.5973L197.71 42.7216L187.438 36.7985L187.445 24.9611L156.758 7.31519L156.794 19.1595L187.438 36.8299L187.432 48.6663L197.689 54.5973Z" fill="#675EF1"/>
</svg>
