<?xml version="1.0" encoding="UTF-8"?>
<svg width="801px" height="369px" viewBox="0 0 801 369" version="1.1" xmlns="http://www.w3.org/2000/svg" xmlns:xlink="http://www.w3.org/1999/xlink">
    <!-- Generator: Sketch 63.1 (92452) - https://sketch.com -->
    <title>404</title>
    <desc>Created with Sketch.</desc>
    <g id="Exports" stroke="none" stroke-width="1" fill="none" fill-rule="evenodd">
        <g id="Artboard" transform="translate(-2612.000000, -3128.000000)">
            <g id="404" transform="translate(2612.000000, 3128.000000)">
                <polygon id="Fill-1" fill="#141228" points="4.167 365 796.167 365 796.167 53.5 4.167 53.5"></polygon>
                <path d="M0.167,369 L800.166,369 L800.166,49.5 L0.167,49.5 L0.167,369 Z M8.167,361 L792.167,361 L792.167,57.5 L8.167,57.5 L8.167,361 Z" id="Fill-2" fill="#2562E7"></path>
                <polygon id="Fill-3" fill="#2562E7" points="0 57 800 57 800 0 0 0"></polygon>
                <polygon id="Fill-4" fill="#F65800" points="750 50 800 50 800 0 750 0"></polygon>
                <polygon id="Fill-5" fill="#7B74FF" points="142.3584 125.3464 136.8374 125.3464 136.0704 112.5784 136.0704 110.2744 135.4944 110.2744 135.4944 112.5784 134.7264 125.3464 129.2074 125.3464 128.6304 108.5464 131.5094 108.5464 131.8944 121.3144 131.8944 123.4744 132.4704 123.4744 132.4704 121.3144 133.2384 108.5464 138.3264 108.5464 139.0934 121.3144 139.0934 123.4744 139.6704 123.4744 139.6704 121.3144 140.0544 108.5464 142.9344 108.5464"></polygon>
                <g id="Group-153" transform="translate(144.000000, 13.000000)">
                    <path d="M6.5185,102.8425 C5.7495,102.8425 5.1265,103.0385 4.6465,103.4305 C4.1655,103.8225 3.8545,104.2745 3.7105,104.7865 L9.3265,104.7865 C9.2305,104.2265 8.9305,103.7625 8.4255,103.3945 C7.9215,103.0265 7.2875,102.8425 6.5185,102.8425 L6.5185,102.8425 Z M3.6625,107.3785 C3.6775,107.7305 3.7615,108.0545 3.9145,108.3505 C4.0665,108.6465 4.2745,108.9025 4.5395,109.1185 C4.8025,109.3345 5.1065,109.5025 5.4515,109.6225 C5.7945,109.7425 6.1585,109.8025 6.5425,109.8025 C7.2945,109.8025 7.8705,109.6705 8.2705,109.4065 C8.6695,109.1425 8.9575,108.8265 9.1345,108.4585 L11.7265,109.8985 C11.5815,110.2025 11.3825,110.5185 11.1265,110.8465 C10.8705,111.1745 10.5395,111.4745 10.1305,111.7465 C9.7225,112.0185 9.2265,112.2425 8.6425,112.4185 C8.0585,112.5945 7.3735,112.6825 6.5895,112.6825 C5.6945,112.6825 4.8785,112.5385 4.1425,112.2505 C3.4065,111.9625 2.7705,111.5465 2.2345,111.0025 C1.6985,110.4585 1.2825,109.7945 0.9865,109.0105 C0.6905,108.2265 0.5425,107.3385 0.5425,106.3465 L0.5425,106.2025 C0.5425,105.2905 0.6985,104.4585 1.0095,103.7065 C1.3225,102.9545 1.7495,102.3145 2.2945,101.7865 C2.8375,101.2585 3.4745,100.8465 4.2035,100.5505 C4.9295,100.2545 5.7105,100.1065 6.5425,100.1065 C7.5665,100.1065 8.4465,100.2865 9.1825,100.6465 C9.9175,101.0065 10.5265,101.4625 11.0055,102.0145 C11.4865,102.5665 11.8375,103.1745 12.0625,103.8385 C12.2865,104.5025 12.3985,105.1465 12.3985,105.7705 L12.3985,107.3785 L3.6625,107.3785 Z" id="Fill-6" fill="#7B74FF"></path>
                    <path d="M30.2783,100.4424 L33.6623,100.4424 L33.6623,97.9944 C33.6623,97.3064 33.8943,96.7264 34.3583,96.2544 C34.8223,95.7824 35.3983,95.5464 36.0863,95.5464 L40.9343,95.5464 L40.9343,98.4264 L37.3343,98.4264 C36.9023,98.4264 36.6863,98.6664 36.6863,99.1464 L36.6863,100.4424 L41.3663,100.4424 L41.3663,103.3224 L36.6863,103.3224 L36.6863,112.3464 L33.6623,112.3464 L33.6623,103.3224 L30.2783,103.3224 L30.2783,100.4424 Z" id="Fill-8" fill="#7B74FF"></path>
                    <path d="M50.5351,109.8025 C50.9671,109.8025 51.3751,109.7305 51.7581,109.5865 C52.1421,109.4425 52.4781,109.2345 52.7661,108.9625 C53.0551,108.6905 53.2821,108.3585 53.4501,107.9665 C53.6191,107.5745 53.7031,107.1305 53.7031,106.6345 L53.7031,106.1545 C53.7031,105.6585 53.6191,105.2145 53.4501,104.8225 C53.2821,104.4305 53.0551,104.0985 52.7661,103.8265 C52.4781,103.5545 52.1421,103.3465 51.7581,103.2025 C51.3751,103.0585 50.9671,102.9865 50.5351,102.9865 C50.1021,102.9865 49.6941,103.0585 49.3101,103.2025 C48.9261,103.3465 48.5901,103.5545 48.3031,103.8265 C48.0141,104.0985 47.7871,104.4305 47.6191,104.8225 C47.4501,105.2145 47.3661,105.6585 47.3661,106.1545 L47.3661,106.6345 C47.3661,107.1305 47.4501,107.5745 47.6191,107.9665 C47.7871,108.3585 48.0141,108.6905 48.3031,108.9625 C48.5901,109.2345 48.9261,109.4425 49.3101,109.5865 C49.6941,109.7305 50.1021,109.8025 50.5351,109.8025 L50.5351,109.8025 Z M56.7261,106.5385 C56.7261,107.5305 56.5581,108.4065 56.2221,109.1665 C55.8871,109.9265 55.4311,110.5665 54.8541,111.0865 C54.2781,111.6065 53.6191,112.0025 52.8751,112.2745 C52.1311,112.5465 51.3501,112.6825 50.5351,112.6825 C49.7191,112.6825 48.9381,112.5465 48.1941,112.2745 C47.4501,112.0025 46.7911,111.6065 46.2151,111.0865 C45.6391,110.5665 45.1821,109.9265 44.8461,109.1665 C44.5101,108.4065 44.3421,107.5305 44.3421,106.5385 L44.3421,106.2505 C44.3421,105.2745 44.5101,104.4065 44.8461,103.6465 C45.1821,102.8865 45.6391,102.2425 46.2151,101.7145 C46.7911,101.1865 47.4501,100.7865 48.1941,100.5145 C48.9381,100.2425 49.7191,100.1065 50.5351,100.1065 C51.3501,100.1065 52.1311,100.2425 52.8751,100.5145 C53.6191,100.7865 54.2781,101.1865 54.8541,101.7145 C55.4311,102.2425 55.8871,102.8865 56.2221,103.6465 C56.5581,104.4065 56.7261,105.2745 56.7261,106.2505 L56.7261,106.5385 Z" id="Fill-10" fill="#7B74FF"></path>
                    <path d="M67.8144,100.4424 L70.8374,100.4424 L70.8374,112.3464 L67.8144,112.3464 L67.8144,110.6184 L67.3824,110.6184 C66.8544,111.9944 65.7184,112.6824 63.9744,112.6824 C63.3824,112.6824 62.8304,112.5864 62.3184,112.3944 C61.8064,112.2024 61.3584,111.9064 60.9744,111.5064 C60.5894,111.1064 60.2914,110.6064 60.0744,110.0064 C59.8584,109.4064 59.7504,108.6984 59.7504,107.8824 L59.7504,100.4424 L62.7744,100.4424 L62.7744,107.2584 C62.7744,108.1064 62.9744,108.7664 63.3754,109.2384 C63.7734,109.7104 64.3744,109.9464 65.1734,109.9464 C66.0854,109.9464 66.7534,109.6544 67.1774,109.0704 C67.6014,108.4864 67.8144,107.6904 67.8144,106.6824 L67.8144,100.4424 Z" id="Fill-12" fill="#7B74FF"></path>
                    <path d="M77.4628,112.3464 L74.4388,112.3464 L74.4388,100.4424 L77.4628,100.4424 L77.4628,102.2184 L77.8948,102.2184 C78.1658,101.5464 78.6058,101.0264 79.2148,100.6584 C79.8218,100.2904 80.5338,100.1064 81.3508,100.1064 C81.9258,100.1064 82.4668,100.1984 82.9708,100.3824 C83.4748,100.5664 83.9178,100.8504 84.3028,101.2344 C84.6868,101.6184 84.9858,102.1064 85.2028,102.6984 C85.4178,103.2904 85.5258,103.9944 85.5258,104.8104 L85.5258,112.3464 L82.5018,112.3464 L82.5018,105.5784 C82.5018,104.7304 82.2988,104.0624 81.8908,103.5744 C81.4828,103.0864 80.8948,102.8424 80.1268,102.8424 C79.2308,102.8424 78.5628,103.1424 78.1228,103.7424 C77.6818,104.3424 77.4628,105.1464 77.4628,106.1544 L77.4628,112.3464 Z" id="Fill-14" fill="#7B74FF"></path>
                    <path d="M94.5019,109.8025 C95.4459,109.8025 96.2099,109.5025 96.7949,108.9025 C97.3789,108.3025 97.6699,107.5145 97.6699,106.5385 L97.6699,106.2505 C97.6699,105.2745 97.3789,104.4865 96.7949,103.8865 C96.2099,103.2865 95.4459,102.9865 94.5019,102.9865 C93.5589,102.9865 92.7949,103.2785 92.2109,103.8625 C91.6259,104.4465 91.3339,105.2425 91.3339,106.2505 L91.3339,106.5385 C91.3339,107.5465 91.6259,108.3425 92.2109,108.9265 C92.7949,109.5105 93.5589,109.8025 94.5019,109.8025 L94.5019,109.8025 Z M97.6699,110.6185 L97.2379,110.6185 C97.1099,110.8905 96.9539,111.1505 96.7709,111.3985 C96.5859,111.6465 96.3459,111.8665 96.0509,112.0585 C95.7539,112.2505 95.4019,112.4025 94.9939,112.5145 C94.5859,112.6265 94.0939,112.6825 93.5189,112.6825 C92.7819,112.6825 92.0979,112.5505 91.4669,112.2865 C90.8339,112.0225 90.2819,111.6305 89.8109,111.1105 C89.3379,110.5905 88.9709,109.9545 88.7069,109.2025 C88.4419,108.4505 88.3109,107.5865 88.3109,106.6105 L88.3109,106.1785 C88.3109,105.2185 88.4499,104.3625 88.7309,103.6105 C89.0099,102.8585 89.3949,102.2225 89.8829,101.7025 C90.3699,101.1825 90.9389,100.7865 91.5859,100.5145 C92.2339,100.2425 92.9179,100.1065 93.6389,100.1065 C94.5989,100.1065 95.3569,100.2865 95.9179,100.6465 C96.4789,101.0065 96.9179,101.5145 97.2379,102.1705 L97.6699,102.1705 L97.6699,95.5465 L100.6939,95.5465 L100.6939,112.3465 L97.6699,112.3465 L97.6699,110.6185 Z" id="Fill-16" fill="#7B74FF"></path>
                    <path d="M123.5185,109.8025 C124.3985,109.8025 125.1025,109.5105 125.6305,108.9265 C126.1585,108.3425 126.4215,107.5465 126.4215,106.5385 L126.4215,106.2505 C126.4215,105.2425 126.1585,104.4465 125.6305,103.8625 C125.1025,103.2785 124.3985,102.9865 123.5185,102.9865 C122.6385,102.9865 121.9345,103.2785 121.4065,103.8625 C120.8785,104.4465 120.6145,105.2425 120.6145,106.2505 L120.6145,106.5385 C120.6145,107.5465 120.8785,108.3425 121.4065,108.9265 C121.9345,109.5105 122.6385,109.8025 123.5185,109.8025 L123.5185,109.8025 Z M126.2065,110.6185 C125.8865,111.3705 125.4385,111.9025 124.8625,112.2145 C124.2865,112.5265 123.6145,112.6825 122.8455,112.6825 C122.1265,112.6825 121.4505,112.5465 120.8185,112.2745 C120.1855,112.0025 119.6305,111.6025 119.1505,111.0745 C118.6695,110.5465 118.2895,109.9065 118.0095,109.1545 C117.7305,108.4025 117.5895,107.5465 117.5895,106.5865 L117.5895,106.2025 C117.5895,105.2585 117.7265,104.4105 117.9975,103.6585 C118.2695,102.9065 118.6385,102.2665 119.1025,101.7385 C119.5665,101.2105 120.1065,100.8065 120.7225,100.5265 C121.3375,100.2465 121.9975,100.1065 122.7025,100.1065 C123.5505,100.1065 124.2345,100.2505 124.7535,100.5385 C125.2735,100.8265 125.6855,101.2745 125.9905,101.8825 L126.4215,101.8825 L126.4215,100.4425 L129.4465,100.4425 L129.4465,108.7465 C129.4465,109.2265 129.6625,109.4665 130.0935,109.4665 L130.5505,109.4665 L130.5505,112.3465 L128.4865,112.3465 C127.9425,112.3465 127.4975,112.1865 127.1545,111.8665 C126.8105,111.5465 126.6385,111.1305 126.6385,110.6185 L126.2065,110.6185 Z" id="Fill-18" fill="#7B74FF"></path>
                    <path d="M149.6543,105.7224 L149.6543,106.1544 L154.4063,106.1544 L154.4063,97.1304 L153.9743,97.1304 L149.6543,105.7224 Z M151.5743,95.5464 L157.5743,95.5464 L157.5743,106.1544 L160.0223,106.1544 L160.0223,109.1784 L157.5743,109.1784 L157.5743,112.3464 L154.4063,112.3464 L154.4063,109.1784 L146.9183,109.1784 L146.9183,104.8104 L151.5743,95.5464 Z" id="Fill-20" fill="#7B74FF"></path>
                    <path d="M166.0224,103.9465 C166.0224,103.4025 166.2224,102.9305 166.6234,102.5305 C167.0214,102.1305 167.4944,101.9305 168.0394,101.9305 C168.5824,101.9305 169.0544,102.1305 169.4544,102.5305 C169.8534,102.9305 170.0544,103.4025 170.0544,103.9465 C170.0544,104.4905 169.8534,104.9625 169.4544,105.3625 C169.0544,105.7625 168.5824,105.9625 168.0394,105.9625 C167.4944,105.9625 167.0214,105.7625 166.6234,105.3625 C166.2224,104.9625 166.0224,104.4905 166.0224,103.9465 L166.0224,103.9465 Z M168.0394,109.8025 C168.6144,109.8025 169.0934,109.7105 169.4784,109.5265 C169.8624,109.3425 170.1734,109.0825 170.4144,108.7465 C170.6544,108.4105 170.8224,108.0105 170.9184,107.5465 C171.0134,107.0825 171.0624,106.5705 171.0624,106.0105 L171.0624,101.8825 C171.0624,101.3545 171.0054,100.8585 170.8944,100.3945 C170.7824,99.9305 170.6064,99.5305 170.3664,99.1945 C170.1264,98.8585 169.8144,98.5905 169.4294,98.3905 C169.0464,98.1905 168.5824,98.0905 168.0394,98.0905 C167.4944,98.0905 167.0304,98.1905 166.6464,98.3905 C166.2614,98.5905 165.9504,98.8585 165.7104,99.1945 C165.4704,99.5305 165.2934,99.9305 165.1814,100.3945 C165.0704,100.8585 165.0134,101.3545 165.0134,101.8825 L165.0134,106.0105 C165.0134,106.5705 165.0624,107.0825 165.1584,107.5465 C165.2534,108.0105 165.4214,108.4105 165.6624,108.7465 C165.9024,109.0825 166.2144,109.3425 166.5974,109.5265 C166.9824,109.7105 167.4624,109.8025 168.0394,109.8025 L168.0394,109.8025 Z M161.8454,102.0745 C161.8454,99.8985 162.3944,98.2105 163.4904,97.0105 C164.5854,95.8105 166.1014,95.2105 168.0394,95.2105 C169.9744,95.2105 171.4904,95.8105 172.5854,97.0105 C173.6814,98.2105 174.2304,99.8985 174.2304,102.0745 L174.2304,105.8185 C174.2304,108.0585 173.6814,109.7625 172.5854,110.9305 C171.4904,112.0985 169.9744,112.6825 168.0394,112.6825 C166.1014,112.6825 164.5854,112.0985 163.4904,110.9305 C162.3944,109.7625 161.8454,108.0585 161.8454,105.8185 L161.8454,102.0745 Z" id="Fill-22" fill="#7B74FF"></path>
                    <path d="M179.0302,105.7224 L179.0302,106.1544 L183.7822,106.1544 L183.7822,97.1304 L183.3492,97.1304 L179.0302,105.7224 Z M180.9502,95.5464 L186.9502,95.5464 L186.9502,106.1544 L189.3982,106.1544 L189.3982,109.1784 L186.9502,109.1784 L186.9502,112.3464 L183.7822,112.3464 L183.7822,109.1784 L176.2952,109.1784 L176.2952,104.8104 L180.9502,95.5464 Z" id="Fill-24" fill="#7B74FF"></path>
                    <path d="M212.1504,102.8425 C211.3824,102.8425 210.7574,103.0385 210.2784,103.4305 C209.7984,103.8225 209.4864,104.2745 209.3414,104.7865 L214.9594,104.7865 C214.8624,104.2265 214.5624,103.7625 214.0584,103.3945 C213.5544,103.0265 212.9184,102.8425 212.1504,102.8425 L212.1504,102.8425 Z M209.2954,107.3785 C209.3104,107.7305 209.3944,108.0545 209.5464,108.3505 C209.6984,108.6465 209.9064,108.9025 210.1704,109.1185 C210.4334,109.3345 210.7384,109.5025 211.0824,109.6225 C211.4254,109.7425 211.7914,109.8025 212.1734,109.8025 C212.9254,109.8025 213.5024,109.6705 213.9024,109.4065 C214.3024,109.1425 214.5894,108.8265 214.7654,108.4585 L217.3584,109.8985 C217.2144,110.2025 217.0134,110.5185 216.7574,110.8465 C216.5024,111.1745 216.1704,111.4745 215.7614,111.7465 C215.3544,112.0185 214.8584,112.2425 214.2744,112.4185 C213.6894,112.5945 213.0054,112.6825 212.2224,112.6825 C211.3264,112.6825 210.5094,112.5385 209.7744,112.2505 C209.0384,111.9625 208.4024,111.5465 207.8664,111.0025 C207.3304,110.4585 206.9144,109.7945 206.6184,109.0105 C206.3224,108.2265 206.1734,107.3385 206.1734,106.3465 L206.1734,106.2025 C206.1734,105.2905 206.3304,104.4585 206.6424,103.7065 C206.9544,102.9545 207.3824,102.3145 207.9254,101.7865 C208.4704,101.2585 209.1054,100.8465 209.8344,100.5505 C210.5624,100.2545 211.3414,100.1065 212.1734,100.1065 C213.1984,100.1065 214.0784,100.2865 214.8144,100.6465 C215.5504,101.0065 216.1584,101.4625 216.6384,102.0145 C217.1184,102.5665 217.4704,103.1745 217.6944,103.8385 C217.9184,104.5025 218.0304,105.1465 218.0304,105.7705 L218.0304,107.3785 L209.2954,107.3785 Z" id="Fill-26" fill="#7B74FF"></path>
                    <path d="M220.7422,100.4424 L225.7822,100.4424 L225.7822,102.1704 L226.2152,102.1704 C226.4372,101.5144 226.8182,101.0064 227.3542,100.6464 C227.8902,100.2864 228.5342,100.1064 229.2862,100.1064 C230.4712,100.1064 231.4222,100.4784 232.1422,101.2224 C232.8622,101.9664 233.2222,103.0984 233.2222,104.6184 L233.2222,105.1464 L230.1012,105.4344 L230.1012,105.0984 C230.1012,104.4424 229.9332,103.9184 229.5972,103.5264 C229.2622,103.1344 228.7582,102.9384 228.0862,102.9384 C227.4142,102.9384 226.8872,103.1704 226.5022,103.6344 C226.1182,104.0984 225.9262,104.7624 225.9262,105.6264 L225.9262,109.4664 L228.6622,109.4664 L228.6622,112.3464 L220.4542,112.3464 L220.4542,109.4664 L222.9022,109.4664 L222.9022,103.3224 L220.7422,103.3224 L220.7422,100.4424 Z" id="Fill-28" fill="#7B74FF"></path>
                    <path d="M235.4297,100.4424 L240.4707,100.4424 L240.4707,102.1704 L240.9027,102.1704 C241.1257,101.5144 241.5057,101.0064 242.0427,100.6464 C242.5777,100.2864 243.2227,100.1064 243.9747,100.1064 C245.1587,100.1064 246.1107,100.4784 246.8297,101.2224 C247.5507,101.9664 247.9097,103.0984 247.9097,104.6184 L247.9097,105.1464 L244.7897,105.4344 L244.7897,105.0984 C244.7897,104.4424 244.6217,103.9184 244.2857,103.5264 C243.9507,103.1344 243.4467,102.9384 242.7747,102.9384 C242.1017,102.9384 241.5747,103.1704 241.1907,103.6344 C240.8067,104.0984 240.6147,104.7624 240.6147,105.6264 L240.6147,109.4664 L243.3497,109.4664 L243.3497,112.3464 L235.1427,112.3464 L235.1427,109.4664 L237.5897,109.4664 L237.5897,103.3224 L235.4297,103.3224 L235.4297,100.4424 Z" id="Fill-30" fill="#7B74FF"></path>
                    <path d="M256.166,109.8025 C256.598,109.8025 257.006,109.7305 257.391,109.5865 C257.774,109.4425 258.11,109.2345 258.398,108.9625 C258.686,108.6905 258.914,108.3585 259.082,107.9665 C259.25,107.5745 259.334,107.1305 259.334,106.6345 L259.334,106.1545 C259.334,105.6585 259.25,105.2145 259.082,104.8225 C258.914,104.4305 258.686,104.0985 258.398,103.8265 C258.11,103.5545 257.774,103.3465 257.391,103.2025 C257.006,103.0585 256.598,102.9865 256.166,102.9865 C255.734,102.9865 255.326,103.0585 254.942,103.2025 C254.559,103.3465 254.223,103.5545 253.934,103.8265 C253.646,104.0985 253.418,104.4305 253.25,104.8225 C253.082,105.2145 252.998,105.6585 252.998,106.1545 L252.998,106.6345 C252.998,107.1305 253.082,107.5745 253.25,107.9665 C253.418,108.3585 253.646,108.6905 253.934,108.9625 C254.223,109.2345 254.559,109.4425 254.942,109.5865 C255.326,109.7305 255.734,109.8025 256.166,109.8025 L256.166,109.8025 Z M262.358,106.5385 C262.358,107.5305 262.19,108.4065 261.854,109.1665 C261.518,109.9265 261.062,110.5665 260.486,111.0865 C259.91,111.6065 259.25,112.0025 258.506,112.2745 C257.762,112.5465 256.982,112.6825 256.166,112.6825 C255.35,112.6825 254.57,112.5465 253.826,112.2745 C253.082,112.0025 252.422,111.6065 251.846,111.0865 C251.27,110.5665 250.814,109.9265 250.479,109.1665 C250.143,108.4065 249.975,107.5305 249.975,106.5385 L249.975,106.2505 C249.975,105.2745 250.143,104.4065 250.479,103.6465 C250.814,102.8865 251.27,102.2425 251.846,101.7145 C252.422,101.1865 253.082,100.7865 253.826,100.5145 C254.57,100.2425 255.35,100.1065 256.166,100.1065 C256.982,100.1065 257.762,100.2425 258.506,100.5145 C259.25,100.7865 259.91,101.1865 260.486,101.7145 C261.062,102.2425 261.518,102.8865 261.854,103.6465 C262.19,104.4065 262.358,105.2745 262.358,106.2505 L262.358,106.5385 Z" id="Fill-32" fill="#7B74FF"></path>
                    <path d="M264.8066,100.4424 L269.8456,100.4424 L269.8456,102.1704 L270.2786,102.1704 C270.5016,101.5144 270.8816,101.0064 271.4176,100.6464 C271.9536,100.2864 272.5976,100.1064 273.3496,100.1064 C274.5346,100.1064 275.4866,100.4784 276.2056,101.2224 C276.9256,101.9664 277.2856,103.0984 277.2856,104.6184 L277.2856,105.1464 L274.1656,105.4344 L274.1656,105.0984 C274.1656,104.4424 273.9976,103.9184 273.6616,103.5264 C273.3266,103.1344 272.8226,102.9384 272.1506,102.9384 C271.4786,102.9384 270.9506,103.1704 270.5666,103.6344 C270.1816,104.0984 269.9906,104.7624 269.9906,105.6264 L269.9906,109.4664 L272.7266,109.4664 L272.7266,112.3464 L264.5176,112.3464 L264.5176,109.4664 L266.9666,109.4664 L266.9666,103.3224 L264.8066,103.3224 L264.8066,100.4424 Z" id="Fill-34" fill="#7B74FF"></path>
                    <path d="M300.2304,109.8025 C300.6624,109.8025 301.0704,109.7305 301.4544,109.5865 C301.8374,109.4425 302.1734,109.2345 302.4624,108.9625 C302.7504,108.6905 302.9784,108.3585 303.1464,107.9665 C303.3144,107.5745 303.3984,107.1305 303.3984,106.6345 L303.3984,106.1545 C303.3984,105.6585 303.3144,105.2145 303.1464,104.8225 C302.9784,104.4305 302.7504,104.0985 302.4624,103.8265 C302.1734,103.5545 301.8374,103.3465 301.4544,103.2025 C301.0704,103.0585 300.6624,102.9865 300.2304,102.9865 C299.7984,102.9865 299.3904,103.0585 299.0054,103.2025 C298.6224,103.3465 298.2864,103.5545 297.9984,103.8265 C297.7104,104.0985 297.4824,104.4305 297.3144,104.8225 C297.1464,105.2145 297.0624,105.6585 297.0624,106.1545 L297.0624,106.6345 C297.0624,107.1305 297.1464,107.5745 297.3144,107.9665 C297.4824,108.3585 297.7104,108.6905 297.9984,108.9625 C298.2864,109.2345 298.6224,109.4425 299.0054,109.5865 C299.3904,109.7305 299.7984,109.8025 300.2304,109.8025 L300.2304,109.8025 Z M306.4214,106.5385 C306.4214,107.5305 306.2534,108.4065 305.9174,109.1665 C305.5824,109.9265 305.1264,110.5665 304.5504,111.0865 C303.9744,111.6065 303.3144,112.0025 302.5704,112.2745 C301.8264,112.5465 301.0464,112.6825 300.2304,112.6825 C299.4144,112.6825 298.6344,112.5465 297.8904,112.2745 C297.1464,112.0025 296.4864,111.6065 295.9104,111.0865 C295.3344,110.5665 294.8784,109.9265 294.5424,109.1665 C294.2064,108.4065 294.0384,107.5305 294.0384,106.5385 L294.0384,106.2505 C294.0384,105.2745 294.2064,104.4065 294.5424,103.6465 C294.8784,102.8865 295.3344,102.2425 295.9104,101.7145 C296.4864,101.1865 297.1464,100.7865 297.8904,100.5145 C298.6344,100.2425 299.4144,100.1065 300.2304,100.1065 C301.0464,100.1065 301.8264,100.2425 302.5704,100.5145 C303.3144,100.7865 303.9744,101.1865 304.5504,101.7145 C305.1264,102.2425 305.5824,102.8865 305.9174,103.6465 C306.2534,104.4065 306.4214,105.2745 306.4214,106.2505 L306.4214,106.5385 Z" id="Fill-36" fill="#7B74FF"></path>
                    <path d="M312.4707,112.3464 L309.4467,112.3464 L309.4467,100.4424 L312.4707,100.4424 L312.4707,102.2184 L312.9027,102.2184 C313.1737,101.5464 313.6137,101.0264 314.2227,100.6584 C314.8297,100.2904 315.5417,100.1064 316.3587,100.1064 C316.9337,100.1064 317.4747,100.1984 317.9787,100.3824 C318.4827,100.5664 318.9257,100.8504 319.3107,101.2344 C319.6947,101.6184 319.9937,102.1064 320.2107,102.6984 C320.4257,103.2904 320.5337,103.9944 320.5337,104.8104 L320.5337,112.3464 L317.5097,112.3464 L317.5097,105.5784 C317.5097,104.7304 317.3067,104.0624 316.8987,103.5744 C316.4907,103.0864 315.9027,102.8424 315.1347,102.8424 C314.2387,102.8424 313.5707,103.1424 313.1307,103.7424 C312.6897,104.3424 312.4707,105.1464 312.4707,106.1544 L312.4707,112.3464 Z" id="Fill-38" fill="#7B74FF"></path>
                    <path d="M346.8867,100.4424 L349.9097,100.4424 L349.9097,115.2744 C349.9097,115.8184 349.7387,116.2664 349.3947,116.6184 C349.0497,116.9704 348.6057,117.1464 348.0627,117.1464 L340.9827,117.1464 L340.9827,114.2664 L346.2387,114.2664 C346.6697,114.2664 346.8867,114.0264 346.8867,113.5464 L346.8867,110.6184 L346.4537,110.6184 C345.9257,111.9944 344.7897,112.6824 343.0467,112.6824 C342.4537,112.6824 341.9027,112.5864 341.3907,112.3944 C340.8777,112.2024 340.4297,111.9064 340.0467,111.5064 C339.6617,111.1064 339.3627,110.6064 339.1467,110.0064 C338.9297,109.4064 338.8227,108.6984 338.8227,107.8824 L338.8227,100.4424 L341.8457,100.4424 L341.8457,107.2584 C341.8457,108.1064 342.0457,108.7664 342.4467,109.2384 C342.8457,109.7104 343.4457,109.9464 344.2457,109.9464 C345.1577,109.9464 345.8257,109.6544 346.2497,109.0704 C346.6737,108.4864 346.8867,107.6904 346.8867,106.6824 L346.8867,100.4424 Z" id="Fill-40" fill="#7B74FF"></path>
                    <path d="M358.9824,109.8025 C359.4144,109.8025 359.8224,109.7305 360.2064,109.5865 C360.5894,109.4425 360.9254,109.2345 361.2144,108.9625 C361.5024,108.6905 361.7304,108.3585 361.8984,107.9665 C362.0664,107.5745 362.1504,107.1305 362.1504,106.6345 L362.1504,106.1545 C362.1504,105.6585 362.0664,105.2145 361.8984,104.8225 C361.7304,104.4305 361.5024,104.0985 361.2144,103.8265 C360.9254,103.5545 360.5894,103.3465 360.2064,103.2025 C359.8224,103.0585 359.4144,102.9865 358.9824,102.9865 C358.5504,102.9865 358.1424,103.0585 357.7574,103.2025 C357.3744,103.3465 357.0384,103.5545 356.7504,103.8265 C356.4624,104.0985 356.2344,104.4305 356.0664,104.8225 C355.8984,105.2145 355.8144,105.6585 355.8144,106.1545 L355.8144,106.6345 C355.8144,107.1305 355.8984,107.5745 356.0664,107.9665 C356.2344,108.3585 356.4624,108.6905 356.7504,108.9625 C357.0384,109.2345 357.3744,109.4425 357.7574,109.5865 C358.1424,109.7305 358.5504,109.8025 358.9824,109.8025 L358.9824,109.8025 Z M365.1734,106.5385 C365.1734,107.5305 365.0054,108.4065 364.6694,109.1665 C364.3344,109.9265 363.8784,110.5665 363.3024,111.0865 C362.7264,111.6065 362.0664,112.0025 361.3224,112.2745 C360.5784,112.5465 359.7984,112.6825 358.9824,112.6825 C358.1664,112.6825 357.3864,112.5465 356.6424,112.2745 C355.8984,112.0025 355.2384,111.6065 354.6624,111.0865 C354.0864,110.5665 353.6304,109.9265 353.2944,109.1665 C352.9584,108.4065 352.7904,107.5305 352.7904,106.5385 L352.7904,106.2505 C352.7904,105.2745 352.9584,104.4065 353.2944,103.6465 C353.6304,102.8865 354.0864,102.2425 354.6624,101.7145 C355.2384,101.1865 355.8984,100.7865 356.6424,100.5145 C357.3864,100.2425 358.1664,100.1065 358.9824,100.1065 C359.7984,100.1065 360.5784,100.2425 361.3224,100.5145 C362.0664,100.7865 362.7264,101.1865 363.3024,101.7145 C363.8784,102.2425 364.3344,102.8865 364.6694,103.6465 C365.0054,104.4065 365.1734,105.2745 365.1734,106.2505 L365.1734,106.5385 Z" id="Fill-42" fill="#7B74FF"></path>
                    <path d="M376.2617,100.4424 L379.2857,100.4424 L379.2857,112.3464 L376.2617,112.3464 L376.2617,110.6184 L375.8297,110.6184 C375.3027,111.9944 374.1657,112.6824 372.4217,112.6824 C371.8297,112.6824 371.2777,112.5864 370.7657,112.3944 C370.2537,112.2024 369.8067,111.9064 369.4217,111.5064 C369.0377,111.1064 368.7387,110.6064 368.5217,110.0064 C368.3067,109.4064 368.1987,108.6984 368.1987,107.8824 L368.1987,100.4424 L371.2227,100.4424 L371.2227,107.2584 C371.2227,108.1064 371.4217,108.7664 371.8227,109.2384 C372.2217,109.7104 372.8227,109.9464 373.6217,109.9464 C374.5337,109.9464 375.2017,109.6544 375.6257,109.0704 C376.0497,108.4864 376.2617,107.6904 376.2617,106.6824 L376.2617,100.4424 Z" id="Fill-44" fill="#7B74FF"></path>
                    <path d="M382.3105,100.4424 L387.3495,100.4424 L387.3495,102.1704 L387.7825,102.1704 C388.0055,101.5144 388.3855,101.0064 388.9215,100.6464 C389.4575,100.2864 390.1015,100.1064 390.8535,100.1064 C392.0385,100.1064 392.9905,100.4784 393.7095,101.2224 C394.4295,101.9664 394.7895,103.0984 394.7895,104.6184 L394.7895,105.1464 L391.6695,105.4344 L391.6695,105.0984 C391.6695,104.4424 391.5015,103.9184 391.1655,103.5264 C390.8305,103.1344 390.3265,102.9384 389.6545,102.9384 C388.9825,102.9384 388.4545,103.1704 388.0705,103.6344 C387.6855,104.0984 387.4945,104.7624 387.4945,105.6264 L387.4945,109.4664 L390.2305,109.4664 L390.2305,112.3464 L382.0215,112.3464 L382.0215,109.4664 L384.4705,109.4664 L384.4705,103.3224 L382.3105,103.3224 L382.3105,100.4424 Z" id="Fill-46" fill="#7B74FF"></path>
                    <path d="M417.7822,109.8025 C418.3902,109.8025 418.8892,109.7105 419.2822,109.5265 C419.6742,109.3425 419.9782,109.0945 420.1942,108.7825 C420.4102,108.4705 420.5582,108.1105 420.6382,107.7025 C420.7182,107.2945 420.7582,106.8745 420.7582,106.4425 L420.7582,106.0105 L423.9262,106.0105 L423.9262,106.4425 C423.9262,108.4425 423.4022,109.9825 422.3532,111.0625 C421.3062,112.1425 419.7822,112.6825 417.7822,112.6825 C415.8622,112.6825 414.3422,112.0985 413.2222,110.9305 C412.1012,109.7625 411.5422,108.0585 411.5422,105.8185 L411.5422,102.0745 C411.5422,101.0025 411.6852,100.0385 411.9742,99.1825 C412.2612,98.3265 412.6782,97.6065 413.2222,97.0225 C413.7652,96.4385 414.4222,95.9905 415.1892,95.6785 C415.9582,95.3665 416.8222,95.2105 417.7822,95.2105 C418.7732,95.2105 419.6542,95.3545 420.4222,95.6425 C421.1892,95.9305 421.8342,96.3465 422.3532,96.8905 C422.8742,97.4345 423.2652,98.0905 423.5302,98.8585 C423.7942,99.6265 423.9262,100.4905 423.9262,101.4505 L423.9262,101.8825 L420.7582,101.8825 L420.7582,101.4505 C420.7582,101.0505 420.7102,100.6505 420.6142,100.2505 C420.5172,99.8505 420.3572,99.4905 420.1352,99.1705 C419.9102,98.8505 419.6052,98.5905 419.2222,98.3905 C418.8382,98.1905 418.3572,98.0905 417.7822,98.0905 C417.2542,98.0905 416.7992,98.1905 416.4142,98.3905 C416.0302,98.5905 415.7102,98.8625 415.4542,99.2065 C415.1982,99.5505 415.0102,99.9505 414.8902,100.4065 C414.7692,100.8625 414.7102,101.3385 414.7102,101.8345 L414.7102,106.0585 C414.7102,106.6025 414.7652,107.1025 414.8782,107.5585 C414.9902,108.0145 415.1662,108.4105 415.4062,108.7465 C415.6462,109.0825 415.9622,109.3425 416.3532,109.5265 C416.7462,109.7105 417.2212,109.8025 417.7822,109.8025" id="Fill-48" fill="#7B74FF"></path>
                    <path d="M434.7021,110.4023 C434.7021,110.7223 434.6421,111.0223 434.5211,111.3023 C434.4021,111.5823 434.2381,111.8223 434.0301,112.0223 C433.8221,112.2223 433.5781,112.3823 433.2991,112.5023 C433.0171,112.6223 432.7261,112.6823 432.4221,112.6823 C432.1011,112.6823 431.8061,112.6223 431.5341,112.5023 C431.2621,112.3823 431.0211,112.2223 430.8141,112.0223 C430.6051,111.8223 430.4411,111.5823 430.3221,111.3023 C430.2021,111.0223 430.1421,110.7223 430.1421,110.4023 C430.1421,110.0823 430.2021,109.7823 430.3221,109.5023 C430.4411,109.2223 430.6051,108.9823 430.8141,108.7823 C431.0211,108.5823 431.2621,108.4223 431.5341,108.3023 C431.8061,108.1823 432.1011,108.1223 432.4221,108.1223 C432.7261,108.1223 433.0171,108.1823 433.2991,108.3023 C433.5781,108.4223 433.8221,108.5823 434.0301,108.7823 C434.2381,108.9823 434.4021,109.2223 434.5211,109.5023 C434.6421,109.7823 434.7021,110.0823 434.7021,110.4023 M434.7021,102.3863 C434.7021,102.7063 434.6421,103.0063 434.5211,103.2863 C434.4021,103.5663 434.2381,103.8063 434.0301,104.0063 C433.8221,104.2063 433.5781,104.3663 433.2991,104.4863 C433.0171,104.6063 432.7261,104.6663 432.4221,104.6663 C432.1011,104.6663 431.8061,104.6063 431.5341,104.4863 C431.2621,104.3663 431.0211,104.2063 430.8141,104.0063 C430.6051,103.8063 430.4411,103.5663 430.3221,103.2863 C430.2021,103.0063 430.1421,102.7063 430.1421,102.3863 C430.1421,102.0663 430.2021,101.7663 430.3221,101.4863 C430.4411,101.2063 430.6051,100.9663 430.8141,100.7663 C431.0211,100.5663 431.2621,100.4063 431.5341,100.2863 C431.8061,100.1663 432.1011,100.1063 432.4221,100.1063 C432.7261,100.1063 433.0171,100.1663 433.2991,100.2863 C433.5781,100.4063 433.8221,100.5663 434.0301,100.7663 C434.2381,100.9663 434.4021,101.2063 434.5211,101.4863 C434.6421,101.7663 434.7021,102.0663 434.7021,102.3863" id="Fill-50" fill="#7B74FF"></path>
                    <polygon id="Fill-52" fill="#7B74FF" points="452.0781 114.4824 449.3181 115.3464 442.1421 93.4104 444.8781 92.5464"></polygon>
                    <path d="M461.7021,109.8025 C462.6461,109.8025 463.4101,109.5025 463.9941,108.9025 C464.5781,108.3025 464.8701,107.5145 464.8701,106.5385 L464.8701,106.2505 C464.8701,105.2745 464.5781,104.4865 463.9941,103.8865 C463.4101,103.2865 462.6461,102.9865 461.7021,102.9865 C460.7581,102.9865 459.9941,103.2785 459.4101,103.8625 C458.8261,104.4465 458.5341,105.2425 458.5341,106.2505 L458.5341,106.5385 C458.5341,107.5465 458.8261,108.3425 459.4101,108.9265 C459.9941,109.5105 460.7581,109.8025 461.7021,109.8025 L461.7021,109.8025 Z M464.8701,110.6185 L464.4371,110.6185 C464.3101,110.8905 464.1541,111.1505 463.9711,111.3985 C463.7861,111.6465 463.5461,111.8665 463.2501,112.0585 C462.9531,112.2505 462.6011,112.4025 462.1941,112.5145 C461.7861,112.6265 461.2941,112.6825 460.7191,112.6825 C459.9821,112.6825 459.2981,112.5505 458.6661,112.2865 C458.0331,112.0225 457.4821,111.6305 457.0101,111.1105 C456.5381,110.5905 456.1701,109.9545 455.9061,109.2025 C455.6421,108.4505 455.5101,107.5865 455.5101,106.6105 L455.5101,106.1785 C455.5101,105.2185 455.6501,104.3625 455.9301,103.6105 C456.2101,102.8585 456.5941,102.2225 457.0821,101.7025 C457.5701,101.1825 458.1391,100.7865 458.7861,100.5145 C459.4331,100.2425 460.1181,100.1065 460.8381,100.1065 C461.7991,100.1065 462.5571,100.2865 463.1181,100.6465 C463.6781,101.0065 464.1171,101.5145 464.4371,102.1705 L464.8701,102.1705 L464.8701,95.5465 L467.8941,95.5465 L467.8941,112.3465 L464.8701,112.3465 L464.8701,110.6185 Z" id="Fill-54" fill="#7B74FF"></path>
                    <path d="M470.4374,100.4424 L475.4784,100.4424 L475.4784,102.1704 L475.9104,102.1704 C476.1334,101.5144 476.5134,101.0064 477.0504,100.6464 C477.5854,100.2864 478.2304,100.1064 478.9824,100.1064 C480.1664,100.1064 481.1184,100.4784 481.8374,101.2224 C482.5584,101.9664 482.9174,103.0984 482.9174,104.6184 L482.9174,105.1464 L479.7974,105.4344 L479.7974,105.0984 C479.7974,104.4424 479.6294,103.9184 479.2934,103.5264 C478.9584,103.1344 478.4544,102.9384 477.7824,102.9384 C477.1094,102.9384 476.5824,103.1704 476.1984,103.6344 C475.8144,104.0984 475.6224,104.7624 475.6224,105.6264 L475.6224,109.4664 L478.3574,109.4664 L478.3574,112.3464 L470.1504,112.3464 L470.1504,109.4664 L472.5974,109.4664 L472.5974,103.3224 L470.4374,103.3224 L470.4374,100.4424 Z" id="Fill-56" fill="#7B74FF"></path>
                    <path d="M493.7187,96.9146 C493.7187,97.2346 493.6577,97.5346 493.5377,97.8146 C493.4177,98.0946 493.2537,98.3346 493.0457,98.5346 C492.8377,98.7346 492.5937,98.8946 492.3147,99.0146 C492.0337,99.1346 491.7417,99.1946 491.4377,99.1946 C491.1167,99.1946 490.8227,99.1346 490.5507,99.0146 C490.2777,98.8946 490.0367,98.7346 489.8297,98.5346 C489.6217,98.3346 489.4577,98.0946 489.3377,97.8146 C489.2187,97.5346 489.1577,97.2346 489.1577,96.9146 C489.1577,96.5946 489.2187,96.2946 489.3377,96.0146 C489.4577,95.7346 489.6217,95.4946 489.8297,95.2946 C490.0367,95.0946 490.2777,94.9346 490.5507,94.8146 C490.8227,94.6946 491.1167,94.6346 491.4377,94.6346 C491.7417,94.6346 492.0337,94.6946 492.3147,94.8146 C492.5937,94.9346 492.8377,95.0946 493.0457,95.2946 C493.2537,95.4946 493.4177,95.7346 493.5377,96.0146 C493.6577,96.2946 493.7187,96.5946 493.7187,96.9146 L493.7187,96.9146 Z M485.9177,109.4666 L489.9497,109.4666 L489.9497,103.3226 L486.2057,103.3226 L486.2057,100.4426 L492.9747,100.4426 L492.9747,109.4666 L496.4297,109.4666 L496.4297,112.3466 L485.9177,112.3466 L485.9177,109.4666 Z" id="Fill-58" fill="#7B74FF"></path>
                    <polygon id="Fill-60" fill="#7B74FF" points="499.5507 100.4424 502.8147 100.4424 505.6217 110.9064 506.0547 110.9064 508.8627 100.4424 512.1257 100.4424 508.7187 112.3464 502.9577 112.3464"></polygon>
                    <path d="M520.5976,102.8425 C519.8296,102.8425 519.2056,103.0385 518.7266,103.4305 C518.2456,103.8225 517.9336,104.2745 517.7896,104.7865 L523.4066,104.7865 C523.3106,104.2265 523.0096,103.7625 522.5056,103.3945 C522.0016,103.0265 521.3666,102.8425 520.5976,102.8425 L520.5976,102.8425 Z M517.7426,107.3785 C517.7576,107.7305 517.8416,108.0545 517.9936,108.3505 C518.1466,108.6465 518.3536,108.9025 518.6186,109.1185 C518.8816,109.3345 519.1856,109.5025 519.5306,109.6225 C519.8736,109.7425 520.2386,109.8025 520.6216,109.8025 C521.3736,109.8025 521.9496,109.6705 522.3496,109.4065 C522.7496,109.1425 523.0366,108.8265 523.2136,108.4585 L525.8066,109.8985 C525.6616,110.2025 525.4616,110.5185 525.2056,110.8465 C524.9496,111.1745 524.6186,111.4745 524.2096,111.7465 C523.8026,112.0185 523.3066,112.2425 522.7226,112.4185 C522.1376,112.5945 521.4526,112.6825 520.6696,112.6825 C519.7736,112.6825 518.9576,112.5385 518.2226,112.2505 C517.4866,111.9625 516.8496,111.5465 516.3146,111.0025 C515.7776,110.4585 515.3616,109.7945 515.0666,109.0105 C514.7696,108.2265 514.6216,107.3385 514.6216,106.3465 L514.6216,106.2025 C514.6216,105.2905 514.7776,104.4585 515.0896,103.7065 C515.4026,102.9545 515.8296,102.3145 516.3736,101.7865 C516.9176,101.2585 517.5536,100.8465 518.2826,100.5505 C519.0096,100.2545 519.7896,100.1065 520.6216,100.1065 C521.6466,100.1065 522.5256,100.2865 523.2616,100.6465 C523.9976,101.0065 524.6056,101.4625 525.0856,102.0145 C525.5666,102.5665 525.9176,103.1745 526.1426,103.8385 C526.3656,104.5025 526.4786,105.1465 526.4786,105.7705 L526.4786,107.3785 L517.7426,107.3785 Z" id="Fill-62" fill="#7B74FF"></path>
                    <path d="M131.6211,147.3225 C132.7251,147.3225 133.4961,147.0625 133.9371,146.5425 C134.3771,146.0225 134.5971,145.2105 134.5971,144.1065 L134.5971,139.4985 C134.5971,138.5385 134.3771,137.8105 133.9371,137.3145 C133.4961,136.8185 132.7251,136.5705 131.6211,136.5705 L130.2771,136.5705 L130.2771,147.3225 L131.6211,147.3225 Z M125.5251,133.5465 L131.6211,133.5465 C133.7011,133.5465 135.2451,134.0305 136.2531,134.9985 C137.2611,135.9665 137.7661,137.4665 137.7661,139.4985 L137.7661,144.3945 C137.7661,146.4265 137.2611,147.9265 136.2531,148.8945 C135.2451,149.8625 133.7011,150.3465 131.6211,150.3465 L125.5251,150.3465 L125.5251,147.2985 L127.1091,147.2985 L127.1091,136.5705 L125.5251,136.5705 L125.5251,133.5465 Z" id="Fill-64" fill="#7B74FF"></path>
                    <path d="M146.5009,140.8425 C145.7319,140.8425 145.1089,141.0385 144.6289,141.4305 C144.1479,141.8225 143.8369,142.2745 143.6929,142.7865 L149.3089,142.7865 C149.2129,142.2265 148.9129,141.7625 148.4079,141.3945 C147.9039,141.0265 147.2699,140.8425 146.5009,140.8425 L146.5009,140.8425 Z M143.6449,145.3785 C143.6599,145.7305 143.7439,146.0545 143.8969,146.3505 C144.0489,146.6465 144.2569,146.9025 144.5219,147.1185 C144.7849,147.3345 145.0889,147.5025 145.4339,147.6225 C145.7769,147.7425 146.1409,147.8025 146.5249,147.8025 C147.2769,147.8025 147.8529,147.6705 148.2529,147.4065 C148.6519,147.1425 148.9399,146.8265 149.1169,146.4585 L151.7089,147.8985 C151.5639,148.2025 151.3649,148.5185 151.1089,148.8465 C150.8529,149.1745 150.5219,149.4745 150.1129,149.7465 C149.7049,150.0185 149.2089,150.2425 148.6249,150.4185 C148.0409,150.5945 147.3559,150.6825 146.5719,150.6825 C145.6769,150.6825 144.8609,150.5385 144.1249,150.2505 C143.3889,149.9625 142.7529,149.5465 142.2169,149.0025 C141.6809,148.4585 141.2649,147.7945 140.9689,147.0105 C140.6729,146.2265 140.5249,145.3385 140.5249,144.3465 L140.5249,144.2025 C140.5249,143.2905 140.6809,142.4585 140.9919,141.7065 C141.3049,140.9545 141.7319,140.3145 142.2769,139.7865 C142.8199,139.2585 143.4569,138.8465 144.1859,138.5505 C144.9119,138.2545 145.6929,138.1065 146.5249,138.1065 C147.5489,138.1065 148.4289,138.2865 149.1649,138.6465 C149.8999,139.0065 150.5089,139.4625 150.9879,140.0145 C151.4689,140.5665 151.8199,141.1745 152.0449,141.8385 C152.2689,142.5025 152.3809,143.1465 152.3809,143.7705 L152.3809,145.3785 L143.6449,145.3785 Z" id="Fill-66" fill="#7B74FF"></path>
                    <polygon id="Fill-68" fill="#7B74FF" points="155.5966 147.4666 159.7736 147.4666 159.7736 136.4266 155.7406 136.4266 155.7406 133.5466 162.7966 133.5466 162.7966 147.4666 166.6856 147.4666 166.6856 150.3466 155.5966 150.3466"></polygon>
                    <path d="M175.8769,140.8425 C175.1089,140.8425 174.4839,141.0385 174.0049,141.4305 C173.5249,141.8225 173.2129,142.2745 173.0679,142.7865 L178.6859,142.7865 C178.5889,142.2265 178.2889,141.7625 177.7849,141.3945 C177.2809,141.0265 176.6449,140.8425 175.8769,140.8425 L175.8769,140.8425 Z M173.0219,145.3785 C173.0369,145.7305 173.1209,146.0545 173.2729,146.3505 C173.4249,146.6465 173.6329,146.9025 173.8969,147.1185 C174.1599,147.3345 174.4649,147.5025 174.8089,147.6225 C175.1519,147.7425 175.5179,147.8025 175.8999,147.8025 C176.6519,147.8025 177.2289,147.6705 177.6289,147.4065 C178.0289,147.1425 178.3159,146.8265 178.4919,146.4585 L181.0849,147.8985 C180.9409,148.2025 180.7399,148.5185 180.4839,148.8465 C180.2289,149.1745 179.8969,149.4745 179.4879,149.7465 C179.0809,150.0185 178.5849,150.2425 178.0009,150.4185 C177.4159,150.5945 176.7319,150.6825 175.9489,150.6825 C175.0529,150.6825 174.2359,150.5385 173.5009,150.2505 C172.7649,149.9625 172.1289,149.5465 171.5929,149.0025 C171.0569,148.4585 170.6409,147.7945 170.3449,147.0105 C170.0489,146.2265 169.8999,145.3385 169.8999,144.3465 L169.8999,144.2025 C169.8999,143.2905 170.0569,142.4585 170.3689,141.7065 C170.6809,140.9545 171.1089,140.3145 171.6519,139.7865 C172.1969,139.2585 172.8319,138.8465 173.5609,138.5505 C174.2889,138.2545 175.0679,138.1065 175.8999,138.1065 C176.9249,138.1065 177.8049,138.2865 178.5409,138.6465 C179.2769,139.0065 179.8849,139.4625 180.3649,140.0145 C180.8449,140.5665 181.1969,141.1745 181.4209,141.8385 C181.6449,142.5025 181.7569,143.1465 181.7569,143.7705 L181.7569,145.3785 L173.0219,145.3785 Z" id="Fill-70" fill="#7B74FF"></path>
                    <path d="M184.709,138.4424 L188.236,138.4424 L188.236,133.5464 L191.261,133.5464 L191.261,138.4424 L195.557,138.4424 L195.557,141.3224 L191.261,141.3224 L191.261,146.7464 C191.261,147.2264 191.477,147.4664 191.908,147.4664 L195.125,147.4664 L195.125,150.3464 L190.085,150.3464 C189.541,150.3464 189.097,150.1704 188.753,149.8184 C188.408,149.4664 188.236,149.0184 188.236,148.4744 L188.236,141.3224 L184.709,141.3224 L184.709,138.4424 Z" id="Fill-72" fill="#7B74FF"></path>
                    <path d="M205.2529,140.8425 C204.4839,140.8425 203.8609,141.0385 203.3809,141.4305 C202.8999,141.8225 202.5889,142.2745 202.4449,142.7865 L208.0609,142.7865 C207.9649,142.2265 207.6649,141.7625 207.1599,141.3945 C206.6559,141.0265 206.0219,140.8425 205.2529,140.8425 L205.2529,140.8425 Z M202.3969,145.3785 C202.4119,145.7305 202.4959,146.0545 202.6489,146.3505 C202.8009,146.6465 203.0089,146.9025 203.2739,147.1185 C203.5369,147.3345 203.8409,147.5025 204.1859,147.6225 C204.5289,147.7425 204.8929,147.8025 205.2769,147.8025 C206.0289,147.8025 206.6049,147.6705 207.0049,147.4065 C207.4039,147.1425 207.6919,146.8265 207.8689,146.4585 L210.4609,147.8985 C210.3159,148.2025 210.1169,148.5185 209.8609,148.8465 C209.6049,149.1745 209.2739,149.4745 208.8649,149.7465 C208.4569,150.0185 207.9609,150.2425 207.3769,150.4185 C206.7929,150.5945 206.1079,150.6825 205.3239,150.6825 C204.4289,150.6825 203.6129,150.5385 202.8769,150.2505 C202.1409,149.9625 201.5049,149.5465 200.9689,149.0025 C200.4329,148.4585 200.0169,147.7945 199.7209,147.0105 C199.4249,146.2265 199.2769,145.3385 199.2769,144.3465 L199.2769,144.2025 C199.2769,143.2905 199.4329,142.4585 199.7439,141.7065 C200.0569,140.9545 200.4839,140.3145 201.0289,139.7865 C201.5719,139.2585 202.2089,138.8465 202.9379,138.5505 C203.6639,138.2545 204.4449,138.1065 205.2769,138.1065 C206.3009,138.1065 207.1809,138.2865 207.9169,138.6465 C208.6519,139.0065 209.2609,139.4625 209.7399,140.0145 C210.2209,140.5665 210.5719,141.1745 210.7969,141.8385 C211.0209,142.5025 211.1329,143.1465 211.1329,143.7705 L211.1329,145.3785 L202.3969,145.3785 Z" id="Fill-74" fill="#7B74FF"></path>
                    <path d="M234.6289,140.8425 C233.8609,140.8425 233.2359,141.0385 232.7569,141.4305 C232.2769,141.8225 231.9649,142.2745 231.8199,142.7865 L237.4379,142.7865 C237.3409,142.2265 237.0409,141.7625 236.5369,141.3945 C236.0329,141.0265 235.3969,140.8425 234.6289,140.8425 L234.6289,140.8425 Z M231.7739,145.3785 C231.7889,145.7305 231.8729,146.0545 232.0249,146.3505 C232.1769,146.6465 232.3849,146.9025 232.6489,147.1185 C232.9119,147.3345 233.2169,147.5025 233.5609,147.6225 C233.9039,147.7425 234.2699,147.8025 234.6519,147.8025 C235.4039,147.8025 235.9809,147.6705 236.3809,147.4065 C236.7809,147.1425 237.0679,146.8265 237.2439,146.4585 L239.8369,147.8985 C239.6929,148.2025 239.4919,148.5185 239.2359,148.8465 C238.9809,149.1745 238.6489,149.4745 238.2399,149.7465 C237.8329,150.0185 237.3369,150.2425 236.7529,150.4185 C236.1679,150.5945 235.4839,150.6825 234.7009,150.6825 C233.8049,150.6825 232.9879,150.5385 232.2529,150.2505 C231.5169,149.9625 230.8809,149.5465 230.3449,149.0025 C229.8089,148.4585 229.3929,147.7945 229.0969,147.0105 C228.8009,146.2265 228.6519,145.3385 228.6519,144.3465 L228.6519,144.2025 C228.6519,143.2905 228.8089,142.4585 229.1209,141.7065 C229.4329,140.9545 229.8609,140.3145 230.4039,139.7865 C230.9489,139.2585 231.5839,138.8465 232.3129,138.5505 C233.0409,138.2545 233.8199,138.1065 234.6519,138.1065 C235.6769,138.1065 236.5569,138.2865 237.2929,138.6465 C238.0289,139.0065 238.6369,139.4625 239.1169,140.0145 C239.5969,140.5665 239.9489,141.1745 240.1729,141.8385 C240.3969,142.5025 240.5089,143.1465 240.5089,143.7705 L240.5089,145.3785 L231.7739,145.3785 Z" id="Fill-76" fill="#7B74FF"></path>
                    <polygon id="Fill-78" fill="#7B74FF" points="242.957 138.4424 246.221 138.4424 249.029 148.9064 249.461 148.9064 252.27 138.4424 255.533 138.4424 252.125 150.3464 246.365 150.3464"></polygon>
                    <path d="M264.0049,140.8425 C263.2359,140.8425 262.6129,141.0385 262.1329,141.4305 C261.6519,141.8225 261.3409,142.2745 261.1969,142.7865 L266.8129,142.7865 C266.7169,142.2265 266.4169,141.7625 265.9119,141.3945 C265.4079,141.0265 264.7739,140.8425 264.0049,140.8425 L264.0049,140.8425 Z M261.1489,145.3785 C261.1639,145.7305 261.2479,146.0545 261.4009,146.3505 C261.5529,146.6465 261.7609,146.9025 262.0259,147.1185 C262.2889,147.3345 262.5929,147.5025 262.9379,147.6225 C263.2809,147.7425 263.6449,147.8025 264.0289,147.8025 C264.7809,147.8025 265.3569,147.6705 265.7569,147.4065 C266.1559,147.1425 266.4439,146.8265 266.6209,146.4585 L269.2129,147.8985 C269.0679,148.2025 268.8689,148.5185 268.6129,148.8465 C268.3569,149.1745 268.0259,149.4745 267.6169,149.7465 C267.2089,150.0185 266.7129,150.2425 266.1289,150.4185 C265.5449,150.5945 264.8599,150.6825 264.0759,150.6825 C263.1809,150.6825 262.3649,150.5385 261.6289,150.2505 C260.8929,149.9625 260.2569,149.5465 259.7209,149.0025 C259.1849,148.4585 258.7689,147.7945 258.4729,147.0105 C258.1769,146.2265 258.0289,145.3385 258.0289,144.3465 L258.0289,144.2025 C258.0289,143.2905 258.1849,142.4585 258.4959,141.7065 C258.8089,140.9545 259.2359,140.3145 259.7809,139.7865 C260.3239,139.2585 260.9609,138.8465 261.6899,138.5505 C262.4159,138.2545 263.1969,138.1065 264.0289,138.1065 C265.0529,138.1065 265.9329,138.2865 266.6689,138.6465 C267.4039,139.0065 268.0129,139.4625 268.4919,140.0145 C268.9729,140.5665 269.3239,141.1745 269.5489,141.8385 C269.7729,142.5025 269.8849,143.1465 269.8849,143.7705 L269.8849,145.3785 L261.1489,145.3785 Z" id="Fill-80" fill="#7B74FF"></path>
                    <path d="M272.5966,138.4424 L277.6366,138.4424 L277.6366,140.1704 L278.0686,140.1704 C278.2926,139.5144 278.6716,139.0064 279.2086,138.6464 C279.7436,138.2864 280.3886,138.1064 281.1406,138.1064 C282.3246,138.1064 283.2776,138.4784 283.9956,139.2224 C284.7166,139.9664 285.0756,141.0984 285.0756,142.6184 L285.0756,143.1464 L281.9566,143.4344 L281.9566,143.0984 C281.9566,142.4424 281.7886,141.9184 281.4526,141.5264 C281.1176,141.1344 280.6136,140.9384 279.9416,140.9384 C279.2686,140.9384 278.7406,141.1704 278.3576,141.6344 C277.9726,142.0984 277.7816,142.7624 277.7816,143.6264 L277.7816,147.4664 L280.5166,147.4664 L280.5166,150.3464 L272.3086,150.3464 L272.3086,147.4664 L274.7566,147.4664 L274.7566,141.3224 L272.5966,141.3224 L272.5966,138.4424 Z" id="Fill-82" fill="#7B74FF"></path>
                    <path d="M295.9248,138.4424 L298.9488,138.4424 L298.9488,153.2744 C298.9488,153.8184 298.7778,154.2664 298.4328,154.6184 C298.0878,154.9704 297.6448,155.1464 297.1008,155.1464 L290.0218,155.1464 L290.0218,152.2664 L295.2778,152.2664 C295.7088,152.2664 295.9248,152.0264 295.9248,151.5464 L295.9248,148.6184 L295.4918,148.6184 C294.9648,149.9944 293.8278,150.6824 292.0848,150.6824 C291.4918,150.6824 290.9408,150.5864 290.4288,150.3944 C289.9158,150.2024 289.4688,149.9064 289.0848,149.5064 C288.7008,149.1064 288.4008,148.6064 288.1848,148.0064 C287.9688,147.4064 287.8618,146.6984 287.8618,145.8824 L287.8618,138.4424 L290.8848,138.4424 L290.8848,145.2584 C290.8848,146.1064 291.0838,146.7664 291.4848,147.2384 C291.8848,147.7104 292.4848,147.9464 293.2848,147.9464 C294.1968,147.9464 294.8648,147.6544 295.2888,147.0704 C295.7128,146.4864 295.9248,145.6904 295.9248,144.6824 L295.9248,138.4424 Z" id="Fill-84" fill="#7B74FF"></path>
                    <path d="M302.2129,138.4424 L305.7399,138.4424 L305.7399,133.5464 L308.7649,133.5464 L308.7649,138.4424 L313.0609,138.4424 L313.0609,141.3224 L308.7649,141.3224 L308.7649,146.7464 C308.7649,147.2264 308.9809,147.4664 309.4119,147.4664 L312.6289,147.4664 L312.6289,150.3464 L307.5889,150.3464 C307.0449,150.3464 306.6009,150.1704 306.2569,149.8184 C305.9119,149.4664 305.7399,149.0184 305.7399,148.4744 L305.7399,141.3224 L302.2129,141.3224 L302.2129,138.4424 Z" id="Fill-86" fill="#7B74FF"></path>
                    <path d="M320.3086,150.3464 L317.2856,150.3464 L317.2856,133.5464 L320.3086,133.5464 L320.3086,140.3624 L320.7406,140.3624 C321.0446,139.6424 321.4926,139.0864 322.0846,138.6944 C322.6756,138.3024 323.4046,138.1064 324.2686,138.1064 C324.8606,138.1064 325.4046,138.2024 325.9006,138.3944 C326.3966,138.5864 326.8286,138.8744 327.1976,139.2584 C327.5646,139.6424 327.8526,140.1344 328.0606,140.7344 C328.2686,141.3344 328.3726,142.0424 328.3726,142.8584 L328.3726,150.3464 L325.3486,150.3464 L325.3486,143.5784 C325.3486,142.7304 325.1446,142.0624 324.7366,141.5744 C324.3286,141.0864 323.7406,140.8424 322.9726,140.8424 C322.0766,140.8424 321.4086,141.1424 320.9686,141.7424 C320.5286,142.3424 320.3086,143.1464 320.3086,144.1544 L320.3086,150.3464 Z" id="Fill-88" fill="#7B74FF"></path>
                    <path d="M339.9414,134.9146 C339.9414,135.2346 339.8804,135.5346 339.7604,135.8146 C339.6404,136.0946 339.4764,136.3346 339.2684,136.5346 C339.0604,136.7346 338.8164,136.8946 338.5374,137.0146 C338.2564,137.1346 337.9644,137.1946 337.6604,137.1946 C337.3394,137.1946 337.0454,137.1346 336.7734,137.0146 C336.5004,136.8946 336.2594,136.7346 336.0524,136.5346 C335.8444,136.3346 335.6804,136.0946 335.5604,135.8146 C335.4414,135.5346 335.3804,135.2346 335.3804,134.9146 C335.3804,134.5946 335.4414,134.2946 335.5604,134.0146 C335.6804,133.7346 335.8444,133.4946 336.0524,133.2946 C336.2594,133.0946 336.5004,132.9346 336.7734,132.8146 C337.0454,132.6946 337.3394,132.6346 337.6604,132.6346 C337.9644,132.6346 338.2564,132.6946 338.5374,132.8146 C338.8164,132.9346 339.0604,133.0946 339.2684,133.2946 C339.4764,133.4946 339.6404,133.7346 339.7604,134.0146 C339.8804,134.2946 339.9414,134.5946 339.9414,134.9146 L339.9414,134.9146 Z M332.1404,147.4666 L336.1724,147.4666 L336.1724,141.3226 L332.4284,141.3226 L332.4284,138.4426 L339.1974,138.4426 L339.1974,147.4666 L342.6524,147.4666 L342.6524,150.3466 L332.1404,150.3466 L332.1404,147.4666 Z" id="Fill-90" fill="#7B74FF"></path>
                    <path d="M349.6367,150.3464 L346.6137,150.3464 L346.6137,138.4424 L349.6367,138.4424 L349.6367,140.2184 L350.0687,140.2184 C350.3407,139.5464 350.7807,139.0264 351.3887,138.6584 C351.9957,138.2904 352.7087,138.1064 353.5257,138.1064 C354.1007,138.1064 354.6407,138.1984 355.1447,138.3824 C355.6487,138.5664 356.0927,138.8504 356.4767,139.2344 C356.8617,139.6184 357.1597,140.1064 357.3767,140.6984 C357.5927,141.2904 357.7007,141.9944 357.7007,142.8104 L357.7007,150.3464 L354.6767,150.3464 L354.6767,143.5784 C354.6767,142.7304 354.4727,142.0624 354.0647,141.5744 C353.6567,141.0864 353.0687,140.8424 352.3007,140.8424 C351.4047,140.8424 350.7367,141.1424 350.2967,141.7424 C349.8567,142.3424 349.6367,143.1464 349.6367,144.1544 L349.6367,150.3464 Z" id="Fill-92" fill="#7B74FF"></path>
                    <path d="M366.6289,147.8025 C367.5719,147.8025 368.3359,147.5025 368.9209,146.9025 C369.5039,146.3025 369.7969,145.5145 369.7969,144.5385 L369.7969,144.2505 C369.7969,143.2745 369.5039,142.4865 368.9209,141.8865 C368.3359,141.2865 367.5719,140.9865 366.6289,140.9865 C365.6849,140.9865 364.9199,141.2785 364.3369,141.8625 C363.7519,142.4465 363.4609,143.2425 363.4609,144.2505 L363.4609,144.5385 C363.4609,145.5465 363.7519,146.3425 364.3369,146.9265 C364.9199,147.5105 365.6849,147.8025 366.6289,147.8025 L366.6289,147.8025 Z M369.7969,148.6185 L369.3649,148.6185 C369.2359,148.8905 369.0799,149.1505 368.8969,149.3985 C368.7129,149.6465 368.4729,149.8665 368.1769,150.0585 C367.8809,150.2505 367.5289,150.4025 367.1209,150.5145 C366.7129,150.6265 366.2209,150.6825 365.6449,150.6825 C364.9079,150.6825 364.2249,150.5505 363.5929,150.2865 C362.9609,150.0225 362.4079,149.6305 361.9369,149.1105 C361.4649,148.5905 361.0969,147.9545 360.8319,147.2025 C360.5679,146.4505 360.4369,145.5865 360.4369,144.6105 L360.4369,144.1785 C360.4369,143.2185 360.5759,142.3625 360.8579,141.6105 C361.1369,140.8585 361.5209,140.2225 362.0089,139.7025 C362.4959,139.1825 363.0649,138.7865 363.7129,138.5145 C364.3609,138.2425 365.0449,138.1065 365.7649,138.1065 C366.7249,138.1065 367.4839,138.2865 368.0449,138.6465 C368.6049,139.0065 369.0449,139.5145 369.3649,140.1705 L369.7969,140.1705 L369.7969,138.4425 L372.8199,138.4425 L372.8199,153.2745 C372.8199,153.8185 372.6489,154.2665 372.3049,154.6185 C371.9609,154.9705 371.5169,155.1465 370.9729,155.1465 L362.9569,155.1465 L362.9569,152.2665 L369.1489,152.2665 C369.5799,152.2665 369.7969,152.0265 369.7969,151.5465 L369.7969,148.6185 Z" id="Fill-94" fill="#7B74FF"></path>
                    <path d="M383.1406,148.4023 C383.1406,148.7223 383.0796,149.0223 382.9606,149.3023 C382.8406,149.5823 382.6756,149.8223 382.4686,150.0223 C382.2606,150.2223 382.0166,150.3823 381.7366,150.5023 C381.4566,150.6223 381.1636,150.6823 380.8616,150.6823 C380.5406,150.6823 380.2446,150.6223 379.9726,150.5023 C379.7016,150.3823 379.4606,150.2223 379.2526,150.0223 C379.0446,149.8223 378.8806,149.5823 378.7606,149.3023 C378.6406,149.0223 378.5796,148.7223 378.5796,148.4023 C378.5796,148.0823 378.6406,147.7823 378.7606,147.5023 C378.8806,147.2223 379.0446,146.9823 379.2526,146.7823 C379.4606,146.5823 379.7016,146.4223 379.9726,146.3023 C380.2446,146.1823 380.5406,146.1223 380.8616,146.1223 C381.1636,146.1223 381.4566,146.1823 381.7366,146.3023 C382.0166,146.4223 382.2606,146.5823 382.4686,146.7823 C382.6756,146.9823 382.8406,147.2223 382.9606,147.5023 C383.0796,147.7823 383.1406,148.0823 383.1406,148.4023 L383.1406,148.4023 Z M381.9886,140.9863 C382.6756,140.9863 383.2166,140.7703 383.6096,140.3383 C383.9996,139.9063 384.1976,139.3383 384.1976,138.6343 C384.1976,137.9623 383.9646,137.3943 383.4996,136.9303 C383.0366,136.4663 382.4046,136.2343 381.6046,136.2343 C381.1726,136.2343 380.7886,136.3103 380.4526,136.4623 C380.1176,136.6143 379.8276,136.8223 379.5886,137.0863 C379.3486,137.3503 379.1676,137.6543 379.0486,137.9983 C378.9286,138.3423 378.8696,138.6983 378.8696,139.0663 L378.8696,140.0743 L375.7016,140.0743 L375.7016,138.7783 C375.7016,138.0583 375.8316,137.3623 376.0966,136.6903 C376.3616,136.0183 376.7446,135.4263 377.2476,134.9143 C377.7526,134.4023 378.3766,133.9903 379.1206,133.6783 C379.8656,133.3663 380.7086,133.2103 381.6526,133.2103 C382.4996,133.2103 383.2766,133.3503 383.9806,133.6303 C384.6846,133.9103 385.2886,134.2983 385.7926,134.7943 C386.2966,135.2903 386.6846,135.8703 386.9566,136.5343 C387.2286,137.1983 387.3656,137.9143 387.3656,138.6823 L387.3656,138.8263 C387.3656,139.4823 387.2646,140.1063 387.0646,140.6983 C386.8646,141.2903 386.5796,141.8103 386.2126,142.2583 C385.8436,142.7063 385.3886,143.0663 384.8446,143.3383 C384.3006,143.6103 383.6936,143.7463 383.0206,143.7463 C382.7966,143.7463 382.6286,143.8103 382.5166,143.9383 C382.4046,144.0663 382.3486,144.2423 382.3486,144.4663 L382.3486,145.2583 L379.3246,145.2583 L379.3246,143.1943 C379.3246,142.5703 379.5366,142.0463 379.9606,141.6223 C380.3846,141.1983 380.9086,140.9863 381.5336,140.9863 L381.9886,140.9863 Z" id="Fill-96" fill="#7B74FF"></path>
                    <polygon id="Fill-98" fill="#141228" points="27.444 233.501 159.259 233.501 159.259 191.5 27.444 191.5"></polygon>
                    <path d="M26.945,234 L159.76,234 L159.76,191 L26.945,191 L26.945,234 Z M27.944,233 L158.76,233 L158.76,191.999 L27.944,191.999 L27.944,233 Z" id="Fill-100" fill="#7B74FF"></path>
                    <polygon id="Fill-101" fill="#7B74FF" points="79.6982 213.7 79.0982 213.7 75.0782 204.62 77.9592 204.62 80.8382 211.3 81.1982 211.3 84.0782 204.62 86.9592 204.62 82.9382 213.7 82.3382 213.7 82.3382 218.62 79.6982 218.62"></polygon>
                    <path d="M93.2988,210.7 C92.6578,210.7 92.1388,210.863 91.7378,211.19 C91.3388,211.517 91.0778,211.893 90.9588,212.32 L95.6388,212.32 C95.5588,211.853 95.3088,211.467 94.8888,211.16 C94.4688,210.853 93.9388,210.7 93.2988,210.7 L93.2988,210.7 Z M90.9178,214.48 C90.9318,214.773 91.0018,215.043 91.1288,215.29 C91.2558,215.537 91.4288,215.75 91.6488,215.93 C91.8688,216.11 92.1208,216.25 92.4078,216.35 C92.6948,216.45 92.9978,216.5 93.3188,216.5 C93.9448,216.5 94.4258,216.39 94.7588,216.17 C95.0918,215.95 95.3318,215.687 95.4788,215.38 L97.6388,216.58 C97.5188,216.833 97.3518,217.097 97.1388,217.37 C96.9258,217.643 96.6488,217.893 96.3088,218.12 C95.9688,218.347 95.5548,218.533 95.0688,218.68 C94.5818,218.826 94.0118,218.9 93.3598,218.9 C92.6118,218.9 91.9318,218.78 91.3188,218.54 C90.7048,218.3 90.1758,217.953 89.7288,217.5 C89.2808,217.047 88.9358,216.493 88.6888,215.84 C88.4418,215.187 88.3188,214.447 88.3188,213.62 L88.3188,213.5 C88.3188,212.74 88.4488,212.047 88.7088,211.42 C88.9688,210.793 89.3248,210.26 89.7788,209.82 C90.2328,209.38 90.7618,209.037 91.3688,208.79 C91.9748,208.543 92.6248,208.42 93.3188,208.42 C94.1718,208.42 94.9048,208.57 95.5188,208.87 C96.1318,209.17 96.6388,209.55 97.0388,210.01 C97.4388,210.47 97.7328,210.977 97.9178,211.53 C98.1058,212.083 98.1988,212.62 98.1988,213.14 L98.1988,214.48 L90.9178,214.48 Z" id="Fill-102" fill="#7B74FF"></path>
                    <path d="M104.0996,211.4998 C104.0996,211.8198 104.2656,212.0498 104.5996,212.1898 C104.9316,212.3298 105.5386,212.4468 106.4186,212.5398 C107.4316,212.6468 108.2586,212.9498 108.8986,213.4498 C109.5386,213.9498 109.8596,214.6468 109.8596,215.5398 L109.8596,215.6598 C109.8596,216.6468 109.4986,217.4338 108.7796,218.0198 C108.0586,218.6068 107.0446,218.8998 105.7386,218.8998 C104.9646,218.8998 104.3056,218.7998 103.7586,218.5998 C103.2116,218.3998 102.7586,218.1498 102.3986,217.8498 C102.0386,217.5498 101.7616,217.2168 101.5686,216.8498 C101.3746,216.4838 101.2456,216.1268 101.1786,215.7798 L103.4986,215.0198 C103.6056,215.4468 103.8286,215.8198 104.1686,216.1398 C104.5086,216.4598 105.0326,216.6198 105.7386,216.6198 C106.3656,216.6198 106.7946,216.5228 107.0296,216.3298 C107.2616,216.1368 107.3786,215.9268 107.3786,215.6998 C107.3786,215.5668 107.3496,215.4438 107.2886,215.3298 C107.2286,215.2168 107.1196,215.1098 106.9586,215.0098 C106.7986,214.9098 106.5816,214.8268 106.3086,214.7598 C106.0356,214.6938 105.6916,214.6398 105.2796,214.5998 C104.1586,214.5068 103.2696,214.2168 102.6096,213.7298 C101.9496,213.2438 101.6196,212.5268 101.6196,211.5798 L101.6196,211.4598 C101.6196,210.9668 101.7256,210.5328 101.9396,210.1598 C102.1526,209.7868 102.4316,209.4698 102.7796,209.2098 C103.1246,208.9498 103.5256,208.7538 103.9786,208.6198 C104.4316,208.4868 104.8986,208.4198 105.3786,208.4198 C106.0056,208.4198 106.5486,208.4968 107.0086,208.6498 C107.4686,208.8028 107.8596,209.0038 108.1786,209.2498 C108.4986,209.4968 108.7586,209.7698 108.9586,210.0698 C109.1586,210.3698 109.3126,210.6598 109.4186,210.9398 L107.1386,211.8598 C107.0196,211.4998 106.8126,211.2168 106.5196,211.0098 C106.2256,210.8028 105.8456,210.6998 105.3786,210.6998 C104.9526,210.6998 104.6316,210.7768 104.4186,210.9298 C104.2046,211.0828 104.0996,211.2728 104.0996,211.4998" id="Fill-103" fill="#7B74FF"></path>
                    <polygon id="Fill-104" fill="#141228" points="28.804 232.14 158.085 232.14 158.085 230.859 28.804 230.859"></polygon>
                    <polygon id="Fill-105" fill="#7B74FF" points="27.944 233 158.944 233 158.944 230 27.944 230"></polygon>
                    <polygon id="Fill-106" fill="#7B74FF" points="155.944 232.5 158.944 232.5 158.944 192 155.944 192"></polygon>
                    <polygon id="Fill-107" fill="#141228" points="190.26 233.501 322.075 233.501 322.075 191.5 190.26 191.5"></polygon>
                    <path d="M189.76,234 L322.574,234 L322.574,191 L189.76,191 L189.76,234 Z M190.759,233 L321.575,233 L321.575,191.999 L190.759,191.999 L190.759,233 Z" id="Fill-108" fill="#7B74FF"></path>
                    <polygon id="Fill-109" fill="#7B74FF" points="251.9463 217.2998 252.3063 217.2998 252.3063 204.6198 254.9463 204.6198 254.9463 218.6198 249.7863 218.6198 248.1463 205.9398 247.7863 205.9398 247.7863 218.6198 245.1463 218.6198 245.1463 204.6198 250.3063 204.6198"></polygon>
                    <path d="M262.2861,216.4998 C262.6461,216.4998 262.9861,216.4398 263.3071,216.3198 C263.6261,216.1998 263.9061,216.0268 264.1461,215.7998 C264.3871,215.5728 264.5761,215.2968 264.7161,214.9698 C264.8551,214.6438 264.9261,214.2728 264.9261,213.8598 L264.9261,213.4598 C264.9261,213.0468 264.8551,212.6768 264.7161,212.3498 C264.5761,212.0228 264.3871,211.7468 264.1461,211.5198 C263.9061,211.2928 263.6261,211.1198 263.3071,210.9998 C262.9861,210.8798 262.6461,210.8198 262.2861,210.8198 C261.9261,210.8198 261.5861,210.8798 261.2651,210.9998 C260.9451,211.1198 260.6661,211.2928 260.4261,211.5198 C260.1851,211.7468 259.9961,212.0228 259.8551,212.3498 C259.7161,212.6768 259.6461,213.0468 259.6461,213.4598 L259.6461,213.8598 C259.6461,214.2728 259.7161,214.6438 259.8551,214.9698 C259.9961,215.2968 260.1851,215.5728 260.4261,215.7998 C260.6661,216.0268 260.9451,216.1998 261.2651,216.3198 C261.5861,216.4398 261.9261,216.4998 262.2861,216.4998 L262.2861,216.4998 Z M267.4451,213.7798 C267.4451,214.6068 267.3071,215.3368 267.0251,215.9698 C266.7461,216.6038 266.3661,217.1368 265.8871,217.5698 C265.4061,218.0038 264.8551,218.3328 264.2361,218.5598 C263.6161,218.7868 262.9661,218.8998 262.2861,218.8998 C261.6051,218.8998 260.9561,218.7868 260.3361,218.5598 C259.7161,218.3328 259.1661,218.0038 258.6851,217.5698 C258.2061,217.1368 257.8261,216.6038 257.5461,215.9698 C257.2651,215.3368 257.1261,214.6068 257.1261,213.7798 L257.1261,213.5398 C257.1261,212.7268 257.2651,212.0038 257.5461,211.3698 C257.8261,210.7368 258.2061,210.1998 258.6851,209.7598 C259.1661,209.3198 259.7161,208.9868 260.3361,208.7598 C260.9561,208.5328 261.6051,208.4198 262.2861,208.4198 C262.9661,208.4198 263.6161,208.5328 264.2361,208.7598 C264.8551,208.9868 265.4061,209.3198 265.8871,209.7598 C266.3661,210.1998 266.7461,210.7368 267.0251,211.3698 C267.3071,212.0038 267.4451,212.7268 267.4451,213.5398 L267.4451,213.7798 Z" id="Fill-110" fill="#7B74FF"></path>
                    <polygon id="Fill-111" fill="#141228" points="191.619 232.14 320.9 232.14 320.9 230.859 191.619 230.859"></polygon>
                    <polygon id="Fill-112" fill="#7B74FF" points="190.76 233 321.76 233 321.76 230 190.76 230"></polygon>
                    <polygon id="Fill-113" fill="#7B74FF" points="318.76 232.5 321.76 232.5 321.76 192 318.76 192"></polygon>
                    <polygon id="Fill-114" fill="#141228" points="353.075 233.501 484.889 233.501 484.889 191.5 353.075 191.5"></polygon>
                    <path d="M352.575,234 L485.39,234 L485.39,191 L352.575,191 L352.575,234 Z M353.575,233 L484.39,233 L484.39,191.999 L353.575,191.999 L353.575,233 Z" id="Fill-115" fill="#7B74FF"></path>
                    <polygon id="Fill-116" fill="#7B74FF" points="388.8212 204.6199 393.4612 204.6199 394.2612 215.1399 394.2612 217.1799 394.7412 217.1799 394.7412 215.1399 395.5412 204.6199 400.1812 204.6199 400.1812 218.6199 397.7812 218.6199 397.7812 209.2599 398.0212 206.0599 397.5412 206.0599 396.5022 218.6199 392.5412 218.6199 391.4612 206.0599 390.9812 206.0599 391.2202 209.2599 391.2202 218.6199 388.8212 218.6199"></polygon>
                    <path d="M406.3613,216.4998 C407.0943,216.4998 407.6813,216.2568 408.1213,215.7698 C408.5613,215.2828 408.7813,214.6198 408.7813,213.7798 L408.7813,213.5398 C408.7813,212.6998 408.5613,212.0368 408.1213,211.5498 C407.6813,211.0628 407.0943,210.8198 406.3613,210.8198 C405.6283,210.8198 405.0413,211.0628 404.6013,211.5498 C404.1623,212.0368 403.9413,212.6998 403.9413,213.5398 L403.9413,213.7798 C403.9413,214.6198 404.1623,215.2828 404.6013,215.7698 C405.0413,216.2568 405.6283,216.4998 406.3613,216.4998 L406.3613,216.4998 Z M408.6013,217.1798 C408.3343,217.8068 407.9613,218.2498 407.4813,218.5098 C407.0023,218.7698 406.4413,218.8998 405.8013,218.8998 C405.2013,218.8998 404.6383,218.7868 404.1113,218.5598 C403.5843,218.3328 403.1213,217.9998 402.7213,217.5598 C402.3223,217.1198 402.0053,216.5868 401.7713,215.9598 C401.5383,215.3328 401.4223,214.6198 401.4223,213.8198 L401.4223,213.4998 C401.4223,212.7138 401.5353,212.0068 401.7613,211.3798 C401.9883,210.7538 402.2953,210.2198 402.6813,209.7798 C403.0683,209.3398 403.5173,209.0038 404.0313,208.7698 C404.5453,208.5368 405.0943,208.4198 405.6813,208.4198 C406.3883,208.4198 406.9583,208.5398 407.3913,208.7798 C407.8243,209.0198 408.1683,209.3938 408.4223,209.8998 L408.7813,209.8998 L408.7813,208.6998 L411.3013,208.6998 L411.3013,215.6198 C411.3013,216.0198 411.4813,216.2198 411.8413,216.2198 L412.2213,216.2198 L412.2213,218.6198 L410.5023,218.6198 C410.0493,218.6198 409.6773,218.4868 409.3913,218.2198 C409.1043,217.9538 408.9613,217.6068 408.9613,217.1798 L408.6013,217.1798 Z" id="Fill-117" fill="#7B74FF"></path>
                    <path d="M421.1415,208.7 L423.6625,208.7 L423.6625,221.06 C423.6625,221.513 423.5185,221.887 423.2325,222.18 C422.9455,222.473 422.5745,222.62 422.1205,222.62 L416.2215,222.62 L416.2215,220.22 L420.6015,220.22 C420.9615,220.22 421.1415,220.02 421.1415,219.62 L421.1415,217.18 L420.7815,217.18 C420.3415,218.327 419.3945,218.9 417.9415,218.9 C417.4485,218.9 416.9885,218.82 416.5625,218.66 C416.1345,218.5 415.7615,218.253 415.4415,217.92 C415.1205,217.587 414.8705,217.17 414.6915,216.67 C414.5115,216.17 414.4215,215.58 414.4215,214.9 L414.4215,208.7 L416.9415,208.7 L416.9415,214.38 C416.9415,215.087 417.1085,215.637 417.4415,216.03 C417.7755,216.423 418.2755,216.62 418.9415,216.62 C419.7015,216.62 420.2575,216.377 420.6115,215.89 C420.9645,215.403 421.1415,214.74 421.1415,213.9 L421.1415,208.7 Z" id="Fill-118" fill="#7B74FF"></path>
                    <path d="M431.4023,216.4998 C432.1883,216.4998 432.8253,216.2568 433.3123,215.7698 C433.7983,215.2828 434.0423,214.6198 434.0423,213.7798 L434.0423,213.5398 C434.0423,212.6998 433.7983,212.0368 433.3123,211.5498 C432.8253,211.0628 432.1883,210.8198 431.4023,210.8198 C430.6153,210.8198 429.9783,211.0698 429.4923,211.5698 C429.0063,212.0698 428.7613,212.7268 428.7613,213.5398 L428.7613,213.7798 C428.7613,214.5938 429.0063,215.2498 429.4923,215.7498 C429.9783,216.2498 430.6153,216.4998 431.4023,216.4998 L431.4023,216.4998 Z M428.7613,218.6198 L426.2423,218.6198 L426.2423,204.6198 L428.7613,204.6198 L428.7613,210.1398 L429.1223,210.1398 C429.3883,209.5938 429.7753,209.1698 430.2823,208.8698 C430.7893,208.5698 431.4353,208.4198 432.2223,208.4198 C432.8083,208.4198 433.3653,208.5328 433.8923,208.7598 C434.4183,208.9868 434.8793,209.3168 435.2713,209.7498 C435.6653,210.1838 435.9783,210.7138 436.2123,211.3398 C436.4453,211.9668 436.5623,212.6798 436.5623,213.4798 L436.5623,213.8398 C436.5623,214.6538 436.4493,215.3738 436.2223,215.9998 C435.9953,216.6268 435.6883,217.1568 435.3023,217.5898 C434.9153,218.0228 434.4593,218.3498 433.9313,218.5698 C433.4053,218.7898 432.8353,218.8998 432.2223,218.8998 C431.7683,218.8998 431.3753,218.8528 431.0423,218.7598 C430.7093,218.6668 430.4183,218.5398 430.1723,218.3798 C429.9253,218.2198 429.7183,218.0368 429.5523,217.8298 C429.3843,217.6238 429.2423,217.4068 429.1223,217.1798 L428.7613,217.1798 L428.7613,218.6198 Z" id="Fill-119" fill="#7B74FF"></path>
                    <path d="M443.5019,210.7 C442.8619,210.7 442.3419,210.863 441.9419,211.19 C441.5429,211.517 441.2819,211.893 441.1619,212.32 L445.8419,212.32 C445.7619,211.853 445.5119,211.467 445.0919,211.16 C444.6719,210.853 444.1429,210.7 443.5019,210.7 L443.5019,210.7 Z M441.1219,214.48 C441.1349,214.773 441.2049,215.043 441.3319,215.29 C441.4589,215.537 441.6329,215.75 441.8519,215.93 C442.0719,216.11 442.3249,216.25 442.6119,216.35 C442.8979,216.45 443.2019,216.5 443.5229,216.5 C444.1479,216.5 444.6289,216.39 444.9629,216.17 C445.2949,215.95 445.5349,215.687 445.6819,215.38 L447.8419,216.58 C447.7229,216.833 447.5549,217.097 447.3419,217.37 C447.1289,217.643 446.8519,217.893 446.5119,218.12 C446.1719,218.347 445.7589,218.533 445.2729,218.68 C444.7849,218.826 444.2149,218.9 443.5629,218.9 C442.8149,218.9 442.1349,218.78 441.5229,218.54 C440.9079,218.3 440.3789,217.953 439.9319,217.5 C439.4849,217.047 439.1389,216.493 438.8929,215.84 C438.6459,215.187 438.5229,214.447 438.5229,213.62 L438.5229,213.5 C438.5229,212.74 438.6519,212.047 438.9119,211.42 C439.1719,210.793 439.5289,210.26 439.9819,209.82 C440.4359,209.38 440.9649,209.037 441.5719,208.79 C442.1789,208.543 442.8279,208.42 443.5229,208.42 C444.3749,208.42 445.1089,208.57 445.7229,208.87 C446.3359,209.17 446.8419,209.55 447.2419,210.01 C447.6429,210.47 447.9359,210.977 448.1219,211.53 C448.3089,212.083 448.4019,212.62 448.4019,213.14 L448.4019,214.48 L441.1219,214.48 Z" id="Fill-120" fill="#7B74FF"></path>
                    <polygon id="Fill-121" fill="#141228" points="354.435 232.14 483.716 232.14 483.716 230.859 354.435 230.859"></polygon>
                    <polygon id="Fill-122" fill="#7B74FF" points="353.574 233 484.574 233 484.574 230 353.574 230"></polygon>
                    <polygon id="Fill-123" fill="#7B74FF" points="481.574 232.5 484.574 232.5 484.574 192 481.574 192"></polygon>
                    <polygon id="Fill-124" fill="#FEB600" points="619.275 4.184 623.183 4.184 623.183 0.276 619.275 0.276"></polygon>
                    <polygon id="Fill-125" fill="#FEB600" points="619.275 23.724 623.183 23.724 623.183 19.816 619.275 19.816"></polygon>
                    <polygon id="Fill-126" fill="#FEB600" points="623.184 19.816 627.092 19.816 627.092 15.908 623.184 15.908"></polygon>
                    <polygon id="Fill-127" fill="#FEB600" points="638.816 4.184 642.724 4.184 642.724 0.276 638.816 0.276"></polygon>
                    <polygon id="Fill-128" fill="#FEB600" points="634.908 8.092 638.816 8.092 638.816 4.184 634.908 4.184"></polygon>
                    <polygon id="Fill-129" fill="#FEB600" points="623.184 8.092 627.092 8.092 627.092 4.184 623.184 4.184"></polygon>
                    <polygon id="Fill-130" fill="#FEB600" points="631 15.908 634.908 15.908 634.908 12 631 12"></polygon>
                    <polygon id="Fill-131" fill="#FEB600" points="627.092 12 631 12 631 8.092 627.092 8.092"></polygon>
                    <polygon id="Fill-132" fill="#FEB600" points="634.908 19.816 638.816 19.816 638.816 15.908 634.908 15.908"></polygon>
                    <polygon id="Fill-133" fill="#FEB600" points="638.816 23.724 642.724 23.724 642.724 19.816 638.816 19.816"></polygon>
                    <polygon id="Fill-134" fill="#141228" points="108.852 306.501 240.667 306.501 240.667 264.5 108.852 264.5"></polygon>
                    <path d="M108.352,307 L241.167,307 L241.167,264 L108.352,264 L108.352,307 Z M109.352,306 L240.167,306 L240.167,264.999 L109.352,264.999 L109.352,306 Z" id="Fill-135" fill="#7B74FF"></path>
                    <polygon id="Fill-136" fill="#7B74FF" points="139.4785 277.6199 148.8375 277.6199 148.8375 280.1399 145.4785 280.1399 145.4785 289.0999 148.8375 289.0999 148.8375 291.6199 139.4785 291.6199 139.4785 289.0999 142.8375 289.0999 142.8375 280.1399 139.4785 280.1399"></polygon>
                    <path d="M156.2773,289.4998 C157.0643,289.4998 157.7013,289.2498 158.1873,288.7498 C158.6733,288.2498 158.9183,287.5938 158.9183,286.7798 L158.9183,286.5398 C158.9183,285.7268 158.6733,285.0698 158.1873,284.5698 C157.7013,284.0698 157.0643,283.8198 156.2773,283.8198 C155.4903,283.8198 154.8543,284.0628 154.3673,284.5498 C153.8813,285.0368 153.6373,285.6998 153.6373,286.5398 L153.6373,286.7798 C153.6373,287.6198 153.8813,288.2828 154.3673,288.7698 C154.8543,289.2568 155.4903,289.4998 156.2773,289.4998 L156.2773,289.4998 Z M158.9183,290.1798 L158.5573,290.1798 C158.4513,290.4068 158.3203,290.6238 158.1683,290.8298 C158.0133,291.0368 157.8143,291.2198 157.5683,291.3798 C157.3203,291.5398 157.0273,291.6668 156.6873,291.7598 C156.3473,291.8528 155.9373,291.8998 155.4583,291.8998 C154.8433,291.8998 154.2743,291.7898 153.7483,291.5698 C153.2203,291.3498 152.7603,291.0228 152.3673,290.5898 C151.9743,290.1568 151.6683,289.6268 151.4473,288.9998 C151.2283,288.3738 151.1173,287.6538 151.1173,286.8398 L151.1173,286.4798 C151.1173,285.6798 151.2343,284.9668 151.4673,284.3398 C151.7013,283.7138 152.0213,283.1838 152.4273,282.7498 C152.8343,282.3168 153.3073,281.9868 153.8473,281.7598 C154.3873,281.5328 154.9583,281.4198 155.5573,281.4198 C156.3573,281.4198 156.9903,281.5698 157.4583,281.8698 C157.9233,282.1698 158.2913,282.5938 158.5573,283.1398 L158.9183,283.1398 L158.9183,281.6998 L161.4373,281.6998 L161.4373,294.0598 C161.4373,294.5128 161.2953,294.8868 161.0073,295.1798 C160.7203,295.4728 160.3513,295.6198 159.8983,295.6198 L153.2173,295.6198 L153.2173,293.2198 L158.3783,293.2198 C158.7383,293.2198 158.9183,293.0198 158.9183,292.6198 L158.9183,290.1798 Z" id="Fill-137" fill="#7B74FF"></path>
                    <path d="M166.5976,291.6199 L164.0776,291.6199 L164.0776,281.6999 L166.5976,281.6999 L166.5976,283.1799 L166.9576,283.1799 C167.1846,282.6199 167.5506,282.1869 168.0586,281.8799 C168.5646,281.5729 169.1586,281.4199 169.8376,281.4199 C170.3186,281.4199 170.7676,281.4969 171.1876,281.6499 C171.6076,281.8029 171.9786,282.0399 172.2976,282.3599 C172.6186,282.6799 172.8686,283.0869 173.0476,283.5799 C173.2286,284.0729 173.3186,284.6599 173.3186,285.3399 L173.3186,291.6199 L170.7976,291.6199 L170.7976,285.9799 C170.7976,285.2729 170.6276,284.7169 170.2876,284.3099 C169.9486,283.9029 169.4576,283.6999 168.8186,283.6999 C168.0716,283.6999 167.5146,283.9499 167.1486,284.4499 C166.7816,284.9499 166.5976,285.6199 166.5976,286.4599 L166.5976,291.6199 Z" id="Fill-138" fill="#7B74FF"></path>
                    <path d="M180.8789,289.4998 C181.2379,289.4998 181.5779,289.4398 181.8989,289.3198 C182.2189,289.1998 182.4979,289.0268 182.7379,288.7998 C182.9789,288.5728 183.1679,288.2968 183.3089,287.9698 C183.4479,287.6438 183.5179,287.2728 183.5179,286.8598 L183.5179,286.4598 C183.5179,286.0468 183.4479,285.6768 183.3089,285.3498 C183.1679,285.0228 182.9789,284.7468 182.7379,284.5198 C182.4979,284.2928 182.2189,284.1198 181.8989,283.9998 C181.5779,283.8798 181.2379,283.8198 180.8789,283.8198 C180.5179,283.8198 180.1779,283.8798 179.8579,283.9998 C179.5379,284.1198 179.2579,284.2928 179.0179,284.5198 C178.7779,284.7468 178.5879,285.0228 178.4479,285.3498 C178.3089,285.6768 178.2379,286.0468 178.2379,286.4598 L178.2379,286.8598 C178.2379,287.2728 178.3089,287.6438 178.4479,287.9698 C178.5879,288.2968 178.7779,288.5728 179.0179,288.7998 C179.2579,289.0268 179.5379,289.1998 179.8579,289.3198 C180.1779,289.4398 180.5179,289.4998 180.8789,289.4998 L180.8789,289.4998 Z M186.0379,286.7798 C186.0379,287.6068 185.8989,288.3368 185.6179,288.9698 C185.3379,289.6038 184.9589,290.1368 184.4789,290.5698 C183.9979,291.0038 183.4479,291.3328 182.8279,291.5598 C182.2089,291.7868 181.5589,291.8998 180.8789,291.8998 C180.1979,291.8998 179.5489,291.7868 178.9279,291.5598 C178.3089,291.3328 177.7579,291.0038 177.2779,290.5698 C176.7989,290.1368 176.4179,289.6038 176.1389,288.9698 C175.8579,288.3368 175.7189,287.6068 175.7189,286.7798 L175.7189,286.5398 C175.7189,285.7268 175.8579,285.0038 176.1389,284.3698 C176.4179,283.7368 176.7989,283.1998 177.2779,282.7598 C177.7579,282.3198 178.3089,281.9868 178.9279,281.7598 C179.5489,281.5328 180.1979,281.4198 180.8789,281.4198 C181.5589,281.4198 182.2089,281.5328 182.8279,281.7598 C183.4479,281.9868 183.9979,282.3198 184.4789,282.7598 C184.9589,283.1998 185.3379,283.7368 185.6179,284.3698 C185.8989,285.0038 186.0379,285.7268 186.0379,286.5398 L186.0379,286.7798 Z" id="Fill-139" fill="#7B74FF"></path>
                    <path d="M188.0781,281.7 L192.2781,281.7 L192.2781,283.14 L192.6391,283.14 C192.8251,282.593 193.1411,282.17 193.5881,281.87 C194.0351,281.57 194.5721,281.42 195.1991,281.42 C196.1851,281.42 196.9781,281.73 197.5781,282.35 C198.1791,282.97 198.4781,283.913 198.4781,285.18 L198.4781,285.62 L195.8791,285.86 L195.8791,285.58 C195.8791,285.033 195.7381,284.597 195.4591,284.27 C195.1791,283.943 194.7581,283.78 194.1991,283.78 C193.6391,283.78 193.1991,283.973 192.8791,284.36 C192.5581,284.747 192.3981,285.3 192.3981,286.02 L192.3981,289.22 L194.6791,289.22 L194.6791,291.62 L187.8381,291.62 L187.8381,289.22 L189.8791,289.22 L189.8791,284.1 L188.0781,284.1 L188.0781,281.7 Z" id="Fill-140" fill="#7B74FF"></path>
                    <path d="M205.3984,283.7 C204.7584,283.7 204.2384,283.863 203.8384,284.19 C203.4394,284.517 203.1784,284.893 203.0584,285.32 L207.7384,285.32 C207.6584,284.853 207.4084,284.467 206.9884,284.16 C206.5684,283.853 206.0394,283.7 205.3984,283.7 L205.3984,283.7 Z M203.0184,287.48 C203.0314,287.773 203.1014,288.043 203.2284,288.29 C203.3554,288.537 203.5294,288.75 203.7484,288.93 C203.9684,289.11 204.2214,289.25 204.5084,289.35 C204.7944,289.45 205.0984,289.5 205.4194,289.5 C206.0444,289.5 206.5254,289.39 206.8594,289.17 C207.1914,288.95 207.4314,288.687 207.5784,288.38 L209.7384,289.58 C209.6194,289.833 209.4514,290.097 209.2384,290.37 C209.0254,290.643 208.7484,290.893 208.4084,291.12 C208.0684,291.347 207.6554,291.533 207.1694,291.68 C206.6814,291.826 206.1114,291.9 205.4594,291.9 C204.7114,291.9 204.0314,291.78 203.4194,291.54 C202.8044,291.3 202.2754,290.953 201.8284,290.5 C201.3814,290.047 201.0354,289.493 200.7894,288.84 C200.5424,288.187 200.4194,287.447 200.4194,286.62 L200.4194,286.5 C200.4194,285.74 200.5484,285.047 200.8084,284.42 C201.0684,283.793 201.4254,283.26 201.8784,282.82 C202.3324,282.38 202.8614,282.037 203.4684,281.79 C204.0754,281.543 204.7244,281.42 205.4194,281.42 C206.2714,281.42 207.0054,281.57 207.6194,281.87 C208.2324,282.17 208.7384,282.55 209.1384,283.01 C209.5394,283.47 209.8324,283.977 210.0184,284.53 C210.2054,285.083 210.2984,285.62 210.2984,286.14 L210.2984,287.48 L203.0184,287.48 Z" id="Fill-141" fill="#7B74FF"></path>
                    <polygon id="Fill-142" fill="#141228" points="110.212 305.14 239.493 305.14 239.493 303.859 110.212 303.859"></polygon>
                    <polygon id="Fill-143" fill="#7B74FF" points="109.352 306 240.352 306 240.352 303 109.352 303"></polygon>
                    <polygon id="Fill-144" fill="#7B74FF" points="237.352 305.5 240.352 305.5 240.352 265 237.352 265"></polygon>
                    <polygon id="Fill-145" fill="#141228" points="271.667 306.501 403.482 306.501 403.482 264.5 271.667 264.5"></polygon>
                    <path d="M271.167,307 L403.982,307 L403.982,264 L271.167,264 L271.167,307 Z M272.166,306 L402.982,306 L402.982,264.999 L272.166,264.999 L272.166,306 Z" id="Fill-146" fill="#7B74FF"></path>
                    <path d="M325.375,289.4998 C325.881,289.4998 326.297,289.4238 326.625,289.2698 C326.951,289.1168 327.205,288.9098 327.385,288.6498 C327.564,288.3898 327.688,288.0898 327.754,287.7498 C327.82,287.4098 327.854,287.0598 327.854,286.6998 L327.854,286.3398 L330.494,286.3398 L330.494,286.6998 C330.494,288.3668 330.058,289.6498 329.185,290.5498 C328.311,291.4498 327.041,291.8998 325.375,291.8998 C323.774,291.8998 322.508,291.4138 321.574,290.4398 C320.641,289.4668 320.174,288.0468 320.174,286.1798 L320.174,283.0598 C320.174,282.1668 320.295,281.3638 320.534,280.6498 C320.774,279.9368 321.121,279.3368 321.574,278.8498 C322.027,278.3638 322.574,277.9898 323.215,277.7298 C323.854,277.4698 324.574,277.3398 325.375,277.3398 C326.201,277.3398 326.935,277.4598 327.574,277.6998 C328.215,277.9398 328.751,278.2868 329.185,278.7398 C329.617,279.1938 329.944,279.7398 330.164,280.3798 C330.385,281.0198 330.494,281.7398 330.494,282.5398 L330.494,282.8998 L327.854,282.8998 L327.854,282.5398 C327.854,282.2068 327.814,281.8738 327.734,281.5398 C327.654,281.2068 327.521,280.9068 327.334,280.6398 C327.147,280.3738 326.895,280.1568 326.574,279.9898 C326.254,279.8228 325.854,279.7398 325.375,279.7398 C324.935,279.7398 324.555,279.8228 324.234,279.9898 C323.914,280.1568 323.647,280.3838 323.435,280.6698 C323.221,280.9568 323.064,281.2898 322.965,281.6698 C322.864,282.0498 322.814,282.4468 322.814,282.8598 L322.814,286.3798 C322.814,286.8328 322.861,287.2498 322.955,287.6298 C323.047,288.0098 323.194,288.3398 323.395,288.6198 C323.594,288.8998 323.857,289.1168 324.185,289.2698 C324.511,289.4238 324.908,289.4998 325.375,289.4998" id="Fill-147" fill="#7B74FF"></path>
                    <path d="M332.5341,281.7 L336.7341,281.7 L336.7341,283.14 L337.0941,283.14 C337.2811,282.593 337.5971,282.17 338.0441,281.87 C338.4901,281.57 339.0271,281.42 339.6541,281.42 C340.6401,281.42 341.4331,281.73 342.0341,282.35 C342.6351,282.97 342.9331,283.913 342.9331,285.18 L342.9331,285.62 L340.3341,285.86 L340.3341,285.58 C340.3341,285.033 340.1941,284.597 339.9141,284.27 C339.6351,283.943 339.2141,283.78 338.6541,283.78 C338.0941,283.78 337.6541,283.973 337.3341,284.36 C337.0131,284.747 336.8531,285.3 336.8531,286.02 L336.8531,289.22 L339.1351,289.22 L339.1351,291.62 L332.2941,291.62 L332.2941,289.22 L334.3341,289.22 L334.3341,284.1 L332.5341,284.1 L332.5341,281.7 Z" id="Fill-148" fill="#7B74FF"></path>
                    <path d="M351.9746,281.7 L354.4946,281.7 L354.4946,294.06 C354.4946,294.513 354.3516,294.887 354.0646,295.18 C353.7776,295.473 353.4076,295.62 352.9536,295.62 L347.0546,295.62 L347.0546,293.22 L351.4346,293.22 C351.7946,293.22 351.9746,293.02 351.9746,292.62 L351.9746,290.18 L351.6146,290.18 C351.1736,291.327 350.2276,291.9 348.7746,291.9 C348.2816,291.9 347.8206,291.82 347.3946,291.66 C346.9666,291.5 346.5936,291.253 346.2746,290.92 C345.9536,290.587 345.7036,290.17 345.5246,289.67 C345.3436,289.17 345.2536,288.58 345.2536,287.9 L345.2536,281.7 L347.7746,281.7 L347.7746,287.38 C347.7746,288.087 347.9416,288.637 348.2746,289.03 C348.6076,289.423 349.1076,289.62 349.7746,289.62 C350.5346,289.62 351.0906,289.377 351.4446,288.89 C351.7966,288.403 351.9746,287.74 351.9746,286.9 L351.9746,281.7 Z" id="Fill-149" fill="#7B74FF"></path>
                    <polygon id="Fill-150" fill="#141228" points="273.026 305.14 402.307 305.14 402.307 303.859 273.026 303.859"></polygon>
                    <polygon id="Fill-151" fill="#7B74FF" points="272.167 306 403.167 306 403.167 303 272.167 303"></polygon>
                    <polygon id="Fill-152" fill="#7B74FF" points="400.167 305.5 403.167 305.5 403.167 265 400.167 265"></polygon>
                </g>
            </g>
        </g>
    </g>
</svg>