<?xml version="1.0" encoding="UTF-8"?>
<svg width="400px" height="400px" viewBox="0 0 400 400" version="1.1" xmlns="http://www.w3.org/2000/svg" xmlns:xlink="http://www.w3.org/1999/xlink">
    <!-- Generator: Sketch 63.1 (92452) - https://sketch.com -->
    <title>arrow_none_more-menu</title>
    <desc>Created with Sketch.</desc>
    <g id="Exports" stroke="none" stroke-width="1" fill="none" fill-rule="evenodd">
        <g id="Artboard" transform="translate(-4359.000000, -865.000000)">
            <g id="Group-11" transform="translate(4359.000000, 865.000000)">
                <g id="Group-3" transform="translate(44.000000, 102.000000)">
                    <polygon id="Fill-1" fill="#F65800" points="157.308052 -0.000185346535 118.032504 5.51943446 117.95404 47.9106582 117.915118 69.1118305 78.6346265 74.6320681 39.3584602 80.1523057 0.0792047525 85.6719255 0.000123564356 128.063767 36.613478 147.981106 75.8939691 142.46025 115.1689 136.941248 117.789082 136.572409 117.718032 175.094832 154.331387 195.012171 193.606935 189.492551 193.646476 168.296939 232.926349 162.776702 232.965272 141.57553 272.241438 136.05591 272.280979 114.860298 311.56147 109.34006 311.639316 66.9488364 275.025961 47.0314978 266.748385 48.1942384 235.785011 31.351181 227.504963 32.5145394 196.549621 15.6751889 188.26463 16.839783"></polygon>
                    <polygon id="Fill-2" fill="#FEB600" points="154.646291 25.4369584 154.567827 67.8281822 154.528287 89.0287366 115.247796 94.5495921 75.972865 100.06983 36.6923739 105.590067 36.6132927 147.981291 75.8937838 142.460436 115.169332 136.940816 154.449206 131.420578 154.409665 152.61619 154.331819 195.012356 193.60675 189.492737 193.646291 168.297125 232.926782 162.776269 232.965705 141.575715 272.241253 136.056095 272.280794 114.860483 311.561285 109.340246 311.639748 66.948404 272.359257 72.4692594 272.398798 51.2680871 233.123249 56.7883248 233.16279 35.5927129 193.882916 41.1135683 193.921839 19.9173386"></polygon>
                </g>
            </g>
        </g>
    </g>
</svg>