<svg xmlns="http://www.w3.org/2000/svg" viewBox="0 0 660.87 351.12">
  <defs>
    <style>.cls-1 {
      fill: #fdb50f;
    }

    .cls-2 {
      fill: #f35916;
    }

    .cls-3 {
      fill: #00bf58;
    }</style>
  </defs>
  <title>Asset 1</title>
  <g id="Layer_2" data-name="Layer 2">
    <g id="Layer_1-2" data-name="Layer 1">
      <polygon class="cls-1" points="205.33 297.54 180.52 283.87 216.84 276.08 241.66 289.74 205.33 297.54"/>
      <polygon class="cls-1" points="206.07 260.46 181.26 246.79 217.59 239 242.4 252.67 206.07 260.46"/>
      <polygon class="cls-2"
               points="243.15 215.6 242.77 234.14 206.45 241.92 206.07 260.46 242.4 252.67 242.03 271.2 205.7 279 205.33 297.54 241.66 289.74 241.29 308.28 186.79 319.96 188.65 227.28 243.15 215.6"/>
      <polygon class="cls-3" points="186.79 319.96 161.98 306.3 163.84 213.61 188.65 227.28 186.79 319.96"/>
      <polygon class="cls-1" points="188.65 227.28 163.84 213.61 218.33 201.93 243.15 215.6 188.65 227.28"/>
      <polygon class="cls-3" points="150.46 327.76 125.65 314.09 126.39 277.01 151.21 290.68 150.46 327.76"/>
      <polygon class="cls-3" points="151.58 272.14 126.77 258.47 127.51 221.39 152.32 235.06 151.58 272.14"/>
      <polygon class="cls-1" points="152.32 235.06 127.51 221.39 145.68 217.5 170.49 231.16 152.32 235.06"/>
      <polygon class="cls-1" points="115.26 279.94 90.45 266.27 126.77 258.47 151.58 272.14 115.26 279.94"/>
      <polygon class="cls-2"
               points="170.49 231.16 168.63 323.86 150.46 327.76 151.21 290.68 114.89 298.46 114.15 335.54 95.98 339.44 97.84 246.75 116.01 242.86 115.26 279.94 151.58 272.14 152.32 235.06 170.49 231.16"/>
      <polygon class="cls-3" points="95.98 339.44 71.17 325.77 73.03 233.09 97.84 246.75 95.98 339.44"/>
      <polygon class="cls-1" points="97.84 246.75 73.03 233.09 91.19 229.19 116.01 242.86 97.84 246.75"/>
      <polygon class="cls-2" points="354.76 60.4 354.38 78.94 336.23 82.83 336.6 64.3 354.76 60.4"/>
      <polygon class="cls-3" points="336.23 82.83 311.41 69.16 311.79 50.63 336.6 64.3 336.23 82.83"/>
      <polygon class="cls-1" points="336.6 64.3 311.79 50.63 329.94 46.73 354.76 60.4 336.6 64.3"/>
      <polygon class="cls-2" points="336.23 82.83 335.86 101.37 317.69 105.26 318.06 86.72 336.23 82.83"/>
      <polygon class="cls-3" points="317.69 105.26 292.87 91.6 293.25 73.06 318.06 86.72 317.69 105.26"/>
      <polygon class="cls-1" points="318.06 86.72 293.25 73.06 311.41 69.16 336.23 82.83 318.06 86.72"/>
      <polygon class="cls-2" points="642.34 148.45 641.97 166.99 623.81 170.89 624.18 152.35 642.34 148.45"/>
      <polygon class="cls-3" points="623.81 170.89 599 157.22 599.37 138.68 624.18 152.35 623.81 170.89"/>
      <polygon class="cls-1" points="624.18 152.35 599.37 138.68 617.53 134.78 642.34 148.45 624.18 152.35"/>
      <polygon class="cls-2" points="660.87 126.03 660.5 144.57 642.34 148.45 642.72 129.91 660.87 126.03"/>
      <polygon class="cls-3" points="642.34 148.45 617.53 134.78 617.9 116.25 642.72 129.91 642.34 148.45"/>
      <polygon class="cls-1" points="642.72 129.91 617.9 116.25 636.06 112.36 660.87 126.03 642.72 129.91"/>
      <polygon class="cls-2" points="659.01 218.71 640.86 222.61 641.23 204.07 659.38 200.17 659.01 218.71"/>
      <polygon class="cls-3" points="640.86 222.61 616.04 208.94 616.41 190.4 641.23 204.07 640.86 222.61"/>
      <polygon class="cls-1" points="641.23 204.07 616.41 190.4 634.57 186.5 659.38 200.17 641.23 204.07"/>
      <polygon class="cls-2" points="641.23 204.07 623.07 207.97 623.44 189.43 641.6 185.53 641.23 204.07"/>
      <polygon class="cls-3" points="623.07 207.97 598.26 194.3 598.63 175.76 623.44 189.43 623.07 207.97"/>
      <polygon class="cls-1" points="623.44 189.43 598.63 175.76 616.78 171.86 641.6 185.53 623.44 189.43"/>
      <polygon class="cls-1" points="605.64 174.79 580.83 161.12 599 157.22 623.81 170.89 605.64 174.79"/>
      <polygon class="cls-2"
               points="605.64 174.79 623.81 170.89 623.44 189.43 605.27 193.31 604.53 230.39 586.37 234.29 588.23 141.61 606.39 137.71 605.64 174.79"/>
      <polygon class="cls-3" points="586.37 234.29 561.56 220.62 563.42 127.94 588.23 141.61 586.37 234.29"/>
      <polygon class="cls-1" points="588.23 141.61 563.42 127.94 581.57 124.04 606.39 137.71 588.23 141.61"/>
      <polygon class="cls-2" points="570.06 145.49 569.69 164.03 533.36 171.83 533.74 153.29 570.06 145.49"/>
      <polygon class="cls-3" points="533.36 171.83 508.55 158.16 508.92 139.62 533.74 153.29 533.36 171.83"/>
      <polygon class="cls-1" points="533.74 153.29 508.92 139.62 545.25 131.82 570.06 145.49 533.74 153.29"/>
      <polygon class="cls-2" points="568.2 238.19 531.88 245.97 532.25 227.43 568.57 219.65 568.2 238.19"/>
      <polygon class="cls-3" points="531.88 245.97 507.06 232.3 507.43 213.76 532.25 227.43 531.88 245.97"/>
      <polygon class="cls-1" points="532.25 227.43 507.43 213.76 543.76 205.98 568.57 219.65 532.25 227.43"/>
      <polygon class="cls-2" points="515.21 175.71 533.36 171.83 532.25 227.43 514.09 231.33 515.21 175.71"/>
      <polygon class="cls-1" points="515.21 175.71 490.39 162.04 508.55 158.16 533.36 171.83 515.21 175.71"/>
      <polygon class="cls-3" points="514.09 231.33 489.28 217.66 490.39 162.04 515.21 175.71 514.09 231.33"/>
      <polygon class="cls-3" points="477.39 257.66 452.58 244 452.95 225.46 477.76 239.12 477.39 257.66"/>
      <polygon class="cls-1" points="478.88 183.51 454.06 169.84 472.23 165.94 497.05 179.61 478.88 183.51"/>
      <polygon class="cls-3" points="478.13 220.59 453.32 206.92 454.06 169.84 478.88 183.51 478.13 220.59"/>
      <polygon class="cls-1" points="441.81 228.37 417 214.7 453.32 206.92 478.13 220.59 441.81 228.37"/>
      <polygon class="cls-1" points="442.92 172.75 418.11 159.08 454.44 151.3 479.25 164.97 442.92 172.75"/>
      <polygon class="cls-2" points="479.25 164.97 478.88 183.51 442.55 191.29 442.92 172.75 479.25 164.97"/>
      <polygon class="cls-3" points="442.55 191.29 417.74 177.62 418.11 159.08 442.92 172.75 442.55 191.29"/>
      <polygon class="cls-2"
               points="478.88 183.51 497.05 179.61 495.56 253.77 477.39 257.66 477.76 239.12 441.44 246.91 441.06 265.45 422.91 269.34 424.39 195.19 442.55 191.29 441.81 228.37 478.13 220.59 478.88 183.51"/>
      <polygon class="cls-1" points="424.39 195.19 399.58 181.52 417.74 177.62 442.55 191.29 424.39 195.19"/>
      <polygon class="cls-3" points="422.91 269.34 398.09 255.68 399.58 181.52 424.39 195.19 422.91 269.34"/>
      <polygon class="cls-3" points="386.58 277.13 361.77 263.46 362.51 226.38 387.32 240.05 386.58 277.13"/>
      <polygon class="cls-3" points="387.7 221.51 362.88 207.84 363.63 170.77 388.44 184.44 387.7 221.51"/>
      <polygon class="cls-1" points="388.44 184.44 363.63 170.77 381.78 166.88 406.6 180.54 388.44 184.44"/>
      <polygon class="cls-1" points="351.37 229.3 326.56 215.64 362.88 207.84 387.7 221.51 351.37 229.3"/>
      <polygon class="cls-2"
               points="406.6 180.54 404.74 273.23 386.58 277.13 387.32 240.05 351 247.84 350.25 284.92 332.1 288.81 333.96 196.12 352.11 192.23 351.37 229.3 387.7 221.51 388.44 184.44 406.6 180.54"/>
      <polygon class="cls-3" points="332.1 288.81 307.28 275.14 309.14 182.46 333.96 196.12 332.1 288.81"/>
      <polygon class="cls-1" points="333.96 196.12 309.14 182.46 327.3 178.56 352.11 192.23 333.96 196.12"/>
      <polygon class="cls-2" points="352.9 153.09 334.74 156.99 335.11 138.45 353.27 134.55 352.9 153.09"/>
      <polygon class="cls-1" points="335.11 138.45 310.3 124.78 328.46 120.88 353.27 134.55 335.11 138.45"/>
      <polygon class="cls-3" points="334.74 156.99 309.93 143.32 310.3 124.78 335.11 138.45 334.74 156.99"/>
      <polygon class="cls-3" points="316.94 142.34 292.13 128.68 292.5 110.14 317.31 123.8 316.94 142.34"/>
      <polygon class="cls-2" points="335.11 138.45 316.94 142.34 317.31 123.8 335.48 119.91 335.11 138.45"/>
      <polygon class="cls-1" points="317.31 123.8 292.5 110.14 310.67 106.24 335.48 119.91 317.31 123.8"/>
      <polygon class="cls-1" points="299.53 109.16 274.72 95.49 292.87 91.6 317.69 105.26 299.53 109.16"/>
      <polygon class="cls-1" points="282.1 75.98 257.29 62.31 275.46 58.41 300.27 72.08 282.1 75.98"/>
      <polygon class="cls-3" points="280.25 168.67 255.43 155 257.29 62.31 282.1 75.98 280.25 168.67"/>
      <polygon class="cls-2"
               points="299.53 109.16 317.69 105.26 317.31 123.8 299.16 127.7 298.41 164.78 280.25 168.67 282.1 75.98 300.27 72.08 299.53 109.16"/>
      <polygon class="cls-2" points="263.95 79.88 263.57 98.41 227.25 106.2 227.62 87.66 263.95 79.88"/>
      <polygon class="cls-3" points="227.25 106.2 202.43 92.53 202.81 73.99 227.62 87.66 227.25 106.2"/>
      <polygon class="cls-1" points="227.62 87.66 202.81 73.99 239.13 66.21 263.95 79.88 227.62 87.66"/>
      <polygon class="cls-2" points="262.09 172.56 225.76 180.35 226.13 161.82 262.46 154.02 262.09 172.56"/>
      <polygon class="cls-3" points="225.76 180.35 200.95 166.68 201.32 148.15 226.13 161.82 225.76 180.35"/>
      <polygon class="cls-1" points="226.13 161.82 201.32 148.15 237.65 140.35 262.46 154.02 226.13 161.82"/>
      <polygon class="cls-2" points="209.09 110.1 227.25 106.2 226.13 161.82 207.97 165.7 209.09 110.1"/>
      <polygon class="cls-1" points="209.09 110.1 184.28 96.43 202.43 92.53 227.25 106.2 209.09 110.1"/>
      <polygon class="cls-3" points="207.97 165.7 183.16 152.04 184.28 96.43 209.09 110.1 207.97 165.7"/>
      <polygon class="cls-3" points="171.28 192.04 146.46 178.37 146.84 159.83 171.65 173.5 171.28 192.04"/>
      <polygon class="cls-1" points="172.76 117.88 147.95 104.21 166.11 100.32 190.92 113.98 172.76 117.88"/>
      <polygon class="cls-3" points="172.02 154.96 147.21 141.29 147.95 104.21 172.76 117.88 172.02 154.96"/>
      <polygon class="cls-1" points="135.69 162.74 110.88 149.07 147.21 141.29 172.02 154.96 135.69 162.74"/>
      <polygon class="cls-1" points="136.81 107.14 112 93.47 148.32 85.67 173.14 99.34 136.81 107.14"/>
      <polygon class="cls-2" points="173.14 99.34 172.76 117.88 136.44 125.68 136.81 107.14 173.14 99.34"/>
      <polygon class="cls-3" points="136.44 125.68 111.62 112.01 112 93.47 136.81 107.14 136.44 125.68"/>
      <polygon class="cls-2"
               points="172.76 117.88 190.92 113.98 189.44 188.14 171.28 192.04 171.65 173.5 135.32 181.28 134.95 199.82 116.79 203.72 118.28 129.56 136.44 125.68 135.69 162.74 172.02 154.96 172.76 117.88"/>
      <polygon class="cls-1" points="118.28 129.56 93.47 115.89 111.62 112.01 136.44 125.68 118.28 129.56"/>
      <polygon class="cls-3" points="116.79 203.72 91.98 190.05 93.47 115.89 118.28 129.56 116.79 203.72"/>
      <polygon class="cls-2" points="99 189.08 80.84 192.96 81.21 174.44 99.37 170.54 99 189.08"/>
      <polygon class="cls-1" points="81.21 174.44 56.4 160.77 74.55 156.87 99.37 170.54 81.21 174.44"/>
      <polygon class="cls-3" points="80.84 192.96 56.02 179.29 56.4 160.77 81.21 174.44 80.84 192.96"/>
      <polygon class="cls-2" points="99.74 152 81.58 155.9 81.95 137.36 100.11 133.46 99.74 152"/>
      <polygon class="cls-3" points="81.58 155.9 56.77 142.23 57.14 123.69 81.95 137.36 81.58 155.9"/>
      <polygon class="cls-1" points="81.95 137.36 57.14 123.69 75.3 119.79 100.11 133.46 81.95 137.36"/>
      <polygon class="cls-1" points="44.51 200.76 19.7 187.09 56.02 179.29 80.84 192.96 44.51 200.76"/>
      <polygon class="cls-1" points="45.26 163.68 20.44 150.01 56.77 142.23 81.58 155.9 45.26 163.68"/>
      <polygon class="cls-3" points="25.97 223.19 1.16 209.53 3.02 116.83 27.83 130.5 25.97 223.19"/>
      <polygon class="cls-1" points="27.83 130.5 3.02 116.83 57.51 105.15 82.33 118.82 27.83 130.5"/>
      <polygon class="cls-2"
               points="45.26 163.68 81.58 155.9 81.21 174.44 44.88 182.22 44.51 200.76 80.84 192.96 80.47 211.5 25.97 223.19 27.83 130.5 82.33 118.82 81.95 137.36 45.63 145.14 45.26 163.68"/>
      <polygon class="cls-2" points="572.33 32.21 590.5 28.31 589.39 83.93 571.22 87.83 572.33 32.21"/>
      <polygon class="cls-1" points="572.33 32.21 547.52 18.54 565.69 14.64 590.5 28.31 572.33 32.21"/>
      <polygon class="cls-3" points="571.22 87.83 546.4 74.16 547.52 18.54 572.33 32.21 571.22 87.83"/>
      <polygon class="cls-2" points="572.71 13.67 572.33 32.21 536.01 39.99 536.38 21.45 572.71 13.67"/>
      <polygon class="cls-3" points="536.01 39.99 511.19 26.32 511.56 7.78 536.38 21.45 536.01 39.99"/>
      <polygon class="cls-1" points="536.38 21.45 511.56 7.78 547.89 0 572.71 13.67 536.38 21.45"/>
      <polygon class="cls-2" points="534.52 114.15 534.89 95.61 571.22 87.83 570.85 106.35 534.52 114.15"/>
      <polygon class="cls-3" points="534.52 114.15 509.71 100.48 510.08 81.94 534.89 95.61 534.52 114.15"/>
      <polygon class="cls-1" points="534.89 95.61 510.08 81.94 546.4 74.16 571.22 87.83 534.89 95.61"/>
      <polygon class="cls-2" points="517.85 43.89 536.01 39.99 534.89 95.61 516.73 99.51 517.85 43.89"/>
      <polygon class="cls-1" points="517.85 43.89 493.04 30.22 511.19 26.32 536.01 39.99 517.85 43.89"/>
      <polygon class="cls-3" points="516.73 99.51 491.92 85.84 493.04 30.22 517.85 43.89 516.73 99.51"/>
      <polygon class="cls-3" points="461.88 129.73 437.06 116.06 438.55 41.9 463.37 55.57 461.88 129.73"/>
      <polygon class="cls-2"
               points="500.06 29.25 499.69 47.79 481.52 51.68 480.04 125.83 461.88 129.73 463.37 55.57 445.2 59.47 445.57 40.93 500.06 29.25"/>
      <polygon class="cls-3" points="445.2 59.47 420.38 45.8 420.75 27.26 445.57 40.93 445.2 59.47"/>
      <polygon class="cls-1" points="445.57 40.93 420.75 27.26 475.25 15.58 500.06 29.25 445.57 40.93"/>
      <polygon class="cls-3" points="41.5 351.12 16.68 337.45 18.17 263.31 42.98 276.98 41.5 351.12"/>
      <polygon class="cls-2"
               points="79.68 250.64 79.31 269.18 61.14 273.08 59.65 347.24 41.5 351.12 42.98 276.98 24.81 280.86 25.19 262.32 79.68 250.64"/>
      <polygon class="cls-3" points="24.81 280.86 0 267.19 0.37 248.65 25.19 262.32 24.81 280.86"/>
      <polygon class="cls-1" points="25.19 262.32 0.37 248.65 54.87 236.97 79.68 250.64 25.19 262.32"/>
    </g>
  </g>
</svg>
