<?xml version="1.0" encoding="UTF-8"?>
<svg width="76px" height="76px" viewBox="0 0 76 76" version="1.1" xmlns="http://www.w3.org/2000/svg" xmlns:xlink="http://www.w3.org/1999/xlink">
    <!-- Generator: Sketch 63.1 (92452) - https://sketch.com -->
    <title>Group 8</title>
    <desc>Created with Sketch.</desc>
    <g id="Launch" stroke="none" stroke-width="1" fill="none" fill-rule="evenodd">
        <g id="Homepage-Launch" transform="translate(-411.000000, -25.000000)">
            <g id="Group-8" transform="translate(411.000000, 25.000000)">
                <rect id="Rectangle" fill="#141227" x="0" y="0" width="76" height="76"></rect>
                <g id="Group-24" transform="translate(18.000000, 9.000000)">
                    <polygon id="Fill-1" fill="#F35916" points="35.4 0.000236 35.4 0.0753626667 35.4 0.150489333 35.4 0.226009333 35.4 0.301136 35.4 0.377049333 35.4 0.452176 35.4 0.527302667 35.4 0.602822667 35.4 0.677949333 35.4 0.753076 35.4 0.828989333 35.4 0.904509333 35.4 0.979636 35.4 1.05476267 35.4 1.13028267 35.4 1.20540933 35.4 1.28092933 35.4 1.35644933 35.4 1.43196933 35.4 1.50670267 35.4 1.58222267 35.4 1.65774267 35.4 1.73286933 35.4 1.80838933 35.4 1.88390933 35.4 1.959036 35.4 2.03416267 35.4 2.10968267 35.4 2.185596 35.4 2.26032933 35.4 2.33584933 35.4 2.41136933 35.4 2.486496 35.4 2.56162267 35.4 2.637536 35.4 2.71266267 35.4 2.78778933 35.4 2.86330933 35.4 2.938436 35.4 3.01434933 35.4 3.089476 35.4 3.16460267 35.4 3.24012267 35.4 3.31524933 35.4 3.390376 35.4 3.46628933 35.4 3.54180933 35.4 3.616936 35.4 3.69206267 35.4 3.76758267 35.4 3.84310267 35.4 3.91822933 35.4 3.93356933 31.4666667 3.93356933 31.4666667 4.008696 31.4666667 4.08382267 31.4666667 4.15934267 31.4666667 4.23446933 31.4666667 4.30998933 31.4666667 4.38550933 31.4666667 4.46102933 31.4666667 4.536156 31.4666667 4.61128267 31.4666667 4.68680267 31.4666667 4.76232267 31.4666667 4.83744933 31.4666667 4.91296933 31.4666667 4.988096 31.4666667 5.063616 31.4666667 5.13874267 31.4666667 5.21426267 31.4666667 5.28978267 31.4666667 5.36490933 31.4666667 5.440036 31.4666667 5.515556 31.4666667 5.591076 31.4666667 5.666596 31.4666667 5.74172267 31.4666667 5.81724267 31.4666667 5.89236933 31.4666667 5.967496 31.4666667 6.043016 31.4666667 6.11892933 31.4666667 6.19366267 31.4666667 6.26918267 31.4666667 6.34470267 31.4666667 6.41982933 31.4666667 6.494956 31.4666667 6.57086933 31.4666667 6.645996 31.4666667 6.72112267 31.4666667 6.79664267 31.4666667 6.87176933 31.4666667 6.94728933 31.4666667 7.02280933 31.4666667 7.09832933 31.4666667 7.173456 31.4666667 7.24858267 31.4666667 7.32410267 31.4666667 7.39962267 31.4666667 7.47474933 31.4666667 7.55026933 31.4666667 7.625396 31.4666667 7.700916 31.4666667 7.77604267 31.4666667 7.85156267 31.4666667 7.86690267 27.5333333 7.86690267 23.6 7.86690267 23.6 7.85156267 23.6 7.77604267 23.6 7.700916 23.6 7.625396 23.6 7.55026933 23.6 7.47474933 23.6 7.39962267 23.6 7.32410267 23.6 7.24858267 23.6 7.173456 23.6 7.09832933 23.6 7.02280933 23.6 6.94728933 23.6 6.87176933 23.6 6.79664267 23.6 6.72112267 23.6 6.645996 23.6 6.57086933 23.6 6.494956 23.6 6.41982933 23.6 6.34470267 23.6 6.26918267 23.6 6.19366267 23.6 6.11892933 23.6 6.043016 23.6 5.967496 23.6 5.89236933 23.6 5.81724267 23.6 5.74172267 23.6 5.666596 23.6 5.591076 23.6 5.515556 23.6 5.440036 23.6 5.36490933 23.6 5.28978267 23.6 5.21426267 23.6 5.13874267 23.6 5.063616 23.6 4.988096 23.6 4.91296933 23.6 4.83744933 23.6 4.76232267 23.6 4.68680267 23.6 4.61128267 23.6 4.536156 23.6 4.46102933 23.6 4.38550933 23.6 4.30998933 23.6 4.23446933 23.6 4.15934267 23.6 4.08382267 23.6 4.008696 23.6 3.93356933 19.6666667 3.93356933 19.6666667 4.008696 19.6666667 4.08382267 19.6666667 4.15934267 19.6666667 4.23446933 19.6666667 4.30998933 19.6666667 4.38550933 19.6666667 4.46102933 19.6666667 4.536156 19.6666667 4.61128267 19.6666667 4.68680267 19.6666667 4.76232267 19.6666667 4.83744933 19.6666667 4.91296933 19.6666667 4.988096 19.6666667 5.063616 19.6666667 5.13874267 19.6666667 5.21426267 19.6666667 5.28978267 19.6666667 5.36490933 19.6666667 5.440036 19.6666667 5.515556 19.6666667 5.591076 19.6666667 5.666596 19.6666667 5.74172267 19.6666667 5.81724267 19.6666667 5.89236933 19.6666667 5.967496 19.6666667 6.043016 19.6666667 6.11892933 19.6666667 6.19366267 19.6666667 6.26918267 19.6666667 6.34470267 19.6666667 6.41982933 19.6666667 6.494956 19.6666667 6.57086933 19.6666667 6.645996 19.6666667 6.72112267 19.6666667 6.79664267 19.6666667 6.87176933 19.6666667 6.94728933 19.6666667 7.02280933 19.6666667 7.09832933 19.6666667 7.173456 19.6666667 7.24858267 19.6666667 7.32410267 19.6666667 7.39962267 19.6666667 7.47474933 19.6666667 7.55026933 19.6666667 7.625396 19.6666667 7.700916 19.6666667 7.77604267 19.6666667 7.85156267 19.6666667 7.86690267 15.7333333 7.86690267 15.7333333 7.94202933 15.7333333 8.017156 15.7333333 8.092676 15.7333333 8.168196 15.7333333 8.24332267 15.7333333 8.31884267 15.7333333 8.39436267 15.7333333 8.46948933 15.7333333 8.544616 15.7333333 8.620136 15.7333333 8.695656 15.7333333 8.77078267 15.7333333 8.84630267 15.7333333 8.92142933 15.7333333 8.99694933 15.7333333 9.072076 15.7333333 9.14798933 15.7333333 9.223116 15.7333333 9.29824267 15.7333333 9.37376267 15.7333333 9.44888933 15.7333333 9.52440933 15.7333333 9.59992933 15.7333333 9.675056 15.7333333 9.750576 15.7333333 9.82570267 15.7333333 9.90082933 15.7333333 9.97634933 15.7333333 10.0518693 15.7333333 10.126996 15.7333333 10.202516 15.7333333 10.278036 15.7333333 10.3527693 15.7333333 10.4282893 15.7333333 10.5042027 15.7333333 10.5793293 15.7333333 10.654456 15.7333333 10.729976 15.7333333 10.805496 15.7333333 10.8806227 15.7333333 10.9561427 15.7333333 11.0316627 15.7333333 11.1067893 15.7333333 11.181916 15.7333333 11.257436 15.7333333 11.332956 15.7333333 11.4080827 15.7333333 11.4836027 15.7333333 11.5587293 15.7333333 11.6342493 15.7333333 11.709376 15.7333333 11.7852893 15.7333333 11.800236 11.8 11.800236 11.8 11.7852893 11.8 11.709376 11.8 11.6342493 11.8 11.5587293 11.8 11.4836027 11.8 11.4080827 11.8 11.332956 11.8 11.257436 11.8 11.181916 11.8 11.1067893 11.8 11.0316627 11.8 10.9561427 11.8 10.8806227 11.8 10.805496 11.8 10.729976 11.8 10.654456 11.8 10.5793293 11.8 10.5042027 11.8 10.4282893 11.8 10.3527693 11.8 10.278036 11.8 10.202516 11.8 10.126996 11.8 10.0518693 11.8 9.97634933 11.8 9.90082933 11.8 9.82570267 11.8 9.750576 11.8 9.675056 11.8 9.59992933 11.8 9.52440933 11.8 9.44888933 11.8 9.37376267 11.8 9.29824267 11.8 9.223116 11.8 9.14798933 11.8 9.072076 11.8 8.99694933 11.8 8.92142933 11.8 8.84630267 11.8 8.77078267 11.8 8.695656 11.8 8.620136 11.8 8.544616 11.8 8.46948933 11.8 8.39436267 11.8 8.31884267 11.8 8.24332267 11.8 8.168196 11.8 8.092676 11.8 8.017156 11.8 7.94202933 11.8 7.86690267 3.93333333 7.86690267 3.93333333 7.94202933 3.93333333 8.017156 3.93333333 8.092676 3.93333333 8.168196 3.93333333 8.24332267 3.93333333 8.31884267 3.93333333 8.39436267 3.93333333 8.46948933 3.93333333 8.544616 3.93333333 8.620136 3.93333333 8.695656 3.93333333 8.77078267 3.93333333 8.84630267 3.93333333 8.92142933 3.93333333 8.99694933 3.93333333 9.072076 3.93333333 9.14798933 3.93333333 9.223116 3.93333333 9.29824267 3.93333333 9.37376267 3.93333333 9.44888933 3.93333333 9.52440933 3.93333333 9.59992933 3.93333333 9.675056 3.93333333 9.750576 3.93333333 9.82570267 3.93333333 9.90082933 3.93333333 9.97634933 3.93333333 10.0518693 3.93333333 10.126996 3.93333333 10.202516 3.93333333 10.278036 3.93333333 10.3527693 3.93333333 10.4282893 3.93333333 10.5042027 3.93333333 10.5793293 3.93333333 10.654456 3.93333333 10.729976 3.93333333 10.805496 3.93333333 10.8806227 3.93333333 10.9561427 3.93333333 11.0316627 3.93333333 11.1067893 3.93333333 11.181916 3.93333333 11.257436 3.93333333 11.332956 3.93333333 11.4080827 3.93333333 11.4836027 3.93333333 11.5587293 3.93333333 11.6342493 3.93333333 11.709376 3.93333333 11.7852893 3.93333333 11.800236 0 11.800236 0 11.8753627 0 11.9504893 0 12.0260093 0 12.1015293 0 12.176656 0 12.252176 0 12.327696 0 12.4024293 0 12.4779493 0 12.5534693 0 12.6289893 0 12.704116 0 12.779636 0 12.855156 0 12.9298893 0 13.0054093 0 13.0813227 0 13.1564493 0 13.231576 0 13.307096 0 13.3822227 0 13.4573493 0 13.5332627 0 13.6083893 0 13.6839093 0 13.759036 0 13.8341627 0 13.9096827 0 13.9852027 0 14.0607227 0 14.1358493 0 14.2113693 0 14.286496 0 14.3616227 0 14.437536 0 14.5126627 0 14.5877893 0 14.6633093 0 14.7388293 0 14.813956 0 14.889476 0 14.964996 0 15.0397293 0 15.1152493 0 15.1907693 0 15.2662893 0 15.341416 0 15.416936 0 15.492456 0 15.5671893 0 15.6427093 0 15.7186227 0 15.7937493 0 15.868876 0 15.944396 0 16.0195227 0 16.0946493 0 16.1705627 0 16.2460827 0 16.3212093 0 16.396336 0 16.471856 0 16.5469827 0 16.6225027 0 16.6980227 0 16.7731493 0 16.8486693 0 16.923796 0 16.9989227 0 17.074836 0 17.1499627 0 17.2250893 0 17.3006093 0 17.3761293 0 17.4508627 0 17.526776 0 17.602296 0 17.6774227 0 17.7525493 0 17.8280693 0 17.9035893 0 17.978716 0 18.054236 0 18.129756 0 18.2044893 0 18.2800093 0 18.3555293 0 18.4310493 0 18.506176 0 18.581696 0 18.6568227 0 18.7319493 0 18.8074693 0 18.8833827 0 18.9585093 0 19.033636 0 19.109156 0 19.1842827 0 19.2594093 0 19.3353227 0 19.4104493 0 19.4859693 0 19.561096 0 19.6362227 0 19.7117427 0 19.7872627 0 19.8627827 0 19.9379093 0 20.0134293 0 20.088556 0 20.1636827 0 20.239596 0 20.3147227 0 20.3898493 0 20.4653693 0 20.5408893 0 20.6156227 0 20.691536 0 20.767056 0 20.8417893 0 20.9173093 0 20.9928293 0 21.0683493 0 21.143476 0 21.218996 0 21.294516 0 21.3692493 0 21.4447693 0 21.5206827 0 21.5958093 0 21.670936 0 21.746456 0 21.8215827 0 21.8967093 0 21.9726227 0 22.0477493 0 22.1232693 0 22.198396 0 22.273916 0 22.3490427 0 22.4245627 0 22.5000827 0 22.5752093 0 22.6507293 0 22.725856 0 22.8009827 0 22.876896 0 22.9520227 0 23.0271493 0 23.1026693 0 23.1781893 0 23.2529227 0 23.328836 0 23.404356 0 23.4794827 0 23.5546093 0 23.5998427 0 23.6301293 0 23.6753627 0 23.7056493 0 23.7508827 0 23.780776 0 23.8260093 0 23.856296 0 23.901136 0 23.931816 0 23.9770493 0 24.0065493 0 24.052176 0 24.0820693 0 24.1273027 0 24.1575893 0 24.2028227 0 24.2331093 0 24.2779493 0 24.308236 0 24.3534693 0 24.383756 0 24.4289893 0 24.4588827 0 24.5045093 0 24.5340093 0 24.579636 0 24.6095293 0 24.6547627 0 24.6854427 0 24.7302827 0 24.7605693 0 24.8054093 0 24.835696 0 24.8809293 0 24.911216 0 24.9564493 0 24.9863427 0 25.031576 0 25.0614693 0 25.107096 0 25.1373827 0 25.1822227 0 25.2125093 0 25.2573493 0 25.2880293 0 25.3332627 0 25.363156 0 25.4083893 0 25.4382827 0 25.483516 0 25.5138027 0 25.559036 0 25.5893227 0 25.634556 0 25.6644493 0 25.7092893 0 25.7399693 0 25.7852027 0 25.8154893 0 25.8607227 0 25.890616 0 25.9358493 0 25.9657427 0 26.010976 0 26.041656 0 26.086496 0 26.1167827 0 26.162016 0 26.1919093 0 26.2371427 0 26.2674293 0 26.3126627 0 26.3429493 0 26.3881827 0 26.4176827 0 26.4633093 0 26.493596 0 26.538436 0 26.569116 0 26.6143493 0 26.6438493 0 26.689476 0 26.7193693 0 26.7646027 0 26.7948893 0 26.8401227 0 26.870016 0 26.9152493 0 26.945536 0 26.9907693 0 27.021056 0 27.0662893 0 27.096576 0 27.1418093 0 27.1713093 0 27.216936 0 27.2468293 0 27.2920627 0 27.3223493 0 27.3675827 0 27.3978693 0 27.4427093 0 27.472996 0 27.5182293 0 27.548516 0 27.5937493 0 27.6236427 0 27.668876 0 27.6987693 0 27.744396 0 27.7746827 0 27.8195227 0 27.8498093 0 27.8946493 0 27.9253293 0 27.9705627 0 28.000456 0 28.0456893 0 28.0755827 0 28.1212093 0 28.1511027 0 28.196336 0 28.2266227 0 28.271856 0 28.3021427 0 28.3469827 0 28.3772693 0 28.4225027 0 28.4527893 0 28.4980227 0 28.527916 0 28.5731493 0 28.6030427 0 28.648276 0 28.678956 0 28.723796 0 28.7540827 0 28.799316 0 28.8292093 0 28.8744427 0 28.9047293 0 28.9499627 0 28.9802493 0 29.0254827 0 29.0549827 0 29.1006093 0 29.130896 0 29.175736 0 29.206416 0 29.251256 0 29.2815427 0 29.3271693 0 29.3566693 0 29.4019027 0 29.4321893 0 29.4774227 0 29.5077093 0 29.5529427 0 29.582836 0 29.6280693 0 29.658356 0 29.703196 0 29.733876 0 29.7791093 0 29.8086093 0 29.854236 0 29.8841293 0 29.9293627 0 29.9596493 0 30.0048827 0 30.0351693 0 30.0800093 0 30.110296 0 30.1555293 0 30.185816 0 30.2310493 0 30.2609427 0 30.306176 0 30.3360693 0 30.381696 0 30.4115893 0 30.4568227 0 30.4875027 0 30.5319493 0 30.5626293 0 30.6074693 0 30.637756 0 30.6829893 0 30.713276 0 30.7585093 0 30.7884027 0 30.833636 0 30.8635293 0 30.909156 0 30.9394427 0 30.9842827 0 31.0145693 0 31.0594093 0 31.0900893 0 31.1353227 0 31.165216 0 31.2104493 0 31.2403427 0 31.285576 0 31.3158627 0 31.361096 0 31.3913827 0 31.436616 0 31.4665093 0 31.5113493 0 31.5872627 0 31.6627827 0 31.7379093 0 31.813036 0 31.888556 0 31.964076 0 32.0392027 0 32.1147227 0 32.1902427 0 32.2653693 0 32.340496 0 32.416016 0 32.491536 0 32.5666627 0 32.6421827 0 32.7173093 0 32.7928293 0 32.8683493 0 32.9438693 0 33.018996 0 33.0941227 0 33.1696427 0 33.2447693 0 33.3202893 0 33.3958093 0 33.470936 0 33.546456 0 33.6215827 0 33.6967093 0 33.7726227 0 33.8477493 0 33.922876 0 33.998396 0 34.073916 0 34.1490427 0 34.2245627 0 34.3000827 0 34.3752093 0 34.450336 0 34.525856 0 34.601376 0 34.6765027 0 34.7520227 0 34.8275427 0 34.9026693 0 34.977796 0 35.053316 0 35.1292293 0 35.2039627 0 35.2794827 0 35.3550027 0 35.4301293 0 35.505256 0 35.5811693 0 35.656296 0 35.7314227 0 35.8069427 0 35.8820693 0 35.9575893 0 36.0331093 0 36.108236 0 36.183756 0 36.2588827 0 36.3340093 0 36.4095293 0 36.4850493 0 36.5605693 0 36.635696 0 36.711216 0 36.7863427 0 36.8614693 0 36.9373827 0 37.0125093 0 37.087636 0 37.163156 0 37.238676 0 37.3134093 0 37.3893227 0 37.4648427 0 37.5399693 0 37.615096 0 37.690616 0 37.766136 0 37.8412627 0 37.9167827 0 37.9923027 0 38.0674293 0 38.142556 0 38.218076 0 38.293596 0 38.3687227 0 38.4442427 0 38.5193693 0 38.5948893 0 38.670016 0 38.7459293 0 38.821056 0 38.8961827 0 38.9717027 0 39.0468293 0 39.1223493 0 39.1978693 0 39.272996 0 39.348516 0 39.4236427 0 39.4987693 0 35.400236 0 35.4753627 0 35.5504893 0 35.6260093 0 35.701136 0 35.776656 0 35.852176 0 35.9273027 0 36.0028227 0 36.0779493 0 36.153076 0 36.228596 0 36.3045093 0 36.379636 0 36.4547627 0 36.5302827 0 36.6054093 0 36.680536 0 36.7564493 0 36.8319693 0 36.9067027 0 36.9822227 0 37.0577427 0 37.1328693 0 37.2083893 0 37.2839093 0 37.359036 0 37.4341627 0 37.5096827 0 37.5848093 0 37.6603293 0 37.7358493 0 37.8113693 0 37.886496 0 37.9616227 0 38.0371427 0 38.1126627 0 38.1877893 0 38.2633093 0 38.338436 0 38.413956 0 38.4890827 0 38.5646027 0 38.6401227 0 38.7152493 0 38.790376 0 38.865896 0 38.941416 0 39.016936 0 39.0920627 3.93333333 39.0920627 3.93333333 39.1074027 3.93333333 39.1825293 3.93333333 39.257656 3.93333333 39.3335693 3.93333333 39.408696 3.93333333 39.4838227 3.93333333 39.5593427 3.93333333 39.6344693 3.93333333 39.7099893 3.93333333 39.7855093 3.93333333 39.860636 3.93333333 39.936156 3.93333333 40.0112827 3.93333333 40.0868027 3.93333333 40.1619293 3.93333333 40.2374493 3.93333333 40.3129693 3.93333333 40.388096 3.93333333 40.463616 3.93333333 40.5387427 3.93333333 40.6138693 3.93333333 40.6897827 3.93333333 40.7649093 3.93333333 40.840036 3.93333333 40.915556 3.93333333 40.991076 3.93333333 41.0658093 3.93333333 41.1417227 3.93333333 41.2172427 3.93333333 41.2923693 3.93333333 41.367496 3.93333333 41.443016 3.93333333 41.518536 3.93333333 41.5936627 3.93333333 41.6691827 3.93333333 41.7447027 3.93333333 41.8198293 3.93333333 41.894956 3.93333333 41.970476 3.93333333 42.045996 3.93333333 42.1211227 3.93333333 42.1966427 3.93333333 42.2717693 3.93333333 42.3472893 3.93333333 42.422416 3.93333333 42.4983293 3.93333333 42.573456 3.93333333 42.6485827 3.93333333 42.7241027 3.93333333 42.7992293 3.93333333 42.8747493 3.93333333 42.9502693 3.93333333 43.025396 11.8 43.025396 11.8 42.9502693 11.8 42.8747493 11.8 42.7992293 11.8 42.7241027 11.8 42.6485827 11.8 42.573456 11.8 42.4983293 11.8 42.422416 11.8 42.3472893 11.8 42.2717693 11.8 42.1966427 11.8 42.1211227 11.8 42.045996 11.8 41.970476 11.8 41.894956 11.8 41.8198293 11.8 41.7447027 11.8 41.6691827 11.8 41.5936627 11.8 41.518536 11.8 41.443016 11.8 41.367496 11.8 41.2923693 11.8 41.2172427 11.8 41.1417227 11.8 41.0658093 11.8 40.991076 11.8 40.915556 11.8 40.840036 11.8 40.7649093 11.8 40.6897827 11.8 40.6138693 11.8 40.5387427 11.8 40.463616 11.8 40.388096 11.8 40.3129693 11.8 40.2374493 11.8 40.1619293 11.8 40.0868027 11.8 40.0112827 11.8 39.936156 11.8 39.860636 11.8 39.7855093 11.8 39.7099893 11.8 39.6344693 11.8 39.5593427 11.8 39.4838227 11.8 39.408696 11.8 39.3335693 11.8 39.257656 11.8 39.1825293 11.8 39.1074027 11.8 39.0920627 15.7333333 39.0920627 15.7333333 39.016936 15.7333333 38.941416 15.7333333 38.865896 15.7333333 38.790376 15.7333333 38.7152493 15.7333333 38.6401227 15.7333333 38.5646027 15.7333333 38.4890827 15.7333333 38.413956 15.7333333 38.338436 15.7333333 38.2633093 15.7333333 38.1877893 15.7333333 38.1126627 15.7333333 38.0371427 15.7333333 37.9616227 15.7333333 37.886496 15.7333333 37.8113693 15.7333333 37.7358493 15.7333333 37.6603293 15.7333333 37.5848093 15.7333333 37.5096827 15.7333333 37.4341627 15.7333333 37.359036 15.7333333 37.2839093 15.7333333 37.2083893 15.7333333 37.1328693 15.7333333 37.0577427 15.7333333 36.9822227 15.7333333 36.9067027 15.7333333 36.8319693 15.7333333 36.7564493 15.7333333 36.680536 15.7333333 36.6054093 15.7333333 36.5302827 15.7333333 36.4547627 15.7333333 36.379636 15.7333333 36.3045093 15.7333333 36.228596 15.7333333 36.153076 15.7333333 36.0779493 15.7333333 36.0028227 15.7333333 35.9273027 15.7333333 35.852176 15.7333333 35.776656 15.7333333 35.701136 15.7333333 35.6260093 15.7333333 35.5504893 15.7333333 35.4753627 15.7333333 35.400236 15.7333333 39.1074027 15.7333333 39.0468293 15.7333333 39.0318827 15.7333333 38.9717027 15.7333333 38.9563627 15.7333333 38.8961827 15.7333333 38.8816293 15.7333333 38.821056 15.7333333 38.8061093 15.7333333 38.7459293 15.7333333 38.730196 15.7333333 38.670016 15.7333333 38.6550693 15.7333333 38.5948893 15.7333333 38.5799427 15.7333333 38.5193693 15.7333333 38.5044227 15.7333333 38.4442427 15.7333333 38.4289027 15.7333333 38.3687227 15.7333333 38.3541693 15.7333333 38.293596 15.7333333 38.278256 15.7333333 38.218076 15.7333333 38.202736 15.7333333 38.142556 15.7333333 38.1276093 15.7333333 38.0674293 15.7333333 38.0524827 15.7333333 37.9923027 15.7333333 37.9769627 15.7333333 37.9167827 15.7333333 37.901836 15.7333333 37.8412627 15.7333333 37.826316 15.7333333 37.766136 15.7333333 37.750796 15.7333333 37.690616 15.7333333 37.6756693 15.7333333 37.615096 15.7333333 37.6001493 15.7333333 37.5399693 15.7333333 37.5250227 15.7333333 37.4648427 15.7333333 37.449896 15.7333333 37.3893227 15.7333333 37.3739827 15.7333333 37.3134093 15.7333333 37.298856 15.7333333 37.238676 15.7333333 37.223336 15.7333333 37.163156 15.7333333 37.1482093 15.7333333 37.087636 15.7333333 37.0726893 15.7333333 37.0125093 15.7333333 36.9975627 15.7333333 36.9373827 15.7333333 36.9220427 15.7333333 36.8614693 15.7333333 36.8465227 15.7333333 36.7863427 15.7333333 36.771396 15.7333333 36.711216 15.7333333 36.6962693 15.7333333 36.635696 15.7333333 36.6207493 15.7333333 36.5605693 15.7333333 36.5452293 15.7333333 36.4850493 15.7333333 36.4701027 15.7333333 36.4095293 15.7333333 36.3945827 15.7333333 36.3340093 15.7333333 36.3190627 15.7333333 36.2588827 15.7333333 36.243936 15.7333333 36.183756 15.7333333 36.1688093 15.7333333 36.108236 15.7333333 36.0932893 15.7333333 36.0331093 15.7333333 36.0177693 15.7333333 35.9575893 15.7333333 35.9426427 15.7333333 35.8820693 15.7333333 35.8671227 15.7333333 35.8069427 15.7333333 35.7916027 15.7333333 35.7314227 15.7333333 35.7168693 15.7333333 35.656296 15.7333333 35.6413493 15.7333333 35.5811693 15.7333333 35.565436 15.7333333 35.505256 15.7333333 35.4903093 15.7333333 35.4301293 15.7333333 35.4151827 15.7333333 35.400236 15.7333333 35.3550027 15.7333333 35.3396627 15.7333333 35.324716 15.7333333 35.2794827 15.7333333 35.264536 15.7333333 35.249196 15.7333333 35.2039627 15.7333333 35.189016 15.7333333 35.173676 15.7333333 35.1292293 15.7333333 35.113496 15.7333333 35.0985493 15.7333333 35.053316 15.7333333 35.037976 15.7333333 35.0230293 15.7333333 34.977796 15.7333333 34.9628493 15.7333333 34.9479027 15.7333333 34.9026693 15.7333333 34.8877227 15.7333333 34.872776 15.7333333 34.8275427 15.7333333 34.8122027 15.7333333 34.7968627 15.7333333 34.7520227 15.7333333 34.7366827 15.7333333 34.721736 15.7333333 34.6765027 15.7333333 34.661556 15.7333333 34.6466093 15.7333333 34.601376 15.7333333 34.586036 15.7333333 34.5710893 15.7333333 34.525856 15.7333333 34.5109093 15.7333333 34.4955693 15.7333333 34.450336 15.7333333 34.4353893 15.7333333 34.420836 15.7333333 34.3752093 15.7333333 34.3602627 15.7333333 34.3449227 15.7333333 34.3000827 15.7333333 34.2847427 15.7333333 34.2694027 15.7333333 34.2245627 15.7333333 34.2092227 15.7333333 34.1946693 15.7333333 34.1490427 15.7333333 34.134096 15.7333333 34.1191493 15.7333333 34.073916 15.7333333 34.0589693 15.7333333 34.0436293 15.7333333 33.998396 15.7333333 33.9834493 15.7333333 33.9685027 15.7333333 33.922876 15.7333333 33.9079293 15.7333333 33.8929827 15.7333333 33.8477493 15.7333333 33.8324093 15.7333333 33.8174627 15.7333333 33.7726227 15.7333333 33.7572827 15.7333333 33.7419427 15.7333333 33.6967093 15.7333333 33.6817627 15.7333333 33.6672093 15.7333333 33.6215827 15.7333333 33.606636 15.7333333 33.5916893 15.7333333 33.546456 15.7333333 33.5315093 15.7333333 33.5161693 15.7333333 33.470936 15.7333333 33.4559893 15.7333333 33.4406493 15.7333333 33.3958093 15.7333333 33.3804693 15.7333333 33.3655227 15.7333333 33.3202893 15.7333333 33.3053427 15.7333333 33.2900027 15.7333333 33.2447693 15.7333333 33.2298227 15.7333333 33.214876 15.7333333 33.1696427 15.7333333 33.1543027 15.7333333 33.1397493 15.7333333 33.0941227 15.7333333 33.0795693 15.7333333 33.0642293 15.7333333 33.018996 15.7333333 33.0040493 15.7333333 32.9887093 15.7333333 32.9438693 15.7333333 32.928136 15.7333333 32.9131893 15.7333333 32.8683493 15.7333333 32.8530093 15.7333333 32.8380627 15.7333333 32.7928293 15.7333333 32.7778827 15.7333333 32.7625427 15.7333333 32.7173093 15.7333333 32.7023627 15.7333333 32.687416 15.7333333 32.6421827 15.7333333 32.6268427 15.7333333 32.6122893 15.7333333 32.5666627 15.7333333 32.5521093 15.7333333 32.536376 15.7333333 32.491536 15.7333333 32.476196 15.7333333 32.4612493 15.7333333 32.416016 15.7333333 32.400676 15.7333333 32.3857293 15.7333333 32.340496 15.7333333 32.3255493 15.7333333 32.3106027 15.7333333 32.2653693 15.7333333 32.2504227 15.7333333 32.235476 15.7333333 32.1902427 15.7333333 32.1749027 15.7333333 32.159956 15.7333333 32.1147227 15.7333333 32.099776 15.7333333 32.084436 15.7333333 32.0392027 15.7333333 32.024256 15.7333333 32.0093093 15.7333333 31.964076 15.7333333 31.948736 15.7333333 31.9337893 15.7333333 31.888556 15.7333333 31.8736093 15.7333333 31.8582693 15.7333333 31.813036 15.7333333 31.7980893 15.7333333 31.783536 15.7333333 31.7379093 15.7333333 31.7229627 15.7333333 31.708016 15.7333333 31.6627827 15.7333333 31.647836 15.7333333 31.6321027 15.7333333 31.5872627 15.7333333 31.5719227 15.7333333 31.556976 15.7333333 31.5113493 15.7333333 31.496796 15.7333333 31.4818493 15.7333333 31.4665093 19.6666667 31.4665093 19.6666667 31.5113493 19.6666667 31.5872627 19.6666667 31.6627827 19.6666667 31.7379093 19.6666667 31.813036 19.6666667 31.888556 19.6666667 31.964076 19.6666667 32.0392027 19.6666667 32.1147227 19.6666667 32.1902427 19.6666667 32.2653693 19.6666667 32.340496 19.6666667 32.416016 19.6666667 32.491536 19.6666667 32.5666627 19.6666667 32.6421827 19.6666667 32.7173093 19.6666667 32.7928293 19.6666667 32.8683493 19.6666667 32.9438693 19.6666667 33.018996 19.6666667 33.0941227 19.6666667 33.1696427 19.6666667 33.2447693 19.6666667 33.3202893 19.6666667 33.3958093 19.6666667 33.470936 19.6666667 33.546456 19.6666667 33.6215827 19.6666667 33.6967093 19.6666667 33.7726227 19.6666667 33.8477493 19.6666667 33.922876 19.6666667 33.998396 19.6666667 34.073916 19.6666667 34.1490427 19.6666667 34.2245627 19.6666667 34.3000827 19.6666667 34.3752093 19.6666667 34.450336 19.6666667 34.525856 19.6666667 34.601376 19.6666667 34.6765027 19.6666667 34.7520227 19.6666667 34.8275427 19.6666667 34.9026693 19.6666667 34.977796 19.6666667 35.053316 19.6666667 35.1292293 19.6666667 35.2039627 19.6666667 35.2794827 19.6666667 35.3550027 19.6666667 35.4301293 19.6666667 35.505256 19.6666667 35.5811693 19.6666667 35.656296 19.6666667 35.7314227 19.6666667 35.8069427 19.6666667 35.8820693 19.6666667 35.9575893 19.6666667 36.0331093 19.6666667 36.108236 19.6666667 36.183756 19.6666667 36.2588827 19.6666667 36.3340093 19.6666667 36.4095293 19.6666667 36.4850493 19.6666667 36.5605693 19.6666667 36.635696 19.6666667 36.711216 19.6666667 36.7863427 19.6666667 36.8614693 19.6666667 36.9373827 19.6666667 37.0125093 19.6666667 37.087636 19.6666667 37.163156 19.6666667 37.238676 19.6666667 37.3134093 19.6666667 37.3893227 19.6666667 37.4648427 19.6666667 37.5399693 19.6666667 37.615096 19.6666667 37.690616 19.6666667 37.766136 19.6666667 37.8412627 19.6666667 37.9167827 19.6666667 37.9923027 19.6666667 38.0674293 19.6666667 38.142556 19.6666667 38.218076 19.6666667 38.293596 19.6666667 38.3687227 19.6666667 38.4442427 19.6666667 38.5193693 19.6666667 38.5948893 19.6666667 38.670016 19.6666667 38.7459293 19.6666667 38.821056 19.6666667 38.8961827 19.6666667 38.9717027 19.6666667 39.0468293 19.6666667 39.1223493 19.6666667 39.1978693 19.6666667 39.272996 19.6666667 39.348516 19.6666667 39.4236427 19.6666667 39.4987693 19.6666667 35.400236 19.6666667 35.4753627 19.6666667 35.5504893 19.6666667 35.6260093 19.6666667 35.701136 19.6666667 35.776656 19.6666667 35.852176 19.6666667 35.9273027 19.6666667 36.0028227 19.6666667 36.0779493 19.6666667 36.153076 19.6666667 36.228596 19.6666667 36.3045093 19.6666667 36.379636 19.6666667 36.4547627 19.6666667 36.5302827 19.6666667 36.6054093 19.6666667 36.680536 19.6666667 36.7564493 19.6666667 36.8319693 19.6666667 36.9067027 19.6666667 36.9822227 19.6666667 37.0577427 19.6666667 37.1328693 19.6666667 37.2083893 19.6666667 37.2839093 19.6666667 37.359036 19.6666667 37.4341627 19.6666667 37.5096827 19.6666667 37.5848093 19.6666667 37.6603293 19.6666667 37.7358493 19.6666667 37.8113693 19.6666667 37.886496 19.6666667 37.9616227 19.6666667 38.0371427 19.6666667 38.1126627 19.6666667 38.1877893 19.6666667 38.2633093 19.6666667 38.338436 19.6666667 38.413956 19.6666667 38.4890827 19.6666667 38.5646027 19.6666667 38.6401227 19.6666667 38.7152493 19.6666667 38.790376 19.6666667 38.865896 19.6666667 38.941416 19.6666667 39.016936 19.6666667 39.0920627 23.6 39.0920627 23.6 39.1074027 23.6 39.1825293 23.6 39.257656 23.6 39.3335693 23.6 39.408696 23.6 39.4838227 23.6 39.5593427 23.6 39.6344693 23.6 39.7099893 23.6 39.7855093 23.6 39.860636 23.6 39.936156 23.6 40.0112827 23.6 40.0868027 23.6 40.1619293 23.6 40.2374493 23.6 40.3129693 23.6 40.388096 23.6 40.463616 23.6 40.5387427 23.6 40.6138693 23.6 40.6897827 23.6 40.7649093 23.6 40.840036 23.6 40.915556 23.6 40.991076 23.6 41.0658093 23.6 41.1417227 23.6 41.2172427 23.6 41.2923693 23.6 41.367496 23.6 41.443016 23.6 41.518536 23.6 41.5936627 23.6 41.6691827 23.6 41.7447027 23.6 41.8198293 23.6 41.894956 23.6 41.970476 23.6 42.045996 23.6 42.1211227 23.6 42.1966427 23.6 42.2717693 23.6 42.3472893 23.6 42.422416 23.6 42.4983293 23.6 42.573456 23.6 42.6485827 23.6 42.7241027 23.6 42.7992293 23.6 42.8747493 23.6 42.9502693 23.6 43.025396 27.5333333 43.025396 27.5333333 42.9502693 27.5333333 42.8747493 27.5333333 42.7992293 27.5333333 42.7241027 27.5333333 42.6485827 27.5333333 42.573456 27.5333333 42.4983293 27.5333333 42.422416 27.5333333 42.3472893 27.5333333 42.2717693 27.5333333 42.1966427 27.5333333 42.1211227 27.5333333 42.045996 27.5333333 41.970476 27.5333333 41.894956 27.5333333 41.8198293 27.5333333 41.7447027 27.5333333 41.6691827 27.5333333 41.5936627 27.5333333 41.518536 27.5333333 41.443016 27.5333333 41.367496 27.5333333 41.2923693 27.5333333 41.2172427 27.5333333 41.1417227 27.5333333 41.0658093 27.5333333 40.991076 27.5333333 40.915556 27.5333333 40.840036 27.5333333 40.7649093 27.5333333 40.6897827 27.5333333 40.6138693 27.5333333 40.5387427 27.5333333 40.463616 27.5333333 40.388096 27.5333333 40.3129693 27.5333333 40.2374493 27.5333333 40.1619293 27.5333333 40.0868027 27.5333333 40.0112827 27.5333333 39.936156 27.5333333 39.860636 27.5333333 39.7855093 27.5333333 39.7099893 27.5333333 39.6344693 27.5333333 39.5593427 27.5333333 39.4838227 27.5333333 39.408696 27.5333333 39.3335693 27.5333333 39.257656 27.5333333 39.1825293 27.5333333 39.1074027 27.5333333 39.0920627 27.5333333 39.0318827 27.5333333 39.016936 27.5333333 38.9563627 27.5333333 38.941416 27.5333333 38.8808427 27.5333333 38.865896 27.5333333 38.805716 27.5333333 38.790376 27.5333333 38.730196 27.5333333 38.7152493 27.5333333 38.6550693 27.5333333 38.6401227 27.5333333 38.5799427 27.5333333 38.5646027 27.5333333 38.5044227 27.5333333 38.4890827 27.5333333 38.4285093 27.5333333 38.413956 27.5333333 38.353776 27.5333333 38.338436 27.5333333 38.278256 27.5333333 38.2633093 27.5333333 38.202736 27.5333333 38.1877893 27.5333333 38.1276093 27.5333333 38.1126627 27.5333333 38.0524827 27.5333333 38.0371427 27.5333333 37.9765693 27.5333333 37.9616227 27.5333333 37.9014427 27.5333333 37.886496 27.5333333 37.826316 27.5333333 37.8113693 27.5333333 37.750796 27.5333333 37.7358493 27.5333333 37.6756693 27.5333333 37.6603293 27.5333333 37.6001493 27.5333333 37.5848093 27.5333333 37.5246293 27.5333333 37.5096827 27.5333333 37.4491093 27.5333333 37.4341627 27.5333333 37.3739827 27.5333333 37.359036 27.5333333 37.298856 27.5333333 37.2839093 27.5333333 37.223336 27.5333333 37.2083893 27.5333333 37.1482093 27.5333333 37.1328693 27.5333333 37.0726893 27.5333333 37.0577427 27.5333333 36.9971693 27.5333333 36.9822227 27.5333333 36.9220427 27.5333333 36.9067027 27.5333333 36.8465227 27.5333333 36.8319693 27.5333333 36.771396 27.5333333 36.7564493 27.5333333 36.6962693 27.5333333 36.680536 27.5333333 36.620356 27.5333333 36.6054093 27.5333333 36.5452293 27.5333333 36.5302827 27.5333333 36.4701027 27.5333333 36.4547627 27.5333333 36.3945827 27.5333333 36.379636 27.5333333 36.3190627 27.5333333 36.3045093 27.5333333 36.243936 27.5333333 36.228596 27.5333333 36.168416 27.5333333 36.153076 27.5333333 36.092896 27.5333333 36.0779493 27.5333333 36.0177693 27.5333333 36.0028227 27.5333333 35.9426427 27.5333333 35.9273027 27.5333333 35.8671227 27.5333333 35.852176 27.5333333 35.7916027 27.5333333 35.776656 27.5333333 35.716476 27.5333333 35.701136 27.5333333 35.640956 27.5333333 35.6260093 27.5333333 35.565436 27.5333333 35.5504893 27.5333333 35.4903093 27.5333333 35.4753627 27.5333333 35.4151827 27.5333333 35.400236 27.5333333 39.5145027 27.5333333 39.4987693 27.5333333 39.4385893 27.5333333 39.4236427 27.5333333 39.3630693 27.5333333 39.348516 27.5333333 39.288336 27.5333333 39.272996 27.5333333 39.212816 27.5333333 39.1978693 27.5333333 39.137296 27.5333333 39.1223493 27.5333333 39.0621693 27.5333333 39.0468293 27.5333333 38.9866493 27.5333333 38.9717027 27.5333333 38.9111293 27.5333333 38.8961827 27.5333333 38.8360027 27.5333333 38.821056 27.5333333 38.760876 27.5333333 38.7459293 27.5333333 38.685356 27.5333333 38.670016 27.5333333 38.6102293 27.5333333 38.5948893 27.5333333 38.5347093 27.5333333 38.5193693 27.5333333 38.4591893 27.5333333 38.4442427 27.5333333 38.3836693 27.5333333 38.3687227 27.5333333 38.3085427 27.5333333 38.293596 27.5333333 38.233416 27.5333333 38.218076 27.5333333 38.157896 27.5333333 38.142556 27.5333333 38.082376 27.5333333 38.0674293 27.5333333 38.0072493 27.5333333 37.9923027 27.5333333 37.9317293 27.5333333 37.9167827 27.5333333 37.8566027 27.5333333 37.8412627 27.5333333 37.7810827 27.5333333 37.766136 27.5333333 37.705956 27.5333333 37.690616 27.5333333 37.6300427 27.5333333 37.615096 27.5333333 37.554916 27.5333333 37.5399693 27.5333333 37.4797893 27.5333333 37.4648427 27.5333333 37.4042693 27.5333333 37.3893227 27.5333333 37.3291427 27.5333333 37.3134093 27.5333333 37.2536227 27.5333333 37.238676 27.5333333 37.1781027 27.5333333 37.163156 27.5333333 37.102976 27.5333333 37.087636 27.5333333 37.027456 27.5333333 37.0125093 27.5333333 36.9523293 27.5333333 36.9373827 27.5333333 36.8772027 27.5333333 36.8614693 27.5333333 36.8016827 27.5333333 36.7863427 27.5333333 36.7257693 27.5333333 36.711216 27.5333333 36.651036 27.5333333 36.635696 27.5333333 36.575516 27.5333333 36.5605693 27.5333333 36.499996 27.5333333 36.4850493 27.5333333 36.4248693 27.5333333 36.4095293 27.5333333 36.3493493 27.5333333 36.3340093 27.5333333 36.2738293 27.5333333 36.2588827 27.5333333 36.1983093 27.5333333 36.183756 27.5333333 36.123576 27.5333333 36.108236 27.5333333 36.048056 27.5333333 36.0331093 27.5333333 35.972536 27.5333333 35.9575893 27.5333333 35.8974093 27.5333333 35.8820693 27.5333333 35.8218893 27.5333333 35.8069427 27.5333333 35.7463693 27.5333333 35.7314227 27.5333333 35.6712427 27.5333333 35.656296 27.5333333 35.596116 27.5333333 35.5811693 27.5333333 35.520596 27.5333333 35.505256 27.5333333 35.445076 27.5333333 35.4301293 27.5333333 35.3699493 27.5333333 35.3550027 27.5333333 35.2944293 27.5333333 35.2794827 27.5333333 35.2193027 27.5333333 35.2039627 27.5333333 35.1437827 27.5333333 35.1292293 27.5333333 35.068656 27.5333333 35.053316 27.5333333 34.9927427 27.5333333 34.977796 27.5333333 34.917616 27.5333333 34.9026693 27.5333333 34.8424893 27.5333333 34.8275427 27.5333333 34.7669693 27.5333333 34.7520227 27.5333333 34.6918427 27.5333333 34.6765027 27.5333333 34.6163227 27.5333333 34.601376 27.5333333 34.5408027 27.5333333 34.525856 27.5333333 34.465676 27.5333333 34.450336 27.5333333 34.390156 27.5333333 34.3752093 27.5333333 34.3150293 27.5333333 34.3000827 27.5333333 34.2399027 27.5333333 34.2245627 27.5333333 34.1643827 27.5333333 34.1490427 27.5333333 34.0884693 27.5333333 34.073916 27.5333333 34.0133427 27.5333333 33.998396 27.5333333 33.938216 27.5333333 33.922876 27.5333333 33.862696 27.5333333 33.8477493 27.5333333 33.7875693 27.5333333 33.7726227 27.5333333 33.7124427 27.5333333 33.6967093 27.5333333 33.6365293 27.5333333 33.6215827 27.5333333 33.5610093 27.5333333 33.546456 27.5333333 33.486276 27.5333333 33.470936 27.5333333 33.410756 27.5333333 33.3958093 27.5333333 37.2685693 27.5333333 37.2536227 27.5333333 37.1934427 27.5333333 37.1781027 27.5333333 37.1179227 27.5333333 37.102976 27.5333333 37.0424027 27.5333333 37.027456 27.5333333 36.967276 27.5333333 36.9523293 27.5333333 36.8921493 27.5333333 36.8772027 27.5333333 36.8166293 27.5333333 36.8016827 27.5333333 36.7415027 27.5333333 36.7257693 27.5333333 36.6655893 27.5333333 36.651036 27.5333333 36.5904627 27.5333333 36.575516 27.5333333 36.515336 27.5333333 36.499996 27.5333333 36.439816 27.5333333 36.4248693 27.5333333 36.3646893 27.5333333 36.3493493 27.5333333 36.2895627 27.5333333 36.2738293 27.5333333 36.2136493 27.5333333 36.1983093 27.5333333 36.1381293 27.5333333 36.123576 27.5333333 36.0630027 27.5333333 36.048056 27.5333333 35.987876 27.5333333 35.972536 27.5333333 35.912356 27.5333333 35.8974093 27.5333333 35.8372293 27.5333333 35.8218893 27.5333333 35.7617093 27.5333333 35.7463693 27.5333333 35.6861893 27.5333333 35.6712427 27.5333333 35.6106693 27.5333333 35.596116 27.5333333 35.535936 27.5333333 35.520596 27.5333333 35.460416 27.5333333 35.445076 27.5333333 35.400236 31.4666667 35.400236 31.4666667 35.445076 31.4666667 35.520596 31.4666667 35.596116 31.4666667 35.6712427 31.4666667 35.7463693 31.4666667 35.8218893 31.4666667 35.8974093 31.4666667 35.972536 31.4666667 36.048056 31.4666667 36.123576 31.4666667 36.1983093 31.4666667 36.2738293 31.4666667 36.3493493 31.4666667 36.4248693 31.4666667 36.499996 31.4666667 36.575516 31.4666667 36.651036 31.4666667 36.7257693 31.4666667 36.8016827 31.4666667 36.8772027 31.4666667 36.9523293 31.4666667 37.027456 31.4666667 37.102976 31.4666667 37.1781027 31.4666667 37.2536227 31.4666667 37.3291427 31.4666667 37.4042693 31.4666667 37.4797893 31.4666667 37.554916 31.4666667 33.6967093 31.4666667 33.7726227 31.4666667 33.8477493 31.4666667 33.922876 31.4666667 33.998396 31.4666667 34.073916 31.4666667 34.1490427 31.4666667 34.2245627 31.4666667 34.3000827 31.4666667 34.3752093 31.4666667 34.450336 31.4666667 34.525856 31.4666667 34.601376 31.4666667 34.6765027 31.4666667 34.7520227 31.4666667 34.8275427 31.4666667 34.9026693 31.4666667 34.977796 31.4666667 35.053316 31.4666667 35.1292293 31.4666667 35.2039627 31.4666667 35.2794827 31.4666667 35.3550027 31.4666667 35.4301293 31.4666667 35.505256 31.4666667 35.5811693 31.4666667 35.656296 31.4666667 35.7314227 31.4666667 35.8069427 31.4666667 35.8820693 31.4666667 35.9575893 31.4666667 36.0331093 31.4666667 36.108236 31.4666667 36.183756 31.4666667 36.2588827 31.4666667 36.3340093 31.4666667 36.4095293 31.4666667 36.4850493 31.4666667 36.5605693 31.4666667 36.635696 31.4666667 36.711216 31.4666667 36.7863427 31.4666667 36.8614693 31.4666667 36.9373827 31.4666667 37.0125093 31.4666667 37.087636 31.4666667 37.163156 31.4666667 37.238676 31.4666667 37.3134093 31.4666667 37.3893227 31.4666667 37.4648427 31.4666667 37.5399693 31.4666667 37.615096 31.4666667 37.690616 31.4666667 37.766136 31.4666667 37.8412627 31.4666667 37.9167827 31.4666667 37.9923027 31.4666667 38.0674293 31.4666667 38.142556 31.4666667 38.218076 31.4666667 38.293596 31.4666667 38.3687227 31.4666667 38.4442427 31.4666667 38.5193693 31.4666667 38.5948893 31.4666667 38.670016 31.4666667 38.7459293 31.4666667 38.821056 31.4666667 38.8961827 31.4666667 38.9717027 31.4666667 39.0468293 31.4666667 39.1223493 31.4666667 39.1978693 31.4666667 39.272996 31.4666667 39.348516 31.4666667 39.4236427 31.4666667 39.4987693 31.4666667 35.400236 31.4666667 35.4753627 31.4666667 35.5504893 31.4666667 35.6260093 31.4666667 35.701136 31.4666667 35.776656 31.4666667 35.852176 31.4666667 35.9273027 31.4666667 36.0028227 31.4666667 36.0779493 31.4666667 36.153076 31.4666667 36.228596 31.4666667 36.3045093 31.4666667 36.379636 31.4666667 36.4547627 31.4666667 36.5302827 31.4666667 36.6054093 31.4666667 36.680536 31.4666667 36.7564493 31.4666667 36.8319693 31.4666667 36.9067027 31.4666667 36.9822227 31.4666667 37.0577427 31.4666667 37.1328693 31.4666667 37.2083893 31.4666667 37.2839093 31.4666667 37.359036 31.4666667 37.4341627 31.4666667 37.5096827 31.4666667 37.5848093 31.4666667 37.6603293 31.4666667 37.7358493 31.4666667 37.8113693 31.4666667 37.886496 31.4666667 37.9616227 31.4666667 38.0371427 31.4666667 38.1126627 31.4666667 38.1877893 31.4666667 38.2633093 31.4666667 38.338436 31.4666667 38.413956 31.4666667 38.4890827 31.4666667 38.5646027 31.4666667 38.6401227 31.4666667 38.7152493 31.4666667 38.790376 31.4666667 38.865896 31.4666667 38.941416 31.4666667 39.016936 31.4666667 39.0920627 35.4 39.0920627 35.4 39.1074027 35.4 39.1825293 35.4 39.257656 35.4 39.3335693 35.4 39.408696 35.4 39.4838227 35.4 39.5593427 35.4 39.6344693 35.4 39.7099893 35.4 39.7855093 35.4 39.860636 35.4 39.936156 35.4 40.0112827 35.4 40.0868027 35.4 40.1619293 35.4 40.2374493 35.4 40.3129693 35.4 40.388096 35.4 40.463616 35.4 40.5387427 35.4 40.6138693 35.4 40.6897827 35.4 40.7649093 35.4 40.840036 35.4 40.915556 35.4 40.991076 35.4 41.0658093 35.4 41.1417227 35.4 41.2172427 35.4 41.2923693 35.4 41.367496 35.4 41.443016 35.4 41.518536 35.4 41.5936627 35.4 41.6691827 35.4 41.7447027 35.4 41.8198293 35.4 41.894956 35.4 41.970476 35.4 42.045996 35.4 42.1211227 35.4 42.1966427 35.4 42.2717693 35.4 42.3472893 35.4 42.422416 35.4 42.4983293 35.4 42.573456 35.4 42.6485827 35.4 42.7241027 35.4 42.7992293 35.4 42.8747493 35.4 42.9502693 35.4 43.025396 39.3333333 43.025396 39.3333333 0.000236"></polygon>
                    <polygon id="Fill-2" fill="#FDB50F" points="0 23.6 3.93333333 23.6 3.93333333 11.8 0 11.8"></polygon>
                    <polygon id="Fill-3" fill="#FDB50F" points="3.93333333 11.8 11.8 11.8 11.8 7.86666667 3.93333333 7.86666667"></polygon>
                    <polygon id="Fill-4" fill="#FDB50F" points="3.93333333 27.5333333 11.8 27.5333333 11.8 23.6 3.93333333 23.6"></polygon>
                    <polygon id="Fill-5" fill="#FDB50F" points="11.8 15.7333333 15.7333333 15.7333333 15.7333333 11.8 11.8 11.8"></polygon>
                    <polygon id="Fill-6" fill="#FDB50F" points="19.6666667 23.6 23.6 23.6 23.6 3.93333333 19.6666667 3.93333333"></polygon>
                    <polygon id="Fill-7" fill="#FDB50F" points="31.4666667 23.6 35.4 23.6 35.4 3.93333333 31.4666667 3.93333333"></polygon>
                    <polygon id="Fill-8" fill="#FDB50F" points="15.7333333 11.8 27.5333333 11.8 27.5333333 7.86666667 15.7333333 7.86666667"></polygon>
                    <polygon id="Fill-9" fill="#FDB50F" points="27.5333333 11.8 39.3333333 11.8 39.3333333 7.86666667 27.5333333 7.86666667"></polygon>
                    <polygon id="Fill-10" fill="#FDB50F" points="11.8 23.6 15.7333333 23.6 15.7333333 19.6666667 11.8 19.6666667"></polygon>
                    <polygon id="Fill-11" fill="#FDB50F" points="23.6 27.5333333 27.5333333 27.5333333 27.5333333 23.6 23.6 23.6"></polygon>
                    <polygon id="Fill-12" fill="#FDB50F" points="35.4 27.5333333 39.3333333 27.5333333 39.3333333 23.6 35.4 23.6"></polygon>
                    <polygon id="Fill-13" fill="#FDB50F" points="35.4 3.93372667 39.3333333 3.93372667 39.3333333 0.000393333333 35.4 0.000393333333"></polygon>
                    <polygon id="Fill-14" fill="#F35916" points="0 51.1333333 3.93333333 51.1333333 3.93333333 43.2666667 0 43.2666667"></polygon>
                    <polygon id="Fill-15" fill="#F35916" points="19.6666667 47.2 23.6 47.2 23.6 35.4 19.6666667 35.4"></polygon>
                    <polygon id="Fill-16" fill="#F35916" points="11.8 51.1333333 15.7333333 51.1333333 15.7333333 47.2 11.8 47.2"></polygon>
                    <polygon id="Fill-17" fill="#F35916" points="7.86666667 55.0666667 11.8 55.0666667 11.8 51.1333333 7.86666667 51.1333333"></polygon>
                    <polygon id="Fill-18" fill="#F35916" points="27.5333333 51.1333333 31.4666667 51.1333333 31.4666667 47.2 27.5333333 47.2"></polygon>
                    <polygon id="Fill-19" fill="#F35916" points="35.4 51.1333333 39.3333333 51.1333333 39.3333333 47.2 35.4 47.2"></polygon>
                    <polygon id="Fill-20" fill="#F35916" points="19.6666667 55.0666667 23.6 55.0666667 23.6 51.1333333 19.6666667 51.1333333"></polygon>
                    <polygon id="Fill-21" fill="#F35916" points="0 59 3.93333333 59 3.93333333 55.0666667 0 55.0666667"></polygon>
                    <polygon id="Fill-22" fill="#F35916" points="35.4 59 39.3333333 59 39.3333333 55.0666667 35.4 55.0666667"></polygon>
                    <polygon id="Fill-23" fill="#F35916" points="31.4666667 47.2 35.4 47.2 35.4 43.2666667 31.4666667 43.2666667"></polygon>
                </g>
            </g>
        </g>
    </g>
</svg>