<?xml version="1.0" encoding="UTF-8"?>
<svg width="477px" height="300px" viewBox="0 0 477 300" version="1.1" xmlns="http://www.w3.org/2000/svg" xmlns:xlink="http://www.w3.org/1999/xlink">
    <!-- Generator: Sketch 63.1 (92452) - https://sketch.com -->
    <title>FAQ page</title>
    <desc>Created with Sketch.</desc>
    <g id="Launch" stroke="none" stroke-width="1" fill="none" fill-rule="evenodd">
        <g id="FAQs" transform="translate(-430.000000, -220.000000)">
            <g id="FAQ-page" transform="translate(430.000000, 220.000000)">
                <path d="M427.201071,26.0925 L427.074881,32.4425 L418.803452,27.8877381 L410.403452,29.6936905 L410.14869,42.3972619 L393.605833,33.2853571 L385.205833,35.0925 L385.079643,41.4436905 L376.808214,36.8877381 L351.611786,42.2960714 L351.439167,50.869881 L359.710595,55.4258333 L359.149881,83.3579762 L382.942738,96.4627381 L382.942738,96.4639286 L391.341548,94.6567857 L391.59631,81.9413095 L408.139167,91.0544048 L416.537976,89.2591667 L416.793929,76.5436905 L433.335595,85.6567857 L441.735595,83.8603571 L441.862976,77.4984524 L450.134405,82.0544048 L475.330833,76.6567857 L475.503452,68.0829762 L464.3475,61.9377381 L475.674881,59.5091667 L475.8475,50.9341667 L464.691548,44.7913095 L476.018929,42.3627381 L476.190357,33.8413095 L476.190357,33.7877381 L452.39869,20.6829762 L427.201071,26.0925 Z M408.782024,58.9805952 L408.782024,58.9817857 L408.430833,76.5746429 L408.782024,58.9805952 Z M426.490357,61.5139286 L426.490357,61.515119 L422.524881,62.365119 L426.490357,61.5139286 Z" id="Fill-1" fill="#FEB600"></path>
                <polygon id="Fill-2" fill="#FEB600" points="335.192143 0 282.951667 11.2 282.594524 28.9761905 299.739762 38.4202381 298.577857 96.3416667 322.370714 109.447619 339.790952 105.710714 341.217143 34.6190476 358.626667 30.8821429 358.982619 13.1059524"></polygon>
                <path d="M175.646905,87.8132143 L160.648095,91.0322619 L160.646905,91.0322619 L175.646905,87.8132143 Z M236.725476,57.0179762 L247.396905,54.7310714 L247.050476,71.9894048 L236.379048,74.279881 L236.725476,57.0179762 Z M19.9564286,156.088214 L43.7480952,169.194167 L61.157619,165.457262 L61.4219048,152.275119 L78.5671429,161.720357 L78.5671429,161.720357 L95.9885714,157.994167 L96.3445238,140.219167 L107.693333,137.782262 L130.818333,150.520357 L148.227857,146.794167 L148.940952,111.242976 L159.612381,108.9525 L159.267143,126.215595 L183.06,139.320357 L200.469524,135.583452 L200.732619,122.408452 L217.888571,131.858452 L235.298095,128.120357 L235.655238,110.345357 L247.005238,107.909643 L270.129048,120.647738 L287.550476,116.921548 L288.976667,45.8179762 L271.819524,36.3679762 L271.91119,31.779881 L248.119524,18.6739286 L213.289762,26.1358333 L212.932619,43.9132143 L201.58381,46.3477381 L178.45881,33.6108333 L161.049286,37.3477381 L160.337381,72.8870238 L149.664762,75.1775 L150.01119,57.9155952 L126.218333,44.8096429 L108.807619,48.5477381 L108.544524,61.7346429 L91.3885714,52.2834524 L73.9790476,56.0096429 L73.357619,86.9727381 L56.2004762,77.5227381 L44.8742857,79.9536905 L21.7385714,67.2096429 L4.31714286,70.9465476 L2.89214286,142.050119 L20.0480952,151.500119 L19.9564286,156.088214 Z" id="Fill-3" fill="#FEB600"></path>
                <path d="M332.656071,126.406071 L332.392976,139.57631 L315.246548,130.132262 L297.825119,133.867976 L297.469167,151.644167 L286.1275,154.07869 L263.006071,141.342976 L245.585833,145.067976 L245.320357,158.250119 L228.17631,148.804881 L193.344167,156.267976 L192.989405,174.044167 L175.567976,177.781071 L175.3025,190.962024 L164.804881,185.17869 L164.896548,180.583452 L141.104881,167.47869 L106.273929,174.941786 L105.916786,192.717976 L94.5667857,195.1525 L71.4429762,182.414405 L54.0227381,186.141786 L53.3084524,221.692976 L42.6477381,223.981071 L42.9953571,206.720357 L19.2036905,193.614405 L1.78345238,197.35131 L0.000119047619,286.220357 L23.7917857,299.325119 L41.2120238,295.589405 L41.925119,260.037024 L52.5858333,257.75131 L52.2394048,275.020357 L76.0322619,288.12631 L93.4536905,284.389405 L93.7179762,271.207262 L110.863214,280.6525 L128.283452,276.92631 L128.639405,259.150119 L139.990595,256.715595 L163.114405,269.4525 L180.523929,265.715595 L181.144167,234.769167 L191.65369,240.558452 L191.563214,245.146548 L215.354881,258.2525 L250.184643,250.77869 L250.450119,237.608452 L267.594167,247.05369 L285.015595,243.315595 L285.637024,212.358452 L296.137024,218.141786 L296.042976,222.747738 L319.835833,235.85369 L337.257262,232.116786 L337.612024,214.340595 L320.456071,204.890595 L320.547738,200.30131 L303.40131,190.857262 L303.495357,186.25131 L297.412024,187.557262 L297.412024,187.557262 L303.495357,186.25131 L320.904881,182.525119 L321.260833,164.750119 L338.682262,161.013214 L338.945357,147.831071 L355.439405,156.916786 L349.364405,158.221548 L349.007262,175.985833 L372.798929,189.090595 L407.629881,181.62869 L407.985833,163.8525 L425.395357,160.115595 L425.7525,142.339405 L408.342976,146.07631 L425.7525,142.339405 L408.608452,132.895357 L408.700119,128.30131 L402.631071,129.60369 L402.629881,129.60369 L408.700119,128.30131 L384.907262,115.195357 L332.656071,126.406071 Z M280.050119,155.890595 L280.050119,155.891786 L269.3775,158.173929 L280.050119,155.890595 Z M245.219167,163.356071 L245.219167,163.357262 L217.137024,169.373929 L245.219167,163.356071 Z M216.779881,187.150119 L244.862024,181.133452 L243.894167,229.3525 L226.748929,219.908452 L216.07869,222.195357 L216.779881,187.150119 Z M319.616786,200.500119 L314.482262,201.600119 L319.616786,200.500119 Z M129.709643,205.822738 L140.382262,203.535833 L140.034643,220.795357 L129.363214,223.085833 L129.709643,205.822738 Z" id="Fill-4" fill="#FEB600"></path>
                <polygon id="Fill-5" fill="#FEB600" points="366.060357 190.035476 348.650833 193.760476 348.294881 211.536667 372.086548 224.642619 389.497262 220.916429 389.852024 203.140238"></polygon>
                <polygon id="Fill-6" fill="#00C052" points="450.993214 39.1971429 450.13369 82.0542857 475.33131 76.6566667 475.502738 68.0828571 458.703929 71.6852381 458.876548 63.1114286 475.674167 59.5090476 475.846786 50.9340476 459.049167 54.537619 459.220595 45.9638095 476.018214 42.362619 476.189643 33.842381 476.189643 33.7888095"></polygon>
                <polygon id="Fill-7" fill="#00C052" points="433.852381 59.9358333 417.054762 63.5382143 417.39881 46.3905952 408.99881 48.1977381 408.139286 91.054881 416.538095 89.2584524 416.882143 72.1120238 433.679762 68.5096429 433.335714 85.6560714 441.735714 83.8608333 442.595238 40.9929762 434.195238 42.7989286"></polygon>
                <polygon id="Fill-8" fill="#00C052" points="382.942024 96.4639286 391.342024 94.6567857 392.028929 60.3734524 400.427738 58.5663095 400.600357 49.9925 375.402738 55.4020238 375.23131 63.9758333 383.630119 62.1686905"></polygon>
                <polygon id="Fill-9" fill="#00C052" points="358.9825 13.1061905 306.743214 24.305 306.386071 42.0811905 323.795595 38.355 322.370595 109.447857 339.790833 105.710952 341.217024 34.6180952 358.626548 30.8811905"></polygon>
                <polygon id="Fill-10" fill="#00C052" points="271.911548 31.7794048 237.081786 39.2425 236.724643 57.0175 271.555595 49.5555952"></polygon>
                <polygon id="Fill-11" fill="#00C052" points="235.655476 110.345 270.486429 102.87119 270.129286 120.647381 287.550714 116.92119 288.976905 45.817619 271.555476 49.5557143 270.843571 85.0961905 236.012619 92.5688095 236.724524 57.017619 219.315 60.7545238 217.88881 131.858095 235.298333 128.12119"></polygon>
                <polygon id="Fill-12" fill="#00C052" points="303.495238 186.251905 320.904762 182.525714 321.261905 164.749524 303.85119 168.487619"></polygon>
                <polygon id="Fill-13" fill="#00C052" points="372.799762 189.090833 407.630714 181.627738 407.986667 163.852738 373.155714 171.326548"></polygon>
                <polygon id="Fill-14" fill="#00C052" points="407.98619 163.8525 425.395714 160.115595 425.752857 142.339405 408.343333 146.07631"></polygon>
                <polygon id="Fill-15" fill="#00C052" points="356.448095 139.511667 356.090952 157.275952 408.343333 146.077143 408.700476 128.300952"></polygon>
                <polygon id="Fill-16" fill="#00C052" points="321.261667 164.75 338.681905 161.013095 339.039048 143.236905 321.617619 146.97381"></polygon>
                <polygon id="Fill-17" fill="#00C052" points="337.25631 232.115952 337.612262 214.339762 320.192024 218.077857 319.834881 235.852857"></polygon>
                <polygon id="Fill-18" fill="#00C052" points="320.192143 218.077381 320.548095 200.30119 303.138571 204.027381 302.782619 221.803571"></polygon>
                <polygon id="Fill-19" fill="#00C052" points="286.798333 154.448452 269.376905 158.173452 267.594762 247.053214 285.01619 243.315119 285.729286 207.763929 303.13881 204.027024 303.494762 186.252024 286.085238 189.988929"></polygon>
                <polygon id="Fill-20" fill="#00C052" points="216.78 187.149405 251.610952 179.68631 251.968095 161.91131 217.137143 169.373214"></polygon>
                <polygon id="Fill-21" fill="#00C052" points="200.469048 135.583929 202.25119 46.7160714 184.841667 50.4529762 184.127381 85.9934524 149.297619 93.4672619 150.010714 57.9160714 132.6 61.6517857 130.817857 150.519643 148.227381 146.794643 148.941667 111.243452 183.772619 103.768452 183.059524 139.320833"></polygon>
                <polygon id="Fill-22" fill="#00C052" points="115.180238 65.3894048 97.7707143 69.1155952 96.3445238 140.217976 113.755238 136.481071"></polygon>
                <polygon id="Fill-23" fill="#00C052" points="78.5672619 161.720357 95.9886905 157.994167 96.3446429 140.217976 78.9232143 143.956071"></polygon>
                <polygon id="Fill-24" fill="#00C052" points="43.7482143 169.193929 61.1577381 165.457024 61.5136905 147.680833 44.1041667 151.417738"></polygon>
                <polygon id="Fill-25" fill="#00C052" points="62.5830952 94.364881 61.5140476 147.681548 78.9235714 143.955357 79.992619 90.6279762"></polygon>
                <polygon id="Fill-26" fill="#00C052" points="28.1092857 84.0516667 26.6842857 155.155238 44.1045238 151.418333 45.5307143 80.3147619"></polygon>
                <polygon id="Fill-27" fill="#00C052" points="250.185357 250.77881 250.54131 233.014524 215.711548 240.476429 215.354405 258.252619"></polygon>
                <polygon id="Fill-28" fill="#00C052" points="198.290357 244.21369 215.711786 240.476786 216.779643 187.149405 199.359405 190.88631"></polygon>
                <polygon id="Fill-29" fill="#00C052" points="164.896548 180.584286 130.065595 188.047381 129.708452 205.822381 164.539405 198.360476"></polygon>
                <polygon id="Fill-30" fill="#00C052" points="163.827024 233.900595 128.996071 241.374405 129.709167 205.823214 112.288929 209.560119 110.862738 280.651786 128.284167 276.926786 128.638929 259.150595 163.471071 251.676786 163.113929 269.451786 180.523452 265.714881 181.950833 194.623214 164.540119 198.360119"></polygon>
                <polygon id="Fill-31" fill="#00C052" points="77.8135714 199.246071 77.1016667 234.798452 42.2814286 242.272262 42.9957143 206.719881 25.5754762 210.457976 23.7921429 299.324643 41.212381 295.588929 41.9254762 260.036548 76.7457143 252.574643 76.0314286 288.127024 93.4528571 284.388929 95.235 195.521071"></polygon>
                <polygon id="Fill-32" fill="#00C052" points="372.087143 224.642381 389.496667 220.91619 389.852619 203.14 372.443095 206.86619"></polygon>
            </g>
        </g>
    </g>
</svg>