<?xml version="1.0" encoding="UTF-8"?>
<svg width="76px" height="76px" viewBox="0 0 76 76" version="1.1" xmlns="http://www.w3.org/2000/svg" xmlns:xlink="http://www.w3.org/1999/xlink">
    <!-- Generator: Sketch 64 (93537) - https://sketch.com -->
    <title>news_image</title>
    <desc>Created with Sketch.</desc>
    <g id="Website-Final" stroke="none" stroke-width="1" fill="none" fill-rule="evenodd">
        <g id="Homepage-New-Date" transform="translate(-25.000000, -25.000000)">
            <g id="Group-9" transform="translate(25.000000, 25.000000)">
                <g id="news_image">
                    <rect id="Rectangle" fill="#141227" x="0" y="0" width="76" height="76"></rect>
                    <g id="Group-3" transform="translate(13.000000, 13.000000)">
                        <polygon id="Fill-1" fill="#2A66E3" points="45.4266867 9.08674699 34.0709639 9.08674699 34.0709639 4.54337349 18.1706627 4.54337349 18.1706627 9.08674699 4.54295181 9.08674699 4.54295181 40.8855422 18.1706627 40.8855422 18.1706627 45.4277108 36.3420482 45.4277108 36.3420482 40.8855422 45.4266867 40.8855422"></polygon>
                        <path d="M31.7992771,-0.000120481928 L31.7992771,4.54295181 L36.3420482,4.54295181 L36.3426506,4.54295181 L36.3426506,-0.000120481928 L31.7992771,-0.000120481928 Z M27.2559036,-0.000120481928 L27.2559036,4.54295181 L31.7986747,4.54295181 L31.7992771,4.54295181 L31.7992771,-0.000120481928 L27.2559036,-0.000120481928 Z M22.7125301,4.54295181 L27.2559036,4.54295181 L27.2559036,-0.000120481928 L22.7125301,-0.000120481928 L22.7125301,4.54295181 Z M18.1712651,4.54295181 L22.7125301,4.54295181 L22.7125301,-0.000120481928 L18.1712651,-0.000120481928 L18.1712651,4.54295181 Z M13.6278916,4.54295181 L18.1712651,4.54295181 L18.1712651,-0.000120481928 L13.6278916,-0.000120481928 L13.6278916,4.54295181 Z M36.3426506,4.54295181 L36.3426506,9.0863253 L40.8833133,9.0863253 L40.8839157,9.0863253 L40.8839157,4.54295181 L36.3426506,4.54295181 Z M31.7992771,4.54295181 L31.7986747,4.54295181 L31.7986747,9.0863253 L36.3420482,9.0863253 L36.3420482,4.54295181 L31.7992771,4.54295181 Z M9.08451807,4.54295181 L9.08451807,9.0863253 L13.6272892,9.0863253 L13.6272892,4.54325301 L13.6278916,4.54325301 L13.6278916,4.54295181 L9.08451807,4.54295181 Z M18.1703614,9.08662651 L22.7119277,9.08662651 L22.7119277,4.54325301 L18.1703614,4.54325301 L18.1703614,9.08662651 Z M13.6278916,4.54325301 L13.6278916,9.0863253 L13.6272892,9.0863253 L13.6272892,9.08662651 L18.1703614,9.08662651 L18.1703614,4.54325301 L13.6278916,4.54325301 Z M40.8839157,13.6296988 L45.4272892,13.6296988 L45.4272892,9.0863253 L40.8839157,9.0863253 L40.8839157,13.6296988 Z M36.3426506,9.0863253 L36.3420482,9.0863253 L36.3420482,13.6296988 L40.8833133,13.6296988 L40.8833133,9.0863253 L36.3426506,9.0863253 Z M31.7986747,13.6296988 L36.3420482,13.6296988 L36.3420482,9.0863253 L31.7986747,9.0863253 L31.7986747,13.6296988 Z M27.2553012,13.6296988 L31.7986747,13.6296988 L31.7986747,9.0863253 L27.2553012,9.0863253 L27.2553012,13.6296988 Z M4.54325301,9.0863253 L4.54325301,13.6296988 L9.08391566,13.6296988 L9.08391566,9.08662651 L9.08451807,9.08662651 L9.08451807,9.0863253 L4.54325301,9.0863253 Z M13.6272892,13.63 L18.1703614,13.63 L18.1703614,9.08662651 L13.6272892,9.08662651 L13.6272892,13.63 Z M9.08451807,9.08662651 L9.08451807,13.6296988 L9.08391566,13.6296988 L9.08391566,13.63 L13.6272892,13.63 L13.6272892,9.08662651 L9.08451807,9.08662651 Z M45.4272892,18.1712651 L49.9706627,18.1712651 L49.9706627,13.6296988 L45.4272892,13.6296988 L45.4272892,18.1712651 Z M36.3420482,18.1712651 L40.8833133,18.1712651 L40.8833133,13.6296988 L36.3420482,13.6296988 L36.3420482,18.1712651 Z M31.7986747,18.1712651 L36.3420482,18.1712651 L36.3420482,13.6296988 L31.7986747,13.6296988 L31.7986747,18.1712651 Z M-0.000120481928,13.6296988 L-0.000120481928,18.1712651 L4.54295181,18.1712651 L4.54295181,13.63 L4.54325301,13.63 L4.54325301,13.6296988 L-0.000120481928,13.6296988 Z M13.6272892,18.1715663 L18.1703614,18.1715663 L18.1703614,13.63 L13.6272892,13.63 L13.6272892,18.1715663 Z M9.08421687,18.1715663 L13.6272892,18.1715663 L13.6272892,13.63 L9.08421687,13.63 L9.08421687,18.1715663 Z M4.54325301,13.63 L4.54325301,18.1712651 L4.54325301,18.1715663 L9.08421687,18.1715663 L9.08421687,13.63 L4.54325301,13.63 Z M45.4272892,22.7146386 L49.9706627,22.7146386 L49.9706627,18.1712651 L45.4272892,18.1712651 L45.4272892,22.7146386 Z M40.8833133,22.7146386 L45.4266867,22.7146386 L45.4266867,18.1712651 L40.8833133,18.1712651 L40.8833133,22.7146386 Z M36.3420482,22.7146386 L40.8833133,22.7146386 L40.8833133,18.1712651 L36.3420482,18.1712651 L36.3420482,22.7146386 Z M-0.000120481928,18.1712651 L-0.000120481928,22.7146386 L4.54325301,22.7146386 L4.54295181,22.7146386 L4.54295181,18.1715663 L4.54325301,18.1715663 L4.54295181,18.1715663 L4.54295181,18.1712651 L-0.000120481928,18.1712651 Z M13.6272892,18.1715663 L13.6272892,22.7146386 L13.6272892,22.7143373 L18.1706627,22.7143373 L18.1706627,18.1715663 L13.6272892,18.1715663 Z M9.08421687,18.1715663 L9.08451807,18.1715663 L9.08451807,22.7146386 L13.6272892,22.7146386 L13.6272892,18.1715663 L9.08421687,18.1715663 Z M4.54325301,18.1715663 L4.54325301,22.7146386 L9.08451807,22.7146386 L9.08421687,22.7146386 L9.08421687,18.1715663 L4.54325301,18.1715663 Z M18.1706627,27.2577108 L22.7119277,27.2577108 L22.7119277,22.7143373 L18.1706627,22.7143373 L18.1706627,27.2577108 Z M18.1706627,22.7143373 L18.1706627,22.7146386 L13.6272892,22.7146386 L13.6272892,27.2577108 L18.1706627,27.2577108 L18.1706627,22.7143373 Z M45.4272892,27.258012 L49.9706627,27.258012 L49.9706627,22.7146386 L45.4272892,22.7146386 L45.4272892,27.258012 Z M40.8833133,27.2577108 L45.4266867,27.2577108 L45.4266867,22.7146386 L40.8833133,22.7146386 L40.8833133,27.2577108 Z M36.3420482,27.2577108 L40.8833133,27.2577108 L40.8833133,22.7146386 L36.3420482,22.7146386 L36.3420482,27.2577108 Z M31.7986747,27.2577108 L36.3420482,27.2577108 L36.3420482,22.7146386 L31.7986747,22.7146386 L31.7986747,27.2577108 Z M-0.000120481928,27.258012 L4.54325301,27.258012 L4.54325301,22.7146386 L-0.000120481928,22.7146386 L-0.000120481928,27.258012 Z M40.8833133,31.7992771 L45.4266867,31.7992771 L45.4266867,27.2577108 L40.8833133,27.2577108 L40.8833133,31.7992771 Z M36.3420482,31.7992771 L40.8833133,31.7992771 L40.8833133,27.2577108 L36.3420482,27.2577108 L36.3420482,31.7992771 Z M31.7986747,31.7992771 L36.3420482,31.7992771 L36.3420482,27.2577108 L31.7986747,27.2577108 L31.7986747,31.7992771 Z M45.4272892,31.7992771 L49.9706627,31.7992771 L49.9706627,27.258012 L45.4272892,27.258012 L45.4272892,31.7992771 Z M4.54325301,27.258012 L-0.000120481928,27.258012 L-0.000120481928,31.7992771 L4.5426506,31.7992771 L4.54325301,31.7992771 L4.54325301,27.258012 Z M45.4272892,36.3426506 L49.9706627,36.3426506 L49.9706627,31.7992771 L45.4272892,31.7992771 L45.4272892,36.3426506 Z M40.8833133,36.3423494 L45.4266867,36.3423494 L45.4266867,31.7992771 L40.8833133,31.7992771 L40.8833133,36.3423494 Z M36.3420482,36.3423494 L40.8833133,36.3423494 L40.8833133,31.7992771 L36.3420482,31.7992771 L36.3420482,36.3423494 Z M9.08391566,36.3426506 L13.6272892,36.3426506 L13.6272892,31.7992771 L9.08391566,31.7992771 L9.08391566,36.3426506 Z M4.54325301,36.3426506 L9.08391566,36.3426506 L9.08391566,31.7992771 L4.54325301,31.7992771 L4.54325301,36.3426506 Z M-0.000120481928,31.7992771 L-0.000120481928,36.3426506 L4.54325301,36.3426506 L4.5426506,36.3426506 L4.5426506,31.7992771 L-0.000120481928,31.7992771 Z M40.8839157,40.8860241 L45.4272892,40.8860241 L45.4272892,36.3426506 L40.8839157,36.3426506 L40.8839157,40.8860241 Z M13.6272892,40.8857229 L18.1706627,40.8857229 L18.1706627,36.3426506 L13.6272892,36.3426506 L13.6272892,40.8857229 Z M13.6272892,36.3426506 L9.08391566,36.3426506 L9.08451807,36.3426506 L9.08451807,40.8857229 L13.6272892,40.8857229 L13.6272892,36.3426506 Z M4.54325301,36.3426506 L4.54325301,40.8860241 L9.08451807,40.8860241 L9.08451807,40.8857229 L9.08391566,40.8857229 L9.08391566,36.3426506 L4.54325301,36.3426506 Z M18.1706627,40.8857229 L13.6272892,40.8857229 L13.6272892,40.8860241 L13.6278916,40.8860241 L13.6278916,45.426988 L18.1706627,45.426988 L18.1706627,40.8857229 Z M36.3426506,45.426988 L40.8839157,45.426988 L40.8839157,40.8857229 L36.3426506,40.8857229 L36.3426506,45.426988 Z M9.08451807,40.8860241 L9.08451807,45.426988 L13.6278916,45.426988 L13.6272892,45.426988 L13.6272892,40.8860241 L9.08451807,40.8860241 Z M31.7992771,49.9703614 L36.3426506,49.9703614 L36.3426506,45.426988 L31.7992771,45.426988 L31.7992771,49.9703614 Z M27.2559036,49.9703614 L31.7992771,49.9703614 L31.7992771,45.426988 L27.2559036,45.426988 L27.2559036,49.9703614 Z M22.7125301,49.9703614 L27.2559036,49.9703614 L27.2559036,45.426988 L22.7125301,45.426988 L22.7125301,49.9703614 Z M18.1712651,49.9703614 L22.7125301,49.9703614 L22.7125301,45.426988 L18.1712651,45.426988 L18.1712651,49.9703614 Z M13.6278916,49.9703614 L18.1712651,49.9703614 L18.1712651,45.426988 L13.6278916,45.426988 L13.6278916,49.9703614 Z" id="Fill-2" fill="#00C24C"></path>
                    </g>
                </g>
            </g>
        </g>
    </g>
</svg>