<?xml version="1.0" encoding="UTF-8"?>
<svg width="30px" height="30px" viewBox="0 0 30 30" version="1.1" xmlns="http://www.w3.org/2000/svg" xmlns:xlink="http://www.w3.org/1999/xlink">
    <!-- Generator: Sketch 62 (91390) - https://sketch.com -->
    <title>Combined Shape</title>
    <desc>Created with Sketch.</desc>
    <g id="Website-pages" stroke="none" stroke-width="1" fill="none" fill-rule="evenodd">
        <g id="Homepage" transform="translate(-1370.000000, -830.000000)" fill="#6863ED">
            <path d="M1395,835.000001 L1395,855.000001 L1375,855.000001 L1375,852.142868 L1389.28568,852.142868 L1389.28568,849.285735 L1392.14288,849.285735 L1392.14287,834.999996 L1395,835.000001 Z M1389.16666,846.666667 L1389.16666,849.166667 L1386.66666,849.166667 L1386.66666,846.666667 L1389.16666,846.666667 Z M1385.83333,843.333334 L1385.83333,845.833334 L1383.33333,845.833334 L1383.33333,843.333334 L1385.83333,843.333334 Z M1383.33333,840.833334 L1383.33333,843.333334 L1380.83333,843.333334 L1380.83333,840.833334 L1383.33333,840.833334 Z M1380.83333,838.333334 L1380.83333,840.833334 L1378.33333,840.833334 L1378.33333,838.333334 L1380.83333,838.333334 Z M1377.5,835.000001 L1377.5,837.500001 L1375,837.500001 L1375,835.000001 L1377.5,835.000001 Z" id="Combined-Shape" transform="translate(1384.999998, 844.999998) rotate(315.000000) translate(-1384.999998, -844.999998) "></path>
        </g>
    </g>
</svg>