<?xml version="1.0" encoding="UTF-8"?>
<svg width="1000px" height="369px" viewBox="0 0 1000 369" version="1.1" xmlns="http://www.w3.org/2000/svg" xmlns:xlink="http://www.w3.org/1999/xlink">
    <!-- Generator: Sketch 64 (93537) - https://sketch.com -->
    <title>to-be-continued</title>
    <desc>Created with Sketch.</desc>
    <g id="Website-Final" stroke="none" stroke-width="1" fill="none" fill-rule="evenodd">
        <g id="Homepage-New-Date" transform="translate(-220.000000, -280.000000)">
            <g id="to-be-continued" transform="translate(220.000000, 280.000000)">
                <polygon id="Fill-1" fill="#F65800" points="134.844055 175.059852 177.031555 165.984281 176.975152 187.602802 134.775457 196.678372"></polygon>
                <polygon id="Fill-2" fill="#FEB600" points="134.844055 175.059852 105.917226 159.121186 148.103201 150.045616 177.031555 165.984281"></polygon>
                <polygon id="Fill-3" fill="#00C052" points="134.774695 196.678677 105.846341 180.740012 105.916463 159.121491 134.843293 175.060157"></polygon>
                <polygon id="Fill-4" fill="#F65800" points="113.926067 114.750004 135.026677 110.204595 134.84375 175.060157 113.74314 179.605566"></polygon>
                <polygon id="Fill-5" fill="#FEB600" points="113.926067 114.750004 84.9992378 98.8113384 106.099848 94.2659293 135.026677 110.204595"></polygon>
                <polygon id="Fill-6" fill="#00C052" points="113.74375 179.605108 84.8169207 163.666443 84.9998476 98.810881 113.926677 114.749546"></polygon>
                <polygon id="Fill-7" fill="#00C052" points="50.4003049 214.843693 21.4719512 198.905028 21.7112805 112.430945 50.6396341 128.371136"></polygon>
                <polygon id="Fill-8" fill="#F65800" points="92.8957317 97.6758248 92.8256098 119.294345 71.7402439 123.839755 71.4871951 210.298589 50.4003049 214.843998 50.6396341 128.369916 29.5527439 132.915325 29.6091463 111.296804"></polygon>
                <polygon id="Fill-9" fill="#00C052" points="0.624237805 116.977269 29.5525915 132.915935 29.6089939 111.297414 0.682164634 95.357224"></polygon>
                <polygon id="Fill-10" fill="#FEB600" points="0.681859756 95.3578339 29.6102134 111.298024 92.8967988 97.6755198 63.9684451 81.7383793"></polygon>
                <polygon id="Fill-11" fill="#F65800" points="198.11814 161.439482 177.03125 165.983367 177.214177 101.129329 198.301067 96.5839202"></polygon>
                <polygon id="Fill-12" fill="#00C052" points="177.03125 165.983976 148.102896 150.045311 148.287348 85.191274 177.214177 101.128414"></polygon>
                <polygon id="Fill-13" fill="#FEB600" points="177.213567 101.128872 148.286738 85.1902066 169.373628 80.6447975 198.300457 96.5849876"></polygon>
                <polygon id="Fill-14" fill="#F65800" points="177.270122 79.5108087 177.21372 101.129329 135.027744 110.2049 135.082622 88.5863789"></polygon>
                <polygon id="Fill-15" fill="#00C052" points="135.027134 110.204747 106.09878 94.2660818 106.156707 72.6475612 135.083537 88.5862264"></polygon>
                <polygon id="Fill-16" fill="#FEB600" points="135.082927 88.5866839 106.156098 72.6480186 148.342073 63.5724483 177.270427 79.5111136"></polygon>
                <polygon id="Fill-17" fill="#FEB600" points="430.167073 111.487556 401.23872 95.5488905 443.42622 86.4595971 472.354573 102.398262"></polygon>
                <polygon id="Fill-18" fill="#FEB600" points="430.293598 68.2512769 401.365244 52.3126116 443.552744 43.2233182 472.479573 59.1619835"></polygon>
                <polygon id="Fill-19" fill="#F65800" points="472.606555 15.9385128 472.550152 37.5570335 430.348933 46.6326037 430.294055 68.2511244 472.48003 59.161831 472.423628 80.7803517 430.237652 89.869645 430.16753 111.488166 472.353506 102.398872 472.297104 124.015868 409.010518 137.636848 409.318445 29.5594921"></polygon>
                <polygon id="Fill-20" fill="#00C052" points="409.010976 137.63761 380.082622 121.698945 380.392073 13.6215893 409.318902 29.5587298"></polygon>
                <polygon id="Fill-21" fill="#FEB600" points="443.679421 -0.000152479339 380.391311 13.6208269 409.319665 29.5594921 472.607774 15.9385128"></polygon>
                <polygon id="Fill-22" fill="#F65800" points="387.979878 120.564041 366.879268 125.107925 366.94939 103.489405 388.03628 98.9455202"></polygon>
                <polygon id="Fill-23" fill="#FEB600" points="366.949543 103.489862 338.021189 87.5511967 359.108079 83.0073124 388.036433 98.9459777"></polygon>
                <polygon id="Fill-24" fill="#00C052" points="366.879573 125.108688 337.952744 109.170022 338.021341 87.5515017 366.949695 103.490167"></polygon>
                <polygon id="Fill-25" fill="#FEB600" points="367.062652 60.2535831 338.134299 44.3149178 359.234909 39.7832318 388.161738 55.7218971"></polygon>
                <polygon id="Fill-26" fill="#F65800" points="388.106402 77.3271521 367.005793 81.8710364 367.062195 60.2540405 388.162805 55.7223545"></polygon>
                <polygon id="Fill-27" fill="#00C052" points="367.006098 81.8716463 338.077744 65.932981 338.135671 44.3144603 367.0625 60.2531256"></polygon>
                <polygon id="Fill-28" fill="#FEB600" points="324.69314 134.18441 295.764787 118.245745 337.952287 109.170175 366.879116 125.10884"></polygon>
                <polygon id="Fill-29" fill="#FEB600" points="324.818902 90.9617021 295.890549 75.0230368 338.078049 65.9337434 367.006402 81.8724087"></polygon>
                <polygon id="Fill-30" fill="#00C052" points="303.53628 160.347273 274.607927 144.408607 274.917378 36.3312521 303.844207 52.2699174"></polygon>
                <polygon id="Fill-31" fill="#F65800" points="324.69314 134.18441 366.879116 125.10884 366.824238 146.727361 303.536128 160.346815 303.844055 52.2694599 367.132165 38.6347574 367.062043 60.2532781 324.874543 69.3425715 324.819665 90.9610921 367.00564 81.8717988 366.949238 103.490319 324.749543 112.579613"></polygon>
                <polygon id="Fill-32" fill="#FEB600" points="303.84436 52.2693074 274.91753 36.3306421 338.20564 22.6959397 367.13247 38.634605"></polygon>
                <polygon id="Fill-33" fill="#F65800" points="134.401829 328.777323 176.589329 319.701752 176.532927 341.320273 134.345427 350.395843"></polygon>
                <polygon id="Fill-34" fill="#FEB600" points="134.401829 328.777323 105.473476 312.838657 147.660976 303.763087 176.589329 319.701752"></polygon>
                <polygon id="Fill-35" fill="#00C052" points="134.345274 350.395386 105.418445 334.456721 105.474848 312.8382 134.401677 328.776865"></polygon>
                <polygon id="Fill-36" fill="#F65800" points="113.497256 268.466102 134.584146 263.934417 134.40122 328.77778 113.314329 333.321664"></polygon>
                <polygon id="Fill-37" fill="#FEB600" points="113.497256 268.466102 84.5704268 252.528962 105.655793 247.997276 134.584146 263.934417"></polygon>
                <polygon id="Fill-38" fill="#00C052" points="113.314939 333.321969 84.3865854 317.383304 84.5710366 252.529267 113.497866 268.466407"></polygon>
                <polygon id="Fill-39" fill="#F65800" points="50.0268293 346.942796 49.9582317 368.561317 92.1579268 359.484222 92.2143293 337.865701"></polygon>
                <polygon id="Fill-40" fill="#00C052" points="21.0306402 352.622804 49.9589939 368.561469 50.0260671 346.942949 21.1007622 331.002759"></polygon>
                <polygon id="Fill-41" fill="#FEB600" points="50.027439 346.942339 21.1006098 331.003674 63.2865854 321.928103 92.214939 337.866769"></polygon>
                <polygon id="Fill-42" fill="#F65800" points="29.1102134 286.632491 50.2092988 282.100805 50.0278963 346.942644 28.9272866 351.486528"></polygon>
                <polygon id="Fill-43" fill="#FEB600" points="0.182469512 270.694283 29.1108232 286.632948 50.2099085 282.101262 21.2830793 266.162597"></polygon>
                <polygon id="Fill-44" fill="#00C052" points="0 335.549845 28.9283537 351.486986 29.1097561 286.632948 0.182926829 270.694283"></polygon>
                <polygon id="Fill-45" fill="#F65800" points="92.4536585 251.392533 92.3972561 273.012579 50.2097561 282.101872 50.2661585 260.483352"></polygon>
                <polygon id="Fill-46" fill="#00C052" points="50.2097561 282.101415 21.2829268 266.16275 21.3393293 244.544229 50.2661585 260.482894"></polygon>
                <polygon id="Fill-47" fill="#FEB600" points="50.266311 260.483199 21.3379573 244.544534 63.5254573 235.45524 92.453811 251.392381"></polygon>
                <polygon id="Fill-48" fill="#F65800" points="978.209451 147.136615 978.153049 168.755136 999.239939 164.209727 999.296341 142.591206"></polygon>
                <polygon id="Fill-49" fill="#00C052" points="978.153354 168.754374 949.226524 152.815708 949.282927 131.198712 978.209756 147.135853"></polygon>
                <polygon id="Fill-50" fill="#FEB600" points="949.28186 131.19856 978.210213 147.137225 999.297104 142.591816 970.36875 126.653151"></polygon>
                <polygon id="Fill-51" fill="#F65800" points="957.109604 151.680957 957.053201 173.299478 935.954116 177.831164 936.022713 156.212643"></polygon>
                <polygon id="Fill-52" fill="#00C052" points="935.954268 177.830859 907.025915 161.892193 907.096037 140.273673 936.022866 156.212338"></polygon>
                <polygon id="Fill-53" fill="#FEB600" points="936.022713 156.212033 907.095884 140.273368 928.18125 135.743207 957.109604 151.680347"></polygon>
                <polygon id="Fill-54" fill="#F65800" points="914.922409 160.75668 914.86753 182.3752 893.766921 186.92061 893.821799 165.302089"></polygon>
                <polygon id="Fill-55" fill="#00C052" points="893.767073 186.920152 864.83872 170.981487 864.896646 149.362966 893.821951 165.301631"></polygon>
                <polygon id="Fill-56" fill="#FEB600" points="893.822104 165.302089 864.895274 149.363424 885.995884 144.818014 914.922713 160.75668"></polygon>
                <polygon id="Fill-57" fill="#F65800" points="872.735213 169.846583 851.636128 174.378269 851.81753 109.53643 872.91814 104.991021"></polygon>
                <polygon id="Fill-58" fill="#00C052" points="851.636433 174.377812 822.708079 158.439146 822.891006 93.5973074 851.817835 109.535973"></polygon>
                <polygon id="Fill-59" fill="#FEB600" points="851.817988 109.536125 822.889634 93.5974599 843.990244 89.0520508 872.918598 104.992241"></polygon>
                <polygon id="Fill-60" fill="#FEB600" points="809.449238 183.466952 780.520884 167.528287 822.708384 158.438994 851.636738 174.377659"></polygon>
                <polygon id="Fill-61" fill="#F65800" points="809.449238 183.466952 851.636738 174.377659 851.580335 195.99618 788.292226 209.615634 788.600152 101.538279 851.888262 87.9172996 851.81814 109.53582 809.63064 118.61139"></polygon>
                <polygon id="Fill-62" fill="#00C052" points="788.292378 209.616244 759.364024 193.677579 759.673476 85.6002236 788.600305 101.538889"></polygon>
                <polygon id="Fill-63" fill="#FEB600" points="788.600457 101.538431 759.672104 85.5997661 822.960213 71.9787868 851.888567 87.9174521"></polygon>
                <polygon id="Fill-64" fill="#FEB600" points="725.061433 201.632731 696.133079 185.694066 738.334299 176.604772 767.262652 192.543438"></polygon>
                <polygon id="Fill-65" fill="#FEB600" points="725.186433 158.395842 696.259604 142.457177 738.447104 133.367883 767.375457 149.306549"></polygon>
                <polygon id="Fill-66" fill="#F65800" points="767.500152 106.083078 767.44375 127.701599 725.24253 136.777169 725.186128 158.39569 767.375152 149.306396 767.31875 170.924917 725.13125 180.01421 725.061128 201.632731 767.262348 192.543438 767.192226 214.161958 703.917835 227.781413 704.212043 119.704057"></polygon>
                <polygon id="Fill-67" fill="#00C052" points="703.917835 227.782023 674.989482 211.843357 675.285213 103.766002 704.212043 119.704667"></polygon>
                <polygon id="Fill-68" fill="#FEB600" points="704.212652 119.70421 675.284299 103.765545 738.572409 90.1445653 767.500762 106.083231"></polygon>
                <polygon id="Fill-69" fill="#F65800" points="619.586738 224.328976 661.787957 215.253405 661.717835 236.871926 619.530335 245.947496"></polygon>
                <polygon id="Fill-70" fill="#FEB600" points="619.586738 224.328976 590.658384 208.39031 632.859604 199.31474 661.787957 215.253405"></polygon>
                <polygon id="Fill-71" fill="#00C052" points="619.53003 245.947039 590.603201 230.008374 590.659604 208.391378 619.586433 224.328518"></polygon>
                <polygon id="Fill-72" fill="#F65800" points="683.125762 124.248704 682.874238 210.709064 661.787348 215.252948 662.025152 128.78039"></polygon>
                <polygon id="Fill-73" fill="#00C052" points="661.787195 215.2531 632.858841 199.314435 633.099695 112.840352 662.025 128.780543"></polygon>
                <polygon id="Fill-74" fill="#FEB600" points="662.025457 128.779933 633.098628 112.841267 654.197713 108.309581 683.126067 124.248247"></polygon>
                <polygon id="Fill-75" fill="#F65800" points="598.73872 142.41372 619.837805 137.869836 619.58628 224.328671 598.49939 228.87408"></polygon>
                <polygon id="Fill-76" fill="#FEB600" points="598.73872 142.41372 569.810366 126.475055 590.910976 121.931171 619.837805 137.869836"></polygon>
                <polygon id="Fill-77" fill="#00C052" points="598.499695 228.874232 569.572866 212.935567 569.810671 126.475207 598.739024 142.413873"></polygon>
                <polygon id="Fill-78" fill="#00C052" points="556.24253 259.582351 527.315701 243.643686 527.440701 200.406645 556.369055 216.34531"></polygon>
                <polygon id="Fill-79" fill="#00C052" points="535.268902 220.889957 506.340549 204.951291 506.410671 183.332771 535.339024 199.271436"></polygon>
                <polygon id="Fill-80" fill="#FEB600" points="535.338872 199.271893 506.410518 183.333228 527.497409 178.787819 556.425762 194.726484"></polygon>
                <polygon id="Fill-81" fill="#F65800" points="577.651829 146.944949 577.342378 255.037552 556.243293 259.582961 556.369817 216.34592 535.269207 220.889804 535.339329 199.271283 556.42622 194.725874 556.55122 151.490358"></polygon>
                <polygon id="Fill-82" fill="#00C052" points="556.425762 194.726484 527.497409 178.787819 527.623933 135.550778 556.552287 151.490968"></polygon>
                <polygon id="Fill-83" fill="#FEB600" points="556.551524 151.490358 527.623171 135.551693 548.72378 131.006283 577.652134 146.944949"></polygon>
                <polygon id="Fill-84" fill="#FEB600" points="514.295122 182.184144 485.366768 166.245479 506.467378 161.715317 535.394207 177.652458"></polygon>
                <polygon id="Fill-85" fill="#F65800" points="514.295122 182.184144 535.394207 177.652458 535.339329 199.272503 514.23872 203.802664 514.055793 268.658226 492.955183 273.202111 493.264634 165.111032 514.36372 160.579346"></polygon>
                <polygon id="Fill-86" fill="#00C052" points="492.955793 273.202721 464.027439 257.264055 464.33689 149.172977 493.26372 165.110117"></polygon>
                <polygon id="Fill-87" fill="#FEB600" points="493.264024 165.110727 464.337195 149.172062 485.43628 144.641901 514.364634 160.579041"></polygon>
                <polygon id="Fill-88" fill="#FEB600" points="450.825152 260.66038 421.896799 244.721715 442.997409 240.190029 471.924238 256.128694"></polygon>
                <polygon id="Fill-89" fill="#00C052" points="408.581402 291.367737 379.653049 275.429071 379.710976 253.810551 408.637805 269.749216"></polygon>
                <polygon id="Fill-90" fill="#FEB600" points="408.637957 269.749674 379.709604 253.811008 400.810213 249.265599 429.738567 265.205789"></polygon>
                <polygon id="Fill-91" fill="#00C052" points="429.738262 265.205027 400.809909 249.266362 400.992835 184.4108 429.921189 200.349465"></polygon>
                <polygon id="Fill-92" fill="#F65800" points="472.16372 169.655221 472.107317 191.273742 451.020427 195.819151 450.825305 260.66099 471.92439 256.129304 471.869512 277.747825 408.581402 291.367279 408.637805 269.750283 429.738415 265.204874 429.921341 200.349312 408.820732 204.894721 408.890854 183.276201"></polygon>
                <polygon id="Fill-93" fill="#00C052" points="408.820427 204.894569 379.892073 188.955904 379.962195 167.337383 408.890549 183.276048"></polygon>
                <polygon id="Fill-94" fill="#FEB600" points="408.890396 183.276353 379.962043 167.337688 443.236433 153.716709 472.163262 169.655374"></polygon>
                <polygon id="Fill-95" fill="#00C052" points="345.293902 304.988106 316.367073 289.050966 316.606402 202.576883 345.533232 218.515548"></polygon>
                <polygon id="Fill-96" fill="#F65800" points="387.790091 187.821 387.733689 209.439521 366.633079 213.983405 366.39375 300.443764 345.294665 304.987649 345.53247 218.515091 324.445579 223.0605 324.501982 201.441979"></polygon>
                <polygon id="Fill-97" fill="#00C052" points="324.446037 223.060195 295.519207 207.12153 295.57561 185.503009 324.502439 201.441674"></polygon>
                <polygon id="Fill-98" fill="#FEB600" points="324.502591 201.441369 295.574238 185.502704 358.862348 171.881725 387.790701 187.82039"></polygon>
                <polygon id="Fill-99" fill="#00C052" points="282.007165 318.61 253.078811 302.671335 253.205335 259.432769 282.133689 275.372959"></polygon>
                <polygon id="Fill-100" fill="#00C052" points="261.032622 279.916843 232.105793 263.979703 232.17439 242.359657 261.102744 258.298323"></polygon>
                <polygon id="Fill-101" fill="#FEB600" points="261.102591 258.29878 232.174238 242.360115 253.261128 237.814706 282.189482 253.754896"></polygon>
                <polygon id="Fill-102" fill="#F65800" points="303.402287 205.986016 303.106555 314.078619 282.00747 318.610305 282.13247 275.371739 261.033384 279.917148 261.101982 258.298628 282.188872 253.754743 282.315396 210.531425"></polygon>
                <polygon id="Fill-103" fill="#00C052" points="282.189482 253.754133 253.261128 237.815468 253.387652 194.59215 282.316006 210.530815"></polygon>
                <polygon id="Fill-104" fill="#FEB600" points="282.315396 210.531273 253.387043 194.592607 274.473933 190.047198 303.402287 205.985864"></polygon>
                <polygon id="Fill-105" fill="#FEB600" points="240.058994 241.225211 211.13064 225.286546 232.23125 220.741137 261.159604 236.681327"></polygon>
                <polygon id="Fill-106" fill="#F65800" points="240.058994 241.225211 261.159604 236.681327 261.103201 258.298323 240.002591 262.843732 239.819665 327.699294 218.719055 332.23098 219.028506 224.1521 240.127591 219.60669"></polygon>
                <polygon id="Fill-107" fill="#00C052" points="218.719665 332.23037 189.791311 316.291705 190.100762 208.212824 219.027591 224.15149"></polygon>
                <polygon id="Fill-108" fill="#FEB600" points="219.027896 224.151795 190.101067 208.213129 211.201677 203.66772 240.128506 219.60791"></polygon>
                <polygon id="Fill-109" fill="#F65800" points="197.689329 315.156953 176.58872 319.700838 176.785366 254.845276 197.872256 250.315114"></polygon>
                <polygon id="Fill-110" fill="#00C052" points="176.589024 319.701448 147.660671 303.762782 147.857317 238.908745 176.784146 254.845886"></polygon>
                <polygon id="Fill-111" fill="#FEB600" points="176.784756 254.845581 147.856402 238.90844 168.943293 234.376754 197.871646 250.313895"></polygon>
                <polygon id="Fill-112" fill="#F65800" points="176.841311 233.227517 176.784909 254.846038 134.583689 263.935331 134.653811 242.316811"></polygon>
                <polygon id="Fill-113" fill="#00C052" points="134.584146 263.934874 105.655793 247.997733 105.725915 226.379213 134.654268 242.316353"></polygon>
                <polygon id="Fill-114" fill="#FEB600" points="134.654116 242.316658 105.725762 226.377993 147.913262 217.2887 176.841616 233.227365"></polygon>
            </g>
        </g>
    </g>
</svg>