<?xml version="1.0" encoding="UTF-8"?>
<svg width="76px" height="76px" viewBox="0 0 76 76" version="1.1" xmlns="http://www.w3.org/2000/svg" xmlns:xlink="http://www.w3.org/1999/xlink">
    <!-- Generator: Sketch 63.1 (92452) - https://sketch.com -->
    <title>Group 5</title>
    <desc>Created with Sketch.</desc>
    <g id="Launch" stroke="none" stroke-width="1" fill="none" fill-rule="evenodd">
        <g id="Homepage-Launch" transform="translate(-25.000000, -25.000000)">
            <g id="Group-5" transform="translate(25.000000, 25.000000)">
                <rect id="Rectangle" fill="#141227" x="0" y="0" width="76" height="76"></rect>
                <g id="Group-3" transform="translate(14.000000, 14.000000)">
                    <polygon id="Fill-1" fill="#2A66E3" points="37.5025931 -1.32978723e-05 25.0146941 1.75503989 25.0068484 6.02538564 18.7700133 2.63256649 6.28224734 4.38775266 6.26988032 11.1268484 0.0250664894 12.004641 -6.64893617e-05 25.4838963 6.23676862 28.8765824 6.23224734 31.3454654 12.4682846 34.7377527 12.4634973 37.2070346 18.6995346 40.5994548 18.6948803 43.0696676 24.9601729 46.4779122 31.2048537 45.6002527 31.2174867 38.8602261 37.4612367 37.9825665 37.4738697 31.2433378 43.7177527 30.3659441 43.7302527 23.6267154 49.9750665 22.7490559 50.0000665 9.26980053 43.7632314 5.87698138 43.7677527 3.4080984"></polygon>
                    <polygon id="Fill-2" fill="#F35916" points="31.2800266 5.16325798 31.2675266 11.9024867 25.0227128 12.7801463 25.0353457 6.04091755 12.5474468 7.79583777 12.5350798 14.5350665 18.7788298 13.6575399 18.7664628 20.3967686 12.5224468 21.2742952 12.5350798 14.5350665 6.29026596 15.4127261 6.26526596 28.8919814 12.5099468 28.0144548 12.4974468 34.7536835 18.7413298 33.8761569 18.7288298 40.6153856 24.9727128 39.737859 24.9602128 46.4778856 31.2048936 45.600359 31.2173936 38.8601995 37.4612766 37.9826729 37.4739096 31.2434441 43.7177926 30.3659176 43.7302926 23.6266888 49.9749734 22.7490293 49.9999734 9.26977394 43.7552926 10.1473005 43.7677926 3.40807181"></polygon>
                </g>
            </g>
        </g>
    </g>
</svg>