<?xml version="1.0" encoding="UTF-8"?>
<svg width="48px" height="48px" viewBox="0 0 48 48" version="1.1" xmlns="http://www.w3.org/2000/svg"
     xmlns:xlink="http://www.w3.org/1999/xlink">
  <!-- Generator: Sketch 62 (91390) - https://sketch.com -->
  <title>facebook</title>
  <desc>Created with Sketch.</desc>
  <g id="Exports" stroke="none" stroke-width="1" fill="currentColor" fill-rule="evenodd">
    <g id="Artboard" transform="translate(-707.000000, -600.000000)" fill="currentColor" fill-rule="nonzero">
      <path
        d="M734.59375,647 C745.589194,645.262626 754,635.689437 754,624.139959 C754,611.356998 743.705645,601 731,601 C718.294355,601 708,611.356998 708,624.139959 C708,635.689437 716.410806,645.262626 727.40625,647 L727.40625,630.829127 L721.563508,630.829127 L721.563508,624.139959 L727.40625,624.139959 L727.40625,619.041737 C727.40625,613.242714 730.837702,610.039502 736.09338,610.039502 C738.610363,610.039502 741.242459,610.49109 741.242459,610.49109 L741.242459,616.182774 L738.341466,616.182774 C735.485033,616.182774 734.59375,617.966801 734.59375,619.79657 L734.59375,624.139959 L740.972566,624.139959 L739.952404,630.829127 L734.59375,630.829127 L734.59375,647 Z"
        id="facebook"></path>
    </g>
  </g>
</svg>
