<?xml version="1.0" encoding="UTF-8"?>
<svg width="48px" height="48px" viewBox="0 0 48 48" version="1.1" xmlns="http://www.w3.org/2000/svg" xmlns:xlink="http://www.w3.org/1999/xlink">
    <!-- Generator: Sketch 62 (91390) - https://sketch.com -->
    <title>insta</title>
    <desc>Created with Sketch.</desc>
    <g id="Exports" stroke="none" stroke-width="1" fill="none" fill-rule="evenodd">
        <g id="Artboard" transform="translate(-921.000000, -601.000000)" fill="currentColor" fill-rule="nonzero">
            <path d="M953.678808,645.866348 C957.044462,645.706955 960.025686,644.938188 962.481949,642.472587 C964.93812,640.016325 965.706886,637.0351 965.875617,633.669447 C966.072547,630.200705 966.072547,619.813248 965.875617,616.344506 C965.716316,612.978853 964.947549,609.997628 962.481949,607.541366 C960.025686,605.085195 957.044462,604.316428 953.678808,604.147697 C950.210066,603.950768 939.813179,603.950768 936.344438,604.147697 C932.988214,604.306998 930.006989,605.075765 927.541389,607.532027 C925.075788,609.98829 924.31636,612.969514 924.147628,616.335168 C923.950791,619.80391 923.950791,630.200705 924.147628,633.669447 C924.307021,637.0351 925.075788,640.016325 927.541389,642.472587 C930.006989,644.92885 932.978876,645.697525 936.344438,645.866348 C939.813179,646.063186 950.210066,646.063186 953.678808,645.866348 Z M945.016292,642.228783 C941.960086,642.228783 935.388263,642.472587 932.631983,641.385035 C930.794524,640.653805 929.378848,639.23822 928.638279,637.391331 C927.541389,634.625713 927.794531,628.063228 927.794531,625.007022 C927.794531,621.950725 927.550727,615.378902 928.638279,612.622622 C929.369509,610.785163 930.785094,609.369486 932.631983,608.628918 C935.305414,607.56859 941.526806,607.769794 944.699254,607.784386 L945.016292,607.78517 C948.07259,607.78517 954.644412,607.541366 957.400692,608.628918 C959.238151,609.360148 960.653828,610.775733 961.394396,612.622622 C962.454724,615.296053 962.25352,621.517445 962.238929,624.689976 L962.238144,625.007022 C962.238144,628.063228 962.491287,634.635051 961.394396,637.391331 C960.663166,639.22879 959.247581,640.644467 957.400692,641.385035 C954.635074,642.481926 948.07259,642.228783 945.016292,642.228783 Z M956.22882,616.30697 C957.616299,616.30697 958.741296,615.191402 958.741296,613.794494 C958.741296,612.407016 957.616299,611.282018 956.22882,611.282018 C954.841342,611.282018 953.716345,612.407016 953.716345,613.794494 C953.716345,615.181973 954.831912,616.30697 956.22882,616.30697 Z M945.016292,635.778817 C950.978833,635.778817 955.788178,630.969472 955.788178,625.007022 C955.788178,619.044482 950.978833,614.235136 945.016292,614.235136 C939.053843,614.235136 934.244498,619.044482 934.244498,625.007022 C934.244498,630.969472 939.053843,635.778817 945.016292,635.778817 Z M945.016292,632.010057 C941.163213,632.010057 938.013257,628.86944 938.013257,625.007022 C938.013257,621.144513 941.153875,618.003896 945.016292,618.003896 C948.878801,618.003896 952.019419,621.144513 952.019419,625.007022 C952.019419,628.86944 948.869463,632.010057 945.016292,632.010057 Z" id="insta"></path>
        </g>
    </g>
</svg>
