<?xml version="1.0" encoding="UTF-8"?>
<svg width="48px" height="48px" viewBox="0 0 48 48" version="1.1" xmlns="http://www.w3.org/2000/svg" xmlns:xlink="http://www.w3.org/1999/xlink">
    <!-- Generator: Sketch 62 (91390) - https://sketch.com -->
    <title>medium</title>
    <desc>Created with Sketch.</desc>
    <g id="Exports" stroke="none" stroke-width="1" fill="none" fill-rule="evenodd">
        <g id="Artboard" transform="translate(-1023.000000, -601.000000)" fill="currentColor" fill-rule="nonzero">
            <path d="M1067.9999,645.9999 L1067.9999,604 L1026,604 L1026,645.9999 L1067.9999,645.9999 Z M1060.84681,635.865586 L1049.78434,635.865586 L1049.78434,635.406175 L1052.06244,633.193717 C1052.26247,632.993685 1052.2847,632.919593 1052.28717,632.668587 L1052.28747,619.731194 L1045.94993,635.818711 L1045.09685,635.818711 L1037.71872,619.731194 L1037.71872,630.512418 C1037.65308,630.962399 1037.81247,631.42181 1038.13126,631.749934 L1041.09371,635.340532 L1041.09371,635.818711 L1032.675,635.818711 L1032.675,635.340532 L1035.63746,631.749934 C1035.95624,631.42181 1036.09687,630.962399 1036.02189,630.512418 L1036.02189,618.043698 C1036.05933,617.696806 1035.92814,617.359343 1035.66557,617.124969 L1033.03123,613.946815 L1033.03123,613.468727 L1041.21557,613.468727 L1047.53434,627.343694 L1053.09369,613.478066 L1060.89369,613.478066 L1060.89369,613.946815 L1058.64369,616.10306 C1058.44676,616.253114 1058.35301,616.496827 1058.39055,616.731201 L1058.39055,632.60302 C1058.35301,632.846825 1058.44676,633.090537 1058.64369,633.231162 L1060.84681,635.387407 L1060.84681,635.865586 Z" id=""></path>
        </g>
    </g>
</svg>
