<?xml version="1.0" encoding="UTF-8"?>
<svg width="48px" height="48px" viewBox="0 0 48 48" version="1.1" xmlns="http://www.w3.org/2000/svg" xmlns:xlink="http://www.w3.org/1999/xlink">
    <!-- Generator: Sketch 62 (91390) - https://sketch.com -->
    <title>twitter</title>
    <desc>Created with Sketch.</desc>
    <g id="Exports" stroke="none" stroke-width="1" fill="none" fill-rule="evenodd">
        <g id="Artboard" transform="translate(-819.000000, -600.000000)" fill="currentColor" fill-rule="nonzero">
            <path d="M834.106531,643.984618 C852.197949,643.984618 862.096333,628.999851 862.096333,615.994908 C862.096333,615.568548 862.096333,615.142005 862.065846,614.715645 C863.984603,613.314616 865.659831,611.578598 866.999702,609.629445 C865.233288,610.390795 863.314531,610.939103 861.334799,611.152238 C863.375321,609.93404 864.928601,608.015282 865.659648,605.730955 C863.771195,606.857875 861.639303,607.6802 859.416041,608.10656 C857.618957,606.187802 855.060705,605 852.228162,605 C846.776484,605 842.390661,609.416219 842.390661,614.837501 C842.390661,615.598943 842.48203,616.360294 842.634282,617.091249 C834.472009,616.664798 827.19276,612.7664 822.350181,606.796901 C821.497278,608.258812 821.010127,609.933948 821.010127,611.761336 C821.010127,615.172492 822.746054,618.187682 825.395767,619.954188 C823.781696,619.893397 822.25872,619.43655 820.949153,618.705595 L820.949153,618.82736 C820.949153,623.609056 824.329913,627.568336 828.837501,628.482122 C828.015268,628.695256 827.131969,628.817112 826.248762,628.817112 C825.609085,628.817112 824.999986,628.75623 824.390795,628.664861 C825.639572,632.56335 829.263953,635.395802 833.588802,635.487263 C830.208042,638.136975 825.974471,639.690255 821.375605,639.690255 C820.55328,639.690255 819.791929,639.659768 819,639.568491 C823.355336,642.370364 828.532906,643.984618 834.106531,643.984618 Z" id="twitter"></path>
        </g>
    </g>
</svg>
