<?xml version="1.0" encoding="UTF-8"?>
<svg width="310px" height="310px" viewBox="0 0 310 310" version="1.1" xmlns="http://www.w3.org/2000/svg" xmlns:xlink="http://www.w3.org/1999/xlink">
    <!-- Generator: Sketch 62 (91390) - https://sketch.com -->
    <title>flex</title>
    <desc>Created with Sketch.</desc>
    <g id="Website-pages" stroke="none" stroke-width="1" fill="none" fill-rule="evenodd">
        <g id="Homepage" transform="translate(-110.000000, -1231.000000)" fill="#009ADE">
            <path d="M188.594084,1333 C191.126653,1333 193.260476,1333.18809 195.158342,1333.49746 C197.963169,1333.95886 200,1336.42831 200,1339.2802 C200,1342.71477 197.074548,1345.41502 193.67151,1345.11761 C193.048909,1345.06295 192.402106,1345.03258 191.737154,1345.03258 C186.381609,1345.03258 183.589072,1347.95717 183.589072,1354.38313 L183.589072,1357.76893 L194.064394,1357.76893 C197.280065,1357.76893 199.885236,1360.38433 199.885236,1363.61241 C199.885236,1366.84048 197.280065,1369.45569 194.064394,1369.45569 L183.81879,1369.45569 L183.81879,1411.93062 C183.81879,1415.83228 180.66362,1419 176.776946,1419 C172.890271,1419 169.735102,1415.83228 169.735102,1411.93062 L169.735102,1369.45569 L164.881155,1369.45569 C161.635421,1369.45569 159,1366.81618 159,1363.55167 C159,1360.29342 161.635421,1357.65372 164.881155,1357.65372 L169.735102,1357.65372 L169.735102,1353.21227 C169.735102,1346.31902 171.481902,1341.17969 174.739925,1337.90911 C177.997948,1334.63226 182.537286,1333 188.594084,1333 Z M215.000094,1334 C218.863621,1334 222,1337.15632 222,1341.04417 L222,1411.95602 C222,1415.84387 218.863621,1419 215.000094,1419 C211.136567,1419 208,1415.84387 208,1411.95602 L208,1341.04417 C208,1337.23731 211.007238,1334.13183 214.759592,1334.00409 L215.000094,1334 Z M268.463352,1355.5061 C284.097614,1358.37255 292,1372.25306 292,1387.96801 C292,1390.15263 290.213462,1391.92101 288.00618,1391.92101 L246.938872,1391.92101 C246.554748,1391.92101 246.261982,1392.26513 246.329118,1392.63908 C248.085331,1402.18037 255.121817,1407.49099 264.054891,1407.49099 C269.316855,1407.49099 273.420724,1406.0186 277.256051,1403.22426 C279.487937,1401.60123 282.530411,1401.64937 284.603612,1403.47192 C287.225725,1405.77716 287.231638,1409.89911 284.518357,1412.0958 C279.201274,1416.39273 272.457172,1419 263.823158,1419 C245.853445,1419 232,1406.09712 232,1387.15329 L232,1386.31459 C232,1367.13536 249.408403,1352.00559 268.463352,1355.5061 Z M355.918011,1358.08905 C358.695,1360.86737 358.695,1365.42358 355.911982,1368.2019 L307.19634,1416.91703 C304.413133,1419.69536 299.865149,1419.69536 297.08213,1416.91081 C294.304953,1414.13249 294.304953,1409.57628 297.08816,1406.79777 L345.803801,1358.08283 C348.586632,1355.30469 353.134804,1355.30469 355.918011,1358.08905 Z M342.33247,1387.2029 C342.596928,1386.93237 343.033524,1386.93237 343.304136,1387.2029 C343.482621,1387.38742 343.531473,1387.63968 343.476081,1387.87346 C342.486337,1392.41306 345.197845,1395.77202 345.843506,1396.49165 L345.843506,1396.49165 L355.860201,1406.51272 C358.713266,1409.37294 358.713266,1414.00491 355.860201,1416.85916 L355.860201,1416.85916 L355.667403,1417.04523 C352.802223,1419.7122 348.313376,1419.65018 345.517695,1416.85916 L345.517695,1416.85916 L335.753148,1407.08438 C332.082284,1403.41217 332.082284,1397.45737 335.753148,1393.78516 L335.753148,1393.78516 L339.442669,1390.0941 Z M367.7771,1414 L368.912586,1417.03663 L370.035571,1414 L371,1414 L371,1418 L370.371732,1418 L370.371732,1414.65783 L370.35288,1414.65783 L369.096741,1418 L368.703428,1418 L367.447289,1414.65783 L367.43439,1414.65783 L367.43439,1418 L366.800169,1418 L366.800169,1414 L367.7771,1414 Z M366.019695,1414 L366.019695,1414.53167 L364.827058,1414.53167 L364.827058,1418 L364.198988,1418 L364.198988,1414.53167 L363,1414.53167 L363,1414 L366.019695,1414 Z M297.332602,1356.95449 C300.197779,1354.2879 304.68645,1354.34991 307.482137,1357.14054 L307.482137,1357.14054 L317.246702,1366.91545 C320.917766,1370.58764 320.917766,1376.54241 317.246702,1380.21478 L317.246702,1380.21478 L313.557366,1383.90563 L310.673522,1386.79681 C310.403102,1387.06773 309.966313,1387.06773 309.695892,1386.79681 C309.517407,1386.61229 309.468362,1386.36004 309.523754,1386.12626 C310.513693,1381.58668 307.80218,1378.22774 307.156325,1377.50812 L307.156325,1377.50812 L297.139803,1367.4873 C294.286732,1364.6269 294.286732,1359.99497 297.139803,1357.14054 L297.139803,1357.14054 Z M262.176613,1366.46561 C253.701093,1366.46561 247.689001,1372.76594 246.195037,1381.91516 C246.134005,1382.28307 246.432874,1382.62096 246.804791,1382.62096 L277.219622,1382.62096 C277.585436,1382.62096 277.878011,1382.30138 277.829185,1381.93932 C276.695123,1373.20067 271.335317,1366.46561 262.176613,1366.46561 Z" id="Combined-Shape"></path>
        </g>
    </g>
</svg>