<?xml version="1.0" encoding="UTF-8"?>
<svg width="212px" height="86px" viewBox="0 0 212 86" version="1.1" xmlns="http://www.w3.org/2000/svg" xmlns:xlink="http://www.w3.org/1999/xlink">
    <!-- Generator: Sketch 63.1 (92452) - https://sketch.com -->
    <title>flex</title>
    <desc>Created with Sketch.</desc>
    <g id="Exports" stroke="none" stroke-width="1" fill="none" fill-rule="evenodd">
        <g id="Artboard" transform="translate(-241.000000, -211.000000)" fill="#009ADE">
            <g id="Group-13" transform="translate(192.000000, 109.000000)">
                <path d="M78.5940845,102 C81.1266526,102 83.260476,102.188089 85.1583423,102.497459 C87.9631686,102.958856 90,105.428308 90,108.280203 C90,111.714774 87.0745482,114.41502 83.6715102,114.117608 C83.0489087,114.062946 82.4021065,114.032579 81.7371537,114.032579 C76.3816087,114.032579 73.5890719,116.957165 73.5890719,123.383132 L73.5890719,126.768926 L84.0643939,126.768926 C87.2800653,126.768926 89.8852356,129.384333 89.8852356,132.612405 C89.8852356,135.840478 87.2800653,138.455694 84.0643939,138.455694 L73.8187897,138.455694 L73.8187897,180.93062 C73.8187897,184.832283 70.6636201,188 66.7769457,188 C62.8902713,188 59.7351017,184.832283 59.7351017,180.93062 L59.7351017,138.455694 L54.8811545,138.455694 C51.6354212,138.455694 49,135.816184 49,132.55167 C49,129.29342 51.6354212,126.653719 54.8811545,126.653719 L59.7351017,126.653719 L59.7351017,122.212273 C59.7351017,115.319025 61.4819025,110.179694 64.7399252,106.909107 C67.9979479,103.632257 72.5372856,102 78.5940845,102 Z M105.000094,103 C108.863621,103 112,106.156316 112,110.044169 L112,180.956021 C112,184.843874 108.863621,188 105.000094,188 C101.136567,188 98,184.843874 98,180.956021 L98,110.044169 C98,106.237313 101.007238,103.131831 104.759592,103.004088 L105.000094,103 Z M158.463352,124.506105 C174.097614,127.372551 182,141.253057 182,156.968012 C182,159.152627 180.213462,160.921008 178.00618,160.921008 L136.938872,160.921008 C136.554748,160.921008 136.261982,161.265132 136.329118,161.639082 C138.085331,171.180373 145.121817,176.490989 154.054891,176.490989 C159.316855,176.490989 163.420724,175.018597 167.256051,172.224261 C169.487937,170.601232 172.530411,170.649368 174.603612,172.471925 C177.225725,174.777163 177.231638,178.899106 174.518357,181.095802 C169.201274,185.392733 162.457172,188 153.823158,188 C135.853445,188 122,175.097125 122,156.153288 L122,155.314591 C122,136.135361 139.408403,121.005587 158.463352,124.506105 Z M245.918011,127.089046 C248.695,129.867371 248.695,134.423575 245.911982,137.2019 L197.19634,185.917033 C194.413133,188.695358 189.865149,188.695358 187.08213,185.910812 C184.304953,183.132487 184.304953,178.576283 187.08816,175.79777 L235.803801,127.082825 C238.586632,124.304689 243.134804,124.304689 245.918011,127.089046 Z M232.33247,156.2029 C232.596928,155.932367 233.033524,155.932367 233.304136,156.2029 C233.482621,156.387424 233.531473,156.639678 233.476081,156.87346 C232.486337,161.413065 235.197845,164.772022 235.843506,165.491647 L235.843506,165.491647 L245.860201,175.51272 C248.713266,178.372942 248.713266,183.004905 245.860201,185.859163 L245.860201,185.859163 L245.667403,186.04523 C242.802223,188.712203 238.313376,188.65018 235.517695,185.859163 L235.517695,185.859163 L225.753148,176.084379 C222.082284,172.412173 222.082284,166.457369 225.753148,162.785163 L225.753148,162.785163 L229.442669,159.094101 Z M257.7771,183 L258.912586,186.036633 L260.035571,183 L261,183 L261,187 L260.371732,187 L260.371732,183.657833 L260.35288,183.657833 L259.096741,187 L258.703428,187 L257.447289,183.657833 L257.43439,183.657833 L257.43439,187 L256.800169,187 L256.800169,183 L257.7771,183 Z M256.019695,183 L256.019695,183.531671 L254.827058,183.531671 L254.827058,187 L254.198988,187 L254.198988,183.531671 L253,183.531671 L253,183 L256.019695,183 Z M187.332602,125.954494 C190.197779,123.287897 194.68645,123.349911 197.482137,126.140536 L197.482137,126.140536 L207.246702,135.915453 C210.917766,139.587637 210.917766,145.542405 207.246702,149.214781 L207.246702,149.214781 L203.557366,152.905629 L200.673522,155.796813 C200.403102,156.067729 199.966313,156.067729 199.695892,155.796813 C199.517407,155.61229 199.468362,155.360038 199.523754,155.126257 C200.513693,150.586679 197.80218,147.227742 197.156325,146.508121 L197.156325,146.508121 L187.139803,136.487302 C184.286732,133.626904 184.286732,128.994969 187.139803,126.140536 L187.139803,126.140536 Z M152.176613,135.465611 C143.701093,135.465611 137.689001,141.76594 136.195037,150.915159 C136.134005,151.283068 136.432874,151.620963 136.804791,151.620963 L167.219622,151.620963 C167.585436,151.620963 167.878011,151.301379 167.829185,150.939321 C166.695123,142.200673 161.335317,135.465611 152.176613,135.465611 Z" id="flex"></path>
            </g>
        </g>
    </g>
</svg>