<?xml version="1.0" encoding="UTF-8"?>
<svg width="930px" height="200px" viewBox="0 0 930 200" version="1.1" xmlns="http://www.w3.org/2000/svg" xmlns:xlink="http://www.w3.org/1999/xlink">
    <!-- Generator: Sketch 63.1 (92452) - https://sketch.com -->
    <title>flex</title>
    <desc>Created with Sketch.</desc>
    <defs>
        <polygon id="path-1" points="0.082299116 0.423175378 138.4583 0.423175378 138.4583 149.779736 0.082299116 149.779736"></polygon>
        <polygon id="path-3" points="0.397419836 0.371497797 18.1299982 0.371497797 18.1299982 8.84947137 0.397419836 8.84947137"></polygon>
    </defs>
    <g id="Launch" stroke="none" stroke-width="1" fill="none" fill-rule="evenodd">
        <g id="Homepage-Launch" transform="translate(-410.000000, -1100.000000)">
            <g id="flex-logo" transform="translate(628.000000, 1100.000000)">
                <path d="M320.435721,57.1844493 L320.435721,57.1844493 C313.910734,63.7196916 313.910734,74.3245374 320.435721,80.8734361 L343.343555,103.816167 C344.820628,105.463744 351.021873,113.154053 348.757878,123.547445 C348.631196,124.082687 348.743362,124.66022 349.151559,125.082687 C349.770012,125.702952 350.76895,125.702952 351.387403,125.082687 L357.982768,118.463304 L366.420297,110.013084 C374.816039,101.605154 374.816039,87.971674 366.420297,79.564185 L344.088689,57.1844493 C337.549627,50.6500881 326.960708,50.6500881 320.435721,57.1844493" id="Fill-1" fill="#009ADE"></path>
                <path d="M457.630811,194.670485 L457.630811,194.670485 C464.155798,188.135683 464.155798,177.530837 457.630811,170.982379 L434.722537,148.039207 C433.245904,146.39163 427.044659,138.701322 429.308214,128.30793 C429.434896,127.772687 429.32317,127.195154 428.914973,126.772687 C428.29608,126.153304 427.297582,126.153304 426.692765,126.772687 L420.083764,133.39207 L411.645795,141.842731 C403.250493,150.25022 403.250493,163.8837 411.645795,172.291189 L433.977403,194.670485 C440.516465,201.205727 451.105824,201.205727 457.630811,194.670485" id="Fill-3" fill="#009ADE"></path>
                <path d="M320.371281,171.056167 L434.095815,57.2169604 C440.592211,50.7248899 451.20972,50.7248899 457.706996,57.2314978 C464.189756,63.7240088 464.189756,74.3711454 457.69292,80.8636564 L343.968386,194.703304 C337.47111,201.195815 326.85404,201.195815 320.357205,194.688767 C313.874005,188.196256 313.874005,177.549119 320.371281,171.056167" id="Fill-5" fill="#009ADE"></path>
                <path d="M24.9754284,84.6155507 L13.6827229,84.6155507 C6.13152607,84.6155507 0.000219933501,78.4891189 0.000219933501,70.9120264 C0.000219933501,63.3494714 6.13152607,57.2225991 13.6827229,57.2225991 L24.9754284,57.2225991 L24.9754284,46.9137885 C24.9754284,30.9142291 29.0393597,18.9855947 36.6191478,11.3944053 C44.198936,3.78867841 54.7597029,0.00013215859 68.8508423,0.00013215859 C74.7428608,0.00013215859 79.7071997,0.436696035 84.1225847,1.15475771 C90.6480117,2.22568282 95.3866989,7.95740088 95.3866989,14.5767841 C95.3866989,22.5485903 88.5806368,28.8159912 80.6634706,28.1256828 C79.2149886,27.9988106 77.7102036,27.928326 76.1631913,27.928326 C63.7035186,27.928326 57.206683,34.7164317 57.206683,49.6314097 L57.206683,57.49 L81.5775142,57.49 C89.0587722,57.49 95.1196996,63.5604846 95.1196996,71.0529956 C95.1196996,78.5455066 89.0587722,84.6155507 81.5775142,84.6155507 L57.7411214,84.6155507 L57.7411214,183.201894 C57.7411214,192.257841 50.4006209,199.610264 41.3582749,199.610264 C32.315929,199.610264 24.9754284,192.257841 24.9754284,183.201894 L24.9754284,84.6155507 Z" id="Fill-7" fill="#009ADE"></path>
                <path d="M129.699844,1.6238326 L129.699844,1.6238326 C138.74219,1.6238326 146.08269,8.97581498 146.08269,18.0317621 L146.08269,183.206211 C146.08269,192.262159 138.74219,199.6137 129.699844,199.6137 C120.657498,199.6137 113.316558,192.262159 113.316558,183.206211 L113.316558,18.0317621 C113.316558,8.97581498 120.657498,1.6238326 129.699844,1.6238326" id="Fill-9" fill="#009ADE"></path>
                <g id="Group-13" transform="translate(171.108264, 49.837445)">
                    <mask id="mask-2" fill="white">
                        <use xlink:href="#path-1"></use>
                    </mask>
                    <g id="Clip-12"></g>
                    <path d="M104.370806,64.8822467 C105.214471,64.8822467 105.889227,64.1364317 105.776621,63.2914978 C103.161172,42.8981057 90.8000297,27.1804846 69.6776163,27.1804846 C50.1308065,27.1804846 36.2653188,41.8835683 32.8198406,63.2351101 C32.6790832,64.0937004 33.3683547,64.8822467 34.2260954,64.8822467 L104.370806,64.8822467 Z M0.082299116,75.4593392 L0.082299116,73.5020705 C0.082299116,28.7434802 40.2307198,-6.56488987 84.1765124,1.60427313 C120.23329,8.29370044 138.4583,40.686652 138.4583,77.3606608 C138.4583,82.4588987 134.338066,86.5857709 129.247485,86.5857709 L34.5353219,86.5857709 C33.6494298,86.5857709 32.9742339,87.3888546 33.1290671,88.2615419 C37.1793625,110.528062 53.4073758,122.921454 74.0094265,122.921454 C86.1449172,122.921454 95.6095355,119.48533 104.454821,112.964185 C109.602145,109.17652 116.618903,109.288855 121.400257,113.542159 C127.447549,118.921894 127.461185,128.541278 121.203637,133.667709 C108.941025,143.695463 93.3873274,149.780044 73.4749881,149.780044 C32.0320388,149.780044 0.082299116,119.66859 0.082299116,75.4593392 L0.082299116,75.4593392 Z" id="Fill-11" fill="#009ADE" mask="url(#mask-2)"></path>
                </g>
                <g id="Group-16" transform="translate(474.616495, 188.603965)">
                    <mask id="mask-4" fill="white">
                        <use xlink:href="#path-3"></use>
                    </mask>
                    <g id="Clip-15"></g>
                    <path d="M18.1302181,8.84947137 L16.7375992,8.84947137 L16.7375992,1.76577093 L16.6958119,1.76577093 L13.9114537,8.84947137 L13.0396373,8.84947137 L10.2552792,1.76577093 L10.2266879,1.76577093 L10.2266879,8.84947137 L8.82087292,8.84947137 L8.82087292,0.371497797 L10.9863382,0.371497797 L13.5032572,6.80762115 L15.9924645,0.371497797 L18.1302181,0.371497797 L18.1302181,8.84947137 Z M7.090876,1.49837004 L4.44727532,1.49837004 L4.44727532,8.84947137 L3.05509626,8.84947137 L3.05509626,1.49837004 L0.397419836,1.49837004 L0.397419836,0.371497797 L7.090876,0.371497797 L7.090876,1.49837004 Z" id="Fill-14" fill="#009ADE" mask="url(#mask-4)"></path>
                </g>
            </g>
        </g>
    </g>
</svg>