<?xml version="1.0" encoding="UTF-8"?>
<svg width="400px" height="400px" viewBox="0 0 400 400" version="1.1" xmlns="http://www.w3.org/2000/svg" xmlns:xlink="http://www.w3.org/1999/xlink">
    <!-- Generator: Sketch 63.1 (92452) - https://sketch.com -->
    <title>code of conduct</title>
    <desc>Created with Sketch.</desc>
    <g id="Exports" stroke="none" stroke-width="1" fill="none" fill-rule="evenodd">
        <g id="Artboard" transform="translate(-2812.000000, -1198.000000)">
            <g id="Group-4" transform="translate(2812.000000, 1198.000000)">
                <rect id="Rectangle" x="0" y="0" width="400" height="400"></rect>
                <g id="Group-5" transform="translate(44.000000, 75.000000)">
                    <polygon id="Fill-1" fill="#00C052" points="214.041906 -0.000546 187.273086 3.761394 187.220046 32.652594 231.721386 56.861454 240.680466 55.601754 240.650826 72.316374 231.689406 67.442154 231.708906 56.863014 187.208346 32.654154 160.447326 36.416094 160.392726 65.300274 149.114706 66.885234 124.709286 53.608074 124.728786 43.014114 80.227446 18.806034 53.467206 22.567194 53.413386 51.458394 80.128386 65.990574 80.108886 76.583754 68.830866 78.168714 26.645346 55.220334 0.160446 58.942494 0.000546 145.589574 26.456586 159.981354 26.383266 199.641234 53.110746 214.181214 53.091246 224.764254 97.591806 248.973114 124.353606 245.211174 124.407426 216.326994 189.214506 207.219714 231.399246 230.167314 258.160266 226.406154 258.214866 197.521974 284.982126 193.760814 285.077286 135.986994 311.839086 132.225054 311.999766 45.955494 311.999766 45.578754 267.499206 21.370674 256.236006 22.953294"></polygon>
                    <polygon id="Fill-2" fill="#FEB600" points="258.542232 24.207924 258.489192 53.099124 231.721152 56.861064 231.775752 27.969864"></polygon>
                    <polygon id="Fill-3" fill="#FEB600" points="124.729566 43.014192 124.675746 71.905392 97.913946 75.666552 97.967766 46.775352"></polygon>
                    <path d="M285.238746,49.339524 L285.131106,107.115684 L258.369306,110.876064 L258.423126,81.985644 L231.655866,85.747584 L231.708906,56.862624 L204.947106,60.623784 L204.894066,89.507964 L151.377486,97.029504 L151.432086,68.145324 L124.663266,71.906484 L124.610226,100.791444 L97.848426,104.552604 L97.793826,133.443804 L71.027346,137.204964 L71.145906,79.428804 L44.661786,83.150964 L44.500326,169.797264 L70.991466,166.074324 L70.884606,223.849704 L97.646406,220.088544 L97.592586,248.972724 L124.352826,245.211564 L124.406646,216.327384 L231.453066,201.283524 L231.399246,230.167704 L258.160266,226.406544 L258.214866,197.521584 L284.982126,193.759644 L285.077286,135.986604 L311.839086,132.225444 L311.999766,45.579144 L285.238746,49.339524 Z M204.852726,118.391364 L231.613746,114.629424 L231.559926,143.521404 L204.799686,147.281784 L204.852726,118.391364 Z M124.561866,129.674844 L151.324446,125.913684 L151.269846,154.804884 L124.508826,158.566044 L124.561866,129.674844 Z" id="Fill-4" fill="#FEB600"></path>
                </g>
            </g>
        </g>
    </g>
</svg>