<?xml version="1.0" encoding="UTF-8"?>
<svg width="400px" height="400px" viewBox="0 0 400 400" version="1.1" xmlns="http://www.w3.org/2000/svg" xmlns:xlink="http://www.w3.org/1999/xlink">
    <!-- Generator: Sketch 63.1 (92452) - https://sketch.com -->
    <title>FAQ menu</title>
    <desc>Created with Sketch.</desc>
    <g id="Exports" stroke="none" stroke-width="1" fill="none" fill-rule="evenodd">
        <g id="Artboard" transform="translate(-3852.000000, -1398.000000)">
            <g id="Group-4" transform="translate(3852.000000, 1398.000000)">
                <rect id="Rectangle" x="0" y="0" width="400" height="400"></rect>
                <g id="Group-33" transform="translate(47.000000, 44.000000)">
                    <polygon id="Fill-1" fill="#FEB600" points="241.396907 -0.000185714286 204.083193 8.00317143 203.827836 20.6958143 216.079407 27.4437429 215.251121 68.8171714 232.871693 78.5244571 245.304336 75.8650286 246.323907 25.0656714 258.763979 22.3978857 259.018407 9.70617143 259.018407 9.70617143"></polygon>
                    <path d="M22.6488786,60.3887143 L21.9023071,97.6365 L21.9013786,97.6365 L22.6488786,60.3887143 Z M171.685521,41.0735 L178.674879,39.5738571 L178.436236,51.4307857 L171.447807,52.9295 L171.685521,41.0735 Z M16.1953071,111.504714 L33.8158786,121.211071 L46.2578071,118.543286 L46.4463071,109.126643 L58.6988071,115.8755 L71.1388786,113.207714 L71.3942357,100.507643 L79.4978786,98.7693571 L96.0218071,107.871214 L108.461879,105.203429 L108.971664,79.8042143 L115.960093,78.3055 L115.722379,90.1615 L133.343879,99.8678571 L145.784879,97.2000714 L145.974307,87.7825 L158.225879,94.5322857 L170.666879,91.8635714 L170.922236,79.1644286 L179.028664,77.428 L195.548879,86.528 L207.989879,83.8602143 L209.007593,33.0692143 L196.756021,26.3203571 L196.82195,23.0378571 L179.201379,13.3315 L154.319379,18.6670714 L154.064021,31.3671429 L145.960379,33.1045 L129.437379,24.0035714 L116.99545,26.6704286 L116.487521,52.0705714 L109.497236,53.5692857 L109.735879,41.7132857 L92.1153071,32.0069286 L79.6733786,34.6747143 L79.4848786,44.0922857 L67.2323786,37.3425 L54.7913786,40.0112143 L54.34845,62.1279286 L42.09595,55.3781429 L33.9923071,57.1164286 L17.4683786,48.0145714 L5.02737857,50.6823571 L4.00966429,101.473357 L16.2612357,108.222214 L16.1953071,111.504714 Z" id="Fill-2" fill="#FEB600"></path>
                    <path d="M20.7717714,153.999857 L52.6422,147.164643 L52.6422,147.165571 L20.7717714,153.999857 L20.7058429,157.282357 L20.7717714,153.999857 Z M14.3182,205.115857 L31.9387714,214.822214 L44.3797714,212.154429 L45.3984143,161.363429 L52.3877714,159.864714 L51.6402714,197.111571 L69.2617714,206.817929 L81.7027714,204.150143 L82.2125571,178.759286 L89.2009857,177.260571 L88.9642,189.108214 L106.584771,198.814571 L119.025771,196.146786 L119.214271,186.729214 L131.466771,193.479 L168.788843,185.483071 L169.0442,172.783929 L169.0442,172.783 L152.5212,163.682071 L169.298629,160.083857 L169.553986,147.383786 L153.030057,138.281929 L169.808414,134.683714 L170.061914,121.992 L152.441343,112.286571 L115.118343,120.281571 L114.929843,129.699143 L102.677343,122.950286 L90.2372714,125.618071 L89.7284143,151.017286 L82.7381286,152.516 L82.9758429,140.66 L65.3552714,130.953643 L52.9142714,133.621429 L52.7248429,143.038071 L40.4742,136.289214 L3.15027143,144.2935 L2.89584286,156.993571 L15.1474143,163.742429 L14.3182,205.115857 Z" id="Fill-3" fill="#FEB600"></path>
                    <path d="M237.642879,187.221543 L237.45345,196.638186 L225.201879,189.889329 L212.769236,192.557114 L212.513879,205.257186 L204.411164,206.995471 L187.887236,197.893614 L175.445307,200.562329 L175.257736,209.978043 L163.005236,203.229186 L138.122307,208.564757 L137.868807,221.264829 L125.426879,223.932614 L125.238379,233.349257 L118.356736,229.5579 L118.421736,226.2754 L100.800236,216.569043 L75.9200929,221.904614 L75.6647357,234.596329 L67.5490214,236.336471 L51.0362357,227.240186 L38.5961643,229.9089 L38.0873071,255.300686 L31.09795,256.7994 L31.3347357,244.942471 L13.7141643,235.236114 L1.27316429,237.9039 L9.28571429e-05,301.353186 L9.28571429e-05,301.3959 L17.6206643,311.101329 L30.0625929,308.432614 L30.5705214,283.041757 L37.5608071,281.543043 L37.3230929,293.391614 L54.9436643,303.097971 L67.3846643,300.429257 L67.5731643,291.020971 L79.8247357,297.769829 L92.2666643,295.101114 L92.5210929,282.401971 L100.623807,280.664614 L117.147736,289.765543 L129.589664,287.097757 L130.032593,264.981043 L136.916093,268.773329 L136.850164,272.055829 L154.470736,281.762186 L179.353664,276.425686 L179.542164,267.009971 L191.792807,273.7579 L204.234736,271.090114 L204.678593,248.9734 L211.561164,252.764757 L211.496164,256.047257 L229.115807,265.754543 L241.549379,263.085829 L241.803807,250.386686 L229.559664,243.642471 L229.624664,240.362757 L217.374021,233.6139 L217.43995,230.3314 L229.88095,227.663614 L230.13445,214.963543 L242.568021,212.295757 L242.75745,202.878186 L253.910521,209.022543 L249.575021,209.9539 L249.319664,222.652114 L266.940236,232.3594 L291.822236,227.0229 L292.076664,214.323757 L304.518593,211.655043 L304.772093,198.9559 L292.520521,192.206114 L292.587379,188.931971 L274.965879,179.226543 L237.642879,187.221543 Z M193.067736,210.267757 L192.829093,222.123757 L192.828164,222.123757 L193.067736,210.267757 Z M175.175093,214.104614 L155.743807,218.272043 L175.175093,214.104614 Z M155.489379,230.971186 L174.918807,226.804686 L174.239093,260.768114 L161.986593,254.020186 L154.996307,255.5189 L155.489379,230.971186 Z M93.2853071,244.302686 L100.273736,242.806757 L100.03695,254.659971 L93.0466643,256.158686 L93.2853071,244.302686 Z M142.793021,246.420757 L142.557164,258.185757 L142.556236,258.186686 L142.793021,246.420757 Z M18.8937357,247.610257 L18.65695,259.466257 L18.8937357,247.610257 Z M80.52395,262.953043 L80.5248786,262.953043 L80.3335929,272.434686 L80.52395,262.953043 Z M175.269807,264.656043 L154.726093,269.062114 L175.269807,264.656043 Z" id="Fill-4" fill="#FEB600"></path>
                    <polygon id="Fill-5" fill="#FEB600" points="249.065236 235.352743 248.810807 248.044457 266.431379 257.750814 278.872379 255.083029 279.126807 242.391314 261.505307 232.684029"></polygon>
                    <polygon id="Fill-6" fill="#00C052" points="71.1386 113.207529 71.3939571 100.507457 58.9529571 103.175243 58.6994571 115.875314"></polygon>
                    <polygon id="Fill-7" fill="#00C052" points="259.018407 9.7058 221.702836 17.7100857 221.449336 30.4018 233.889407 27.7330857 232.871693 78.5240857 245.303407 75.8646571 246.322979 25.0653 258.763979 22.3975143"></polygon>
                    <polygon id="Fill-8" fill="#00C052" points="196.822229 23.0376714 171.940229 28.3732429 171.6858 41.0733143 196.5678 35.7368143"></polygon>
                    <polygon id="Fill-9" fill="#00C052" points="170.921957 79.16415 195.803029 73.8360071 195.5486 86.5277214 207.9896 83.8599357 209.008243 33.0689357 196.567243 35.7367214 196.057457 61.1368643 171.175457 66.4733643 171.685243 41.0732214 159.244243 43.7410071 158.2256 94.5320071 170.667529 91.8632929"></polygon>
                    <polygon id="Fill-10" fill="#00C052" points="108.971571 79.8043071 133.853571 74.4678071 133.343786 99.8670214 145.785714 97.2001643 147.058786 33.7090929 134.616857 36.3768786 134.108 61.7770214 109.226 67.1125929 109.735786 41.7133786 97.2947857 44.3811643 96.0217143 107.871307 108.461786 105.203521"></polygon>
                    <polygon id="Fill-11" fill="#00C052" points="84.8532286 47.0490429 72.4131571 49.7168286 71.3945143 100.507829 83.8345857 97.8400429"></polygon>
                    <polygon id="Fill-12" fill="#00C052" points="46.2576214 118.543193 46.5111214 105.84405 34.07105 108.511836 33.8166214 121.211907"></polygon>
                    <polygon id="Fill-13" fill="#00C052" points="59.7165214 65.0850571 47.27645 67.7528429 46.5113071 105.843771 58.9532357 103.175986"></polygon>
                    <polygon id="Fill-14" fill="#00C052" points="35.0894143 57.7208357 22.6493429 60.3886214 21.6307 111.179621 34.0707714 108.511836"></polygon>
                    <polygon id="Fill-15" fill="#00C052" points="169.044014 172.783 144.162014 178.1195 144.417371 165.419429 169.298443 160.083857 169.5538 147.383786 144.6718 152.720286 144.9253 140.019286 169.808229 134.683714 170.062657 121.992 132.739657 129.987929 131.466586 193.479 168.789586 185.483071"></polygon>
                    <polygon id="Fill-16" fill="#00C052" points="82.2125571 178.759286 107.093629 173.423714 106.584771 198.814571 119.025771 196.146786 120.298843 132.656643 107.857843 135.3235 107.348986 160.723643 82.4660571 166.059214 82.9758429 140.66 70.5348429 143.327786 69.2617714 206.817929 81.7027714 204.150143"></polygon>
                    <polygon id="Fill-17" fill="#00C052" points="31.9391429 214.822121 44.3792143 212.154336 45.3978571 161.363336 57.8397857 158.69555 58.0942143 145.995479 20.7721429 153.999764 20.5167857 166.698907 32.9577857 164.031121"></polygon>
                    <polygon id="Fill-18" fill="#00C052" points="292.332021 201.623407 292.076664 214.323479 304.518593 211.655693 304.772093 198.955621"></polygon>
                    <polygon id="Fill-19" fill="#00C052" points="266.940236 232.358936 291.822236 227.023364 292.076664 214.323293 267.194664 219.659793"></polygon>
                    <polygon id="Fill-20" fill="#00C052" points="255.263264 196.927621 255.008836 209.627693 292.331836 201.623407 292.586264 188.932621"></polygon>
                    <polygon id="Fill-21" fill="#00C052" points="230.134729 214.963636 242.5683 212.294921 242.822729 199.595779 230.390086 202.263564"></polygon>
                    <polygon id="Fill-22" fill="#00C052" points="217.439393 230.331307 229.880393 227.663521 230.134821 214.96345 217.693821 217.631236"></polygon>
                    <polygon id="Fill-23" fill="#00C052" points="241.549657 263.086107 241.803157 250.386036 229.371443 253.05475 229.116086 265.754821"></polygon>
                    <polygon id="Fill-24" fill="#00C052" points="229.371164 253.054564 229.624664 240.36285 217.185521 243.031564 216.930164 255.72235"></polygon>
                    <polygon id="Fill-25" fill="#00C052" points="205.507621 207.599414 193.06755 210.268129 191.792621 273.758271 204.23455 271.090486 204.744336 245.690343 217.185336 243.030914 217.439764 230.330843 204.997836 232.999557"></polygon>
                    <polygon id="Fill-26" fill="#00C052" points="155.489936 230.971093 180.371007 225.634593 180.626364 212.93545 155.743436 218.27195"></polygon>
                    <polygon id="Fill-27" fill="#00C052" points="179.353479 276.425686 179.606979 263.726543 154.725907 269.062114 154.47055 281.762186"></polygon>
                    <polygon id="Fill-28" fill="#00C052" points="142.285 271.729807 154.725071 269.062021 155.490214 230.971093 143.048286 233.638879"></polygon>
                    <polygon id="Fill-29" fill="#00C052" points="118.421457 226.275121 93.5394571 231.611621 93.2850286 244.302407 118.167029 238.975193"></polygon>
                    <polygon id="Fill-30" fill="#00C052" points="117.657893 264.366514 92.7758929 269.702086 93.28475 244.302871 80.84375 246.970657 79.8251071 297.770014 92.2661071 295.1013 92.5214643 282.402157 117.402536 277.065657 117.148107 289.765729 129.590036 287.097943 130.60775 236.306943 118.16675 238.974729"></polygon>
                    <polygon id="Fill-31" fill="#00C052" points="56.2168286 239.614979 55.7079714 265.006764 30.8250429 270.341407 31.3348286 244.943121 18.8938286 247.609979 17.6207571 311.10105 30.0626857 308.432336 30.5706143 283.042407 55.4526143 277.705907 54.9437571 303.097693 67.3847571 300.428979 68.6569 236.946264"></polygon>
                    <polygon id="Fill-32" fill="#00C052" points="266.431564 257.750443 278.871636 255.082657 279.126993 242.390943 266.685993 245.058729"></polygon>
                </g>
            </g>
        </g>
    </g>
</svg>