<?xml version="1.0" encoding="UTF-8"?>
<svg width="400px" height="400px" viewBox="0 0 400 400" version="1.1" xmlns="http://www.w3.org/2000/svg" xmlns:xlink="http://www.w3.org/1999/xlink">
    <!-- Generator: Sketch 63.1 (92452) - https://sketch.com -->
    <title>prizes</title>
    <desc>Created with Sketch.</desc>
    <g id="Exports" stroke="none" stroke-width="1" fill="none" fill-rule="evenodd">
        <g id="Artboard" transform="translate(-3069.000000, -1881.000000)">
            <g id="Group-4" transform="translate(3069.000000, 1881.000000)">
                <rect id="Rectangle" x="0" y="0" width="400" height="400"></rect>
                <g id="Group-86" transform="translate(93.000000, 44.000000)">
                    <polygon id="Fill-1" fill="#2562E7" points="200.182252 206.20799 147.928357 177.782077 147.963626 158.958303 200.217522 187.384216"></polygon>
                    <polygon id="Fill-2" fill="#00C052" points="182.742198 208.659089 130.487624 180.233176 147.928424 177.782619 200.18232 206.207854"></polygon>
                    <polygon id="Fill-3" fill="#2562E7" points="173.294228 238.930617 121.040332 210.504704 121.074923 191.692461 173.329497 220.118374"></polygon>
                    <polygon id="Fill-4" fill="#00C052" points="155.853563 241.381649 103.599668 212.955736 121.040468 210.505179 173.294363 238.930414"></polygon>
                    <polygon id="Fill-5" fill="#00C052" points="186.67272 148.02623 134.418824 119.600317 147.838894 117.714751 200.09279 146.139986"></polygon>
                    <polygon id="Fill-6" fill="#2562E7" points="186.6462 162.51083 134.392304 134.084917 134.418757 119.600656 186.672652 148.026569"></polygon>
                    <polygon id="Fill-7" fill="#2562E7" points="121.943843 232.393743 69.6899478 203.96783 69.7279304 183.69529 121.981826 212.121203"></polygon>
                    <polygon id="Fill-8" fill="#00C052" points="103.161172 235.033398 50.9072765 206.607485 69.6896765 203.967694 121.943572 232.393607"></polygon>
                    <polygon id="Fill-9" fill="#2562E7" points="103.124071 255.30553 50.8694974 226.879617 50.90748 206.607757 103.161376 235.03367"></polygon>
                    <polygon id="Fill-10" fill="#00C052" points="84.3414 257.94539 32.0868261 229.519477 50.8692261 226.879685 103.1238 255.305598"></polygon>
                    <polygon id="Fill-11" fill="#2562E7" points="200.092857 146.14019 147.838962 117.714277 148.02684 16.3637896 200.280736 44.7897026"></polygon>
                    <polygon id="Fill-12" fill="#2562E7" points="103.198883 214.772322 50.9449878 186.346409 50.9829704 166.074548 103.236866 194.500461"></polygon>
                    <polygon id="Fill-13" fill="#00C052" points="65.5965078 240.330141 13.3426122 211.904228 32.1243339 209.264437 84.3782296 237.69035"></polygon>
                    <polygon id="Fill-14" fill="#00C052" points="65.9104748 179.479085 13.6565791 151.053172 134.39244 134.08512 186.646336 162.511033"></polygon>
                    <polygon id="Fill-15" fill="#00C052" points="92.9329304 74.3516348 40.6790348 45.9257217 121.166217 34.6143652 173.420113 63.0402783"></polygon>
                    <polygon id="Fill-16" fill="#2562E7" points="92.7719791 161.223219 40.5174052 132.797306 40.6788313 45.9263322 92.932727 74.351567"></polygon>
                    <path d="M52.7379026,51.0508643 L52.2536243,311.67803 L186.40345,292.824412 L186.431259,278.345577 L199.845224,276.46069 L199.872355,261.975751 L213.292424,260.090186 L213.722442,28.4254383 L52.7379026,51.0508643 Z M66.1260939,63.6441339 L200.281346,44.7898383 L200.09279,146.140325 L186.67272,148.026569 L186.64559,162.51083 L65.910407,179.478882 L66.1260939,63.6441339 Z M182.776111,189.835247 L200.216911,187.384012 L200.18232,206.207786 L182.742198,208.659021 L182.776111,189.835247 Z M65.6343548,220.052447 L84.4160765,217.411977 L84.4540591,197.140117 L103.236459,194.499647 L103.199155,214.772186 L121.981555,212.120864 L121.94425,232.394082 L103.161172,235.033195 L103.123868,255.305056 L84.3414678,257.945525 L84.3787722,237.690621 L65.5963722,240.330412 L65.6343548,220.052447 Z M155.888494,222.569473 L173.329294,220.118917 L173.294703,238.930482 L155.853903,241.381038 L155.888494,222.569473 Z" id="Fill-17" fill="#FEB600"></path>
                    <polygon id="Fill-18" fill="#FEB600" points="92.7719791 161.223219 92.932727 74.351567 173.41991 63.0402104 173.258483 149.911863"></polygon>
                    <polygon id="Fill-19" fill="#2562E7" points="0 283.25232 52.2538957 311.677555 52.7381739 51.0510678 0.484278261 22.6251548"></polygon>
                    <polygon id="Fill-20" fill="#00C052" points="161.468546 0.000203478261 0.484006957 22.6256296 52.7379026 51.0508643 213.722442 28.4254383"></polygon>
                    <polygon id="Fill-21" fill="#8F6600" points="165.993699 142.85483 136.051873 126.567073 136.063403 120.652638 166.004551 136.940395"></polygon>
                    <polygon id="Fill-22" fill="#BB8600" points="160.513962 143.624995 130.572136 127.337238 136.052483 126.567412 165.993631 142.855169"></polygon>
                    <polygon id="Fill-23" fill="#153781" points="160.513962 143.624995 130.572136 127.337238 130.582988 121.422803 160.524814 137.71056"></polygon>
                    <polygon id="Fill-24" fill="#1C48AA" points="160.524543 137.710424 130.582717 121.422668 136.063743 120.652842 166.004212 136.940598"></polygon>
                    <polygon id="Fill-25" fill="#8F6600" points="144.074071 145.93549 114.132245 129.647734 114.143776 123.733299 144.085602 140.021056"></polygon>
                    <polygon id="Fill-26" fill="#BB8600" points="138.594334 146.70552 108.653186 130.417763 114.132856 129.647937 144.074003 145.935694"></polygon>
                    <polygon id="Fill-27" fill="#8F6600" points="144.08533 140.02092 114.143504 123.733163 114.155035 117.818729 144.096183 134.106485"></polygon>
                    <polygon id="Fill-28" fill="#1C48AA" points="138.605593 140.790882 108.663767 124.503125 114.144115 123.733299 144.085263 140.021056"></polygon>
                    <polygon id="Fill-29" fill="#153781" points="138.594334 146.70552 108.653186 130.417763 108.664038 124.503329 138.605864 140.791085"></polygon>
                    <polygon id="Fill-30" fill="#8F6600" points="155.088485 114.822579 125.147337 98.5348226 125.15819 92.61564 155.100016 108.903397"></polygon>
                    <polygon id="Fill-31" fill="#BB8600" points="133.110595 147.476296 103.168769 131.188539 108.653186 130.418035 138.594334 146.705791"></polygon>
                    <polygon id="Fill-32" fill="#BB8600" points="149.608748 115.592609 119.666922 99.3048522 125.147948 98.5350261 155.088417 114.822783"></polygon>
                    <polygon id="Fill-33" fill="#1C48AA" points="138.616852 134.876515 108.675026 118.588758 114.155374 117.818254 144.095843 134.106689"></polygon>
                    <polygon id="Fill-34" fill="#153781" points="138.605593 140.790882 108.663767 124.503125 108.675297 118.58869 138.617123 134.876447"></polygon>
                    <polygon id="Fill-35" fill="#8F6600" points="144.10717 128.191915 114.165344 111.904158 114.176875 105.989723 144.118023 122.27748"></polygon>
                    <polygon id="Fill-36" fill="#1C48AA" points="133.121854 141.561725 103.180028 125.273969 108.663767 124.503464 138.605593 140.791221"></polygon>
                    <polygon id="Fill-37" fill="#153781" points="133.110595 147.47616 103.168769 131.188403 103.180299 125.273969 133.122125 141.561725"></polygon>
                    <polygon id="Fill-38" fill="#8F6600" points="155.099744 108.903736 125.157918 92.6159791 125.191153 74.8726748 155.132979 91.1604313"></polygon>
                    <polygon id="Fill-39" fill="#1C48AA" points="149.620007 109.673697 119.678181 93.3859409 125.158529 92.6161148 155.099677 108.903871"></polygon>
                    <polygon id="Fill-40" fill="#153781" points="149.608748 115.592609 119.666922 99.3048522 119.678452 93.3863478 149.620278 109.673426"></polygon>
                    <polygon id="Fill-41" fill="#BB8600" points="138.627433 128.96208 108.685607 112.674323 114.165955 111.903819 144.107103 128.192254"></polygon>
                    <polygon id="Fill-42" fill="#8F6600" points="138.616174 134.876515 108.675026 118.588758 108.685878 112.674323 138.627704 128.96208"></polygon>
                    <polygon id="Fill-43" fill="#8F6600" points="144.117751 122.277344 114.176603 105.989588 114.187456 100.075153 144.129282 116.36291"></polygon>
                    <polygon id="Fill-44" fill="#BB8600" points="144.12901 116.362774 114.187184 100.075017 119.667532 99.3051913 149.60868 115.592948"></polygon>
                    <polygon id="Fill-45" fill="#1C48AA" points="138.638692 123.047374 108.696866 106.759617 114.177214 105.989791 144.117683 122.277548"></polygon>
                    <polygon id="Fill-46" fill="#153781" points="138.627433 128.961944 108.685607 112.674188 108.697137 106.759753 138.638963 123.04751"></polygon>
                    <polygon id="Fill-47" fill="#BB8600" points="127.641438 142.33189 97.7002904 126.044134 103.180638 125.27363 133.121108 141.562064"></polygon>
                    <polygon id="Fill-48" fill="#153781" points="144.12901 116.362774 114.187184 100.075017 114.198715 94.156513 144.140541 110.443591"></polygon>
                    <polygon id="Fill-49" fill="#1C48AA" points="144.14027 110.443863 114.198443 94.1561061 119.678791 93.38628 149.619939 109.674037"></polygon>
                    <polygon id="Fill-50" fill="#153781" points="138.638692 123.047374 108.696866 106.759617 108.708397 100.845183 138.649544 117.132939"></polygon>
                    <polygon id="Fill-51" fill="#1C48AA" points="138.649273 117.132736 108.708125 100.844979 114.187795 100.075153 144.128943 116.36291"></polygon>
                    <polygon id="Fill-52" fill="#153781" points="149.620007 109.673697 119.678181 93.3859409 119.711416 75.6426365 149.653242 91.930393"></polygon>
                    <polygon id="Fill-53" fill="#2562E7" points="144.14027 110.443863 114.198443 94.1561061 114.209974 88.2416713 144.151122 104.529428"></polygon>
                    <polygon id="Fill-54" fill="#00C052" points="144.150918 104.529496 114.20977 88.2417391 119.690118 87.4712348 149.630588 103.75967"></polygon>
                    <polygon id="Fill-55" fill="#00C052" points="127.663957 130.50275 97.7221304 114.214993 108.686217 112.673984 138.627365 128.961741"></polygon>
                    <polygon id="Fill-56" fill="#153781" points="133.143762 129.732584 103.201936 113.444828 103.213466 107.530393 133.154614 123.81815"></polygon>
                    <polygon id="Fill-57" fill="#1C48AA" points="133.154343 123.81815 103.213195 107.530393 108.696934 106.759889 138.63876 123.047645"></polygon>
                    <polygon id="Fill-58" fill="#1C48AA" points="149.653174 91.9301217 119.711348 75.6423652 125.191696 74.8725391 155.132843 91.1602957"></polygon>
                    <polygon id="Fill-59" fill="#153781" points="138.649273 117.132736 108.708125 100.844979 108.718977 94.9264748 138.660803 111.214231"></polygon>
                    <polygon id="Fill-60" fill="#1C48AA" points="138.660532 111.214028 108.718706 94.9262713 114.199054 94.1564452 144.140202 110.444202"></polygon>
                    <polygon id="Fill-61" fill="#2562E7" points="127.641438 142.33189 97.7002904 126.044134 97.722673 114.215264 127.663821 130.503021"></polygon>
                    <polygon id="Fill-62" fill="#2562E7" points="138.660532 111.214028 108.718706 94.9262713 108.730237 89.0118365 138.671384 105.299593"></polygon>
                    <polygon id="Fill-63" fill="#00C052" points="138.671181 105.299457 108.730033 89.0117009 114.210381 88.2418748 144.15085 104.529631"></polygon>
                    <polygon id="Fill-64" fill="#BB8600" points="127.674605 124.588315 97.7327791 108.300558 103.213805 107.530732 133.154275 123.818489"></polygon>
                    <polygon id="Fill-65" fill="#00C052" points="138.693699 93.4704522 108.751873 77.1826957 119.71189 75.6423652 149.653038 91.9301217"></polygon>
                    <polygon id="Fill-66" fill="#00C052" points="133.187442 106.070301 103.245616 89.7825443 108.730033 89.01204 138.671181 105.299797"></polygon>
                    <polygon id="Fill-67" fill="#00C052" points="127.696445 112.754901 97.7552974 96.4671443 108.719384 94.9261357 138.660532 111.213892"></polygon>
                    <polygon id="Fill-68" fill="#2562E7" points="133.176183 111.984736 103.235035 95.6969791 103.245887 89.7825443 133.187713 106.070301"></polygon>
                    <polygon id="Fill-69" fill="#2562E7" points="138.671181 105.299457 108.730033 89.0117009 108.752416 77.1828313 138.693563 93.4705878"></polygon>
                    <polygon id="Fill-70" fill="#2562E7" points="127.674605 124.588179 97.7327791 108.300423 97.75584 96.4674835 127.69631 112.754562"></polygon>
                    <polygon id="Fill-71" fill="#BB8600" points="127.729544 95.0114609 97.7877183 78.7237043 108.752483 77.1826957 138.693631 93.4704522"></polygon>
                    <polygon id="Fill-72" fill="#8F6600" points="127.696445 112.754901 97.7552974 96.4671443 97.7878539 78.72384 127.72968 95.0115965"></polygon>
                    <path d="M165.993699,142.85483 L166.004551,136.940395 L160.524882,137.710221 L160.51403,143.624656 L165.993699,142.85483 L165.993699,142.85483 Z M166.11443,77.7906209 L166.125282,71.8721165 L160.645612,72.6419426 L160.63476,78.5611252 L166.11443,77.7906209 L166.11443,77.7906209 Z M105.71123,151.326986 L105.72276,145.412551 L100.239021,146.183056 L100.22749,152.09749 L105.71123,151.326986 L105.71123,151.326986 Z M105.832638,86.2627774 L105.84349,80.3435948 L100.359073,81.1147774 L100.348899,87.0332817 L105.832638,86.2627774 L105.832638,86.2627774 Z M155.099473,108.903803 L155.132708,91.1598209 L149.653038,91.9303252 L149.66389,86.0158904 L144.184221,86.7857165 L144.195073,80.8712817 L116.791977,84.722447 L116.780447,90.6368817 L111.300777,91.4073861 L111.290603,97.3218209 L111.267543,109.15069 L116.748569,108.380864 L116.737038,114.295299 L122.216708,113.524795 L127.696377,112.754969 L127.674673,124.588586 L133.154343,123.818082 L133.14349,129.732517 L127.663821,130.503021 L127.641438,142.33189 L133.121108,141.562064 L133.110934,147.476499 L138.594673,146.705317 L144.074343,145.93549 L144.085195,140.021056 L144.096047,134.106621 L138.616377,134.876447 L138.62723,128.962012 L144.106899,128.192186 L144.117751,122.277073 L144.129282,116.362638 L149.608951,115.592812 L155.088621,114.822308 L155.099473,108.903803 L155.099473,108.903803 Z M94.8909339,75.9701687 L171.620551,65.1864991 L171.465908,148.00283 L94.7362904,158.786499 L94.8909339,75.9701687 Z" id="Fill-73" fill="#FEB600"></path>
                    <polygon id="Fill-74" fill="#2562E7" points="166.00428 136.940259 165.993428 142.854694 160.513758 143.625198 160.52461 137.710085"></polygon>
                    <polygon id="Fill-75" fill="#2562E7" points="166.125485 71.871913 166.113955 77.7904174 160.634285 78.5609217 160.645816 72.6417391"></polygon>
                    <polygon id="Fill-76" fill="#2562E7" points="105.722489 145.412416 105.711637 151.32685 100.227219 152.097355 100.23875 146.18292"></polygon>
                    <polygon id="Fill-77" fill="#FEB600" points="133.187442 106.070301 133.175911 111.984736 127.696242 112.754562 127.729477 95.0112574 138.693563 93.4702487 138.671181 105.299797"></polygon>
                    <polygon id="Fill-78" fill="#2562E7" points="138.605593 140.790882 133.121854 141.561386 133.110323 147.475821 138.594063 146.705317 144.07441 145.93549 144.085263 140.021056 144.096115 134.106621 138.617123 134.876447"></polygon>
                    <polygon id="Fill-79" fill="#2562E7" points="149.653174 91.9303252 149.619939 109.67363 144.139591 110.444134 138.6606 111.21396 138.64907 117.133143 138.638217 123.047577 133.154478 123.818082 133.142948 129.732517 138.627365 128.962012 144.107035 128.191508 144.118565 122.277073 144.128739 116.362638 149.609087 115.592812 155.088757 114.822308 155.099609 108.903803 155.132165 91.1598209"></polygon>
                    <polygon id="Fill-80" fill="#2562E7" points="138.70428 87.5560852 127.740871 89.0964157 122.260523 89.86692 122.216437 113.525337 127.696784 112.754833 127.729341 95.0115287 138.693428 93.47052"></polygon>
                    <polygon id="Fill-81" fill="#2562E7" points="116.74823 108.380797 116.736699 114.295231 122.217047 113.524727 122.227899 107.610292"></polygon>
                    <polygon id="Fill-82" fill="#00C052" points="127.674605 124.588179 133.154275 123.818353 138.638014 123.047849 138.660397 111.214231 127.696988 112.75524"></polygon>
                    <polygon id="Fill-83" fill="#00C052" points="127.641438 142.33189 133.121786 141.561386 138.605525 140.790882 138.617056 134.876447 138.62723 128.962012 127.663821 130.503021"></polygon>
                    <polygon id="Fill-84" fill="#00C052" points="144.184017 86.7857165 144.195548 80.8712817 116.791774 84.722447 116.7816 90.6368817 111.301252 91.4067078 111.2904 97.3218209 111.268017 109.15069 122.228035 107.61036 122.249739 95.7814904 122.260591 89.8670557 127.740939 89.0965513 138.704348 87.5562209 138.693496 93.4699774 138.671113 105.299525 133.187374 106.07003 133.176522 111.984464 138.660261 111.21396 144.13993 110.444134 149.620278 109.67363 149.630452 103.759195 149.652835 91.9303252 149.663687 86.0158904"></polygon>
                    <polygon id="Fill-85" fill="#2562E7" points="105.843762 80.3439339 105.832231 86.2631165 100.348492 87.0336209 100.359344 81.1144383"></polygon>
                </g>
                <g id="Group-86" transform="translate(93.000000, 44.000000)">
                    <polygon id="Fill-1" fill="#2562E7" points="200.181981 206.20799 147.928085 177.782077 147.963355 158.958303 200.21725 187.384216"></polygon>
                    <polygon id="Fill-2" fill="#FEB600" points="182.741927 208.659089 130.488031 180.233176 147.928153 177.782619 200.182049 206.207854"></polygon>
                    <polygon id="Fill-3" fill="#2562E7" points="173.294024 238.930617 121.040129 210.504704 121.075398 191.692461 173.329294 220.118374"></polygon>
                    <polygon id="Fill-4" fill="#FEB600" points="155.85397 241.381717 103.600075 212.955803 121.040197 210.505247 173.294092 238.930482"></polygon>
                    <polygon id="Fill-5" fill="#2562E7" points="186.673059 148.026297 134.419163 119.600384 147.838555 117.714819 200.093129 146.140054"></polygon>
                    <polygon id="Fill-6" fill="#2562E7" points="186.645929 162.51083 134.392033 134.084917 134.419163 119.600656 186.673059 148.026569"></polygon>
                    <polygon id="Fill-7" fill="#2562E7" points="121.943572 232.393743 69.6896765 203.96783 69.7276591 183.69529 121.981555 212.121203"></polygon>
                    <polygon id="Fill-8" fill="#FEB600" points="103.161579 235.033398 50.9076835 206.607485 69.6894052 203.967694 121.943301 232.393607"></polygon>
                    <polygon id="Fill-9" fill="#2562E7" points="103.1238 255.305598 50.8699043 226.879685 50.907887 206.607824 103.161783 235.033737"></polygon>
                    <polygon id="Fill-10" fill="#FEB600" points="84.3411287 257.945457 32.087233 229.519544 50.869633 226.879753 103.123529 255.305666"></polygon>
                    <polygon id="Fill-11" fill="#2562E7" points="200.093264 146.14019 147.83869 117.714277 148.027247 16.3637896 200.281143 44.7897026"></polygon>
                    <polygon id="Fill-12" fill="#2562E7" points="103.19929 214.77239 50.9447165 186.346477 50.9826991 166.074616 103.237273 194.500529"></polygon>
                    <polygon id="Fill-13" fill="#FEB600" points="65.5962365 240.330209 13.3423409 211.904296 32.1247409 209.264504 84.3786365 237.690417"></polygon>
                    <polygon id="Fill-14" fill="#2562E7" points="65.9102035 179.479153 13.6563078 151.05324 134.392169 134.085188 186.646064 162.511101"></polygon>
                    <path d="M92.7717078,161.223219 L40.5178122,132.797306 L40.67856,45.9263322 L121.165946,34.614433 L173.419842,63.0403461 L92.9333374,74.3517026 L92.7717078,161.223219 Z" id="Combined-Shape" fill="#FEB600"></path>
                    <path d="M52.738513,51.0508643 L52.2542348,311.67803 L186.404061,292.823734 L186.430513,278.345577 L199.845157,276.46069 L199.872287,261.97643 L213.291678,260.090186 L213.722374,28.7537165 L213.722374,28.4261165 L52.738513,51.0508643 Z M66.1253478,63.6441339 L200.281278,44.7898383 L200.0934,146.140325 L186.672652,148.026569 L186.6462,162.51083 L65.9103391,179.478882 L66.1253478,63.6441339 Z M182.776722,189.835247 L200.216843,187.384012 L200.181574,206.207786 L182.74213,208.659021 L182.776722,189.835247 Z M65.6336087,220.051769 L84.416687,217.411977 L84.4539913,197.140117 L103.23707,194.499647 L103.199765,214.772186 L121.981487,212.120864 L121.943504,232.394082 L103.161783,235.033195 L103.1238,255.305056 L84.3414,257.945525 L84.3793826,237.690621 L65.5963043,240.330412 L65.6336087,220.051769 Z M155.888426,222.569473 L173.329226,220.118917 L173.293957,238.930482 L155.853835,241.381717 L155.888426,222.569473 Z" id="Fill-17" fill="#00C052"></path>
                    <polygon id="Fill-18" fill="#00C052" points="92.7717078 161.223219 92.9331339 74.351567 173.419638 63.0402104 173.25889 149.911863"></polygon>
                    <path d="M161.467936,0.000203478261 L213.72251,28.4254383 L52.7387843,51.0510678 L52.2545061,311.677555 L0.000610434782,283.25232 L0.484210435,22.6251548 L0.484610435,22.6252035 L161.467936,0.000203478261 Z" id="Combined-Shape" fill="#FEB600"></path>
                    <polygon id="Fill-21" fill="#8F6600" points="165.993428 142.85483 136.051602 126.567073 136.063132 120.652638 166.004958 136.940395"></polygon>
                    <polygon id="Fill-22" fill="#BB8600" points="160.51369 143.624995 130.571864 127.337238 136.052212 126.566734 165.99336 142.855169"></polygon>
                    <polygon id="Fill-23" fill="#153781" points="160.51369 143.624995 130.571864 127.337238 130.583395 121.422803 160.525221 137.71056"></polygon>
                    <polygon id="Fill-24" fill="#1C48AA" points="160.52495 137.710424 130.583123 121.422668 136.063471 120.652842 166.004619 136.940598"></polygon>
                    <polygon id="Fill-25" fill="#8F6600" points="144.0738 145.935355 114.132652 129.647598 114.143504 123.733163 144.08533 140.02092"></polygon>
                    <polygon id="Fill-26" fill="#BB8600" points="138.594741 146.70552 108.652915 130.417763 114.133263 129.647937 144.073732 145.935694"></polygon>
                    <polygon id="Fill-27" fill="#8F6600" points="144.085059 140.02092 114.143233 123.733163 114.154763 117.818729 144.09659 134.106485"></polygon>
                    <polygon id="Fill-28" fill="#1C48AA" points="138.605322 140.79095 108.664174 124.503193 114.143843 123.733367 144.084991 140.021123"></polygon>
                    <polygon id="Fill-29" fill="#153781" points="138.594741 146.70552 108.652915 130.417763 108.664445 124.503329 138.605593 140.791085"></polygon>
                    <polygon id="Fill-30" fill="#8F6600" points="155.088892 114.822443 125.147066 98.534687 125.158597 92.6161826 155.099744 108.903939"></polygon>
                    <polygon id="Fill-31" fill="#BB8600" points="133.110323 147.47616 103.169176 131.188403 108.652915 130.417899 138.594741 146.705656"></polygon>
                    <polygon id="Fill-32" fill="#BB8600" points="149.609155 115.592609 119.667329 99.3048522 125.147677 98.5350261 155.088824 114.822783"></polygon>
                    <polygon id="Fill-33" fill="#1C48AA" points="138.616581 134.876379 108.674755 118.588623 114.155103 117.818797 144.09625 134.106553"></polygon>
                    <polygon id="Fill-34" fill="#153781" points="138.605322 140.79095 108.664174 124.503193 108.675026 118.588758 138.616852 134.876515"></polygon>
                    <polygon id="Fill-35" fill="#8F6600" points="144.106899 128.191983 114.165751 111.904226 114.176603 105.989791 144.11843 122.277548"></polygon>
                    <polygon id="Fill-36" fill="#1C48AA" points="133.121583 141.561793 103.179757 125.274037 108.664174 124.503532 138.605322 140.791289"></polygon>
                    <polygon id="Fill-37" fill="#153781" points="133.110323 147.47616 103.169176 131.188403 103.180028 125.273969 133.121854 141.561725"></polygon>
                    <polygon id="Fill-38" fill="#8F6600" points="155.099541 108.903736 125.158393 92.6159791 125.19095 74.8719965 155.132776 91.1604313"></polygon>
                    <polygon id="Fill-39" fill="#1C48AA" points="149.619803 109.673765 119.677977 93.3860087 125.159003 92.6161826 155.099473 108.903939"></polygon>
                    <polygon id="Fill-40" fill="#153781" points="149.609155 115.592609 119.667329 99.3048522 119.678181 93.3863478 149.620007 109.673426"></polygon>
                    <polygon id="Fill-41" fill="#BB8600" points="138.627162 128.961944 108.686014 112.674188 114.166362 111.904362 144.106831 128.192118"></polygon>
                    <polygon id="Fill-42" fill="#8F6600" points="138.616581 134.876515 108.674755 118.588758 108.686285 112.674323 138.627433 128.96208"></polygon>
                    <polygon id="Fill-43" fill="#8F6600" points="144.118158 122.277344 114.176332 105.989588 114.187863 100.075153 144.12901 116.36291"></polygon>
                    <polygon id="Fill-44" fill="#BB8600" points="144.128807 116.362774 114.187659 100.075017 119.668007 99.3051913 149.609155 115.592948"></polygon>
                    <polygon id="Fill-45" fill="#1C48AA" points="138.638421 123.047374 108.696595 106.759617 114.176943 105.989791 144.11809 122.277548"></polygon>
                    <polygon id="Fill-46" fill="#153781" points="138.62784 128.961944 108.686014 112.674188 108.696866 106.759753 138.638692 123.04751"></polygon>
                    <polygon id="Fill-47" fill="#BB8600" points="127.641845 142.33189 97.7000191 126.044134 103.180367 125.27363 133.121515 141.562064"></polygon>
                    <polygon id="Fill-48" fill="#153781" points="144.128807 116.362774 114.187659 100.075017 114.198511 94.156513 144.140337 110.443591"></polygon>
                    <polygon id="Fill-49" fill="#1C48AA" points="144.140066 110.44393 114.19824 94.1561739 119.678588 93.3863478 149.619736 109.674104"></polygon>
                    <polygon id="Fill-50" fill="#153781" points="138.638421 123.047374 108.696595 106.759617 108.708125 100.845183 138.649951 117.132939"></polygon>
                    <polygon id="Fill-51" fill="#1C48AA" points="138.64968 117.132803 108.707854 100.845047 114.188202 100.075221 144.128671 116.362977"></polygon>
                    <polygon id="Fill-52" fill="#153781" points="149.619803 109.673765 119.677977 93.3860087 119.711212 75.6427043 149.653038 91.9304609"></polygon>
                    <polygon id="Fill-53" fill="#2562E7" points="144.140066 110.44393 114.19824 94.1561739 114.20977 88.2417391 144.151597 104.529496"></polygon>
                    <polygon id="Fill-54" fill="#00C052" points="144.151325 104.529292 114.209499 88.2415357 119.689847 87.4717096 149.630995 103.759466"></polygon>
                    <polygon id="Fill-55" fill="#00C052" points="127.663753 130.50275 97.721927 114.214993 108.686692 112.673984 138.62784 128.961741"></polygon>
                    <polygon id="Fill-56" fill="#153781" points="133.14349 129.732584 103.201664 113.444828 103.213195 107.530393 133.155021 123.81815"></polygon>
                    <polygon id="Fill-57" fill="#1C48AA" points="133.15475 123.818014 103.212923 107.530257 108.696663 106.759753 138.638489 123.04751"></polygon>
                    <polygon id="Fill-58" fill="#1C48AA" points="149.652903 91.9301896 119.711077 75.642433 125.191424 74.872607 155.132572 91.1603635"></polygon>
                    <polygon id="Fill-59" fill="#153781" points="138.64968 117.132803 108.707854 100.845047 108.719384 94.9265426 138.660532 111.214299"></polygon>
                    <polygon id="Fill-60" fill="#1C48AA" points="138.660329 111.214096 108.719181 94.9263391 114.19885 94.156513 144.139998 110.44427"></polygon>
                    <polygon id="Fill-61" fill="#2562E7" points="127.641845 142.331755 97.7000191 126.043998 97.7224017 114.215129 127.66355 130.502885"></polygon>
                    <polygon id="Fill-62" fill="#2562E7" points="138.660329 111.214096 108.719181 94.9263391 108.730033 89.0119043 138.671859 105.299661"></polygon>
                    <polygon id="Fill-63" fill="#00C052" points="138.671588 105.299457 108.729762 89.0117009 114.21011 88.2418748 144.151257 104.529631"></polygon>
                    <polygon id="Fill-64" fill="#BB8600" points="127.674334 124.588383 97.7331861 108.300626 103.213534 107.530122 133.154682 123.818557"></polygon>
                    <polygon id="Fill-65" fill="#00C052" points="138.693428 93.47052 108.751602 77.1827635 119.711619 75.642433 149.652767 91.9301896"></polygon>
                    <polygon id="Fill-66" fill="#00C052" points="133.18717 106.070165 103.246023 89.7824087 108.729762 89.0119043 138.671588 105.299661"></polygon>
                    <polygon id="Fill-67" fill="#00C052" points="127.696852 112.754901 97.7550261 96.4671443 108.719791 94.9261357 138.660261 111.213892"></polygon>
                    <polygon id="Fill-68" fill="#2562E7" points="133.17659 111.984736 103.234763 95.6969791 103.246294 89.7825443 133.187442 106.070301"></polygon>
                    <polygon id="Fill-69" fill="#2562E7" points="138.671588 105.299457 108.729762 89.0117009 108.752144 77.1828313 138.693292 93.4705878"></polygon>
                    <polygon id="Fill-70" fill="#2562E7" points="127.675012 124.588179 97.7331861 108.300423 97.7555687 96.4674835 127.696717 112.754562"></polygon>
                    <polygon id="Fill-71" fill="#BB8600" points="127.729273 95.0114609 97.7881252 78.7237043 108.752212 77.1826957 138.69336 93.4704522"></polygon>
                    <polygon id="Fill-72" fill="#8F6600" points="127.696852 112.754901 97.7550261 96.4671443 97.7882609 78.72384 127.729409 95.0115965"></polygon>
                    <path d="M165.993428,142.85483 L166.004958,136.940395 L160.52461,137.710221 L160.513758,143.624656 L165.993428,142.85483 L165.993428,142.85483 Z M166.114158,77.7906209 L166.12501,71.8721165 L160.645341,72.6419426 L160.634489,78.5611252 L166.114158,77.7906209 L166.114158,77.7906209 Z M105.711637,151.326986 L105.722489,145.412551 L100.23875,146.183056 L100.227897,152.09749 L105.711637,151.326986 L105.711637,151.326986 Z M105.832367,86.2627774 L105.843219,80.3435948 L100.35948,81.1147774 L100.348628,87.0332817 L105.832367,86.2627774 L105.832367,86.2627774 Z M155.099202,108.903803 L155.132437,91.1598209 L149.652767,91.9303252 L149.663619,86.0158904 L144.18395,86.7857165 L144.194802,80.8712817 L116.791706,84.722447 L116.780854,90.6368817 L111.301184,91.4073861 L111.290332,97.3218209 L111.26795,109.15069 L116.748297,108.380864 L116.736767,114.295299 L122.217115,113.524795 L127.696784,112.754969 L127.674402,124.588586 L133.15475,123.818082 L133.143219,129.732517 L127.66355,130.503021 L127.641845,142.33189 L133.121515,141.562064 L133.110663,147.475821 L138.594402,146.705317 L144.074071,145.93549 L144.084923,140.021056 L144.096454,134.106621 L138.616784,134.876447 L138.626958,128.962012 L144.106628,128.192186 L144.118158,122.277073 L144.12901,116.362638 L149.609358,115.592812 L155.089028,114.822308 L155.099202,108.903803 L155.099202,108.903803 Z M94.8906626,75.9701687 L171.62028,65.1864991 L171.466315,148.00283 L94.7366974,158.786499 L94.8906626,75.9701687 Z" id="Fill-73" fill="#00C052"></path>
                    <polygon id="Fill-74" fill="#2562E7" points="166.004687 136.940259 165.993157 142.854694 160.513487 143.625198 160.525017 137.710085"></polygon>
                    <polygon id="Fill-75" fill="#2562E7" points="166.125214 71.8719809 166.114362 77.7904852 160.634014 78.5609896 160.645544 72.641807"></polygon>
                    <polygon id="Fill-76" fill="#2562E7" points="105.722896 145.412416 105.711365 151.32685 100.227626 152.097355 100.238478 146.18292"></polygon>
                    <polygon id="Fill-77" fill="#00C052" points="133.18717 106.070301 133.176318 111.984736 127.696649 112.754562 127.729205 95.0112574 138.693292 93.4702487 138.671588 105.299797"></polygon>
                    <polygon id="Fill-78" fill="#2562E7" points="138.605322 140.79095 133.121583 141.561454 133.110052 147.475889 138.59447 146.705384 144.074139 145.935558 144.084991 140.021123 144.096522 134.106689 138.616852 134.876515"></polygon>
                    <polygon id="Fill-79" fill="#2562E7" points="149.652903 91.9303252 149.619668 109.67363 144.139998 110.444134 138.660329 111.21396 138.648798 117.133143 138.638624 123.047577 133.154207 123.818082 133.143355 129.732517 138.627094 128.962012 144.106763 128.191508 144.118294 122.277073 144.128468 116.362638 149.608816 115.592812 155.089163 114.822308 155.099337 108.903803 155.132572 91.1598209"></polygon>
                    <polygon id="Fill-80" fill="#2562E7" points="138.704009 87.5560852 127.7406 89.0964157 122.26093 89.86692 122.216165 113.525337 127.696513 112.754833 127.72907 95.0115287 138.693157 93.47052"></polygon>
                    <polygon id="Fill-81" fill="#2562E7" points="116.747958 108.380797 116.736428 114.295231 122.216776 113.524727 122.227628 107.610292"></polygon>
                    <path d="M138.626958,128.962012 L138.616784,134.876447 L138.605254,140.790882 L133.121515,141.561386 L127.641845,142.33189 L127.66355,130.503021 L138.626958,128.962012 Z M144.195277,80.8712817 L144.183746,86.7857165 L149.663416,86.0158904 L149.652563,91.9303252 L149.630859,103.759195 L149.620007,109.67363 L138.660125,111.214231 L138.638421,123.047849 L133.154003,123.818353 L127.674334,124.588179 L127.696717,112.75524 L133.17625,111.984464 L133.187103,106.07003 L138.67152,105.299525 L138.693224,93.4699774 L138.704077,87.5562209 L127.740668,89.0965513 L122.260998,89.8670557 L122.249468,95.7814904 L122.227763,107.61036 L111.268424,109.15069 L111.290129,97.3218209 L111.300981,91.4067078 L116.781329,90.6368817 L116.791503,84.722447 L144.195277,80.8712817 Z" id="Combined-Shape" fill="#FEB600"></path>
                    <polygon id="Fill-85" fill="#2562E7" points="105.84349 80.3439339 105.83196 86.2631165 100.348221 87.0336209 100.359751 81.1144383"></polygon>
                </g>
            </g>
        </g>
    </g>
</svg>