<?xml version="1.0" encoding="UTF-8"?>
<svg width="400px" height="400px" viewBox="0 0 400 400" version="1.1" xmlns="http://www.w3.org/2000/svg" xmlns:xlink="http://www.w3.org/1999/xlink">
    <!-- Generator: Sketch 63.1 (92452) - https://sketch.com -->
    <title>project ideas</title>
    <desc>Created with Sketch.</desc>
    <g id="Exports" stroke="none" stroke-width="1" fill="none" fill-rule="evenodd">
        <g id="Artboard" transform="translate(-3293.000000, -827.000000)">
            <g id="Group-4" transform="translate(3293.000000, 827.000000)">
                <rect id="Rectangle" x="0" y="0" width="400" height="400"></rect>
                <g id="Group-7" transform="translate(44.000000, 72.000000)">
                    <path d="M219.068928,-7.8e-05 L194.784408,3.412422 L194.735268,29.662542 L170.396928,33.082842 L170.348568,59.312682 L135.798468,64.168962 L117.727428,54.338622 L117.745368,44.703282 L73.242468,20.494422 L48.964188,23.906922 L48.915048,50.155482 L73.169148,63.349962 L73.151208,72.972822 L48.865908,76.386102 L48.817548,102.622962 L24.491688,106.041702 L24.442548,132.266082 L0.146328,135.680922 L-0.000312,214.364982 L44.503368,238.573842 L68.799588,235.159782 L68.830008,218.523942 L72.870408,220.721982 L72.852468,230.356542 L117.355368,254.565402 L165.990708,247.730262 L166.021908,231.123282 L190.275228,244.316982 L238.898088,237.483402 L238.947228,211.247322 L200.667168,190.422882 L200.672628,190.422102 L238.952688,211.246542 L263.230968,207.834042 L263.258268,191.225502 L287.516268,204.421542 L311.842128,201.002022 L311.999688,122.316402 L287.705028,109.100082 L287.722188,99.511542 L263.457168,86.311602 L263.474328,76.688742 L239.221008,63.495822 L239.238948,53.872182 L263.523468,50.458902 L263.571828,24.208782 L219.068928,-7.8e-05 Z M127.759788,200.669742 L145.812108,198.132402 L145.790268,210.477462 L127.759788,200.669742 Z" id="Fill-1" fill="#FEB600"></path>
                    <polygon id="Fill-2" fill="#F65800" points="238.947384 211.246932 238.899024 237.483792 190.275384 244.317372 190.323744 218.080512"></polygon>
                    <polygon id="Fill-3" fill="#F65800" points="117.404586 228.32823 117.355446 254.56509 165.990786 247.72995 166.039146 221.49387"></polygon>
                    <path d="M141.833562,153.44316 L141.881922,127.21956 L117.585702,130.6344 L117.537342,156.858 L141.833562,153.44316 L141.833562,153.44316 Z M239.080062,139.776 L239.128422,113.5524 L214.789302,116.9727 L214.740942,143.1963 L239.080062,139.776 L239.080062,139.776 Z M287.674062,125.73522 L311.999922,122.31648 L311.842362,201.0021 L287.514942,204.42162 L287.612442,151.97988 L263.316222,155.39472 L263.231202,207.83412 L238.952922,211.24662 L239.001282,185.0355 L117.459342,202.1175 L117.410202,228.32784 L93.126462,231.74112 L93.223962,179.29938 L68.897322,182.71812 L68.799822,235.15986 L44.503602,238.5747 L44.649462,159.88986 L68.946462,156.4758 L68.994042,130.25142 L93.321462,126.83268 L93.369822,100.59582 L117.654342,97.18254 L117.702702,70.9527 L141.992682,67.53864 L141.944322,93.76926 L214.851702,83.5224 L214.900842,57.29256 L239.239182,53.87148 L239.190042,80.1021 L263.474562,76.68882 L263.426202,102.92568 L287.722422,99.51162 L287.674062,125.73522 Z" id="Fill-4" fill="#F65800"></path>
                    <polygon id="Fill-5" fill="#F65800" points="263.572218 24.209016 263.523858 50.459136 239.239338 53.871636 239.287698 27.622296"></polygon>
                    <polygon id="Fill-6" fill="#F65800" points="117.745758 44.703594 117.697398 70.952934 93.419118 74.365434 93.467478 48.115314"></polygon>
                </g>
            </g>
        </g>
    </g>
</svg>