<?xml version="1.0" encoding="UTF-8"?>
<svg width="310px" height="310px" viewBox="0 0 310 310" version="1.1" xmlns="http://www.w3.org/2000/svg" xmlns:xlink="http://www.w3.org/1999/xlink">
    <!-- Generator: Sketch 63.1 (92452) - https://sketch.com -->
    <title>123_formbuilder</title>
    <desc>Created with Sketch.</desc>
    <defs>
        <polygon id="path-1" points="0.165174262 0.0151312236 13.8760857 0.0151312236 13.8760857 16.0632911 0.165174262 16.0632911"></polygon>
        <polygon id="path-3" points="0.0981447257 0.11085654 58.4217238 0.11085654 58.4217238 35.3598451 0.0981447257 35.3598451"></polygon>
        <polygon id="path-5" points="0 93.8891435 168.643536 93.8891435 168.643536 0.198312236 0 0.198312236"></polygon>
    </defs>
    <g id="Exports" stroke="none" stroke-width="1" fill="none" fill-rule="evenodd">
        <g id="Artboard" transform="translate(-410.000000, -1739.000000)">
            <g id="Group-48" transform="translate(410.000000, 1739.000000)">
                <g id="Group-34" transform="translate(63.000000, 108.000000)">
                    <path d="M159.502889,84.9479983 L162.153728,84.9479983 C162.973353,84.9479983 163.66923,84.5452262 164.118804,84.1226228 C164.568775,83.7002177 164.758758,83.1683443 164.758758,82.4260616 C164.758758,81.6693021 164.543192,81.1632093 164.118804,80.7296987 C163.694614,80.2959899 163.031458,79.9043232 162.153728,79.9043232 L159.502889,79.9043232 L159.502889,84.9479983 Z M162.1688,87.4697367 L159.568133,87.4697367 L159.568133,93.4306059 L156.303716,93.4306059 L156.303716,77.3823865 L162.190813,77.3823865 C164.062285,77.3823865 165.342589,77.6836228 166.358344,78.5286312 C167.373901,79.373838 167.957931,80.6537451 167.957931,82.1968127 C167.957931,83.2916945 167.740382,84.2168211 167.272365,84.9479983 C166.804349,85.6791755 166.16618,86.3026692 165.215868,86.7361797 L168.643496,93.276319 L168.643496,93.4306059 L165.986905,93.4306059 C165.467526,93.4306059 164.992965,93.1363105 164.760741,92.6702768 L162.1688,87.4697367 Z" id="Fill-1" fill="#565656"></path>
                    <polygon id="Fill-3" fill="#565656" points="151.733451 86.5528004 145.334907 86.5528004 145.334907 90.6794797 152.876127 90.6794797 152.876127 93.4306654 142.135932 93.4306654 142.135932 77.382446 152.876127 77.382446 152.876127 80.1334333 145.334907 80.1334333 145.334907 83.8016148 151.733451 83.8016148"></polygon>
                    <path d="M130.024647,80.1234384 L130.024647,90.7866873 L131.624035,90.6794004 C132.907116,90.6794004 133.916922,90.3741979 134.594951,89.5331557 C135.272782,88.6921135 135.634504,87.4810207 135.648981,85.9157422 L135.648981,85.0711304 C135.648981,83.4475481 135.265643,82.1172696 134.594951,81.279797 C133.924259,80.4423245 132.914453,80.1335523 131.624035,80.1335523 L130.024647,80.1234384 Z M126.59682,93.4305861 L126.59682,77.3823667 L131.852689,77.3823667 C133.245436,77.3823667 134.181272,77.6637717 135.280318,78.2993624 C136.379365,78.9349532 137.177373,79.8785228 137.794124,81.0505481 C138.410677,82.2225734 138.708145,83.5480924 138.708145,85.039797 L138.708145,85.773354 C138.708145,87.2650586 138.39977,88.5993034 137.794124,89.7602232 C137.18828,90.9213414 136.383132,91.8742316 135.280318,92.5135903 C134.177702,93.1529489 132.781187,93.4232485 131.39558,93.4305861 L126.59682,93.4305861 Z" id="Fill-5" fill="#565656"></path>
                    <polygon id="Fill-7" fill="#565656" points="115.62823 90.6794996 122.712141 90.6794996 122.712141 93.4306852 112.428859 93.4306852 112.428859 77.3824658 115.62823 77.3824658"></polygon>
                    <path d="M107.858614,93.4306059 L104.659441,93.4306059 L104.659441,77.3823865 L106.487682,77.3823865 C107.244838,77.3823865 107.858614,77.9983443 107.858614,78.7578802 L107.858614,93.4306059 Z" id="Fill-9" fill="#565656"></path>
                    <path d="M100.089197,77.3824063 L100.089197,87.9284527 C100.089197,89.6607101 99.5507793,91.0475076 98.4896105,92.0551321 C97.4284418,93.0625582 95.9865135,93.4306257 94.1477624,93.4306257 C92.3377667,93.4306257 90.8708511,93.0336046 89.8059143,92.0551321 C88.7411759,91.0764612 88.2277456,89.6390941 88.2065262,87.9284527 L88.2065262,77.3824063 L91.4056992,77.3824063 L91.4056992,87.6990055 C91.4056992,89.5865414 92.3260662,90.6794401 94.1477624,90.6794401 C95.9698553,90.6794401 96.8900241,89.5762291 96.8900241,87.6990055 L96.8900241,77.3824063 L100.089197,77.3824063 Z" id="Fill-11" fill="#565656"></path>
                    <path d="M75.8666464,84.0309034 L78.3804523,84.0309034 C80.0425072,84.0015532 80.8932667,83.4974435 80.8932667,82.1969118 C80.8932667,81.4693042 80.6295114,80.82003 80.2084945,80.5003506 C79.7874776,80.1806713 79.1510937,79.9042241 78.2432203,79.9042241 L75.8666464,79.9042241 L75.8666464,84.0309034 Z M75.8666464,86.3235911 L75.8666464,90.9087684 L78.8373637,90.9087684 C79.6135578,90.9087684 80.1841021,90.5920637 80.6197941,90.2210215 C81.0554861,89.8499793 81.2595494,89.2701143 81.2595494,88.6162789 C81.2595494,87.1463886 80.5813215,86.3456038 79.0660177,86.3235911 L75.8666464,86.3235911 Z M72.6674734,93.4305068 L72.6674734,77.3824857 L78.1517983,77.3824857 C80.0920852,77.3824857 81.7192371,77.7828781 82.7221021,78.5287304 C83.7251654,79.2745827 84.0932329,80.2980722 84.0932329,81.7382156 C84.0932329,82.5245236 84.0388954,83.2027515 83.6363215,83.8016544 C83.2333511,84.4005574 82.5255747,84.895743 81.808081,85.175165 C82.6281021,85.3808148 83.3923975,85.7907262 83.8647772,86.4152114 C84.3369586,87.0398949 84.5503426,87.803992 84.5503426,88.7078992 C84.5503426,90.2509667 84.0688405,91.3989962 83.0877899,92.1926418 C82.1067392,92.9862873 80.6531105,93.4158316 78.8373637,93.4305068 L72.6674734,93.4305068 Z" id="Fill-13" fill="#565656"></path>
                    <polygon id="Fill-15" fill="#565656" points="50.8268114 77.8409241 54.8434274 89.5332152 58.8384274 77.8409241 63.0698156 77.8409241 63.0698156 93.8891435 59.8706426 93.8891435 59.8706426 89.5332152 60.0992966 81.9676034 55.9387059 93.8891435 53.7265329 93.8891435 49.5875582 81.9676034 49.8160139 89.5332152 49.8160139 93.8891435 46.6168409 93.8891435 46.6168409 77.8409241"></polygon>
                    <path d="M34.2770405,85.406516 L36.9278802,85.406516 C37.747703,85.406516 38.4433823,85.0037439 38.8929561,84.5811405 C39.3429266,84.1587354 39.5329097,83.626862 39.5329097,82.8845793 C39.5329097,82.1278198 39.3175426,81.621727 38.8929561,81.1882165 C38.4687662,80.7545076 37.8056101,80.3628409 36.9278802,80.3628409 L34.2770405,80.3628409 L34.2770405,85.406516 Z M36.9431502,87.9284527 L34.3424835,87.9284527 L34.3424835,93.8891236 L31.0778675,93.8891236 L31.0778675,77.8409042 L36.9649646,77.8409042 C38.8364371,77.8409042 40.1169392,78.1421405 41.1324962,78.9871489 C42.1480532,79.8323557 42.732281,81.1122629 42.732281,82.6553304 C42.732281,83.7502122 42.5145342,84.6753388 42.0467156,85.406516 C41.5786987,86.1376932 40.9403316,86.7611869 39.9900194,87.1946975 L43.4176481,93.7348367 L43.4176481,93.8891236 L40.7610574,93.8891236 C40.2418759,93.8891236 39.7671165,93.5948283 39.5348928,93.1287945 L36.9431502,87.9284527 Z" id="Fill-17" fill="#565656"></path>
                    <g id="Group-21" transform="translate(13.088608, 77.825852)">
                        <mask id="mask-2" fill="white">
                            <use xlink:href="#path-1"></use>
                        </mask>
                        <g id="Clip-20"></g>
                        <path d="M10.6769127,7.67236329 C10.6769127,6.06543924 10.3606046,4.83907637 9.72818692,4.00418186 C9.09557089,3.16908903 8.19325021,2.76611857 7.02062996,2.76611857 C5.85574388,2.76611857 4.95719114,3.1784097 4.32477342,4.00299198 C3.69215738,4.82737595 3.37208143,6.07951941 3.36434726,7.67236329 L3.36434726,8.40592025 C3.36434726,9.9706038 3.68065527,11.2110468 4.313073,12.0741017 C4.94568903,12.9371565 5.85574388,13.312165 7.04383249,13.312165 C8.20852025,13.312165 9.10330506,12.9056249 9.72818692,12.0741017 C10.3528705,11.2425785 10.6691785,9.99876414 10.6769127,8.40592025 L10.6769127,7.67236329 Z M13.8760857,8.39322827 C13.8760857,9.93074304 13.5960688,11.2788696 13.0358367,12.4374097 C12.4754063,13.5959498 11.6738283,14.4899414 10.6309042,15.1191861 C9.58778186,15.7486291 8.39176076,16.0633506 7.04284093,16.0633506 C5.70839789,16.0633506 4.51792954,15.7521987 3.47123755,15.1298949 C2.42454557,14.5077895 1.61364684,13.6191523 1.03873966,12.4643802 C0.463832489,11.3092114 0.172511814,9.98091603 0.165174262,8.47889916 L0.165174262,7.70667131 C0.165174262,6.16895823 0.450942194,4.81567553 1.02208143,3.64622827 C1.59341899,2.47697932 2.4007481,1.57941814 3.44367215,0.953743038 C4.4865962,0.32786962 5.67904768,0.0151312236 7.02062996,0.0151312236 C8.36221224,0.0151312236 9.55466371,0.32786962 10.5977861,0.953743038 C11.6407101,1.57941814 12.4478409,2.47697932 13.0191785,3.64622827 C13.5903177,4.81567553 13.8760857,6.16538861 13.8760857,7.69596245 L13.8760857,8.39322827 Z" id="Fill-19" fill="#565656" mask="url(#mask-2)"></path>
                    </g>
                    <path d="M9.36910295,87.2406068 L3.19921266,87.2406068 L3.19921266,93.8890245 L3.96624473e-05,93.8890245 L3.96624473e-05,79.216497 C3.96624473e-05,78.4567629 0.614014346,77.8410034 1.37117046,77.8410034 L10.2831241,77.8410034 L10.2831241,80.5919907 L3.19921266,80.5919907 L3.19921266,84.71867 L9.36910295,84.71867 L9.36910295,87.2406068 Z" id="Fill-22" fill="#565656"></path>
                    <path d="M168.643457,42.4969835 C168.643457,54.1773759 159.205381,63.6461903 147.562866,63.6461903 L108.915381,63.6461903 L108.915381,56.5965869 C108.915381,52.7029245 112.061406,49.5467852 115.942178,49.5467852 L147.562866,49.5467852 C151.443836,49.5467852 154.589862,46.3904477 154.589862,42.4969835 C154.589862,39.0447641 152.116511,36.1720131 148.850507,35.5651776 L159.392587,24.9889878 C164.975672,28.7934097 168.643457,35.2155532 168.643457,42.4969835" id="Fill-24" fill="#3F6FB6"></path>
                    <g id="Group-28" transform="translate(105.303797, 0.087456)">
                        <mask id="mask-4" fill="white">
                            <use xlink:href="#path-3"></use>
                        </mask>
                        <g id="Clip-27"></g>
                        <path d="M49.975457,0.110836709 C52.215592,0.110836709 54.3639084,1.0036384 55.9478283,2.59291266 C59.2463557,5.90214895 59.2463557,11.2672882 55.9478283,14.5765245 L35.2323304,35.3598451 L15.5571785,35.3598451 L36.6377692,14.2104401 L0.0981447257,14.2104401 L0.0981447257,0.110836709 L49.975457,0.110836709 Z" id="Fill-26" fill="#4386C6" mask="url(#mask-4)"></path>
                    </g>
                    <mask id="mask-6" fill="white">
                        <use xlink:href="#path-5"></use>
                    </mask>
                    <g id="Clip-30"></g>
                    <polygon id="Fill-29" fill="#F89B1C" mask="url(#mask-6)" points="35.1335907 63.6463291 98.3749662 63.6463291 98.3749662 49.5467257 35.1335907 49.5467257"></polygon>
                    <path d="M98.3750852,21.3476776 C98.3750852,33.02807 88.9370093,42.4968844 77.2946928,42.4968844 L35.1337097,42.4968844 L35.1337097,35.447281 C35.1337097,31.5536186 38.279735,28.3974793 42.1605072,28.3974793 L77.2946928,28.3974793 C81.1756633,28.3974793 84.3214903,25.2411418 84.3214903,21.3476776 C84.3214903,17.4542135 81.1756633,14.2978759 77.2946928,14.2978759 L35.1337097,14.2978759 L35.1337097,0.198272574 L77.2946928,0.198272574 C88.9370093,0.198272574 98.3750852,9.66728523 98.3750852,21.3476776" id="Fill-31" fill="#FAAC18" mask="url(#mask-6)"></path>
                    <polygon id="Fill-32" fill="#019F62" mask="url(#mask-6)" points="10.5397996 29.1024 24.5933945 22.0525983 24.5933945 63.6462101 10.5397996 63.6462101"></polygon>
                    <path d="M24.5934342,0.198292405 L24.5934342,14.2978958 L0.00113037975,26.6341068 L-5.95721083e-05,16.8930097 C-0.000456118143,14.2225371 1.50334557,11.7809169 3.88428228,10.5866806 L24.5934342,0.198292405 Z" id="Fill-33" fill="#18B57F" mask="url(#mask-6)"></path>
                </g>
            </g>
        </g>
    </g>
</svg>