<?xml version="1.0" encoding="UTF-8"?>
<svg width="310px" height="310px" viewBox="0 0 310 310" version="1.1" xmlns="http://www.w3.org/2000/svg" xmlns:xlink="http://www.w3.org/1999/xlink">
    <!-- Generator: Sketch 63.1 (92452) - https://sketch.com -->
    <title>Cognizant_Softvision_logo</title>
    <desc>Created with Sketch.</desc>
    <defs>
        <polygon id="path-1" points="0 71.9324632 223.073598 71.9324632 223.073598 0.022988616 0 0.022988616"></polygon>
    </defs>
    <g id="Exports" stroke="none" stroke-width="1" fill="none" fill-rule="evenodd">
        <g id="Artboard" transform="translate(-1030.000000, -1739.000000)">
            <g id="Group-47" transform="translate(1030.000000, 1739.000000)">
                <g id="Group-26" transform="translate(43.457944, 118.785047)">
                    <path d="M86.0333851,32.7657735 L82.4099457,32.7657735 L82.4099457,42.799924 L77.0212481,42.799924 L77.0212481,46.4233403 L82.4099457,46.4233403 L82.4099457,62.4500949 C82.4099457,67.4253433 85.6617397,71.044125 90.195685,71.044125 L91.4220827,71.044125 L91.4220827,67.4206856 L90.195685,67.4206856 C87.3387557,67.4206856 86.0148005,64.8424789 86.0148005,62.4500949 L86.0148005,46.4233403 L91.4034981,46.4233403 L91.4034981,42.799924 L86.0333851,42.799924 L86.0333851,32.7657735 Z" id="Fill-1" fill="#020303"></path>
                    <path d="M65.0360375,37.7363942 L65.0360375,42.7999309 L59.6473168,42.7999309 L59.6473168,46.4233472 L65.0360375,46.4233472 L65.0360375,71.0441319 L68.6594769,71.0441319 L68.6594769,46.4233472 L74.0481745,46.4233472 L74.0481745,42.7999309 L68.6594769,42.7999309 L68.6594769,37.7363942 C68.6594769,35.3393526 69.9601898,32.7657805 72.8403613,32.7657805 L74.066759,32.7657805 L74.066759,29.1423411 L72.8403613,29.1423411 C68.3110737,29.1423411 65.0360375,32.7564882 65.0360375,37.7363942" id="Fill-3" fill="#020303"></path>
                    <mask id="mask-2" fill="white">
                        <use xlink:href="#path-1"></use>
                    </mask>
                    <g id="Clip-6"></g>
                    <polygon id="Fill-5" fill="#020303" mask="url(#mask-2)" points="124.878474 38.7119301 130.824617 38.7119301 130.824617 32.7657643 124.878474 32.7657643"></polygon>
                    <polygon id="Fill-7" fill="#020303" mask="url(#mask-2)" points="157.001641 38.7119301 162.947783 38.7119301 162.947783 32.7657643 157.001641 32.7657643"></polygon>
                    <path d="M150.823207,56.3088325 C149.687196,55.7487358 148.517382,55.260049 147.320567,54.845516 C146.081764,54.4088476 144.918868,54.0449496 143.831832,53.7538219 C142.857871,53.5148971 141.94273,53.0802578 141.14214,52.4763282 C140.466755,51.9951352 140.068086,51.2151593 140.073689,50.385909 C140.091397,49.5562667 140.503855,48.7848453 141.183944,48.3093706 C142.062677,47.6805616 143.129122,47.3693045 144.208112,47.4267645 C145.185854,47.4342353 146.150016,47.6562357 147.032552,48.0771095 C147.697977,48.3503674 148.323097,48.712928 148.890711,49.1548536 C149.188018,49.4335762 149.415644,49.6519104 149.568955,49.8052216 L153.419998,45.9448865 L153.043741,45.5081951 C152.689389,45.1783303 152.31719,44.8681569 151.928828,44.5791045 C151.36518,44.1487078 150.770497,43.7605299 150.149643,43.4177528 C149.322076,42.9851426 148.441153,42.6633942 147.529609,42.4607854 C146.443472,42.1991025 145.329988,42.0681343 144.212769,42.0705448 C141.34189,42.0705448 138.944848,42.9114038 137.021644,44.5930545 C135.098417,46.2746821 134.13836,48.2103143 134.14145,50.3998359 C134.099692,51.834261 134.47226,53.2503551 135.214536,54.4785283 C135.861284,55.550508 136.798791,56.4171119 137.918177,56.9777621 C139.056287,57.5292352 140.225847,58.0131951 141.420863,58.4271286 C142.665822,58.8638201 143.831832,59.2354424 144.909576,59.5327496 C145.881069,59.7785456 146.794919,60.2125854 147.59929,60.8102664 C148.274837,61.2854644 148.675489,62.0608056 148.672376,62.8867587 C148.709269,63.8917785 148.26815,64.8549485 147.483148,65.48355 C146.693442,66.133918 145.507303,66.459102 143.924731,66.459102 C142.586711,66.4520463 141.270826,66.1171089 140.09225,65.48355 C139.207915,65.0790702 138.387772,64.5469195 137.658062,63.9040914 C137.354184,63.5826658 137.070296,63.2429093 136.807968,62.8867587 L132.956879,66.7471168 L133.388913,67.2999273 C133.7838,67.7656024 134.225933,68.1890357 134.70821,68.5634942 C135.381451,69.1015938 136.092461,69.5906265 136.835822,70.0267646 C137.812134,70.581927 138.859143,71.0022705 139.948254,71.2764045 C141.243964,71.6302494 142.581615,71.8068259 143.924731,71.8014622 C147.086738,71.8014622 149.657221,70.9295462 151.636178,69.1859623 C153.523067,67.6398222 154.613354,65.3261806 154.604592,62.8867587 C154.646926,61.457268 154.275949,60.0459237 153.536163,58.8219932 C152.882867,57.7485148 151.943423,56.8782446 150.823207,56.3088325" id="Fill-8" fill="#020303" mask="url(#mask-2)"></path>
                    <polygon id="Fill-9" fill="#020303" mask="url(#mask-2)" points="156.829768 71.0441388 162.775911 71.0441388 162.775911 42.7999147 156.829768 42.7999147"></polygon>
                    <path d="M219.86361,45.4524436 C217.726706,43.185494 214.939458,42.053541 211.501818,42.0566474 C210.507289,42.0577375 209.517142,42.1889133 208.556623,42.4468377 C207.725874,42.654819 206.918137,42.9458544 206.145655,43.3155399 C205.525654,43.6309936 204.929449,43.9912023 204.361812,44.3932841 C203.974441,44.652984 203.605078,44.9385547 203.256191,45.2480594 L202.926372,45.5732203 L202.926372,42.8091909 L196.96628,42.8091909 L196.96628,71.0441457 L202.912422,71.0441457 L202.912422,54.6039419 C203.088953,52.522815 203.743956,50.8550912 204.882088,49.6194012 C206.229262,48.1545399 208.03478,47.423654 210.298662,47.4267668 C212.133763,47.3867846 213.900289,48.1240805 215.162403,49.4568207 C216.475706,50.8279983 217.183649,52.6689783 217.127434,54.5667727 L217.127434,71.0441457 L223.0736,71.0441457 L223.0736,54.5667727 C223.0736,50.7575337 222.003626,47.7194163 219.86361,45.4524436" id="Fill-10" fill="#020303" mask="url(#mask-2)"></path>
                    <polygon id="Fill-11" fill="#020303" mask="url(#mask-2)" points="108.099185 63.3001848 99.8907038 42.7999194 93.6518885 42.7999194 105.144675 71.0441434 111.053671 71.0441434 122.546458 42.7999194 116.307665 42.7999194"></polygon>
                    <path d="M179.871089,65.8412478 C174.945139,65.8412478 170.951875,61.8479615 170.951875,56.9220106 C170.951875,51.9960598 174.945139,48.0027735 179.871112,48.0027735 C184.797063,48.0027735 188.790327,51.9960598 188.790327,56.9220337 C188.790327,61.8479615 184.797063,65.8412478 179.871089,65.8412478 M179.871089,42.0566538 C171.724542,42.2076362 165.156738,48.7754631 165.00571,56.9220337 C164.925607,65.1315521 171.515823,71.8516295 179.725341,71.9317553 C187.934883,72.0118581 194.654937,65.4216652 194.735063,57.2121237 C194.774376,53.1840432 193.177279,49.312502 190.309374,46.4837494 C187.592267,43.6274888 183.813164,42.0246957 179.871089,42.0566538" id="Fill-12" fill="#020303" mask="url(#mask-2)"></path>
                    <polygon id="Fill-13" fill="#020303" mask="url(#mask-2)" points="124.776282 71.0441388 130.722425 71.0441388 130.722425 42.7999147 124.776282 42.7999147"></polygon>
                    <path d="M44.7819531,68.1639603 C38.5732052,68.1639603 33.5400126,63.1307677 33.5400126,56.9220198 C33.5400126,50.713272 38.5732052,45.6800794 44.7819531,45.6800794 C50.990724,45.6800794 56.0238936,50.713272 56.0238936,56.9220198 C56.0238936,63.1307908 50.990724,68.1639603 44.7819531,68.1639603 M44.7819531,42.05664 C40.8378029,42.028325 37.0583776,43.636283 34.3436688,46.4976855 C28.5839022,52.0601236 28.4239272,61.2385994 33.9863883,66.998366 C34.1034066,67.1195347 34.2225232,67.2386513 34.3436688,67.3556465 C39.9082051,73.120555 49.0925146,73.2829971 54.8574231,67.7184839 C54.9804825,67.5996671 55.1014437,67.4787059 55.2202374,67.3556465 C60.980004,61.7932084 61.139979,52.6147326 55.5775178,46.8549429 C55.4604996,46.7337973 55.3414061,46.6146807 55.2202374,46.4976855 C52.5052058,43.6367442 48.725988,42.0288784 44.7819531,42.05664" id="Fill-14" fill="#020303" mask="url(#mask-2)"></path>
                    <path d="M19.4504167,49.8238085 C17.2438323,49.0712253 15.0093942,48.3465651 12.7981522,47.6729779 C10.8152054,47.0993924 8.95958366,46.1534465 7.33048167,44.8857062 C5.94602282,43.8919616 5.14808496,42.2734201 5.20287027,40.5701181 C5.14527191,38.4784538 6.04076728,36.4738327 7.63708109,35.1210322 C9.27227034,33.7273733 11.5996314,32.9330094 14.5541412,32.9330094 C15.6703919,32.9286745 16.7823999,33.0708027 17.8616889,33.3557509 C18.7498057,33.5641933 19.6104377,33.8760268 20.4259687,34.2848415 C21.0776279,34.6337058 21.6991506,35.0361565 22.2841268,35.48802 C22.8601564,35.9525422 23.9657774,36.9791903 24.1423079,37.1417707 L26.7762683,34.4660065 C26.0634137,33.6982282 25.2863662,32.9926599 24.4535419,32.3570027 C23.698676,31.8253593 22.9104224,31.3427828 22.0936694,30.9122478 C21.0268316,30.3720729 19.9035714,29.9514066 18.744318,29.6579963 C17.3795966,29.3000702 15.9742705,29.1205192 14.5634335,29.123727 C10.6937831,29.123727 7.50237749,30.3037066 5.08209357,32.4499026 C2.71894685,34.4830001 1.36995089,37.4528434 1.39363124,40.5701181 C1.31322872,42.9339105 2.19297562,45.2296132 3.83247668,46.9343447 C5.43236445,48.6303604 7.42499555,49.9066552 9.6346235,50.6506839 C11.8319155,51.403244 14.0663767,52.1232927 16.2822303,52.8061722 C18.2717486,53.3775672 20.1338265,54.3235822 21.7684854,55.5934439 C23.1649343,56.6553704 23.9611428,58.3274521 23.9053891,60.0809278 C23.9053891,62.5058463 23.0784907,64.3872236 21.3782784,65.8366132 C19.6780432,67.2859797 17.197394,68.0199552 13.945577,68.0199552 C12.5834381,68.0265267 11.2267869,67.8468143 9.91334606,67.4857293 C8.84623157,67.2062689 7.81564062,66.8024578 6.84271719,66.2825739 C6.07689883,65.8456518 5.35638903,65.3336997 4.6918866,64.7542113 C3.87893812,64.043478 2.73151335,62.8728341 2.61073665,62.7241575 L-4.61155787e-06,65.3070218 C0.770978692,66.202033 1.61468626,67.0317675 2.52247143,67.7876711 C3.36103711,68.45079 4.2459259,69.0531517 5.17035879,69.5901215 C6.39336699,70.2686892 7.69862233,70.7870283 9.05393614,71.1324109 C10.6540314,71.5692869 12.3054995,71.789604 13.9641616,71.7874297 C18.145046,71.7874297 21.4943975,70.6771579 23.9564852,68.4937928 C26.3896123,66.3754045 27.7519817,63.2828246 27.6728244,60.0576855 C27.6728244,57.4051635 26.8552413,55.1985792 25.2386366,53.5029786 C23.6369964,51.8243023 21.650222,50.5614272 19.4504167,49.8238085" id="Fill-15" fill="#020303" mask="url(#mask-2)"></path>
                    <polygon id="Fill-16" fill="#020303" mask="url(#mask-2)" points="89.3873827 18.0211727 81.7874431 18.0211727 89.3873827 10.4212561 89.3873827 7.00222406 76.3708686 7.00222406 76.3708686 10.4212561 83.9708082 10.4212561 76.3708686 18.0211727 76.3708686 21.4448624 89.3873827 21.4448624"></polygon>
                    <path d="M110.956121,13.4593781 C110.956121,10.9926558 112.191811,9.94742317 113.715516,9.94742317 C115.517943,9.94742317 116.372695,11.0855557 116.372695,13.0830981 L116.372695,21.444867 L120.46068,21.444867 L120.46068,12.6185528 C120.46068,8.90219052 118.370215,6.6352409 114.853625,6.6352409 C113.288462,6.65329515 111.817906,7.38773185 110.863221,8.62812563 L110.863221,6.98362104 L106.872794,6.98362104 L106.872794,21.4309401 L110.956121,21.4309401 L110.956121,13.4593781 Z" id="Fill-17" fill="#020303" mask="url(#mask-2)"></path>
                    <path d="M59.8331511,13.4593781 C59.8331511,10.9926558 61.0688411,9.94742317 62.5925459,9.94742317 C64.3949733,9.94742317 65.2497255,11.0855557 65.2497255,13.0830981 L65.2497255,21.444867 L69.3377102,21.444867 L69.3377102,12.6185528 C69.3377102,8.90219052 67.247268,6.6352409 63.7306784,6.6352409 C62.1654926,6.65329515 60.694959,7.38773185 59.7402512,8.62812563 L59.7402512,6.98362104 L55.7451664,6.98362104 L55.7451664,21.4309401 L59.8284934,21.4309401 L59.8331511,13.4593781 Z" id="Fill-18" fill="#020303" mask="url(#mask-2)"></path>
                    <path d="M94.042107,14.2258698 C94.0136768,12.2018109 95.6314805,10.5379608 97.6555163,10.5095075 C97.6898263,10.5090464 97.7241362,10.5090464 97.7584462,10.5095075 C99.8109354,10.5095075 101.474808,12.1733806 101.474808,14.2258698 C101.440037,16.2637864 99.7963628,17.9074609 97.7584462,17.942209 C95.7059802,17.942209 94.042107,16.2783589 94.042107,14.2258698 M101.358666,19.8514862 L101.358666,21.4448716 L105.353728,21.4448716 L105.353728,6.98362565 L101.358666,6.98362565 L101.358666,8.29365395 C100.199321,7.18362891 98.6478543,6.57739352 97.0430553,6.60736864 C93.7587268,6.60736864 89.9587801,8.930072 89.9587801,14.1143623 C89.9587801,19.2986757 93.8516497,21.7143019 96.9269132,21.8072017 C98.6243585,21.8613414 100.254567,21.1418923 101.358666,19.8514862" id="Fill-19" fill="#020303" mask="url(#mask-2)"></path>
                    <path d="M30.0931014,10.5141744 C32.1455905,10.5141744 33.8094406,12.1780245 33.8094406,14.2305136 C33.8094406,16.2829797 32.1455905,17.9468759 30.0931014,17.9468759 C28.0406122,17.9468759 26.3767622,16.2829797 26.3767622,14.2305136 C26.3767622,12.1780245 28.0406122,10.5141744 30.0931014,10.5141744 L30.0931014,10.5141744 Z M30.0931014,21.8211379 C34.290426,21.8211379 37.693041,18.418546 37.693041,14.2211983 C37.693041,10.0238966 34.290426,6.62130477 30.0931014,6.62130477 C25.8957767,6.62130477 22.4931833,10.0238966 22.4931833,14.2211983 C22.4906023,18.4159635 25.8890438,21.8185785 30.0838091,21.8211379 L30.0931014,21.8211379 Z" id="Fill-20" fill="#020303" mask="url(#mask-2)"></path>
                    <polygon id="Fill-21" fill="#020303" mask="url(#mask-2)" points="70.8567481 21.4402163 74.8471753 21.4402163 74.8471753 6.99757792 70.8567481 6.99757792"></polygon>
                    <polygon id="Fill-22" fill="#020303" mask="url(#mask-2)" points="70.8567481 5.85944543 74.8471753 5.85944543 74.8471753 1.86901829 70.8567481 1.86901829"></polygon>
                    <path d="M130.072063,21.4448716 L130.736358,21.4448716 L130.736358,17.4497868 L130.072063,17.4497868 C128.529774,17.4497868 127.981621,17.0363607 127.981621,14.6950497 L127.981621,10.4212654 L130.736358,10.4212654 L130.736358,6.98362565 L127.981621,6.98362565 L127.981621,1.8736506 L123.991194,1.8736506 L123.991194,6.98362565 L121.245749,6.98362565 L121.245749,10.4212654 L124.000486,10.4212654 L124.000486,14.6950497 C123.977267,20.2742046 127.284815,21.4448716 130.072063,21.4448716" id="Fill-23" fill="#020303" mask="url(#mask-2)"></path>
                    <path d="M46.621545,10.5141744 C48.6740342,10.5141744 50.3378842,12.1780245 50.3378842,14.2305136 C50.3031361,16.2684302 48.6594616,17.9121047 46.621545,17.9468759 C44.5690559,17.9468759 42.9052058,16.2829797 42.9052058,14.2305136 C42.8767756,12.2064547 44.4945562,10.5425816 46.5186381,10.5141744 C46.5529251,10.5136902 46.587235,10.5136902 46.621545,10.5141744 M45.8271811,21.8211379 C47.518862,21.8647171 49.1394556,21.1406333 50.2356921,19.8514723 L50.2356921,21.4448809 C50.2356921,23.4973469 48.571842,25.161197 46.5193529,25.161197 C44.7528034,25.1607359 43.1262378,24.1997333 42.2734224,22.6526709 L38.8358058,24.6362864 C40.4005304,27.4160182 43.3433961,29.135207 46.5332798,29.1330416 C50.7844675,29.1330416 54.2307539,25.6867763 54.2307539,21.4355655 L54.2307539,6.98363487 L50.2356921,6.98363487 L50.2356921,8.29364012 C49.0763465,7.18361508 47.52488,6.57740274 45.920081,6.60735481 C42.6357756,6.60735481 38.8358058,8.93008122 38.8358058,14.1143715 C38.8358058,19.2986849 42.7379677,21.728238 45.8271811,21.8211379" id="Fill-24" fill="#020303" mask="url(#mask-2)"></path>
                    <path d="M12.2918124,21.8211389 C16.1849818,21.8228672 19.7825964,19.7450837 21.7266909,16.3720519 L18.3587549,14.4163133 C16.4230073,17.7691464 12.1357803,18.9179086 8.78297022,16.982161 C5.43016012,15.0464135 4.281398,10.7591865 6.21714553,7.40637638 C8.15289307,4.05356629 12.4401201,2.90480416 15.7929302,4.8405517 C16.858569,5.45580269 17.7435039,6.34071453 18.3587549,7.40637638 L21.7313255,5.45529542 C18.7116082,0.248708233 12.0428805,-1.5240899 6.83629329,1.49562737 C1.62972916,4.51534464 -0.143068971,11.1840724 2.87662524,16.3906365 C4.82401696,19.7483348 8.41028717,21.8168261 12.2918124,21.8211389" id="Fill-25" fill="#020303" mask="url(#mask-2)"></path>
                </g>
            </g>
        </g>
    </g>
</svg>