<?xml version="1.0" encoding="UTF-8"?>
<svg width="310px" height="310px" viewBox="0 0 310 310" version="1.1" xmlns="http://www.w3.org/2000/svg" xmlns:xlink="http://www.w3.org/1999/xlink">
    <!-- Generator: Sketch 63.1 (92452) - https://sketch.com -->
    <title>continental_logo</title>
    <desc>Created with Sketch.</desc>
    <defs>
        <polygon id="path-1" points="0.025796653 0.148284358 33.3381839 0.148284358 33.3381839 34.7543273 0.025796653 34.7543273"></polygon>
        <polygon id="path-3" points="0 0.148302917 210.337539 0.148302917 210.337539 44.9121585 0 44.9121585"></polygon>
    </defs>
    <g id="Exports" stroke="none" stroke-width="1" fill="none" fill-rule="evenodd">
        <g id="Artboard" transform="translate(-1030.000000, -2049.000000)">
            <g id="Group-48" transform="translate(1030.000000, 2049.000000)">
                <g id="Group-7" transform="translate(31.000000, 136.000000)">
                    <g id="Group-3" transform="translate(212.868784, 0.037303)">
                        <mask id="mask-2" fill="white">
                            <use xlink:href="#path-1"></use>
                        </mask>
                        <g id="Clip-2"></g>
                        <path d="M26.5184025,20.2978088 C26.3140708,19.5146298 26.0078515,18.6273363 25.7690005,18.1850814 C25.7690005,18.1850814 25.9050361,18.0470044 26.1782208,18.2188583 C26.4508487,18.3879285 28.1896173,19.5823692 28.1896173,19.5823692 C29.0754262,20.8779551 29.6212388,26.1963341 29.6557581,28.1063999 C28.8375031,27.7289151 27.678324,27.0808438 26.9276228,26.3654042 L26.5184025,20.2978088 Z M21.2681341,15.3541308 C19.8365126,13.7851746 18.6428143,12.3201474 17.4836352,10.5823067 C18.2330372,9.14827262 18.7794066,5.36525842 18.4379258,3.90041682 C18.3020758,3.45537816 17.0746005,1.8186826 16.869712,1.58205862 C16.5625648,1.2723132 15.5746829,0.148210123 15.0969808,0.148210123 C14.9941654,0.148210123 14.8928346,0.181987036 14.857573,0.215949536 L14.9941654,1.47794407 C13.6648026,2.33146067 11.9260339,3.48915507 10.3576346,4.64981887 C10.3576346,5.09188813 10.3914115,5.77373635 10.425374,6.01314414 C10.6640394,6.2159912 10.9370385,6.38784516 11.2434434,6.4891759 C11.8575522,6.38784516 13.7668757,5.908844 14.2779835,5.97936723 L12.4033648,8.8075341 L10.2548191,10.3427133 L7.5617599,9.48919673 C7.39120505,9.45541982 7.22102138,9.48919673 7.11894829,9.62727378 L5.14077186,11.773778 C5.03851318,11.8751088 4.97021701,11.9794089 4.97021701,12.2188167 L4.90192083,14.6386912 C4.90192083,14.6386912 4.86814392,15.0132066 4.86814392,15.4216846 C4.86814392,17.1597109 5.65262199,17.9794506 5.65262199,17.9794506 L6.94765109,16.1033472 C6.77728183,15.8329463 6.47106257,15.0807605 6.40258081,14.7400219 C6.40258081,14.6722825 6.43635772,12.6612571 6.43635772,12.6612571 L7.6976099,11.7400011 L11.0392972,14.0921362 C11.0392972,14.0921362 11.9596253,15.7963856 12.846362,16.8217562 C13.4259516,17.5371957 16.3238993,19.4780691 17.7217439,20.2978088 C17.8583362,21.0470252 18.1654834,22.2752428 18.4041488,22.9231286 L22.4957949,27.1175901 L20.0746213,30.1513879 C19.2225894,30.695159 18.4041488,31.6867527 18.4718883,32.6050393 L21.2681341,32.6050393 L21.5745389,31.0021206 L24.9169686,27.2866603 C25.0867811,27.0808438 25.0867811,26.9795131 24.9845224,26.6725514 L24.0296751,23.4696836 C24.5077483,22.9231286 25.5295927,21.5598033 25.5295927,19.9231077 C25.5295927,16.9570494 22.2909064,16.2076473 21.2681341,15.3541308 L21.2681341,15.3541308 Z M6.19769228,9.25257276 C6.09561919,9.28634967 3.60614939,9.9681979 3.60614939,9.9681979 C3.60614939,9.9681979 2.44697029,10.4102672 1.93493456,10.7511913 C1.42438354,11.0921154 0.844237227,11.6722617 0.810460314,11.9794089 L3.02730219,12.4892176 C3.36804071,12.1147021 3.74274173,11.7062242 4.08366585,11.4328539 L4.59570157,11.1934461 L6.43635772,9.32031217 C6.43635772,9.32031217 6.36824713,9.21879585 6.19769228,9.25257276 L6.19769228,9.25257276 Z M16.6653802,28.4105777 L19.802179,25.4105569 L21.0979504,26.7063284 L17.7217439,29.5712415 C17.4493015,29.9119801 17.2449697,30.4585351 17.0746005,30.7992736 L14.5851307,30.7992736 C14.7219086,29.8782032 16.0174945,28.7203232 16.6653802,28.4105777 L16.6653802,28.4105777 Z M0.025796653,34.7543273 L33.3381839,34.7543273 L33.3381839,33.661403 L0.025796653,33.661403 L0.025796653,34.7543273 Z" id="Fill-1" fill="#F9A61B" mask="url(#mask-2)"></path>
                    </g>
                    <g id="Group-6" transform="translate(0.000000, 0.037303)">
                        <mask id="mask-4" fill="white">
                            <use xlink:href="#path-3"></use>
                        </mask>
                        <g id="Clip-5"></g>
                        <path d="M79.4269481,34.7542345 L79.4269481,32.6049465 L81.5077544,32.6049465 L81.5077544,14.0582665 L79.4269481,14.0582665 L79.4269481,11.9793161 L88.70168,11.9793161 L88.70168,32.6049465 L90.815892,32.6049465 L90.815892,34.7542345 L79.4269481,34.7542345 Z M188.618984,32.0246146 L188.516168,32.0246146 C187.187362,33.9007179 185.413332,35.1627125 182.685754,35.1627125 C178.968809,35.1627125 176.65045,31.9908377 176.65045,28.2048541 C176.65045,23.6386609 179.890621,20.7399708 185.072594,20.7399708 C187.187362,20.7399708 188.31128,21.218972 188.31128,21.218972 L188.31128,19.7851235 C188.31128,17.0245104 186.606845,15.556885 184.118303,15.556885 C180.674543,15.556885 178.901255,18.2189511 178.901255,18.2189511 L177.640559,16.6835863 C179.924398,13.1371961 183.43497,11.5342774 186.708918,11.5342774 C192.233113,11.5342774 195.505762,14.807483 195.505762,19.7851235 L195.505762,32.6049465 L197.823935,32.6049465 L197.823935,34.7542345 L188.618984,34.7542345 L188.618984,32.0246146 Z M188.31128,23.4669925 C188.106948,23.2639599 187.663394,22.9907752 186.743623,22.9907752 C184.595634,22.9907752 184.118303,25.1062863 184.118303,27.2865675 C184.118303,29.4358555 184.766189,31.1738818 186.606845,31.1738818 C187.493582,31.1738818 188.038652,30.7965826 188.31128,30.4922192 L188.31128,23.4669925 Z M207.541664,32.6049465 L210.337539,32.6049465 L210.337539,34.7542345 L200.347367,34.7542345 L200.347367,5.6357521 L197.859196,5.6357521 L197.859196,3.55680169 L207.541664,3.55680169 L207.541664,32.6049465 Z M74.5346778,14.0582665 L74.5346778,30.9006971 C74.5346778,32.0585771 75.2838943,32.3315762 76.0000762,32.3315762 C76.6817388,32.3315762 77.3298101,32.0951378 77.3298101,32.0951378 L77.3298101,34.1740882 C77.3298101,34.1740882 75.9664849,35.0246354 72.9317592,35.0246354 C69.3853689,35.0246354 67.3049338,33.2866091 67.3049338,29.6049257 L67.3049338,14.0582665 L64.8837602,14.0582665 L64.8837602,12.5230873 C67.5788609,10.376583 70.7162164,7.92033338 73.2042015,5.84138297 L74.5346778,5.84138297 L74.5346778,11.9793161 L77.3298101,11.9793161 L77.3298101,14.0582665 L74.5346778,14.0582665 Z M80.7570532,5.94271371 C80.7570532,7.95392471 82.5643036,9.28365865 85.1558465,9.28365865 C87.7466471,9.28365865 89.5538975,7.95392471 89.5538975,5.94271371 C89.5538975,3.93131712 87.7466471,2.60176876 85.1558465,2.60176876 C82.5643036,2.60176876 80.7570532,3.93131712 80.7570532,5.94271371 L80.7570532,5.94271371 Z M54.9626273,19.1372378 C54.9626273,17.0920643 54.314556,15.4893312 52.5420104,15.4893312 C50.7689081,15.4893312 50.0527262,17.0920643 50.0527262,19.1372378 L50.0527262,32.6049465 L52.1322334,32.6049465 L52.1322334,34.7542345 L40.7447741,34.7542345 L40.7447741,32.6049465 L42.8588006,32.6049465 L42.8588006,14.0582665 L40.7447741,14.0582665 L40.7447741,11.9793161 L49.7125444,11.9793161 L49.7125444,15.4555543 L49.8138752,15.4555543 C50.666835,13.5454884 52.6442691,11.5342774 55.8154015,11.5342774 C59.1569032,11.5342774 61.2026335,13.5794509 61.8505192,16.2725102 C62.0886279,17.331472 62.1569241,19.0694983 62.1569241,19.954008 L62.1569241,32.6049465 L64.8837602,32.6049465 L64.8837602,34.7542345 L54.9626273,34.7542345 L54.9626273,19.1372378 Z M15.9226407,23.3652906 C15.9226407,30.2528114 20.1503224,35.8445607 27.3791385,35.8445607 C34.6066554,35.8445607 38.8348939,30.2528114 38.8348939,23.3652906 C38.8348939,16.478141 34.6066554,10.8863917 27.3791385,10.8863917 C20.1503224,10.8863917 15.9226407,16.478141 15.9226407,23.3652906 L15.9226407,23.3652906 Z M24.3783753,23.2979224 C24.3783753,16.3428478 25.026261,13.2724893 27.3791385,13.2724893 C29.7320159,13.2724893 30.3791593,16.3428478 30.3791593,23.2979224 C30.3791593,30.2528114 29.7320159,33.320386 27.3791385,33.320386 C25.026261,33.320386 24.3783753,30.2528114 24.3783753,23.2979224 L24.3783753,23.2979224 Z M124.893642,22.1372586 C124.893642,16.1372169 125.370973,13.8865981 127.416889,13.8865981 C129.496581,13.8865981 129.906358,16.0694775 129.973912,22.1372586 L124.893642,22.1372586 Z M135.327553,28.6838552 C134.304224,29.8782959 132.701491,30.7965826 130.315579,30.7965826 C128.234587,30.7965826 125.029492,29.6388882 124.893642,24.3541005 L137.065579,24.3541005 C137.100098,23.9458081 137.133875,23.1258828 137.133875,22.7175905 C137.133875,16.3090709 134.509298,11.5342774 127.655554,11.5342774 C120.768219,11.5342774 117.256162,16.8216634 117.256162,23.3992531 C117.256162,29.9796267 120.768219,35.1627125 127.655554,35.1627125 C132.088124,35.1627125 134.884556,33.0839477 136.520509,29.8105565 L135.327553,28.6838552 Z M30.3116055,0.148302917 C30.3116055,0.148302917 35.8010961,5.6357521 38.3243428,8.46670278 L38.3243428,10.6130214 C35.9722077,8.12577867 31.0953412,6.04423003 26.5608835,6.04423003 C16.2980841,6.04423003 9.85356054,13.7850818 9.85356054,23.3652906 C9.85356054,32.9120937 15.95716,40.6529455 26.5608835,40.6529455 C31.8453,40.6529455 36.0729817,38.1627333 38.4256736,35.6049673 L38.4256736,37.6501408 C35.2200219,42.0502332 29.3567581,44.912177 22.0607594,44.912177 C9.00152864,44.912177 -1.85587432e-05,35.4360828 -1.85587432e-05,23.3652906 C-1.85587432e-05,11.2948697 9.99015289,1.8525523 22.0607594,1.8525523 C25.1298188,1.8525523 27.8909886,2.36236098 30.3116055,3.21587758 L30.3116055,0.148302917 Z M172.422954,14.0582665 L172.422954,30.9006971 C172.422954,32.0585771 173.173099,32.3315762 173.888538,32.3315762 C174.570943,32.3315762 175.218643,32.0951378 175.218643,32.0951378 L175.218643,34.1740882 C175.218643,34.1740882 173.855318,35.0246354 170.820221,35.0246354 C167.274388,35.0246354 165.194138,33.2866091 165.194138,29.6049257 L165.194138,14.0582665 L162.774264,14.0582665 L162.774264,12.5230873 C165.467323,10.376583 168.604678,7.92033338 171.093406,5.84138297 L172.422954,5.84138297 L172.422954,11.9793161 L175.901234,11.9793161 L175.901234,14.0582665 L172.422954,14.0582665 Z M106.857513,19.1372378 C106.857513,17.0920643 106.209627,15.4893312 104.437082,15.4893312 C102.663794,15.4893312 101.948354,17.0920643 101.948354,19.1372378 L101.948354,32.6049465 L104.027861,32.6049465 L104.027861,34.7542345 L92.6396597,34.7542345 L92.6396597,32.6049465 L94.7531294,32.6049465 L94.7531294,14.0582665 L92.6396597,14.0582665 L92.6396597,11.9793161 L101.606688,11.9793161 L101.606688,15.4555543 L101.708761,15.4555543 C102.560978,13.5454884 104.539155,11.5342774 107.709545,11.5342774 C111.051046,11.5342774 113.096962,13.5794509 113.744106,16.2725102 C113.983513,17.331472 114.051995,19.0694983 114.051995,19.954008 L114.051995,32.6049465 L116.78013,32.6049465 L116.78013,34.7542345 L106.857513,34.7542345 L106.857513,19.1372378 Z M152.851646,19.1372378 C152.851646,17.0920643 152.204317,15.4893312 150.431215,15.4893312 C148.657927,15.4893312 147.942487,17.0920643 147.942487,19.1372378 L147.942487,32.6049465 L150.021994,32.6049465 L150.021994,34.7542345 L138.633793,34.7542345 L138.633793,32.6049465 L140.747448,32.6049465 L140.747448,14.0582665 L138.633793,14.0582665 L138.633793,11.9793161 L147.600821,11.9793161 L147.600821,15.4555543 L147.703636,15.4555543 C148.556596,13.5454884 150.533288,11.5342774 153.703864,11.5342774 C157.046108,11.5342774 159.091096,13.5794509 159.738981,16.2725102 C159.978575,17.331472 160.046685,19.0694983 160.046685,19.954008 L160.046685,32.6049465 L162.774264,32.6049465 L162.774264,34.7542345 L152.851646,34.7542345 L152.851646,19.1372378 Z" id="Fill-4" fill="#F9A61B" mask="url(#mask-4)"></path>
                    </g>
                </g>
            </g>
        </g>
    </g>
</svg>