<?xml version="1.0" encoding="UTF-8"?>
<svg width="310px" height="310px" viewBox="0 0 310 310" version="1.1" xmlns="http://www.w3.org/2000/svg" xmlns:xlink="http://www.w3.org/1999/xlink">
    <!-- Generator: Sketch 63.1 (92452) - https://sketch.com -->
    <title>endava_logo</title>
    <desc>Created with Sketch.</desc>
    <defs>
        <polygon id="path-1" points="4.61871868e-05 0.255877015 71.0068415 0.255877015 71.0068415 53.2741487 4.61871868e-05 53.2741487"></polygon>
        <polygon id="path-3" points="0.298831098 0.0288208046 25.7895395 0.0288208046 25.7895395 30.9454151 0.298831098 30.9454151"></polygon>
    </defs>
    <g id="Exports" stroke="none" stroke-width="1" fill="none" fill-rule="evenodd">
        <g id="Artboard" transform="translate(-720.000000, -1739.000000)">
            <g id="Group-48" transform="translate(720.000000, 1739.000000)">
                <g id="Group-17" transform="translate(33.317757, 104.953271)">
                    <g id="Group-3" transform="translate(0.000000, 0.205995)">
                        <mask id="mask-2" fill="white">
                            <use xlink:href="#path-1"></use>
                        </mask>
                        <g id="Clip-2"></g>
                        <path d="M36.3230355,8.49659488 C36.3230355,13.0478803 40.0120061,16.7377746 44.5632915,16.7377746 L44.5679102,16.7377746 L44.5702196,16.7377746 L50.3196006,16.7377746 C50.3196006,16.7386984 50.3103631,16.7479358 50.3103631,16.7479358 C50.3103631,16.7479358 52.0488488,16.8393864 53.2571056,18.0471814 C54.2385834,19.029121 54.481528,20.568078 54.5235583,20.903397 L54.5235583,26.7257538 L54.5235583,26.7280631 L54.5235583,26.7331437 L54.5235583,26.7520805 L54.5235583,26.7677841 L54.5235583,26.7728647 L54.5235583,26.7765597 L54.5235583,32.7601097 C54.4616675,33.2399946 54.2108711,34.5484776 53.2427876,35.5142517 C52.138452,36.6204348 50.3168293,36.7894799 50.3168293,36.7894799 L44.5609821,36.7894799 L44.5591346,36.7894799 L44.5559015,36.7894799 L44.5522066,36.7894799 L44.5489735,36.7894799 L44.5457403,36.7894799 L38.7169174,36.7894799 C38.2947665,36.7289747 36.7983016,36.4560084 35.8699392,35.5294934 C34.9535854,34.6145253 34.6561399,33.2917242 34.576698,32.7665759 L34.576698,26.778869 L34.576698,26.7765597 L34.576698,26.7719409 C34.576698,22.2206556 30.8895748,18.5293756 26.336442,18.5293756 C21.7851566,18.5293756 18.0943385,22.2206556 18.0943385,26.7719409 C18.0943385,31.3246119 21.7851566,35.0126588 26.336442,35.0126588 L26.3396751,35.0126588 L26.3429082,35.0126588 L32.1163065,35.0126588 C32.114459,35.0149682 32.1098403,35.019125 32.1098403,35.019125 C32.1098403,35.019125 33.8427836,35.1429067 35.0501166,36.3525491 C36.0034202,37.3049289 36.259759,38.7847664 36.3119506,39.1750481 L36.3119506,45.0237315 L36.3119506,45.0260409 L36.3119506,45.0315834 C36.3119506,45.6001476 36.371532,46.1553176 36.4809957,46.6924746 C37.2490886,50.4484166 40.5713329,53.2741487 44.5522066,53.2741487 L44.5545159,53.2741487 C49.1058013,53.2741487 52.7952338,49.581945 52.7952338,45.0315834 L52.7952338,45.0260409 L52.7952338,45.0237315 L52.7952338,39.2434051 C52.8349548,38.9316416 53.0825181,37.3178613 54.0639958,36.3354598 C55.2297604,35.1696952 57.0569255,35.0038832 57.0569255,35.019125 C57.0569255,35.019125 57.0490737,35.0103495 57.0472262,35.0103495 L62.7573481,35.0103495 L62.7619668,35.0103495 L62.7651999,35.0103495 C67.3164853,35.0103495 71.0068415,31.320917 71.0068415,26.7677841 L71.0068415,26.7520805 L71.0068415,26.7331437 C71.0068415,22.1809346 67.3164853,18.491964 62.7651999,18.491964 L62.7619668,18.491964 L62.7573481,18.491964 L56.9636274,18.491964 C56.601058,18.4430056 55.0353123,18.1843573 54.0773901,17.2273588 C53.1453327,16.2948395 52.870057,14.9595679 52.805395,14.4598226 L52.805395,8.50352296 L52.805395,8.50167547 L52.805395,8.49659488 C52.805395,3.94392388 49.1145769,0.255877015 44.5632915,0.255877015 C40.0120061,0.255877015 36.3230355,3.94392388 36.3230355,8.49659488 M26.4422106,53.2741487 C21.8923108,53.2741487 18.2019546,49.581945 18.2019546,45.0315834 L18.2019546,45.0278884 L18.2019546,45.0237315 L18.2019546,39.0665082 C18.1354451,38.5667628 17.8615551,37.2328769 16.9294976,36.3012813 C15.9715754,35.3438209 14.4053679,35.0856346 14.0418747,35.0366761 L8.248154,35.0366761 L8.24584464,35.0366761 L8.2416878,35.0366761 C3.69040241,35.0366761 4.61871868e-05,31.3467818 4.61871868e-05,26.7941108 C4.61871868e-05,26.7876446 0.000969930922,26.7830259 0.000969930922,26.778869 C0.000969930922,26.7719409 4.61871868e-05,26.7640891 4.61871868e-05,26.7585467 C4.61871868e-05,22.2077231 3.69040241,18.5182907 8.2416878,18.5182907 L8.24584464,18.5182907 L8.248154,18.5182907 L13.9601234,18.5182907 C13.9591996,18.5159813 13.950886,18.5095151 13.950886,18.5095151 C13.950886,18.5252187 15.7757417,18.3570974 16.9433538,17.1922565 C17.9234459,16.2121644 18.1710092,14.5960748 18.2107302,14.2843113 L18.2107302,8.50352296 L18.2107302,8.50167547 L18.2107302,8.49659488 C18.2107302,3.94392388 21.9010864,0.255877015 26.4532955,0.255877015 C30.4364785,0.255877015 33.7564135,3.07929974 34.525892,6.83662739 C34.6362794,7.37101314 34.6940134,7.926645 34.6940134,8.49659488 L34.6940134,8.50167547 L34.6940134,8.50352296 L34.6940134,14.3512827 C34.7466668,14.74295 35.0030057,16.2260206 35.957233,17.176091 C37.1641042,18.3857334 38.8979711,18.5095151 38.8979711,18.5095151 C38.8979711,18.5095151 38.8924287,18.5136719 38.8915049,18.5159813 L44.6630558,18.5159813 L44.6653652,18.5159813 L44.669522,18.5159813 C49.2231168,18.5159813 52.9120874,22.2031044 52.9120874,26.7543898 C52.9120874,31.3056752 49.2231168,34.9969552 44.669522,34.9969552 C40.1182366,34.9969552 36.4288041,31.3056752 36.4288041,26.7543898 L36.4288041,26.7520805 L36.4288041,26.7479236 L36.4288041,20.7597548 C36.3516715,20.2359921 36.0533023,18.9164242 35.1360248,17.9968373 C34.2090479,17.0703224 32.713045,16.7987417 32.2885847,16.7377746 L26.4602236,16.7377746 L26.4579143,16.7377746 L26.4532955,16.7377746 L26.4468293,16.7377746 L26.4449819,16.7377746 L20.6886728,16.7377746 C20.6886728,16.7377746 18.8693595,16.9068197 17.7641001,18.012541 C16.7960167,18.9801625 16.5438346,20.2863362 16.4824057,20.7708398 L16.4824057,26.7520805 L16.4824057,26.7543898 L16.4824057,26.7585467 L16.4824057,26.778869 L16.4824057,26.7941108 L16.4824057,26.7987295 L16.4824057,26.800577 L16.4824057,32.6252431 C16.5253597,32.9587146 16.7692281,34.4995192 17.7488583,35.4809969 C18.9580389,36.6883299 20.695139,36.7807043 20.695139,36.7807043 C20.695139,36.7807043 20.6886728,36.7894799 20.6863634,36.7894799 L26.4352825,36.7894799 L26.4380538,36.7894799 L26.4422106,36.7894799 C30.9944197,36.7894799 34.6852378,40.4798361 34.6852378,45.0315834 C34.6852378,49.581945 30.9944197,53.2741487 26.4422106,53.2741487" id="Fill-1" fill="#F05C22" mask="url(#mask-2)"></path>
                    </g>
                    <g id="Group-6" transform="translate(59.119599, 43.160079)">
                        <mask id="mask-4" fill="white">
                            <use xlink:href="#path-3"></use>
                        </mask>
                        <g id="Clip-5"></g>
                        <path d="M12.9028525,5.28538453 C9.00280645,5.28538453 6.62970879,7.99795801 6.11980225,12.7460008 L19.9108343,12.7460008 C19.6290925,8.67644779 17.7072437,5.28538453 12.9028525,5.28538453 M25.6204944,17.550392 L6.00710551,17.550392 C6.62970879,23.2582045 9.85126507,25.6890362 13.4677218,25.6890362 C15.9553637,25.6890362 17.9326371,24.7856148 19.9108343,23.3150148 L23.3591697,27.045092 C20.7597548,29.5313482 17.6504334,30.9455999 13.1291697,30.9455999 C6.17753623,30.9455999 0.298831098,25.3490985 0.298831098,15.5153845 C0.298831098,5.45442964 5.61174319,0.0288208046 13.2986767,0.0288208046 C21.7199865,0.0288208046 25.7895395,6.86775755 25.7895395,14.8941669 C25.7895395,15.9675571 25.6768427,16.9282506 25.6204944,17.550392" id="Fill-4" fill="#525E65" mask="url(#mask-4)"></path>
                    </g>
                    <path d="M106.343088,73.4830752 L106.343088,56.696804 C106.343088,50.705864 104.083149,48.5586217 100.238989,48.5586217 C96.3398669,48.5586217 94.1348906,51.3280054 94.1348906,56.1323966 L94.1348906,73.4830752 L88.3134575,73.4830752 L88.3134575,43.8105789 L94.1348906,43.8105789 L94.1348906,46.6367729 C95.6036431,44.4890687 98.5434575,43.1888994 101.595507,43.1888994 C108.490792,43.1888994 112.164059,47.7106249 112.164059,56.4714105 L112.164059,73.4830752 L106.343088,73.4830752 Z" id="Fill-7" fill="#525E65"></path>
                    <path d="M134.817627,52.4579749 C133.516996,50.7056331 130.803499,48.5583908 127.86507,48.5583908 C123.683282,48.5583908 121.423343,51.7226749 121.423343,57.9967424 C121.423343,65.4568968 123.795979,68.7366489 128.091387,68.7366489 C130.861233,68.7366489 133.29114,66.8706866 134.817627,64.9488377 L134.817627,52.4579749 Z M134.759893,73.4828442 L134.759893,70.6580359 C132.613113,72.636695 130.126856,74.1054475 127.017073,74.1054475 C120.632156,74.1054475 115.600062,69.4714871 115.600062,58.1667112 C115.600062,47.9930596 121.140215,43.1886684 127.300662,43.1886684 C130.29544,43.1886684 133.121633,44.7715033 134.759893,46.5801936 L134.759893,35.2758796 L140.524978,32.2801787 L140.524978,73.4828442 L134.759893,73.4828442 Z" id="Fill-9" fill="#525E65"></path>
                    <path d="M187.724541,73.4830752 L181.904032,73.4830752 L171.27867,43.8105789 L177.381845,43.8105789 L182.696142,59.9188222 C183.654988,62.8013645 184.503909,65.5712101 184.900195,67.2103933 C185.238285,65.5712101 186.029472,62.8013645 186.934279,59.9188222 L192.022259,43.8105789 L198.182706,43.8105789 L187.724541,73.4830752 Z" id="Fill-11" fill="#525E65"></path>
                    <path d="M163.293136,52.4579749 C161.992505,50.7056331 159.279008,48.5583908 156.339655,48.5583908 C152.157867,48.5583908 149.897004,51.7226749 149.897004,57.9967424 C149.897004,65.4568968 152.270564,68.7366489 156.566896,68.7366489 C159.335818,68.7366489 161.765726,66.8706866 163.293136,64.9488377 L163.293136,52.4579749 Z M163.235402,73.4828442 L163.235402,70.6580359 C161.088622,72.636695 158.601442,74.1054475 155.491658,74.1054475 C149.106742,74.1054475 144.07511,69.4714871 144.07511,58.1667112 C144.07511,47.9930596 149.614801,43.1886684 155.775248,43.1886684 C158.770025,43.1886684 161.597143,44.7715033 163.235402,46.5801936 L163.235402,43.7937206 L168.999563,43.7937206 L168.999563,73.4828442 L163.235402,73.4828442 Z" id="Fill-13" fill="#525E65"></path>
                    <path d="M217.05068,52.4579749 C215.750049,50.7056331 213.036552,48.5583908 210.097199,48.5583908 C205.915411,48.5583908 203.654548,51.7226749 203.654548,57.9967424 C203.654548,65.4568968 206.028108,68.7366489 210.323978,68.7366489 C213.093362,68.7366489 215.52327,66.8706866 217.05068,64.9488377 L217.05068,52.4579749 Z M216.992946,73.4828442 L216.992946,70.6580359 C214.846166,72.636695 212.358986,74.1054475 209.249202,74.1054475 C202.863362,74.1054475 197.832653,69.4714871 197.832653,58.1667112 C197.832653,47.9930596 203.372345,43.1886684 209.532792,43.1886684 C212.527569,43.1886684 215.354686,44.7715033 216.992946,46.5801936 L216.992946,43.7937206 L222.757107,43.7937206 L222.757107,73.4828442 L216.992946,73.4828442 Z" id="Fill-15" fill="#525E65"></path>
                </g>
            </g>
        </g>
    </g>
</svg>