<?xml version="1.0" encoding="UTF-8"?>
<svg width="310px" height="310px" viewBox="0 0 310 310" version="1.1" xmlns="http://www.w3.org/2000/svg" xmlns:xlink="http://www.w3.org/1999/xlink">
    <!-- Generator: Sketch 63.1 (92452) - https://sketch.com -->
    <title>intel_logo</title>
    <desc>Created with Sketch.</desc>
    <defs>
        <polygon id="path-1" points="0 0.302905973 162.380952 0.302905973 162.380952 107.380952 0 107.380952"></polygon>
        <polygon id="path-3" points="0 109.6975 162.380952 109.6975 162.380952 2.6177381 0 2.6177381"></polygon>
    </defs>
    <g id="Exports" stroke="none" stroke-width="1" fill="none" fill-rule="evenodd">
        <g id="Artboard" transform="translate(-410.000000, -2049.000000)">
            <g id="Group-40" transform="translate(410.000000, 2049.000000)">
                <g id="Group-14" transform="translate(74.000000, 100.000000)">
                    <g id="Group-3" transform="translate(0.000000, 2.316548)">
                        <mask id="mask-2" fill="white">
                            <use xlink:href="#path-1"></use>
                        </mask>
                        <g id="Clip-2"></g>
                        <path d="M161.66281,30.720381 C154.046619,-6.44128571 81.8997143,-8.79319048 35.3959048,19.5160952 L35.3959048,22.640619 C81.8473333,-1.2372381 147.734714,-1.09319048 153.74019,33.1351429 C155.743762,44.4520476 149.371619,56.2560952 137.978762,63.0394286 L137.978762,71.915381 C151.686857,66.8920476 165.751143,50.633 161.66281,30.720381 M77.1382857,95.7513333 C45.0444762,98.7160952 11.6044762,94.0568095 6.92161905,68.9768095 C4.62733333,56.6175238 10.2635238,43.5091905 17.7356667,35.3665714 L17.7356667,31.0137143 C4.28161905,42.8151429 -3.01504762,57.7437143 1.18590476,75.3882381 C6.55233333,98.0115714 35.2492381,110.826571 79.0632857,106.570619 C96.3961429,104.886571 119.077095,99.305381 134.859476,90.6520476 L134.859476,78.353 C120.541143,86.875381 96.8623333,93.9232381 77.1382857,95.7513333" id="Fill-1" fill="#0071C5" mask="url(#mask-2)"></path>
                    </g>
                    <path d="M132.25981,27.6275476 L123.84481,27.6275476 L123.84481,65.0851667 C123.84481,69.4825476 125.979333,73.2985 132.25981,73.906119 L132.25981,27.6275476 Z" id="Fill-4" fill="#0071C5"></path>
                    <path d="M32.0864762,41.3031667 L23.661,41.3031667 L23.6557619,65.7834048 C23.6557619,70.1781667 25.7902857,74.0019762 32.0864762,74.6069762 L32.0864762,41.3031667 Z" id="Fill-6" fill="#0071C5"></path>
                    <mask id="mask-4" fill="white">
                        <use xlink:href="#path-3"></use>
                    </mask>
                    <g id="Clip-9"></g>
                    <polygon id="Fill-8" fill="#0071C5" mask="url(#mask-4)" points="23.6604762 36.7439286 32.062381 36.7439286 32.062381 28.7636905 23.6604762 28.7636905"></polygon>
                    <path d="M82.4725,74.2154286 C75.6682143,74.2154286 72.7820238,69.4828095 72.7820238,64.8130476 L72.7820238,32.3211429 L81.1210714,32.3211429 L81.1210714,41.3044762 L87.3989286,41.3044762 L87.3989286,48.0380476 L81.1210714,48.0380476 L81.1210714,64.2944762 C81.1210714,66.2011429 82.0272619,67.2644762 84.0125,67.2644762 L87.3989286,67.2644762 L87.3989286,74.2154286 L82.4725,74.2154286" id="Fill-10" fill="#0071C5" mask="url(#mask-4)"></path>
                    <path d="M104.601357,47.6462381 C101.746595,47.6462381 99.5413571,49.1129048 98.6220714,51.1007619 C98.0746905,52.2924286 97.886119,53.2117143 97.8232619,54.678381 L110.661833,54.678381 C110.499452,51.1007619 108.878262,47.6462381 104.601357,47.6462381 M97.8232619,60.3590952 C97.8232619,64.6281429 100.478976,67.7657619 105.214214,67.7657619 C108.904452,67.7657619 110.735167,66.7469524 112.867071,64.6281429 L118.018738,69.5440952 C114.718738,72.8074286 111.256357,74.7874286 105.153976,74.7874286 C97.1632619,74.7874286 89.5104048,70.4293333 89.5104048,57.7321905 C89.5104048,46.8814762 96.1915952,40.7424286 104.965405,40.7424286 C113.85969,40.7424286 118.990405,47.9290952 118.990405,57.3524286 L118.990405,60.3590952 L97.8232619,60.3590952" id="Fill-11" fill="#0071C5" mask="url(#mask-4)"></path>
                    <path d="M54.7422857,48.0375238 C57.1884762,48.0375238 58.2046667,49.2475238 58.2046667,51.2091905 L58.2046667,74.2620476 L66.5437143,74.2620476 L66.5437143,51.1672857 C66.5437143,46.4818095 64.0451429,41.3196667 56.7249048,41.3196667 L39.4968095,41.3039524 L39.4968095,74.2620476 L47.8384762,74.2620476 L47.8384762,48.0375238 L54.7422857,48.0375238 Z" id="Fill-12" fill="#0071C5" mask="url(#mask-4)"></path>
                    <path d="M141.984071,30.1135476 C141.984071,29.7075952 141.743119,29.5766429 141.195738,29.5766429 L140.818595,29.5766429 L140.674548,29.5766429 L140.674548,30.7264048 C140.7505,30.7264048 141.1355,30.742119 141.195738,30.742119 C141.743119,30.742119 141.984071,30.5640238 141.984071,30.1790238 L141.984071,30.1135476 Z M142.801214,32.9787857 L142.177881,32.9787857 C142.122881,32.9787857 142.0705,32.942119 142.049548,32.8923571 L141.195738,31.4545 C141.185262,31.4230714 141.10931,31.3890238 141.077881,31.3890238 L140.839548,31.3890238 L140.700738,31.3890238 L140.700738,32.8190238 C140.700738,32.8923571 140.643119,32.9787857 140.546214,32.9787857 L139.988357,32.9787857 C139.912405,32.9787857 139.846929,32.8923571 139.846929,32.8190238 L139.846929,29.202119 C139.846929,28.9952143 139.922881,28.9061667 140.106214,28.8799762 C140.300024,28.8564048 140.839548,28.8380714 141.1355,28.8380714 C142.167405,28.8380714 142.793357,29.141881 142.793357,30.1135476 L142.793357,30.1790238 C142.793357,30.7840238 142.494786,31.1009286 142.031214,31.2554524 L142.911214,32.7483095 C142.919071,32.7745 142.934786,32.8190238 142.934786,32.8504524 C142.934786,32.9080714 142.900738,32.9787857 142.801214,32.9787857 L142.801214,32.9787857 Z M141.318833,28.1859286 C139.78931,28.1859286 138.555738,29.4430714 138.555738,30.9752143 C138.555738,32.502119 139.78931,33.7461667 141.318833,33.7461667 C142.848357,33.7461667 144.102881,32.502119 144.102881,30.9752143 C144.102881,29.4430714 142.848357,28.1859286 141.318833,28.1859286 L141.318833,28.1859286 Z M141.318833,34.3223571 C139.461929,34.3223571 137.979548,32.8190238 137.979548,30.9752143 C137.979548,29.1314048 139.461929,27.6280714 141.318833,27.6280714 C143.165262,27.6280714 144.679071,29.1314048 144.679071,30.9752143 C144.679071,32.8190238 143.165262,34.3223571 141.318833,34.3223571 L141.318833,34.3223571 Z" id="Fill-13" fill="#0071C5" mask="url(#mask-4)"></path>
                </g>
            </g>
        </g>
    </g>
</svg>