<?xml version="1.0" encoding="UTF-8"?>
<svg width="310px" height="310px" viewBox="0 0 310 310" version="1.1" xmlns="http://www.w3.org/2000/svg" xmlns:xlink="http://www.w3.org/1999/xlink">
    <!-- Generator: Sketch 63.1 (92452) - https://sketch.com -->
    <title>plentymarkets_logo</title>
    <desc>Created with Sketch.</desc>
    <defs>
        <polygon id="path-1" points="0.00016097659 0.0670017634 54.9566292 0.0670017634 54.9566292 51.1109152 0.00016097659 51.1109152"></polygon>
    </defs>
    <g id="Exports" stroke="none" stroke-width="1" fill="none" fill-rule="evenodd">
        <g id="Artboard" transform="translate(-720.000000, -2049.000000)">
            <g id="Group-40" transform="translate(720.000000, 2049.000000)">
                <g id="Group-10" transform="translate(31.869159, 127.476636)">
                    <g id="Group-3" transform="translate(0.000000, 3.440322)">
                        <mask id="mask-2" fill="white">
                            <use xlink:href="#path-1"></use>
                        </mask>
                        <g id="Clip-2"></g>
                        <path d="M50.6830704,3.07789931 C50.5473941,2.91992012 50.585495,2.98125322 50.585495,2.98125322 C50.6886461,3.8389873 50.746262,4.71530718 50.746262,5.61021284 C50.746262,19.2670494 41.6698928,31.7985165 28.0130563,31.7985165 C24.7995736,31.7985165 22.0683922,30.9956105 20.7023368,30.1927045 L20.5415697,30.1927045 L17.3476022,46.7163987 L17.4628341,46.8065398 C20.9987801,48.6697649 24.9268863,50.0311739 29.1133349,50.8089891 C36.5132661,51.8618739 41.6327212,50.1956581 45.8089476,45.2955153 C50.020487,40.5682202 53.0601926,32.8356034 54.529399,23.508326 C55.6426877,14.4784213 54.6548531,7.71226539 50.6830704,3.07789931 M38.6162479,6.49396703 C38.6162479,3.36133257 37.3310407,0.0670017634 33.555338,0.0670017634 C29.2183446,0.0670017634 25.2010266,4.9671446 23.7550524,12.6802463 L22.3090781,21.1144766 C23.5942853,22.3197649 25.3608644,23.0418228 27.610674,23.0418228 C33.7969533,23.0418228 38.6162479,14.2061395 38.6162479,6.49396703 M14.3608662,1.19330048 C11.0358688,2.70990072 8.18573832,4.50621707 6.00190831,6.4958256 C0.821120085,11.0855858 -0.696409452,16.6696856 0.277485805,23.7796785 C1.18354294,29.504101 3.65916981,34.5928896 7.28618621,38.7997826 C7.28618621,38.7997826 7.36424652,38.8508935 7.34937789,38.8323077 L13.3925466,6.81550115 C13.708505,5.14649744 14.3608662,1.19330048 14.3608662,1.19330048" id="Fill-1" fill="#D92128" mask="url(#mask-2)"></path>
                    </g>
                    <path d="M152.14753,37.9665817 L154.877782,37.9665817 L154.877782,26.9368462 C154.877782,26.3978584 154.915883,25.8951129 154.987438,25.4276803 C155.309902,23.5951217 156.458503,22.6249436 157.571792,22.6249436 C159.620875,22.6249436 159.979581,24.6368551 159.979581,26.5772113 L159.979581,37.9665817 L162.710762,37.9665817 L162.710762,26.7937357 C162.710762,26.2175763 162.747004,25.6795177 162.81763,25.2120852 C163.212578,23.5951217 164.219928,22.6249436 165.369459,22.6249436 C167.490097,22.6249436 167.812561,24.8171372 167.812561,27.0808861 L167.812561,37.9665817 L170.543742,37.9665817 L170.543742,26.4341007 C170.543742,22.0144005 168.712113,20.2896394 166.375879,20.2896394 C165.477257,20.2896394 164.651118,20.5043052 163.96902,20.9726671 C163.320376,21.4038573 162.710762,22.086885 162.24333,22.9492656 L162.172704,22.9492656 C161.525918,21.0804646 160.159863,20.2896394 158.543829,20.2896394 C156.71127,20.2896394 155.380528,21.3323021 154.626874,22.7327411 L154.555319,22.7327411 L154.412208,20.5767898 L152.004419,20.5767898 C152.038803,21.9790875 152.14753,23.0208208 152.14753,25.0680453 L152.14753,37.9665817 Z M183.621631,26.505656 C183.621631,22.5905599 182.113395,20.2896394 178.62763,20.2896394 C176.902869,20.2896394 175.285906,20.9011118 174.568494,21.4391703 L175.178108,23.3804558 C176.004247,22.8405387 176.975354,22.481833 178.054259,22.481833 C180.245523,22.481833 180.819824,24.0978672 180.819824,26.4341007 L180.819824,26.9721592 C176.902869,27.0084015 173.417105,28.9478284 173.417105,33.2959734 C173.417105,36.2789922 175.21528,38.25652 177.550584,38.25652 C179.023508,38.25652 180.245523,37.4647655 180.999177,36.1349524 L181.106974,36.1349524 L181.287257,37.9665817 L183.801914,37.9665817 C183.621631,36.8542224 183.621631,35.3450564 183.621631,34.0152433 L183.621631,26.505656 Z M180.891379,32.5060774 C180.891379,32.7932278 180.891379,33.1528628 180.819824,33.4753262 C180.496431,35.2000873 179.455627,36.0987101 178.232682,36.0987101 C177.262504,36.0987101 176.112973,35.2735011 176.112973,33.008823 C176.112973,29.2359081 179.455627,28.985 180.891379,28.985 L180.891379,32.5060774 Z M187.467031,37.9665817 L190.232596,37.9665817 L190.232596,28.3391439 C190.232596,27.7639138 190.268838,27.2239966 190.342252,26.7565641 C190.628473,24.7455819 191.922973,23.1286184 193.682118,23.1286184 C193.897713,23.1286184 194.077066,23.1286184 194.257348,23.1648607 L194.257348,20.3258817 C194.077066,20.3258817 193.897713,20.2896394 193.682118,20.2896394 C192.066084,20.2896394 190.592231,21.6547655 190.01793,23.3079713 L189.945446,23.3079713 L189.803264,20.5767898 L187.32392,20.5767898 C187.359233,21.8712899 187.467031,23.5951217 187.467031,25.0680453 L187.467031,37.9665817 Z M199.863751,13.1034447 L197.094469,13.1034447 L197.094469,37.9665817 L199.863751,37.9665817 L199.863751,31.3927887 L200.832071,29.7758253 L204.604985,37.9665817 L207.693943,37.9665817 L202.700871,27.9070243 L207.299925,20.5767898 L204.316906,20.5767898 L200.868313,26.7212511 C200.543991,27.2955519 200.25777,27.9776503 199.934377,28.660678 L199.863751,28.660678 L199.863751,13.1034447 Z M219.155798,29.5239878 C219.192041,29.0927976 219.192041,28.6262943 219.192041,27.9776503 C219.192041,24.0272412 217.791601,20.2896394 214.234282,20.2896394 C210.748517,20.2896394 208.376971,23.8107168 208.376971,29.4515033 C208.376971,34.7707556 210.532922,38.1831062 214.700785,38.1831062 C216.064982,38.1831062 217.538835,37.8950265 218.509013,37.3569679 L218.077823,35.3088141 C217.394795,35.7037621 216.389304,35.9909125 215.203531,35.9909125 C213.191619,35.9909125 211.107223,34.8413816 211.07191,29.5239878 L219.155798,29.5239878 Z M211.107223,27.4758341 C211.21595,25.1042876 212.150815,22.4455907 213.946202,22.4455907 C215.275086,22.4455907 216.60397,23.9909989 216.533344,27.4758341 L211.107223,27.4758341 Z M222.784673,17.6309425 L222.784673,20.5767898 L220.664035,20.5767898 L220.664035,22.6964989 L222.784673,22.6964989 L222.784673,32.7588441 C222.784673,35.1657036 223.143379,36.3505475 223.826407,37.1404435 C224.509434,37.8950265 225.479612,38.1831062 226.556659,38.1831062 C227.455282,38.1831062 228.102067,38.0753086 228.604813,37.8950265 L228.497015,35.777176 C228.173622,35.8487313 227.815846,35.8840443 227.383726,35.8840443 C226.377306,35.8840443 225.551168,35.2735011 225.551168,33.008823 L225.551168,22.6964989 L228.892892,22.6964989 L228.892892,20.5767898 L225.551168,20.5767898 L225.551168,16.5167246 L222.784673,17.6309425 Z M230.186463,37.1776151 C230.940117,37.7881582 232.341485,38.1831062 233.635056,38.1831062 C236.474035,38.1831062 238.844652,36.4945874 238.844652,33.008823 C238.844652,30.6019635 237.26486,29.0212423 235.252949,27.7267422 C233.527258,26.5418983 233.095139,25.8951129 233.095139,24.7093396 C233.095139,23.5951217 233.850651,22.517146 235.360746,22.517146 C236.259369,22.517146 237.012093,22.8405387 237.659808,23.271729 L238.412533,21.1882622 C237.695121,20.7561427 236.653388,20.2896394 235.288262,20.2896394 C232.591464,20.2896394 230.508926,22.3024802 230.508926,25.1042876 C230.508926,27.1171284 231.730942,28.5891227 233.992832,30.0620464 C235.755694,31.2487489 236.221268,32.1464424 236.221268,33.4753262 C236.221268,35.0216637 235.252949,35.9909125 233.671298,35.9909125 C232.55801,35.9909125 231.479105,35.488167 230.867632,35.0922897 L230.186463,37.1776151 Z M242.026539,16.7964407 L242.383386,16.7964407 C242.800637,16.7964407 243.008798,16.9432684 243.071989,17.2991862 C243.157484,17.6969221 243.219746,17.9692038 243.323827,18.0955872 L244.057036,18.0955872 C243.993844,17.9692038 243.932511,17.7814874 243.827502,17.2991862 C243.722492,16.8596323 243.575664,16.5873506 243.24112,16.4823409 L243.24112,16.4395935 C243.617482,16.3364424 243.932511,16.0641606 243.932511,15.6859399 C243.932511,15.3727694 243.785684,15.1209319 243.597038,14.9945486 C243.366574,14.8282058 243.093363,14.7231961 242.507911,14.7231961 C241.981933,14.7231961 241.6065,14.7854585 241.335148,14.8282058 L241.335148,18.0955872 L242.026539,18.0955872 L242.026539,16.7964407 Z M242.046054,15.3086484 C242.12969,15.3086484 242.256073,15.288204 242.466093,15.288204 C242.947465,15.288204 243.157484,15.4768498 243.157484,15.7705052 C243.157484,16.1050494 242.822011,16.2528064 242.402901,16.2528064 L242.046054,16.2528064 L242.046054,15.3086484 Z M242.5488,13.1303941 C240.725534,13.1303941 239.259115,14.5763684 239.259115,16.3987048 C239.259115,18.2210413 240.725534,19.6874599 242.5488,19.6874599 C244.39251,19.6874599 245.837555,18.2210413 245.837555,16.3987048 C245.837555,14.5763684 244.39251,13.1303941 242.571102,13.1303941 L242.5488,13.1303941 Z M242.5488,13.801341 C243.9734,13.801341 245.020709,14.9527306 245.020709,16.3987048 C245.020709,17.8437498 243.9734,19.016513 242.5488,18.9960686 C241.124199,18.9960686 240.056445,17.8437498 240.056445,16.3987048 C240.056445,14.9527306 241.124199,13.801341 242.527426,13.801341 L242.5488,13.801341 Z" id="Fill-4" fill="#82B2D4"></path>
                    <path d="M68.792411,44.8663694 L73.4992617,44.8663694 L73.4992617,36.5297145 L73.5717463,36.5297145 C74.0744918,37.356782 75.0446699,38.2554049 76.4813513,38.2554049 C79.4271986,38.2554049 82.193693,35.4164259 82.193693,29.164167 C82.193693,24.3132765 80.6139011,20.1101007 76.7331887,20.1101007 C75.1162252,20.1101007 73.7873414,20.9724812 73.0680714,22.4100919 L72.9955868,22.4100919 L72.7446787,20.3981804 L68.6493005,20.3981804 C68.7208558,22.0504569 68.792411,23.8467732 68.792411,25.9664823 L68.792411,44.8663694 Z M73.4992617,26.8288628 C73.4992617,26.3976725 73.535504,25.9311693 73.7148568,25.5715343 C73.895139,24.7444668 74.5772373,24.0623684 75.2965073,24.0623684 C76.6969464,24.0623684 77.4868424,25.8586847 77.4868424,29.2013386 C77.4868424,31.9659744 76.9125415,34.4100055 75.2593357,34.4100055 C74.7212772,34.4100055 74.1107341,34.1219258 73.7510991,33.0439501 C73.5717463,32.6852444 73.4992617,32.1462566 73.4992617,31.5366427 L73.4992617,26.8288628 Z M84.8886322,37.9663959 L89.5954828,37.9663959 L89.5954828,13.1032589 L84.8886322,13.1032589 L84.8886322,37.9663959 Z M105.225201,30.8545443 C105.332998,30.3508695 105.368311,29.6678418 105.368311,28.409584 C105.368311,23.0921903 103.176118,20.1101007 99.4041321,20.1101007 C95.4156221,20.1101007 92.361048,23.6311781 92.361048,29.523802 C92.361048,35.0214779 94.9844318,38.1829203 99.7628378,38.1829203 C101.560083,38.1829203 103.392642,37.8604569 104.613728,37.3930243 L103.966943,34.0150575 C103.140805,34.3022079 101.955031,34.5893583 100.626148,34.5893583 C98.5417515,34.5893583 96.9610303,33.5838672 96.889475,30.8545443 L105.225201,30.8545443 Z M96.924788,27.5472035 C96.9610303,25.7880587 97.5715734,23.5233805 99.1169817,23.5233805 C100.51835,23.5233805 101.091722,25.2843839 101.091722,27.5472035 L96.924788,27.5472035 Z M108.027008,37.9663959 L112.733859,37.9663959 L112.733859,27.2600531 C112.733859,26.5779547 112.841656,26.0027246 112.985696,25.6430896 C113.309089,24.6004269 113.954945,24.0623684 114.74577,24.0623684 C116.110896,24.0623684 116.471461,25.499979 116.471461,26.9729027 L116.471461,37.9663959 L121.177382,37.9663959 L121.177382,26.684823 C121.177382,22.7697269 119.847569,20.1101007 116.506774,20.1101007 C114.674215,20.1101007 113.165049,21.0087235 112.231113,22.4100919 L112.159558,22.4100919 L111.943034,20.3981804 L107.882968,20.3981804 C107.919211,22.0504569 108.027008,23.7389757 108.027008,25.6793319 L108.027008,37.9663959 Z M125.309002,17.2711217 L125.309002,20.3981804 L123.225536,20.3981804 L123.225536,23.7389757 L125.309002,23.7389757 L125.309002,32.0393883 C125.309002,34.8049534 125.84799,36.1347665 126.818168,37.0696316 C127.644307,37.8604569 128.83008,38.1829203 130.196135,38.1829203 C131.452534,38.1829203 132.422713,38.0388804 133.068569,37.8604569 L133.034185,34.1944103 C132.638308,34.2668949 132.277743,34.3022079 131.812169,34.3022079 C130.878234,34.3022079 130.015853,33.7994624 130.015853,31.7522379 L130.015853,23.7389757 L133.464446,23.7389757 L133.464446,20.3981804 L130.015853,20.3981804 L130.015853,15.7991273 L125.309002,17.2711217 Z M135.620397,20.3981804 L140.435045,36.6746837 C140.506601,36.8884202 140.578156,37.1040153 140.578156,37.3214691 C140.578156,37.5723772 140.471288,37.7526593 140.327248,38.0751227 C140.002926,38.830635 139.499251,39.5471171 138.853395,40.1604481 C138.136913,40.8072335 137.345158,41.3443627 136.51902,41.6324424 L137.956631,45.693437 C138.674971,45.4769125 140.471288,44.649845 141.943282,42.9241546 C143.847396,40.6631936 144.998786,37.2489845 145.860237,33.9444315 L149.45194,20.3981804 L144.853816,20.3981804 L143.379963,29.594428 C143.236853,30.5646061 143.093742,31.5710265 142.950632,32.4696493 L142.878147,32.4696493 C142.733178,31.5366427 142.590068,30.5646061 142.410715,29.523802 L140.685954,20.3981804 L135.620397,20.3981804 Z" id="Fill-6" fill="#0F90C0"></path>
                    <path d="M50.7465408,9.05109258 C50.7465408,8.15525763 50.6889249,7.27986704 50.5857738,6.42306225 C50.4770469,6.29946676 50.3776129,6.16936625 50.2642396,6.04948792 C46.1093869,1.26271839 39.0588685,-0.864424969 29.2938958,0.323206842 C23.786927,1.16700159 18.6656133,2.66966249 14.3462763,4.64068524 C14.0349644,6.63865738 13.7087838,8.58644789 13.3928254,10.2554516 L7.34872738,42.2731874 C10.0892017,45.438347 13.47832,48.0998318 17.347881,50.159137 L20.5418485,33.6335842 L20.7016863,33.6335842 C22.0677417,34.4355609 24.7998524,35.2393962 28.013335,35.2393962 C41.6692423,35.2393962 50.7465408,22.7079291 50.7465408,9.05109258 M38.6165267,9.93484676 C38.6165267,17.6460899 33.7972321,26.4827025 27.6109527,26.4827025 C25.3611432,26.4827025 23.5945641,25.7597154 22.3093569,24.5544271 L23.7562604,16.1192675 C25.2013054,8.40802433 29.2176941,3.5078815 33.5556168,3.5078815 C37.3313195,3.5078815 38.6165267,6.80221231 38.6165267,9.93484676" id="Fill-8" fill="#FEFEFE"></path>
                </g>
            </g>
        </g>
    </g>
</svg>