<svg width="255" height="255" viewBox="0 0 255 255" fill="none" xmlns="http://www.w3.org/2000/svg">
<path d="M106.81 122.665C101.487 122.665 97.6147 126.374 97.6147 131.921C97.6147 137.469 101.701 141.177 107.586 141.177C109.198 141.197 110.798 140.9 112.296 140.304L114.804 136.115L114.472 135.921C112.476 136.999 110.252 137.586 107.985 137.632C104.945 137.632 102.314 136.1 102.023 133.449H115.463V132.233C115.463 126.103 111.739 122.65 106.82 122.65M102.023 130.144C102.35 127.589 103.969 125.955 106.575 125.955C109.333 125.955 111.024 127.574 111.055 130.144H102.023ZM198.391 122.665C193.058 122.665 189.196 126.374 189.196 131.921C189.196 137.469 193.283 141.177 199.168 141.177C200.776 141.197 202.373 140.901 203.867 140.304L206.386 136.115L206.054 135.936C204.056 137.014 201.83 137.6 199.561 137.648C196.527 137.648 193.901 136.115 193.605 133.464H207.035C207.617 126.558 203.903 122.665 198.391 122.665ZM193.595 130.159C193.916 127.605 195.541 125.97 198.141 125.97C200.9 125.97 202.59 127.589 202.626 130.159H193.595ZM136.795 122.665C131.473 122.665 127.6 126.374 127.6 131.921C127.6 137.469 131.687 141.177 137.572 141.177C139.184 141.198 140.784 140.901 142.282 140.304L144.79 136.115L144.453 135.936C142.459 137.015 140.237 137.601 137.97 137.648C134.931 137.648 132.305 136.115 132.009 133.464H145.454C146.036 126.558 142.317 122.665 136.801 122.665M132.009 130.159C132.336 127.605 133.955 125.97 136.56 125.97C139.314 125.97 141.01 127.589 141.04 130.159H132.009ZM45.7297 127.033V126.961C48.4115 126.154 50.2454 124.208 50.2454 121.27C50.2454 116.53 46.2048 114.732 42.2816 114.732H29V115.12L30.3333 116.254C31.9373 117.562 32.1416 117.812 32.1416 118.992V140.743H41.5153C46.4295 140.743 51.359 138.981 51.359 133.321C51.3877 131.758 50.8246 130.242 49.7825 129.077C48.7404 127.911 47.2964 127.183 45.7399 127.038M36.7646 118.696H40.5805C43.1653 118.696 43.9622 119.053 44.7438 119.799C45.0375 120.091 45.2666 120.442 45.4162 120.828C45.5658 121.215 45.6326 121.628 45.6122 122.042C45.6221 122.446 45.5477 122.848 45.3937 123.221C45.2398 123.595 45.0098 123.933 44.7182 124.213C43.952 124.948 42.8997 125.306 40.9841 125.306H36.7646V118.696ZM41.0249 136.769H36.7646V129.28H41.2088C44.9532 129.28 46.7156 130.236 46.7156 132.953C46.7156 136.371 43.4054 136.774 41.0249 136.774M60.0942 117.122C60.1301 117.689 59.9947 118.254 59.7058 118.743C59.4168 119.232 58.9876 119.623 58.4737 119.866C57.9598 120.108 57.385 120.19 56.8238 120.102C56.2626 120.014 55.7409 119.759 55.3263 119.37C54.9118 118.982 54.6235 118.478 54.4988 117.923C54.3741 117.369 54.4188 116.79 54.6271 116.262C54.8354 115.733 55.1977 115.279 55.667 114.959C56.1364 114.639 56.691 114.467 57.2591 114.466C57.6221 114.446 57.9853 114.499 58.3273 114.623C58.6693 114.746 58.9831 114.937 59.2499 115.183C59.5167 115.43 59.7313 115.728 59.8807 116.059C60.0301 116.391 60.1114 116.749 60.1198 117.112M52.6923 123.109H59.471V140.738H55.0575V126.864C55.0575 125.408 54.9757 125.173 53.3921 123.952L52.6923 123.395V123.109ZM87.7761 113.955L89.1605 114.844C90.4171 115.646 90.6061 116.029 90.6061 117.148V125.321H90.4989C89.5794 124.182 87.817 122.639 84.5119 122.639C79.4803 122.639 75.9862 126.68 75.9862 131.896C75.9862 137.111 79.2606 141.152 84.6958 141.152C87.1529 141.152 89.4721 140.197 90.7594 138.087H90.8309L91.2906 140.733H95.0146V113.639H87.7761V113.955ZM85.5745 137.198C82.346 137.198 80.3946 134.644 80.3946 131.911C80.3946 129.178 82.346 126.624 85.5745 126.624C88.8029 126.624 90.7594 129.178 90.7594 131.911C90.7594 134.644 88.808 137.198 85.5745 137.198ZM179.205 113.955L179.818 114.364C181.943 115.707 182.208 116.096 182.208 118.389V125.347H182.096C181.171 124.208 179.414 122.665 176.109 122.665C171.077 122.665 167.588 126.706 167.588 131.921C167.588 137.137 170.858 141.177 176.272 141.177C178.735 141.177 181.054 140.222 182.336 138.113H182.413L182.877 140.759H186.601V113.639H179.194L179.205 113.955ZM177.161 137.198C173.933 137.198 171.981 134.644 171.981 131.911C171.981 129.178 173.933 126.624 177.161 126.624C180.39 126.624 182.341 129.178 182.341 131.911C182.341 134.644 180.395 137.198 177.161 137.198ZM221.154 122.895V127.155C220.46 126.958 219.745 126.846 219.024 126.823C214.876 126.823 214.283 130.317 214.283 131.272V140.713H209.88V127.707C209.88 125.49 209.762 125.153 207.969 124.024L206.861 123.293V123.099H214.293V125.899H214.37C214.832 124.912 215.572 124.081 216.498 123.507C217.424 122.933 218.496 122.64 219.586 122.665C220.121 122.677 220.652 122.763 221.164 122.92M123.289 123.033H127.376V126.793H123.289V140.738H118.865V128.315C118.865 126.838 118.569 126.512 116.822 125.127L114.574 123.298V123.033H118.87V119.82C118.87 115.033 121.992 111.994 128.745 113.342L129.766 117.077L129.552 117.25C126.022 115.861 123.289 116.739 123.289 119.804V123.033ZM165.044 129.602V140.738H160.636V130.925C160.636 128.984 160.125 126.634 157.06 126.634C154.159 126.634 153.019 128.764 153.019 131.114V140.738H148.616V127.707C148.616 125.49 148.499 125.153 146.706 124.024L145.633 123.293V123.099H149.081H152.835V125.781H152.907C153.515 124.839 154.346 124.06 155.326 123.515C156.306 122.97 157.405 122.674 158.526 122.655C162.689 122.655 165.09 125.505 165.09 129.592M74.6274 137.193L74.7704 137.285C74.7704 137.285 72.5789 140.789 72.584 140.789C69.0082 141.765 64.9522 140.728 64.9522 134.966V127.814C64.9522 126.675 64.7683 126.736 62.2959 124.698L60.697 123.314V123.104H64.9778L66.5869 117.996H69.3811V123.104H74.0961V126.844H69.3811V134.838C69.3811 138.021 71.5624 138.097 74.6325 137.188" fill="#231F20"/>
<path d="M222.201 114.303H221.118V117.633H221.236V116.101H222.201H222.262L223.284 117.633H223.432L222.411 116.055H222.451C222.559 116.049 222.665 116.03 222.768 115.999C222.869 115.96 222.962 115.905 223.044 115.835C223.125 115.764 223.188 115.675 223.228 115.575C223.277 115.46 223.302 115.337 223.299 115.212C223.306 115.09 223.285 114.969 223.239 114.856C223.193 114.743 223.123 114.641 223.034 114.558C222.794 114.381 222.498 114.297 222.201 114.323M223.182 115.212C223.19 115.345 223.158 115.478 223.09 115.593C223.021 115.708 222.92 115.799 222.799 115.856C222.685 115.906 222.565 115.939 222.441 115.953C222.319 115.96 222.196 115.96 222.073 115.953H221.236V114.42H222.191C222.313 114.419 222.434 114.431 222.554 114.456C222.667 114.474 222.777 114.514 222.875 114.573C222.97 114.629 223.046 114.711 223.095 114.808C223.157 114.928 223.187 115.062 223.182 115.197" fill="#231F20"/>
<path d="M224.77 117.051C225.07 116.341 225.076 115.541 224.789 114.826C224.503 114.11 223.945 113.537 223.238 113.23C222.88 113.075 222.494 112.997 222.104 113C221.712 112.997 221.325 113.076 220.965 113.23C220.621 113.376 220.309 113.588 220.045 113.853C219.779 114.118 219.567 114.432 219.422 114.778C219.27 115.138 219.192 115.524 219.192 115.914C219.192 116.305 219.27 116.691 219.422 117.051C219.568 117.397 219.78 117.711 220.045 117.976C220.308 118.241 220.62 118.451 220.965 118.594C221.325 118.746 221.713 118.823 222.104 118.818C222.483 118.82 222.859 118.746 223.21 118.601C223.56 118.457 223.879 118.244 224.147 117.976C224.415 117.711 224.628 117.397 224.776 117.051M223.182 118.497C222.483 118.783 221.7 118.783 221.001 118.497C220.492 118.284 220.058 117.925 219.755 117.464C219.452 117.004 219.293 116.463 219.299 115.912C219.299 115.549 219.37 115.189 219.508 114.853C219.647 114.518 219.85 114.212 220.107 113.955C220.362 113.7 220.664 113.495 220.995 113.353C221.341 113.208 221.712 113.133 222.086 113.133C222.461 113.133 222.831 113.208 223.177 113.353C223.506 113.497 223.806 113.701 224.06 113.955C224.315 114.211 224.518 114.512 224.658 114.844C224.807 115.186 224.884 115.554 224.883 115.927C224.884 116.303 224.808 116.675 224.658 117.02C224.515 117.351 224.313 117.652 224.06 117.909C223.804 118.16 223.505 118.362 223.177 118.507" fill="#231F20"/>
</svg>
