<svg width="255" height="255" viewBox="0 0 255 255" fill="none" xmlns="http://www.w3.org/2000/svg">
<g clip-path="url(#clip0_208_82)">
<path d="M44.1376 148C36.9215 148 32 143.416 32 136.743C32 132.666 33.7672 129.42 36.8564 127.475C34.144 125.737 32.2329 122.951 32.2329 118.317C32.2329 111.894 37.3085 107.113 44.3089 107.113C46.9563 107.113 49.1071 107.797 50.7407 108.818C51.4189 109.239 51.9497 109.979 51.9497 110.82C51.9497 112.068 50.9805 113.025 49.703 113.025C49.2475 113.025 48.6927 112.845 48.1927 112.582C47.0385 111.978 45.8398 111.547 44.3089 111.547C40.1272 111.547 37.0105 114.433 37.0105 118.317C37.0105 122.404 39.9456 125.283 44.4973 125.283C45.6788 125.283 46.4254 125.17 47.4392 125.17C48.8605 125.17 49.8914 126.12 49.8914 127.502C49.8914 128.883 48.8605 129.887 47.4392 129.887C46.4254 129.887 45.9254 129.717 44.4973 129.717C40.2059 129.717 36.7777 132.369 36.7777 136.74C36.7777 140.824 39.4422 143.563 44.1376 143.563C46.2405 143.563 47.9735 142.862 49.3057 141.958C49.9119 141.548 50.4668 141.394 50.9188 141.394C52.1723 141.394 53.0662 142.298 53.0662 143.546C53.0662 144.383 52.4943 145.241 51.8607 145.721C50.1962 146.966 47.5077 147.997 44.1411 147.997L44.1376 148Z" fill="#00FF00"/>
<path d="M64.4365 143.566C68.4196 143.566 71.6218 140.88 71.6218 136.8C71.6218 132.469 68.6765 129.774 63.9605 129.774C62.7549 129.774 62.4193 129.887 61.6864 129.887C60.2685 129.887 59.1759 128.993 59.1759 127.502C59.1759 126.12 60.2685 125.17 61.6864 125.17C62.6864 125.17 62.5974 125.226 63.8406 125.226C67.7004 125.226 71.1526 122.951 71.1526 118.317C71.1526 114.437 67.9196 111.434 63.731 111.434C61.6042 111.434 60.0459 112.111 58.7513 113.266C57.1895 114.66 56.8745 116.809 56.8745 119.685V133.597C56.8745 135.722 56.9909 136.286 56.9909 137.554C56.9909 139.319 55.8196 140.136 54.5147 140.136C53.2099 140.136 52.0386 139.292 52.0386 137.554C52.0386 136.413 52.1584 135.923 52.1584 133.597V119.685C52.1584 115.701 52.9325 112.195 55.7374 109.836C57.8574 108.058 60.3644 107 63.7344 107C70.6629 107 75.8686 111.838 75.8686 118.26C75.8686 122.31 74.0329 125.64 71.1766 127.418C73.6185 128.609 76.3961 131.612 76.3961 136.69C76.3961 143.499 70.7896 148.003 64.4365 148.003C61.3267 148.003 58.6725 147.029 57.008 145.785C56.371 145.308 55.7991 144.45 55.7991 143.609C55.7991 142.362 56.6929 141.457 57.9464 141.457C58.5287 141.457 59.0732 141.668 59.5561 142.021C60.6589 142.822 62.1042 143.569 64.4331 143.569L64.4365 143.566Z" fill="#00FF00"/>
<path d="M92.1914 116.135H105.391V118.087H94.6265V127.231H104.017V129.07H94.6265V139.099H106.059V141.05H92.1914V116.135Z" fill="#3F3F3F"/>
<path d="M109.518 113.569H111.796V141.05H109.518V113.569Z" fill="#3F3F3F"/>
<path d="M123.543 139.786C125.31 139.786 126.844 139.289 128.728 138.408L129.238 140.09C128.019 140.74 125.741 141.581 123.385 141.581C118.2 141.581 115.45 138.175 115.45 131.132C115.45 124.089 118.631 120.799 123.149 120.799C127.666 120.799 130.064 124.359 130.064 129.87V131.745H117.806C117.844 137.754 119.731 139.783 123.543 139.783V139.786ZM127.748 129.951V129.453C127.748 124.439 126.176 122.601 123.152 122.601C120.128 122.601 118.005 123.902 117.809 129.951H127.748Z" fill="#3F3F3F"/>
<path d="M135.803 141.05H133.563V113.569H135.803V127.462L135.29 132.476L144.05 121.186H146.527L139.81 129.684L142.245 132.59L146.999 141.05H144.444L138.512 130.678L135.803 134.351V141.05Z" fill="#3F3F3F"/>
<path d="M149.907 137.414V123.061H147.393V121.186H150.027L151.047 115.828H152.147V121.186H156.705V123.061H152.147V137.757C152.147 139.135 152.5 139.596 153.835 139.596H157.017L157.133 140.703C155.955 141.087 154.698 141.431 153.205 141.431C150.849 141.431 149.907 140.243 149.907 137.414Z" fill="#3F3F3F"/>
<path d="M163.932 121.53C164.952 121.069 165.897 120.802 166.918 120.802C168.175 120.802 169.079 121.069 169.589 121.299L169.12 123.368C168.254 123.024 167.548 122.834 166.291 122.834C164.524 122.834 163.346 123.675 162.048 124.749V141.054H159.808V121.189H160.907L161.969 123.602L163.935 121.533L163.932 121.53Z" fill="#3F3F3F"/>
<path d="M170.336 131.175C170.336 124.322 173.597 120.802 178.155 120.802C182.714 120.802 185.895 124.322 185.895 131.058C185.895 137.794 182.83 141.584 178.155 141.584C173.48 141.584 170.336 137.948 170.336 131.175ZM183.539 131.482V130.985C183.539 124.592 181.457 122.641 178.159 122.641C174.861 122.641 172.696 124.632 172.696 130.795V131.292C172.696 137.531 174.974 139.826 178.159 139.826C181.344 139.826 183.539 137.531 183.539 131.482Z" fill="#3F3F3F"/>
<path d="M190.334 141.164H189.313V113.569H191.553V123.138C192.69 122.027 194.423 120.802 196.896 120.802C201.181 120.802 203.852 123.902 203.852 130.905C203.852 138.522 201.102 141.584 196.465 141.584C195.167 141.584 194.108 141.281 193.557 141.087L191.122 139.059L190.334 141.164ZM191.553 138.141C192.889 139.175 194.382 139.863 196.191 139.863C199.766 139.863 201.533 137.681 201.533 131.252V130.715C201.533 124.285 199.53 122.641 196.66 122.641C194.026 122.641 192.454 123.942 191.553 124.823V138.141Z" fill="#3F3F3F"/>
<path d="M206.756 115.177C206.756 114.183 207.581 113.416 208.523 113.416C209.465 113.416 210.29 114.18 210.29 115.177C210.29 116.175 209.465 116.939 208.523 116.939C207.581 116.939 206.756 116.175 206.756 115.177ZM207.386 121.186H209.626V141.05H207.386V121.186Z" fill="#3F3F3F"/>
<path d="M214.774 137.414V123.061H212.26V121.186H214.893L215.914 115.828H217.013V121.186H221.572V123.061H217.013V137.757C217.013 139.135 217.366 139.596 218.702 139.596H221.884L222 140.703C220.822 141.087 219.565 141.431 218.072 141.431C215.715 141.431 214.77 140.243 214.77 137.414H214.774Z" fill="#3F3F3F"/>
</g>
<defs>
<clipPath id="clip0_208_82">
<rect width="190" height="41" fill="white" transform="translate(32 107)"/>
</clipPath>
</defs>
</svg>
