<svg width="255" height="255" viewBox="0 0 255 255" fill="none" xmlns="http://www.w3.org/2000/svg">
<path d="M160.332 97.0281L158.62 92.1064H130.433V97.0281H160.332ZM163.6 106.424L161.888 101.502H130.433V106.424H163.6ZM184.571 162.799H209.179V157.877H184.571V162.799ZM184.571 153.403H209.179V148.482H184.571V153.403ZM184.571 144.007H199.336V139.086H184.571V144.007ZM199.336 129.69H184.571V134.612H199.336V129.69ZM184.571 125.216H199.336V120.294H171.19L169.806 124.272L168.423 120.294H140.276V125.216H155.041V120.693L156.629 125.216H182.983L184.571 120.693V125.216ZM199.336 110.898H174.457L172.746 115.82H199.336V110.898ZM140.276 134.612H155.041V129.69H140.276V134.612ZM140.276 144.007H155.041V139.086H140.276V144.007ZM130.433 153.403H155.041V148.482H130.433V153.403ZM130.433 162.799H155.041V157.877H130.433V162.799ZM180.992 92.1064L179.281 97.0281H209.179V92.1064H180.992ZM176.013 106.424H209.179V101.502H177.724L176.013 106.424ZM140.276 115.82H166.867L165.155 110.898H140.276V115.82ZM159.928 134.612H179.685L181.413 129.69H158.2L159.928 134.612ZM163.226 144.007H176.386L178.114 139.086H161.499L163.226 144.007ZM166.525 153.403H173.088L174.815 148.482H164.797L166.525 153.403ZM169.806 162.799L171.516 157.877H168.095L169.806 162.799ZM71.3731 162.799H107.614C112.536 162.799 116.949 160.934 120.292 157.877H71.3731V162.799ZM109.851 139.086V144.007H126.406C126.406 142.303 126.173 140.655 125.748 139.086H109.851ZM81.2164 144.007H95.9814V139.086H81.2164V144.007ZM109.851 115.82H125.748C126.173 114.25 126.406 112.602 126.406 110.898H109.851V115.82ZM81.2164 115.82H95.9814V110.898H81.2164V115.82ZM107.614 92.1064H71.3731V97.0281H120.291C116.949 93.9717 112.5 92.1064 107.614 92.1064ZM123.886 101.502H71.3731V106.424H125.866C125.438 104.674 124.765 103.022 123.886 101.502ZM81.2164 120.294V125.216H119.775C121.41 123.826 122.799 122.162 123.88 120.294H81.2164ZM119.775 129.69H81.2164V134.612H123.88C122.799 132.744 121.41 131.079 119.775 129.69ZM71.3731 153.403H123.886C124.765 151.884 125.438 150.231 125.866 148.482H71.3731V153.403ZM32 97.0281H66.4515V92.1064H32V97.0281ZM32 106.424H66.4515V101.502H32V106.424ZM56.6082 110.898H41.8433V115.82H56.6082V110.898ZM41.8433 125.216H56.6082V120.294H41.8433V125.216ZM41.8433 134.612H56.6082V129.69H41.8433V134.612ZM41.8433 144.007H56.6082V139.086H41.8433V144.007ZM32 153.403H66.4515V148.482H32V153.403ZM32 157.877H66.4515V162.799H32V157.877ZM218.392 159.053C218.692 159.053 218.861 158.921 218.861 158.639V158.358C218.861 158.076 218.692 157.944 218.392 157.944H217.677V159.053H218.392ZM217.677 161.12H216.719V157.192H218.504C219.388 157.192 219.839 157.719 219.839 158.433C219.839 159.053 219.557 159.448 219.124 159.617L220.008 161.12H218.955L218.222 159.767H217.677V161.12ZM221.117 159.373V158.884C221.117 157.305 219.876 156.065 218.241 156.065C216.606 156.065 215.365 157.305 215.365 158.884V159.373C215.365 160.951 216.606 162.192 218.241 162.192C219.876 162.192 221.117 160.951 221.117 159.373ZM214.482 159.128C214.482 156.929 216.155 155.256 218.241 155.256C220.327 155.256 222 156.929 222 159.128C222 161.327 220.327 163 218.241 163C216.155 163 214.482 161.327 214.482 159.128Z" fill="#455FB5"/>
</svg>
