<svg width="255" height="255" viewBox="0 0 255 255" fill="none" xmlns="http://www.w3.org/2000/svg">
<g clip-path="url(#clip0_208_82)">
<path d="M34.8043 155.935C36.353 155.935 37.6086 157.187 37.6086 158.731V178.204C37.6086 179.748 36.353 181 34.8043 181C33.2557 181 32 179.748 32 178.204V158.731C32 157.187 33.2557 155.935 34.8043 155.935Z" fill="#4F3996"/>
<path d="M56.1108 160.484C54.4198 160.484 53.0156 161.06 51.8981 162.214C50.7805 163.366 50.2218 165.336 50.2218 168.12V178.17C50.2218 179.733 48.9514 181.002 47.3819 181.002C45.8144 181.002 44.542 179.735 44.542 178.17V158.431C44.542 157.053 45.6616 155.935 47.0449 155.935C48.4262 155.935 49.5479 157.051 49.5479 158.431V158.721C50.4938 157.606 51.6574 156.744 53.0386 156.133C54.4198 155.521 55.9936 155.217 57.7641 155.217C60.5726 155.217 62.7051 155.924 64.1638 157.341C65.6224 158.756 66.5683 160.332 67.0036 162.064C67.4368 163.796 67.6545 165.445 67.6545 167.008V178.17C67.6545 179.733 66.3842 181.002 64.8146 181.002C63.2471 181.002 61.9747 179.735 61.9747 178.17V168.934C61.9747 163.301 60.0201 160.486 56.1087 160.486L56.1108 160.484Z" fill="#4F3996"/>
<path d="M116.577 160.484C114.886 160.484 113.482 161.06 112.364 162.214C111.247 163.366 110.688 165.336 110.688 168.12V178.17C110.688 179.733 109.418 181.002 107.848 181.002C106.281 181.002 105.008 179.735 105.008 178.17V158.431C105.008 157.053 106.128 155.935 107.511 155.935C108.892 155.935 110.014 157.051 110.014 158.431V158.721C110.96 157.606 112.124 156.744 113.505 156.133C114.886 155.521 116.46 155.217 118.23 155.217C121.039 155.217 123.171 155.924 124.63 157.341C126.089 158.756 127.035 160.332 127.47 162.064C127.903 163.796 128.121 165.445 128.121 167.008V178.17C128.121 179.733 126.85 181.002 125.281 181.002C123.713 181.002 122.441 179.735 122.441 178.17V168.934C122.441 163.301 120.486 160.486 116.575 160.486L116.577 160.484Z" fill="#4F3996"/>
<path d="M137.44 155.935C138.988 155.935 140.244 157.187 140.244 158.731V178.204C140.244 179.748 138.988 181 137.44 181C135.891 181 134.635 179.748 134.635 178.204V158.731C134.635 157.187 135.891 155.935 137.44 155.935Z" fill="#4F3996"/>
<path d="M150.497 147.581C152.045 147.581 153.301 148.833 153.301 150.377V178.204C153.301 179.748 152.045 181 150.497 181C148.948 181 147.692 179.748 147.692 178.204V150.377C147.692 148.833 148.948 147.581 150.497 147.581Z" fill="#4F3996"/>
<path d="M163.553 155.935C165.102 155.935 166.358 157.187 166.358 158.731V178.204C166.358 179.748 165.102 181 163.553 181C162.005 181 160.749 179.748 160.749 178.204V158.731C160.749 157.187 162.005 155.935 163.553 155.935Z" fill="#4F3996"/>
<path d="M184.86 160.484C183.169 160.484 181.765 161.06 180.647 162.214C179.53 163.366 178.971 165.336 178.971 168.12V178.17C178.971 179.733 177.7 181.002 176.131 181.002C174.563 181.002 173.291 179.735 173.291 178.17V158.431C173.291 157.053 174.411 155.935 175.794 155.935C177.175 155.935 178.297 157.051 178.297 158.431V158.721C179.243 157.606 180.406 156.744 181.788 156.133C183.169 155.521 184.743 155.217 186.513 155.217C189.322 155.217 191.454 155.924 192.913 157.341C194.371 158.756 195.317 160.332 195.753 162.064C196.186 163.796 196.404 165.445 196.404 167.008V178.17C196.404 179.733 195.133 181.002 193.564 181.002C191.996 181.002 190.724 179.735 190.724 178.17V168.934C190.724 163.301 188.769 160.486 184.858 160.486L184.86 160.484Z" fill="#4F3996"/>
<path d="M205.291 147.581C206.861 147.581 208.133 148.85 208.133 150.415V168.005L216.498 157.024C217.019 156.34 217.833 155.937 218.696 155.937C220.991 155.937 222.285 158.568 220.876 160.378L214.579 168.47L221.345 176.478C222.858 178.268 221.581 181.004 219.233 181.004H219.076C218.235 181.004 217.438 180.62 216.915 179.963L208.131 168.936V178.17C208.131 179.735 206.859 181.004 205.289 181.004H205.252C203.68 181.004 202.408 179.733 202.41 178.166L202.447 150.413C202.449 148.85 203.722 147.583 205.289 147.583L205.291 147.581Z" fill="#4F3996"/>
<path d="M98.073 158.731C98.073 157.187 96.8174 155.935 95.2687 155.935C93.7199 155.935 92.4644 157.187 92.4644 158.731V178.204C92.4644 179.748 93.7199 181 95.2687 181C96.8174 181 98.073 179.748 98.073 178.204V158.731Z" fill="#4F3996"/>
<path d="M83.7143 146.884H83.3438L83.3397 146.894C82.2326 146.919 81.2176 147.047 80.3051 147.291C79.2881 147.562 78.3693 148.161 77.5469 149.09C77.0195 149.662 76.6344 150.317 76.3959 151.051C76.1552 151.786 76.0129 152.483 75.9648 153.14C75.9187 153.798 75.8957 154.599 75.8957 155.542V155.937H74.0457C72.8319 155.937 71.8462 156.92 71.8462 158.13C71.8462 159.34 72.8319 160.323 74.0457 160.323H75.8957V178.11C75.8957 179.6 77.0237 180.9 78.5137 180.996C80.1482 181.102 81.5043 179.81 81.5043 178.206V160.323H85.3801C86.5939 160.323 87.5796 159.34 87.5796 158.13C87.5796 156.92 86.5939 155.937 85.3801 155.937H84.4091H81.5043V154.336C81.5043 153.312 82.3372 152.479 83.3669 152.479H84.7753C86.3239 152.479 87.5796 151.227 87.5796 149.682C87.5796 148.138 86.3239 146.886 84.7753 146.886H83.7164L83.7143 146.884Z" fill="#4F3996"/>
<path d="M182.744 84.5557C169.968 71.8154 149.18 71.8154 136.404 84.5557L119.419 101.493L117.822 103.085L113.235 107.659L107.698 113.181L103.996 116.873C101.459 119.402 98.0395 120.915 94.4526 120.921C90.8907 120.928 87.5401 119.548 85.0226 117.036C82.1157 114.137 80.7198 110.132 81.2305 105.973C81.5172 103.63 82.4464 101.399 83.905 99.5394C86.4938 96.24 90.3193 94.3953 94.4274 94.3953C97.9809 94.3953 101.321 95.7747 103.832 98.2789L107.415 101.852C108.665 103.097 110.682 103.118 111.956 101.898C113.266 100.641 113.29 98.5585 112.002 97.2772L108.42 93.7045C104.682 89.9774 99.7138 87.9239 94.4274 87.9239C89.1411 87.9239 84.1729 89.9774 80.4352 93.7045C76.4443 97.6841 74.3683 103.062 74.6676 108.73C74.904 113.208 76.685 117.499 79.6923 120.832C83.5011 125.051 88.7832 127.393 94.4274 127.393C99.7138 127.393 104.684 125.339 108.42 121.612L110.941 119.097L120.118 109.947L140.994 89.1301C145.958 84.1801 152.556 81.4546 159.575 81.4546C166.594 81.4546 173.193 84.1801 178.157 89.1301C183.121 94.0801 185.854 100.66 185.854 107.659C185.854 114.659 183.121 121.239 178.157 126.189C168.612 135.707 153.496 136.352 143.187 128.138C143.245 127.781 143.285 127.416 143.285 127.042C143.285 123.336 140.274 120.333 136.557 120.333C132.84 120.333 129.829 123.336 129.829 127.042C129.829 130.748 132.84 133.751 136.557 133.751C137.486 133.751 138.373 133.564 139.179 133.223C145.127 137.948 152.351 140.317 159.577 140.317C167.967 140.317 176.359 137.132 182.746 130.763C188.935 124.592 192.344 116.387 192.344 107.659C192.344 98.9321 188.935 90.7265 182.746 84.5557H182.744Z" fill="#4F3996"/>
<path d="M147.646 100.796L149.994 98.4542C152.575 95.8811 156.065 94.3598 159.715 94.3973C163.599 94.437 167.22 96.1294 169.767 99.1366C171.527 101.215 172.6 103.807 172.826 106.518C173.157 110.481 171.759 114.264 168.978 117.038C166.466 119.542 163.124 120.923 159.573 120.921C156.019 120.921 152.679 119.542 150.168 117.038L145.901 112.783C144.633 111.518 142.575 111.52 141.309 112.787C140.045 114.051 140.047 116.096 141.314 117.359L145.581 121.614C149.318 125.341 154.289 127.395 159.575 127.395C164.861 127.395 169.83 125.341 173.567 121.614C177.305 117.887 179.362 112.933 179.362 107.661C179.362 102.39 177.305 97.4358 173.567 93.7087C169.825 89.9773 164.851 87.9239 159.56 87.9281C154.234 87.9322 149.149 90.1506 145.384 93.9048L143.059 96.2233L133.882 105.374L113.007 126.191C107.708 131.475 100.546 134.223 93 133.829C87.0377 133.518 81.3224 131.157 76.8836 127.176C71.2624 122.134 68.1463 115.137 68.1463 107.663C68.1463 100.664 70.8795 94.0843 75.8435 89.1343C85.1354 79.8686 99.7136 79.0067 109.989 86.5465C109.843 87.0954 109.757 87.6714 109.757 88.2661C109.757 91.9724 112.768 94.9754 116.485 94.9754C120.202 94.9754 123.213 91.9724 123.213 88.2661C123.213 84.5599 120.202 81.5569 116.485 81.5569C115.776 81.5569 115.093 81.6675 114.453 81.8699C101.603 72.1305 83.1598 72.8192 71.3901 84.4242C64.7749 90.9457 61.2904 99.7752 61.6901 109.101C61.9999 116.362 64.7539 123.348 69.492 128.866C76.0507 136.504 85.2379 140.321 94.4252 140.321C102.815 140.321 111.207 137.136 117.594 130.765L136.176 112.236L147.646 100.798V100.796Z" fill="#4F3996"/>
</g>
<defs>
<clipPath id="clip0_208_82">
<rect width="190" height="106" fill="white" transform="translate(32 75)"/>
</clipPath>
</defs>
</svg>
