<svg width="255" height="255" viewBox="0 0 255 255" fill="none" xmlns="http://www.w3.org/2000/svg">
<path d="M163.318 107.352V147.562H169.618V107.352H163.318ZM96.059 106.66C83.7882 106.66 74.2882 115.203 74.2882 127.441C74.2882 139.679 83.8212 148.222 96.059 148.222C108.33 148.222 117.863 140.207 117.83 127.441C117.83 115.83 108.297 106.66 96.059 106.66ZM111.562 127.441C111.562 136.512 104.635 142.516 96.059 142.516C87.4826 142.516 80.5556 136.512 80.5556 127.441C80.5556 118.37 87.4826 112.366 96.059 112.366C104.635 112.366 111.562 118.535 111.562 127.441ZM32 106.033V147.53H38.4323V120.085L71.8142 148.816V140.207L32 106V106.033ZM122.58 127.441L145.934 147.53H155.302L131.882 127.441L155.302 107.352H145.934L122.58 127.441ZM222 147.53H215.073L209.993 138.623H187.035L181.955 147.53H175.028L183.406 132.686H206.661L195.083 112.069L198.514 106.033L221.967 147.53H222Z" fill="#005AFF"/>
</svg>
