<?xml version="1.0" encoding="utf-8"?>
<!-- Generator: Adobe Illustrator 23.0.0, SVG Export Plug-In . SVG Version: 6.00 Build 0)  -->
<svg version="1.1" id="Layer_1" xmlns="http://www.w3.org/2000/svg" xmlns:xlink="http://www.w3.org/1999/xlink" x="0px" y="0px"
	 viewBox="0 0 354 354" style="enable-background:new 0 0 354 354;" xml:space="preserve">
<style type="text/css">
	.st0{fill:#0080FF;}
	.st1{fill-rule:evenodd;clip-rule:evenodd;fill:#0080FF;}
</style>
<g id="XMLID_229_">
	<g id="XMLID_690_">
		<g id="XMLID_691_">
			<g>
				<g id="XMLID_44_">
					<g id="XMLID_48_">
						<path id="XMLID_49_" class="st0" d="M177,210.2v-25.4c26.9,0,47.8-26.7,37.5-55c-3.8-10.4-12.2-18.8-22.7-22.6
							c-28.3-10.3-55,10.6-55,37.5l0,0h-25.4c0-42.9,41.5-76.4,86.5-62.3c19.6,6.2,35.3,21.8,41.4,41.4
							C253.4,168.7,219.9,210.2,177,210.2z"/>
					</g>
					<polygon id="XMLID_47_" class="st1" points="177.1,184.9 151.7,184.9 151.7,159.5 151.7,159.5 177.1,159.5 177.1,159.5 					
						"/>
					<polygon id="XMLID_46_" class="st1" points="151.7,204.3 132.3,204.3 132.3,204.3 132.3,184.9 151.7,184.9 					"/>
					<path id="XMLID_45_" class="st1" d="M132.3,184.9H116l0,0v-16.3l0,0h16.3l0,0V184.9z"/>
				</g>
			</g>
		</g>
	</g>
	<g id="XMLID_234_">
		<path id="XMLID_677_" class="st0" d="M68.6,235.9c-3.3-2.3-7.4-3.4-12.2-3.4H46v33.1h10.5c4.8,0,8.9-1.2,12.2-3.6
			c1.8-1.3,3.2-3,4.2-5.3c1-2.2,1.5-4.9,1.5-7.8c0-2.9-0.5-5.5-1.5-7.7C71.8,238.9,70.4,237.1,68.6,235.9z M52,238.1h3.3
			c3.6,0,6.6,0.7,8.9,2.2c2.5,1.6,3.8,4.5,3.8,8.6c0,4.3-1.3,7.4-3.8,9l0,0c-2.2,1.4-5.1,2.2-8.9,2.2H52V238.1z"/>
		<path id="XMLID_676_" class="st0" d="M81.6,232c-1,0-1.9,0.4-2.6,1c-0.7,0.7-1,1.5-1,2.5c0,1,0.4,1.9,1,2.6c0.7,0.7,1.6,1,2.6,1
			c1,0,1.9-0.4,2.6-1c0.7-0.7,1-1.6,1-2.6c0-1-0.4-1.9-1-2.5C83.4,232.4,82.5,232,81.6,232z"/>
		<rect id="XMLID_675_" x="78.6" y="242.2" class="st0" width="5.9" height="23.4"/>
		<path id="XMLID_670_" class="st0" d="M105.8,244.2c-1.8-1.6-3.7-2.5-5.9-2.5c-3.3,0-6,1.1-8,3.3c-2.1,2.2-3.2,5-3.2,8.4
			c0,3.3,1,6.1,3.1,8.3c2.1,2.2,4.8,3.3,8,3.3c2.2,0,4.2-0.6,5.8-1.9v0.5c0,1.9-0.5,3.4-1.6,4.5c-1,1-2.5,1.6-4.2,1.6
			c-2.7,0-4.4-1-6.5-3.9l-4,3.9l0.1,0.1c0.9,1.2,2.2,2.4,3.9,3.5c1.7,1.1,3.9,1.7,6.5,1.7c3.5,0,6.3-1,8.4-3.2
			c2.1-2.2,3.1-5,3.1-8.5v-21.2h-5.8v2H105.8z M104.3,258c-1,1.2-2.4,1.7-4,1.7c-1.7,0-3-0.6-4-1.7c-1-1.2-1.5-2.7-1.5-4.5
			c0-1.9,0.5-3.4,1.5-4.6c1-1.2,2.4-1.7,4-1.7c1.7,0,3,0.6,4,1.7c1,1.2,1.6,2.8,1.6,4.6C105.8,255.3,105.3,256.8,104.3,258z"/>
		<rect id="XMLID_668_" x="116.6" y="242.2" class="st0" width="5.9" height="23.4"/>
		<path id="XMLID_660_" class="st0" d="M119.6,232c-1,0-1.9,0.4-2.6,1c-0.7,0.7-1,1.5-1,2.5c0,1,0.4,1.9,1,2.6c0.7,0.7,1.6,1,2.6,1
			c1,0,1.9-0.4,2.6-1c0.7-0.7,1-1.6,1-2.6c0-1-0.4-1.9-1-2.5C121.4,232.4,120.6,232,119.6,232z"/>
		<path id="XMLID_652_" class="st0" d="M135.3,235.9h-5.8v6.3h-3.3v5.4h3.3v9.7c0,3,0.6,5.2,1.8,6.5c1.2,1.3,3.3,1.9,6.3,1.9
			c1,0,1.9,0,2.8-0.1h0.3v-5.4l-2,0.1c-1.4,0-2.3-0.2-2.8-0.7c-0.4-0.5-0.7-1.6-0.7-3.1v-8.9h5.5v-5.4h-5.5V235.9z"/>
		<rect id="XMLID_642_" x="168.4" y="232.4" class="st0" width="5.9" height="33.2"/>
		<path id="XMLID_448_" class="st0" d="M233.6,257.2c-1,1.2-2.2,2.2-3,2.8l0,0c-0.8,0.5-1.9,0.8-3,0.8c-1.7,0-3.1-0.6-4.2-1.9
			c-1.1-1.3-1.7-3-1.7-4.9c0-2,0.6-3.6,1.7-4.9c1.1-1.3,2.5-1.9,4.2-1.9c1.9,0,3.9,1.2,5.6,3.2l3.9-3.7l0,0
			c-2.5-3.3-5.7-4.8-9.6-4.8c-3.2,0-6,1.2-8.3,3.5c-2.3,2.3-3.4,5.2-3.4,8.7c0,3.5,1.2,6.4,3.4,8.7c2.3,2.3,5.1,3.5,8.3,3.5
			c4.2,0,7.7-1.9,10-5.2L233.6,257.2z"/>
		<path id="XMLID_445_" class="st0" d="M257.8,245.5c-0.8-1.2-1.9-2.1-3.3-2.8c-1.4-0.7-3-1-4.8-1c-3.3,0-6,1.2-8,3.6
			c-1.9,2.4-3,5.3-3,8.8c0,3.6,1.1,6.5,3.2,8.7c2.2,2.2,5,3.3,8.5,3.3c3.9,0,7.2-1.6,9.7-4.8l0.1-0.1l-3.9-3.7l0,0
			c-0.4,0.4-0.9,0.9-1.3,1.3c-0.6,0.5-1.1,1-1.7,1.3c-0.9,0.4-1.9,0.7-3,0.7c-1.6,0-3-0.4-4-1.4c-1-0.9-1.6-2.1-1.7-3.6h15.5
			l0.1-2.2c0-1.5-0.2-3-0.6-4.3C259.2,247.9,258.6,246.7,257.8,245.5z M244.9,251c0.3-1.1,0.8-2.1,1.6-2.8c0.8-0.8,1.9-1.2,3-1.2
			c1.4,0,2.5,0.4,3.3,1.2c0.7,0.7,1.1,1.6,1.2,2.8H244.9z"/>
		<path id="XMLID_442_" class="st0" d="M280.3,244L280.3,244c-1.8-1.5-4.2-2.3-7.3-2.3c-1.9,0-3.8,0.4-5.4,1.3c-1.6,0.7-3,2.1-4,3.7
			l0.1,0.1l3.8,3.6c1.6-2.5,3.3-3.3,5.6-3.3c1.3,0,2.2,0.3,3,1c0.7,0.7,1.2,1.5,1.2,2.5v1.1c-1.5-0.4-2.9-0.7-4.3-0.7
			c-2.9,0-5.3,0.7-7.1,2c-1.8,1.3-2.7,3.3-2.7,5.9c0,2.2,0.7,3.9,2.3,5.3c1.6,1.3,3.4,1.9,5.7,1.9c2.2,0,4.3-0.9,6.2-2.5v1.9h5.8
			v-15C283,247.7,282.1,245.5,280.3,244z M269.9,256.6c0.7-0.4,1.6-0.7,2.8-0.7c1.4,0,2.9,0.3,4.5,0.8v2.3c-1.3,1.2-3,1.8-5.1,1.8
			c-1,0-1.8-0.2-2.4-0.7c-0.5-0.4-0.8-1-0.8-1.7C268.9,257.7,269.2,257.1,269.9,256.6z"/>
		<path id="XMLID_393_" class="st0" d="M305.6,244.4c-1.6-1.9-3.9-2.8-6.8-2.8c-2.3,0-4.2,0.7-5.7,2v-1.4h-5.7v23.3h5.9v-12.9
			c0-1.8,0.4-3.2,1.3-4.2s1.9-1.5,3.5-1.5c1.3,0,2.3,0.4,3,1.3c0.7,0.9,1.1,2.2,1.1,3.6v13.5h5.9V252
			C308.1,248.8,307.2,246.2,305.6,244.4z"/>
		<path id="XMLID_320_" class="st0" d="M161,244L161,244c-1.8-1.5-4.2-2.3-7.3-2.3c-1.9,0-3.8,0.4-5.4,1.3c-1.6,0.7-3,2.1-4,3.7
			l0.1,0.1l3.8,3.6c1.6-2.5,3.3-3.3,5.6-3.3c1.3,0,2.2,0.3,3,1c0.7,0.7,1.2,1.5,1.2,2.5v1.1c-1.5-0.4-2.9-0.7-4.3-0.7
			c-2.9,0-5.3,0.7-7.1,2c-1.8,1.3-2.7,3.3-2.7,5.9c0,2.2,0.7,3.9,2.3,5.3c1.6,1.3,3.4,1.9,5.7,1.9c2.2,0,4.3-0.9,6.2-2.5v1.9h5.8
			v-15C163.7,247.7,162.8,245.5,161,244z M150.6,256.6c0.7-0.4,1.6-0.7,2.8-0.7c1.4,0,2.9,0.3,4.5,0.8v2.3c-1.3,1.2-3,1.8-5.1,1.8
			c-1,0-1.8-0.2-2.4-0.7c-0.5-0.4-0.8-1-0.8-1.7C149.6,257.7,149.9,257.1,150.6,256.6z"/>
		<path id="XMLID_235_" class="st0" d="M195.6,266.1c-9.4,0-17.1-7.7-17.1-17.1s7.7-17.1,17.1-17.1s17.1,7.7,17.1,17.1
			S205,266.1,195.6,266.1z M195.6,237.9c-6.1,0-11.1,5-11.1,11.1c0,6.1,5,11.1,11.1,11.1s11.1-5,11.1-11.1
			C206.7,242.9,201.7,237.9,195.6,237.9z"/>
	</g>
</g>
</svg>
