<svg width="156" height="156" viewBox="0 0 156 156" fill="none" xmlns="http://www.w3.org/2000/svg">
<rect width="155.7" height="155.7" fill="white"/>
<g clip-path="url(#clip0)">
<path d="M136.6 84.8C137.5 84 138 82.9 138.1 81.6C138.2 79 136.3 76.9 133.7 76.7C132.5 76.6 131.3 77.1 130.4 77.8L46.6 123.7C44.7 124.5 43 125.9 41.9 127.8C39 132.6 40.6 138.8 45.5 141.7C48.9 143.7 53 143.5 56.2 141.5C56.4 141.3 56.7 141.2 56.9 141L134.9 86.2C135.3 85.9 136.4 85.1 136.6 84.8Z" fill="url(#paint0_linear)"/>
<path d="M136.8 78.1L73 15.5C71.6 14 69.6 13 67.3 13C63 13 59.6 16.5 59.6 20.7C59.6 22.8 60.4 24.6 61.7 26C62.1 26.4 62.5 26.7 62.9 27L130.3 84.7C131.1 85.4 132.1 85.9 133.3 86C135.9 86.1 138 84.2 138.2 81.6C138.2 80.3 137.7 79 136.8 78.1Z" fill="url(#paint1_linear)"/>
<path d="M75.1 72.5C75 72.5 35.7 41.5 34.9 41C34.3 40.7 33.7 40.4 33.1 40.1C27.3 37.9 20.9 40.9 18.7 46.7C16.8 51.8 18.9 57.4 23.3 60.1C24 60.5 24.6 60.8 25.3 61C25.7 61.2 70.7 79.8 70.7 79.8C72.5 80.6 74.6 80.1 75.8 78.6C77.3 76.7 77 74 75.1 72.5Z" fill="url(#paint2_linear)"/>
<path d="M67.3 13C65.6 13 64 13.6 62.7 14.5L22.9 41.3C22.8 41.4 22.7 41.4 22.7 41.5H22.6C20.9 42.7 19.5 44.5 18.7 46.6C16.5 52.4 19.5 58.9 25.3 61C28.9 62.4 32.8 61.7 35.7 59.6C36.4 59.1 37 58.6 37.5 58L72.1 26.8C73.9 25.4 75.1 23.2 75.1 20.7C75.1 16.5 71.6 13 67.3 13Z" fill="url(#paint3_linear)"/>
<path d="M103.6 50.4H52.6V101.4H103.6V50.4Z" fill="black"/>
<path d="M76.1 91.8H57V95H76.1V91.8Z" fill="white"/>
<path d="M56.8 63.8L58.3 62.4C58.7 62.9 59.1 63.2 59.6 63.2C60.2 63.2 60.5 62.8 60.5 62V56.7H62.8V62C62.8 63 62.5 63.8 62 64.3C61.5 64.8 60.7 65.1 59.7 65.1C58.2 65.2 57.4 64.6 56.8 63.8Z" fill="white"/>
<path d="M63.3 56.8H70V58.7H65.6V60H69.6V61.8H65.6V63.1H70.1V65.1H63.4L63.3 56.8Z" fill="white"/>
<path d="M73 58.8H70.5V56.8H77.8V58.8H75.3V65.1H73V58.8Z" fill="white"/>
<path d="M57 67H61.3C62.3 67 63.1 67.3 63.6 67.7C63.9 68 64.1 68.5 64.1 69.1C64.1 70.1 63.6 70.6 62.8 71C63.8 71.3 64.4 71.9 64.4 73C64.4 74.4 63.2 75.3 61.3 75.3H57V67ZM61.8 69.6C61.8 69.1 61.4 68.9 60.8 68.9H59.3V70.4H60.7C61.4 70.3 61.8 70.1 61.8 69.6ZM61 72H59.2V73.5H61C61.7 73.5 62.1 73.2 62.1 72.7C62.1 72.2 61.7 72 61 72Z" fill="white"/>
<path d="M64.8 67H68.7C70 67 70.8 67.3 71.4 67.9C71.9 68.4 72.1 69 72.1 69.8C72.1 71.1 71.4 71.9 70.4 72.4L72.4 75.3H69.8L68.1 72.8H67.1V75.3H64.8V67ZM68.6 71C69.4 71 69.8 70.6 69.8 70C69.8 69.3 69.3 69 68.6 69H67.1V71H68.6Z" fill="white"/>
<path d="M74.8 67H77L80.5 75.4H78L77.4 73.9H74.2L73.6 75.4H71.2L74.8 67ZM76.8 72L75.9 69.7L75 72H76.8Z" fill="white"/>
<path d="M80.8 67H83.1V75.3H80.8V67Z" fill="white"/>
<path d="M83.7 67H85.8L89.2 71.4V67H91.5V75.3H89.5L86 70.8V75.4H83.7V67Z" fill="white"/>
<path d="M91.7 74.1L93 72.6C93.8 73.3 94.7 73.6 95.7 73.6C96.3 73.6 96.7 73.4 96.7 73C96.7 72.6 96.4 72.5 95.3 72.2C93.5 71.8 92.2 71.3 92.2 69.6C92.2 68.1 93.4 66.9 95.4 66.9C96.8 66.9 97.9 67.3 98.8 68L97.6 69.6C96.8 69.1 96 68.8 95.3 68.8C94.7 68.8 94.5 69 94.5 69.3C94.5 69.7 94.8 69.8 95.9 70.1C97.8 70.5 99 71.1 99 72.7C99 74.4 97.7 75.4 95.6 75.4C94.1 75.5 92.7 75 91.7 74.1Z" fill="white"/>
</g>
<defs>
<linearGradient id="paint0_linear" x1="49.8412" y1="133.558" x2="128.24" y2="86.24" gradientUnits="userSpaceOnUse">
<stop stop-color="#FCEE39"/>
<stop offset="1" stop-color="#F37B3D"/>
</linearGradient>
<linearGradient id="paint1_linear" x1="66.3607" y1="19.9083" x2="137.918" y2="82.5546" gradientUnits="userSpaceOnUse">
<stop stop-color="#EF5A6B"/>
<stop offset="0.57" stop-color="#F26F4E"/>
<stop offset="1" stop-color="#F37B3D"/>
</linearGradient>
<linearGradient id="paint2_linear" x1="70.9467" y1="76.6407" x2="28.5379" y2="50.1562" gradientUnits="userSpaceOnUse">
<stop stop-color="#7C59A4"/>
<stop offset="0.3852" stop-color="#AF4C92"/>
<stop offset="0.7654" stop-color="#DC4183"/>
<stop offset="0.957" stop-color="#ED3D7D"/>
</linearGradient>
<linearGradient id="paint3_linear" x1="70.1736" y1="16.7019" x2="28.7706" y2="50.8971" gradientUnits="userSpaceOnUse">
<stop stop-color="#EF5A6B"/>
<stop offset="0.364" stop-color="#EE4E72"/>
<stop offset="1" stop-color="#ED3D7D"/>
</linearGradient>
<clipPath id="clip0">
<rect x="18" y="13" width="120.1" height="130.2" fill="white"/>
</clipPath>
</defs>
</svg>
