<svg id="Layer_1" data-name="Layer 1" xmlns="http://www.w3.org/2000/svg" xmlns:xlink="http://www.w3.org/1999/xlink" viewBox="0 0 566.93 566.93"><defs><style>.cls-1{fill:none;}.cls-2{clip-path:url(#clip-path);}.cls-3{fill:#788386;}.cls-4{fill:#9e0b0f;}</style><clipPath id="clip-path"><rect class="cls-1" x="99.66" y="64.31" width="367.6" height="438.3"/></clipPath></defs><title>liga-ac</title><g class="cls-2"><path class="cls-3" d="M223.14,271.37c-14.91,6.21-51.16,22.87-94.91,27.23-18.32,1.83-28.75-14.07,4.09-49.68-18.67,16.23-53.34,50.16-16.15,56.34,16.43,2.71,41.48-1.43,63.66-8.08a426,426,0,0,0,63.3-24.86c-5.59-2.39-11.27-4.89-11.27-4.89-1.79.84-6.74,3.11-8.72,3.94"/><path class="cls-3" d="M401.51,221.5a208,208,0,0,0-5.65-27c-2.23-8.16-4-13.14-4.39-14.33-15.82,17.69-33.77,36.92-74.92,64.14a221,221,0,0,1,1.66,27.77c7.18,2.06,19.21,5.21,19.21,5.21s9.29-48.47,35.3-56.82c20.34-6.55,28,34.07,27.91,61.31,4.49-22.47,3.7-39.81.88-60.31"/><path class="cls-3" d="M403.25,138c-4,10.77-11.11,17.34-18.71,24.42-3.91-8.32-8.55-18.57-14.81-28.69a207.44,207.44,0,0,0-16.94-23.92,151.58,151.58,0,0,0-24.14-23.59c-9.61-7.45-19.17-12.38-25.93-14.72,45.06,36.06,45.06,68,33.24,77.35-6.38,5-18.11,5.68-27.12.25-8.51-5.13-16.8-13.71-24-19.61-11.21-9.13-25.11-22.66-48.86-29.19,25.73,17.08,44.29,43.49,53.28,61.31,3.61,7.14,9.74,19.08,14.2,31.16a237.19,237.19,0,0,1,8.48,28.06c-4,2.8-9,6.33-14.8,10.11-10.54,6.9-22.86,14.37-35.54,21.27,2.16.92,9.67,4,11.46,4.66,29.27-16.31,62.09-37.59,91.77-65.71,27.9-26.41,36.79-45.76,38.46-53.16"/><path class="cls-3" d="M305.38,329.31l4.45,2.56c7.43-8.78,15-20.26,18.34-28.81-2-.6-8-2.37-12.45-3.8-1.66,6.5-3.88,17.69-10.34,30.05"/><path class="cls-3" d="M327.7,118.81c0-5.86-4.48-15.13-15.08-15.13-11.42,0-14.81,12-14.81,16.5s4.35,14.32,14.26,14.32c12,0,15.63-9.82,15.63-15.69"/><path class="cls-4" d="M421.57,240.51s8.8,8,18.25,24.85c7.21,12.89,8.07,20.8-11.33,24.84-20.23,4.21-43.37-.32-56.78-2.07C361,286.74,319.2,275.77,305,271.46a599.13,599.13,0,0,1-62.83-24c-10.45-6-19.34-28.61-23.62-54.2s-4.5-48.51-.22-67.35c2.19-9.58,5.36-20,9-26.26,10.65-18.15,24.5-35,56-33.63A62.38,62.38,0,0,0,242,70.33C232.18,75,224,82.54,215.69,96.07c-7.44,12.11-16.52,29.86-19.92,74-.54,7.08-1.64,14.64-5.68,18.68-4.7,4.7-13.55,4.84-13.55,4.84-6.43,0-12-1.73-17-6.32-10.32-9.54-9.94-38.07-7.62-54.41,2.67-18.75,11.14-28,13.72-31.34,10.81-13.11,23-14.24,25.41-14.33-46.73-.3-64.34,54-61.06,100.53-14.38-9.63-29.1-22.64-29-35.66-6.1,12.54,10.78,30,20.41,37.48,15.37,11.94,56.41,39.31,75.68,48.92a909.43,909.43,0,0,0,116.48,48.39c11.77,4,109,34.63,145.63,15.74,31.17-16.06-37.59-62.05-37.59-62.05"/><path class="cls-4" d="M225.67,266.06c-2.28-1-11.42-5.37-20-9.5-6.44-3.09-22.94-11.68-38.61-20.71-16.77-9.67-33.92-22.35-33.92-22.35,4.58,26.7,14,48.53,19.54,60.73,4,8.7,7.82,16.18,7.82,16.18,10.6-2.54,15.07-3.89,31-9.79s27-11.21,34.21-14.56"/><path class="cls-4" d="M207.66,299c-8.58,3.28-21.65,7.08-34.22,10.45,22.51,30.94,46.21,44.22,59.46,48.39,18.92,6,36.57,4.62,53.16-8.9-43.67,21.72-76.62-8.36-78.4-49.94"/><path class="cls-4" d="M320.48,339.56c-15.38-5.17-27.79-13.84-39.66-24.85-12.64-11.69-20.48-22.19-29-34.83-8.88,4.3-18.21,8.51-28.61,13,0,0,15.65,24.15,50.68,42.37s77.51,25.87,100.93-6.18c-18.93,16.82-41.56,14.8-54.37,10.49"/><path class="cls-4" d="M158.77,155.66c.18,10.16,7,16.19,14.82,16.24s14.94-5.73,14.88-15.17-6-16.7-14.88-16.85c-7-.12-15,5.61-14.82,15.78"/><path class="cls-3" d="M432.27,441.32c-7.62,18.27-21.26,32.18-41.21,26.21s-15-38.92-3.86-50.67c10-10.62,30-25.81,46.37-23.31,2.87.45,7.74,4.52,4.73,5.83s-34,1.9-45.51,34.52c-4,11.35,1.25,20.6,11.49,20.24,12.06-.44,28.39-13.79,28-12.82"/><path class="cls-3" d="M370,442.19c-3.45-4.74-7.76-15.87,2.43-18.79,3-5.59-2-11-12.64-9.32-5.45.9-1.29-18.93-10.19-19.07-5.44,1.74-15.87,16.46-26.72,30-9.24,11.55-20.08,23.15-21.24,25.44-1.51,3.22-2.7,13.54-.29,18.47,2,4.15,8.62,3.42,17.09-6.19,4.64-5.25.72-9.9,6.17-17.47,4.12-5.73,6.64-7.54,8.62-8.9,5.22-3.58,11.17-4.32,12.35-2.46C355,448.61,351.58,471,370,471c14.64,0,1.59-26.63,0-28.84M334.2,429.82c-3.65.62-3.43-4.14-.57-8.32,3.71-5.42,8.34-11.16,10.05-11.92,3-.06,5.89,17.62-9.48,20.24"/><path class="cls-4" d="M291.57,445.4c.28-9.47-1.87-28.17-17.25-23-21.18,7.11-29.21,32.28-24.11,40.77,2,3.36,14,12.76,25.41-7,4.69,13,6.47,23.31,13.5,23s9.19-15.28,2.45-33.77m-27,10.77c-7.9.74-11.24-9.57-.87-19.36s20.36-7.73,20-.14c-.57,10.92-11.24,18.79-19.09,19.5"/><path class="cls-4" d="M225.08,421.21c-17.45,8.67-22,27.83-14.93,34.67,6.23,6.06,18.95-1,18.95-1-10.77,24.33-11.34,47.76,4.31,47.76,15.85,0,9.77-25.79,8.47-34.06-3.17-20.36.43-21,5.46-31.6,2.21-4.67-1.72-25.92-22.26-15.74m-2.73,28.41c-7.9.73-11.24-9.57-.87-19.37s20.37-7.72,20-.15c-.57,10.93-11.24,18.79-19.09,19.52"/><path class="cls-4" d="M192.63,468.4c8.19,1.47,12.09-5.66,11.78-8.73-.48-4.73-2-25.77,1.87-34.66-12.49.87-30.17,40.43-13.65,43.39"/><path class="cls-4" d="M208.43,398.8c-5.55-2.47-10.19,14.27,0,18.19,6,2.34,9.94-13.78,0-18.19"/><path class="cls-4" d="M166.22,393c-7.15,10.94-26.43,40.77-29.44,45.29s-17.71,24.42,0,30.29c6.18,2,28.14,2.48,45.95,2.62.11-.66,6.46-14.56-18.81-15-8.2-.14-15.22-8.78-7.46-29.4,1.73-4.63,11.62-23.3,13.78-30.3.51-1.67,1.74-12.33-4-3.49"/></g></svg>