<svg width="186" height="186" viewBox="0 0 186 186" fill="none" xmlns="http://www.w3.org/2000/svg">
<mask id="mask0_906_47" style="mask-type:luminance" maskUnits="userSpaceOnUse" x="17" y="81" width="152" height="24">
<path d="M169 81H17V105H169V81Z" fill="white"/>
</mask>
<g mask="url(#mask0_906_47)">
<path d="M56.0035 104.476V91.2149H59.3177V87.8997H56.0035V87.1665C56.0035 85.6364 56.6172 84.967 57.8448 84.967C58.3357 84.967 59.1642 85.0945 59.5939 85.2858L60.1156 81.875C59.5939 81.6199 58.0902 81.3649 56.8628 81.3649C53.5793 81.3649 52.045 83.7238 52.045 87.2303V87.8997H49.6514V91.2149H52.045V104.476H56.0035Z" fill="black"/>
<path d="M65.9881 104.476V81.0461L61.9375 82.3212V104.476H65.9881Z" fill="black"/>
<path d="M93.6887 104.476L96.788 92.8725L99.6419 104.476H103.294L108.265 87.8997H104.368L101.36 99.3434L98.5679 87.8997H94.9161L92.0623 99.6941L89.239 87.8997H85.1577L89.9755 104.476H93.6887Z" fill="black"/>
<path d="M114.416 104.476V81.0461L110.365 84.3135V104.476H114.416Z" fill="black"/>
<path d="M132.307 97.3671C132.307 97.2714 132.338 96.347 132.338 95.6139C132.338 90.2904 129.054 87.4215 124.789 87.4215C120.616 87.4215 117.056 90.2586 117.056 96.1877C117.056 102.117 120.585 104.954 124.789 104.954C128.502 104.954 130.957 103.232 132.062 99.8217L128.287 98.9928C127.857 100.491 126.63 101.447 125.034 101.447C122.917 101.447 121.261 100.172 121.107 97.3671H132.307ZM124.697 90.928C126.723 90.928 128.072 92.3306 128.196 94.4026H121.168C121.444 92.1074 123.07 90.928 124.697 90.928Z" fill="black"/>
<path d="M134.048 99.6941C134.323 102.818 136.779 104.954 140.676 104.954C144.297 104.954 147.243 103.296 147.243 99.6304C147.243 96.3151 144.941 95.1676 143.131 94.7213L139.265 93.7969C138.436 93.6057 137.883 93.1274 137.883 92.4262C137.883 91.2467 138.957 90.7048 140.523 90.7048C141.935 90.7048 143.07 90.7048 143.315 92.203H146.814C146.66 89.5891 144.451 87.4215 140.646 87.4215C137.361 87.4215 134.385 88.8878 134.385 92.5856C134.385 95.327 136.196 96.7296 138.283 97.2396L142.118 98.1641C143.039 98.419 143.622 98.8653 143.622 99.7898C143.622 101.288 142.118 101.67 140.768 101.67C138.773 101.67 137.73 101.16 137.546 99.6304L134.048 99.6941Z" fill="black"/>
<path fill-rule="evenodd" clip-rule="evenodd" d="M76.4597 104.954C80.9616 104.954 84.611 101.163 84.611 96.4865C84.611 91.8102 80.9616 88.0192 76.4597 88.0192C71.958 88.0192 68.3086 91.8102 68.3086 96.4865C68.3086 101.163 71.958 104.954 76.4597 104.954ZM76.4598 100.969C78.8431 100.969 80.7752 98.9622 80.7752 96.4865C80.7752 94.0108 78.8431 92.0038 76.4598 92.0038C74.0766 92.0038 72.1445 94.0108 72.1445 96.4865C72.1445 98.9622 74.0766 100.969 76.4598 100.969Z" fill="black"/>
<path d="M167.081 104.954C168.141 104.954 168.999 104.062 168.999 102.961C168.999 101.861 168.141 100.969 167.081 100.969C166.022 100.969 165.164 101.861 165.164 102.961C165.164 104.062 166.022 104.954 167.081 104.954Z" fill="black"/>
<path d="M148.862 99.6941C149.137 102.818 151.593 104.954 155.49 104.954C159.111 104.954 162.056 103.296 162.056 99.6303C162.056 96.3151 159.755 95.1676 157.945 94.7212L154.078 93.7968C153.25 93.6056 152.697 93.1275 152.697 92.4261C152.697 91.2467 153.771 90.7048 155.336 90.7048C156.749 90.7048 157.884 90.7048 158.129 92.203H161.628C161.474 89.5891 159.265 87.4214 155.46 87.4214C152.175 87.4214 149.199 88.8878 149.199 92.5855C149.199 95.3269 151.01 96.7295 153.097 97.2396L156.932 98.164C157.853 98.4189 158.436 98.8652 158.436 99.7897C158.436 101.288 156.932 101.67 155.582 101.67C153.587 101.67 152.544 101.16 152.36 99.6303L148.862 99.6941Z" fill="black"/>
<mask id="mask1_906_47" style="mask-type:luminance" maskUnits="userSpaceOnUse" x="17" y="82" width="23" height="23">
<path d="M39.1026 82.0423H17.0464V104.954H39.1026V82.0423Z" fill="white"/>
</mask>
<g mask="url(#mask1_906_47)">
<path d="M39.1026 96.2153V82.0423H17.0464V104.954H30.6881V96.2153H39.1026Z" fill="black"/>
</g>
</g>
</svg>
