<svg width="255" height="255" viewBox="0 0 255 255" fill="none" xmlns="http://www.w3.org/2000/svg">
<g clip-path="url(#clip0_208_82)">
<path d="M132.513 76.4272L119.107 48.184C118.575 47.0548 119.084 45.7218 120.248 45.2037C121.411 44.6857 122.789 45.1804 123.327 46.3039C123.35 46.3563 123.374 46.4087 123.397 46.4611L134.539 75.6123C134.748 76.1594 134.458 76.7706 133.891 76.9744C133.353 77.1664 132.756 76.922 132.513 76.4214M121.249 76.7532C121.695 76.3573 121.718 75.6821 121.307 75.2572L99.4965 52.4624C99.456 52.4217 99.4155 52.3809 99.3692 52.3402C98.4314 51.4962 96.9612 51.5485 96.0929 52.4624C95.2247 53.3763 95.2768 54.7966 96.2203 55.6407L119.767 76.7648C120.184 77.1373 120.832 77.1432 121.255 76.7648M109.493 81.2469C109.748 80.7172 109.505 80.0885 108.955 79.8441L79.7871 66.8634C79.735 66.8401 79.6771 66.8168 79.625 66.7994C78.4211 66.3686 77.0897 66.9624 76.644 68.1265C76.1983 69.2907 76.8119 70.583 78.0159 71.0137L108.115 81.8057C108.648 81.992 109.25 81.7592 109.493 81.2527M100.399 89.7513C100.423 89.1634 99.9538 88.6744 99.346 88.6511L67.2669 87.4637C67.209 87.4637 67.1511 87.4637 67.0874 87.4637C65.8082 87.5102 64.8068 88.558 64.8589 89.7979C64.9052 91.0377 65.9876 92.004 67.2669 91.9574L99.346 90.7699C99.9133 90.7467 100.376 90.3101 100.399 89.7513ZM95.352 100.974C95.1437 100.427 94.5127 100.147 93.9455 100.351L63.8402 111.143C63.7881 111.161 63.7302 111.184 63.6781 111.207C62.5146 111.725 62.0053 113.058 62.5378 114.188C63.0703 115.317 64.4479 115.812 65.6172 115.294L94.7848 102.313C95.2999 102.08 95.5546 101.504 95.352 100.98M95.1263 113.215C94.7153 112.785 94.0207 112.761 93.5808 113.157L70.0337 134.281C69.9932 134.316 69.9469 134.363 69.9064 134.404C69.0381 135.312 69.0902 136.738 70.0337 137.582C70.9714 138.426 72.4417 138.368 73.3099 137.46L95.1263 114.659C95.5083 114.257 95.5199 113.629 95.1263 113.221M99.7512 124.613C99.2013 124.368 98.553 124.601 98.2983 125.131L84.8925 153.374C84.8693 153.426 84.8461 153.479 84.823 153.531C84.3773 154.695 84.9909 155.988 86.1948 156.418C87.3988 156.849 88.7301 156.255 89.1758 155.091L100.318 125.94C100.515 125.428 100.272 124.84 99.7512 124.607M108.526 133.414C107.924 133.391 107.415 133.845 107.392 134.433L106.165 165.493C106.165 165.551 106.165 165.61 106.165 165.662C106.211 166.902 107.293 167.868 108.573 167.822C109.852 167.775 110.853 166.727 110.801 165.487L109.574 134.427C109.551 133.88 109.099 133.432 108.521 133.408M120.109 138.292C119.542 138.496 119.252 139.107 119.461 139.654L130.603 168.805C130.621 168.858 130.65 168.916 130.673 168.962C131.205 170.092 132.583 170.581 133.752 170.063C134.916 169.545 135.425 168.212 134.892 167.082L121.487 138.839C121.249 138.344 120.653 138.094 120.115 138.286M132.751 138.507C132.305 138.903 132.282 139.573 132.693 140.003L154.509 162.804C154.55 162.845 154.59 162.885 154.636 162.926C155.574 163.77 157.044 163.718 157.913 162.804C158.787 161.896 158.729 160.47 157.785 159.632L134.238 138.507C133.822 138.135 133.173 138.129 132.751 138.507ZM144.513 134.025C144.264 134.555 144.501 135.184 145.051 135.428L174.219 148.409C174.271 148.432 174.329 148.455 174.381 148.473C175.585 148.904 176.916 148.31 177.362 147.146C177.807 145.981 177.194 144.689 175.99 144.258L145.884 133.466C145.352 133.274 144.75 133.513 144.507 134.019M153.6 125.521C153.577 126.103 154.046 126.598 154.654 126.621L186.727 127.809C186.785 127.809 186.849 127.809 186.907 127.809C188.186 127.762 189.187 126.72 189.135 125.48C189.089 124.24 188.006 123.274 186.727 123.321L154.654 124.508C154.087 124.531 153.624 124.968 153.6 125.527M158.642 114.304C158.85 114.851 159.481 115.136 160.049 114.933L190.154 104.141C190.206 104.123 190.264 104.1 190.316 104.077C191.479 103.559 191.989 102.226 191.456 101.096C190.918 99.967 189.54 99.4781 188.377 99.9961L159.209 112.977C158.694 113.204 158.439 113.786 158.642 114.31M158.868 102.074C159.279 102.505 159.968 102.528 160.413 102.132L183.96 81.0083C184.001 80.9733 184.047 80.9268 184.088 80.886C184.962 79.978 184.904 78.5518 183.96 77.7136C183.023 76.8696 181.552 76.922 180.684 77.8358L158.868 100.636C158.486 101.038 158.474 101.667 158.868 102.074ZM154.243 90.6885C154.793 90.9329 155.441 90.7001 155.696 90.1704L169.102 61.9273C169.125 61.8749 169.148 61.8225 169.171 61.7701C169.617 60.6059 169.003 59.3137 167.799 58.8829C166.595 58.4522 165.264 59.0459 164.818 60.2101L153.676 89.3613C153.479 89.8735 153.722 90.4614 154.243 90.6943M145.468 81.8872C146.07 81.9105 146.579 81.4565 146.602 80.8686L147.829 49.8081C147.829 49.7557 147.829 49.6917 147.829 49.6393C147.783 48.3994 146.701 47.4331 145.421 47.4797C144.142 47.5263 143.141 48.5682 143.193 49.8081L144.42 80.8686C144.443 81.4157 144.9 81.8639 145.474 81.8872M132.299 83.1504C132.814 82.8477 132.982 82.1957 132.675 81.6951L119.484 60.4429C119.443 60.3847 119.403 60.3207 119.362 60.2625C118.598 59.2671 117.145 59.0517 116.115 59.791C115.085 60.5302 114.865 61.9389 115.629 62.9343L130.858 82.8651C131.188 83.2959 131.813 83.4239 132.299 83.1445M122.21 83.0456C122.569 82.5741 122.465 81.9105 121.979 81.5612L101.395 66.8168C101.337 66.7761 101.274 66.7353 101.21 66.6946C100.11 66.0543 98.6861 66.3977 98.0263 67.463C97.3664 68.5282 97.7195 69.9077 98.8193 70.548L120.763 83.3192C121.243 83.5927 121.869 83.4821 122.21 83.0398M112.85 86.6837C112.995 86.1132 112.642 85.5428 112.051 85.3972L87.2078 79.4017C87.1383 79.3842 87.0631 79.3726 86.9878 79.3609C85.7202 79.1747 84.5394 80.0245 84.3483 81.2527C84.1573 82.4809 85.0314 83.6219 86.299 83.8081L111.623 87.4753C112.173 87.551 112.711 87.2134 112.85 86.6837ZM105.65 93.5174C105.563 92.9353 105.001 92.5395 104.405 92.6268L79.0751 96.294C79.0057 96.3057 78.9304 96.3173 78.8552 96.3348C77.6107 96.6374 76.8524 97.854 77.165 99.059C77.4776 100.264 78.7336 100.997 79.9781 100.695L104.828 94.6991C105.366 94.5652 105.731 94.0588 105.644 93.5116M102.078 102.336C101.766 101.836 101.094 101.673 100.573 101.975L78.6237 114.752C78.56 114.787 78.4963 114.828 78.4384 114.869C77.4081 115.608 77.1939 117.017 77.9522 118.012C78.7163 119.007 80.1691 119.223 81.1995 118.483L101.789 103.733C102.234 103.413 102.368 102.808 102.078 102.336ZM101.586 112.267C101.1 111.917 100.417 112.016 100.052 112.488L84.8288 132.419C84.7883 132.477 84.742 132.535 84.7072 132.599C84.0474 133.664 84.4004 135.044 85.5002 135.684C86.6 136.325 88.024 135.981 88.6838 134.916L101.876 113.669C102.159 113.21 102.043 112.598 101.586 112.272M105.349 121.336C104.764 121.196 104.168 121.539 104.023 122.11L97.8295 146.168C97.8121 146.238 97.8005 146.307 97.7889 146.377C97.5979 147.605 98.472 148.746 99.7396 148.933C101.007 149.119 102.188 148.269 102.379 147.041L106.165 122.523C106.246 121.988 105.898 121.47 105.349 121.336ZM112.405 128.309C111.808 128.396 111.392 128.938 111.484 129.514L115.276 154.038C115.287 154.107 115.299 154.177 115.316 154.247C115.629 155.452 116.885 156.186 118.129 155.883C119.374 155.58 120.132 154.364 119.819 153.159L113.626 129.095C113.487 128.571 112.966 128.222 112.405 128.303M121.683 132.133C121.168 132.436 121 133.088 121.307 133.589L134.499 154.841C134.533 154.899 134.58 154.963 134.62 155.021C135.384 156.017 136.837 156.232 137.868 155.493C138.898 154.754 139.112 153.345 138.354 152.35L123.125 132.413C122.795 131.982 122.17 131.854 121.683 132.133ZM131.772 132.232C131.414 132.704 131.518 133.367 132.004 133.717L152.587 148.461C152.645 148.502 152.709 148.543 152.773 148.583C153.872 149.224 155.296 148.88 155.956 147.815C156.616 146.75 156.263 145.37 155.163 144.73L133.22 131.959C132.745 131.685 132.114 131.796 131.778 132.238M141.138 128.594C140.993 129.165 141.346 129.735 141.937 129.881L166.78 135.876C166.85 135.894 166.925 135.905 167 135.917C168.268 136.103 169.449 135.253 169.64 134.025C169.831 132.797 168.957 131.656 167.689 131.47L142.371 127.803C141.821 127.727 141.283 128.059 141.15 128.594M148.35 121.761C148.437 122.337 148.999 122.738 149.595 122.651L174.925 118.978C174.994 118.967 175.069 118.955 175.145 118.937C176.389 118.635 177.147 117.418 176.835 116.213C176.522 115.008 175.266 114.275 174.022 114.578L149.166 120.573C148.628 120.707 148.264 121.213 148.35 121.761ZM152.304 112.779C152.616 113.279 153.288 113.442 153.809 113.14L175.758 100.363C175.822 100.328 175.886 100.287 175.943 100.246C176.974 99.5072 177.188 98.0985 176.43 97.1031C175.666 96.1077 174.213 95.8924 173.182 96.6316L152.593 111.382C152.147 111.702 152.014 112.307 152.304 112.779ZM152.408 103.011C152.894 103.361 153.577 103.262 153.942 102.79L169.165 82.8593C169.212 82.8011 169.252 82.7429 169.287 82.6789C169.947 81.6136 169.594 80.2341 168.494 79.5938C167.394 78.9535 165.97 79.2969 165.31 80.3621L152.119 101.609C151.835 102.068 151.951 102.68 152.408 103.006M148.646 93.9424C149.23 94.0821 149.826 93.7386 149.971 93.1682L156.165 69.1103C156.182 69.0404 156.199 68.9706 156.211 68.9007C156.402 67.6725 155.528 66.5316 154.26 66.3453C152.993 66.1591 151.812 67.0089 151.621 68.2371L147.829 92.7549C147.748 93.2846 148.096 93.8085 148.646 93.9424ZM141.59 86.9689C142.186 86.8816 142.597 86.3402 142.51 85.764L138.718 61.2404C138.707 61.1705 138.695 61.1007 138.678 61.0308C138.365 59.8259 137.109 59.0925 135.865 59.3952C134.62 59.6978 133.862 60.9144 134.175 62.1193L140.368 86.1831C140.507 86.7069 141.028 87.0562 141.595 86.9747" fill="#96694C"/>
<path d="M54.6309 194.033H56.6221C56.9694 194.033 57.2531 194.318 57.2531 194.668V209.133C57.2531 209.482 56.9694 209.767 56.6221 209.767H54.6309C54.2836 209.767 54 209.482 54 209.133V194.668C54 194.318 54.2836 194.033 54.6309 194.033ZM61.4786 207.066C61.0271 206.205 60.7898 205.11 60.7898 203.818V194.668C60.7898 194.318 61.0734 194.033 61.4207 194.033H63.4119C63.7592 194.033 64.0428 194.318 64.0428 194.668V203.632C64.0428 204.441 64.2107 205.157 64.4943 205.71C65.0384 206.734 66.0861 207.287 67.5332 207.287C68.9803 207.287 69.999 206.74 70.5489 205.71C70.8557 205.163 71.0004 204.447 71.0004 203.609V194.668C71.0004 194.318 71.2841 194.033 71.6314 194.033H73.6226C73.9699 194.033 74.2535 194.318 74.2535 194.668V203.818C74.2535 205.11 74.0162 206.205 73.5647 207.066C72.5459 209.074 70.41 210 67.5101 210C64.6101 210 62.5031 209.069 61.4786 207.066ZM78.4211 194.033H80.4123C80.7596 194.033 81.0433 194.318 81.0433 194.668V206.996H86.6869C87.0342 206.996 87.3178 207.282 87.3178 207.631V209.133C87.3178 209.482 87.0342 209.767 86.6869 209.767H78.4269C78.0796 209.767 77.796 209.482 77.796 209.133V194.668C77.796 194.318 78.0796 194.033 78.4269 194.033M90.1831 194.033H92.1743C92.5216 194.033 92.8052 194.318 92.8052 194.668V209.133C92.8052 209.482 92.5216 209.767 92.1743 209.767H90.1831C89.8358 209.767 89.5522 209.482 89.5522 209.133V194.668C89.5522 194.318 89.8358 194.033 90.1831 194.033ZM97.0307 207.066C96.5792 206.205 96.3419 205.11 96.3419 203.818V194.668C96.3419 194.318 96.6255 194.033 96.9728 194.033H98.964C99.3113 194.033 99.595 194.318 99.595 194.668V203.632C99.595 204.441 99.7628 205.157 100.046 205.71C100.591 206.734 101.638 207.287 103.085 207.287C104.532 207.287 105.551 206.74 106.101 205.71C106.408 205.163 106.553 204.447 106.553 203.609V194.668C106.553 194.318 106.836 194.033 107.184 194.033H109.175C109.522 194.033 109.806 194.318 109.806 194.668V203.818C109.806 205.11 109.568 206.205 109.117 207.066C108.098 209.074 105.962 210 103.062 210C100.162 210 98.0553 209.069 97.0307 207.066ZM113.557 206.723C113.719 206.403 114.112 206.28 114.425 206.455C115.299 206.944 116.3 207.282 117.423 207.282C118.633 207.282 119.843 206.851 119.843 205.658C119.843 202.817 113.151 203.178 113.151 198.352C113.151 195.989 115.027 193.864 118.396 193.864C119.825 193.864 121.064 194.15 121.955 194.516C122.199 194.615 122.361 194.848 122.361 195.11V196.664C122.361 197.112 121.909 197.415 121.492 197.246C120.462 196.833 119.478 196.612 118.494 196.612C117.51 196.612 116.619 196.973 116.619 198.067C116.619 200.739 123.31 200.361 123.31 205.372C123.31 208.236 120.815 210.006 117.539 210.006C115.947 210.006 114.355 209.627 113.14 208.911C112.845 208.737 112.729 208.37 112.879 208.067L113.551 206.729L113.557 206.723ZM134.418 196.804H130.493C130.146 196.804 129.862 196.519 129.862 196.169V194.668C129.862 194.318 130.146 194.033 130.493 194.033H141.775C142.197 194.033 142.504 194.446 142.377 194.854L141.914 196.356C141.833 196.623 141.59 196.804 141.312 196.804H137.671V209.133C137.671 209.482 137.387 209.767 137.04 209.767H135.049C134.701 209.767 134.418 209.482 134.418 209.133V196.804ZM143.841 201.938C143.841 197.165 147.117 193.87 151.818 193.87C156.518 193.87 159.794 197.188 159.794 201.938C159.794 206.688 156.495 210.006 151.818 210.006C147.141 210.006 143.841 206.734 143.841 201.938ZM156.327 201.938C156.327 198.527 154.521 196.618 151.818 196.618C149.114 196.618 147.308 198.504 147.308 201.938C147.308 205.372 149.138 207.282 151.818 207.282C154.498 207.282 156.327 205.396 156.327 201.938ZM162.017 194.039H164.292C164.564 194.039 164.807 194.219 164.894 194.481L167.579 202.968C167.817 203.708 168.008 204.447 168.222 205.285H168.291C168.505 204.476 168.743 203.708 169.003 202.968L170.977 197.043C171.023 196.909 171.018 196.757 170.977 196.629L170.358 194.889C170.213 194.476 170.514 194.039 170.954 194.039H172.835C173.107 194.039 173.345 194.214 173.431 194.47L176.25 202.73C176.557 203.591 176.847 204.424 177.055 205.262H177.124C177.315 204.4 177.501 203.661 177.767 202.782L180.244 194.499C180.325 194.231 180.568 194.045 180.846 194.045H182.797C183.231 194.045 183.532 194.47 183.393 194.883L178.525 209.464C178.438 209.721 178.195 209.895 177.929 209.895H176.048C175.781 209.895 175.544 209.726 175.457 209.476L173.304 203.475C173.02 202.666 172.708 201.851 172.523 201.111H172.476C172.262 201.874 172.002 202.666 171.741 203.451L169.588 209.476C169.501 209.726 169.258 209.895 168.998 209.895H167.18C166.914 209.895 166.676 209.726 166.584 209.47L161.432 194.889C161.287 194.476 161.588 194.039 162.028 194.039M197.337 209.767C197.141 209.767 196.955 209.674 196.834 209.517L190.472 201.146C189.905 200.384 189.407 199.668 188.857 198.975H188.811C188.881 199.546 188.881 200.529 188.881 201.292V209.133C188.881 209.482 188.597 209.767 188.25 209.767H186.258C185.911 209.767 185.627 209.482 185.627 209.133V194.668C185.627 194.318 185.911 194.033 186.258 194.033H188.568C188.765 194.033 188.95 194.126 189.072 194.283L195.173 202.316C195.792 203.102 196.29 203.795 196.764 204.488H196.811C196.764 203.655 196.764 202.602 196.764 201.862V194.668C196.764 194.318 197.048 194.033 197.395 194.033H199.386C199.734 194.033 200.017 194.318 200.017 194.668V209.133C200.017 209.482 199.734 209.767 199.386 209.767H197.337Z" fill="#96694C"/>
</g>
<defs>
<clipPath id="clip0_208_82">
<rect width="146" height="165" fill="white" transform="translate(54 45)"/>
</clipPath>
</defs>
</svg>
