<svg width="186" height="186" viewBox="0 0 186 186" fill="none" xmlns="http://www.w3.org/2000/svg">
<g clip-path="url(#clip0_906_47)">
<path d="M88.8847 83.0881C85.1978 83.0881 84.2402 81.3468 84.2402 77.8999V71.5677C84.2402 71.246 84.4574 71.0673 84.7387 71.0673H86.0368C86.3132 71.0673 86.5255 71.246 86.5255 71.5677V77.9458C86.5255 80.0497 86.5847 81.5204 89.0229 81.5204C91.318 81.5204 91.4118 79.9578 91.4118 78.0735V71.5677C91.4118 71.246 91.629 71.0673 91.9054 71.0673H92.9813C93.2577 71.0673 93.4601 71.246 93.4601 71.5677V78.3799C93.4601 81.3008 92.0732 83.0881 88.8847 83.0881Z" fill="#484343"/>
<path d="M102.882 78.5535C103.223 79.1765 103.716 80.5808 103.716 80.5808H103.993C103.993 80.5808 103.682 79.2225 103.667 78.1399L103.608 71.5677C103.608 71.246 103.825 71.0877 104.087 71.0877H105.153C105.414 71.0877 105.632 71.246 105.632 71.5677V82.0005C105.632 82.4498 105.464 82.7818 104.921 82.7818H103.642C103.06 82.7818 102.793 82.6847 102.537 82.1945L98.8351 75.3108C98.4945 74.6929 98.0009 73.2886 98.0009 73.2886H97.7245C97.7245 73.2886 98.0355 74.647 98.0503 75.7296L98.1095 82.3068C98.1095 82.6235 97.8923 82.7818 97.6308 82.7818H96.5696C96.308 82.7818 96.0908 82.6235 96.0908 82.3068V71.8741C96.0908 71.4247 96.2586 71.0928 96.8016 71.0928H98.0799C98.6673 71.0928 98.9288 71.1847 99.1904 71.6801L102.892 78.5586L102.882 78.5535Z" fill="#484343"/>
<path d="M110.133 82.7818H108.85C108.573 82.7818 108.376 82.6081 108.376 82.3068V71.5473C108.376 71.2511 108.578 71.0724 108.85 71.0724H110.133C110.409 71.0724 110.627 71.2511 110.627 71.5473V82.3068C110.627 82.6081 110.409 82.7818 110.133 82.7818Z" fill="#484343"/>
<path d="M121.189 72.778H117.922V82.3068C117.922 82.6081 117.719 82.7817 117.443 82.7817H116.13C115.854 82.7817 115.651 82.6081 115.651 82.3068V72.778H112.399C112.122 72.778 111.92 72.5839 111.92 72.2826V71.5473C111.92 71.246 112.122 71.0673 112.399 71.0673H121.174C121.451 71.0673 121.668 71.2409 121.668 71.5473V72.2826C121.668 72.5839 121.466 72.778 121.189 72.778Z" fill="#484343"/>
<path d="M129.994 82.7818H123.81C123.331 82.7818 122.931 82.46 122.931 81.9187V71.9354C122.931 71.3941 123.331 71.0724 123.81 71.0724H129.821C130.098 71.0724 130.315 71.2511 130.315 71.5677V72.3031C130.315 72.6044 130.113 72.7831 129.821 72.7831H125.197V75.75H128.247C128.523 75.75 128.74 75.9134 128.74 76.2249V76.9603C128.74 77.2616 128.523 77.4352 128.247 77.4352H125.197V81.0915H129.994C130.29 81.0915 130.483 81.2498 130.483 81.5715V82.3068C130.483 82.6081 130.266 82.7818 129.994 82.7818Z" fill="#484343"/>
<path d="M136.578 82.7818H133.336C132.872 82.7818 132.457 82.4652 132.457 81.9188V71.9354C132.457 71.3941 132.872 71.0775 133.336 71.0775H137.072C140.063 71.0775 142.205 72.8648 142.205 76.756C142.205 80.8821 139.969 82.7818 136.578 82.7818ZM139.525 74.4427C139.165 73.2427 138.385 72.6248 136.717 72.6248H134.742V81.2396H136.717C138.385 81.2396 139.165 80.637 139.525 79.437C139.742 78.7476 139.787 77.9203 139.787 76.9296C139.787 75.939 139.742 75.127 139.525 74.4427Z" fill="#484343"/>
<path d="M88.5737 98.7347H85.3063C84.8423 98.7347 84.4277 98.413 84.4277 97.8717V87.8832C84.4277 87.3573 84.8275 87.0253 85.3063 87.0253H89.1018C92.463 87.0253 92.695 89.1292 92.695 89.8135C92.695 91.3097 91.9843 92.1625 90.3209 92.4791V92.7651C91.3525 92.8775 93.233 93.3881 93.233 95.395C93.233 98.2955 90.7355 98.7296 88.5737 98.7296M88.4651 88.5675H86.6784V91.9991H88.4355C89.8076 91.9991 90.3012 91.6774 90.3012 90.2578C90.3012 88.8382 89.7287 88.5675 88.4651 88.5675ZM88.6823 93.48H86.6784V97.1823H88.8353C90.1778 97.1823 90.8096 96.8657 90.8096 95.3184C90.8096 93.7711 90.0248 93.48 88.6823 93.48Z" fill="#484343"/>
<path d="M99.788 99.0411C96.101 99.0411 95.1484 97.2998 95.1484 93.8528V87.5156C95.1484 87.199 95.3656 87.0253 95.642 87.0253H96.9352C97.2165 87.0253 97.4287 87.199 97.4287 87.5156V93.8988C97.4287 96.0027 97.488 97.4734 99.9262 97.4734C102.226 97.4734 102.32 95.9108 102.32 94.0315V87.5156C102.32 87.199 102.537 87.0253 102.814 87.0253H103.894C104.171 87.0253 104.373 87.199 104.373 87.5156V94.3277C104.373 97.2487 102.986 99.036 99.7929 99.036" fill="#484343"/>
<path d="M110.474 98.9747C109.037 98.9747 108.021 98.8164 106.954 98.4334C106.663 98.321 106.589 98.1474 106.619 97.8002L106.698 96.9371C106.713 96.5593 107.009 96.5593 107.27 96.6512C108.228 97.0495 109.215 97.2895 110.321 97.2895C111.244 97.2895 112.344 97.0801 112.344 95.778C112.344 94.7056 111.88 94.4502 111.12 94.1183C109.18 93.2553 106.619 93.1123 106.619 90.2271C106.619 87.7402 108.593 86.9078 110.997 86.9078C112.492 86.9078 113.262 87.1478 113.711 87.2806C114.032 87.3725 114.116 87.5206 114.096 87.8577L114.052 88.7309C114.022 89.1445 113.731 89.1037 113.465 89.0169C113.065 88.8841 112.018 88.5879 111.031 88.5879C109.748 88.5879 108.855 88.8892 108.855 89.9565C108.855 90.7735 109.457 91.0595 110.044 91.3148C111.895 92.0859 114.61 92.2391 114.61 95.4511C114.61 97.984 112.576 98.99 110.479 98.99" fill="#484343"/>
<path d="M118.642 98.7347H117.364C117.082 98.7347 116.88 98.561 116.88 98.2597V87.5053C116.88 87.204 117.082 87.0304 117.364 87.0304H118.642C118.923 87.0304 119.135 87.204 119.135 87.5053V98.2597C119.135 98.561 118.923 98.7347 118.642 98.7347Z" fill="#484343"/>
<path d="M128.681 94.5064C129.022 95.1294 129.515 96.5337 129.515 96.5337H129.792C129.792 96.5337 129.486 95.1754 129.471 94.0928L129.407 87.5155C129.407 87.1989 129.624 87.0406 129.886 87.0406H130.947C131.208 87.0406 131.425 87.1989 131.425 87.5155V97.9483C131.425 98.3976 131.253 98.7296 130.715 98.7296H129.436C128.854 98.7296 128.592 98.6325 128.331 98.1372L124.629 91.2638C124.288 90.6408 123.795 89.2365 123.795 89.2365H123.518C123.518 89.2365 123.829 90.5948 123.844 91.6774L123.908 98.2547C123.908 98.5764 123.691 98.7296 123.43 98.7296H122.364C122.102 98.7296 121.885 98.5713 121.885 98.2547V87.8168C121.885 87.3674 122.058 87.0355 122.595 87.0355H123.874C124.461 87.0355 124.723 87.1274 124.979 87.6228L128.681 94.4962V94.5064Z" fill="#484343"/>
<path d="M141.203 98.7347H135.019C134.54 98.7347 134.14 98.4181 134.14 97.8716V87.8883C134.14 87.347 134.54 87.0304 135.019 87.0304H141.03C141.312 87.0304 141.529 87.204 141.529 87.5206V88.256C141.529 88.5573 141.327 88.736 141.03 88.736H136.406V91.7029H139.456C139.732 91.7029 139.949 91.8663 139.949 92.1829V92.9183C139.949 93.2196 139.732 93.3983 139.456 93.3983H136.406V97.0495H141.203C141.499 97.0495 141.697 97.2078 141.697 97.5295V98.2649C141.697 98.5661 141.484 98.7398 141.203 98.7398" fill="#484343"/>
<path d="M147.003 98.9747C145.566 98.9747 144.554 98.8164 143.478 98.4334C143.187 98.321 143.108 98.1474 143.143 97.8002L143.212 96.9371C143.232 96.5593 143.523 96.5593 143.784 96.6512C144.742 97.0495 145.734 97.2895 146.835 97.2895C147.763 97.2895 148.858 97.0801 148.858 95.778C148.858 94.7056 148.394 94.4502 147.639 94.1183C145.7 93.2553 143.138 93.1123 143.138 90.2271C143.138 87.7402 145.112 86.9078 147.511 86.9078C149.011 86.9078 149.786 87.1478 150.226 87.2806C150.551 87.3725 150.625 87.5206 150.615 87.8577L150.566 88.7309C150.536 89.1445 150.24 89.1037 149.979 89.0169C149.584 88.8841 148.533 88.5879 147.545 88.5879C146.262 88.5879 145.374 88.8892 145.374 89.9565C145.374 90.7735 145.971 91.0595 146.558 91.3148C148.409 92.0859 151.124 92.2391 151.124 95.4511C151.124 97.984 149.09 98.99 146.993 98.99" fill="#484343"/>
<path d="M156.869 98.9747C155.438 98.9747 154.421 98.8164 153.355 98.4334C153.063 98.321 152.985 98.1474 153.014 97.8002L153.093 96.9371C153.108 96.5593 153.404 96.5593 153.666 96.6512C154.618 97.0495 155.605 97.2895 156.716 97.2895C157.644 97.2895 158.735 97.0801 158.735 95.778C158.735 94.7056 158.271 94.4502 157.515 94.1183C155.576 93.2553 153.014 93.1123 153.014 90.2271C153.014 87.7402 154.988 86.9078 157.392 86.9078C158.888 86.9078 159.653 87.1478 160.107 87.2806C160.428 87.3725 160.506 87.5206 160.492 87.8577L160.447 88.7309C160.413 89.1445 160.122 89.1037 159.86 89.0169C159.46 88.8841 158.404 88.5879 157.422 88.5879C156.143 88.5879 155.25 88.8892 155.25 89.9565C155.25 90.7735 155.847 91.0595 156.439 91.3148C158.29 92.0859 161.005 92.2391 161.005 95.4511C161.005 97.984 158.967 98.99 156.869 98.99" fill="#484343"/>
<path d="M92.34 114.514C91.4319 114.785 90.6273 114.928 89.655 114.928C86.279 114.928 83.8457 113.314 83.8457 108.881C83.8457 104.449 86.279 102.851 89.655 102.851C90.6273 102.851 91.4319 102.994 92.34 103.264C92.6806 103.361 92.6806 103.514 92.6312 103.872L92.5523 104.699C92.5375 104.893 92.3795 105.067 92.1031 104.985C91.2986 104.745 90.573 104.536 89.729 104.536C86.6936 104.536 86.2741 106.195 86.2741 108.876C86.2741 111.557 86.6887 113.242 89.729 113.242C90.578 113.242 91.3035 113.018 92.1031 112.793C92.3795 112.696 92.5375 112.89 92.5523 113.064L92.6312 113.881C92.6757 114.228 92.6757 114.386 92.34 114.499" fill="#484343"/>
<path d="M101.821 114.688H95.6369C95.163 114.688 94.7583 114.366 94.7583 113.825V103.836C94.7583 103.295 95.163 102.978 95.6369 102.978H101.653C101.93 102.978 102.147 103.152 102.147 103.474V104.209C102.147 104.51 101.945 104.689 101.653 104.689H97.0287V107.656H100.079C100.355 107.656 100.573 107.819 100.573 108.136V108.871C100.573 109.173 100.355 109.351 100.079 109.351H97.0287V113.002H101.826C102.117 113.002 102.315 113.161 102.315 113.482V114.218C102.315 114.519 102.103 114.693 101.826 114.693" fill="#484343"/>
<path d="M111.09 110.464C111.426 111.087 111.925 112.487 111.925 112.487H112.201C112.201 112.487 111.895 111.133 111.875 110.046L111.811 103.474C111.811 103.152 112.028 102.994 112.295 102.994H113.356C113.618 102.994 113.835 103.152 113.835 103.474V113.906C113.835 114.361 113.662 114.688 113.124 114.688H111.846C111.258 114.688 110.997 114.591 110.735 114.1L107.033 107.222C106.693 106.599 106.199 105.194 106.199 105.194H105.923C105.923 105.194 106.234 106.553 106.244 107.635L106.303 114.213C106.303 114.529 106.091 114.688 105.829 114.688H104.768C104.501 114.688 104.284 114.529 104.284 114.213V103.775C104.284 103.325 104.452 102.994 104.995 102.994H106.268C106.856 102.994 107.117 103.085 107.379 103.586L111.081 110.464H111.09Z" fill="#484343"/>
<path d="M124.362 104.689H121.095V114.213C121.095 114.514 120.893 114.688 120.616 114.688H119.303C119.027 114.688 118.825 114.514 118.825 114.213V104.689H115.577C115.301 104.689 115.093 104.495 115.093 104.189V103.458C115.093 103.157 115.296 102.978 115.577 102.978H124.348C124.624 102.978 124.841 103.152 124.841 103.458V104.189C124.841 104.495 124.639 104.689 124.362 104.689Z" fill="#484343"/>
<path d="M133.168 114.688H126.984C126.505 114.688 126.105 114.366 126.105 113.825V103.836C126.105 103.295 126.505 102.978 126.984 102.978H133C133.277 102.978 133.489 103.152 133.489 103.474V104.209C133.489 104.51 133.286 104.689 133 104.689H128.375V107.656H131.426C131.702 107.656 131.919 107.819 131.919 108.136V108.871C131.919 109.173 131.702 109.351 131.426 109.351H128.375V113.002H133.168C133.464 113.002 133.662 113.161 133.662 113.482V114.218C133.662 114.519 133.444 114.693 133.168 114.693" fill="#484343"/>
<path d="M144.086 114.739C143.859 114.831 143.75 114.897 143.148 114.897C142.388 114.897 141.909 114.534 141.485 113.845L138.538 109.188V108.631L139.417 108.677C141.021 108.692 141.603 108.105 141.603 106.573C141.603 105.041 141.031 104.531 139.505 104.531H137.916V114.218C137.916 114.519 137.714 114.693 137.442 114.693H136.129C135.853 114.693 135.631 114.519 135.631 114.218V103.841C135.631 103.3 136.036 102.983 136.514 102.983H139.92C142.699 102.983 144.036 104 144.036 106.185C144.036 108.498 142.556 109.208 141.04 109.443L143.405 112.747C143.587 113.018 143.646 113.033 143.928 113.033C144.022 113.033 144.096 113.002 144.204 113.002C144.332 113.013 144.441 113.099 144.456 113.268L144.55 114.243C144.579 114.494 144.318 114.657 144.086 114.739Z" fill="#484343"/>
<path d="M77.8238 71.0724H76.8317C76.5553 71.0724 76.3579 71.2511 76.3579 71.5473V114.213C76.3579 114.514 76.5603 114.688 76.8317 114.688H77.8238C78.1002 114.688 78.3124 114.514 78.3124 114.213V71.5473C78.3124 71.2511 78.1002 71.0724 77.8238 71.0724Z" fill="#484343"/>
<path d="M35.53 76.6384C34.8242 75.9081 34.8242 74.7234 35.53 73.9881C36.2358 73.2629 37.3809 73.2629 38.0867 73.9881L41.2406 77.2512L38.6839 79.8964L35.53 76.6384ZM61.4474 98.1626L58.8907 100.808L62.0446 104.071C62.4049 104.433 62.8639 104.617 63.3279 104.617C63.7918 104.617 64.2558 104.433 64.6111 104.071C65.3169 103.341 65.3169 102.156 64.6111 101.426L61.4523 98.1626H61.4474ZM42.519 75.9337L45.0757 73.2885L42.6868 70.822C41.981 70.0866 40.8359 70.0866 40.1301 70.822C39.4292 71.5522 39.4292 72.737 40.1301 73.4672L42.519 75.9337ZM65.2873 94.1897L62.7306 96.8349L65.1146 99.3064C65.465 99.669 65.9339 99.8529 66.3929 99.8529C66.8519 99.8529 67.3159 99.669 67.6713 99.3064C68.3771 98.5762 68.3771 97.3915 67.6713 96.6612L65.2873 94.1897ZM27.169 91.8049L29.7306 89.1597L27.3417 86.6932C26.6359 85.963 25.4908 85.963 24.785 86.6932C24.0792 87.4235 24.0792 88.6082 24.785 89.3384L27.169 91.8049ZM49.9423 110.071L47.3856 112.716L49.7695 115.188C50.1298 115.556 50.5888 115.739 51.0528 115.739C51.5167 115.739 51.9807 115.556 52.3311 115.188C53.0419 114.453 53.0419 113.273 52.3311 112.538L49.9472 110.071H49.9423ZM34.844 83.8693L37.4007 81.2241L33.995 77.6903C33.2892 76.9601 32.1441 76.9601 31.4383 77.6903C30.7325 78.4257 30.7325 79.6053 31.4383 80.3355L34.8489 83.8693H34.844ZM57.6074 102.13L55.0507 104.776L58.4662 108.304C58.8166 108.672 59.2806 108.856 59.7445 108.856C60.2085 108.856 60.6675 108.672 61.0229 108.304C61.7287 107.569 61.7287 106.389 61.0229 105.659L57.6123 102.135L57.6074 102.13ZM31.0089 87.8422L33.5656 85.1868L30.4068 81.9288C29.701 81.1985 28.5559 81.1985 27.8501 81.9288C27.1443 82.659 27.1443 83.8437 27.8501 84.574L31.0089 87.8422ZM53.7724 106.098L51.2157 108.748L54.3696 112.012C54.72 112.374 55.1889 112.558 55.6479 112.558C56.1069 112.558 56.5758 112.374 56.9312 112.012C57.637 111.276 57.637 110.092 56.9312 109.361L53.7773 106.098H53.7724ZM32.7167 108.856C33.1806 108.856 33.6397 108.672 33.995 108.304L61.0229 80.3406C61.7287 79.6104 61.7287 78.4257 61.0229 77.6954C60.3171 76.9652 59.172 76.9652 58.4662 77.6954L31.4334 105.659C30.7276 106.394 30.7276 107.574 31.4334 108.304C31.7838 108.672 32.2478 108.856 32.7167 108.856ZM41.1567 116C41.6207 116 42.0846 115.816 42.4351 115.448L67.9279 89.0729C68.6337 88.3426 68.6337 87.1528 67.9279 86.4277C67.2221 85.6923 66.077 85.6923 65.3712 86.4277L39.8734 112.798C39.1676 113.528 39.1676 114.713 39.8734 115.443C40.2288 115.806 40.6928 115.995 41.1518 115.995M25.8067 100.118C26.2707 100.118 26.7346 99.9346 27.0851 99.572L52.5828 73.1965C53.2887 72.4663 53.2887 71.2816 52.5828 70.5513C51.8721 69.8211 50.727 69.8211 50.0212 70.5513L24.5284 96.9217C23.8226 97.6519 23.8226 98.8366 24.5284 99.5669C24.8837 99.9295 25.3428 100.113 25.8067 100.113M29.1334 104.612C29.5973 104.612 30.0613 104.428 30.4117 104.066L56.9263 76.6384C57.6321 75.9081 57.6321 74.7234 56.9263 73.9881C56.2205 73.2629 55.0754 73.2629 54.3696 73.9881L27.8501 101.426C27.1443 102.156 27.1443 103.341 27.8501 104.071C28.2055 104.433 28.6645 104.617 29.1284 104.617M36.8034 112.558C37.2674 112.558 37.7314 112.374 38.0818 112.012L64.6013 84.574C65.3071 83.8386 65.3071 82.659 64.6013 81.9288C63.8955 81.1985 62.7454 81.1985 62.0396 81.9288L35.5251 109.361C34.8193 110.092 34.8193 111.276 35.5251 112.012C35.8755 112.374 36.3395 112.558 36.8034 112.558Z" fill="#A06D48"/>
</g>
<defs>
<clipPath id="clip0_906_47">
<rect width="137" height="46" fill="white" transform="translate(24 70)"/>
</clipPath>
</defs>
</svg>
