<svg width="255" height="255" viewBox="0 0 255 255" fill="none" xmlns="http://www.w3.org/2000/svg">
<g clip-path="url(#clip0_208_82)">
<path d="M202.887 138.388L222 117.735V111H129.361V125.816H149.148L129.361 146.918V153.653H222V138.388H202.887ZM173.882 150.959V138.388H154.769L177.479 113.694V125.592H197.266L173.882 150.959Z" fill="#FF1E23"/>
<path d="M107.775 119.082L98.3311 109.204C86.8637 109.204 75.1714 117.735 75.1714 132.327C75.1714 146.918 87.988 155 98.3311 155L107.775 145.571V153.878H124.639V111.225H107.775V119.082ZM100.355 141.082C95.6329 141.082 91.8104 137.265 91.8104 132.551C91.8104 127.837 95.6329 124.02 100.355 124.02C105.077 124.02 108.899 127.837 108.899 132.551C108.899 137.265 105.077 141.082 100.355 141.082Z" fill="#FF1E23"/>
<path d="M54.2604 100H39.8698V111H32V125.816H39.8698V139.959C39.8698 146.918 43.2426 153.653 53.3609 153.653H72.0237V138.388H54.2604V125.816H72.0237V111H54.2604V100Z" fill="#FF1E23"/>
</g>
<defs>
<clipPath id="clip0_208_82">
<rect width="190" height="55" fill="white" transform="translate(32 100)"/>
</clipPath>
</defs>
</svg>
