<svg width="186" height="186" viewBox="0 0 186 186" fill="none" xmlns="http://www.w3.org/2000/svg">
<path fill-rule="evenodd" clip-rule="evenodd" d="M63.6831 80.8759C63.6831 86.0972 63.6723 86.0607 65.2158 86.0607C66.6804 86.0607 66.6828 86.0527 66.6828 80.8436C66.6828 76.4369 66.6725 76.3117 66.3078 76.3117C65.9441 76.3117 65.9329 76.4369 65.9329 80.4485C65.9329 84.7178 65.8415 85.3107 65.1829 85.3107C64.5244 85.3107 64.433 84.7178 64.433 80.4485C64.433 76.4369 64.4218 76.3117 64.0581 76.3117C63.6934 76.3117 63.6831 76.4369 63.6831 80.8759ZM71.7447 76.7804C71.7447 77.1554 71.8385 77.2491 72.2134 77.2491C72.5884 77.2491 72.6821 77.1554 72.6821 76.7804C72.6821 76.4054 72.5884 76.3117 72.2134 76.3117C71.8385 76.3117 71.7447 76.4054 71.7447 76.7804ZM87.3056 76.7804C87.3056 77.1554 87.3993 77.2491 87.7743 77.2491C88.1492 77.2491 88.243 77.1554 88.243 76.7804C88.243 76.4054 88.1492 76.3117 87.7743 76.3117C87.3993 76.3117 87.3056 76.4054 87.3056 76.7804ZM89.6959 77.566C89.4775 77.6227 89.3679 77.8355 89.3679 78.2001C89.3679 78.5019 89.2835 78.749 89.1804 78.749C89.0773 78.749 88.9929 78.8755 88.9929 79.0302C88.9929 79.1848 89.0773 79.3114 89.1804 79.3114C89.2975 79.3114 89.3679 80.463 89.3679 82.3912C89.3679 85.7335 89.4611 86.0607 90.4126 86.0607C90.7425 86.0607 90.8677 85.9575 90.8677 85.6857C90.8677 85.4776 90.7425 85.3107 90.5865 85.3107C90.3484 85.3107 90.3052 84.8524 90.3052 82.3111C90.3052 79.7698 90.3484 79.3114 90.5865 79.3114C90.7411 79.3114 90.8677 79.1848 90.8677 79.0302C90.8677 78.8755 90.7411 78.749 90.5865 78.749C90.3901 78.749 90.3052 78.5512 90.3052 78.0928C90.3052 77.7319 90.242 77.4464 90.1646 77.4581C90.0873 77.4703 89.8764 77.5186 89.6959 77.566ZM95.6953 77.6391C95.5148 77.7441 95.3672 78.037 95.3672 78.2896C95.3672 78.5422 95.2828 78.749 95.1797 78.749C95.0766 78.749 94.9922 78.8755 94.9922 79.0302C94.9922 79.1848 95.0766 79.3114 95.1797 79.3114C95.2969 79.3114 95.3672 80.463 95.3672 82.3912C95.3672 85.7335 95.4605 86.0607 96.4119 86.0607C96.7419 86.0607 96.867 85.9575 96.867 85.6857C96.867 85.4776 96.7419 85.3107 96.5858 85.3107C96.3477 85.3107 96.3046 84.8524 96.3046 82.3111C96.3046 79.7698 96.3477 79.3114 96.5858 79.3114C96.7405 79.3114 96.867 79.1848 96.867 79.0302C96.867 78.8755 96.7405 78.749 96.5858 78.749C96.3894 78.749 96.3046 78.5512 96.3046 78.0928C96.3046 77.3967 96.2198 77.3335 95.6953 77.6391ZM69.1617 78.8535C68.9283 79.017 68.7451 79.0583 68.7451 78.9472C68.7451 78.838 68.5763 78.749 68.3701 78.749C68.0078 78.749 67.9951 78.8741 67.9951 82.4048C67.9951 85.9355 68.0078 86.0607 68.3701 86.0607C68.7301 86.0607 68.7451 85.9355 68.7451 82.9808C68.7451 80.3946 68.7938 79.8518 69.0478 79.5978C69.6815 78.9641 69.7748 79.3404 69.8273 82.7484L69.8784 86.0607H70.3546H70.8303L70.7722 82.5768C70.7042 78.5376 70.4507 77.9508 69.1617 78.8535ZM77.6419 79.0217C77.0565 79.6071 76.9229 84.858 77.4737 85.644C78.2803 86.7961 79.9939 85.9679 79.9939 84.4254C79.9939 83.7486 79.9353 83.6234 79.6189 83.6234C79.3194 83.6234 79.2439 83.7486 79.2439 84.244C79.2439 85.0178 78.846 85.6013 78.4275 85.441C78.179 85.3454 78.1191 85.0478 78.1191 83.9107V82.4985H79.0565H79.9939L79.9915 81.1393C79.9868 78.695 78.9252 77.7384 77.6419 79.0217ZM82.1967 78.8328C81.9132 78.9805 81.6812 79.0222 81.6812 78.9252C81.6812 78.8282 81.5124 78.749 81.3062 78.749C80.9439 78.749 80.9313 78.8741 80.9313 82.4048V86.0607H81.3953H81.8597L81.9108 82.9227L81.9624 79.7848L82.478 79.5378C82.7793 79.3934 82.9935 79.1394 82.9935 78.9261C82.9935 78.4916 82.8773 78.478 82.1967 78.8328ZM84.2037 79.0217C83.429 79.796 83.556 80.8886 84.597 82.409C85.3534 83.5142 85.4434 83.7542 85.3937 84.5299C85.3159 85.7316 84.8135 85.7537 84.6809 84.5608C84.537 83.2667 83.7435 83.1871 83.7435 84.4661C83.7435 85.7499 83.975 86.0607 84.9311 86.0607C86.506 86.0607 86.7656 84.0049 85.4308 82.102C84.5426 80.8356 84.3378 79.3114 85.0558 79.3114C85.3684 79.3114 85.4308 79.4365 85.4308 80.0613C85.4308 80.6861 85.4931 80.8112 85.8057 80.8112C86.1244 80.8112 86.1807 80.6861 86.1807 79.9784C86.1807 78.6383 85.1064 78.1185 84.2037 79.0217ZM92.1116 78.95C91.4742 79.4515 91.3908 80.6237 91.9926 80.6237C92.2555 80.6237 92.3685 80.4977 92.3703 80.2019C92.3802 78.7719 93.379 79.0325 93.4549 80.485L93.5112 81.5611H92.96C91.701 81.5611 91.0683 83.2831 91.6021 85.2568L91.8159 86.0466L93.0289 86.026L94.2423 86.0054V82.5754C94.2423 78.5005 93.7492 77.662 92.1116 78.95ZM98.3669 78.6847C97.6966 78.9406 97.617 79.3381 97.617 82.4273C97.617 85.9168 97.6723 86.0607 99.0137 86.0607C100.014 86.0607 100.264 85.7813 100.304 84.6161C100.332 83.8156 100.289 83.7106 99.9136 83.6572C99.5288 83.6028 99.4918 83.6726 99.4918 84.4601C99.4918 85.3914 99.1538 85.7307 98.6458 85.3089C98.4484 85.1448 98.3669 84.7005 98.3669 83.7879V82.4985H99.4215H100.476L100.392 80.8979C100.29 78.9556 99.6085 78.2104 98.3669 78.6847ZM102.176 78.7504C101.302 79.1023 101.016 80.6237 101.824 80.6237C102.202 80.6237 102.29 80.5192 102.339 80.0144C102.452 78.8427 103.136 79.1942 103.203 80.4578L103.259 81.5105L102.506 81.631C101.523 81.788 101.367 82.1212 101.367 84.057C101.367 85.9496 101.445 86.0433 103.015 86.0358L104.179 86.0302V82.7559C104.179 78.7855 103.828 78.0843 102.176 78.7504ZM71.7447 82.4048V86.0607H72.2134H72.6821V82.4048V78.749H72.2134H71.7447V82.4048ZM73.5127 79.1567C73.5647 79.3967 73.7376 80.7737 73.897 82.2173C74.3437 86.265 74.2851 86.0607 74.9989 86.0607H75.612L75.9382 83.2016C76.1177 81.6291 76.3132 79.984 76.3727 79.5457C76.4692 78.8375 76.4392 78.749 76.1055 78.749C75.6795 78.749 75.6574 78.8446 75.2825 82.3532C75.1531 83.562 75.0097 84.514 74.9638 84.468C74.9178 84.4216 74.744 83.1374 74.5776 81.6136C74.2893 78.9749 74.2542 78.8399 73.8464 78.7818C73.485 78.7307 73.4325 78.7893 73.5127 79.1567ZM87.3056 82.4048V86.0607H87.7743H88.243V82.4048V78.749H87.7743H87.3056V82.4048ZM79.0499 79.6742C79.5106 80.5352 79.295 81.7486 78.6815 81.7486C78.1303 81.7486 77.7807 79.8996 78.2442 79.4365C78.48 79.2008 78.8559 79.3114 79.0499 79.6742ZM99.4538 80.5769L99.5096 81.7486H98.9382C98.3791 81.7486 98.3669 81.7294 98.3669 80.8267C98.3669 78.8094 99.3587 78.5816 99.4538 80.5769ZM93.453 83.6506C93.3649 86.1211 92.3764 86.3203 92.3703 83.8686C92.368 82.8791 92.4294 82.664 92.7842 82.4156C93.4558 81.945 93.5102 82.0453 93.453 83.6506ZM103.241 83.7233C103.241 85.4045 103.017 85.8249 102.395 85.3089C101.913 84.9081 102.014 82.7788 102.533 82.4156C103.196 81.9511 103.241 82.0345 103.241 83.7233ZM63.6831 92.8099C63.6831 97.5593 63.693 97.6844 64.0581 97.6844C64.411 97.6844 64.433 97.5593 64.433 95.5495V93.415L65.2762 93.2885C66.38 93.123 66.4953 92.8662 66.4953 90.5724C66.4953 88.2237 66.3003 87.9355 64.7142 87.9355H63.6831V92.8099ZM70.9948 92.8099V97.6844H71.4635H71.9322V92.8099V87.9355H71.4635H70.9948V92.8099ZM73.0571 88.4042C73.0571 88.7791 73.1508 88.8729 73.5258 88.8729C73.9008 88.8729 73.9945 88.7791 73.9945 88.4042C73.9945 88.0292 73.9008 87.9355 73.5258 87.9355C73.1508 87.9355 73.0571 88.0292 73.0571 88.4042ZM80.9313 92.8099V97.6844H81.4H81.8687V94.5202C81.8687 91.1582 82.02 90.548 82.7123 91.1226C82.942 91.3134 82.9935 91.9363 82.9935 94.5202C82.9935 97.5593 83.0085 97.6844 83.3685 97.6844C83.9576 97.6844 83.9487 90.9919 83.3591 90.458C83.0362 90.166 82.8862 90.1435 82.4217 90.3188L81.8687 90.5278V89.2314C81.8687 87.9739 81.8546 87.9355 81.4 87.9355H80.9313V92.8099ZM88.6179 88.4042C88.6179 88.7791 88.7117 88.8729 89.0866 88.8729C89.4616 88.8729 89.5553 88.7791 89.5553 88.4042C89.5553 88.0292 89.4616 87.9355 89.0866 87.9355C88.7117 87.9355 88.6179 88.0292 88.6179 88.4042ZM65.5176 90.5925C65.5673 92.2733 65.5434 92.4144 65.1914 92.5259C64.5329 92.7349 64.433 92.4739 64.433 90.5367V88.6605L64.9486 88.7196L65.4642 88.7791L65.5176 90.5925ZM75.3537 89.1845C75.2248 89.2366 75.1194 89.5253 75.1194 89.8257C75.1194 90.1266 75.035 90.3727 74.9319 90.3727C74.8288 90.3727 74.7444 90.4992 74.7444 90.6539C74.7444 90.8086 74.8288 90.9351 74.9319 90.9351C75.0495 90.9351 75.1194 92.1102 75.1194 94.0848C75.1194 97.4833 75.1737 97.6844 76.0943 97.6844C76.7167 97.6844 76.8067 97.2354 76.2443 96.9345C75.8946 96.7475 75.8693 96.5417 75.8693 93.9104C75.8693 91.2454 75.8904 91.0818 76.2443 90.9895C76.4505 90.9356 76.6192 90.7847 76.6192 90.6539C76.6192 90.5232 76.4505 90.3722 76.2443 90.3183C75.971 90.2471 75.8693 90.0624 75.8693 89.6401C75.8693 89.0636 75.8018 89.0036 75.3537 89.1845ZM67.9951 90.3085C67.3249 90.5644 67.2452 90.9619 67.2452 94.0511C67.2452 97.5405 67.3005 97.6844 68.642 97.6844C69.907 97.6844 69.9637 97.5274 69.9637 94.0065C69.9637 91.5262 69.9103 90.8948 69.6801 90.6647C69.36 90.345 68.4203 90.1458 67.9951 90.3085ZM77.6419 90.6455C77.1015 91.1854 76.9342 96.1508 77.423 97.122C77.7657 97.8021 79.2566 97.9038 79.6953 97.2771C80.1513 96.6266 80.0993 95.2472 79.6189 95.2472C79.3086 95.2472 79.2439 95.3723 79.2439 95.9741C79.2439 96.7545 78.8704 97.2345 78.4026 97.0549C78.1842 96.9711 78.1191 96.6219 78.1191 95.5345V94.1223H79.0565H79.9939L79.991 92.5756C79.9878 90.9122 79.9306 90.7313 79.303 90.4008C78.6674 90.0662 78.1439 90.1435 77.6419 90.6455ZM86.1118 90.3169C86.0391 90.3891 85.6876 90.4289 85.3305 90.4046L84.6809 90.361V94.0225V97.6844H85.1496H85.6183V94.5038C85.6183 91.603 85.6487 91.3068 85.9646 91.1381C86.6414 90.7758 86.7431 91.2206 86.7431 94.5348C86.7431 97.5593 86.7581 97.6844 87.1181 97.6844C87.673 97.6844 87.703 90.9956 87.1504 90.4955C86.7919 90.1712 86.3358 90.0924 86.1118 90.3169ZM90.953 90.6455C90.3676 91.2309 90.234 96.4817 90.7847 97.2677C91.5384 98.3439 93.1174 97.5822 93.1174 96.1429C93.1174 95.0063 92.2269 95.0873 92.144 96.2314C92.1036 96.7892 92.0019 97.0282 91.8051 97.0282C91.5689 97.0282 91.5154 96.5417 91.4723 93.9817C91.4226 91.0308 91.4329 90.9351 91.8004 90.9351C92.1252 90.9351 92.18 91.0565 92.18 91.7788C92.18 92.5648 92.2138 92.6225 92.6726 92.6225C93.1526 92.6225 93.1629 92.5981 93.072 91.6537C92.9304 90.1815 91.9049 89.6936 90.953 90.6455ZM94.8488 90.3722C94.0295 90.7153 93.7539 92.2475 94.5118 92.2475C94.8901 92.2475 94.9787 92.143 95.0274 91.6382C95.1418 90.4505 95.8251 90.8208 95.8922 92.1069C95.9461 93.1371 95.9282 93.1849 95.4956 93.1849C94.4546 93.1849 94.0548 93.8162 94.0548 95.4604C94.0548 97.5452 94.1505 97.6755 95.6625 97.6497L96.8895 97.6286L96.8314 94.1973C96.7972 92.1706 96.6941 90.6867 96.5802 90.5728C96.2891 90.2827 95.3292 90.1716 94.8488 90.3722ZM73.0571 94.0286C73.0571 97.5593 73.0698 97.6844 73.4321 97.6844C73.7944 97.6844 73.807 97.5593 73.807 94.0286C73.807 90.4978 73.7944 90.3727 73.4321 90.3727C73.0698 90.3727 73.0571 90.4978 73.0571 94.0286ZM88.6179 94.0286C88.6179 97.5593 88.6306 97.6844 88.9929 97.6844C89.3552 97.6844 89.3679 97.5593 89.3679 94.0286C89.3679 90.4978 89.3552 90.3727 88.9929 90.3727C88.6306 90.3727 88.6179 90.4978 88.6179 94.0286ZM69.0778 93.9859C69.1219 96.5056 69.0867 96.9589 68.8411 97.0531C68.1418 97.3216 67.9951 96.8117 67.9951 94.1148C67.9951 91.206 68.0589 90.8906 68.6284 90.9722C69.0122 91.027 69.0282 91.1339 69.0778 93.9859ZM79.13 91.2318C79.5017 92.2002 79.2561 93.3724 78.6815 93.3724C78.1303 93.3724 77.7807 91.5234 78.2442 91.0603C78.4757 90.8283 79.0157 90.9328 79.13 91.2318ZM95.9296 95.347C95.9296 96.658 95.8739 96.9678 95.6212 97.0648C94.7771 97.3887 94.4097 94.6079 95.2214 94.0393C95.8842 93.5749 95.9296 93.6583 95.9296 95.347ZM63.6831 99.9342C63.6831 100.209 63.8083 100.309 64.1518 100.309H64.6205V104.809V109.308H65.0892H65.5579V104.809V100.309H66.0266C66.3702 100.309 66.4953 100.209 66.4953 99.9342C66.4953 99.5925 66.3702 99.5592 65.0892 99.5592C63.8083 99.5592 63.6831 99.5925 63.6831 99.9342ZM67.4327 100.028C67.4327 100.403 67.5264 100.497 67.9014 100.497C68.2764 100.497 68.3701 100.403 68.3701 100.028C68.3701 99.653 68.2764 99.5592 67.9014 99.5592C67.5264 99.5592 67.4327 99.653 67.4327 100.028ZM74.9319 100.028C74.9319 100.403 75.0256 100.497 75.4006 100.497C75.7756 100.497 75.8693 100.403 75.8693 100.028C75.8693 99.653 75.7756 99.5592 75.4006 99.5592C75.0256 99.5592 74.9319 99.653 74.9319 100.028ZM70.4793 102.094C70.2468 102.258 70.0574 102.304 70.0574 102.195C70.0574 102.086 69.8887 101.996 69.6825 101.996C69.3202 101.996 69.3075 102.122 69.3075 105.652V109.308H69.772H70.2365L70.2876 105.98C70.3363 102.795 70.3546 102.653 70.7136 102.653C71.0726 102.653 71.0909 102.795 71.1396 105.98C71.1884 109.153 71.2081 109.308 71.5615 109.308C71.9163 109.308 71.9322 109.171 71.9322 106.144C71.9322 103.465 71.9786 102.941 72.2336 102.73C72.8795 102.194 73.0571 102.953 73.0571 106.25C73.0571 109.183 73.0726 109.308 73.4321 109.308C74.0268 109.308 74.0109 102.763 73.4147 102.167C73.1401 101.892 72.9015 101.813 72.6179 101.904C72.115 102.064 71.7583 102.067 71.276 101.914C71.0581 101.845 70.7244 101.92 70.4793 102.094ZM77.267 102.269C76.4945 103.042 76.6202 104.118 77.6602 105.637C78.4204 106.747 78.5076 106.981 78.457 107.768C78.3806 108.956 77.8646 109.022 77.7802 107.855C77.7291 107.151 77.6691 107.058 77.2646 107.058C76.4495 107.058 76.6797 108.979 77.5285 109.264C79.4727 109.917 80.0712 107.564 78.5203 105.365C77.6072 104.07 77.3912 102.559 78.1191 102.559C78.4317 102.559 78.494 102.684 78.494 103.309C78.494 103.934 78.5564 104.059 78.869 104.059C79.1877 104.059 79.2439 103.934 79.2439 103.226C79.2439 101.886 78.1697 101.366 77.267 102.269ZM81.1187 101.932C80.449 102.188 80.3688 102.586 80.3688 105.659C80.3688 109.094 80.4658 109.346 81.7848 109.346C83.0113 109.346 83.0873 109.131 83.0873 105.652C83.0873 103.152 83.0338 102.519 82.8037 102.288C82.4836 101.969 81.5438 101.77 81.1187 101.932ZM84.9124 101.996C84.0931 102.339 83.8175 103.871 84.5754 103.871C84.9536 103.871 85.0422 103.767 85.091 103.262C85.2053 102.074 85.8887 102.445 85.9557 103.731C86.0096 104.761 85.9918 104.809 85.5592 104.809C84.5079 104.809 84.1184 105.436 84.1184 107.13C84.1184 108.78 84.3326 109.333 84.9658 109.314C85.1697 109.308 85.7007 109.3 86.1455 109.296L86.9536 109.289L86.8955 105.839C86.8608 103.8 86.7577 102.31 86.6438 102.197C86.3527 101.906 85.3928 101.795 84.9124 101.996ZM89.1335 102.08C88.8499 102.228 88.6179 102.27 88.6179 102.173C88.6179 102.076 88.4492 101.996 88.243 101.996C87.8807 101.996 87.868 102.122 87.868 105.652V109.308H88.3367H88.8054V106.125V102.941L89.2741 102.823C89.6106 102.739 89.7428 102.579 89.7428 102.258C89.7428 101.73 89.7831 101.741 89.1335 102.08ZM91.4892 101.998C90.6155 102.35 90.3296 103.871 91.1372 103.871C91.5154 103.871 91.604 103.767 91.6528 103.262C91.7671 102.074 92.4505 102.445 92.5175 103.731C92.5691 104.721 92.5414 104.809 92.1772 104.809C91.7277 104.809 91.0299 105.138 90.8236 105.446C90.5757 105.818 90.6582 108.869 90.9221 109.088C91.0552 109.198 91.6879 109.287 92.3282 109.283L93.4924 109.278V106.003C93.4924 102.033 93.1418 101.332 91.4892 101.998ZM67.4327 105.652C67.4327 109.183 67.4454 109.308 67.8077 109.308C68.17 109.308 68.1826 109.183 68.1826 105.652C68.1826 102.122 68.17 101.996 67.8077 101.996C67.4454 101.996 67.4327 102.122 67.4327 105.652ZM74.9319 105.652C74.9319 109.183 74.9446 109.308 75.3069 109.308C75.6692 109.308 75.6818 109.183 75.6818 105.652C75.6818 102.122 75.6692 101.996 75.3069 101.996C74.9446 101.996 74.9319 102.122 74.9319 105.652ZM82.2014 105.61C82.2455 108.129 82.2103 108.583 81.9647 108.677C81.2654 108.945 81.1187 108.435 81.1187 105.739C81.1187 102.83 81.1825 102.514 81.7519 102.596C82.1358 102.651 82.1517 102.758 82.2014 105.61ZM85.9932 106.971C85.9932 108.282 85.9374 108.592 85.6848 108.689C84.8768 108.998 84.4999 106.489 85.2433 105.746C85.8817 105.108 85.9932 105.29 85.9932 106.971ZM92.555 106.971C92.555 108.652 92.331 109.072 91.709 108.556C91.2262 108.156 91.328 106.026 91.8468 105.663C92.5095 105.199 92.555 105.282 92.555 106.971ZM77.6382 110.199C77.5763 110.482 77.4929 110.82 77.453 110.949C77.2899 111.478 77.911 111.137 78.1008 110.592C78.3712 109.816 78.3609 109.683 78.0291 109.683C77.8763 109.683 77.7005 109.915 77.6382 110.199Z" fill="#EEEEF5"/>
<path fill-rule="evenodd" clip-rule="evenodd" d="M23 91.2759C23 107.427 23.0098 107.599 23.9833 108.513C25.4133 109.857 31.6588 109.966 33.0949 108.673C34.209 107.67 34.1504 108.563 34.2071 91.7319L34.2591 76.3117H32.3791H30.4992V90.9351V105.559H28.7411H26.983L26.8433 90.9351L26.7037 76.3117H24.8518H23V91.2759ZM37.8109 96.5595V116.807H39.6857H41.5605V113.151V109.496H43.9579C49.2987 109.496 49.0925 110.204 49.0199 92.12C48.9505 74.7931 49.6067 76.3117 42.1872 76.3117H37.8109V96.5595ZM45.1226 92.8099V105.559H43.3416H41.5605V92.8099V80.0613H43.3416H45.1226V92.8099Z" fill="#838384"/>
<path fill-rule="evenodd" clip-rule="evenodd" d="M52.4346 72.7496V76.4992H56.0904H59.7463V78.1865V79.8738H57.8715H55.9967V94.591V109.308H54.2156H52.4346V113.154V117L107.694 116.878C138.087 116.811 162.978 116.736 163.008 116.712C163.037 116.688 163.003 105.943 162.931 92.8343L162.799 69H107.617H52.4346V72.7496ZM64.6208 80.7175L64.7145 85.217H65.1832H65.6519L65.7456 80.7175L65.8394 76.218H66.3081H66.7768L66.8269 80.7695L66.8771 85.3211L66.4135 85.7846C65.7709 86.4277 64.5973 86.4291 63.9561 85.7879L63.4959 85.3276V80.8511C63.4959 76.2025 63.5137 76.0731 64.1446 76.1631C64.5144 76.2161 64.5303 76.3661 64.6208 80.7175ZM72.6824 76.7804C72.6824 77.3555 72.6243 77.4366 72.2137 77.4366C71.8031 77.4366 71.745 77.3555 71.745 76.7804C71.745 76.2053 71.8031 76.1242 72.2137 76.1242C72.6243 76.1242 72.6824 76.2053 72.6824 76.7804ZM88.2432 76.7804C88.2432 77.3555 88.1851 77.4366 87.7745 77.4366C87.3639 77.4366 87.3058 77.3555 87.3058 76.7804C87.3058 76.2053 87.3639 76.1242 87.7745 76.1242C88.1851 76.1242 88.2432 76.2053 88.2432 76.7804ZM90.598 78.5615C90.7611 78.5615 90.8679 78.7471 90.8679 79.0302C90.8679 79.3217 90.7615 79.4989 90.5867 79.4989C90.3491 79.4989 90.3055 79.9371 90.3055 82.3172C90.3055 84.6489 90.3538 85.1537 90.5867 85.2428C91.1506 85.4593 90.9354 86.3058 90.3533 86.1596C89.3864 85.9168 89.3681 85.8516 89.3681 82.5895C89.3681 80.051 89.3208 79.5209 89.0869 79.4309C88.9322 79.3718 88.8057 79.1914 88.8057 79.0302C88.8057 78.8689 88.9322 78.6885 89.0869 78.6294C89.2416 78.5699 89.3681 78.3168 89.3681 78.0665C89.3681 77.2632 90.1972 77.1371 90.2699 77.9292C90.3064 78.3276 90.4278 78.5615 90.598 78.5615ZM96.5973 78.5615C96.7604 78.5615 96.8673 78.7471 96.8673 79.0302C96.8673 79.3217 96.7609 79.4989 96.5861 79.4989C96.3484 79.4989 96.3049 79.9371 96.3049 82.3172C96.3049 84.6489 96.3531 85.1537 96.5861 85.2428C97.1499 85.4593 96.9348 86.3058 96.3527 86.1596C95.3848 85.9168 95.3675 85.853 95.3675 82.5693C95.3675 80.6472 95.2972 79.4989 95.18 79.4989C95.0769 79.4989 94.9925 79.288 94.9925 79.0302C94.9925 78.7724 95.0769 78.5615 95.18 78.5615C95.2831 78.5615 95.3675 78.3477 95.3675 78.0867C95.3675 77.2665 96.1952 77.1216 96.2692 77.9292C96.3058 78.3276 96.4272 78.5615 96.5973 78.5615ZM68.7453 78.7864C68.7453 78.9613 68.7955 78.9613 68.9703 78.7864C69.2918 78.4649 70.0638 78.509 70.465 78.8718C70.7738 79.1516 70.8076 79.5303 70.8076 82.7151V86.2481H70.3389H69.8702L69.8674 83.1079C69.8646 79.916 69.7647 79.3555 69.2375 79.5579C68.9867 79.654 68.9337 80.1649 68.8906 82.9129L68.8391 86.1544H68.3704H67.9017L67.851 82.3579L67.7999 78.5615H68.2729C68.5325 78.5615 68.7453 78.6627 68.7453 78.7864ZM72.6824 82.4048V86.2481H72.2137H71.745V82.4048V78.5615H72.2137H72.6824V82.4048ZM74.3711 78.7958C74.373 79.041 74.9092 83.6478 74.9551 83.8109C74.9696 83.8625 75.1182 82.7245 75.2851 81.2823C75.5476 79.0124 75.6352 78.6505 75.9361 78.5929C76.559 78.4738 76.5764 78.7958 76.1348 82.3111C75.8953 84.2187 75.6952 85.8901 75.6905 86.025C75.6849 86.1933 75.4604 86.2524 74.979 86.2125L74.276 86.1544L73.9638 83.6234C73.7923 82.2314 73.594 80.523 73.5232 79.827L73.3943 78.5615H73.8818C74.1504 78.5615 74.3707 78.6669 74.3711 78.7958ZM79.7265 78.9514C80.0143 79.2692 80.0804 79.6423 80.0836 80.9668L80.0879 82.5923L79.0951 82.6495L78.1024 82.7062L78.1577 83.9618C78.2271 85.5343 78.9138 85.899 79.0206 84.4202C79.075 83.6675 79.1101 83.6234 79.6562 83.6234H80.2336L80.1188 84.6077C79.9843 85.7635 79.5259 86.2481 78.5674 86.2481C77.3047 86.2481 77.1819 85.9074 77.1819 82.4048C77.1819 79.5612 77.2124 79.2809 77.5569 78.9364C78.0729 78.4204 79.2536 78.4288 79.7265 78.9514ZM81.8689 78.7864C81.8689 78.9613 81.9191 78.9613 82.0939 78.7864C82.4974 78.3829 82.9938 78.5169 82.9938 79.0302C82.9938 79.3114 82.8865 79.4989 82.7262 79.4989C81.9795 79.4989 81.8689 79.9723 81.8689 83.1683V86.2481H81.4002H80.9315V82.4048V78.5615H81.4002C81.658 78.5615 81.8689 78.6627 81.8689 78.7864ZM86.0764 78.9781C86.5761 79.691 86.4687 80.9987 85.9105 80.9987C85.506 80.9987 85.446 80.9059 85.3949 80.2019C85.3185 79.1431 84.8016 79.0803 84.7158 80.1199C84.667 80.7123 84.8034 81.0489 85.513 82.0884C86.9116 84.1367 86.6632 86.2481 85.0237 86.2481C84.0994 86.2481 83.7437 85.7973 83.7437 84.6255C83.7437 83.6815 83.7709 83.6234 84.2124 83.6234C84.6431 83.6234 84.6811 83.6923 84.6811 84.4671C84.6811 85.0919 84.7542 85.3107 84.9623 85.3107C85.5857 85.3107 85.3129 83.6328 84.4932 82.4264C83.6354 81.1637 83.4386 79.5842 84.054 78.9041C84.5119 78.3984 85.701 78.442 86.0764 78.9781ZM88.2432 82.4048V86.2481H87.7745H87.3058V82.4048V78.5615H87.7745H88.2432V82.4048ZM94.0593 78.9407C94.6761 79.5575 94.5454 86.1249 93.9145 86.2144C93.6825 86.2472 93.4927 86.1811 93.4927 86.0672C93.4927 85.9205 93.3867 85.9168 93.1299 86.0541C91.982 86.6686 91.4304 85.9838 91.4304 83.9445C91.4304 82.1648 91.5893 81.8283 92.567 81.5354L93.3225 81.309L93.2672 80.3571C93.1974 79.1642 92.6837 78.9838 92.5899 80.1194C92.4985 81.2298 91.5115 81.0957 91.549 79.9779C91.5916 78.689 93.1594 78.0407 94.0593 78.9407ZM100.054 78.9364C100.374 79.2556 100.429 79.5612 100.429 80.9987V82.686H99.492H98.5546V83.9984C98.5546 85.1612 98.5949 85.3107 98.9094 85.3107C99.3134 85.3107 99.492 84.9616 99.492 84.1704C99.492 83.712 99.5679 83.6234 99.9607 83.6234C100.392 83.6234 100.429 83.6914 100.429 84.4755C100.429 85.5292 99.821 86.2481 98.9296 86.2481C97.65 86.2481 97.4297 85.697 97.4297 82.4948C97.4297 78.9641 97.5849 78.5699 98.9765 78.5643C99.4325 78.5624 99.8112 78.6932 100.054 78.9364ZM103.887 78.9781C104.126 79.3184 104.179 80.0233 104.179 82.8215V86.2481H103.71C103.453 86.2481 103.242 86.1628 103.242 86.0593C103.242 85.9421 103.11 85.9524 102.895 86.0864C101.859 86.7333 101.179 85.8371 101.179 83.824C101.179 82.3064 101.574 81.6446 102.593 81.4533C103.258 81.3287 103.486 80.5422 103.128 79.6081C102.861 78.9116 102.304 79.4178 102.304 80.358C102.304 80.7166 102.206 80.8112 101.836 80.8112C101.213 80.8112 101.149 79.5293 101.742 78.9364C102.279 78.3988 103.498 78.4223 103.887 78.9781ZM78.3466 79.534C77.8643 80.0163 78.0603 81.7486 78.5969 81.7486C79.0633 81.7486 79.0731 81.721 79.0187 80.5919C78.9625 79.4262 78.7652 79.1155 78.3466 79.534ZM98.6798 79.4365C98.2753 79.8406 98.5588 81.7486 99.0233 81.7486C99.455 81.7486 99.492 81.6807 99.492 80.8928C99.492 79.7332 99.095 79.0213 98.6798 79.4365ZM92.5618 82.6738C92.1269 83.4866 92.3968 85.3107 92.9522 85.3107C93.2686 85.3107 93.3052 85.1547 93.3052 83.8109C93.3052 82.2553 93.0197 81.8185 92.5618 82.6738ZM102.539 82.4353C102.11 82.6082 102.223 85.3107 102.659 85.3107C103.128 85.3107 103.242 84.9597 103.242 83.5142C103.242 82.3148 103.157 82.1855 102.539 82.4353ZM66.286 88.2078C66.5284 88.4501 66.5893 88.9211 66.5893 90.5471C66.5893 92.8938 66.3629 93.3724 65.254 93.3724H64.6325L64.58 95.5753L64.527 97.7782H64.0583H63.5896L63.5395 93.0007C63.5118 90.3732 63.5348 88.1047 63.5901 87.9598C63.7312 87.5928 65.8675 87.7897 66.286 88.2078ZM71.9325 92.8099V97.8719H71.4638H70.9951V92.8099V87.748H71.4638H71.9325V92.8099ZM73.9948 88.4168C73.9948 89.035 73.9563 89.081 73.4806 89.0261C72.6154 88.9258 72.6515 87.748 73.52 87.748C73.9394 87.748 73.9948 87.8263 73.9948 88.4168ZM81.8689 89.1916C81.8689 90.3146 81.9191 90.585 82.0939 90.4102C82.4806 90.0235 83.3322 90.1426 83.65 90.6277C83.8899 90.9937 83.9312 91.6518 83.8885 94.4241L83.8374 97.7782H83.3688H82.9001L82.849 94.4504C82.8012 91.3429 82.7744 91.1226 82.4473 91.1226C81.9205 91.1226 81.8689 91.4493 81.8689 94.7939V97.8719H81.4002H80.9315V92.8099V87.748H81.4002C81.8595 87.748 81.8689 87.7766 81.8689 89.1916ZM89.5556 88.4168C89.5556 89.035 89.5172 89.081 89.0414 89.0261C88.1762 88.9258 88.2123 87.748 89.0808 87.748C89.5003 87.748 89.5556 87.8263 89.5556 88.4168ZM64.6208 90.5733C64.6208 92.4237 64.6292 92.4598 65.0426 92.4012C65.8727 92.2831 65.7142 88.6854 64.879 88.6854C64.6765 88.6854 64.6208 89.0946 64.6208 90.5733ZM76.057 89.529C76.057 89.9874 76.1419 90.1852 76.3383 90.1852C76.5131 90.1852 76.6195 90.3624 76.6195 90.6539C76.6195 90.9455 76.5131 91.1226 76.3383 91.1226C76.1002 91.1226 76.057 91.5707 76.057 94.0286C76.057 96.4864 76.1002 96.9345 76.3383 96.9345C76.5168 96.9345 76.6195 97.114 76.6195 97.4266C76.6195 97.8813 76.5731 97.9099 76.0102 97.7992C75.0048 97.6015 74.9322 97.3521 74.9322 94.0867C74.9322 92.2358 74.8618 91.1226 74.7447 91.1226C74.6416 91.1226 74.5572 90.9117 74.5572 90.6539C74.5572 90.3961 74.6416 90.1852 74.7447 90.1852C74.8478 90.1852 74.9322 89.9874 74.9322 89.7451C74.9322 89.4742 75.0943 89.2272 75.354 89.1016C76.0008 88.7899 76.057 88.8241 76.057 89.529ZM69.6827 90.5602C70.0267 90.9042 70.0577 91.185 70.0577 93.9433C70.0577 97.3399 69.8547 97.8719 68.5578 97.8719C67.2783 97.8719 67.058 97.3207 67.058 94.1186C67.058 90.5878 67.2131 90.1937 68.6047 90.188C69.0608 90.1862 69.4395 90.3169 69.6827 90.5602ZM73.9516 93.9817L73.901 97.7782H73.4323H72.9636L72.9125 94.2217C72.8549 90.2283 72.8614 90.1852 73.5242 90.1852H74.0027L73.9516 93.9817ZM79.7307 90.5794C80.0241 90.9033 80.0879 91.2632 80.0879 92.5948V94.216L79.0951 94.2732L78.1024 94.3299L78.1577 95.5856C78.2299 97.2195 79.0567 97.6961 79.0567 96.104C79.0567 95.2692 79.0717 95.2472 79.6431 95.2472H80.2294L80.1357 96.2197C80.026 97.3652 79.5446 97.8719 78.5674 97.8719C77.3047 97.8719 77.1819 97.5312 77.1819 94.0286C77.1819 91.185 77.2124 90.9047 77.5569 90.5602C78.0748 90.0423 79.2536 90.0526 79.7307 90.5794ZM85.6185 90.4102C85.6185 90.585 85.6687 90.585 85.8435 90.4102C86.2302 90.0235 87.0818 90.1426 87.3996 90.6277C87.6395 90.9937 87.6808 91.6518 87.6381 94.4241L87.587 97.7782H87.1183H86.6496L86.5986 94.4504C86.5564 91.701 86.5001 91.1226 86.277 91.1226C85.7483 91.1226 85.6185 91.858 85.6185 94.86V97.8719H85.1498H84.6811V94.0286V90.1852H85.1498C85.4076 90.1852 85.6185 90.2865 85.6185 90.4102ZM89.5125 93.9817C89.4623 97.7585 89.4595 97.7786 89.04 97.8382L88.6182 97.8981V94.0417V90.1852H89.0906H89.5636L89.5125 93.9817ZM92.8229 90.48C93.3558 91.0125 93.2292 92.8099 92.6593 92.8099C92.2454 92.8099 92.1953 92.7232 92.1437 91.9194C92.1025 91.2782 92.0078 91.0289 91.8053 91.0289C91.5696 91.0289 91.5157 91.5051 91.4726 93.9817C91.4224 96.8389 91.4332 96.9345 91.8007 96.9345C92.1255 96.9345 92.1803 96.8131 92.1803 96.0908C92.1803 95.3161 92.2183 95.2472 92.649 95.2472C93.3211 95.2472 93.3628 97.1164 92.701 97.5799C91.055 98.7329 90.493 97.8499 90.493 94.1115C90.493 91.185 90.5225 90.9056 90.8679 90.5602C91.3226 90.1055 92.4043 90.061 92.8229 90.48ZM96.5247 90.4955C96.8331 90.7748 96.8673 91.1531 96.8673 94.3084V97.8114L95.7513 97.8217C94.1727 97.8367 94.011 97.6657 93.9229 95.8846C93.8325 94.0562 94.0523 93.5678 95.1378 93.1905C95.9426 92.9107 96.3564 91.4085 95.734 91.0237C95.4125 90.825 94.9925 91.3181 94.9925 91.8955C94.9925 92.3459 94.9152 92.435 94.5238 92.435C93.9014 92.435 93.8372 91.1531 94.4301 90.5602C94.8945 90.0957 96.0433 90.0601 96.5247 90.4955ZM68.308 91.0603C67.9602 91.4076 68.1768 96.9345 68.5377 96.9345C69.0537 96.9345 69.1203 96.5984 69.1203 94.0009C69.1203 91.4442 68.8611 90.5068 68.308 91.0603ZM78.3466 91.1578C77.8643 91.6401 78.0603 93.3724 78.5969 93.3724C79.0633 93.3724 79.0731 93.3447 79.0187 92.2156C78.9625 91.05 78.7652 90.7392 78.3466 91.1578ZM95.1936 94.1996C94.7938 94.6815 95.0127 96.8408 95.4612 96.8408C95.7991 96.8408 95.8418 96.6973 95.891 95.3878C95.9472 93.8917 95.741 93.5402 95.1936 94.1996ZM66.6493 99.8873C66.7004 100.246 66.623 100.309 66.1337 100.309H65.5582V104.915V109.52L65.0426 109.461L64.527 109.402L64.4769 104.856L64.4267 100.309H63.9613C63.5057 100.309 63.3042 99.8133 63.6281 99.4894C63.9988 99.1186 66.5884 99.4594 66.6493 99.8873ZM68.3704 100.028C68.3704 100.632 68.3258 100.684 67.8079 100.684C67.2567 100.684 66.968 99.8995 67.3706 99.4969C67.7878 99.0793 68.3704 99.3886 68.3704 100.028ZM75.8696 100.041C75.8696 100.659 75.8311 100.705 75.3554 100.65C74.4902 100.55 74.5263 99.3717 75.3948 99.3717C75.8142 99.3717 75.8696 99.45 75.8696 100.041ZM68.3272 105.605L68.2766 109.402H67.8079H67.3392L67.2881 105.845C67.2305 101.852 67.237 101.809 67.8998 101.809H68.3783L68.3272 105.605ZM73.5729 102.043C73.7459 102.181 73.8073 103.184 73.8073 105.876V109.522L73.3854 109.462C72.9683 109.402 72.9631 109.365 72.9125 106.061C72.8657 103.014 72.8328 102.726 72.5376 102.782C72.2498 102.838 72.2034 103.211 72.12 106.123L72.0262 109.402H71.5575H71.0888L71.0377 106.061C70.9909 103.014 70.958 102.726 70.6628 102.783C70.3726 102.838 70.3337 103.194 70.2878 106.17L70.2367 109.496H69.7722H69.3078V105.675V101.854L71.3232 101.855C72.4316 101.856 73.444 101.94 73.5729 102.043ZM75.8264 105.605L75.7758 109.402H75.3071H74.8384L74.7873 105.845C74.7297 101.852 74.7362 101.809 75.399 101.809H75.8775L75.8264 105.605ZM79.1397 102.226C79.6393 102.939 79.532 104.246 78.9738 104.246C78.5693 104.246 78.5093 104.153 78.4582 103.449C78.3823 102.403 77.8653 102.325 77.7804 103.348C77.7331 103.918 77.877 104.269 78.5772 105.291C79.6341 106.835 79.8001 108.422 78.9841 109.179C78.7375 109.407 78.4263 109.96 78.2923 110.408C77.8793 111.786 77.2194 111.744 77.5147 110.359C77.683 109.57 77.6637 109.486 77.2517 109.216C76.5623 108.764 76.582 106.871 77.2757 106.871C77.7073 106.871 77.7444 106.939 77.7444 107.728C77.7444 108.443 77.7987 108.576 78.0724 108.524C78.842 108.378 78.5711 107.028 77.4636 105.491C76.6584 104.374 76.5276 102.838 77.1819 102.184C77.7073 101.659 78.7581 101.681 79.1397 102.226ZM82.8063 102.184C83.1508 102.528 83.1813 102.809 83.1813 105.652C83.1813 109.155 83.0585 109.496 81.7958 109.496C80.4052 109.496 80.2753 109.171 80.2753 105.688C80.2753 102.913 80.3119 102.558 80.6325 102.204C81.1096 101.676 82.2879 101.666 82.8063 102.184ZM86.5882 102.119C86.8967 102.399 86.9309 102.777 86.9309 105.932V109.435L85.8149 109.445C84.2363 109.46 84.0746 109.289 83.9865 107.508C83.896 105.68 84.1159 105.192 85.2014 104.814C86.0061 104.534 86.42 103.032 85.7975 102.647C85.476 102.449 85.0561 102.942 85.0561 103.519C85.0561 103.97 84.9787 104.059 84.5874 104.059C83.9649 104.059 83.9007 102.777 84.4936 102.184C84.9581 101.719 86.1069 101.684 86.5882 102.119ZM89.9305 102.263C89.9305 102.536 89.7515 102.732 89.3681 102.877L88.8057 103.089V106.292V109.496H88.337H87.8683V105.679V101.862H88.8994C89.8279 101.862 89.9305 101.903 89.9305 102.263ZM93.15 102.119C93.4589 102.399 93.4927 102.777 93.4927 105.944V109.458H92.3781C90.7601 109.458 90.5998 109.28 90.5225 107.401C90.4475 105.566 90.769 104.939 91.8958 104.728C92.5862 104.598 92.8538 103.508 92.379 102.759C92.1198 102.349 91.6179 102.85 91.6179 103.519C91.6179 103.97 91.5405 104.059 91.1492 104.059C90.5267 104.059 90.4625 102.777 91.0554 102.184C91.5199 101.719 92.6687 101.684 93.15 102.119ZM81.4316 102.684C81.0281 103.087 81.3074 108.584 81.7283 108.525C82.1408 108.466 82.1515 108.404 82.2022 105.772C82.257 102.943 82.0405 102.075 81.4316 102.684ZM85.2571 105.823C84.8573 106.305 85.0762 108.465 85.5248 108.465C85.8627 108.465 85.9054 108.321 85.9546 107.012C86.0108 105.515 85.8046 105.164 85.2571 105.823ZM91.8428 105.784C91.3835 106.243 91.5522 108.593 92.0397 108.525C92.4301 108.469 92.4657 108.356 92.5164 107.012C92.5721 105.527 92.4048 105.222 91.8428 105.784Z" fill="#2C3494"/>
<path fill-rule="evenodd" clip-rule="evenodd" d="M63.5767 80.7175C63.5767 83.1922 63.6034 84.1788 63.6357 82.9096C63.6681 81.6404 63.6681 79.6156 63.6357 78.4101C63.6029 77.2046 63.5762 78.2428 63.5767 80.7175ZM64.5136 80.53C64.5136 82.9016 64.5403 83.8461 64.5731 82.6284C64.6059 81.4112 64.6055 79.4708 64.5727 78.3164C64.5398 77.1624 64.5131 78.1584 64.5136 80.53ZM65.826 80.53C65.826 82.9016 65.8527 83.8461 65.8855 82.6284C65.9183 81.4112 65.9178 79.4708 65.885 78.3164C65.8522 77.1624 65.8255 78.1584 65.826 80.53ZM66.7638 80.7175C66.7638 83.1922 66.7905 84.1788 66.8229 82.9096C66.8552 81.6404 66.8552 79.6156 66.8229 78.4101C66.7901 77.2046 66.7634 78.2428 66.7638 80.7175ZM67.891 78.8015C67.8404 78.9336 67.824 80.642 67.8545 82.5979L67.9103 86.1544L67.9524 82.4648C67.9946 78.8029 67.9984 78.7743 68.4169 78.6937L68.8388 78.6126L68.4108 78.5868C68.176 78.5732 67.9417 78.6698 67.891 78.8015ZM81.2124 78.689C81.4187 78.7457 81.6572 78.8882 81.7421 79.0049C81.8447 79.1455 81.8714 79.122 81.8213 78.9364C81.7796 78.7818 81.541 78.6398 81.2916 78.6205C80.9336 78.5934 80.9167 78.6079 81.2124 78.689ZM86.2106 80.0013C86.1858 80.6533 86.1099 80.7991 85.7588 80.8665L85.337 80.9476L85.7649 80.9734C86.272 81.0034 86.422 80.6973 86.3175 79.8448C86.2472 79.2697 86.2383 79.2828 86.2106 80.0013ZM94.3196 82.7798C94.3201 84.6358 94.3482 85.3698 94.382 84.4108C94.4162 83.4519 94.4162 81.9333 94.382 81.0362C94.3473 80.1391 94.3196 80.9237 94.3196 82.7798ZM92.389 80.0951C92.3736 80.4583 92.2503 80.62 91.9457 80.6791L91.5238 80.7602L91.9517 80.7859C92.4162 80.8136 92.6379 80.4677 92.4987 79.9315C92.4397 79.7042 92.404 79.7581 92.389 80.0951ZM97.5044 82.4048C97.5049 83.9515 97.5335 84.5594 97.5691 83.7556C97.6043 82.9518 97.6038 81.6863 97.5686 80.9434C97.533 80.2005 97.504 80.8581 97.5044 82.4048ZM79.1127 80.8112C79.1127 81.3784 79.1478 81.6104 79.1909 81.3268C79.2336 81.0432 79.2336 80.5792 79.1909 80.2957C79.1478 80.0121 79.1127 80.2441 79.1127 80.8112ZM78.5408 82.6331C78.8244 82.6757 79.2884 82.6757 79.572 82.6331C79.8555 82.59 79.6235 82.5548 79.0564 82.5548C78.4893 82.5548 78.2573 82.59 78.5408 82.6331ZM98.8857 82.6345C99.2227 82.6762 99.7289 82.6753 100.011 82.6326C100.292 82.59 100.017 82.5557 99.398 82.5567C98.7793 82.5576 98.5487 82.5928 98.8857 82.6345ZM86.2388 84.2796C86.2397 84.8983 86.2749 85.1289 86.3166 84.7919C86.3583 84.4549 86.3573 83.9487 86.3147 83.667C86.272 83.3853 86.2378 83.6609 86.2388 84.2796ZM79.1038 84.2796C79.1056 84.6921 79.1441 84.8388 79.1891 84.6054C79.234 84.3724 79.2322 84.035 79.1853 83.8554C79.1384 83.6764 79.1014 83.8672 79.1038 84.2796ZM64.8548 86.19C65.0353 86.2369 65.3305 86.2369 65.511 86.19C65.6914 86.1427 65.5438 86.1043 65.1829 86.1043C64.822 86.1043 64.6744 86.1427 64.8548 86.19ZM98.6012 86.19C98.7816 86.2369 99.0769 86.2369 99.2574 86.19C99.4378 86.1427 99.2902 86.1043 98.9293 86.1043C98.5684 86.1043 98.4207 86.1427 98.6012 86.19ZM63.5776 92.81C63.5776 95.5425 63.6039 96.6603 63.6357 95.2941C63.6676 93.9278 63.6676 91.6921 63.6357 90.3258C63.6039 88.9596 63.5776 90.0774 63.5776 92.81ZM64.5159 90.5578C64.5253 92.2981 64.5647 92.5278 64.8586 92.5545C65.0779 92.5742 65.0962 92.555 64.912 92.4973C64.6955 92.4294 64.6191 91.9855 64.5694 90.5007L64.5052 88.5917L64.5159 90.5578ZM75.9161 89.6683C75.9489 90.0934 76.0628 90.2846 76.2948 90.3052C76.5057 90.324 76.5268 90.3033 76.3525 90.248C76.202 90.2007 76.0314 89.9143 75.9738 89.6111C75.8739 89.0857 75.8716 89.0885 75.9161 89.6683ZM73.3814 90.3076C73.7939 90.3966 73.7999 90.4444 73.8562 94.0881L73.9134 97.7782L73.9068 94.0286L73.9007 90.279L73.432 90.248C73.0266 90.2218 73.0196 90.2298 73.3814 90.3076ZM74.6281 90.4575C74.5002 90.7908 74.6877 91.1278 74.99 91.1076C75.1507 91.0973 75.1479 91.0669 74.9787 90.9984C74.8498 90.9464 74.7444 90.7913 74.7444 90.6539C74.7444 90.5166 74.8498 90.3615 74.9787 90.3094C75.1625 90.2354 75.161 90.2115 74.9726 90.2002C74.8409 90.1918 74.6858 90.3076 74.6281 90.4575ZM88.9422 90.3076C89.3547 90.3966 89.3608 90.4444 89.417 94.0881L89.4742 97.7782L89.4676 94.0286L89.4615 90.279L88.9928 90.248C88.5874 90.2218 88.5804 90.2298 88.9422 90.3076ZM75.9517 91.1779C75.9007 91.312 75.8847 92.6407 75.9161 94.1307L75.9742 96.8408L76.0155 93.9953C76.052 91.4638 76.0928 91.1404 76.3848 91.0645C76.6923 90.9839 76.6918 90.9773 76.3787 90.9567C76.1955 90.945 76.0028 91.0444 75.9517 91.1779ZM87.5703 94.4035C87.5708 96.2596 87.5989 96.9936 87.6327 96.0346C87.6669 95.0756 87.6669 93.5571 87.6327 92.66C87.598 91.7629 87.5703 92.5475 87.5703 94.4035ZM67.1327 94.0286C67.1332 95.5753 67.1618 96.1832 67.1974 95.3794C67.2325 94.5755 67.2321 93.3101 67.1969 92.5672C67.1613 91.8243 67.1322 92.4819 67.1327 94.0286ZM79.1145 92.3413C79.1155 92.9599 79.1506 93.1905 79.1923 92.8535C79.234 92.5165 79.2331 92.0103 79.1905 91.7287C79.1478 91.447 79.1136 91.7226 79.1145 92.3413ZM82.8833 94.4973C82.8833 96.3018 82.9115 97.04 82.9457 96.1377C82.9799 95.2355 82.9799 93.7591 82.9457 92.8568C82.9115 91.9546 82.8833 92.6928 82.8833 94.4973ZM64.5047 95.5284C64.5047 96.7658 64.5352 97.2476 64.5722 96.5989C64.6087 95.9507 64.6083 94.9383 64.5713 94.3492C64.5342 93.7605 64.5042 94.291 64.5047 95.5284ZM78.5408 94.2568C78.8244 94.2995 79.2884 94.2995 79.572 94.2568C79.8555 94.2137 79.6235 94.1786 79.0564 94.1786C78.4893 94.1786 78.2573 94.2137 78.5408 94.2568ZM94.8647 95.4347C94.8647 96.1049 94.8989 96.3791 94.9402 96.044C94.9819 95.7089 94.9819 95.1605 94.9402 94.8254C94.8989 94.4902 94.8647 94.7644 94.8647 95.4347ZM79.1075 95.9971C79.1075 96.4611 79.1441 96.6509 79.1886 96.4189C79.2336 96.1869 79.2336 95.8073 79.1886 95.5753C79.1441 95.3433 79.1075 95.5331 79.1075 95.9971ZM68.2294 97.8138C68.4099 97.8607 68.7052 97.8607 68.8856 97.8138C69.0661 97.7664 68.9184 97.728 68.5575 97.728C68.1966 97.728 68.049 97.7664 68.2294 97.8138ZM67.3206 100.122C67.3352 100.498 67.4406 100.595 67.8568 100.613C68.3077 100.633 68.3152 100.626 67.9149 100.555C67.6258 100.504 67.427 100.322 67.3792 100.064C67.3164 99.727 67.3061 99.7373 67.3206 100.122ZM67.757 101.931C68.1695 102.02 68.1756 102.068 68.2318 105.712L68.289 109.402L68.2824 105.652L68.2763 101.903L67.8076 101.872C67.4022 101.846 67.3952 101.854 67.757 101.931ZM69.5887 101.936C69.7949 101.993 70.0335 102.136 70.1183 102.252C70.221 102.393 70.2477 102.37 70.1975 102.184C70.1558 102.029 69.9172 101.887 69.6679 101.868C69.3098 101.841 69.2929 101.855 69.5887 101.936ZM75.2562 101.931C75.6687 102.02 75.6747 102.068 75.731 105.712L75.7882 109.402L75.7816 105.652L75.7755 101.903L75.3068 101.872C74.9014 101.846 74.8944 101.854 75.2562 101.931ZM79.2739 103.249C79.249 103.901 79.1731 104.047 78.8221 104.114L78.4002 104.195L78.8282 104.221C79.3353 104.251 79.4853 103.945 79.3808 103.092C79.3104 102.517 79.3015 102.53 79.2739 103.249ZM72.0095 106.121C72.0095 107.926 72.0376 108.664 72.0718 107.761C72.1061 106.859 72.1061 105.383 72.0718 104.481C72.0376 103.578 72.0095 104.317 72.0095 106.121ZM81.1937 105.652C81.1942 107.199 81.2227 107.807 81.2584 107.003C81.2935 106.199 81.293 104.934 81.2579 104.191C81.2223 103.448 81.1932 104.106 81.1937 105.652ZM72.9464 106.215C72.946 107.968 72.9741 108.71 73.0088 107.865C73.0435 107.019 73.0439 105.584 73.0092 104.677C72.975 103.77 72.9464 104.462 72.9464 106.215ZM91.4915 107.152C91.4924 107.874 91.5262 108.146 91.5669 107.757C91.6077 107.368 91.6068 106.778 91.5655 106.445C91.5238 106.112 91.4905 106.43 91.4915 107.152ZM84.9264 107.152C84.9273 107.771 84.9625 108.001 85.0042 107.664C85.0459 107.327 85.045 106.821 85.0023 106.54C84.9597 106.258 84.9255 106.533 84.9264 107.152ZM77.6677 109.524C77.722 109.611 77.8809 109.683 78.0206 109.683C78.1607 109.683 78.3098 109.786 78.352 109.913C78.3937 110.039 78.4757 109.961 78.5338 109.738C78.6243 109.393 78.5629 109.337 78.1045 109.35C77.8101 109.358 77.6138 109.437 77.6677 109.524Z" fill="#8484BC"/>
<path fill-rule="evenodd" clip-rule="evenodd" d="M93.3583 80.53C93.3597 81.0456 93.3963 81.2345 93.4394 80.9495C93.4825 80.664 93.4816 80.2422 93.437 80.0121C93.3925 79.7815 93.3569 80.0144 93.3583 80.53ZM80.0566 81.1862C80.0566 81.9595 80.0899 82.2759 80.1302 81.8892C80.171 81.5025 80.171 80.8698 80.1302 80.4831C80.0899 80.0965 80.0566 80.4128 80.0566 81.1862ZM98.4231 80.8112C98.4231 81.3783 98.4582 81.6104 98.5013 81.3268C98.544 81.0432 98.544 80.5792 98.5013 80.2956C98.4582 80.0121 98.4231 80.2441 98.4231 80.8112ZM68.7867 83.001C68.7459 85.9828 68.738 86.0358 68.3232 86.116L67.9013 86.197L68.3293 86.2228C68.9269 86.2584 68.9498 86.1202 68.8856 82.8655L68.8284 79.9676L68.7867 83.001ZM93.3677 83.6234C93.3677 84.3968 93.4009 84.7131 93.4413 84.3265C93.482 83.9398 93.482 83.307 93.4413 82.9204C93.4009 82.5337 93.3677 82.8501 93.3677 83.6234ZM101.243 83.9046C101.244 84.7295 101.277 85.0436 101.316 84.6025C101.356 84.162 101.356 83.487 101.315 83.1027C101.275 82.7188 101.243 83.0797 101.243 83.9046ZM98.4268 83.8109C98.4268 84.4811 98.461 84.7553 98.5023 84.4202C98.544 84.0851 98.544 83.5367 98.5023 83.2016C98.461 82.8665 98.4268 83.1407 98.4268 83.8109ZM102.173 83.8109C102.173 84.378 102.208 84.61 102.251 84.3265C102.294 84.0429 102.294 83.5789 102.251 83.2953C102.208 83.0118 102.173 83.2438 102.173 83.8109ZM80.0411 84.2796C80.043 84.692 80.0814 84.8388 80.1264 84.6053C80.1714 84.3724 80.1696 84.0349 80.1227 83.8554C80.0758 83.6764 80.0388 83.8671 80.0411 84.2796ZM85.2943 84.3733C85.2943 84.8373 85.3309 85.0272 85.3754 84.7952C85.4204 84.5632 85.4204 84.1835 85.3754 83.9515C85.3309 83.7195 85.2943 83.9093 85.2943 84.3733ZM74.3507 86.1169C74.4378 86.2041 74.794 86.2463 75.1423 86.2102C75.76 86.1464 75.7558 86.1427 74.9834 86.0513C74.548 86.0002 74.263 86.0293 74.3507 86.1169ZM64.1072 87.8825C64.3927 87.9256 64.8145 87.9247 65.0446 87.8801C65.2752 87.8356 65.0423 87.8 64.5267 87.8014C64.0111 87.8028 63.8223 87.8394 64.1072 87.8825ZM72.9417 88.0184C72.8846 88.167 72.8775 88.4412 72.9258 88.6277C72.9844 88.8546 73.0209 88.8007 73.0355 88.4637C73.0524 88.0657 73.1648 87.9439 73.5726 87.8825L74.0882 87.8042L73.5665 87.7761C73.2642 87.7597 73.0017 87.8614 72.9417 88.0184ZM88.5026 88.0184C88.4454 88.167 88.4384 88.4412 88.4866 88.6277C88.5452 88.8546 88.5818 88.8007 88.5963 88.4637C88.6132 88.0657 88.7257 87.9439 89.1334 87.8825L89.649 87.8042L89.1273 87.7761C88.825 87.7597 88.5626 87.8614 88.5026 88.0184ZM66.5627 90.5602C66.5627 91.5398 66.5946 91.9405 66.633 91.4507C66.6715 90.9609 66.6715 90.1594 66.633 89.6696C66.5946 89.1798 66.5627 89.5806 66.5627 90.5602ZM72.9572 94.0285L72.9633 97.7781L73.3879 97.803C73.7334 97.8236 73.7427 97.8124 73.4386 97.7435C73.0833 97.6633 73.0622 97.4786 73.0078 93.969L72.9506 90.2789L72.9572 94.0285ZM83.7856 94.2498C83.7439 97.6202 83.7387 97.6591 83.3216 97.7397L82.8997 97.8208L83.3277 97.8466C83.9299 97.8822 83.9468 97.7692 83.884 94.1157L83.8278 90.8414L83.7856 94.2498ZM75.0082 94.1223C75.0082 95.8237 75.0364 96.5197 75.0715 95.669C75.1062 94.8183 75.1062 93.4263 75.0715 92.5756C75.0364 91.7249 75.0082 92.4209 75.0082 94.1223ZM80.058 92.7162C80.0589 93.5411 80.0918 93.8551 80.1311 93.4141C80.171 92.9735 80.1705 92.2986 80.1302 91.9142C80.0899 91.5304 80.0575 91.8913 80.058 92.7162ZM68.0691 94.0285C68.0691 95.4721 68.0987 96.0379 68.1343 95.2856C68.1699 94.5338 68.1699 93.3527 68.1338 92.6609C68.0977 91.9695 68.0687 92.5849 68.0691 94.0285ZM86.6423 94.6379C86.6493 97.7664 86.6507 97.7781 87.074 97.803C87.4185 97.8231 87.4283 97.8119 87.1255 97.7439C86.774 97.6647 86.7487 97.4772 86.6939 94.5783L86.6353 91.4971L86.6423 94.6379ZM93.9287 95.5284C93.9296 96.2502 93.9634 96.5225 94.0042 96.1335C94.0449 95.7445 94.044 95.1539 94.0028 94.8211C93.961 94.4883 93.9278 94.8066 93.9287 95.5284ZM80.0449 95.9971C80.0449 96.4611 80.0814 96.6509 80.126 96.4189C80.171 96.1869 80.171 95.8073 80.126 95.5753C80.0814 95.3432 80.0449 95.5331 80.0449 95.9971ZM65.0765 99.5072C66.282 99.5653 66.4826 99.6248 66.5552 99.9445C66.6218 100.239 66.634 100.228 66.6138 99.8901C66.5904 99.4889 66.5093 99.465 65.1355 99.4528L63.6816 99.4402L65.0765 99.5072ZM74.8165 99.6422C74.7594 99.7907 74.7523 100.065 74.8006 100.251C74.8592 100.478 74.8957 100.424 74.9103 100.087C74.9272 99.6895 75.0396 99.5676 75.4474 99.5062L75.963 99.428L75.4413 99.3998C75.139 99.3834 74.8765 99.4851 74.8165 99.6422ZM64.5216 104.856L64.5267 109.402L65.0446 109.425C65.5124 109.445 65.5171 109.439 65.0948 109.366L64.627 109.284L64.5717 104.796L64.5164 100.309L64.5216 104.856ZM67.3328 105.652L67.3389 109.402L67.7635 109.427C68.109 109.447 68.1184 109.436 67.8142 109.367C67.4589 109.287 67.4378 109.102 67.3834 105.593L67.3262 101.903L67.3328 105.652ZM74.832 105.652L74.8381 109.402L75.2627 109.427C75.6082 109.447 75.6175 109.436 75.3134 109.367C74.9581 109.287 74.937 109.102 74.8826 105.593L74.8254 101.903L74.832 105.652ZM71.0819 106.215C71.0885 109.392 71.0899 109.402 71.5131 109.427C71.8576 109.447 71.8675 109.436 71.5642 109.368C71.2127 109.288 71.1874 109.101 71.133 106.155L71.0754 103.028L71.0819 106.215ZM80.2563 105.652C80.2567 107.199 80.2853 107.807 80.3209 107.003C80.3561 106.199 80.3556 104.934 80.3205 104.191C80.2849 103.448 80.2558 104.106 80.2563 105.652ZM90.5569 107.152C90.5578 107.977 90.5906 108.291 90.63 107.85C90.6698 107.409 90.6694 106.735 90.6291 106.35C90.5888 105.966 90.5564 106.327 90.5569 107.152ZM83.9923 107.152C83.9932 107.874 84.027 108.146 84.0677 107.757C84.1085 107.368 84.1076 106.778 84.0663 106.445C84.0246 106.112 83.9913 106.43 83.9923 107.152ZM92.5273 109.355C92.622 109.45 92.8985 109.496 93.1427 109.458C93.5181 109.399 93.4914 109.372 92.9707 109.286C92.5985 109.224 92.4232 109.251 92.5273 109.355Z" fill="#5C54A4"/>
</svg>
