<svg width="186" height="186" fill="none" xmlns="http://www.w3.org/2000/svg"><path fill-rule="evenodd" clip-rule="evenodd" d="m120.047 92.737-.763-2.475h-.079l-.764 2.475h1.606Zm.29 1h-2.212l-.368 1.132h-1.132l1.921-5.818h1.396l1.922 5.818h-1.159l-.368-1.132ZM123.075 93.58h1.001c.052.368.342.578.842.578.5 0 .79-.21.79-.526 0-.922-2.501-.053-2.501-1.87 0-.737.632-1.342 1.711-1.342.948 0 1.659.474 1.711 1.343h-.947c-.053-.317-.29-.527-.764-.527-.447 0-.711.184-.711.474 0 .842 2.554-.053 2.554 1.843 0 .842-.684 1.422-1.843 1.422-1.211 0-1.79-.553-1.843-1.396ZM131.763 92.684c0-.764-.526-1.316-1.237-1.316-.711 0-1.211.552-1.211 1.316 0 .763.526 1.316 1.211 1.316.737 0 1.237-.553 1.237-1.316Zm-3.554 0c0-1.29.948-2.29 2.317-2.29 1.369 0 2.317 1 2.317 2.29s-.974 2.29-2.343 2.29c-1.317 0-2.291-.974-2.291-2.29ZM133.975 92.684c0-1.29.921-2.29 2.29-2.29 1.132 0 2.001.684 2.159 1.71h-1.106c-.131-.42-.526-.736-1.053-.736-.711 0-1.185.579-1.185 1.316 0 .763.501 1.316 1.211 1.316.501 0 .896-.29 1.027-.71h1.106c-.158 1-1.027 1.684-2.159 1.684-1.395 0-2.29-1-2.29-2.29ZM141.215 89.314c0-.369.263-.632.658-.632s.658.237.658.632-.263.632-.658.632-.658-.263-.658-.632Zm2.58 4.713v.842h-3.923v-.842h1.474v-2.66h-1.316V90.5h2.396v3.528h1.369ZM148.666 92.71c0-.816-.5-1.316-1.185-1.316s-1.158.553-1.158 1.316c0 .79.473 1.317 1.184 1.317s1.159-.606 1.159-1.317Zm-3.449 0c0-1.369.842-2.317 2.027-2.317.764 0 1.185.448 1.316.685h.079v-.553h1.08v4.37h-1.053v-.552h-.079c-.106.184-.5.658-1.29.658-1.238-.026-2.08-.922-2.08-2.29ZM153.299 95.343h.896l-.343 1.448h-.684l.131-1.448Zm-.921-1.922v-2.053h-1.29v-.843h1.027c.184 0 .316-.132.316-.342v-.869h1.026v1.211h1.659v.869h-1.659v2c0 .37.185.606.606.606h.948v.895h-1.159c-.921-.026-1.474-.526-1.474-1.474ZM158.144 89.314c0-.369.263-.632.658-.632s.658.237.658.632-.263.632-.658.632-.658-.263-.658-.632Zm2.554 4.713v.842h-3.923v-.842h1.474v-2.66h-1.316V90.5h2.396v3.528h1.369ZM165.594 92.71c0-.816-.5-1.316-1.184-1.316-.685 0-1.159.553-1.159 1.316 0 .79.474 1.317 1.185 1.317.711 0 1.158-.606 1.158-1.317Zm-3.448 0c0-1.369.842-2.317 2.027-2.317.763 0 1.185.448 1.316.685h.079v-.553h1.08v4.37h-1.054v-.552h-.079c-.105.184-.5.658-1.29.658-1.237-.026-2.079-.922-2.079-2.29ZM119.258 102.504c.526 0 .921-.263.921-.842s-.447-.816-.948-.816h-.947v1.658h.974Zm-.053-2.475c.527 0 .842-.316.842-.763 0-.421-.342-.71-.816-.71h-.974v1.473h.948Zm-2.001-2.395h2.133c1.132 0 1.79.658 1.79 1.527 0 .526-.263.974-.685 1.211v.052c.369.158.869.58.869 1.343 0 1.08-.842 1.685-1.816 1.685h-2.317v-5.818h.026ZM126.103 101.267c0-.816-.5-1.316-1.185-1.316s-1.158.552-1.158 1.316c0 .79.473 1.316 1.184 1.316s1.159-.579 1.159-1.316Zm-3.449.026c0-1.369.842-2.317 2.027-2.317.764 0 1.185.448 1.316.685h.079v-.553h1.08v4.37h-1.053v-.552h-.079c-.106.184-.5.658-1.29.658-1.238-.027-2.08-.948-2.08-2.291ZM128.604 99.082h1.027v.526h.079c.184-.316.605-.632 1.211-.632.974 0 1.58.685 1.58 1.606v2.844h-1.08v-2.554c0-.527-.342-.895-.842-.895-.527 0-.896.421-.896.974v2.501h-1.079v-4.37ZM137.371 101.267c0-.816-.5-1.316-1.185-1.316-.684 0-1.158.552-1.158 1.316 0 .79.474 1.316 1.184 1.316.711 0 1.159-.579 1.159-1.316Zm-3.423.026c0-1.369.843-2.317 2.027-2.317.764 0 1.185.448 1.317.685h.079v-.553h1.079v4.37h-1.053v-.552h-.079c-.105.184-.5.658-1.29.658-1.264-.027-2.08-.948-2.08-2.291ZM141.109 101.978v-2.054h-1.29v-.842h1.027c.184 0 .316-.132.316-.343v-.868h1.027v1.21h1.659v.87h-1.659v2c0 .369.184.606.605.606h.948v.895h-1.158c-.922-.026-1.475-.526-1.475-1.474ZM117.151 111.035h1.554v-3.871h-1.554v-.974h4.213v.974h-1.554v3.871h1.554v.974h-4.213v-.974ZM124.339 107.164h-1.712v-.974h4.555v.974h-1.737v4.845h-1.106v-4.845Z" fill="#141227"/><mask id="a" style="mask-type:alpha" maskUnits="userSpaceOnUse" x="18" y="74" width="30" height="39"><path fill-rule="evenodd" clip-rule="evenodd" d="M18 74.228h29.514v38.044H18V74.228Z" fill="#fff"/></mask><g mask="url(#a)"><path fill-rule="evenodd" clip-rule="evenodd" d="M37.825 103.373c-.684.658-1.764.974-3.186.974h-8.135v-7.345h8.135c2.712 0 4.134 1.264 4.134 3.659 0 1.185-.316 2.107-.948 2.712Zm4.739-10.32c2.843-1.685 4.45-4.581 4.45-8.136 0-3.08-1.08-5.713-3.134-7.582-1.079-1-2.448-1.764-4.028-2.29-1.658-.554-3.554-.817-5.66-.817h-7.688v7.898h7.635c1.422 0 2.501.343 3.212 1.027.764.737.922 1.738.922 2.422 0 2.87-2.238 3.45-4.134 3.45h-7.635v-6.899h-8.478v30.146H34.85c4.054 0 7.214-1.001 9.425-3.001 2.107-1.896 3.239-4.687 3.239-8.03 0-3.581-1.817-6.582-4.95-8.189Z" fill="#141227"/></g><mask id="b" style="mask-type:alpha" maskUnits="userSpaceOnUse" x="18" y="74" width="149" height="39"><path fill-rule="evenodd" clip-rule="evenodd" d="M18 112.272h148.648V74.228H18v38.044Z" fill="#fff"/></mask><g mask="url(#b)"><path fill-rule="evenodd" clip-rule="evenodd" d="M48.856 82.995h9.531v-8.793h-9.53v8.793Z" fill="#141227"/></g><mask id="c" style="mask-type:alpha" maskUnits="userSpaceOnUse" x="18" y="74" width="149" height="39"><path fill-rule="evenodd" clip-rule="evenodd" d="M18 112.272h148.648V74.228H18v38.044Z" fill="#fff"/></mask><g mask="url(#c)"><path fill-rule="evenodd" clip-rule="evenodd" d="M67.917 74.228v8.767h-9.53v29.224h9.557V83.022h11.584v29.25h9.53v-29.25h11.611v-8.794H67.917Z" fill="#141227"/></g><mask id="d" style="mask-type:alpha" maskUnits="userSpaceOnUse" x="18" y="74" width="149" height="39"><path fill-rule="evenodd" clip-rule="evenodd" d="M18 112.272h148.648V74.228H18v38.044Z" fill="#fff"/></mask><g mask="url(#d)"><path fill-rule="evenodd" clip-rule="evenodd" d="M98.142 112.272h9.531v-8.794h-9.53v8.794Z" fill="#0F0"/></g></svg>