<?xml version="1.0" encoding="UTF-8"?>
<svg width="310px" height="310px" viewBox="0 0 310 310" version="1.1" xmlns="http://www.w3.org/2000/svg" xmlns:xlink="http://www.w3.org/1999/xlink">
    <!-- Generator: Sketch 63.1 (92452) - https://sketch.com -->
    <title>visma_logo</title>
    <desc>Created with Sketch.</desc>
    <g id="Exports" stroke="none" stroke-width="1" fill="none" fill-rule="evenodd">
        <g id="Artboard" transform="translate(-720.000000, -3872.000000)">
            <g id="Group-28" transform="translate(720.000000, 3872.000000)">
                <g id="Group-6" transform="translate(25.000000, 129.000000)">
                    <path d="M63.211107,25.2747289 C54.603074,15.4815429 39.500493,8.58741182 25.8134486,7.42869625 L49.4160467,43.4198824 L5.73231852,11.4003563 C-1.88393254,16.6893566 -2.12791241,26.2853948 6.30865488,35.881433 C17.3383581,48.4203369 39.0170654,56.2118304 54.728463,53.2765184 C70.4459034,50.3480045 74.2415656,37.8113667 63.211107,25.2747289" id="Fill-1" fill="#D91C52"></path>
                    <path d="M250.659939,10.6773298 C248.172553,10.6773298 246.178414,8.66657309 246.178414,6.215444 C246.178414,3.7643149 248.172553,1.78452773 250.659939,1.78452773 C253.098983,1.78452773 255.112761,3.7643149 255.112761,6.215444 C255.112761,8.66657309 253.098983,10.6773298 250.659939,10.6773298 L250.659939,10.6773298 Z M250.659939,0.754977976 C247.591685,0.754977976 245.141311,3.18042498 245.141311,6.215444 C245.141311,9.25348444 247.591685,11.7068796 250.659939,11.7068796 C253.705533,11.7068796 256.145332,9.25348444 256.145332,6.215444 C256.145332,3.18042498 253.705533,0.754977976 250.659939,0.754977976 L250.659939,0.754977976 Z M250.609331,5.8490965 L249.961235,5.8490965 L249.961235,4.07401072 L250.609331,4.07401072 C251.068587,4.07401072 251.367708,4.30968168 251.367708,4.91018943 C251.367708,5.32185826 251.19171,5.8490965 250.609331,5.8490965 L250.609331,5.8490965 Z M251.527843,6.27436174 L251.527843,6.24792429 C252.477325,6.09836387 252.817991,5.49861148 252.817991,4.68887022 C252.817991,3.60342415 252.182736,3.0165128 251.19171,3.0165128 L248.514729,3.0165128 L248.514729,9.37434134 L249.961235,9.37434134 L249.961235,6.74419295 L250.334381,6.74419295 C251.455329,6.74419295 251.34127,7.39304346 251.34127,8.13933485 C251.34127,8.56384472 251.34127,8.99364209 251.527843,9.37434134 L252.95471,9.37434134 C252.817991,9.10845615 252.791553,7.92103706 252.791553,7.50861288 C252.791553,6.36424906 251.836028,6.29324563 251.527843,6.27436174 L251.527843,6.27436174 Z M157.57293,26.4264952 C155.327258,22.5772028 152.779443,18.2097364 155.155037,12.5271958 C155.964023,10.5851765 157.162017,8.69074447 158.722581,7.60227698 L147.859056,7.60227698 C147.859056,7.60227698 147.074242,9.06993301 146.713937,9.92726168 C142.929605,19.0051259 146.498661,25.6280843 149.946859,32.0327449 C152.817211,37.3564915 155.784248,42.8569914 153.267403,48.8764206 C152.52942,50.6469743 151.166759,52.2037623 149.92722,53.1789264 L160.871568,53.1789264 C160.871568,53.1789264 161.475853,52.0073698 161.737206,51.3864674 C165.39917,42.628874 163.454129,36.4833004 158.554892,28.1411526 C158.240664,27.568593 157.897733,26.9922566 157.57293,26.4264952 L157.57293,26.4264952 Z M195.766733,7.60227698 L192.116099,34.5125775 L191.995243,34.5125775 L187.546953,7.60227698 L175.596471,7.60227698 L171.574202,53.2015871 L181.329621,53.2015871 L182.668111,20.3640107 L182.784436,20.3640107 L182.784436,21.2084984 L184.311765,31.3665212 L188.76232,53.2015871 L195.766733,53.2015871 L199.669656,31.6097457 L201.135046,20.3640107 L201.255903,20.3640107 L203.453988,53.2015871 L212.778853,53.2015871 L207.961195,7.60227698 L195.766733,7.60227698 Z M127.120012,53.2015871 L136.204674,53.2015871 L136.204674,7.60227698 L127.120012,7.60227698 L127.120012,53.2015871 Z M105.246423,29.3716269 C104.515238,32.0327449 104.326399,34.6364558 103.842972,37.2968184 L103.722115,37.2968184 C103.171461,34.6931075 102.868563,32.0939287 102.07695,29.4947499 L96.5892914,7.60227698 L86.8406713,7.60227698 L100.124356,53.2015871 L107.563854,53.2015871 L120.296884,7.60227698 L110.788467,7.60227698 L105.246423,29.3716269 Z M230.691357,7.60227698 L217.953795,53.2015871 L227.459191,53.2015871 L233.008033,31.4284604 C233.737707,28.7680977 233.922013,26.1689189 234.405441,23.5085563 L234.527053,23.5085563 C235.080729,26.1069798 235.383627,28.70918 236.177505,31.3083588 L241.658366,53.2015871 L251.413784,53.2015871 L238.124057,7.60227698 L230.691357,7.60227698 Z" id="Fill-3" fill="#323232"></path>
                </g>
            </g>
        </g>
    </g>
</svg>