<svg width="800" height="800" viewBox="0 0 800 800" fill="none" xmlns="http://www.w3.org/2000/svg">
  <path
    d="M455.983 379.17C494.282 359.36 541.825 374.944 561.371 413.374L319.56 535.93C319.56 535.93 319.56 536.723 320.353 536.723C329.832 555.385 331.541 577.041 325.108 596.96C318.674 616.879 304.621 633.443 286.016 643.035C267.367 652.472 245.744 654.159 225.856 647.728C205.969 641.297 189.428 627.268 179.836 608.698C170.357 590.035 168.648 568.38 175.081 548.461C181.514 528.542 195.568 511.978 214.173 502.386L455.851 379.038L455.983 379.17Z"
    fill="white"/>
  <path
    d="M249.302 653.6C219.852 653.6 191.194 637.224 176.535 609.491C166.776 590.189 165.079 567.803 171.814 547.251C178.549 526.698 193.167 509.659 212.456 499.877H213.249L455.191 377.453C464.57 372.668 474.802 369.781 485.299 368.957C495.796 368.133 506.353 369.389 516.364 372.653C526.375 375.916 535.643 381.123 543.639 387.975C551.634 394.827 558.198 403.189 562.956 412.582V414.167C562.956 414.959 562.163 415.884 562.163 415.884L321.938 536.723C331.267 555.953 332.734 578.061 326.027 598.355C319.32 618.648 304.967 635.529 286.016 645.412C274.535 650.826 261.996 653.623 249.302 653.6V653.6ZM491.113 372.567C479.623 372.567 467.341 374.944 456.776 380.622L214.965 503.311H214.041C200.462 510.259 189.249 521.078 181.819 534.398C174.389 547.719 171.075 562.944 172.297 578.149C173.519 593.353 179.222 607.853 188.685 619.816C198.148 631.779 210.945 640.667 225.459 645.358C239.973 650.048 255.552 650.329 270.226 646.166C284.9 642.003 298.01 633.582 307.898 621.969C317.787 610.355 324.009 596.07 325.78 580.92C327.55 565.77 324.788 550.435 317.844 536.855V534.214C317.844 533.553 318.636 533.553 318.636 532.629L558.069 410.865C551.143 399.263 541.343 389.643 529.614 382.935C517.885 376.226 504.624 372.655 491.113 372.567Z"
    fill="black"/>
  <path
    d="M249.302 605.396C253.769 605.68 258.247 605.046 262.46 603.532C266.672 602.018 270.529 599.656 273.793 596.593C277.057 593.53 279.659 589.831 281.437 585.723C283.215 581.615 284.133 577.187 284.133 572.71C284.133 568.234 283.215 563.806 281.437 559.698C279.659 555.59 277.057 551.891 273.793 548.828C270.529 545.765 266.672 543.403 262.46 541.889C258.247 540.375 253.769 539.74 249.302 540.024C240.992 540.553 233.196 544.226 227.498 550.298C221.8 556.37 218.629 564.384 218.629 572.71C218.629 581.037 221.8 589.051 227.498 595.123C233.196 601.194 240.992 604.868 249.302 605.396V605.396Z"
    fill="white"/>
  <path
    d="M249.302 606.981C239.984 606.947 231.055 603.239 224.453 596.662C217.852 590.085 214.11 581.17 214.041 571.852C214.11 562.534 217.852 553.619 224.453 547.042C231.055 540.465 239.984 536.757 249.302 536.723C258.598 536.792 267.493 540.515 274.066 547.088C280.639 553.661 284.362 562.557 284.431 571.852C284.228 581.128 280.444 589.965 273.871 596.514C267.298 603.062 258.447 606.813 249.17 606.981H249.302ZM249.302 541.609C245.339 541.592 241.412 542.355 237.744 543.856C234.076 545.356 230.74 547.565 227.925 550.354C225.111 553.144 222.874 556.461 221.341 560.116C219.808 563.771 219.011 567.691 218.993 571.654C218.976 575.617 219.739 579.544 221.24 583.212C222.74 586.88 224.949 590.216 227.739 593.031C230.529 595.845 233.845 598.083 237.5 599.615C241.155 601.148 245.075 601.946 249.038 601.963C257.042 601.998 264.731 598.852 270.415 593.218C276.099 587.583 279.312 579.922 279.347 571.918C279.382 563.915 276.236 556.225 270.602 550.541C264.967 544.857 257.306 541.644 249.302 541.609V541.609Z"
    fill="black"/>
  <path
    d="M569.559 149.377H602.311C610.741 149.447 618.803 152.845 624.739 158.831C630.676 164.817 634.007 172.906 634.006 181.337V606.189C634.007 614.619 630.676 622.709 624.739 628.695C618.803 634.681 610.741 638.079 602.311 638.148H569.559C560.578 638.148 552.39 632.338 549.089 624.15C540.108 601.302 514.752 589.813 491.905 598.001C485.896 600.176 480.438 603.645 475.919 608.164C471.401 612.683 467.931 618.14 465.756 624.15C464.111 628.246 461.288 631.762 457.644 634.254C454.001 636.745 449.7 638.101 445.286 638.148H412.798C404.345 638.113 396.25 634.731 390.285 628.741C384.319 622.751 380.97 614.642 380.97 606.189V181.337C380.97 172.883 384.319 164.774 390.285 158.785C396.25 152.795 404.345 149.412 412.798 149.377H445.55C454.53 149.377 462.718 155.188 465.888 163.376C474.868 186.223 500.225 197.713 523.072 189.525C529.081 187.35 534.539 183.88 539.057 179.361C543.576 174.843 547.046 169.385 549.221 163.376C553.315 155.188 560.71 149.377 569.691 149.377H569.559Z"
    fill="#FF1E23"/>
  <path
    d="M602.179 640.658H569.559C559.786 640.658 550.806 634.054 547.504 625.074C545.595 619.912 542.683 615.178 538.936 611.146C535.19 607.114 530.683 603.862 525.675 601.579C520.666 599.296 515.256 598.026 509.755 597.843C504.254 597.659 498.771 598.566 493.622 600.51C482.132 604.472 473.152 613.584 469.058 625.074C467.36 629.567 464.347 633.445 460.413 636.201C456.479 638.957 451.806 640.464 447.003 640.526H414.119C395.366 640.526 379.782 625.074 379.782 606.189V181.337C379.782 162.452 395.366 147 414.119 147H447.135C456.908 147 465.888 153.603 469.19 162.452C471.099 167.614 474.011 172.347 477.758 176.38C481.504 180.412 486.011 183.663 491.019 185.946C496.027 188.229 501.438 189.499 506.939 189.683C512.44 189.866 517.923 188.96 523.072 187.016C534.562 183.054 543.542 173.941 547.636 162.452C551.598 153.471 559.918 147 569.691 147H602.443C621.196 147 636.78 162.452 636.78 181.337V606.189C636.78 625.074 621.196 640.526 602.443 640.526L602.179 640.658ZM508.281 593.114C527.034 593.114 544.995 604.604 551.598 623.489C553.975 630.753 561.371 636.432 569.559 636.432H602.311C618.555 636.432 632.422 623.357 632.422 606.189V181.337C632.422 164.961 619.347 150.962 602.179 150.962H569.559C565.536 150.909 561.606 152.17 558.364 154.554C555.123 156.937 552.747 160.313 551.598 164.168C549.154 170.242 545.507 175.76 540.878 180.389C536.248 185.019 530.731 188.665 524.657 191.11C513.163 195.368 500.455 194.929 489.283 189.886C478.111 184.844 469.374 175.605 464.964 164.168C463.689 160.389 461.282 157.093 458.068 154.73C454.854 152.367 450.991 151.051 447.003 150.962H414.119C410.131 150.944 406.18 151.719 402.494 153.241C398.808 154.763 395.461 157.001 392.648 159.827C389.834 162.653 387.61 166.01 386.104 169.702C384.598 173.395 383.841 177.349 383.876 181.337V606.189C383.876 622.565 397.082 636.564 414.251 636.564H446.871C450.894 636.616 454.824 635.355 458.066 632.972C461.307 630.588 463.682 627.213 464.832 623.357C468.366 614.676 474.336 607.202 482.022 601.836C489.708 596.47 498.781 593.441 508.149 593.114H508.281Z"
    fill="black"/>
  <path
    d="M601.386 461.578H593.198C590.821 461.578 589.236 459.993 589.236 457.616C589.236 454.975 590.821 453.39 593.198 453.39H601.386C603.896 453.39 605.48 455.107 605.48 457.484C605.48 459.993 603.896 461.578 601.518 461.578H601.386ZM577.615 461.578H562.163C559.786 461.578 558.201 459.993 558.201 457.616C558.201 454.975 559.786 453.39 562.163 453.39H577.879C580.256 453.39 581.841 455.107 581.841 457.484C581.841 459.993 580.256 461.578 577.879 461.578H577.615ZM546.712 461.578H531.128C528.751 461.578 527.166 459.993 527.166 457.616C527.166 454.975 528.751 453.39 531.128 453.39H546.712C549.089 453.39 550.674 455.107 550.674 457.484C550.674 459.993 549.089 461.578 546.712 461.578ZM515.676 461.578H499.961C497.452 461.578 495.999 459.993 495.999 457.616C495.999 454.975 497.452 453.39 499.961 453.39H515.809C518.186 453.39 519.77 455.107 519.77 457.484C519.77 459.993 518.186 461.578 515.809 461.578H515.676ZM485.302 461.578H469.85C467.473 461.578 465.888 459.993 465.888 457.616C465.888 454.975 467.473 453.39 469.85 453.39H485.434C487.811 453.39 489.396 455.107 489.396 457.484C489.396 459.993 487.811 461.578 485.434 461.578H485.302ZM454.398 461.578H438.815C436.306 461.578 434.853 459.993 434.853 457.616C434.853 454.975 436.306 453.39 438.815 453.39H454.398C456.776 453.39 458.36 455.107 458.36 457.484C458.36 459.993 456.776 461.578 454.398 461.578ZM423.231 461.578H415.175C412.666 461.578 411.081 459.993 411.081 457.616C411.081 454.975 412.666 453.39 415.043 453.39H423.231C425.74 453.39 427.325 455.107 427.325 457.484C427.325 459.993 425.74 461.578 423.363 461.578H423.231Z"
    fill="white"/>
  <path
    d="M464.171 553.099C473.613 557.071 483.746 559.142 493.989 559.194C504.233 559.245 514.386 557.277 523.868 553.401C533.349 549.525 541.974 543.817 549.248 536.604C556.521 529.391 562.301 520.815 566.257 511.366L316.391 405.979V405.186C320.581 395.704 322.824 385.477 322.985 375.112C323.147 364.747 321.224 354.455 317.332 344.847C313.439 335.238 307.656 326.51 300.326 319.18C292.995 311.85 284.267 306.068 274.658 302.176C255.356 293.981 233.591 293.771 214.134 301.594C194.677 309.416 179.114 324.632 170.856 343.908C162.953 363.353 162.978 385.12 170.927 404.546C178.875 423.973 194.114 439.514 213.38 447.843L464.303 553.231L464.171 553.099Z"
    fill="white"/>
  <path
    d="M494.414 561.287C483.849 561.287 473.152 559.702 463.379 554.684L212.456 450.088C192.747 441.614 177.16 425.732 169.056 405.868C160.953 386.004 160.982 363.751 169.139 343.908C186.307 302.968 234.511 283.423 275.319 300.591C294.811 309.093 310.231 324.845 318.315 344.514C326.4 364.184 326.515 386.226 318.636 405.979L566.257 510.574C567.05 510.574 567.05 511.366 567.05 511.366V513.083C561.217 527.507 551.159 539.829 538.195 548.432C525.232 557.034 509.97 561.516 494.414 561.287V561.287ZM464.964 551.514C483.216 559.188 503.736 559.469 522.192 552.299C540.648 545.128 555.596 531.067 563.88 513.083L315.466 408.488C314.542 408.488 314.542 407.696 314.542 407.696V405.186C318.461 395.908 320.515 385.948 320.586 375.876C320.656 365.804 318.742 355.817 314.952 346.484C311.163 337.152 305.573 328.657 298.5 321.485C291.428 314.313 283.012 308.605 273.734 304.685C264.456 300.766 254.496 298.712 244.424 298.642C234.352 298.571 224.364 300.485 215.032 304.275C205.699 308.064 197.205 313.654 190.033 320.727C182.861 327.799 177.152 336.215 173.233 345.493C169.303 354.778 167.245 364.747 167.177 374.829C167.109 384.911 169.032 394.907 172.835 404.244C176.639 413.581 182.248 422.076 189.342 429.24C196.436 436.405 204.874 442.098 214.173 445.994H214.965L464.964 551.514Z"
    fill="black"/>
  <path
    d="M244.284 407.696C248.751 407.98 253.229 407.345 257.441 405.831C261.654 404.317 265.511 401.956 268.775 398.893C272.039 395.829 274.64 392.13 276.419 388.022C278.197 383.915 279.115 379.486 279.115 375.01C279.115 370.534 278.197 366.105 276.419 361.997C274.64 357.889 272.039 354.19 268.775 351.127C265.511 348.064 261.654 345.702 257.441 344.188C253.229 342.674 248.751 342.04 244.284 342.324C235.974 342.852 228.178 346.526 222.48 352.598C216.782 358.669 213.611 366.683 213.611 375.01C213.611 383.336 216.782 391.35 222.48 397.422C228.178 403.494 235.974 407.167 244.284 407.696V407.696Z"
    fill="white"/>
  <path
    d="M244.284 409.28C234.988 409.211 226.093 405.488 219.52 398.915C212.947 392.342 209.224 383.447 209.155 374.151C209.224 364.856 212.947 355.961 219.52 349.387C226.093 342.814 234.988 339.091 244.284 339.022C253.579 339.091 262.474 342.814 269.047 349.387C275.621 355.961 279.344 364.856 279.413 374.151C279.211 383.405 275.445 392.223 268.9 398.768C262.356 405.312 253.537 409.078 244.284 409.28V409.28ZM244.284 343.908C236.28 343.908 228.605 347.088 222.946 352.747C217.286 358.406 214.107 366.082 214.107 374.085C214.107 382.088 217.286 389.764 222.946 395.423C228.605 401.083 236.28 404.262 244.284 404.262C252.287 404.262 259.963 401.083 265.622 395.423C271.281 389.764 274.461 382.088 274.461 374.085C274.461 366.082 271.281 358.406 265.622 352.747C259.963 347.088 252.287 343.908 244.284 343.908V343.908Z"
    fill="black"/>
  <path
    d="M369.349 488.519C373.902 488.519 378.269 486.71 381.489 483.491C384.709 480.271 386.517 475.904 386.517 471.351C386.517 466.798 384.709 462.431 381.489 459.211C378.269 455.991 373.902 454.182 369.349 454.182C364.796 454.182 360.429 455.991 357.209 459.211C353.989 462.431 352.181 466.798 352.181 471.351C352.181 475.904 353.989 480.271 357.209 483.491C360.429 486.71 364.796 488.519 369.349 488.519V488.519Z"
    fill="#FF1E23"/>
  <path
    d="M369.349 490.104C366.876 490.14 364.422 489.679 362.13 488.749C359.839 487.819 357.758 486.439 356.009 484.691C354.261 482.942 352.881 480.861 351.951 478.569C351.021 476.278 350.56 473.823 350.596 471.351C350.56 468.878 351.021 466.424 351.951 464.132C352.881 461.841 354.261 459.76 356.009 458.011C357.758 456.262 359.839 454.883 362.13 453.953C364.422 453.023 366.876 452.562 369.349 452.598C371.821 452.562 374.276 453.023 376.567 453.953C378.859 454.883 380.94 456.262 382.689 458.011C384.437 459.76 385.817 461.841 386.747 464.132C387.677 466.424 388.138 468.878 388.102 471.351C388.102 481.256 379.122 490.236 369.349 490.236V490.104ZM369.349 455.767C367.408 455.749 365.482 456.121 363.687 456.859C361.892 457.598 360.263 458.689 358.896 460.068C357.53 461.446 356.453 463.085 355.731 464.887C355.008 466.689 354.654 468.617 354.69 470.558C354.672 472.488 355.039 474.403 355.77 476.189C356.5 477.976 357.579 479.599 358.944 480.963C360.309 482.328 361.932 483.407 363.718 484.138C365.505 484.868 367.419 485.235 369.349 485.218C371.268 485.235 373.171 484.872 374.949 484.15C376.726 483.428 378.344 482.36 379.707 481.01C381.07 479.659 382.151 478.052 382.89 476.28C383.628 474.509 384.008 472.609 384.008 470.69C384.008 463.163 377.405 455.899 369.481 455.899L369.349 455.767ZM513.299 522.064L414.251 480.331C413.458 479.539 412.666 478.746 413.458 477.954C414.251 477.162 415.175 476.237 415.968 477.162L513.96 518.762C514.752 519.554 515.676 520.479 514.752 521.271C514.752 521.271 513.96 522.064 513.167 522.064H513.299Z"
    fill="black"/>
  <path
    d="M434.721 359.36L553.975 240.106C557.583 236.549 562.446 234.555 567.512 234.555C572.578 234.555 577.441 236.549 581.048 240.106C584.565 243.708 586.534 248.542 586.534 253.576C586.534 258.61 584.565 263.445 581.048 267.047L462.454 386.433C458.853 389.95 454.018 391.919 448.984 391.919C443.95 391.919 439.115 389.95 435.513 386.433C433.622 384.759 432.095 382.715 431.024 380.428C429.954 378.141 429.363 375.659 429.289 373.134C429.215 370.61 429.658 368.097 430.592 365.751C431.527 363.404 432.932 361.275 434.721 359.492V359.36Z"
    fill="white"/>
  <path
    d="M448.588 394.621C442.909 394.621 438.023 392.112 433.136 388.018C429.191 383.973 426.984 378.547 426.984 372.897C426.984 367.247 429.191 361.82 433.136 357.775L552.391 238.521C556.485 234.427 562.163 231.918 567.974 231.918C572.228 231.915 576.388 233.165 579.936 235.512C583.484 237.859 586.263 241.198 587.925 245.114C589.587 249.029 590.059 253.348 589.282 257.53C588.506 261.712 586.515 265.574 583.558 268.632L464.171 388.018C459.285 392.112 454.399 394.621 448.588 394.621V394.621ZM436.306 361.077C429.702 367.68 429.702 379.038 436.306 385.641C442.909 392.244 454.399 392.244 460.87 385.641L580.124 266.254C586.727 259.651 586.727 248.294 580.124 241.822C578.546 240.205 576.655 238.925 574.566 238.063C572.477 237.2 570.234 236.772 567.974 236.804C562.956 236.804 558.994 238.521 555.692 241.822L436.306 361.077V361.077Z"
    fill="black"/>
  <path
    d="M555.692 389.735C563.293 389.735 570.582 386.716 575.956 381.341C581.331 375.967 584.35 368.677 584.35 361.077C584.35 353.476 581.331 346.187 575.956 340.813C570.582 335.438 563.293 332.419 555.692 332.419C548.092 332.419 540.802 335.438 535.428 340.813C530.053 346.187 527.034 353.476 527.034 361.077C527.034 368.677 530.053 375.967 535.428 381.341C540.802 386.716 548.092 389.735 555.692 389.735V389.735Z"
    fill="white"/>
  <path
    d="M555.692 392.112C547.461 392.112 539.567 388.842 533.747 383.022C527.927 377.202 524.657 369.308 524.657 361.077C524.657 352.846 527.927 344.952 533.747 339.132C539.567 333.312 547.461 330.042 555.692 330.042C563.923 330.042 571.817 333.312 577.637 339.132C583.458 344.952 586.727 352.846 586.727 361.077C586.727 369.308 583.458 377.202 577.637 383.022C571.817 388.842 563.923 392.112 555.692 392.112ZM555.692 334.004C548.546 334.073 541.713 336.952 536.672 342.018C531.631 347.084 528.785 353.93 528.751 361.077C528.751 375.736 540.901 388.018 555.692 388.018C570.351 388.018 582.633 375.736 582.633 361.077C582.633 346.418 570.351 334.136 555.692 334.136V334.004Z"
    fill="black"/>
  <path
    d="M555.692 366.756C557.198 366.756 558.643 366.157 559.707 365.092C560.772 364.027 561.371 362.583 561.371 361.077C561.371 359.571 560.772 358.126 559.707 357.061C558.643 355.996 557.198 355.398 555.692 355.398C554.186 355.398 552.741 355.996 551.676 357.061C550.612 358.126 550.013 359.571 550.013 361.077C550.013 362.583 550.612 364.027 551.676 365.092C552.741 366.157 554.186 366.756 555.692 366.756Z"
    fill="#FF1E23"/>
  <path
    d="M555.692 368.472C551.598 368.472 548.297 365.171 548.297 361.077C548.297 357.115 551.598 353.681 555.692 353.681C559.654 353.681 563.088 356.983 563.088 361.077C563.88 365.039 560.447 368.472 555.692 368.472ZM555.692 357.907C554.858 357.964 554.069 358.313 553.466 358.892C552.862 359.472 552.482 360.245 552.391 361.077C552.391 362.662 553.975 364.378 555.692 364.378C557.277 364.378 558.994 362.662 558.994 361.077C559.786 359.492 558.069 357.775 555.692 357.775V357.907Z"
    fill="black"/>
  <path
    d="M460.87 294.12C464.788 294.386 468.719 293.845 472.419 292.529C476.119 291.212 479.509 289.15 482.379 286.468C485.249 283.787 487.537 280.545 489.101 276.943C490.665 273.341 491.472 269.455 491.472 265.528C491.472 261.601 490.665 257.716 489.101 254.113C487.537 250.511 485.249 247.269 482.379 244.588C479.509 241.907 476.119 239.844 472.419 238.528C468.719 237.211 464.788 236.67 460.87 236.936C453.623 237.429 446.833 240.655 441.874 245.963C436.915 251.271 434.156 258.264 434.156 265.528C434.156 272.792 436.915 279.785 441.874 285.093C446.833 290.401 453.623 293.627 460.87 294.12V294.12Z"
    fill="white"/>
  <path
    d="M460.87 296.497C452.639 296.497 444.745 293.227 438.924 287.407C433.104 281.587 429.834 273.693 429.834 265.462C429.834 257.231 433.104 249.337 438.924 243.517C444.745 237.697 452.639 234.427 460.87 234.427C469.101 234.427 476.995 237.697 482.815 243.517C488.635 249.337 491.905 257.231 491.905 265.462C491.905 273.693 488.635 281.587 482.815 287.407C476.995 293.227 469.101 296.497 460.87 296.497ZM460.87 238.389C453.7 238.458 446.848 241.355 441.803 246.45C436.758 251.544 433.928 258.424 433.928 265.594C433.928 280.253 446.21 292.535 460.87 292.535C475.529 292.535 487.811 280.253 487.811 265.594C487.811 250.935 475.529 238.653 460.87 238.653V238.389Z"
    fill="black"/>
  <path
    d="M460.87 271.141C462.376 271.141 463.82 270.542 464.885 269.477C465.95 268.412 466.549 266.968 466.549 265.462C466.549 263.956 465.95 262.511 464.885 261.446C463.82 260.381 462.376 259.783 460.87 259.783C459.364 259.783 457.919 260.381 456.854 261.446C455.789 262.511 455.191 263.956 455.191 265.462C455.191 266.968 455.789 268.412 456.854 269.477C457.919 270.542 459.364 271.141 460.87 271.141Z"
    fill="#FF1E23"/>
  <path
    d="M460.87 272.858C456.908 272.858 453.474 269.556 453.474 265.462C453.474 261.5 456.776 258.067 460.87 258.067C464.964 258.067 468.265 261.368 468.265 265.462C468.265 269.556 464.964 272.858 460.87 272.858ZM460.87 262.293C460.035 262.35 459.247 262.698 458.643 263.278C458.04 263.857 457.659 264.63 457.568 265.462C457.568 267.047 459.285 268.764 460.87 268.764C462.455 268.764 464.171 267.047 464.171 265.462C464.171 263.877 462.455 262.161 460.87 262.161V262.293Z"
    fill="black"/>
</svg>
